<?xml version="1.0" encoding="utf-8"?>
<svg xmlns="http://www.w3.org/2000/svg" xmlns:xlink="http://www.w3.org/1999/xlink" width="600" height="400" viewBox="0 0 2400 1600">
<defs>
  <clipPath id="clip4600">
    <rect x="0" y="0" width="2400" height="1600"/>
  </clipPath>
</defs>
<path clip-path="url(#clip4600)" d="
M0 1600 L2400 1600 L2400 0 L0 0  Z
  " fill="#1e1e1e" fill-rule="evenodd" fill-opacity="1"/>
<defs>
  <clipPath id="clip4601">
    <rect x="480" y="0" width="1681" height="1600"/>
  </clipPath>
</defs>
<path clip-path="url(#clip4600)" d="
M182.008 1487.47 L2352.76 1487.47 L2352.76 47.2441 L182.008 47.2441  Z
  " fill="#1e1e1e" fill-rule="evenodd" fill-opacity="1"/>
<defs>
  <clipPath id="clip4602">
    <rect x="182" y="47" width="2172" height="1441"/>
  </clipPath>
</defs>
<polyline clip-path="url(#clip4602)" style="stroke:#ffffff; stroke-width:2; stroke-opacity:0.1; fill:none" points="
  243.444,1487.47 243.444,47.2441 
  "/>
<polyline clip-path="url(#clip4602)" style="stroke:#ffffff; stroke-width:2; stroke-opacity:0.1; fill:none" points="
  763.54,1487.47 763.54,47.2441 
  "/>
<polyline clip-path="url(#clip4602)" style="stroke:#ffffff; stroke-width:2; stroke-opacity:0.1; fill:none" points="
  1283.63,1487.47 1283.63,47.2441 
  "/>
<polyline clip-path="url(#clip4602)" style="stroke:#ffffff; stroke-width:2; stroke-opacity:0.1; fill:none" points="
  1803.73,1487.47 1803.73,47.2441 
  "/>
<polyline clip-path="url(#clip4602)" style="stroke:#ffffff; stroke-width:2; stroke-opacity:0.1; fill:none" points="
  2323.83,1487.47 2323.83,47.2441 
  "/>
<polyline clip-path="url(#clip4602)" style="stroke:#ffffff; stroke-width:2; stroke-opacity:0.1; fill:none" points="
  182.008,1290.39 2352.76,1290.39 
  "/>
<polyline clip-path="url(#clip4602)" style="stroke:#ffffff; stroke-width:2; stroke-opacity:0.1; fill:none" points="
  182.008,1087.35 2352.76,1087.35 
  "/>
<polyline clip-path="url(#clip4602)" style="stroke:#ffffff; stroke-width:2; stroke-opacity:0.1; fill:none" points="
  182.008,884.307 2352.76,884.307 
  "/>
<polyline clip-path="url(#clip4602)" style="stroke:#ffffff; stroke-width:2; stroke-opacity:0.1; fill:none" points="
  182.008,681.266 2352.76,681.266 
  "/>
<polyline clip-path="url(#clip4602)" style="stroke:#ffffff; stroke-width:2; stroke-opacity:0.1; fill:none" points="
  182.008,478.225 2352.76,478.225 
  "/>
<polyline clip-path="url(#clip4602)" style="stroke:#ffffff; stroke-width:2; stroke-opacity:0.1; fill:none" points="
  182.008,275.184 2352.76,275.184 
  "/>
<polyline clip-path="url(#clip4602)" style="stroke:#ffffff; stroke-width:2; stroke-opacity:0.1; fill:none" points="
  182.008,72.1428 2352.76,72.1428 
  "/>
<polyline clip-path="url(#clip4600)" style="stroke:#ffffff; stroke-width:4; stroke-opacity:1; fill:none" points="
  182.008,1487.47 2352.76,1487.47 
  "/>
<polyline clip-path="url(#clip4600)" style="stroke:#ffffff; stroke-width:4; stroke-opacity:1; fill:none" points="
  182.008,1487.47 182.008,47.2441 
  "/>
<polyline clip-path="url(#clip4600)" style="stroke:#ffffff; stroke-width:4; stroke-opacity:1; fill:none" points="
  243.444,1487.47 243.444,1470.19 
  "/>
<polyline clip-path="url(#clip4600)" style="stroke:#ffffff; stroke-width:4; stroke-opacity:1; fill:none" points="
  763.54,1487.47 763.54,1470.19 
  "/>
<polyline clip-path="url(#clip4600)" style="stroke:#ffffff; stroke-width:4; stroke-opacity:1; fill:none" points="
  1283.63,1487.47 1283.63,1470.19 
  "/>
<polyline clip-path="url(#clip4600)" style="stroke:#ffffff; stroke-width:4; stroke-opacity:1; fill:none" points="
  1803.73,1487.47 1803.73,1470.19 
  "/>
<polyline clip-path="url(#clip4600)" style="stroke:#ffffff; stroke-width:4; stroke-opacity:1; fill:none" points="
  2323.83,1487.47 2323.83,1470.19 
  "/>
<polyline clip-path="url(#clip4600)" style="stroke:#ffffff; stroke-width:4; stroke-opacity:1; fill:none" points="
  182.008,1290.39 208.057,1290.39 
  "/>
<polyline clip-path="url(#clip4600)" style="stroke:#ffffff; stroke-width:4; stroke-opacity:1; fill:none" points="
  182.008,1087.35 208.057,1087.35 
  "/>
<polyline clip-path="url(#clip4600)" style="stroke:#ffffff; stroke-width:4; stroke-opacity:1; fill:none" points="
  182.008,884.307 208.057,884.307 
  "/>
<polyline clip-path="url(#clip4600)" style="stroke:#ffffff; stroke-width:4; stroke-opacity:1; fill:none" points="
  182.008,681.266 208.057,681.266 
  "/>
<polyline clip-path="url(#clip4600)" style="stroke:#ffffff; stroke-width:4; stroke-opacity:1; fill:none" points="
  182.008,478.225 208.057,478.225 
  "/>
<polyline clip-path="url(#clip4600)" style="stroke:#ffffff; stroke-width:4; stroke-opacity:1; fill:none" points="
  182.008,275.184 208.057,275.184 
  "/>
<polyline clip-path="url(#clip4600)" style="stroke:#ffffff; stroke-width:4; stroke-opacity:1; fill:none" points="
  182.008,72.1428 208.057,72.1428 
  "/>
<g clip-path="url(#clip4600)">
<text style="fill:#ffffff; fill-opacity:1; font-family:Arial,Helvetica Neue,Helvetica,sans-serif; font-size:48px; text-anchor:middle;" transform="rotate(0, 243.444, 1541.47)" x="243.444" y="1541.47">0.00</text>
</g>
<g clip-path="url(#clip4600)">
<text style="fill:#ffffff; fill-opacity:1; font-family:Arial,Helvetica Neue,Helvetica,sans-serif; font-size:48px; text-anchor:middle;" transform="rotate(0, 763.54, 1541.47)" x="763.54" y="1541.47">0.25</text>
</g>
<g clip-path="url(#clip4600)">
<text style="fill:#ffffff; fill-opacity:1; font-family:Arial,Helvetica Neue,Helvetica,sans-serif; font-size:48px; text-anchor:middle;" transform="rotate(0, 1283.63, 1541.47)" x="1283.63" y="1541.47">0.50</text>
</g>
<g clip-path="url(#clip4600)">
<text style="fill:#ffffff; fill-opacity:1; font-family:Arial,Helvetica Neue,Helvetica,sans-serif; font-size:48px; text-anchor:middle;" transform="rotate(0, 1803.73, 1541.47)" x="1803.73" y="1541.47">0.75</text>
</g>
<g clip-path="url(#clip4600)">
<text style="fill:#ffffff; fill-opacity:1; font-family:Arial,Helvetica Neue,Helvetica,sans-serif; font-size:48px; text-anchor:middle;" transform="rotate(0, 2323.83, 1541.47)" x="2323.83" y="1541.47">1.00</text>
</g>
<g clip-path="url(#clip4600)">
<text style="fill:#ffffff; fill-opacity:1; font-family:Arial,Helvetica Neue,Helvetica,sans-serif; font-size:48px; text-anchor:end;" transform="rotate(0, 158.008, 1307.89)" x="158.008" y="1307.89">-0.2</text>
</g>
<g clip-path="url(#clip4600)">
<text style="fill:#ffffff; fill-opacity:1; font-family:Arial,Helvetica Neue,Helvetica,sans-serif; font-size:48px; text-anchor:end;" transform="rotate(0, 158.008, 1104.85)" x="158.008" y="1104.85">0.0</text>
</g>
<g clip-path="url(#clip4600)">
<text style="fill:#ffffff; fill-opacity:1; font-family:Arial,Helvetica Neue,Helvetica,sans-serif; font-size:48px; text-anchor:end;" transform="rotate(0, 158.008, 901.807)" x="158.008" y="901.807">0.2</text>
</g>
<g clip-path="url(#clip4600)">
<text style="fill:#ffffff; fill-opacity:1; font-family:Arial,Helvetica Neue,Helvetica,sans-serif; font-size:48px; text-anchor:end;" transform="rotate(0, 158.008, 698.766)" x="158.008" y="698.766">0.4</text>
</g>
<g clip-path="url(#clip4600)">
<text style="fill:#ffffff; fill-opacity:1; font-family:Arial,Helvetica Neue,Helvetica,sans-serif; font-size:48px; text-anchor:end;" transform="rotate(0, 158.008, 495.725)" x="158.008" y="495.725">0.6</text>
</g>
<g clip-path="url(#clip4600)">
<text style="fill:#ffffff; fill-opacity:1; font-family:Arial,Helvetica Neue,Helvetica,sans-serif; font-size:48px; text-anchor:end;" transform="rotate(0, 158.008, 292.684)" x="158.008" y="292.684">0.8</text>
</g>
<g clip-path="url(#clip4600)">
<text style="fill:#ffffff; fill-opacity:1; font-family:Arial,Helvetica Neue,Helvetica,sans-serif; font-size:48px; text-anchor:end;" transform="rotate(0, 158.008, 89.6428)" x="158.008" y="89.6428">1.0</text>
</g>
<polyline clip-path="url(#clip4602)" style="stroke:#14d0ff; stroke-width:8; stroke-opacity:1; fill:none" points="
  243.444,1087.35 275.95,1071.49 308.456,1055.62 340.962,1039.76 373.468,1023.9 405.974,1008.04 438.48,992.173 470.986,976.31 503.492,960.447 535.998,944.585 
  568.504,928.722 601.01,912.86 633.516,896.997 666.022,881.134 698.528,865.272 731.034,849.409 763.54,833.547 796.046,817.684 828.552,801.822 861.058,785.959 
  893.563,770.096 926.069,754.234 958.575,738.371 991.081,722.509 1023.59,706.646 1056.09,690.783 1088.6,674.921 1121.11,659.058 1153.61,643.196 1186.12,627.333 
  1218.62,611.471 1251.13,595.608 1283.63,579.745 1316.14,563.883 1348.65,548.02 1381.15,532.158 1413.66,516.295 1446.16,500.432 1478.67,484.57 1511.18,468.707 
  1543.68,452.845 1576.19,436.982 1608.69,421.12 1641.2,405.257 1673.71,389.394 1706.21,373.532 1738.72,357.669 1771.22,341.807 1803.73,325.944 1836.24,310.081 
  1868.74,294.219 1901.25,278.356 1933.75,262.494 1966.26,246.631 1998.77,230.769 2031.27,214.906 2063.78,199.043 2096.28,183.181 2128.79,167.318 2161.3,151.456 
  2193.8,135.593 2226.31,119.731 2258.81,103.868 2291.32,88.0053 
  "/>
<circle clip-path="url(#clip4602)" cx="243.444" cy="1087.35" r="10" fill="#14d0ff" fill-rule="evenodd" fill-opacity="1" stroke="#ffffff" stroke-opacity="1" stroke-width="3.2"/>
<circle clip-path="url(#clip4602)" cx="275.95" cy="1071.49" r="10" fill="#14d0ff" fill-rule="evenodd" fill-opacity="1" stroke="#ffffff" stroke-opacity="1" stroke-width="3.2"/>
<circle clip-path="url(#clip4602)" cx="308.456" cy="1055.62" r="10" fill="#14d0ff" fill-rule="evenodd" fill-opacity="1" stroke="#ffffff" stroke-opacity="1" stroke-width="3.2"/>
<circle clip-path="url(#clip4602)" cx="340.962" cy="1039.76" r="10" fill="#14d0ff" fill-rule="evenodd" fill-opacity="1" stroke="#ffffff" stroke-opacity="1" stroke-width="3.2"/>
<circle clip-path="url(#clip4602)" cx="373.468" cy="1023.9" r="10" fill="#14d0ff" fill-rule="evenodd" fill-opacity="1" stroke="#ffffff" stroke-opacity="1" stroke-width="3.2"/>
<circle clip-path="url(#clip4602)" cx="405.974" cy="1008.04" r="10" fill="#14d0ff" fill-rule="evenodd" fill-opacity="1" stroke="#ffffff" stroke-opacity="1" stroke-width="3.2"/>
<circle clip-path="url(#clip4602)" cx="438.48" cy="992.173" r="10" fill="#14d0ff" fill-rule="evenodd" fill-opacity="1" stroke="#ffffff" stroke-opacity="1" stroke-width="3.2"/>
<circle clip-path="url(#clip4602)" cx="470.986" cy="976.31" r="10" fill="#14d0ff" fill-rule="evenodd" fill-opacity="1" stroke="#ffffff" stroke-opacity="1" stroke-width="3.2"/>
<circle clip-path="url(#clip4602)" cx="503.492" cy="960.447" r="10" fill="#14d0ff" fill-rule="evenodd" fill-opacity="1" stroke="#ffffff" stroke-opacity="1" stroke-width="3.2"/>
<circle clip-path="url(#clip4602)" cx="535.998" cy="944.585" r="10" fill="#14d0ff" fill-rule="evenodd" fill-opacity="1" stroke="#ffffff" stroke-opacity="1" stroke-width="3.2"/>
<circle clip-path="url(#clip4602)" cx="568.504" cy="928.722" r="10" fill="#14d0ff" fill-rule="evenodd" fill-opacity="1" stroke="#ffffff" stroke-opacity="1" stroke-width="3.2"/>
<circle clip-path="url(#clip4602)" cx="601.01" cy="912.86" r="10" fill="#14d0ff" fill-rule="evenodd" fill-opacity="1" stroke="#ffffff" stroke-opacity="1" stroke-width="3.2"/>
<circle clip-path="url(#clip4602)" cx="633.516" cy="896.997" r="10" fill="#14d0ff" fill-rule="evenodd" fill-opacity="1" stroke="#ffffff" stroke-opacity="1" stroke-width="3.2"/>
<circle clip-path="url(#clip4602)" cx="666.022" cy="881.134" r="10" fill="#14d0ff" fill-rule="evenodd" fill-opacity="1" stroke="#ffffff" stroke-opacity="1" stroke-width="3.2"/>
<circle clip-path="url(#clip4602)" cx="698.528" cy="865.272" r="10" fill="#14d0ff" fill-rule="evenodd" fill-opacity="1" stroke="#ffffff" stroke-opacity="1" stroke-width="3.2"/>
<circle clip-path="url(#clip4602)" cx="731.034" cy="849.409" r="10" fill="#14d0ff" fill-rule="evenodd" fill-opacity="1" stroke="#ffffff" stroke-opacity="1" stroke-width="3.2"/>
<circle clip-path="url(#clip4602)" cx="763.54" cy="833.547" r="10" fill="#14d0ff" fill-rule="evenodd" fill-opacity="1" stroke="#ffffff" stroke-opacity="1" stroke-width="3.2"/>
<circle clip-path="url(#clip4602)" cx="796.046" cy="817.684" r="10" fill="#14d0ff" fill-rule="evenodd" fill-opacity="1" stroke="#ffffff" stroke-opacity="1" stroke-width="3.2"/>
<circle clip-path="url(#clip4602)" cx="828.552" cy="801.822" r="10" fill="#14d0ff" fill-rule="evenodd" fill-opacity="1" stroke="#ffffff" stroke-opacity="1" stroke-width="3.2"/>
<circle clip-path="url(#clip4602)" cx="861.058" cy="785.959" r="10" fill="#14d0ff" fill-rule="evenodd" fill-opacity="1" stroke="#ffffff" stroke-opacity="1" stroke-width="3.2"/>
<circle clip-path="url(#clip4602)" cx="893.563" cy="770.096" r="10" fill="#14d0ff" fill-rule="evenodd" fill-opacity="1" stroke="#ffffff" stroke-opacity="1" stroke-width="3.2"/>
<circle clip-path="url(#clip4602)" cx="926.069" cy="754.234" r="10" fill="#14d0ff" fill-rule="evenodd" fill-opacity="1" stroke="#ffffff" stroke-opacity="1" stroke-width="3.2"/>
<circle clip-path="url(#clip4602)" cx="958.575" cy="738.371" r="10" fill="#14d0ff" fill-rule="evenodd" fill-opacity="1" stroke="#ffffff" stroke-opacity="1" stroke-width="3.2"/>
<circle clip-path="url(#clip4602)" cx="991.081" cy="722.509" r="10" fill="#14d0ff" fill-rule="evenodd" fill-opacity="1" stroke="#ffffff" stroke-opacity="1" stroke-width="3.2"/>
<circle clip-path="url(#clip4602)" cx="1023.59" cy="706.646" r="10" fill="#14d0ff" fill-rule="evenodd" fill-opacity="1" stroke="#ffffff" stroke-opacity="1" stroke-width="3.2"/>
<circle clip-path="url(#clip4602)" cx="1056.09" cy="690.783" r="10" fill="#14d0ff" fill-rule="evenodd" fill-opacity="1" stroke="#ffffff" stroke-opacity="1" stroke-width="3.2"/>
<circle clip-path="url(#clip4602)" cx="1088.6" cy="674.921" r="10" fill="#14d0ff" fill-rule="evenodd" fill-opacity="1" stroke="#ffffff" stroke-opacity="1" stroke-width="3.2"/>
<circle clip-path="url(#clip4602)" cx="1121.11" cy="659.058" r="10" fill="#14d0ff" fill-rule="evenodd" fill-opacity="1" stroke="#ffffff" stroke-opacity="1" stroke-width="3.2"/>
<circle clip-path="url(#clip4602)" cx="1153.61" cy="643.196" r="10" fill="#14d0ff" fill-rule="evenodd" fill-opacity="1" stroke="#ffffff" stroke-opacity="1" stroke-width="3.2"/>
<circle clip-path="url(#clip4602)" cx="1186.12" cy="627.333" r="10" fill="#14d0ff" fill-rule="evenodd" fill-opacity="1" stroke="#ffffff" stroke-opacity="1" stroke-width="3.2"/>
<circle clip-path="url(#clip4602)" cx="1218.62" cy="611.471" r="10" fill="#14d0ff" fill-rule="evenodd" fill-opacity="1" stroke="#ffffff" stroke-opacity="1" stroke-width="3.2"/>
<circle clip-path="url(#clip4602)" cx="1251.13" cy="595.608" r="10" fill="#14d0ff" fill-rule="evenodd" fill-opacity="1" stroke="#ffffff" stroke-opacity="1" stroke-width="3.2"/>
<circle clip-path="url(#clip4602)" cx="1283.63" cy="579.745" r="10" fill="#14d0ff" fill-rule="evenodd" fill-opacity="1" stroke="#ffffff" stroke-opacity="1" stroke-width="3.2"/>
<circle clip-path="url(#clip4602)" cx="1316.14" cy="563.883" r="10" fill="#14d0ff" fill-rule="evenodd" fill-opacity="1" stroke="#ffffff" stroke-opacity="1" stroke-width="3.2"/>
<circle clip-path="url(#clip4602)" cx="1348.65" cy="548.02" r="10" fill="#14d0ff" fill-rule="evenodd" fill-opacity="1" stroke="#ffffff" stroke-opacity="1" stroke-width="3.2"/>
<circle clip-path="url(#clip4602)" cx="1381.15" cy="532.158" r="10" fill="#14d0ff" fill-rule="evenodd" fill-opacity="1" stroke="#ffffff" stroke-opacity="1" stroke-width="3.2"/>
<circle clip-path="url(#clip4602)" cx="1413.66" cy="516.295" r="10" fill="#14d0ff" fill-rule="evenodd" fill-opacity="1" stroke="#ffffff" stroke-opacity="1" stroke-width="3.2"/>
<circle clip-path="url(#clip4602)" cx="1446.16" cy="500.432" r="10" fill="#14d0ff" fill-rule="evenodd" fill-opacity="1" stroke="#ffffff" stroke-opacity="1" stroke-width="3.2"/>
<circle clip-path="url(#clip4602)" cx="1478.67" cy="484.57" r="10" fill="#14d0ff" fill-rule="evenodd" fill-opacity="1" stroke="#ffffff" stroke-opacity="1" stroke-width="3.2"/>
<circle clip-path="url(#clip4602)" cx="1511.18" cy="468.707" r="10" fill="#14d0ff" fill-rule="evenodd" fill-opacity="1" stroke="#ffffff" stroke-opacity="1" stroke-width="3.2"/>
<circle clip-path="url(#clip4602)" cx="1543.68" cy="452.845" r="10" fill="#14d0ff" fill-rule="evenodd" fill-opacity="1" stroke="#ffffff" stroke-opacity="1" stroke-width="3.2"/>
<circle clip-path="url(#clip4602)" cx="1576.19" cy="436.982" r="10" fill="#14d0ff" fill-rule="evenodd" fill-opacity="1" stroke="#ffffff" stroke-opacity="1" stroke-width="3.2"/>
<circle clip-path="url(#clip4602)" cx="1608.69" cy="421.12" r="10" fill="#14d0ff" fill-rule="evenodd" fill-opacity="1" stroke="#ffffff" stroke-opacity="1" stroke-width="3.2"/>
<circle clip-path="url(#clip4602)" cx="1641.2" cy="405.257" r="10" fill="#14d0ff" fill-rule="evenodd" fill-opacity="1" stroke="#ffffff" stroke-opacity="1" stroke-width="3.2"/>
<circle clip-path="url(#clip4602)" cx="1673.71" cy="389.394" r="10" fill="#14d0ff" fill-rule="evenodd" fill-opacity="1" stroke="#ffffff" stroke-opacity="1" stroke-width="3.2"/>
<circle clip-path="url(#clip4602)" cx="1706.21" cy="373.532" r="10" fill="#14d0ff" fill-rule="evenodd" fill-opacity="1" stroke="#ffffff" stroke-opacity="1" stroke-width="3.2"/>
<circle clip-path="url(#clip4602)" cx="1738.72" cy="357.669" r="10" fill="#14d0ff" fill-rule="evenodd" fill-opacity="1" stroke="#ffffff" stroke-opacity="1" stroke-width="3.2"/>
<circle clip-path="url(#clip4602)" cx="1771.22" cy="341.807" r="10" fill="#14d0ff" fill-rule="evenodd" fill-opacity="1" stroke="#ffffff" stroke-opacity="1" stroke-width="3.2"/>
<circle clip-path="url(#clip4602)" cx="1803.73" cy="325.944" r="10" fill="#14d0ff" fill-rule="evenodd" fill-opacity="1" stroke="#ffffff" stroke-opacity="1" stroke-width="3.2"/>
<circle clip-path="url(#clip4602)" cx="1836.24" cy="310.081" r="10" fill="#14d0ff" fill-rule="evenodd" fill-opacity="1" stroke="#ffffff" stroke-opacity="1" stroke-width="3.2"/>
<circle clip-path="url(#clip4602)" cx="1868.74" cy="294.219" r="10" fill="#14d0ff" fill-rule="evenodd" fill-opacity="1" stroke="#ffffff" stroke-opacity="1" stroke-width="3.2"/>
<circle clip-path="url(#clip4602)" cx="1901.25" cy="278.356" r="10" fill="#14d0ff" fill-rule="evenodd" fill-opacity="1" stroke="#ffffff" stroke-opacity="1" stroke-width="3.2"/>
<circle clip-path="url(#clip4602)" cx="1933.75" cy="262.494" r="10" fill="#14d0ff" fill-rule="evenodd" fill-opacity="1" stroke="#ffffff" stroke-opacity="1" stroke-width="3.2"/>
<circle clip-path="url(#clip4602)" cx="1966.26" cy="246.631" r="10" fill="#14d0ff" fill-rule="evenodd" fill-opacity="1" stroke="#ffffff" stroke-opacity="1" stroke-width="3.2"/>
<circle clip-path="url(#clip4602)" cx="1998.77" cy="230.769" r="10" fill="#14d0ff" fill-rule="evenodd" fill-opacity="1" stroke="#ffffff" stroke-opacity="1" stroke-width="3.2"/>
<circle clip-path="url(#clip4602)" cx="2031.27" cy="214.906" r="10" fill="#14d0ff" fill-rule="evenodd" fill-opacity="1" stroke="#ffffff" stroke-opacity="1" stroke-width="3.2"/>
<circle clip-path="url(#clip4602)" cx="2063.78" cy="199.043" r="10" fill="#14d0ff" fill-rule="evenodd" fill-opacity="1" stroke="#ffffff" stroke-opacity="1" stroke-width="3.2"/>
<circle clip-path="url(#clip4602)" cx="2096.28" cy="183.181" r="10" fill="#14d0ff" fill-rule="evenodd" fill-opacity="1" stroke="#ffffff" stroke-opacity="1" stroke-width="3.2"/>
<circle clip-path="url(#clip4602)" cx="2128.79" cy="167.318" r="10" fill="#14d0ff" fill-rule="evenodd" fill-opacity="1" stroke="#ffffff" stroke-opacity="1" stroke-width="3.2"/>
<circle clip-path="url(#clip4602)" cx="2161.3" cy="151.456" r="10" fill="#14d0ff" fill-rule="evenodd" fill-opacity="1" stroke="#ffffff" stroke-opacity="1" stroke-width="3.2"/>
<circle clip-path="url(#clip4602)" cx="2193.8" cy="135.593" r="10" fill="#14d0ff" fill-rule="evenodd" fill-opacity="1" stroke="#ffffff" stroke-opacity="1" stroke-width="3.2"/>
<circle clip-path="url(#clip4602)" cx="2226.31" cy="119.731" r="10" fill="#14d0ff" fill-rule="evenodd" fill-opacity="1" stroke="#ffffff" stroke-opacity="1" stroke-width="3.2"/>
<circle clip-path="url(#clip4602)" cx="2258.81" cy="103.868" r="10" fill="#14d0ff" fill-rule="evenodd" fill-opacity="1" stroke="#ffffff" stroke-opacity="1" stroke-width="3.2"/>
<circle clip-path="url(#clip4602)" cx="2291.32" cy="88.0053" r="10" fill="#14d0ff" fill-rule="evenodd" fill-opacity="1" stroke="#ffffff" stroke-opacity="1" stroke-width="3.2"/>
<polyline clip-path="url(#clip4602)" style="stroke:#ffa478; stroke-width:8; stroke-opacity:1; fill:none" points="
  243.444,1446.71 275.95,1430.85 308.456,712.12 340.962,1414.99 373.468,696.257 405.974,1399.13 438.48,680.395 470.986,1383.26 503.492,664.532 535.998,1367.4 
  568.504,648.67 601.01,1351.54 633.516,632.807 666.022,1335.68 698.528,616.945 731.034,1319.81 763.54,601.082 796.046,1303.95 828.552,585.219 861.058,1288.09 
  893.563,569.357 926.069,1272.23 958.575,553.494 991.081,1256.36 1023.59,537.632 1056.09,1240.5 1088.6,521.769 1121.11,1224.64 1153.61,505.906 1186.12,1208.77 
  1218.62,490.044 1251.13,1192.91 1283.63,474.181 1316.14,1177.05 1348.65,458.319 1381.15,1161.19 1413.66,442.456 1446.16,1145.32 1478.67,426.594 1511.18,1129.46 
  1543.68,410.731 1576.19,1113.6 1608.69,394.868 1641.2,1097.74 1673.71,379.006 1706.21,1081.87 1738.72,363.143 1771.22,1066.01 1803.73,347.281 1836.24,1050.15 
  1868.74,331.418 1901.25,1034.29 1933.75,315.555 1966.26,1018.42 1998.77,299.693 2031.27,1002.56 2063.78,283.83 2096.28,986.699 2128.79,267.968 2161.3,970.836 
  2193.8,252.105 2226.31,954.973 2258.81,236.243 2291.32,939.111 
  "/>
<circle clip-path="url(#clip4602)" cx="243.444" cy="1446.71" r="10" fill="#ffa478" fill-rule="evenodd" fill-opacity="1" stroke="#ffffff" stroke-opacity="1" stroke-width="3.2"/>
<circle clip-path="url(#clip4602)" cx="275.95" cy="1430.85" r="10" fill="#ffa478" fill-rule="evenodd" fill-opacity="1" stroke="#ffffff" stroke-opacity="1" stroke-width="3.2"/>
<circle clip-path="url(#clip4602)" cx="308.456" cy="712.12" r="10" fill="#ffa478" fill-rule="evenodd" fill-opacity="1" stroke="#ffffff" stroke-opacity="1" stroke-width="3.2"/>
<circle clip-path="url(#clip4602)" cx="340.962" cy="1414.99" r="10" fill="#ffa478" fill-rule="evenodd" fill-opacity="1" stroke="#ffffff" stroke-opacity="1" stroke-width="3.2"/>
<circle clip-path="url(#clip4602)" cx="373.468" cy="696.257" r="10" fill="#ffa478" fill-rule="evenodd" fill-opacity="1" stroke="#ffffff" stroke-opacity="1" stroke-width="3.2"/>
<circle clip-path="url(#clip4602)" cx="405.974" cy="1399.13" r="10" fill="#ffa478" fill-rule="evenodd" fill-opacity="1" stroke="#ffffff" stroke-opacity="1" stroke-width="3.2"/>
<circle clip-path="url(#clip4602)" cx="438.48" cy="680.395" r="10" fill="#ffa478" fill-rule="evenodd" fill-opacity="1" stroke="#ffffff" stroke-opacity="1" stroke-width="3.2"/>
<circle clip-path="url(#clip4602)" cx="470.986" cy="1383.26" r="10" fill="#ffa478" fill-rule="evenodd" fill-opacity="1" stroke="#ffffff" stroke-opacity="1" stroke-width="3.2"/>
<circle clip-path="url(#clip4602)" cx="503.492" cy="664.532" r="10" fill="#ffa478" fill-rule="evenodd" fill-opacity="1" stroke="#ffffff" stroke-opacity="1" stroke-width="3.2"/>
<circle clip-path="url(#clip4602)" cx="535.998" cy="1367.4" r="10" fill="#ffa478" fill-rule="evenodd" fill-opacity="1" stroke="#ffffff" stroke-opacity="1" stroke-width="3.2"/>
<circle clip-path="url(#clip4602)" cx="568.504" cy="648.67" r="10" fill="#ffa478" fill-rule="evenodd" fill-opacity="1" stroke="#ffffff" stroke-opacity="1" stroke-width="3.2"/>
<circle clip-path="url(#clip4602)" cx="601.01" cy="1351.54" r="10" fill="#ffa478" fill-rule="evenodd" fill-opacity="1" stroke="#ffffff" stroke-opacity="1" stroke-width="3.2"/>
<circle clip-path="url(#clip4602)" cx="633.516" cy="632.807" r="10" fill="#ffa478" fill-rule="evenodd" fill-opacity="1" stroke="#ffffff" stroke-opacity="1" stroke-width="3.2"/>
<circle clip-path="url(#clip4602)" cx="666.022" cy="1335.68" r="10" fill="#ffa478" fill-rule="evenodd" fill-opacity="1" stroke="#ffffff" stroke-opacity="1" stroke-width="3.2"/>
<circle clip-path="url(#clip4602)" cx="698.528" cy="616.945" r="10" fill="#ffa478" fill-rule="evenodd" fill-opacity="1" stroke="#ffffff" stroke-opacity="1" stroke-width="3.2"/>
<circle clip-path="url(#clip4602)" cx="731.034" cy="1319.81" r="10" fill="#ffa478" fill-rule="evenodd" fill-opacity="1" stroke="#ffffff" stroke-opacity="1" stroke-width="3.2"/>
<circle clip-path="url(#clip4602)" cx="763.54" cy="601.082" r="10" fill="#ffa478" fill-rule="evenodd" fill-opacity="1" stroke="#ffffff" stroke-opacity="1" stroke-width="3.2"/>
<circle clip-path="url(#clip4602)" cx="796.046" cy="1303.95" r="10" fill="#ffa478" fill-rule="evenodd" fill-opacity="1" stroke="#ffffff" stroke-opacity="1" stroke-width="3.2"/>
<circle clip-path="url(#clip4602)" cx="828.552" cy="585.219" r="10" fill="#ffa478" fill-rule="evenodd" fill-opacity="1" stroke="#ffffff" stroke-opacity="1" stroke-width="3.2"/>
<circle clip-path="url(#clip4602)" cx="861.058" cy="1288.09" r="10" fill="#ffa478" fill-rule="evenodd" fill-opacity="1" stroke="#ffffff" stroke-opacity="1" stroke-width="3.2"/>
<circle clip-path="url(#clip4602)" cx="893.563" cy="569.357" r="10" fill="#ffa478" fill-rule="evenodd" fill-opacity="1" stroke="#ffffff" stroke-opacity="1" stroke-width="3.2"/>
<circle clip-path="url(#clip4602)" cx="926.069" cy="1272.23" r="10" fill="#ffa478" fill-rule="evenodd" fill-opacity="1" stroke="#ffffff" stroke-opacity="1" stroke-width="3.2"/>
<circle clip-path="url(#clip4602)" cx="958.575" cy="553.494" r="10" fill="#ffa478" fill-rule="evenodd" fill-opacity="1" stroke="#ffffff" stroke-opacity="1" stroke-width="3.2"/>
<circle clip-path="url(#clip4602)" cx="991.081" cy="1256.36" r="10" fill="#ffa478" fill-rule="evenodd" fill-opacity="1" stroke="#ffffff" stroke-opacity="1" stroke-width="3.2"/>
<circle clip-path="url(#clip4602)" cx="1023.59" cy="537.632" r="10" fill="#ffa478" fill-rule="evenodd" fill-opacity="1" stroke="#ffffff" stroke-opacity="1" stroke-width="3.2"/>
<circle clip-path="url(#clip4602)" cx="1056.09" cy="1240.5" r="10" fill="#ffa478" fill-rule="evenodd" fill-opacity="1" stroke="#ffffff" stroke-opacity="1" stroke-width="3.2"/>
<circle clip-path="url(#clip4602)" cx="1088.6" cy="521.769" r="10" fill="#ffa478" fill-rule="evenodd" fill-opacity="1" stroke="#ffffff" stroke-opacity="1" stroke-width="3.2"/>
<circle clip-path="url(#clip4602)" cx="1121.11" cy="1224.64" r="10" fill="#ffa478" fill-rule="evenodd" fill-opacity="1" stroke="#ffffff" stroke-opacity="1" stroke-width="3.2"/>
<circle clip-path="url(#clip4602)" cx="1153.61" cy="505.906" r="10" fill="#ffa478" fill-rule="evenodd" fill-opacity="1" stroke="#ffffff" stroke-opacity="1" stroke-width="3.2"/>
<circle clip-path="url(#clip4602)" cx="1186.12" cy="1208.77" r="10" fill="#ffa478" fill-rule="evenodd" fill-opacity="1" stroke="#ffffff" stroke-opacity="1" stroke-width="3.2"/>
<circle clip-path="url(#clip4602)" cx="1218.62" cy="490.044" r="10" fill="#ffa478" fill-rule="evenodd" fill-opacity="1" stroke="#ffffff" stroke-opacity="1" stroke-width="3.2"/>
<circle clip-path="url(#clip4602)" cx="1251.13" cy="1192.91" r="10" fill="#ffa478" fill-rule="evenodd" fill-opacity="1" stroke="#ffffff" stroke-opacity="1" stroke-width="3.2"/>
<circle clip-path="url(#clip4602)" cx="1283.63" cy="474.181" r="10" fill="#ffa478" fill-rule="evenodd" fill-opacity="1" stroke="#ffffff" stroke-opacity="1" stroke-width="3.2"/>
<circle clip-path="url(#clip4602)" cx="1316.14" cy="1177.05" r="10" fill="#ffa478" fill-rule="evenodd" fill-opacity="1" stroke="#ffffff" stroke-opacity="1" stroke-width="3.2"/>
<circle clip-path="url(#clip4602)" cx="1348.65" cy="458.319" r="10" fill="#ffa478" fill-rule="evenodd" fill-opacity="1" stroke="#ffffff" stroke-opacity="1" stroke-width="3.2"/>
<circle clip-path="url(#clip4602)" cx="1381.15" cy="1161.19" r="10" fill="#ffa478" fill-rule="evenodd" fill-opacity="1" stroke="#ffffff" stroke-opacity="1" stroke-width="3.2"/>
<circle clip-path="url(#clip4602)" cx="1413.66" cy="442.456" r="10" fill="#ffa478" fill-rule="evenodd" fill-opacity="1" stroke="#ffffff" stroke-opacity="1" stroke-width="3.2"/>
<circle clip-path="url(#clip4602)" cx="1446.16" cy="1145.32" r="10" fill="#ffa478" fill-rule="evenodd" fill-opacity="1" stroke="#ffffff" stroke-opacity="1" stroke-width="3.2"/>
<circle clip-path="url(#clip4602)" cx="1478.67" cy="426.594" r="10" fill="#ffa478" fill-rule="evenodd" fill-opacity="1" stroke="#ffffff" stroke-opacity="1" stroke-width="3.2"/>
<circle clip-path="url(#clip4602)" cx="1511.18" cy="1129.46" r="10" fill="#ffa478" fill-rule="evenodd" fill-opacity="1" stroke="#ffffff" stroke-opacity="1" stroke-width="3.2"/>
<circle clip-path="url(#clip4602)" cx="1543.68" cy="410.731" r="10" fill="#ffa478" fill-rule="evenodd" fill-opacity="1" stroke="#ffffff" stroke-opacity="1" stroke-width="3.2"/>
<circle clip-path="url(#clip4602)" cx="1576.19" cy="1113.6" r="10" fill="#ffa478" fill-rule="evenodd" fill-opacity="1" stroke="#ffffff" stroke-opacity="1" stroke-width="3.2"/>
<circle clip-path="url(#clip4602)" cx="1608.69" cy="394.868" r="10" fill="#ffa478" fill-rule="evenodd" fill-opacity="1" stroke="#ffffff" stroke-opacity="1" stroke-width="3.2"/>
<circle clip-path="url(#clip4602)" cx="1641.2" cy="1097.74" r="10" fill="#ffa478" fill-rule="evenodd" fill-opacity="1" stroke="#ffffff" stroke-opacity="1" stroke-width="3.2"/>
<circle clip-path="url(#clip4602)" cx="1673.71" cy="379.006" r="10" fill="#ffa478" fill-rule="evenodd" fill-opacity="1" stroke="#ffffff" stroke-opacity="1" stroke-width="3.2"/>
<circle clip-path="url(#clip4602)" cx="1706.21" cy="1081.87" r="10" fill="#ffa478" fill-rule="evenodd" fill-opacity="1" stroke="#ffffff" stroke-opacity="1" stroke-width="3.2"/>
<circle clip-path="url(#clip4602)" cx="1738.72" cy="363.143" r="10" fill="#ffa478" fill-rule="evenodd" fill-opacity="1" stroke="#ffffff" stroke-opacity="1" stroke-width="3.2"/>
<circle clip-path="url(#clip4602)" cx="1771.22" cy="1066.01" r="10" fill="#ffa478" fill-rule="evenodd" fill-opacity="1" stroke="#ffffff" stroke-opacity="1" stroke-width="3.2"/>
<circle clip-path="url(#clip4602)" cx="1803.73" cy="347.281" r="10" fill="#ffa478" fill-rule="evenodd" fill-opacity="1" stroke="#ffffff" stroke-opacity="1" stroke-width="3.2"/>
<circle clip-path="url(#clip4602)" cx="1836.24" cy="1050.15" r="10" fill="#ffa478" fill-rule="evenodd" fill-opacity="1" stroke="#ffffff" stroke-opacity="1" stroke-width="3.2"/>
<circle clip-path="url(#clip4602)" cx="1868.74" cy="331.418" r="10" fill="#ffa478" fill-rule="evenodd" fill-opacity="1" stroke="#ffffff" stroke-opacity="1" stroke-width="3.2"/>
<circle clip-path="url(#clip4602)" cx="1901.25" cy="1034.29" r="10" fill="#ffa478" fill-rule="evenodd" fill-opacity="1" stroke="#ffffff" stroke-opacity="1" stroke-width="3.2"/>
<circle clip-path="url(#clip4602)" cx="1933.75" cy="315.555" r="10" fill="#ffa478" fill-rule="evenodd" fill-opacity="1" stroke="#ffffff" stroke-opacity="1" stroke-width="3.2"/>
<circle clip-path="url(#clip4602)" cx="1966.26" cy="1018.42" r="10" fill="#ffa478" fill-rule="evenodd" fill-opacity="1" stroke="#ffffff" stroke-opacity="1" stroke-width="3.2"/>
<circle clip-path="url(#clip4602)" cx="1998.77" cy="299.693" r="10" fill="#ffa478" fill-rule="evenodd" fill-opacity="1" stroke="#ffffff" stroke-opacity="1" stroke-width="3.2"/>
<circle clip-path="url(#clip4602)" cx="2031.27" cy="1002.56" r="10" fill="#ffa478" fill-rule="evenodd" fill-opacity="1" stroke="#ffffff" stroke-opacity="1" stroke-width="3.2"/>
<circle clip-path="url(#clip4602)" cx="2063.78" cy="283.83" r="10" fill="#ffa478" fill-rule="evenodd" fill-opacity="1" stroke="#ffffff" stroke-opacity="1" stroke-width="3.2"/>
<circle clip-path="url(#clip4602)" cx="2096.28" cy="986.699" r="10" fill="#ffa478" fill-rule="evenodd" fill-opacity="1" stroke="#ffffff" stroke-opacity="1" stroke-width="3.2"/>
<circle clip-path="url(#clip4602)" cx="2128.79" cy="267.968" r="10" fill="#ffa478" fill-rule="evenodd" fill-opacity="1" stroke="#ffffff" stroke-opacity="1" stroke-width="3.2"/>
<circle clip-path="url(#clip4602)" cx="2161.3" cy="970.836" r="10" fill="#ffa478" fill-rule="evenodd" fill-opacity="1" stroke="#ffffff" stroke-opacity="1" stroke-width="3.2"/>
<circle clip-path="url(#clip4602)" cx="2193.8" cy="252.105" r="10" fill="#ffa478" fill-rule="evenodd" fill-opacity="1" stroke="#ffffff" stroke-opacity="1" stroke-width="3.2"/>
<circle clip-path="url(#clip4602)" cx="2226.31" cy="954.973" r="10" fill="#ffa478" fill-rule="evenodd" fill-opacity="1" stroke="#ffffff" stroke-opacity="1" stroke-width="3.2"/>
<circle clip-path="url(#clip4602)" cx="2258.81" cy="236.243" r="10" fill="#ffa478" fill-rule="evenodd" fill-opacity="1" stroke="#ffffff" stroke-opacity="1" stroke-width="3.2"/>
<circle clip-path="url(#clip4602)" cx="2291.32" cy="939.111" r="10" fill="#ffa478" fill-rule="evenodd" fill-opacity="1" stroke="#ffffff" stroke-opacity="1" stroke-width="3.2"/>
<path clip-path="url(#clip4600)" d="
M1971.25 312.204 L2280.76 312.204 L2280.76 130.764 L1971.25 130.764  Z
  " fill="#1e1e1e" fill-rule="evenodd" fill-opacity="1"/>
<polyline clip-path="url(#clip4600)" style="stroke:#ffffff; stroke-width:4; stroke-opacity:1; fill:none" points="
  1971.25,312.204 2280.76,312.204 2280.76,130.764 1971.25,130.764 1971.25,312.204 
  "/>
<polyline clip-path="url(#clip4600)" style="stroke:#14d0ff; stroke-width:8; stroke-opacity:1; fill:none" points="
  1995.25,191.244 2139.25,191.244 
  "/>
<circle clip-path="url(#clip4600)" cx="2079.25" cy="191.244" r="21" fill="#14d0ff" fill-rule="evenodd" fill-opacity="1" stroke="#ffffff" stroke-opacity="1" stroke-width="3.2"/>
<g clip-path="url(#clip4600)">
<text style="fill:#ffffff; fill-opacity:1; font-family:Arial,Helvetica Neue,Helvetica,sans-serif; font-size:48px; text-anchor:start;" transform="rotate(0, 2163.25, 208.744)" x="2163.25" y="208.744">r(t)</text>
</g>
<polyline clip-path="url(#clip4600)" style="stroke:#ffa478; stroke-width:8; stroke-opacity:1; fill:none" points="
  1995.25,251.724 2139.25,251.724 
  "/>
<circle clip-path="url(#clip4600)" cx="2079.25" cy="251.724" r="21" fill="#ffa478" fill-rule="evenodd" fill-opacity="1" stroke="#ffffff" stroke-opacity="1" stroke-width="3.2"/>
<g clip-path="url(#clip4600)">
<text style="fill:#ffffff; fill-opacity:1; font-family:Arial,Helvetica Neue,Helvetica,sans-serif; font-size:48px; text-anchor:start;" transform="rotate(0, 2163.25, 269.224)" x="2163.25" y="269.224">y(t)</text>
</g>
</svg>
