<?xml version="1.0" encoding="utf-8"?>
<svg xmlns="http://www.w3.org/2000/svg" xmlns:xlink="http://www.w3.org/1999/xlink" width="600" height="400" viewBox="0 0 2400 1600">
<defs>
  <clipPath id="clip8600">
    <rect x="0" y="0" width="2400" height="1600"/>
  </clipPath>
</defs>
<path clip-path="url(#clip8600)" d="
M0 1600 L2400 1600 L2400 0 L0 0  Z
  " fill="#ffffff" fill-rule="evenodd" fill-opacity="1"/>
<defs>
  <clipPath id="clip8601">
    <rect x="480" y="0" width="1681" height="1600"/>
  </clipPath>
</defs>
<path clip-path="url(#clip8600)" d="
M182.008 1487.47 L2352.76 1487.47 L2352.76 47.2441 L182.008 47.2441  Z
  " fill="#ffffff" fill-rule="evenodd" fill-opacity="1"/>
<defs>
  <clipPath id="clip8602">
    <rect x="182" y="47" width="2172" height="1441"/>
  </clipPath>
</defs>
<polyline clip-path="url(#clip8602)" style="stroke:#000000; stroke-width:2; stroke-opacity:0.1; fill:none" points="
  243.444,1487.47 243.444,47.2441 
  "/>
<polyline clip-path="url(#clip8602)" style="stroke:#000000; stroke-width:2; stroke-opacity:0.1; fill:none" points="
  763.54,1487.47 763.54,47.2441 
  "/>
<polyline clip-path="url(#clip8602)" style="stroke:#000000; stroke-width:2; stroke-opacity:0.1; fill:none" points="
  1283.63,1487.47 1283.63,47.2441 
  "/>
<polyline clip-path="url(#clip8602)" style="stroke:#000000; stroke-width:2; stroke-opacity:0.1; fill:none" points="
  1803.73,1487.47 1803.73,47.2441 
  "/>
<polyline clip-path="url(#clip8602)" style="stroke:#000000; stroke-width:2; stroke-opacity:0.1; fill:none" points="
  2323.83,1487.47 2323.83,47.2441 
  "/>
<polyline clip-path="url(#clip8602)" style="stroke:#000000; stroke-width:2; stroke-opacity:0.1; fill:none" points="
  182.008,1263.65 2352.76,1263.65 
  "/>
<polyline clip-path="url(#clip8602)" style="stroke:#000000; stroke-width:2; stroke-opacity:0.1; fill:none" points="
  182.008,989.043 2352.76,989.043 
  "/>
<polyline clip-path="url(#clip8602)" style="stroke:#000000; stroke-width:2; stroke-opacity:0.1; fill:none" points="
  182.008,714.441 2352.76,714.441 
  "/>
<polyline clip-path="url(#clip8602)" style="stroke:#000000; stroke-width:2; stroke-opacity:0.1; fill:none" points="
  182.008,439.839 2352.76,439.839 
  "/>
<polyline clip-path="url(#clip8602)" style="stroke:#000000; stroke-width:2; stroke-opacity:0.1; fill:none" points="
  182.008,165.237 2352.76,165.237 
  "/>
<polyline clip-path="url(#clip8600)" style="stroke:#000000; stroke-width:4; stroke-opacity:1; fill:none" points="
  182.008,1487.47 2352.76,1487.47 
  "/>
<polyline clip-path="url(#clip8600)" style="stroke:#000000; stroke-width:4; stroke-opacity:1; fill:none" points="
  182.008,1487.47 182.008,47.2441 
  "/>
<polyline clip-path="url(#clip8600)" style="stroke:#000000; stroke-width:4; stroke-opacity:1; fill:none" points="
  243.444,1487.47 243.444,1465.87 
  "/>
<polyline clip-path="url(#clip8600)" style="stroke:#000000; stroke-width:4; stroke-opacity:1; fill:none" points="
  763.54,1487.47 763.54,1465.87 
  "/>
<polyline clip-path="url(#clip8600)" style="stroke:#000000; stroke-width:4; stroke-opacity:1; fill:none" points="
  1283.63,1487.47 1283.63,1465.87 
  "/>
<polyline clip-path="url(#clip8600)" style="stroke:#000000; stroke-width:4; stroke-opacity:1; fill:none" points="
  1803.73,1487.47 1803.73,1465.87 
  "/>
<polyline clip-path="url(#clip8600)" style="stroke:#000000; stroke-width:4; stroke-opacity:1; fill:none" points="
  2323.83,1487.47 2323.83,1465.87 
  "/>
<polyline clip-path="url(#clip8600)" style="stroke:#000000; stroke-width:4; stroke-opacity:1; fill:none" points="
  182.008,1263.65 214.569,1263.65 
  "/>
<polyline clip-path="url(#clip8600)" style="stroke:#000000; stroke-width:4; stroke-opacity:1; fill:none" points="
  182.008,989.043 214.569,989.043 
  "/>
<polyline clip-path="url(#clip8600)" style="stroke:#000000; stroke-width:4; stroke-opacity:1; fill:none" points="
  182.008,714.441 214.569,714.441 
  "/>
<polyline clip-path="url(#clip8600)" style="stroke:#000000; stroke-width:4; stroke-opacity:1; fill:none" points="
  182.008,439.839 214.569,439.839 
  "/>
<polyline clip-path="url(#clip8600)" style="stroke:#000000; stroke-width:4; stroke-opacity:1; fill:none" points="
  182.008,165.237 214.569,165.237 
  "/>
<g clip-path="url(#clip8600)">
<text style="fill:#000000; fill-opacity:1; font-family:Arial,Helvetica Neue,Helvetica,sans-serif; font-size:48px; text-anchor:middle;" transform="rotate(0, 243.444, 1541.47)" x="243.444" y="1541.47">0.00</text>
</g>
<g clip-path="url(#clip8600)">
<text style="fill:#000000; fill-opacity:1; font-family:Arial,Helvetica Neue,Helvetica,sans-serif; font-size:48px; text-anchor:middle;" transform="rotate(0, 763.54, 1541.47)" x="763.54" y="1541.47">0.25</text>
</g>
<g clip-path="url(#clip8600)">
<text style="fill:#000000; fill-opacity:1; font-family:Arial,Helvetica Neue,Helvetica,sans-serif; font-size:48px; text-anchor:middle;" transform="rotate(0, 1283.63, 1541.47)" x="1283.63" y="1541.47">0.50</text>
</g>
<g clip-path="url(#clip8600)">
<text style="fill:#000000; fill-opacity:1; font-family:Arial,Helvetica Neue,Helvetica,sans-serif; font-size:48px; text-anchor:middle;" transform="rotate(0, 1803.73, 1541.47)" x="1803.73" y="1541.47">0.75</text>
</g>
<g clip-path="url(#clip8600)">
<text style="fill:#000000; fill-opacity:1; font-family:Arial,Helvetica Neue,Helvetica,sans-serif; font-size:48px; text-anchor:middle;" transform="rotate(0, 2323.83, 1541.47)" x="2323.83" y="1541.47">1.00</text>
</g>
<g clip-path="url(#clip8600)">
<text style="fill:#000000; fill-opacity:1; font-family:Arial,Helvetica Neue,Helvetica,sans-serif; font-size:48px; text-anchor:end;" transform="rotate(0, 158.008, 1281.15)" x="158.008" y="1281.15">-0.3</text>
</g>
<g clip-path="url(#clip8600)">
<text style="fill:#000000; fill-opacity:1; font-family:Arial,Helvetica Neue,Helvetica,sans-serif; font-size:48px; text-anchor:end;" transform="rotate(0, 158.008, 1006.54)" x="158.008" y="1006.54">0.0</text>
</g>
<g clip-path="url(#clip8600)">
<text style="fill:#000000; fill-opacity:1; font-family:Arial,Helvetica Neue,Helvetica,sans-serif; font-size:48px; text-anchor:end;" transform="rotate(0, 158.008, 731.941)" x="158.008" y="731.941">0.3</text>
</g>
<g clip-path="url(#clip8600)">
<text style="fill:#000000; fill-opacity:1; font-family:Arial,Helvetica Neue,Helvetica,sans-serif; font-size:48px; text-anchor:end;" transform="rotate(0, 158.008, 457.339)" x="158.008" y="457.339">0.6</text>
</g>
<g clip-path="url(#clip8600)">
<text style="fill:#000000; fill-opacity:1; font-family:Arial,Helvetica Neue,Helvetica,sans-serif; font-size:48px; text-anchor:end;" transform="rotate(0, 158.008, 182.737)" x="158.008" y="182.737">0.9</text>
</g>
<polyline clip-path="url(#clip8602)" style="stroke:#009af9; stroke-width:8; stroke-opacity:1; fill:none" points="
  243.444,989.043 275.95,974.741 308.456,960.439 340.962,946.137 373.468,931.835 405.974,917.532 438.48,903.23 470.986,888.928 503.492,874.626 535.998,860.324 
  568.504,846.021 601.01,831.719 633.516,817.417 666.022,803.115 698.528,788.813 731.034,774.511 763.54,760.208 796.046,745.906 828.552,731.604 861.058,717.302 
  893.563,703 926.069,688.697 958.575,674.395 991.081,660.093 1023.59,645.791 1056.09,631.489 1088.6,617.186 1121.11,602.884 1153.61,588.582 1186.12,574.28 
  1218.62,559.978 1251.13,545.675 1283.63,531.373 1316.14,517.071 1348.65,502.769 1381.15,488.467 1413.66,474.164 1446.16,459.862 1478.67,445.56 1511.18,431.258 
  1543.68,416.956 1576.19,402.654 1608.69,388.351 1641.2,374.049 1673.71,359.747 1706.21,345.445 1738.72,331.143 1771.22,316.84 1803.73,302.538 1836.24,288.236 
  1868.74,273.934 1901.25,259.632 1933.75,245.329 1966.26,231.027 1998.77,216.725 2031.27,202.423 2063.78,188.121 2096.28,173.818 2128.79,159.516 2161.3,145.214 
  2193.8,130.912 2226.31,116.61 2258.81,102.308 2291.32,88.0053 
  "/>
<circle clip-path="url(#clip8602)" style="fill:#000000; stroke:none; fill-opacity:1" cx="243.444" cy="989.043" r="7"/>
<circle clip-path="url(#clip8602)" style="fill:#009af9; stroke:none; fill-opacity:1" cx="243.444" cy="989.043" r="3"/>
<circle clip-path="url(#clip8602)" style="fill:#000000; stroke:none; fill-opacity:1" cx="275.95" cy="974.741" r="7"/>
<circle clip-path="url(#clip8602)" style="fill:#009af9; stroke:none; fill-opacity:1" cx="275.95" cy="974.741" r="3"/>
<circle clip-path="url(#clip8602)" style="fill:#000000; stroke:none; fill-opacity:1" cx="308.456" cy="960.439" r="7"/>
<circle clip-path="url(#clip8602)" style="fill:#009af9; stroke:none; fill-opacity:1" cx="308.456" cy="960.439" r="3"/>
<circle clip-path="url(#clip8602)" style="fill:#000000; stroke:none; fill-opacity:1" cx="340.962" cy="946.137" r="7"/>
<circle clip-path="url(#clip8602)" style="fill:#009af9; stroke:none; fill-opacity:1" cx="340.962" cy="946.137" r="3"/>
<circle clip-path="url(#clip8602)" style="fill:#000000; stroke:none; fill-opacity:1" cx="373.468" cy="931.835" r="7"/>
<circle clip-path="url(#clip8602)" style="fill:#009af9; stroke:none; fill-opacity:1" cx="373.468" cy="931.835" r="3"/>
<circle clip-path="url(#clip8602)" style="fill:#000000; stroke:none; fill-opacity:1" cx="405.974" cy="917.532" r="7"/>
<circle clip-path="url(#clip8602)" style="fill:#009af9; stroke:none; fill-opacity:1" cx="405.974" cy="917.532" r="3"/>
<circle clip-path="url(#clip8602)" style="fill:#000000; stroke:none; fill-opacity:1" cx="438.48" cy="903.23" r="7"/>
<circle clip-path="url(#clip8602)" style="fill:#009af9; stroke:none; fill-opacity:1" cx="438.48" cy="903.23" r="3"/>
<circle clip-path="url(#clip8602)" style="fill:#000000; stroke:none; fill-opacity:1" cx="470.986" cy="888.928" r="7"/>
<circle clip-path="url(#clip8602)" style="fill:#009af9; stroke:none; fill-opacity:1" cx="470.986" cy="888.928" r="3"/>
<circle clip-path="url(#clip8602)" style="fill:#000000; stroke:none; fill-opacity:1" cx="503.492" cy="874.626" r="7"/>
<circle clip-path="url(#clip8602)" style="fill:#009af9; stroke:none; fill-opacity:1" cx="503.492" cy="874.626" r="3"/>
<circle clip-path="url(#clip8602)" style="fill:#000000; stroke:none; fill-opacity:1" cx="535.998" cy="860.324" r="7"/>
<circle clip-path="url(#clip8602)" style="fill:#009af9; stroke:none; fill-opacity:1" cx="535.998" cy="860.324" r="3"/>
<circle clip-path="url(#clip8602)" style="fill:#000000; stroke:none; fill-opacity:1" cx="568.504" cy="846.021" r="7"/>
<circle clip-path="url(#clip8602)" style="fill:#009af9; stroke:none; fill-opacity:1" cx="568.504" cy="846.021" r="3"/>
<circle clip-path="url(#clip8602)" style="fill:#000000; stroke:none; fill-opacity:1" cx="601.01" cy="831.719" r="7"/>
<circle clip-path="url(#clip8602)" style="fill:#009af9; stroke:none; fill-opacity:1" cx="601.01" cy="831.719" r="3"/>
<circle clip-path="url(#clip8602)" style="fill:#000000; stroke:none; fill-opacity:1" cx="633.516" cy="817.417" r="7"/>
<circle clip-path="url(#clip8602)" style="fill:#009af9; stroke:none; fill-opacity:1" cx="633.516" cy="817.417" r="3"/>
<circle clip-path="url(#clip8602)" style="fill:#000000; stroke:none; fill-opacity:1" cx="666.022" cy="803.115" r="7"/>
<circle clip-path="url(#clip8602)" style="fill:#009af9; stroke:none; fill-opacity:1" cx="666.022" cy="803.115" r="3"/>
<circle clip-path="url(#clip8602)" style="fill:#000000; stroke:none; fill-opacity:1" cx="698.528" cy="788.813" r="7"/>
<circle clip-path="url(#clip8602)" style="fill:#009af9; stroke:none; fill-opacity:1" cx="698.528" cy="788.813" r="3"/>
<circle clip-path="url(#clip8602)" style="fill:#000000; stroke:none; fill-opacity:1" cx="731.034" cy="774.511" r="7"/>
<circle clip-path="url(#clip8602)" style="fill:#009af9; stroke:none; fill-opacity:1" cx="731.034" cy="774.511" r="3"/>
<circle clip-path="url(#clip8602)" style="fill:#000000; stroke:none; fill-opacity:1" cx="763.54" cy="760.208" r="7"/>
<circle clip-path="url(#clip8602)" style="fill:#009af9; stroke:none; fill-opacity:1" cx="763.54" cy="760.208" r="3"/>
<circle clip-path="url(#clip8602)" style="fill:#000000; stroke:none; fill-opacity:1" cx="796.046" cy="745.906" r="7"/>
<circle clip-path="url(#clip8602)" style="fill:#009af9; stroke:none; fill-opacity:1" cx="796.046" cy="745.906" r="3"/>
<circle clip-path="url(#clip8602)" style="fill:#000000; stroke:none; fill-opacity:1" cx="828.552" cy="731.604" r="7"/>
<circle clip-path="url(#clip8602)" style="fill:#009af9; stroke:none; fill-opacity:1" cx="828.552" cy="731.604" r="3"/>
<circle clip-path="url(#clip8602)" style="fill:#000000; stroke:none; fill-opacity:1" cx="861.058" cy="717.302" r="7"/>
<circle clip-path="url(#clip8602)" style="fill:#009af9; stroke:none; fill-opacity:1" cx="861.058" cy="717.302" r="3"/>
<circle clip-path="url(#clip8602)" style="fill:#000000; stroke:none; fill-opacity:1" cx="893.563" cy="703" r="7"/>
<circle clip-path="url(#clip8602)" style="fill:#009af9; stroke:none; fill-opacity:1" cx="893.563" cy="703" r="3"/>
<circle clip-path="url(#clip8602)" style="fill:#000000; stroke:none; fill-opacity:1" cx="926.069" cy="688.697" r="7"/>
<circle clip-path="url(#clip8602)" style="fill:#009af9; stroke:none; fill-opacity:1" cx="926.069" cy="688.697" r="3"/>
<circle clip-path="url(#clip8602)" style="fill:#000000; stroke:none; fill-opacity:1" cx="958.575" cy="674.395" r="7"/>
<circle clip-path="url(#clip8602)" style="fill:#009af9; stroke:none; fill-opacity:1" cx="958.575" cy="674.395" r="3"/>
<circle clip-path="url(#clip8602)" style="fill:#000000; stroke:none; fill-opacity:1" cx="991.081" cy="660.093" r="7"/>
<circle clip-path="url(#clip8602)" style="fill:#009af9; stroke:none; fill-opacity:1" cx="991.081" cy="660.093" r="3"/>
<circle clip-path="url(#clip8602)" style="fill:#000000; stroke:none; fill-opacity:1" cx="1023.59" cy="645.791" r="7"/>
<circle clip-path="url(#clip8602)" style="fill:#009af9; stroke:none; fill-opacity:1" cx="1023.59" cy="645.791" r="3"/>
<circle clip-path="url(#clip8602)" style="fill:#000000; stroke:none; fill-opacity:1" cx="1056.09" cy="631.489" r="7"/>
<circle clip-path="url(#clip8602)" style="fill:#009af9; stroke:none; fill-opacity:1" cx="1056.09" cy="631.489" r="3"/>
<circle clip-path="url(#clip8602)" style="fill:#000000; stroke:none; fill-opacity:1" cx="1088.6" cy="617.186" r="7"/>
<circle clip-path="url(#clip8602)" style="fill:#009af9; stroke:none; fill-opacity:1" cx="1088.6" cy="617.186" r="3"/>
<circle clip-path="url(#clip8602)" style="fill:#000000; stroke:none; fill-opacity:1" cx="1121.11" cy="602.884" r="7"/>
<circle clip-path="url(#clip8602)" style="fill:#009af9; stroke:none; fill-opacity:1" cx="1121.11" cy="602.884" r="3"/>
<circle clip-path="url(#clip8602)" style="fill:#000000; stroke:none; fill-opacity:1" cx="1153.61" cy="588.582" r="7"/>
<circle clip-path="url(#clip8602)" style="fill:#009af9; stroke:none; fill-opacity:1" cx="1153.61" cy="588.582" r="3"/>
<circle clip-path="url(#clip8602)" style="fill:#000000; stroke:none; fill-opacity:1" cx="1186.12" cy="574.28" r="7"/>
<circle clip-path="url(#clip8602)" style="fill:#009af9; stroke:none; fill-opacity:1" cx="1186.12" cy="574.28" r="3"/>
<circle clip-path="url(#clip8602)" style="fill:#000000; stroke:none; fill-opacity:1" cx="1218.62" cy="559.978" r="7"/>
<circle clip-path="url(#clip8602)" style="fill:#009af9; stroke:none; fill-opacity:1" cx="1218.62" cy="559.978" r="3"/>
<circle clip-path="url(#clip8602)" style="fill:#000000; stroke:none; fill-opacity:1" cx="1251.13" cy="545.675" r="7"/>
<circle clip-path="url(#clip8602)" style="fill:#009af9; stroke:none; fill-opacity:1" cx="1251.13" cy="545.675" r="3"/>
<circle clip-path="url(#clip8602)" style="fill:#000000; stroke:none; fill-opacity:1" cx="1283.63" cy="531.373" r="7"/>
<circle clip-path="url(#clip8602)" style="fill:#009af9; stroke:none; fill-opacity:1" cx="1283.63" cy="531.373" r="3"/>
<circle clip-path="url(#clip8602)" style="fill:#000000; stroke:none; fill-opacity:1" cx="1316.14" cy="517.071" r="7"/>
<circle clip-path="url(#clip8602)" style="fill:#009af9; stroke:none; fill-opacity:1" cx="1316.14" cy="517.071" r="3"/>
<circle clip-path="url(#clip8602)" style="fill:#000000; stroke:none; fill-opacity:1" cx="1348.65" cy="502.769" r="7"/>
<circle clip-path="url(#clip8602)" style="fill:#009af9; stroke:none; fill-opacity:1" cx="1348.65" cy="502.769" r="3"/>
<circle clip-path="url(#clip8602)" style="fill:#000000; stroke:none; fill-opacity:1" cx="1381.15" cy="488.467" r="7"/>
<circle clip-path="url(#clip8602)" style="fill:#009af9; stroke:none; fill-opacity:1" cx="1381.15" cy="488.467" r="3"/>
<circle clip-path="url(#clip8602)" style="fill:#000000; stroke:none; fill-opacity:1" cx="1413.66" cy="474.164" r="7"/>
<circle clip-path="url(#clip8602)" style="fill:#009af9; stroke:none; fill-opacity:1" cx="1413.66" cy="474.164" r="3"/>
<circle clip-path="url(#clip8602)" style="fill:#000000; stroke:none; fill-opacity:1" cx="1446.16" cy="459.862" r="7"/>
<circle clip-path="url(#clip8602)" style="fill:#009af9; stroke:none; fill-opacity:1" cx="1446.16" cy="459.862" r="3"/>
<circle clip-path="url(#clip8602)" style="fill:#000000; stroke:none; fill-opacity:1" cx="1478.67" cy="445.56" r="7"/>
<circle clip-path="url(#clip8602)" style="fill:#009af9; stroke:none; fill-opacity:1" cx="1478.67" cy="445.56" r="3"/>
<circle clip-path="url(#clip8602)" style="fill:#000000; stroke:none; fill-opacity:1" cx="1511.18" cy="431.258" r="7"/>
<circle clip-path="url(#clip8602)" style="fill:#009af9; stroke:none; fill-opacity:1" cx="1511.18" cy="431.258" r="3"/>
<circle clip-path="url(#clip8602)" style="fill:#000000; stroke:none; fill-opacity:1" cx="1543.68" cy="416.956" r="7"/>
<circle clip-path="url(#clip8602)" style="fill:#009af9; stroke:none; fill-opacity:1" cx="1543.68" cy="416.956" r="3"/>
<circle clip-path="url(#clip8602)" style="fill:#000000; stroke:none; fill-opacity:1" cx="1576.19" cy="402.654" r="7"/>
<circle clip-path="url(#clip8602)" style="fill:#009af9; stroke:none; fill-opacity:1" cx="1576.19" cy="402.654" r="3"/>
<circle clip-path="url(#clip8602)" style="fill:#000000; stroke:none; fill-opacity:1" cx="1608.69" cy="388.351" r="7"/>
<circle clip-path="url(#clip8602)" style="fill:#009af9; stroke:none; fill-opacity:1" cx="1608.69" cy="388.351" r="3"/>
<circle clip-path="url(#clip8602)" style="fill:#000000; stroke:none; fill-opacity:1" cx="1641.2" cy="374.049" r="7"/>
<circle clip-path="url(#clip8602)" style="fill:#009af9; stroke:none; fill-opacity:1" cx="1641.2" cy="374.049" r="3"/>
<circle clip-path="url(#clip8602)" style="fill:#000000; stroke:none; fill-opacity:1" cx="1673.71" cy="359.747" r="7"/>
<circle clip-path="url(#clip8602)" style="fill:#009af9; stroke:none; fill-opacity:1" cx="1673.71" cy="359.747" r="3"/>
<circle clip-path="url(#clip8602)" style="fill:#000000; stroke:none; fill-opacity:1" cx="1706.21" cy="345.445" r="7"/>
<circle clip-path="url(#clip8602)" style="fill:#009af9; stroke:none; fill-opacity:1" cx="1706.21" cy="345.445" r="3"/>
<circle clip-path="url(#clip8602)" style="fill:#000000; stroke:none; fill-opacity:1" cx="1738.72" cy="331.143" r="7"/>
<circle clip-path="url(#clip8602)" style="fill:#009af9; stroke:none; fill-opacity:1" cx="1738.72" cy="331.143" r="3"/>
<circle clip-path="url(#clip8602)" style="fill:#000000; stroke:none; fill-opacity:1" cx="1771.22" cy="316.84" r="7"/>
<circle clip-path="url(#clip8602)" style="fill:#009af9; stroke:none; fill-opacity:1" cx="1771.22" cy="316.84" r="3"/>
<circle clip-path="url(#clip8602)" style="fill:#000000; stroke:none; fill-opacity:1" cx="1803.73" cy="302.538" r="7"/>
<circle clip-path="url(#clip8602)" style="fill:#009af9; stroke:none; fill-opacity:1" cx="1803.73" cy="302.538" r="3"/>
<circle clip-path="url(#clip8602)" style="fill:#000000; stroke:none; fill-opacity:1" cx="1836.24" cy="288.236" r="7"/>
<circle clip-path="url(#clip8602)" style="fill:#009af9; stroke:none; fill-opacity:1" cx="1836.24" cy="288.236" r="3"/>
<circle clip-path="url(#clip8602)" style="fill:#000000; stroke:none; fill-opacity:1" cx="1868.74" cy="273.934" r="7"/>
<circle clip-path="url(#clip8602)" style="fill:#009af9; stroke:none; fill-opacity:1" cx="1868.74" cy="273.934" r="3"/>
<circle clip-path="url(#clip8602)" style="fill:#000000; stroke:none; fill-opacity:1" cx="1901.25" cy="259.632" r="7"/>
<circle clip-path="url(#clip8602)" style="fill:#009af9; stroke:none; fill-opacity:1" cx="1901.25" cy="259.632" r="3"/>
<circle clip-path="url(#clip8602)" style="fill:#000000; stroke:none; fill-opacity:1" cx="1933.75" cy="245.329" r="7"/>
<circle clip-path="url(#clip8602)" style="fill:#009af9; stroke:none; fill-opacity:1" cx="1933.75" cy="245.329" r="3"/>
<circle clip-path="url(#clip8602)" style="fill:#000000; stroke:none; fill-opacity:1" cx="1966.26" cy="231.027" r="7"/>
<circle clip-path="url(#clip8602)" style="fill:#009af9; stroke:none; fill-opacity:1" cx="1966.26" cy="231.027" r="3"/>
<circle clip-path="url(#clip8602)" style="fill:#000000; stroke:none; fill-opacity:1" cx="1998.77" cy="216.725" r="7"/>
<circle clip-path="url(#clip8602)" style="fill:#009af9; stroke:none; fill-opacity:1" cx="1998.77" cy="216.725" r="3"/>
<circle clip-path="url(#clip8602)" style="fill:#000000; stroke:none; fill-opacity:1" cx="2031.27" cy="202.423" r="7"/>
<circle clip-path="url(#clip8602)" style="fill:#009af9; stroke:none; fill-opacity:1" cx="2031.27" cy="202.423" r="3"/>
<circle clip-path="url(#clip8602)" style="fill:#000000; stroke:none; fill-opacity:1" cx="2063.78" cy="188.121" r="7"/>
<circle clip-path="url(#clip8602)" style="fill:#009af9; stroke:none; fill-opacity:1" cx="2063.78" cy="188.121" r="3"/>
<circle clip-path="url(#clip8602)" style="fill:#000000; stroke:none; fill-opacity:1" cx="2096.28" cy="173.818" r="7"/>
<circle clip-path="url(#clip8602)" style="fill:#009af9; stroke:none; fill-opacity:1" cx="2096.28" cy="173.818" r="3"/>
<circle clip-path="url(#clip8602)" style="fill:#000000; stroke:none; fill-opacity:1" cx="2128.79" cy="159.516" r="7"/>
<circle clip-path="url(#clip8602)" style="fill:#009af9; stroke:none; fill-opacity:1" cx="2128.79" cy="159.516" r="3"/>
<circle clip-path="url(#clip8602)" style="fill:#000000; stroke:none; fill-opacity:1" cx="2161.3" cy="145.214" r="7"/>
<circle clip-path="url(#clip8602)" style="fill:#009af9; stroke:none; fill-opacity:1" cx="2161.3" cy="145.214" r="3"/>
<circle clip-path="url(#clip8602)" style="fill:#000000; stroke:none; fill-opacity:1" cx="2193.8" cy="130.912" r="7"/>
<circle clip-path="url(#clip8602)" style="fill:#009af9; stroke:none; fill-opacity:1" cx="2193.8" cy="130.912" r="3"/>
<circle clip-path="url(#clip8602)" style="fill:#000000; stroke:none; fill-opacity:1" cx="2226.31" cy="116.61" r="7"/>
<circle clip-path="url(#clip8602)" style="fill:#009af9; stroke:none; fill-opacity:1" cx="2226.31" cy="116.61" r="3"/>
<circle clip-path="url(#clip8602)" style="fill:#000000; stroke:none; fill-opacity:1" cx="2258.81" cy="102.308" r="7"/>
<circle clip-path="url(#clip8602)" style="fill:#009af9; stroke:none; fill-opacity:1" cx="2258.81" cy="102.308" r="3"/>
<circle clip-path="url(#clip8602)" style="fill:#000000; stroke:none; fill-opacity:1" cx="2291.32" cy="88.0053" r="7"/>
<circle clip-path="url(#clip8602)" style="fill:#009af9; stroke:none; fill-opacity:1" cx="2291.32" cy="88.0053" r="3"/>
<polyline clip-path="url(#clip8602)" style="stroke:#e26f46; stroke-width:8; stroke-opacity:1; fill:none" points="
  243.444,531.373 275.95,1446.71 308.456,517.071 340.962,1432.41 373.468,502.769 405.974,1418.11 438.48,488.467 470.986,1403.81 503.492,474.164 535.998,1389.5 
  568.504,459.862 601.01,1375.2 633.516,445.56 666.022,1360.9 698.528,431.258 731.034,1346.6 763.54,416.956 796.046,1332.3 828.552,402.654 861.058,1317.99 
  893.563,388.351 926.069,1303.69 958.575,374.049 991.081,1289.39 1023.59,359.747 1056.09,1275.09 1088.6,345.445 1121.11,1260.78 1153.61,331.143 1186.12,1246.48 
  1218.62,316.84 1251.13,1232.18 1283.63,302.538 1316.14,1217.88 1348.65,288.236 1381.15,1203.58 1413.66,273.934 1446.16,1189.27 1478.67,259.632 1511.18,1174.97 
  1543.68,245.329 1576.19,1160.67 1608.69,231.027 1641.2,1146.37 1673.71,216.725 1706.21,1132.07 1738.72,202.423 1771.22,1117.76 1803.73,188.121 1836.24,1103.46 
  1868.74,173.818 1901.25,1089.16 1933.75,159.516 1966.26,1074.86 1998.77,145.214 2031.27,1060.55 2063.78,130.912 2096.28,1046.25 2128.79,116.61 2161.3,1031.95 
  2193.8,102.308 2226.31,1017.65 2258.81,88.0053 2291.32,1003.35 
  "/>
<circle clip-path="url(#clip8602)" style="fill:#000000; stroke:none; fill-opacity:1" cx="243.444" cy="531.373" r="7"/>
<circle clip-path="url(#clip8602)" style="fill:#e26f46; stroke:none; fill-opacity:1" cx="243.444" cy="531.373" r="3"/>
<circle clip-path="url(#clip8602)" style="fill:#000000; stroke:none; fill-opacity:1" cx="275.95" cy="1446.71" r="7"/>
<circle clip-path="url(#clip8602)" style="fill:#e26f46; stroke:none; fill-opacity:1" cx="275.95" cy="1446.71" r="3"/>
<circle clip-path="url(#clip8602)" style="fill:#000000; stroke:none; fill-opacity:1" cx="308.456" cy="517.071" r="7"/>
<circle clip-path="url(#clip8602)" style="fill:#e26f46; stroke:none; fill-opacity:1" cx="308.456" cy="517.071" r="3"/>
<circle clip-path="url(#clip8602)" style="fill:#000000; stroke:none; fill-opacity:1" cx="340.962" cy="1432.41" r="7"/>
<circle clip-path="url(#clip8602)" style="fill:#e26f46; stroke:none; fill-opacity:1" cx="340.962" cy="1432.41" r="3"/>
<circle clip-path="url(#clip8602)" style="fill:#000000; stroke:none; fill-opacity:1" cx="373.468" cy="502.769" r="7"/>
<circle clip-path="url(#clip8602)" style="fill:#e26f46; stroke:none; fill-opacity:1" cx="373.468" cy="502.769" r="3"/>
<circle clip-path="url(#clip8602)" style="fill:#000000; stroke:none; fill-opacity:1" cx="405.974" cy="1418.11" r="7"/>
<circle clip-path="url(#clip8602)" style="fill:#e26f46; stroke:none; fill-opacity:1" cx="405.974" cy="1418.11" r="3"/>
<circle clip-path="url(#clip8602)" style="fill:#000000; stroke:none; fill-opacity:1" cx="438.48" cy="488.467" r="7"/>
<circle clip-path="url(#clip8602)" style="fill:#e26f46; stroke:none; fill-opacity:1" cx="438.48" cy="488.467" r="3"/>
<circle clip-path="url(#clip8602)" style="fill:#000000; stroke:none; fill-opacity:1" cx="470.986" cy="1403.81" r="7"/>
<circle clip-path="url(#clip8602)" style="fill:#e26f46; stroke:none; fill-opacity:1" cx="470.986" cy="1403.81" r="3"/>
<circle clip-path="url(#clip8602)" style="fill:#000000; stroke:none; fill-opacity:1" cx="503.492" cy="474.164" r="7"/>
<circle clip-path="url(#clip8602)" style="fill:#e26f46; stroke:none; fill-opacity:1" cx="503.492" cy="474.164" r="3"/>
<circle clip-path="url(#clip8602)" style="fill:#000000; stroke:none; fill-opacity:1" cx="535.998" cy="1389.5" r="7"/>
<circle clip-path="url(#clip8602)" style="fill:#e26f46; stroke:none; fill-opacity:1" cx="535.998" cy="1389.5" r="3"/>
<circle clip-path="url(#clip8602)" style="fill:#000000; stroke:none; fill-opacity:1" cx="568.504" cy="459.862" r="7"/>
<circle clip-path="url(#clip8602)" style="fill:#e26f46; stroke:none; fill-opacity:1" cx="568.504" cy="459.862" r="3"/>
<circle clip-path="url(#clip8602)" style="fill:#000000; stroke:none; fill-opacity:1" cx="601.01" cy="1375.2" r="7"/>
<circle clip-path="url(#clip8602)" style="fill:#e26f46; stroke:none; fill-opacity:1" cx="601.01" cy="1375.2" r="3"/>
<circle clip-path="url(#clip8602)" style="fill:#000000; stroke:none; fill-opacity:1" cx="633.516" cy="445.56" r="7"/>
<circle clip-path="url(#clip8602)" style="fill:#e26f46; stroke:none; fill-opacity:1" cx="633.516" cy="445.56" r="3"/>
<circle clip-path="url(#clip8602)" style="fill:#000000; stroke:none; fill-opacity:1" cx="666.022" cy="1360.9" r="7"/>
<circle clip-path="url(#clip8602)" style="fill:#e26f46; stroke:none; fill-opacity:1" cx="666.022" cy="1360.9" r="3"/>
<circle clip-path="url(#clip8602)" style="fill:#000000; stroke:none; fill-opacity:1" cx="698.528" cy="431.258" r="7"/>
<circle clip-path="url(#clip8602)" style="fill:#e26f46; stroke:none; fill-opacity:1" cx="698.528" cy="431.258" r="3"/>
<circle clip-path="url(#clip8602)" style="fill:#000000; stroke:none; fill-opacity:1" cx="731.034" cy="1346.6" r="7"/>
<circle clip-path="url(#clip8602)" style="fill:#e26f46; stroke:none; fill-opacity:1" cx="731.034" cy="1346.6" r="3"/>
<circle clip-path="url(#clip8602)" style="fill:#000000; stroke:none; fill-opacity:1" cx="763.54" cy="416.956" r="7"/>
<circle clip-path="url(#clip8602)" style="fill:#e26f46; stroke:none; fill-opacity:1" cx="763.54" cy="416.956" r="3"/>
<circle clip-path="url(#clip8602)" style="fill:#000000; stroke:none; fill-opacity:1" cx="796.046" cy="1332.3" r="7"/>
<circle clip-path="url(#clip8602)" style="fill:#e26f46; stroke:none; fill-opacity:1" cx="796.046" cy="1332.3" r="3"/>
<circle clip-path="url(#clip8602)" style="fill:#000000; stroke:none; fill-opacity:1" cx="828.552" cy="402.654" r="7"/>
<circle clip-path="url(#clip8602)" style="fill:#e26f46; stroke:none; fill-opacity:1" cx="828.552" cy="402.654" r="3"/>
<circle clip-path="url(#clip8602)" style="fill:#000000; stroke:none; fill-opacity:1" cx="861.058" cy="1317.99" r="7"/>
<circle clip-path="url(#clip8602)" style="fill:#e26f46; stroke:none; fill-opacity:1" cx="861.058" cy="1317.99" r="3"/>
<circle clip-path="url(#clip8602)" style="fill:#000000; stroke:none; fill-opacity:1" cx="893.563" cy="388.351" r="7"/>
<circle clip-path="url(#clip8602)" style="fill:#e26f46; stroke:none; fill-opacity:1" cx="893.563" cy="388.351" r="3"/>
<circle clip-path="url(#clip8602)" style="fill:#000000; stroke:none; fill-opacity:1" cx="926.069" cy="1303.69" r="7"/>
<circle clip-path="url(#clip8602)" style="fill:#e26f46; stroke:none; fill-opacity:1" cx="926.069" cy="1303.69" r="3"/>
<circle clip-path="url(#clip8602)" style="fill:#000000; stroke:none; fill-opacity:1" cx="958.575" cy="374.049" r="7"/>
<circle clip-path="url(#clip8602)" style="fill:#e26f46; stroke:none; fill-opacity:1" cx="958.575" cy="374.049" r="3"/>
<circle clip-path="url(#clip8602)" style="fill:#000000; stroke:none; fill-opacity:1" cx="991.081" cy="1289.39" r="7"/>
<circle clip-path="url(#clip8602)" style="fill:#e26f46; stroke:none; fill-opacity:1" cx="991.081" cy="1289.39" r="3"/>
<circle clip-path="url(#clip8602)" style="fill:#000000; stroke:none; fill-opacity:1" cx="1023.59" cy="359.747" r="7"/>
<circle clip-path="url(#clip8602)" style="fill:#e26f46; stroke:none; fill-opacity:1" cx="1023.59" cy="359.747" r="3"/>
<circle clip-path="url(#clip8602)" style="fill:#000000; stroke:none; fill-opacity:1" cx="1056.09" cy="1275.09" r="7"/>
<circle clip-path="url(#clip8602)" style="fill:#e26f46; stroke:none; fill-opacity:1" cx="1056.09" cy="1275.09" r="3"/>
<circle clip-path="url(#clip8602)" style="fill:#000000; stroke:none; fill-opacity:1" cx="1088.6" cy="345.445" r="7"/>
<circle clip-path="url(#clip8602)" style="fill:#e26f46; stroke:none; fill-opacity:1" cx="1088.6" cy="345.445" r="3"/>
<circle clip-path="url(#clip8602)" style="fill:#000000; stroke:none; fill-opacity:1" cx="1121.11" cy="1260.78" r="7"/>
<circle clip-path="url(#clip8602)" style="fill:#e26f46; stroke:none; fill-opacity:1" cx="1121.11" cy="1260.78" r="3"/>
<circle clip-path="url(#clip8602)" style="fill:#000000; stroke:none; fill-opacity:1" cx="1153.61" cy="331.143" r="7"/>
<circle clip-path="url(#clip8602)" style="fill:#e26f46; stroke:none; fill-opacity:1" cx="1153.61" cy="331.143" r="3"/>
<circle clip-path="url(#clip8602)" style="fill:#000000; stroke:none; fill-opacity:1" cx="1186.12" cy="1246.48" r="7"/>
<circle clip-path="url(#clip8602)" style="fill:#e26f46; stroke:none; fill-opacity:1" cx="1186.12" cy="1246.48" r="3"/>
<circle clip-path="url(#clip8602)" style="fill:#000000; stroke:none; fill-opacity:1" cx="1218.62" cy="316.84" r="7"/>
<circle clip-path="url(#clip8602)" style="fill:#e26f46; stroke:none; fill-opacity:1" cx="1218.62" cy="316.84" r="3"/>
<circle clip-path="url(#clip8602)" style="fill:#000000; stroke:none; fill-opacity:1" cx="1251.13" cy="1232.18" r="7"/>
<circle clip-path="url(#clip8602)" style="fill:#e26f46; stroke:none; fill-opacity:1" cx="1251.13" cy="1232.18" r="3"/>
<circle clip-path="url(#clip8602)" style="fill:#000000; stroke:none; fill-opacity:1" cx="1283.63" cy="302.538" r="7"/>
<circle clip-path="url(#clip8602)" style="fill:#e26f46; stroke:none; fill-opacity:1" cx="1283.63" cy="302.538" r="3"/>
<circle clip-path="url(#clip8602)" style="fill:#000000; stroke:none; fill-opacity:1" cx="1316.14" cy="1217.88" r="7"/>
<circle clip-path="url(#clip8602)" style="fill:#e26f46; stroke:none; fill-opacity:1" cx="1316.14" cy="1217.88" r="3"/>
<circle clip-path="url(#clip8602)" style="fill:#000000; stroke:none; fill-opacity:1" cx="1348.65" cy="288.236" r="7"/>
<circle clip-path="url(#clip8602)" style="fill:#e26f46; stroke:none; fill-opacity:1" cx="1348.65" cy="288.236" r="3"/>
<circle clip-path="url(#clip8602)" style="fill:#000000; stroke:none; fill-opacity:1" cx="1381.15" cy="1203.58" r="7"/>
<circle clip-path="url(#clip8602)" style="fill:#e26f46; stroke:none; fill-opacity:1" cx="1381.15" cy="1203.58" r="3"/>
<circle clip-path="url(#clip8602)" style="fill:#000000; stroke:none; fill-opacity:1" cx="1413.66" cy="273.934" r="7"/>
<circle clip-path="url(#clip8602)" style="fill:#e26f46; stroke:none; fill-opacity:1" cx="1413.66" cy="273.934" r="3"/>
<circle clip-path="url(#clip8602)" style="fill:#000000; stroke:none; fill-opacity:1" cx="1446.16" cy="1189.27" r="7"/>
<circle clip-path="url(#clip8602)" style="fill:#e26f46; stroke:none; fill-opacity:1" cx="1446.16" cy="1189.27" r="3"/>
<circle clip-path="url(#clip8602)" style="fill:#000000; stroke:none; fill-opacity:1" cx="1478.67" cy="259.632" r="7"/>
<circle clip-path="url(#clip8602)" style="fill:#e26f46; stroke:none; fill-opacity:1" cx="1478.67" cy="259.632" r="3"/>
<circle clip-path="url(#clip8602)" style="fill:#000000; stroke:none; fill-opacity:1" cx="1511.18" cy="1174.97" r="7"/>
<circle clip-path="url(#clip8602)" style="fill:#e26f46; stroke:none; fill-opacity:1" cx="1511.18" cy="1174.97" r="3"/>
<circle clip-path="url(#clip8602)" style="fill:#000000; stroke:none; fill-opacity:1" cx="1543.68" cy="245.329" r="7"/>
<circle clip-path="url(#clip8602)" style="fill:#e26f46; stroke:none; fill-opacity:1" cx="1543.68" cy="245.329" r="3"/>
<circle clip-path="url(#clip8602)" style="fill:#000000; stroke:none; fill-opacity:1" cx="1576.19" cy="1160.67" r="7"/>
<circle clip-path="url(#clip8602)" style="fill:#e26f46; stroke:none; fill-opacity:1" cx="1576.19" cy="1160.67" r="3"/>
<circle clip-path="url(#clip8602)" style="fill:#000000; stroke:none; fill-opacity:1" cx="1608.69" cy="231.027" r="7"/>
<circle clip-path="url(#clip8602)" style="fill:#e26f46; stroke:none; fill-opacity:1" cx="1608.69" cy="231.027" r="3"/>
<circle clip-path="url(#clip8602)" style="fill:#000000; stroke:none; fill-opacity:1" cx="1641.2" cy="1146.37" r="7"/>
<circle clip-path="url(#clip8602)" style="fill:#e26f46; stroke:none; fill-opacity:1" cx="1641.2" cy="1146.37" r="3"/>
<circle clip-path="url(#clip8602)" style="fill:#000000; stroke:none; fill-opacity:1" cx="1673.71" cy="216.725" r="7"/>
<circle clip-path="url(#clip8602)" style="fill:#e26f46; stroke:none; fill-opacity:1" cx="1673.71" cy="216.725" r="3"/>
<circle clip-path="url(#clip8602)" style="fill:#000000; stroke:none; fill-opacity:1" cx="1706.21" cy="1132.07" r="7"/>
<circle clip-path="url(#clip8602)" style="fill:#e26f46; stroke:none; fill-opacity:1" cx="1706.21" cy="1132.07" r="3"/>
<circle clip-path="url(#clip8602)" style="fill:#000000; stroke:none; fill-opacity:1" cx="1738.72" cy="202.423" r="7"/>
<circle clip-path="url(#clip8602)" style="fill:#e26f46; stroke:none; fill-opacity:1" cx="1738.72" cy="202.423" r="3"/>
<circle clip-path="url(#clip8602)" style="fill:#000000; stroke:none; fill-opacity:1" cx="1771.22" cy="1117.76" r="7"/>
<circle clip-path="url(#clip8602)" style="fill:#e26f46; stroke:none; fill-opacity:1" cx="1771.22" cy="1117.76" r="3"/>
<circle clip-path="url(#clip8602)" style="fill:#000000; stroke:none; fill-opacity:1" cx="1803.73" cy="188.121" r="7"/>
<circle clip-path="url(#clip8602)" style="fill:#e26f46; stroke:none; fill-opacity:1" cx="1803.73" cy="188.121" r="3"/>
<circle clip-path="url(#clip8602)" style="fill:#000000; stroke:none; fill-opacity:1" cx="1836.24" cy="1103.46" r="7"/>
<circle clip-path="url(#clip8602)" style="fill:#e26f46; stroke:none; fill-opacity:1" cx="1836.24" cy="1103.46" r="3"/>
<circle clip-path="url(#clip8602)" style="fill:#000000; stroke:none; fill-opacity:1" cx="1868.74" cy="173.818" r="7"/>
<circle clip-path="url(#clip8602)" style="fill:#e26f46; stroke:none; fill-opacity:1" cx="1868.74" cy="173.818" r="3"/>
<circle clip-path="url(#clip8602)" style="fill:#000000; stroke:none; fill-opacity:1" cx="1901.25" cy="1089.16" r="7"/>
<circle clip-path="url(#clip8602)" style="fill:#e26f46; stroke:none; fill-opacity:1" cx="1901.25" cy="1089.16" r="3"/>
<circle clip-path="url(#clip8602)" style="fill:#000000; stroke:none; fill-opacity:1" cx="1933.75" cy="159.516" r="7"/>
<circle clip-path="url(#clip8602)" style="fill:#e26f46; stroke:none; fill-opacity:1" cx="1933.75" cy="159.516" r="3"/>
<circle clip-path="url(#clip8602)" style="fill:#000000; stroke:none; fill-opacity:1" cx="1966.26" cy="1074.86" r="7"/>
<circle clip-path="url(#clip8602)" style="fill:#e26f46; stroke:none; fill-opacity:1" cx="1966.26" cy="1074.86" r="3"/>
<circle clip-path="url(#clip8602)" style="fill:#000000; stroke:none; fill-opacity:1" cx="1998.77" cy="145.214" r="7"/>
<circle clip-path="url(#clip8602)" style="fill:#e26f46; stroke:none; fill-opacity:1" cx="1998.77" cy="145.214" r="3"/>
<circle clip-path="url(#clip8602)" style="fill:#000000; stroke:none; fill-opacity:1" cx="2031.27" cy="1060.55" r="7"/>
<circle clip-path="url(#clip8602)" style="fill:#e26f46; stroke:none; fill-opacity:1" cx="2031.27" cy="1060.55" r="3"/>
<circle clip-path="url(#clip8602)" style="fill:#000000; stroke:none; fill-opacity:1" cx="2063.78" cy="130.912" r="7"/>
<circle clip-path="url(#clip8602)" style="fill:#e26f46; stroke:none; fill-opacity:1" cx="2063.78" cy="130.912" r="3"/>
<circle clip-path="url(#clip8602)" style="fill:#000000; stroke:none; fill-opacity:1" cx="2096.28" cy="1046.25" r="7"/>
<circle clip-path="url(#clip8602)" style="fill:#e26f46; stroke:none; fill-opacity:1" cx="2096.28" cy="1046.25" r="3"/>
<circle clip-path="url(#clip8602)" style="fill:#000000; stroke:none; fill-opacity:1" cx="2128.79" cy="116.61" r="7"/>
<circle clip-path="url(#clip8602)" style="fill:#e26f46; stroke:none; fill-opacity:1" cx="2128.79" cy="116.61" r="3"/>
<circle clip-path="url(#clip8602)" style="fill:#000000; stroke:none; fill-opacity:1" cx="2161.3" cy="1031.95" r="7"/>
<circle clip-path="url(#clip8602)" style="fill:#e26f46; stroke:none; fill-opacity:1" cx="2161.3" cy="1031.95" r="3"/>
<circle clip-path="url(#clip8602)" style="fill:#000000; stroke:none; fill-opacity:1" cx="2193.8" cy="102.308" r="7"/>
<circle clip-path="url(#clip8602)" style="fill:#e26f46; stroke:none; fill-opacity:1" cx="2193.8" cy="102.308" r="3"/>
<circle clip-path="url(#clip8602)" style="fill:#000000; stroke:none; fill-opacity:1" cx="2226.31" cy="1017.65" r="7"/>
<circle clip-path="url(#clip8602)" style="fill:#e26f46; stroke:none; fill-opacity:1" cx="2226.31" cy="1017.65" r="3"/>
<circle clip-path="url(#clip8602)" style="fill:#000000; stroke:none; fill-opacity:1" cx="2258.81" cy="88.0053" r="7"/>
<circle clip-path="url(#clip8602)" style="fill:#e26f46; stroke:none; fill-opacity:1" cx="2258.81" cy="88.0053" r="3"/>
<circle clip-path="url(#clip8602)" style="fill:#000000; stroke:none; fill-opacity:1" cx="2291.32" cy="1003.35" r="7"/>
<circle clip-path="url(#clip8602)" style="fill:#e26f46; stroke:none; fill-opacity:1" cx="2291.32" cy="1003.35" r="3"/>
<path clip-path="url(#clip8600)" d="
M2013.99 312.204 L2280.76 312.204 L2280.76 130.764 L2013.99 130.764  Z
  " fill="#ffffff" fill-rule="evenodd" fill-opacity="1"/>
<polyline clip-path="url(#clip8600)" style="stroke:#000000; stroke-width:4; stroke-opacity:1; fill:none" points="
  2013.99,312.204 2280.76,312.204 2280.76,130.764 2013.99,130.764 2013.99,312.204 
  "/>
<polyline clip-path="url(#clip8600)" style="stroke:#009af9; stroke-width:8; stroke-opacity:1; fill:none" points="
  2037.99,191.244 2181.99,191.244 
  "/>
<circle clip-path="url(#clip8600)" style="fill:#000000; stroke:none; fill-opacity:1" cx="2121.99" cy="191.244" r="25"/>
<circle clip-path="url(#clip8600)" style="fill:#009af9; stroke:none; fill-opacity:1" cx="2121.99" cy="191.244" r="21"/>
<g clip-path="url(#clip8600)">
<text style="fill:#000000; fill-opacity:1; font-family:Arial,Helvetica Neue,Helvetica,sans-serif; font-size:48px; text-anchor:start;" transform="rotate(0, 2205.99, 208.744)" x="2205.99" y="208.744">u</text>
</g>
<polyline clip-path="url(#clip8600)" style="stroke:#e26f46; stroke-width:8; stroke-opacity:1; fill:none" points="
  2037.99,251.724 2181.99,251.724 
  "/>
<circle clip-path="url(#clip8600)" style="fill:#000000; stroke:none; fill-opacity:1" cx="2121.99" cy="251.724" r="25"/>
<circle clip-path="url(#clip8600)" style="fill:#e26f46; stroke:none; fill-opacity:1" cx="2121.99" cy="251.724" r="21"/>
<g clip-path="url(#clip8600)">
<text style="fill:#000000; fill-opacity:1; font-family:Arial,Helvetica Neue,Helvetica,sans-serif; font-size:48px; text-anchor:start;" transform="rotate(0, 2205.99, 269.224)" x="2205.99" y="269.224">y</text>
</g>
</svg>
