<?xml version="1.0" encoding="utf-8"?>
<svg xmlns="http://www.w3.org/2000/svg" xmlns:xlink="http://www.w3.org/1999/xlink" width="600" height="400" viewBox="0 0 2400 1600">
<defs>
  <clipPath id="clip4000">
    <rect x="0" y="0" width="2400" height="1600"/>
  </clipPath>
</defs>
<path clip-path="url(#clip4000)" d="
M0 1600 L2400 1600 L2400 0 L0 0  Z
  " fill="#ffffff" fill-rule="evenodd" fill-opacity="1"/>
<defs>
  <clipPath id="clip4001">
    <rect x="480" y="0" width="1681" height="1600"/>
  </clipPath>
</defs>
<path clip-path="url(#clip4000)" d="
M208.77 1487.47 L2352.76 1487.47 L2352.76 47.2441 L208.77 47.2441  Z
  " fill="#ffffff" fill-rule="evenodd" fill-opacity="1"/>
<defs>
  <clipPath id="clip4002">
    <rect x="208" y="47" width="2145" height="1441"/>
  </clipPath>
</defs>
<polyline clip-path="url(#clip4002)" style="stroke:#000000; stroke-width:2; stroke-opacity:0.1; fill:none" points="
  269.449,1487.47 269.449,47.2441 
  "/>
<polyline clip-path="url(#clip4002)" style="stroke:#000000; stroke-width:2; stroke-opacity:0.1; fill:none" points="
  783.132,1487.47 783.132,47.2441 
  "/>
<polyline clip-path="url(#clip4002)" style="stroke:#000000; stroke-width:2; stroke-opacity:0.1; fill:none" points="
  1296.82,1487.47 1296.82,47.2441 
  "/>
<polyline clip-path="url(#clip4002)" style="stroke:#000000; stroke-width:2; stroke-opacity:0.1; fill:none" points="
  1810.5,1487.47 1810.5,47.2441 
  "/>
<polyline clip-path="url(#clip4002)" style="stroke:#000000; stroke-width:2; stroke-opacity:0.1; fill:none" points="
  2324.18,1487.47 2324.18,47.2441 
  "/>
<polyline clip-path="url(#clip4002)" style="stroke:#000000; stroke-width:2; stroke-opacity:0.1; fill:none" points="
  208.77,1334.75 2352.76,1334.75 
  "/>
<polyline clip-path="url(#clip4002)" style="stroke:#000000; stroke-width:2; stroke-opacity:0.1; fill:none" points="
  208.77,1082.25 2352.76,1082.25 
  "/>
<polyline clip-path="url(#clip4002)" style="stroke:#000000; stroke-width:2; stroke-opacity:0.1; fill:none" points="
  208.77,829.74 2352.76,829.74 
  "/>
<polyline clip-path="url(#clip4002)" style="stroke:#000000; stroke-width:2; stroke-opacity:0.1; fill:none" points="
  208.77,577.235 2352.76,577.235 
  "/>
<polyline clip-path="url(#clip4002)" style="stroke:#000000; stroke-width:2; stroke-opacity:0.1; fill:none" points="
  208.77,324.729 2352.76,324.729 
  "/>
<polyline clip-path="url(#clip4002)" style="stroke:#000000; stroke-width:2; stroke-opacity:0.1; fill:none" points="
  208.77,72.2237 2352.76,72.2237 
  "/>
<polyline clip-path="url(#clip4000)" style="stroke:#000000; stroke-width:4; stroke-opacity:1; fill:none" points="
  208.77,1487.47 2352.76,1487.47 
  "/>
<polyline clip-path="url(#clip4000)" style="stroke:#000000; stroke-width:4; stroke-opacity:1; fill:none" points="
  208.77,1487.47 208.77,47.2441 
  "/>
<polyline clip-path="url(#clip4000)" style="stroke:#000000; stroke-width:4; stroke-opacity:1; fill:none" points="
  269.449,1487.47 269.449,1470.19 
  "/>
<polyline clip-path="url(#clip4000)" style="stroke:#000000; stroke-width:4; stroke-opacity:1; fill:none" points="
  783.132,1487.47 783.132,1470.19 
  "/>
<polyline clip-path="url(#clip4000)" style="stroke:#000000; stroke-width:4; stroke-opacity:1; fill:none" points="
  1296.82,1487.47 1296.82,1470.19 
  "/>
<polyline clip-path="url(#clip4000)" style="stroke:#000000; stroke-width:4; stroke-opacity:1; fill:none" points="
  1810.5,1487.47 1810.5,1470.19 
  "/>
<polyline clip-path="url(#clip4000)" style="stroke:#000000; stroke-width:4; stroke-opacity:1; fill:none" points="
  2324.18,1487.47 2324.18,1470.19 
  "/>
<polyline clip-path="url(#clip4000)" style="stroke:#000000; stroke-width:4; stroke-opacity:1; fill:none" points="
  208.77,1334.75 234.498,1334.75 
  "/>
<polyline clip-path="url(#clip4000)" style="stroke:#000000; stroke-width:4; stroke-opacity:1; fill:none" points="
  208.77,1082.25 234.498,1082.25 
  "/>
<polyline clip-path="url(#clip4000)" style="stroke:#000000; stroke-width:4; stroke-opacity:1; fill:none" points="
  208.77,829.74 234.498,829.74 
  "/>
<polyline clip-path="url(#clip4000)" style="stroke:#000000; stroke-width:4; stroke-opacity:1; fill:none" points="
  208.77,577.235 234.498,577.235 
  "/>
<polyline clip-path="url(#clip4000)" style="stroke:#000000; stroke-width:4; stroke-opacity:1; fill:none" points="
  208.77,324.729 234.498,324.729 
  "/>
<polyline clip-path="url(#clip4000)" style="stroke:#000000; stroke-width:4; stroke-opacity:1; fill:none" points="
  208.77,72.2237 234.498,72.2237 
  "/>
<g clip-path="url(#clip4000)">
<text style="fill:#000000; fill-opacity:1; font-family:Arial,Helvetica Neue,Helvetica,sans-serif; font-size:48px; text-anchor:middle;" transform="rotate(0, 269.449, 1541.47)" x="269.449" y="1541.47">0.00</text>
</g>
<g clip-path="url(#clip4000)">
<text style="fill:#000000; fill-opacity:1; font-family:Arial,Helvetica Neue,Helvetica,sans-serif; font-size:48px; text-anchor:middle;" transform="rotate(0, 783.132, 1541.47)" x="783.132" y="1541.47">0.25</text>
</g>
<g clip-path="url(#clip4000)">
<text style="fill:#000000; fill-opacity:1; font-family:Arial,Helvetica Neue,Helvetica,sans-serif; font-size:48px; text-anchor:middle;" transform="rotate(0, 1296.82, 1541.47)" x="1296.82" y="1541.47">0.50</text>
</g>
<g clip-path="url(#clip4000)">
<text style="fill:#000000; fill-opacity:1; font-family:Arial,Helvetica Neue,Helvetica,sans-serif; font-size:48px; text-anchor:middle;" transform="rotate(0, 1810.5, 1541.47)" x="1810.5" y="1541.47">0.75</text>
</g>
<g clip-path="url(#clip4000)">
<text style="fill:#000000; fill-opacity:1; font-family:Arial,Helvetica Neue,Helvetica,sans-serif; font-size:48px; text-anchor:middle;" transform="rotate(0, 2324.18, 1541.47)" x="2324.18" y="1541.47">1.00</text>
</g>
<g clip-path="url(#clip4000)">
<text style="fill:#000000; fill-opacity:1; font-family:Arial,Helvetica Neue,Helvetica,sans-serif; font-size:48px; text-anchor:end;" transform="rotate(0, 184.77, 1352.25)" x="184.77" y="1352.25">-0.25</text>
</g>
<g clip-path="url(#clip4000)">
<text style="fill:#000000; fill-opacity:1; font-family:Arial,Helvetica Neue,Helvetica,sans-serif; font-size:48px; text-anchor:end;" transform="rotate(0, 184.77, 1099.75)" x="184.77" y="1099.75">0.00</text>
</g>
<g clip-path="url(#clip4000)">
<text style="fill:#000000; fill-opacity:1; font-family:Arial,Helvetica Neue,Helvetica,sans-serif; font-size:48px; text-anchor:end;" transform="rotate(0, 184.77, 847.24)" x="184.77" y="847.24">0.25</text>
</g>
<g clip-path="url(#clip4000)">
<text style="fill:#000000; fill-opacity:1; font-family:Arial,Helvetica Neue,Helvetica,sans-serif; font-size:48px; text-anchor:end;" transform="rotate(0, 184.77, 594.735)" x="184.77" y="594.735">0.50</text>
</g>
<g clip-path="url(#clip4000)">
<text style="fill:#000000; fill-opacity:1; font-family:Arial,Helvetica Neue,Helvetica,sans-serif; font-size:48px; text-anchor:end;" transform="rotate(0, 184.77, 342.229)" x="184.77" y="342.229">0.75</text>
</g>
<g clip-path="url(#clip4000)">
<text style="fill:#000000; fill-opacity:1; font-family:Arial,Helvetica Neue,Helvetica,sans-serif; font-size:48px; text-anchor:end;" transform="rotate(0, 184.77, 89.7237)" x="184.77" y="89.7237">1.00</text>
</g>
<polyline clip-path="url(#clip4002)" style="stroke:#009af9; stroke-width:4; stroke-opacity:1; fill:none" points="
  269.449,1082.25 301.554,1066.46 333.66,1050.68 365.765,1034.9 397.87,1019.12 429.975,1003.34 462.08,987.556 494.186,971.775 526.291,955.993 558.396,940.211 
  590.501,924.43 622.606,908.648 654.712,892.867 686.817,877.085 718.922,861.303 751.027,845.522 783.132,829.74 815.238,813.959 847.343,798.177 879.448,782.395 
  911.553,766.614 943.659,750.832 975.764,735.051 1007.87,719.269 1039.97,703.488 1072.08,687.706 1104.18,671.924 1136.29,656.143 1168.39,640.361 1200.5,624.58 
  1232.61,608.798 1264.71,593.016 1296.82,577.235 1328.92,561.453 1361.03,545.672 1393.13,529.89 1425.24,514.108 1457.34,498.327 1489.45,482.545 1521.55,466.764 
  1553.66,450.982 1585.76,435.2 1617.87,419.419 1649.97,403.637 1682.08,387.856 1714.18,372.074 1746.29,356.292 1778.39,340.511 1810.5,324.729 1842.6,308.948 
  1874.71,293.166 1906.81,277.384 1938.92,261.603 1971.03,245.821 2003.13,230.04 2035.24,214.258 2067.34,198.476 2099.45,182.695 2131.55,166.913 2163.66,151.132 
  2195.76,135.35 2227.87,119.569 2259.97,103.787 2292.08,88.0053 
  "/>
<circle clip-path="url(#clip4002)" cx="269.449" cy="1082.25" r="10" fill="#009af9" fill-rule="evenodd" fill-opacity="1" stroke="#000000" stroke-opacity="1" stroke-width="3.2"/>
<circle clip-path="url(#clip4002)" cx="301.554" cy="1066.46" r="10" fill="#009af9" fill-rule="evenodd" fill-opacity="1" stroke="#000000" stroke-opacity="1" stroke-width="3.2"/>
<circle clip-path="url(#clip4002)" cx="333.66" cy="1050.68" r="10" fill="#009af9" fill-rule="evenodd" fill-opacity="1" stroke="#000000" stroke-opacity="1" stroke-width="3.2"/>
<circle clip-path="url(#clip4002)" cx="365.765" cy="1034.9" r="10" fill="#009af9" fill-rule="evenodd" fill-opacity="1" stroke="#000000" stroke-opacity="1" stroke-width="3.2"/>
<circle clip-path="url(#clip4002)" cx="397.87" cy="1019.12" r="10" fill="#009af9" fill-rule="evenodd" fill-opacity="1" stroke="#000000" stroke-opacity="1" stroke-width="3.2"/>
<circle clip-path="url(#clip4002)" cx="429.975" cy="1003.34" r="10" fill="#009af9" fill-rule="evenodd" fill-opacity="1" stroke="#000000" stroke-opacity="1" stroke-width="3.2"/>
<circle clip-path="url(#clip4002)" cx="462.08" cy="987.556" r="10" fill="#009af9" fill-rule="evenodd" fill-opacity="1" stroke="#000000" stroke-opacity="1" stroke-width="3.2"/>
<circle clip-path="url(#clip4002)" cx="494.186" cy="971.775" r="10" fill="#009af9" fill-rule="evenodd" fill-opacity="1" stroke="#000000" stroke-opacity="1" stroke-width="3.2"/>
<circle clip-path="url(#clip4002)" cx="526.291" cy="955.993" r="10" fill="#009af9" fill-rule="evenodd" fill-opacity="1" stroke="#000000" stroke-opacity="1" stroke-width="3.2"/>
<circle clip-path="url(#clip4002)" cx="558.396" cy="940.211" r="10" fill="#009af9" fill-rule="evenodd" fill-opacity="1" stroke="#000000" stroke-opacity="1" stroke-width="3.2"/>
<circle clip-path="url(#clip4002)" cx="590.501" cy="924.43" r="10" fill="#009af9" fill-rule="evenodd" fill-opacity="1" stroke="#000000" stroke-opacity="1" stroke-width="3.2"/>
<circle clip-path="url(#clip4002)" cx="622.606" cy="908.648" r="10" fill="#009af9" fill-rule="evenodd" fill-opacity="1" stroke="#000000" stroke-opacity="1" stroke-width="3.2"/>
<circle clip-path="url(#clip4002)" cx="654.712" cy="892.867" r="10" fill="#009af9" fill-rule="evenodd" fill-opacity="1" stroke="#000000" stroke-opacity="1" stroke-width="3.2"/>
<circle clip-path="url(#clip4002)" cx="686.817" cy="877.085" r="10" fill="#009af9" fill-rule="evenodd" fill-opacity="1" stroke="#000000" stroke-opacity="1" stroke-width="3.2"/>
<circle clip-path="url(#clip4002)" cx="718.922" cy="861.303" r="10" fill="#009af9" fill-rule="evenodd" fill-opacity="1" stroke="#000000" stroke-opacity="1" stroke-width="3.2"/>
<circle clip-path="url(#clip4002)" cx="751.027" cy="845.522" r="10" fill="#009af9" fill-rule="evenodd" fill-opacity="1" stroke="#000000" stroke-opacity="1" stroke-width="3.2"/>
<circle clip-path="url(#clip4002)" cx="783.132" cy="829.74" r="10" fill="#009af9" fill-rule="evenodd" fill-opacity="1" stroke="#000000" stroke-opacity="1" stroke-width="3.2"/>
<circle clip-path="url(#clip4002)" cx="815.238" cy="813.959" r="10" fill="#009af9" fill-rule="evenodd" fill-opacity="1" stroke="#000000" stroke-opacity="1" stroke-width="3.2"/>
<circle clip-path="url(#clip4002)" cx="847.343" cy="798.177" r="10" fill="#009af9" fill-rule="evenodd" fill-opacity="1" stroke="#000000" stroke-opacity="1" stroke-width="3.2"/>
<circle clip-path="url(#clip4002)" cx="879.448" cy="782.395" r="10" fill="#009af9" fill-rule="evenodd" fill-opacity="1" stroke="#000000" stroke-opacity="1" stroke-width="3.2"/>
<circle clip-path="url(#clip4002)" cx="911.553" cy="766.614" r="10" fill="#009af9" fill-rule="evenodd" fill-opacity="1" stroke="#000000" stroke-opacity="1" stroke-width="3.2"/>
<circle clip-path="url(#clip4002)" cx="943.659" cy="750.832" r="10" fill="#009af9" fill-rule="evenodd" fill-opacity="1" stroke="#000000" stroke-opacity="1" stroke-width="3.2"/>
<circle clip-path="url(#clip4002)" cx="975.764" cy="735.051" r="10" fill="#009af9" fill-rule="evenodd" fill-opacity="1" stroke="#000000" stroke-opacity="1" stroke-width="3.2"/>
<circle clip-path="url(#clip4002)" cx="1007.87" cy="719.269" r="10" fill="#009af9" fill-rule="evenodd" fill-opacity="1" stroke="#000000" stroke-opacity="1" stroke-width="3.2"/>
<circle clip-path="url(#clip4002)" cx="1039.97" cy="703.488" r="10" fill="#009af9" fill-rule="evenodd" fill-opacity="1" stroke="#000000" stroke-opacity="1" stroke-width="3.2"/>
<circle clip-path="url(#clip4002)" cx="1072.08" cy="687.706" r="10" fill="#009af9" fill-rule="evenodd" fill-opacity="1" stroke="#000000" stroke-opacity="1" stroke-width="3.2"/>
<circle clip-path="url(#clip4002)" cx="1104.18" cy="671.924" r="10" fill="#009af9" fill-rule="evenodd" fill-opacity="1" stroke="#000000" stroke-opacity="1" stroke-width="3.2"/>
<circle clip-path="url(#clip4002)" cx="1136.29" cy="656.143" r="10" fill="#009af9" fill-rule="evenodd" fill-opacity="1" stroke="#000000" stroke-opacity="1" stroke-width="3.2"/>
<circle clip-path="url(#clip4002)" cx="1168.39" cy="640.361" r="10" fill="#009af9" fill-rule="evenodd" fill-opacity="1" stroke="#000000" stroke-opacity="1" stroke-width="3.2"/>
<circle clip-path="url(#clip4002)" cx="1200.5" cy="624.58" r="10" fill="#009af9" fill-rule="evenodd" fill-opacity="1" stroke="#000000" stroke-opacity="1" stroke-width="3.2"/>
<circle clip-path="url(#clip4002)" cx="1232.61" cy="608.798" r="10" fill="#009af9" fill-rule="evenodd" fill-opacity="1" stroke="#000000" stroke-opacity="1" stroke-width="3.2"/>
<circle clip-path="url(#clip4002)" cx="1264.71" cy="593.016" r="10" fill="#009af9" fill-rule="evenodd" fill-opacity="1" stroke="#000000" stroke-opacity="1" stroke-width="3.2"/>
<circle clip-path="url(#clip4002)" cx="1296.82" cy="577.235" r="10" fill="#009af9" fill-rule="evenodd" fill-opacity="1" stroke="#000000" stroke-opacity="1" stroke-width="3.2"/>
<circle clip-path="url(#clip4002)" cx="1328.92" cy="561.453" r="10" fill="#009af9" fill-rule="evenodd" fill-opacity="1" stroke="#000000" stroke-opacity="1" stroke-width="3.2"/>
<circle clip-path="url(#clip4002)" cx="1361.03" cy="545.672" r="10" fill="#009af9" fill-rule="evenodd" fill-opacity="1" stroke="#000000" stroke-opacity="1" stroke-width="3.2"/>
<circle clip-path="url(#clip4002)" cx="1393.13" cy="529.89" r="10" fill="#009af9" fill-rule="evenodd" fill-opacity="1" stroke="#000000" stroke-opacity="1" stroke-width="3.2"/>
<circle clip-path="url(#clip4002)" cx="1425.24" cy="514.108" r="10" fill="#009af9" fill-rule="evenodd" fill-opacity="1" stroke="#000000" stroke-opacity="1" stroke-width="3.2"/>
<circle clip-path="url(#clip4002)" cx="1457.34" cy="498.327" r="10" fill="#009af9" fill-rule="evenodd" fill-opacity="1" stroke="#000000" stroke-opacity="1" stroke-width="3.2"/>
<circle clip-path="url(#clip4002)" cx="1489.45" cy="482.545" r="10" fill="#009af9" fill-rule="evenodd" fill-opacity="1" stroke="#000000" stroke-opacity="1" stroke-width="3.2"/>
<circle clip-path="url(#clip4002)" cx="1521.55" cy="466.764" r="10" fill="#009af9" fill-rule="evenodd" fill-opacity="1" stroke="#000000" stroke-opacity="1" stroke-width="3.2"/>
<circle clip-path="url(#clip4002)" cx="1553.66" cy="450.982" r="10" fill="#009af9" fill-rule="evenodd" fill-opacity="1" stroke="#000000" stroke-opacity="1" stroke-width="3.2"/>
<circle clip-path="url(#clip4002)" cx="1585.76" cy="435.2" r="10" fill="#009af9" fill-rule="evenodd" fill-opacity="1" stroke="#000000" stroke-opacity="1" stroke-width="3.2"/>
<circle clip-path="url(#clip4002)" cx="1617.87" cy="419.419" r="10" fill="#009af9" fill-rule="evenodd" fill-opacity="1" stroke="#000000" stroke-opacity="1" stroke-width="3.2"/>
<circle clip-path="url(#clip4002)" cx="1649.97" cy="403.637" r="10" fill="#009af9" fill-rule="evenodd" fill-opacity="1" stroke="#000000" stroke-opacity="1" stroke-width="3.2"/>
<circle clip-path="url(#clip4002)" cx="1682.08" cy="387.856" r="10" fill="#009af9" fill-rule="evenodd" fill-opacity="1" stroke="#000000" stroke-opacity="1" stroke-width="3.2"/>
<circle clip-path="url(#clip4002)" cx="1714.18" cy="372.074" r="10" fill="#009af9" fill-rule="evenodd" fill-opacity="1" stroke="#000000" stroke-opacity="1" stroke-width="3.2"/>
<circle clip-path="url(#clip4002)" cx="1746.29" cy="356.292" r="10" fill="#009af9" fill-rule="evenodd" fill-opacity="1" stroke="#000000" stroke-opacity="1" stroke-width="3.2"/>
<circle clip-path="url(#clip4002)" cx="1778.39" cy="340.511" r="10" fill="#009af9" fill-rule="evenodd" fill-opacity="1" stroke="#000000" stroke-opacity="1" stroke-width="3.2"/>
<circle clip-path="url(#clip4002)" cx="1810.5" cy="324.729" r="10" fill="#009af9" fill-rule="evenodd" fill-opacity="1" stroke="#000000" stroke-opacity="1" stroke-width="3.2"/>
<circle clip-path="url(#clip4002)" cx="1842.6" cy="308.948" r="10" fill="#009af9" fill-rule="evenodd" fill-opacity="1" stroke="#000000" stroke-opacity="1" stroke-width="3.2"/>
<circle clip-path="url(#clip4002)" cx="1874.71" cy="293.166" r="10" fill="#009af9" fill-rule="evenodd" fill-opacity="1" stroke="#000000" stroke-opacity="1" stroke-width="3.2"/>
<circle clip-path="url(#clip4002)" cx="1906.81" cy="277.384" r="10" fill="#009af9" fill-rule="evenodd" fill-opacity="1" stroke="#000000" stroke-opacity="1" stroke-width="3.2"/>
<circle clip-path="url(#clip4002)" cx="1938.92" cy="261.603" r="10" fill="#009af9" fill-rule="evenodd" fill-opacity="1" stroke="#000000" stroke-opacity="1" stroke-width="3.2"/>
<circle clip-path="url(#clip4002)" cx="1971.03" cy="245.821" r="10" fill="#009af9" fill-rule="evenodd" fill-opacity="1" stroke="#000000" stroke-opacity="1" stroke-width="3.2"/>
<circle clip-path="url(#clip4002)" cx="2003.13" cy="230.04" r="10" fill="#009af9" fill-rule="evenodd" fill-opacity="1" stroke="#000000" stroke-opacity="1" stroke-width="3.2"/>
<circle clip-path="url(#clip4002)" cx="2035.24" cy="214.258" r="10" fill="#009af9" fill-rule="evenodd" fill-opacity="1" stroke="#000000" stroke-opacity="1" stroke-width="3.2"/>
<circle clip-path="url(#clip4002)" cx="2067.34" cy="198.476" r="10" fill="#009af9" fill-rule="evenodd" fill-opacity="1" stroke="#000000" stroke-opacity="1" stroke-width="3.2"/>
<circle clip-path="url(#clip4002)" cx="2099.45" cy="182.695" r="10" fill="#009af9" fill-rule="evenodd" fill-opacity="1" stroke="#000000" stroke-opacity="1" stroke-width="3.2"/>
<circle clip-path="url(#clip4002)" cx="2131.55" cy="166.913" r="10" fill="#009af9" fill-rule="evenodd" fill-opacity="1" stroke="#000000" stroke-opacity="1" stroke-width="3.2"/>
<circle clip-path="url(#clip4002)" cx="2163.66" cy="151.132" r="10" fill="#009af9" fill-rule="evenodd" fill-opacity="1" stroke="#000000" stroke-opacity="1" stroke-width="3.2"/>
<circle clip-path="url(#clip4002)" cx="2195.76" cy="135.35" r="10" fill="#009af9" fill-rule="evenodd" fill-opacity="1" stroke="#000000" stroke-opacity="1" stroke-width="3.2"/>
<circle clip-path="url(#clip4002)" cx="2227.87" cy="119.569" r="10" fill="#009af9" fill-rule="evenodd" fill-opacity="1" stroke="#000000" stroke-opacity="1" stroke-width="3.2"/>
<circle clip-path="url(#clip4002)" cx="2259.97" cy="103.787" r="10" fill="#009af9" fill-rule="evenodd" fill-opacity="1" stroke="#000000" stroke-opacity="1" stroke-width="3.2"/>
<circle clip-path="url(#clip4002)" cx="2292.08" cy="88.0053" r="10" fill="#009af9" fill-rule="evenodd" fill-opacity="1" stroke="#000000" stroke-opacity="1" stroke-width="3.2"/>
<polyline clip-path="url(#clip4002)" style="stroke:#e26f46; stroke-width:4; stroke-opacity:1; fill:none" points="
  269.449,1446.71 301.554,1430.93 333.66,701.996 365.765,1415.15 397.87,686.215 429.975,1399.37 462.08,670.433 494.186,1383.59 526.291,654.652 558.396,1367.81 
  590.501,638.87 622.606,1352.02 654.712,623.089 686.817,1336.24 718.922,607.307 751.027,1320.46 783.132,591.525 815.238,1304.68 847.343,575.744 879.448,1288.9 
  911.553,559.962 943.659,1273.12 975.764,544.181 1007.87,1257.33 1039.97,528.399 1072.08,1241.55 1104.18,512.617 1136.29,1225.77 1168.39,496.836 1200.5,1209.99 
  1232.61,481.054 1264.71,1194.21 1296.82,465.273 1328.92,1178.43 1361.03,449.491 1393.13,1162.64 1425.24,433.709 1457.34,1146.86 1489.45,417.928 1521.55,1131.08 
  1553.66,402.146 1585.76,1115.3 1617.87,386.365 1649.97,1099.52 1682.08,370.583 1714.18,1083.74 1746.29,354.801 1778.39,1067.96 1810.5,339.02 1842.6,1052.17 
  1874.71,323.238 1906.81,1036.39 1938.92,307.457 1971.03,1020.61 2003.13,291.675 2035.24,1004.83 2067.34,275.893 2099.45,989.047 2131.55,260.112 2163.66,973.266 
  2195.76,244.33 2227.87,957.484 2259.97,228.549 2292.08,941.702 
  "/>
<circle clip-path="url(#clip4002)" cx="269.449" cy="1446.71" r="10" fill="#e26f46" fill-rule="evenodd" fill-opacity="1" stroke="#000000" stroke-opacity="1" stroke-width="3.2"/>
<circle clip-path="url(#clip4002)" cx="301.554" cy="1430.93" r="10" fill="#e26f46" fill-rule="evenodd" fill-opacity="1" stroke="#000000" stroke-opacity="1" stroke-width="3.2"/>
<circle clip-path="url(#clip4002)" cx="333.66" cy="701.996" r="10" fill="#e26f46" fill-rule="evenodd" fill-opacity="1" stroke="#000000" stroke-opacity="1" stroke-width="3.2"/>
<circle clip-path="url(#clip4002)" cx="365.765" cy="1415.15" r="10" fill="#e26f46" fill-rule="evenodd" fill-opacity="1" stroke="#000000" stroke-opacity="1" stroke-width="3.2"/>
<circle clip-path="url(#clip4002)" cx="397.87" cy="686.215" r="10" fill="#e26f46" fill-rule="evenodd" fill-opacity="1" stroke="#000000" stroke-opacity="1" stroke-width="3.2"/>
<circle clip-path="url(#clip4002)" cx="429.975" cy="1399.37" r="10" fill="#e26f46" fill-rule="evenodd" fill-opacity="1" stroke="#000000" stroke-opacity="1" stroke-width="3.2"/>
<circle clip-path="url(#clip4002)" cx="462.08" cy="670.433" r="10" fill="#e26f46" fill-rule="evenodd" fill-opacity="1" stroke="#000000" stroke-opacity="1" stroke-width="3.2"/>
<circle clip-path="url(#clip4002)" cx="494.186" cy="1383.59" r="10" fill="#e26f46" fill-rule="evenodd" fill-opacity="1" stroke="#000000" stroke-opacity="1" stroke-width="3.2"/>
<circle clip-path="url(#clip4002)" cx="526.291" cy="654.652" r="10" fill="#e26f46" fill-rule="evenodd" fill-opacity="1" stroke="#000000" stroke-opacity="1" stroke-width="3.2"/>
<circle clip-path="url(#clip4002)" cx="558.396" cy="1367.81" r="10" fill="#e26f46" fill-rule="evenodd" fill-opacity="1" stroke="#000000" stroke-opacity="1" stroke-width="3.2"/>
<circle clip-path="url(#clip4002)" cx="590.501" cy="638.87" r="10" fill="#e26f46" fill-rule="evenodd" fill-opacity="1" stroke="#000000" stroke-opacity="1" stroke-width="3.2"/>
<circle clip-path="url(#clip4002)" cx="622.606" cy="1352.02" r="10" fill="#e26f46" fill-rule="evenodd" fill-opacity="1" stroke="#000000" stroke-opacity="1" stroke-width="3.2"/>
<circle clip-path="url(#clip4002)" cx="654.712" cy="623.089" r="10" fill="#e26f46" fill-rule="evenodd" fill-opacity="1" stroke="#000000" stroke-opacity="1" stroke-width="3.2"/>
<circle clip-path="url(#clip4002)" cx="686.817" cy="1336.24" r="10" fill="#e26f46" fill-rule="evenodd" fill-opacity="1" stroke="#000000" stroke-opacity="1" stroke-width="3.2"/>
<circle clip-path="url(#clip4002)" cx="718.922" cy="607.307" r="10" fill="#e26f46" fill-rule="evenodd" fill-opacity="1" stroke="#000000" stroke-opacity="1" stroke-width="3.2"/>
<circle clip-path="url(#clip4002)" cx="751.027" cy="1320.46" r="10" fill="#e26f46" fill-rule="evenodd" fill-opacity="1" stroke="#000000" stroke-opacity="1" stroke-width="3.2"/>
<circle clip-path="url(#clip4002)" cx="783.132" cy="591.525" r="10" fill="#e26f46" fill-rule="evenodd" fill-opacity="1" stroke="#000000" stroke-opacity="1" stroke-width="3.2"/>
<circle clip-path="url(#clip4002)" cx="815.238" cy="1304.68" r="10" fill="#e26f46" fill-rule="evenodd" fill-opacity="1" stroke="#000000" stroke-opacity="1" stroke-width="3.2"/>
<circle clip-path="url(#clip4002)" cx="847.343" cy="575.744" r="10" fill="#e26f46" fill-rule="evenodd" fill-opacity="1" stroke="#000000" stroke-opacity="1" stroke-width="3.2"/>
<circle clip-path="url(#clip4002)" cx="879.448" cy="1288.9" r="10" fill="#e26f46" fill-rule="evenodd" fill-opacity="1" stroke="#000000" stroke-opacity="1" stroke-width="3.2"/>
<circle clip-path="url(#clip4002)" cx="911.553" cy="559.962" r="10" fill="#e26f46" fill-rule="evenodd" fill-opacity="1" stroke="#000000" stroke-opacity="1" stroke-width="3.2"/>
<circle clip-path="url(#clip4002)" cx="943.659" cy="1273.12" r="10" fill="#e26f46" fill-rule="evenodd" fill-opacity="1" stroke="#000000" stroke-opacity="1" stroke-width="3.2"/>
<circle clip-path="url(#clip4002)" cx="975.764" cy="544.181" r="10" fill="#e26f46" fill-rule="evenodd" fill-opacity="1" stroke="#000000" stroke-opacity="1" stroke-width="3.2"/>
<circle clip-path="url(#clip4002)" cx="1007.87" cy="1257.33" r="10" fill="#e26f46" fill-rule="evenodd" fill-opacity="1" stroke="#000000" stroke-opacity="1" stroke-width="3.2"/>
<circle clip-path="url(#clip4002)" cx="1039.97" cy="528.399" r="10" fill="#e26f46" fill-rule="evenodd" fill-opacity="1" stroke="#000000" stroke-opacity="1" stroke-width="3.2"/>
<circle clip-path="url(#clip4002)" cx="1072.08" cy="1241.55" r="10" fill="#e26f46" fill-rule="evenodd" fill-opacity="1" stroke="#000000" stroke-opacity="1" stroke-width="3.2"/>
<circle clip-path="url(#clip4002)" cx="1104.18" cy="512.617" r="10" fill="#e26f46" fill-rule="evenodd" fill-opacity="1" stroke="#000000" stroke-opacity="1" stroke-width="3.2"/>
<circle clip-path="url(#clip4002)" cx="1136.29" cy="1225.77" r="10" fill="#e26f46" fill-rule="evenodd" fill-opacity="1" stroke="#000000" stroke-opacity="1" stroke-width="3.2"/>
<circle clip-path="url(#clip4002)" cx="1168.39" cy="496.836" r="10" fill="#e26f46" fill-rule="evenodd" fill-opacity="1" stroke="#000000" stroke-opacity="1" stroke-width="3.2"/>
<circle clip-path="url(#clip4002)" cx="1200.5" cy="1209.99" r="10" fill="#e26f46" fill-rule="evenodd" fill-opacity="1" stroke="#000000" stroke-opacity="1" stroke-width="3.2"/>
<circle clip-path="url(#clip4002)" cx="1232.61" cy="481.054" r="10" fill="#e26f46" fill-rule="evenodd" fill-opacity="1" stroke="#000000" stroke-opacity="1" stroke-width="3.2"/>
<circle clip-path="url(#clip4002)" cx="1264.71" cy="1194.21" r="10" fill="#e26f46" fill-rule="evenodd" fill-opacity="1" stroke="#000000" stroke-opacity="1" stroke-width="3.2"/>
<circle clip-path="url(#clip4002)" cx="1296.82" cy="465.273" r="10" fill="#e26f46" fill-rule="evenodd" fill-opacity="1" stroke="#000000" stroke-opacity="1" stroke-width="3.2"/>
<circle clip-path="url(#clip4002)" cx="1328.92" cy="1178.43" r="10" fill="#e26f46" fill-rule="evenodd" fill-opacity="1" stroke="#000000" stroke-opacity="1" stroke-width="3.2"/>
<circle clip-path="url(#clip4002)" cx="1361.03" cy="449.491" r="10" fill="#e26f46" fill-rule="evenodd" fill-opacity="1" stroke="#000000" stroke-opacity="1" stroke-width="3.2"/>
<circle clip-path="url(#clip4002)" cx="1393.13" cy="1162.64" r="10" fill="#e26f46" fill-rule="evenodd" fill-opacity="1" stroke="#000000" stroke-opacity="1" stroke-width="3.2"/>
<circle clip-path="url(#clip4002)" cx="1425.24" cy="433.709" r="10" fill="#e26f46" fill-rule="evenodd" fill-opacity="1" stroke="#000000" stroke-opacity="1" stroke-width="3.2"/>
<circle clip-path="url(#clip4002)" cx="1457.34" cy="1146.86" r="10" fill="#e26f46" fill-rule="evenodd" fill-opacity="1" stroke="#000000" stroke-opacity="1" stroke-width="3.2"/>
<circle clip-path="url(#clip4002)" cx="1489.45" cy="417.928" r="10" fill="#e26f46" fill-rule="evenodd" fill-opacity="1" stroke="#000000" stroke-opacity="1" stroke-width="3.2"/>
<circle clip-path="url(#clip4002)" cx="1521.55" cy="1131.08" r="10" fill="#e26f46" fill-rule="evenodd" fill-opacity="1" stroke="#000000" stroke-opacity="1" stroke-width="3.2"/>
<circle clip-path="url(#clip4002)" cx="1553.66" cy="402.146" r="10" fill="#e26f46" fill-rule="evenodd" fill-opacity="1" stroke="#000000" stroke-opacity="1" stroke-width="3.2"/>
<circle clip-path="url(#clip4002)" cx="1585.76" cy="1115.3" r="10" fill="#e26f46" fill-rule="evenodd" fill-opacity="1" stroke="#000000" stroke-opacity="1" stroke-width="3.2"/>
<circle clip-path="url(#clip4002)" cx="1617.87" cy="386.365" r="10" fill="#e26f46" fill-rule="evenodd" fill-opacity="1" stroke="#000000" stroke-opacity="1" stroke-width="3.2"/>
<circle clip-path="url(#clip4002)" cx="1649.97" cy="1099.52" r="10" fill="#e26f46" fill-rule="evenodd" fill-opacity="1" stroke="#000000" stroke-opacity="1" stroke-width="3.2"/>
<circle clip-path="url(#clip4002)" cx="1682.08" cy="370.583" r="10" fill="#e26f46" fill-rule="evenodd" fill-opacity="1" stroke="#000000" stroke-opacity="1" stroke-width="3.2"/>
<circle clip-path="url(#clip4002)" cx="1714.18" cy="1083.74" r="10" fill="#e26f46" fill-rule="evenodd" fill-opacity="1" stroke="#000000" stroke-opacity="1" stroke-width="3.2"/>
<circle clip-path="url(#clip4002)" cx="1746.29" cy="354.801" r="10" fill="#e26f46" fill-rule="evenodd" fill-opacity="1" stroke="#000000" stroke-opacity="1" stroke-width="3.2"/>
<circle clip-path="url(#clip4002)" cx="1778.39" cy="1067.96" r="10" fill="#e26f46" fill-rule="evenodd" fill-opacity="1" stroke="#000000" stroke-opacity="1" stroke-width="3.2"/>
<circle clip-path="url(#clip4002)" cx="1810.5" cy="339.02" r="10" fill="#e26f46" fill-rule="evenodd" fill-opacity="1" stroke="#000000" stroke-opacity="1" stroke-width="3.2"/>
<circle clip-path="url(#clip4002)" cx="1842.6" cy="1052.17" r="10" fill="#e26f46" fill-rule="evenodd" fill-opacity="1" stroke="#000000" stroke-opacity="1" stroke-width="3.2"/>
<circle clip-path="url(#clip4002)" cx="1874.71" cy="323.238" r="10" fill="#e26f46" fill-rule="evenodd" fill-opacity="1" stroke="#000000" stroke-opacity="1" stroke-width="3.2"/>
<circle clip-path="url(#clip4002)" cx="1906.81" cy="1036.39" r="10" fill="#e26f46" fill-rule="evenodd" fill-opacity="1" stroke="#000000" stroke-opacity="1" stroke-width="3.2"/>
<circle clip-path="url(#clip4002)" cx="1938.92" cy="307.457" r="10" fill="#e26f46" fill-rule="evenodd" fill-opacity="1" stroke="#000000" stroke-opacity="1" stroke-width="3.2"/>
<circle clip-path="url(#clip4002)" cx="1971.03" cy="1020.61" r="10" fill="#e26f46" fill-rule="evenodd" fill-opacity="1" stroke="#000000" stroke-opacity="1" stroke-width="3.2"/>
<circle clip-path="url(#clip4002)" cx="2003.13" cy="291.675" r="10" fill="#e26f46" fill-rule="evenodd" fill-opacity="1" stroke="#000000" stroke-opacity="1" stroke-width="3.2"/>
<circle clip-path="url(#clip4002)" cx="2035.24" cy="1004.83" r="10" fill="#e26f46" fill-rule="evenodd" fill-opacity="1" stroke="#000000" stroke-opacity="1" stroke-width="3.2"/>
<circle clip-path="url(#clip4002)" cx="2067.34" cy="275.893" r="10" fill="#e26f46" fill-rule="evenodd" fill-opacity="1" stroke="#000000" stroke-opacity="1" stroke-width="3.2"/>
<circle clip-path="url(#clip4002)" cx="2099.45" cy="989.047" r="10" fill="#e26f46" fill-rule="evenodd" fill-opacity="1" stroke="#000000" stroke-opacity="1" stroke-width="3.2"/>
<circle clip-path="url(#clip4002)" cx="2131.55" cy="260.112" r="10" fill="#e26f46" fill-rule="evenodd" fill-opacity="1" stroke="#000000" stroke-opacity="1" stroke-width="3.2"/>
<circle clip-path="url(#clip4002)" cx="2163.66" cy="973.266" r="10" fill="#e26f46" fill-rule="evenodd" fill-opacity="1" stroke="#000000" stroke-opacity="1" stroke-width="3.2"/>
<circle clip-path="url(#clip4002)" cx="2195.76" cy="244.33" r="10" fill="#e26f46" fill-rule="evenodd" fill-opacity="1" stroke="#000000" stroke-opacity="1" stroke-width="3.2"/>
<circle clip-path="url(#clip4002)" cx="2227.87" cy="957.484" r="10" fill="#e26f46" fill-rule="evenodd" fill-opacity="1" stroke="#000000" stroke-opacity="1" stroke-width="3.2"/>
<circle clip-path="url(#clip4002)" cx="2259.97" cy="228.549" r="10" fill="#e26f46" fill-rule="evenodd" fill-opacity="1" stroke="#000000" stroke-opacity="1" stroke-width="3.2"/>
<circle clip-path="url(#clip4002)" cx="2292.08" cy="941.702" r="10" fill="#e26f46" fill-rule="evenodd" fill-opacity="1" stroke="#000000" stroke-opacity="1" stroke-width="3.2"/>
<path clip-path="url(#clip4000)" d="
M1971.25 312.204 L2280.76 312.204 L2280.76 130.764 L1971.25 130.764  Z
  " fill="#ffffff" fill-rule="evenodd" fill-opacity="1"/>
<polyline clip-path="url(#clip4000)" style="stroke:#000000; stroke-width:4; stroke-opacity:1; fill:none" points="
  1971.25,312.204 2280.76,312.204 2280.76,130.764 1971.25,130.764 1971.25,312.204 
  "/>
<polyline clip-path="url(#clip4000)" style="stroke:#009af9; stroke-width:4; stroke-opacity:1; fill:none" points="
  1995.25,191.244 2139.25,191.244 
  "/>
<circle clip-path="url(#clip4000)" cx="2079.25" cy="191.244" r="21" fill="#009af9" fill-rule="evenodd" fill-opacity="1" stroke="#000000" stroke-opacity="1" stroke-width="3.2"/>
<g clip-path="url(#clip4000)">
<text style="fill:#000000; fill-opacity:1; font-family:Arial,Helvetica Neue,Helvetica,sans-serif; font-size:48px; text-anchor:start;" transform="rotate(0, 2163.25, 208.744)" x="2163.25" y="208.744">r(t)</text>
</g>
<polyline clip-path="url(#clip4000)" style="stroke:#e26f46; stroke-width:4; stroke-opacity:1; fill:none" points="
  1995.25,251.724 2139.25,251.724 
  "/>
<circle clip-path="url(#clip4000)" cx="2079.25" cy="251.724" r="21" fill="#e26f46" fill-rule="evenodd" fill-opacity="1" stroke="#000000" stroke-opacity="1" stroke-width="3.2"/>
<g clip-path="url(#clip4000)">
<text style="fill:#000000; fill-opacity:1; font-family:Arial,Helvetica Neue,Helvetica,sans-serif; font-size:48px; text-anchor:start;" transform="rotate(0, 2163.25, 269.224)" x="2163.25" y="269.224">y(t)</text>
</g>
</svg>
