<?xml version="1.0" encoding="utf-8" standalone="no"?>
<!DOCTYPE svg PUBLIC "-//W3C//DTD SVG 1.1//EN"
  "http://www.w3.org/Graphics/SVG/1.1/DTD/svg11.dtd">
<!-- Created with matplotlib (https://matplotlib.org/) -->
<svg height="288pt" version="1.1" viewBox="0 0 432 288" width="432pt" xmlns="http://www.w3.org/2000/svg" xmlns:xlink="http://www.w3.org/1999/xlink">
 <defs>
  <style type="text/css">
*{stroke-linecap:butt;stroke-linejoin:round;}
  </style>
 </defs>
 <g id="figure_1">
  <g id="patch_1">
   <path d="M 0 288 
L 432 288 
L 432 0 
L 0 0 
z
" style="fill:#ffffff;"/>
  </g>
  <g id="axes_1">
   <g id="patch_2">
    <path d="M 21.994646 274.465354 
L 425.967767 274.465354 
L 425.967767 2.834646 
L 21.994646 2.834646 
z
" style="fill:#ffffff;"/>
   </g>
   <g id="matplotlib.axis_1">
    <g id="xtick_1">
     <g id="line2d_1">
      <path clip-path="url(#p27198dad70)" d="M 33.427847 274.465354 
L 33.427847 2.834646 
" style="fill:none;stroke:#000000;stroke-linecap:square;stroke-opacity:0.1;stroke-width:0.5;"/>
     </g>
     <g id="line2d_2">
      <defs>
       <path d="M 0 0 
L 0 -3.5 
" id="mbc30e3b8eb" style="stroke:#000000;stroke-width:0.8;"/>
      </defs>
      <g>
       <use style="stroke:#000000;stroke-width:0.8;" x="33.427847" xlink:href="#mbc30e3b8eb" y="274.465354"/>
      </g>
     </g>
     <g id="text_1">
      <!-- 0.00 -->
      <defs>
       <path d="M 31.78125 66.40625 
Q 24.171875 66.40625 20.328125 58.90625 
Q 16.5 51.421875 16.5 36.375 
Q 16.5 21.390625 20.328125 13.890625 
Q 24.171875 6.390625 31.78125 6.390625 
Q 39.453125 6.390625 43.28125 13.890625 
Q 47.125 21.390625 47.125 36.375 
Q 47.125 51.421875 43.28125 58.90625 
Q 39.453125 66.40625 31.78125 66.40625 
z
M 31.78125 74.21875 
Q 44.046875 74.21875 50.515625 64.515625 
Q 56.984375 54.828125 56.984375 36.375 
Q 56.984375 17.96875 50.515625 8.265625 
Q 44.046875 -1.421875 31.78125 -1.421875 
Q 19.53125 -1.421875 13.0625 8.265625 
Q 6.59375 17.96875 6.59375 36.375 
Q 6.59375 54.828125 13.0625 64.515625 
Q 19.53125 74.21875 31.78125 74.21875 
z
" id="DejaVuSans-48"/>
       <path d="M 10.6875 12.40625 
L 21 12.40625 
L 21 0 
L 10.6875 0 
z
" id="DejaVuSans-46"/>
      </defs>
      <g transform="translate(24.521597 284.044104)scale(0.08 -0.08)">
       <use xlink:href="#DejaVuSans-48"/>
       <use x="63.623047" xlink:href="#DejaVuSans-46"/>
       <use x="95.410156" xlink:href="#DejaVuSans-48"/>
       <use x="159.033203" xlink:href="#DejaVuSans-48"/>
      </g>
     </g>
    </g>
    <g id="xtick_2">
     <g id="line2d_3">
      <path clip-path="url(#p27198dad70)" d="M 130.216855 274.465354 
L 130.216855 2.834646 
" style="fill:none;stroke:#000000;stroke-linecap:square;stroke-opacity:0.1;stroke-width:0.5;"/>
     </g>
     <g id="line2d_4">
      <g>
       <use style="stroke:#000000;stroke-width:0.8;" x="130.216855" xlink:href="#mbc30e3b8eb" y="274.465354"/>
      </g>
     </g>
     <g id="text_2">
      <!-- 0.25 -->
      <defs>
       <path d="M 19.1875 8.296875 
L 53.609375 8.296875 
L 53.609375 0 
L 7.328125 0 
L 7.328125 8.296875 
Q 12.9375 14.109375 22.625 23.890625 
Q 32.328125 33.6875 34.8125 36.53125 
Q 39.546875 41.84375 41.421875 45.53125 
Q 43.3125 49.21875 43.3125 52.78125 
Q 43.3125 58.59375 39.234375 62.25 
Q 35.15625 65.921875 28.609375 65.921875 
Q 23.96875 65.921875 18.8125 64.3125 
Q 13.671875 62.703125 7.8125 59.421875 
L 7.8125 69.390625 
Q 13.765625 71.78125 18.9375 73 
Q 24.125 74.21875 28.421875 74.21875 
Q 39.75 74.21875 46.484375 68.546875 
Q 53.21875 62.890625 53.21875 53.421875 
Q 53.21875 48.921875 51.53125 44.890625 
Q 49.859375 40.875 45.40625 35.40625 
Q 44.1875 33.984375 37.640625 27.21875 
Q 31.109375 20.453125 19.1875 8.296875 
z
" id="DejaVuSans-50"/>
       <path d="M 10.796875 72.90625 
L 49.515625 72.90625 
L 49.515625 64.59375 
L 19.828125 64.59375 
L 19.828125 46.734375 
Q 21.96875 47.46875 24.109375 47.828125 
Q 26.265625 48.1875 28.421875 48.1875 
Q 40.625 48.1875 47.75 41.5 
Q 54.890625 34.8125 54.890625 23.390625 
Q 54.890625 11.625 47.5625 5.09375 
Q 40.234375 -1.421875 26.90625 -1.421875 
Q 22.3125 -1.421875 17.546875 -0.640625 
Q 12.796875 0.140625 7.71875 1.703125 
L 7.71875 11.625 
Q 12.109375 9.234375 16.796875 8.0625 
Q 21.484375 6.890625 26.703125 6.890625 
Q 35.15625 6.890625 40.078125 11.328125 
Q 45.015625 15.765625 45.015625 23.390625 
Q 45.015625 31 40.078125 35.4375 
Q 35.15625 39.890625 26.703125 39.890625 
Q 22.75 39.890625 18.8125 39.015625 
Q 14.890625 38.140625 10.796875 36.28125 
z
" id="DejaVuSans-53"/>
      </defs>
      <g transform="translate(121.310605 284.044104)scale(0.08 -0.08)">
       <use xlink:href="#DejaVuSans-48"/>
       <use x="63.623047" xlink:href="#DejaVuSans-46"/>
       <use x="95.410156" xlink:href="#DejaVuSans-50"/>
       <use x="159.033203" xlink:href="#DejaVuSans-53"/>
      </g>
     </g>
    </g>
    <g id="xtick_3">
     <g id="line2d_5">
      <path clip-path="url(#p27198dad70)" d="M 227.005863 274.465354 
L 227.005863 2.834646 
" style="fill:none;stroke:#000000;stroke-linecap:square;stroke-opacity:0.1;stroke-width:0.5;"/>
     </g>
     <g id="line2d_6">
      <g>
       <use style="stroke:#000000;stroke-width:0.8;" x="227.005863" xlink:href="#mbc30e3b8eb" y="274.465354"/>
      </g>
     </g>
     <g id="text_3">
      <!-- 0.50 -->
      <g transform="translate(218.099613 284.044104)scale(0.08 -0.08)">
       <use xlink:href="#DejaVuSans-48"/>
       <use x="63.623047" xlink:href="#DejaVuSans-46"/>
       <use x="95.410156" xlink:href="#DejaVuSans-53"/>
       <use x="159.033203" xlink:href="#DejaVuSans-48"/>
      </g>
     </g>
    </g>
    <g id="xtick_4">
     <g id="line2d_7">
      <path clip-path="url(#p27198dad70)" d="M 323.79487 274.465354 
L 323.79487 2.834646 
" style="fill:none;stroke:#000000;stroke-linecap:square;stroke-opacity:0.1;stroke-width:0.5;"/>
     </g>
     <g id="line2d_8">
      <g>
       <use style="stroke:#000000;stroke-width:0.8;" x="323.79487" xlink:href="#mbc30e3b8eb" y="274.465354"/>
      </g>
     </g>
     <g id="text_4">
      <!-- 0.75 -->
      <defs>
       <path d="M 8.203125 72.90625 
L 55.078125 72.90625 
L 55.078125 68.703125 
L 28.609375 0 
L 18.3125 0 
L 43.21875 64.59375 
L 8.203125 64.59375 
z
" id="DejaVuSans-55"/>
      </defs>
      <g transform="translate(314.88862 284.044104)scale(0.08 -0.08)">
       <use xlink:href="#DejaVuSans-48"/>
       <use x="63.623047" xlink:href="#DejaVuSans-46"/>
       <use x="95.410156" xlink:href="#DejaVuSans-55"/>
       <use x="159.033203" xlink:href="#DejaVuSans-53"/>
      </g>
     </g>
    </g>
    <g id="xtick_5">
     <g id="line2d_9">
      <path clip-path="url(#p27198dad70)" d="M 420.583878 274.465354 
L 420.583878 2.834646 
" style="fill:none;stroke:#000000;stroke-linecap:square;stroke-opacity:0.1;stroke-width:0.5;"/>
     </g>
     <g id="line2d_10">
      <g>
       <use style="stroke:#000000;stroke-width:0.8;" x="420.583878" xlink:href="#mbc30e3b8eb" y="274.465354"/>
      </g>
     </g>
     <g id="text_5">
      <!-- 1.00 -->
      <defs>
       <path d="M 12.40625 8.296875 
L 28.515625 8.296875 
L 28.515625 63.921875 
L 10.984375 60.40625 
L 10.984375 69.390625 
L 28.421875 72.90625 
L 38.28125 72.90625 
L 38.28125 8.296875 
L 54.390625 8.296875 
L 54.390625 0 
L 12.40625 0 
z
" id="DejaVuSans-49"/>
      </defs>
      <g transform="translate(411.677628 284.044104)scale(0.08 -0.08)">
       <use xlink:href="#DejaVuSans-49"/>
       <use x="63.623047" xlink:href="#DejaVuSans-46"/>
       <use x="95.410156" xlink:href="#DejaVuSans-48"/>
       <use x="159.033203" xlink:href="#DejaVuSans-48"/>
      </g>
     </g>
    </g>
   </g>
   <g id="matplotlib.axis_2">
    <g id="ytick_1">
     <g id="line2d_11">
      <path clip-path="url(#p27198dad70)" d="M 21.994646 237.563524 
L 425.967767 237.563524 
" style="fill:none;stroke:#000000;stroke-linecap:square;stroke-opacity:0.1;stroke-width:0.5;"/>
     </g>
     <g id="line2d_12">
      <defs>
       <path d="M 0 0 
L 3.5 0 
" id="m8e1c864f67" style="stroke:#000000;stroke-width:0.8;"/>
      </defs>
      <g>
       <use style="stroke:#000000;stroke-width:0.8;" x="21.994646" xlink:href="#m8e1c864f67" y="237.563524"/>
      </g>
     </g>
     <g id="text_6">
      <!-- -0.3 -->
      <defs>
       <path d="M 4.890625 31.390625 
L 31.203125 31.390625 
L 31.203125 23.390625 
L 4.890625 23.390625 
z
" id="DejaVuSans-45"/>
       <path d="M 40.578125 39.3125 
Q 47.65625 37.796875 51.625 33 
Q 55.609375 28.21875 55.609375 21.1875 
Q 55.609375 10.40625 48.1875 4.484375 
Q 40.765625 -1.421875 27.09375 -1.421875 
Q 22.515625 -1.421875 17.65625 -0.515625 
Q 12.796875 0.390625 7.625 2.203125 
L 7.625 11.71875 
Q 11.71875 9.328125 16.59375 8.109375 
Q 21.484375 6.890625 26.8125 6.890625 
Q 36.078125 6.890625 40.9375 10.546875 
Q 45.796875 14.203125 45.796875 21.1875 
Q 45.796875 27.640625 41.28125 31.265625 
Q 36.765625 34.90625 28.71875 34.90625 
L 20.21875 34.90625 
L 20.21875 43.015625 
L 29.109375 43.015625 
Q 36.375 43.015625 40.234375 45.921875 
Q 44.09375 48.828125 44.09375 54.296875 
Q 44.09375 59.90625 40.109375 62.90625 
Q 36.140625 65.921875 28.71875 65.921875 
Q 24.65625 65.921875 20.015625 65.03125 
Q 15.375 64.15625 9.8125 62.3125 
L 9.8125 71.09375 
Q 15.4375 72.65625 20.34375 73.4375 
Q 25.25 74.21875 29.59375 74.21875 
Q 40.828125 74.21875 47.359375 69.109375 
Q 53.90625 64.015625 53.90625 55.328125 
Q 53.90625 49.265625 50.4375 45.09375 
Q 46.96875 40.921875 40.578125 39.3125 
z
" id="DejaVuSans-51"/>
      </defs>
      <g transform="translate(2.885896 240.602899)scale(0.08 -0.08)">
       <use xlink:href="#DejaVuSans-45"/>
       <use x="36.083984" xlink:href="#DejaVuSans-48"/>
       <use x="99.707031" xlink:href="#DejaVuSans-46"/>
       <use x="131.494141" xlink:href="#DejaVuSans-51"/>
      </g>
     </g>
    </g>
    <g id="ytick_2">
     <g id="line2d_13">
      <path clip-path="url(#p27198dad70)" d="M 21.994646 184.531999 
L 425.967767 184.531999 
" style="fill:none;stroke:#000000;stroke-linecap:square;stroke-opacity:0.1;stroke-width:0.5;"/>
     </g>
     <g id="line2d_14">
      <g>
       <use style="stroke:#000000;stroke-width:0.8;" x="21.994646" xlink:href="#m8e1c864f67" y="184.531999"/>
      </g>
     </g>
     <g id="text_7">
      <!-- 0.0 -->
      <g transform="translate(5.772146 187.571374)scale(0.08 -0.08)">
       <use xlink:href="#DejaVuSans-48"/>
       <use x="63.623047" xlink:href="#DejaVuSans-46"/>
       <use x="95.410156" xlink:href="#DejaVuSans-48"/>
      </g>
     </g>
    </g>
    <g id="ytick_3">
     <g id="line2d_15">
      <path clip-path="url(#p27198dad70)" d="M 21.994646 131.500474 
L 425.967767 131.500474 
" style="fill:none;stroke:#000000;stroke-linecap:square;stroke-opacity:0.1;stroke-width:0.5;"/>
     </g>
     <g id="line2d_16">
      <g>
       <use style="stroke:#000000;stroke-width:0.8;" x="21.994646" xlink:href="#m8e1c864f67" y="131.500474"/>
      </g>
     </g>
     <g id="text_8">
      <!-- 0.3 -->
      <g transform="translate(5.772146 134.539849)scale(0.08 -0.08)">
       <use xlink:href="#DejaVuSans-48"/>
       <use x="63.623047" xlink:href="#DejaVuSans-46"/>
       <use x="95.410156" xlink:href="#DejaVuSans-51"/>
      </g>
     </g>
    </g>
    <g id="ytick_4">
     <g id="line2d_17">
      <path clip-path="url(#p27198dad70)" d="M 21.994646 78.468949 
L 425.967767 78.468949 
" style="fill:none;stroke:#000000;stroke-linecap:square;stroke-opacity:0.1;stroke-width:0.5;"/>
     </g>
     <g id="line2d_18">
      <g>
       <use style="stroke:#000000;stroke-width:0.8;" x="21.994646" xlink:href="#m8e1c864f67" y="78.468949"/>
      </g>
     </g>
     <g id="text_9">
      <!-- 0.6 -->
      <defs>
       <path d="M 33.015625 40.375 
Q 26.375 40.375 22.484375 35.828125 
Q 18.609375 31.296875 18.609375 23.390625 
Q 18.609375 15.53125 22.484375 10.953125 
Q 26.375 6.390625 33.015625 6.390625 
Q 39.65625 6.390625 43.53125 10.953125 
Q 47.40625 15.53125 47.40625 23.390625 
Q 47.40625 31.296875 43.53125 35.828125 
Q 39.65625 40.375 33.015625 40.375 
z
M 52.59375 71.296875 
L 52.59375 62.3125 
Q 48.875 64.0625 45.09375 64.984375 
Q 41.3125 65.921875 37.59375 65.921875 
Q 27.828125 65.921875 22.671875 59.328125 
Q 17.53125 52.734375 16.796875 39.40625 
Q 19.671875 43.65625 24.015625 45.921875 
Q 28.375 48.1875 33.59375 48.1875 
Q 44.578125 48.1875 50.953125 41.515625 
Q 57.328125 34.859375 57.328125 23.390625 
Q 57.328125 12.15625 50.6875 5.359375 
Q 44.046875 -1.421875 33.015625 -1.421875 
Q 20.359375 -1.421875 13.671875 8.265625 
Q 6.984375 17.96875 6.984375 36.375 
Q 6.984375 53.65625 15.1875 63.9375 
Q 23.390625 74.21875 37.203125 74.21875 
Q 40.921875 74.21875 44.703125 73.484375 
Q 48.484375 72.75 52.59375 71.296875 
z
" id="DejaVuSans-54"/>
      </defs>
      <g transform="translate(5.772146 81.508324)scale(0.08 -0.08)">
       <use xlink:href="#DejaVuSans-48"/>
       <use x="63.623047" xlink:href="#DejaVuSans-46"/>
       <use x="95.410156" xlink:href="#DejaVuSans-54"/>
      </g>
     </g>
    </g>
    <g id="ytick_5">
     <g id="line2d_19">
      <path clip-path="url(#p27198dad70)" d="M 21.994646 25.437424 
L 425.967767 25.437424 
" style="fill:none;stroke:#000000;stroke-linecap:square;stroke-opacity:0.1;stroke-width:0.5;"/>
     </g>
     <g id="line2d_20">
      <g>
       <use style="stroke:#000000;stroke-width:0.8;" x="21.994646" xlink:href="#m8e1c864f67" y="25.437424"/>
      </g>
     </g>
     <g id="text_10">
      <!-- 0.9 -->
      <defs>
       <path d="M 10.984375 1.515625 
L 10.984375 10.5 
Q 14.703125 8.734375 18.5 7.8125 
Q 22.3125 6.890625 25.984375 6.890625 
Q 35.75 6.890625 40.890625 13.453125 
Q 46.046875 20.015625 46.78125 33.40625 
Q 43.953125 29.203125 39.59375 26.953125 
Q 35.25 24.703125 29.984375 24.703125 
Q 19.046875 24.703125 12.671875 31.3125 
Q 6.296875 37.9375 6.296875 49.421875 
Q 6.296875 60.640625 12.9375 67.421875 
Q 19.578125 74.21875 30.609375 74.21875 
Q 43.265625 74.21875 49.921875 64.515625 
Q 56.59375 54.828125 56.59375 36.375 
Q 56.59375 19.140625 48.40625 8.859375 
Q 40.234375 -1.421875 26.421875 -1.421875 
Q 22.703125 -1.421875 18.890625 -0.6875 
Q 15.09375 0.046875 10.984375 1.515625 
z
M 30.609375 32.421875 
Q 37.25 32.421875 41.125 36.953125 
Q 45.015625 41.5 45.015625 49.421875 
Q 45.015625 57.28125 41.125 61.84375 
Q 37.25 66.40625 30.609375 66.40625 
Q 23.96875 66.40625 20.09375 61.84375 
Q 16.21875 57.28125 16.21875 49.421875 
Q 16.21875 41.5 20.09375 36.953125 
Q 23.96875 32.421875 30.609375 32.421875 
z
" id="DejaVuSans-57"/>
      </defs>
      <g transform="translate(5.772146 28.476799)scale(0.08 -0.08)">
       <use xlink:href="#DejaVuSans-48"/>
       <use x="63.623047" xlink:href="#DejaVuSans-46"/>
       <use x="95.410156" xlink:href="#DejaVuSans-57"/>
      </g>
     </g>
    </g>
   </g>
   <g id="line2d_21">
    <path clip-path="url(#p27198dad70)" d="M 33.427847 184.531999 
L 39.47716 181.76994 
L 45.526473 179.007882 
L 51.575786 176.245823 
L 57.625099 173.483765 
L 63.674412 170.721706 
L 69.723725 167.959647 
L 75.773038 165.197589 
L 81.822351 162.43553 
L 87.871664 159.673472 
L 93.920977 156.911413 
L 99.97029 154.149354 
L 106.019603 151.387296 
L 112.068916 148.625237 
L 118.118229 145.863179 
L 124.167542 143.10112 
L 130.216855 140.339061 
L 136.266168 137.577003 
L 142.315481 134.814944 
L 148.364794 132.052886 
L 154.414107 129.290827 
L 160.46342 126.528768 
L 166.512733 123.76671 
L 172.562046 121.004651 
L 178.611359 118.242593 
L 184.660672 115.480534 
L 190.709985 112.718475 
L 196.759298 109.956417 
L 202.808611 107.194358 
L 208.857924 104.4323 
L 214.907237 101.670241 
L 220.95655 98.908182 
L 227.005863 96.146124 
L 233.055176 93.384065 
L 239.104489 90.622007 
L 245.153802 87.859948 
L 251.203115 85.097889 
L 257.252428 82.335831 
L 263.301741 79.573772 
L 269.351054 76.811714 
L 275.400367 74.049655 
L 281.44968 71.287596 
L 287.498993 68.525538 
L 293.548306 65.763479 
L 299.597618 63.001421 
L 305.646931 60.239362 
L 311.696244 57.477303 
L 317.745557 54.715245 
L 323.79487 51.953186 
L 329.844183 49.191128 
L 335.893496 46.429069 
L 341.942809 43.66701 
L 347.992122 40.904952 
L 354.041435 38.142893 
L 360.090748 35.380835 
L 366.140061 32.618776 
L 372.189374 29.856717 
L 378.238687 27.094659 
L 384.288 24.3326 
L 390.337313 21.570542 
L 396.386626 18.808483 
L 402.435939 16.046424 
L 408.485252 13.284366 
L 414.534565 10.522307 
" style="fill:none;stroke:#009afa;stroke-linecap:round;"/>
   </g>
   <g id="PathCollection_1">
    <defs>
     <path d="M 0 0.5 
C 0.132602 0.5 0.25979 0.447317 0.353553 0.353553 
C 0.447317 0.25979 0.5 0.132602 0.5 0 
C 0.5 -0.132602 0.447317 -0.25979 0.353553 -0.353553 
C 0.25979 -0.447317 0.132602 -0.5 0 -0.5 
C -0.132602 -0.5 -0.25979 -0.447317 -0.353553 -0.353553 
C -0.447317 -0.25979 -0.5 -0.132602 -0.5 0 
C -0.5 0.132602 -0.447317 0.25979 -0.353553 0.353553 
C -0.25979 0.447317 -0.132602 0.5 0 0.5 
z
" id="m370ce61ea7" style="stroke:#000000;"/>
    </defs>
    <g clip-path="url(#p27198dad70)">
     <use style="fill:#009afa;stroke:#000000;" x="33.427847" xlink:href="#m370ce61ea7" y="184.531999"/>
     <use style="fill:#009afa;stroke:#000000;" x="39.47716" xlink:href="#m370ce61ea7" y="181.76994"/>
     <use style="fill:#009afa;stroke:#000000;" x="45.526473" xlink:href="#m370ce61ea7" y="179.007882"/>
     <use style="fill:#009afa;stroke:#000000;" x="51.575786" xlink:href="#m370ce61ea7" y="176.245823"/>
     <use style="fill:#009afa;stroke:#000000;" x="57.625099" xlink:href="#m370ce61ea7" y="173.483765"/>
     <use style="fill:#009afa;stroke:#000000;" x="63.674412" xlink:href="#m370ce61ea7" y="170.721706"/>
     <use style="fill:#009afa;stroke:#000000;" x="69.723725" xlink:href="#m370ce61ea7" y="167.959647"/>
     <use style="fill:#009afa;stroke:#000000;" x="75.773038" xlink:href="#m370ce61ea7" y="165.197589"/>
     <use style="fill:#009afa;stroke:#000000;" x="81.822351" xlink:href="#m370ce61ea7" y="162.43553"/>
     <use style="fill:#009afa;stroke:#000000;" x="87.871664" xlink:href="#m370ce61ea7" y="159.673472"/>
     <use style="fill:#009afa;stroke:#000000;" x="93.920977" xlink:href="#m370ce61ea7" y="156.911413"/>
     <use style="fill:#009afa;stroke:#000000;" x="99.97029" xlink:href="#m370ce61ea7" y="154.149354"/>
     <use style="fill:#009afa;stroke:#000000;" x="106.019603" xlink:href="#m370ce61ea7" y="151.387296"/>
     <use style="fill:#009afa;stroke:#000000;" x="112.068916" xlink:href="#m370ce61ea7" y="148.625237"/>
     <use style="fill:#009afa;stroke:#000000;" x="118.118229" xlink:href="#m370ce61ea7" y="145.863179"/>
     <use style="fill:#009afa;stroke:#000000;" x="124.167542" xlink:href="#m370ce61ea7" y="143.10112"/>
     <use style="fill:#009afa;stroke:#000000;" x="130.216855" xlink:href="#m370ce61ea7" y="140.339061"/>
     <use style="fill:#009afa;stroke:#000000;" x="136.266168" xlink:href="#m370ce61ea7" y="137.577003"/>
     <use style="fill:#009afa;stroke:#000000;" x="142.315481" xlink:href="#m370ce61ea7" y="134.814944"/>
     <use style="fill:#009afa;stroke:#000000;" x="148.364794" xlink:href="#m370ce61ea7" y="132.052886"/>
     <use style="fill:#009afa;stroke:#000000;" x="154.414107" xlink:href="#m370ce61ea7" y="129.290827"/>
     <use style="fill:#009afa;stroke:#000000;" x="160.46342" xlink:href="#m370ce61ea7" y="126.528768"/>
     <use style="fill:#009afa;stroke:#000000;" x="166.512733" xlink:href="#m370ce61ea7" y="123.76671"/>
     <use style="fill:#009afa;stroke:#000000;" x="172.562046" xlink:href="#m370ce61ea7" y="121.004651"/>
     <use style="fill:#009afa;stroke:#000000;" x="178.611359" xlink:href="#m370ce61ea7" y="118.242593"/>
     <use style="fill:#009afa;stroke:#000000;" x="184.660672" xlink:href="#m370ce61ea7" y="115.480534"/>
     <use style="fill:#009afa;stroke:#000000;" x="190.709985" xlink:href="#m370ce61ea7" y="112.718475"/>
     <use style="fill:#009afa;stroke:#000000;" x="196.759298" xlink:href="#m370ce61ea7" y="109.956417"/>
     <use style="fill:#009afa;stroke:#000000;" x="202.808611" xlink:href="#m370ce61ea7" y="107.194358"/>
     <use style="fill:#009afa;stroke:#000000;" x="208.857924" xlink:href="#m370ce61ea7" y="104.4323"/>
     <use style="fill:#009afa;stroke:#000000;" x="214.907237" xlink:href="#m370ce61ea7" y="101.670241"/>
     <use style="fill:#009afa;stroke:#000000;" x="220.95655" xlink:href="#m370ce61ea7" y="98.908182"/>
     <use style="fill:#009afa;stroke:#000000;" x="227.005863" xlink:href="#m370ce61ea7" y="96.146124"/>
     <use style="fill:#009afa;stroke:#000000;" x="233.055176" xlink:href="#m370ce61ea7" y="93.384065"/>
     <use style="fill:#009afa;stroke:#000000;" x="239.104489" xlink:href="#m370ce61ea7" y="90.622007"/>
     <use style="fill:#009afa;stroke:#000000;" x="245.153802" xlink:href="#m370ce61ea7" y="87.859948"/>
     <use style="fill:#009afa;stroke:#000000;" x="251.203115" xlink:href="#m370ce61ea7" y="85.097889"/>
     <use style="fill:#009afa;stroke:#000000;" x="257.252428" xlink:href="#m370ce61ea7" y="82.335831"/>
     <use style="fill:#009afa;stroke:#000000;" x="263.301741" xlink:href="#m370ce61ea7" y="79.573772"/>
     <use style="fill:#009afa;stroke:#000000;" x="269.351054" xlink:href="#m370ce61ea7" y="76.811714"/>
     <use style="fill:#009afa;stroke:#000000;" x="275.400367" xlink:href="#m370ce61ea7" y="74.049655"/>
     <use style="fill:#009afa;stroke:#000000;" x="281.44968" xlink:href="#m370ce61ea7" y="71.287596"/>
     <use style="fill:#009afa;stroke:#000000;" x="287.498993" xlink:href="#m370ce61ea7" y="68.525538"/>
     <use style="fill:#009afa;stroke:#000000;" x="293.548306" xlink:href="#m370ce61ea7" y="65.763479"/>
     <use style="fill:#009afa;stroke:#000000;" x="299.597618" xlink:href="#m370ce61ea7" y="63.001421"/>
     <use style="fill:#009afa;stroke:#000000;" x="305.646931" xlink:href="#m370ce61ea7" y="60.239362"/>
     <use style="fill:#009afa;stroke:#000000;" x="311.696244" xlink:href="#m370ce61ea7" y="57.477303"/>
     <use style="fill:#009afa;stroke:#000000;" x="317.745557" xlink:href="#m370ce61ea7" y="54.715245"/>
     <use style="fill:#009afa;stroke:#000000;" x="323.79487" xlink:href="#m370ce61ea7" y="51.953186"/>
     <use style="fill:#009afa;stroke:#000000;" x="329.844183" xlink:href="#m370ce61ea7" y="49.191128"/>
     <use style="fill:#009afa;stroke:#000000;" x="335.893496" xlink:href="#m370ce61ea7" y="46.429069"/>
     <use style="fill:#009afa;stroke:#000000;" x="341.942809" xlink:href="#m370ce61ea7" y="43.66701"/>
     <use style="fill:#009afa;stroke:#000000;" x="347.992122" xlink:href="#m370ce61ea7" y="40.904952"/>
     <use style="fill:#009afa;stroke:#000000;" x="354.041435" xlink:href="#m370ce61ea7" y="38.142893"/>
     <use style="fill:#009afa;stroke:#000000;" x="360.090748" xlink:href="#m370ce61ea7" y="35.380835"/>
     <use style="fill:#009afa;stroke:#000000;" x="366.140061" xlink:href="#m370ce61ea7" y="32.618776"/>
     <use style="fill:#009afa;stroke:#000000;" x="372.189374" xlink:href="#m370ce61ea7" y="29.856717"/>
     <use style="fill:#009afa;stroke:#000000;" x="378.238687" xlink:href="#m370ce61ea7" y="27.094659"/>
     <use style="fill:#009afa;stroke:#000000;" x="384.288" xlink:href="#m370ce61ea7" y="24.3326"/>
     <use style="fill:#009afa;stroke:#000000;" x="390.337313" xlink:href="#m370ce61ea7" y="21.570542"/>
     <use style="fill:#009afa;stroke:#000000;" x="396.386626" xlink:href="#m370ce61ea7" y="18.808483"/>
     <use style="fill:#009afa;stroke:#000000;" x="402.435939" xlink:href="#m370ce61ea7" y="16.046424"/>
     <use style="fill:#009afa;stroke:#000000;" x="408.485252" xlink:href="#m370ce61ea7" y="13.284366"/>
     <use style="fill:#009afa;stroke:#000000;" x="414.534565" xlink:href="#m370ce61ea7" y="10.522307"/>
    </g>
   </g>
   <g id="line2d_22">
    <path clip-path="url(#p27198dad70)" d="M 33.427847 266.777693 
L 39.47716 264.015634 
L 45.526473 99.524247 
L 51.575786 261.253576 
L 57.625099 96.762188 
L 63.674412 258.491517 
L 69.723725 94.00013 
L 75.773038 255.729458 
L 81.822351 91.238071 
L 87.871664 252.9674 
L 93.920977 88.476012 
L 99.97029 250.205341 
L 106.019603 85.713954 
L 112.068916 247.443283 
L 118.118229 82.951895 
L 124.167542 244.681224 
L 130.216855 80.189837 
L 136.266168 241.919165 
L 142.315481 77.427778 
L 148.364794 239.157107 
L 154.414107 74.665719 
L 160.46342 236.395048 
L 166.512733 71.903661 
L 172.562046 233.63299 
L 178.611359 69.141602 
L 184.660672 230.870931 
L 190.709985 66.379544 
L 196.759298 228.108872 
L 202.808611 63.617485 
L 208.857924 225.346814 
L 214.907237 60.855426 
L 220.95655 222.584755 
L 227.005863 58.093368 
L 233.055176 219.822697 
L 239.104489 55.331309 
L 245.153802 217.060638 
L 251.203115 52.569251 
L 257.252428 214.298579 
L 263.301741 49.807192 
L 269.351054 211.536521 
L 275.400367 47.045133 
L 281.44968 208.774462 
L 287.498993 44.283075 
L 293.548306 206.012404 
L 299.597618 41.521016 
L 305.646931 203.250345 
L 311.696244 38.758958 
L 317.745557 200.488286 
L 323.79487 35.996899 
L 329.844183 197.726228 
L 335.893496 33.23484 
L 341.942809 194.964169 
L 347.992122 30.472782 
L 354.041435 192.202111 
L 360.090748 27.710723 
L 366.140061 189.440052 
L 372.189374 24.948665 
L 378.238687 186.677993 
L 384.288 22.186606 
L 390.337313 183.915935 
L 396.386626 19.424547 
L 402.435939 181.153876 
L 408.485252 16.662489 
L 414.534565 178.391818 
" style="fill:none;stroke:#e36f47;stroke-linecap:round;"/>
   </g>
   <g id="PathCollection_2">
    <defs>
     <path d="M 0 0.5 
C 0.132602 0.5 0.25979 0.447317 0.353553 0.353553 
C 0.447317 0.25979 0.5 0.132602 0.5 0 
C 0.5 -0.132602 0.447317 -0.25979 0.353553 -0.353553 
C 0.25979 -0.447317 0.132602 -0.5 0 -0.5 
C -0.132602 -0.5 -0.25979 -0.447317 -0.353553 -0.353553 
C -0.447317 -0.25979 -0.5 -0.132602 -0.5 0 
C -0.5 0.132602 -0.447317 0.25979 -0.353553 0.353553 
C -0.25979 0.447317 -0.132602 0.5 0 0.5 
z
" id="m51699d36ad" style="stroke:#000000;"/>
    </defs>
    <g clip-path="url(#p27198dad70)">
     <use style="fill:#e36f47;stroke:#000000;" x="33.427847" xlink:href="#m51699d36ad" y="266.777693"/>
     <use style="fill:#e36f47;stroke:#000000;" x="39.47716" xlink:href="#m51699d36ad" y="264.015634"/>
     <use style="fill:#e36f47;stroke:#000000;" x="45.526473" xlink:href="#m51699d36ad" y="99.524247"/>
     <use style="fill:#e36f47;stroke:#000000;" x="51.575786" xlink:href="#m51699d36ad" y="261.253576"/>
     <use style="fill:#e36f47;stroke:#000000;" x="57.625099" xlink:href="#m51699d36ad" y="96.762188"/>
     <use style="fill:#e36f47;stroke:#000000;" x="63.674412" xlink:href="#m51699d36ad" y="258.491517"/>
     <use style="fill:#e36f47;stroke:#000000;" x="69.723725" xlink:href="#m51699d36ad" y="94.00013"/>
     <use style="fill:#e36f47;stroke:#000000;" x="75.773038" xlink:href="#m51699d36ad" y="255.729458"/>
     <use style="fill:#e36f47;stroke:#000000;" x="81.822351" xlink:href="#m51699d36ad" y="91.238071"/>
     <use style="fill:#e36f47;stroke:#000000;" x="87.871664" xlink:href="#m51699d36ad" y="252.9674"/>
     <use style="fill:#e36f47;stroke:#000000;" x="93.920977" xlink:href="#m51699d36ad" y="88.476012"/>
     <use style="fill:#e36f47;stroke:#000000;" x="99.97029" xlink:href="#m51699d36ad" y="250.205341"/>
     <use style="fill:#e36f47;stroke:#000000;" x="106.019603" xlink:href="#m51699d36ad" y="85.713954"/>
     <use style="fill:#e36f47;stroke:#000000;" x="112.068916" xlink:href="#m51699d36ad" y="247.443283"/>
     <use style="fill:#e36f47;stroke:#000000;" x="118.118229" xlink:href="#m51699d36ad" y="82.951895"/>
     <use style="fill:#e36f47;stroke:#000000;" x="124.167542" xlink:href="#m51699d36ad" y="244.681224"/>
     <use style="fill:#e36f47;stroke:#000000;" x="130.216855" xlink:href="#m51699d36ad" y="80.189837"/>
     <use style="fill:#e36f47;stroke:#000000;" x="136.266168" xlink:href="#m51699d36ad" y="241.919165"/>
     <use style="fill:#e36f47;stroke:#000000;" x="142.315481" xlink:href="#m51699d36ad" y="77.427778"/>
     <use style="fill:#e36f47;stroke:#000000;" x="148.364794" xlink:href="#m51699d36ad" y="239.157107"/>
     <use style="fill:#e36f47;stroke:#000000;" x="154.414107" xlink:href="#m51699d36ad" y="74.665719"/>
     <use style="fill:#e36f47;stroke:#000000;" x="160.46342" xlink:href="#m51699d36ad" y="236.395048"/>
     <use style="fill:#e36f47;stroke:#000000;" x="166.512733" xlink:href="#m51699d36ad" y="71.903661"/>
     <use style="fill:#e36f47;stroke:#000000;" x="172.562046" xlink:href="#m51699d36ad" y="233.63299"/>
     <use style="fill:#e36f47;stroke:#000000;" x="178.611359" xlink:href="#m51699d36ad" y="69.141602"/>
     <use style="fill:#e36f47;stroke:#000000;" x="184.660672" xlink:href="#m51699d36ad" y="230.870931"/>
     <use style="fill:#e36f47;stroke:#000000;" x="190.709985" xlink:href="#m51699d36ad" y="66.379544"/>
     <use style="fill:#e36f47;stroke:#000000;" x="196.759298" xlink:href="#m51699d36ad" y="228.108872"/>
     <use style="fill:#e36f47;stroke:#000000;" x="202.808611" xlink:href="#m51699d36ad" y="63.617485"/>
     <use style="fill:#e36f47;stroke:#000000;" x="208.857924" xlink:href="#m51699d36ad" y="225.346814"/>
     <use style="fill:#e36f47;stroke:#000000;" x="214.907237" xlink:href="#m51699d36ad" y="60.855426"/>
     <use style="fill:#e36f47;stroke:#000000;" x="220.95655" xlink:href="#m51699d36ad" y="222.584755"/>
     <use style="fill:#e36f47;stroke:#000000;" x="227.005863" xlink:href="#m51699d36ad" y="58.093368"/>
     <use style="fill:#e36f47;stroke:#000000;" x="233.055176" xlink:href="#m51699d36ad" y="219.822697"/>
     <use style="fill:#e36f47;stroke:#000000;" x="239.104489" xlink:href="#m51699d36ad" y="55.331309"/>
     <use style="fill:#e36f47;stroke:#000000;" x="245.153802" xlink:href="#m51699d36ad" y="217.060638"/>
     <use style="fill:#e36f47;stroke:#000000;" x="251.203115" xlink:href="#m51699d36ad" y="52.569251"/>
     <use style="fill:#e36f47;stroke:#000000;" x="257.252428" xlink:href="#m51699d36ad" y="214.298579"/>
     <use style="fill:#e36f47;stroke:#000000;" x="263.301741" xlink:href="#m51699d36ad" y="49.807192"/>
     <use style="fill:#e36f47;stroke:#000000;" x="269.351054" xlink:href="#m51699d36ad" y="211.536521"/>
     <use style="fill:#e36f47;stroke:#000000;" x="275.400367" xlink:href="#m51699d36ad" y="47.045133"/>
     <use style="fill:#e36f47;stroke:#000000;" x="281.44968" xlink:href="#m51699d36ad" y="208.774462"/>
     <use style="fill:#e36f47;stroke:#000000;" x="287.498993" xlink:href="#m51699d36ad" y="44.283075"/>
     <use style="fill:#e36f47;stroke:#000000;" x="293.548306" xlink:href="#m51699d36ad" y="206.012404"/>
     <use style="fill:#e36f47;stroke:#000000;" x="299.597618" xlink:href="#m51699d36ad" y="41.521016"/>
     <use style="fill:#e36f47;stroke:#000000;" x="305.646931" xlink:href="#m51699d36ad" y="203.250345"/>
     <use style="fill:#e36f47;stroke:#000000;" x="311.696244" xlink:href="#m51699d36ad" y="38.758958"/>
     <use style="fill:#e36f47;stroke:#000000;" x="317.745557" xlink:href="#m51699d36ad" y="200.488286"/>
     <use style="fill:#e36f47;stroke:#000000;" x="323.79487" xlink:href="#m51699d36ad" y="35.996899"/>
     <use style="fill:#e36f47;stroke:#000000;" x="329.844183" xlink:href="#m51699d36ad" y="197.726228"/>
     <use style="fill:#e36f47;stroke:#000000;" x="335.893496" xlink:href="#m51699d36ad" y="33.23484"/>
     <use style="fill:#e36f47;stroke:#000000;" x="341.942809" xlink:href="#m51699d36ad" y="194.964169"/>
     <use style="fill:#e36f47;stroke:#000000;" x="347.992122" xlink:href="#m51699d36ad" y="30.472782"/>
     <use style="fill:#e36f47;stroke:#000000;" x="354.041435" xlink:href="#m51699d36ad" y="192.202111"/>
     <use style="fill:#e36f47;stroke:#000000;" x="360.090748" xlink:href="#m51699d36ad" y="27.710723"/>
     <use style="fill:#e36f47;stroke:#000000;" x="366.140061" xlink:href="#m51699d36ad" y="189.440052"/>
     <use style="fill:#e36f47;stroke:#000000;" x="372.189374" xlink:href="#m51699d36ad" y="24.948665"/>
     <use style="fill:#e36f47;stroke:#000000;" x="378.238687" xlink:href="#m51699d36ad" y="186.677993"/>
     <use style="fill:#e36f47;stroke:#000000;" x="384.288" xlink:href="#m51699d36ad" y="22.186606"/>
     <use style="fill:#e36f47;stroke:#000000;" x="390.337313" xlink:href="#m51699d36ad" y="183.915935"/>
     <use style="fill:#e36f47;stroke:#000000;" x="396.386626" xlink:href="#m51699d36ad" y="19.424547"/>
     <use style="fill:#e36f47;stroke:#000000;" x="402.435939" xlink:href="#m51699d36ad" y="181.153876"/>
     <use style="fill:#e36f47;stroke:#000000;" x="408.485252" xlink:href="#m51699d36ad" y="16.662489"/>
     <use style="fill:#e36f47;stroke:#000000;" x="414.534565" xlink:href="#m51699d36ad" y="178.391818"/>
    </g>
   </g>
   <g id="patch_3">
    <path d="M 21.994646 274.465354 
L 21.994646 2.834646 
" style="fill:none;stroke:#000000;stroke-linecap:square;stroke-linejoin:miter;"/>
   </g>
   <g id="patch_4">
    <path d="M 21.994646 274.465354 
L 425.967767 274.465354 
" style="fill:none;stroke:#000000;stroke-linecap:square;stroke-linejoin:miter;"/>
   </g>
   <g id="legend_1">
    <g id="patch_5">
     <path d="M 27.594646 32.719646 
L 67.308396 32.719646 
Q 68.908396 32.719646 68.908396 31.119646 
L 68.908396 8.434646 
Q 68.908396 6.834646 67.308396 6.834646 
L 27.594646 6.834646 
Q 25.994646 6.834646 25.994646 8.434646 
L 25.994646 31.119646 
Q 25.994646 32.719646 27.594646 32.719646 
z
" style="fill:#ffffff;stroke:#000000;stroke-linejoin:miter;"/>
    </g>
    <g id="line2d_23">
     <path d="M 29.194646 13.313396 
L 45.194646 13.313396 
" style="fill:none;stroke:#009afa;stroke-linecap:square;"/>
    </g>
    <g id="line2d_24">
     <defs>
      <path d="M 0 3 
C 0.795609 3 1.55874 2.683901 2.12132 2.12132 
C 2.683901 1.55874 3 0.795609 3 0 
C 3 -0.795609 2.683901 -1.55874 2.12132 -2.12132 
C 1.55874 -2.683901 0.795609 -3 0 -3 
C -0.795609 -3 -1.55874 -2.683901 -2.12132 -2.12132 
C -2.683901 -1.55874 -3 -0.795609 -3 0 
C -3 0.795609 -2.683901 1.55874 -2.12132 2.12132 
C -1.55874 2.683901 -0.795609 3 0 3 
z
" id="mfc105e3884" style="stroke:#000000;"/>
     </defs>
     <g>
      <use style="fill:#009afa;stroke:#000000;" x="37.194646" xlink:href="#mfc105e3884" y="13.313396"/>
     </g>
    </g>
    <g id="text_11">
     <!-- r(t) -->
     <defs>
      <path d="M 41.109375 46.296875 
Q 39.59375 47.171875 37.8125 47.578125 
Q 36.03125 48 33.890625 48 
Q 26.265625 48 22.1875 43.046875 
Q 18.109375 38.09375 18.109375 28.8125 
L 18.109375 0 
L 9.078125 0 
L 9.078125 54.6875 
L 18.109375 54.6875 
L 18.109375 46.1875 
Q 20.953125 51.171875 25.484375 53.578125 
Q 30.03125 56 36.53125 56 
Q 37.453125 56 38.578125 55.875 
Q 39.703125 55.765625 41.0625 55.515625 
z
" id="DejaVuSans-114"/>
      <path d="M 31 75.875 
Q 24.46875 64.65625 21.28125 53.65625 
Q 18.109375 42.671875 18.109375 31.390625 
Q 18.109375 20.125 21.3125 9.0625 
Q 24.515625 -2 31 -13.1875 
L 23.1875 -13.1875 
Q 15.875 -1.703125 12.234375 9.375 
Q 8.59375 20.453125 8.59375 31.390625 
Q 8.59375 42.28125 12.203125 53.3125 
Q 15.828125 64.359375 23.1875 75.875 
z
" id="DejaVuSans-40"/>
      <path d="M 18.3125 70.21875 
L 18.3125 54.6875 
L 36.8125 54.6875 
L 36.8125 47.703125 
L 18.3125 47.703125 
L 18.3125 18.015625 
Q 18.3125 11.328125 20.140625 9.421875 
Q 21.96875 7.515625 27.59375 7.515625 
L 36.8125 7.515625 
L 36.8125 0 
L 27.59375 0 
Q 17.1875 0 13.234375 3.875 
Q 9.28125 7.765625 9.28125 18.015625 
L 9.28125 47.703125 
L 2.6875 47.703125 
L 2.6875 54.6875 
L 9.28125 54.6875 
L 9.28125 70.21875 
z
" id="DejaVuSans-116"/>
      <path d="M 8.015625 75.875 
L 15.828125 75.875 
Q 23.140625 64.359375 26.78125 53.3125 
Q 30.421875 42.28125 30.421875 31.390625 
Q 30.421875 20.453125 26.78125 9.375 
Q 23.140625 -1.703125 15.828125 -13.1875 
L 8.015625 -13.1875 
Q 14.5 -2 17.703125 9.0625 
Q 20.90625 20.125 20.90625 31.390625 
Q 20.90625 42.671875 17.703125 53.65625 
Q 14.5 64.65625 8.015625 75.875 
z
" id="DejaVuSans-41"/>
     </defs>
     <g transform="translate(51.594646 16.113396)scale(0.08 -0.08)">
      <use xlink:href="#DejaVuSans-114"/>
      <use x="41.113281" xlink:href="#DejaVuSans-40"/>
      <use x="80.126953" xlink:href="#DejaVuSans-116"/>
      <use x="119.335938" xlink:href="#DejaVuSans-41"/>
     </g>
    </g>
    <g id="line2d_25">
     <path d="M 29.194646 25.055896 
L 45.194646 25.055896 
" style="fill:none;stroke:#e36f47;stroke-linecap:square;"/>
    </g>
    <g id="line2d_26">
     <defs>
      <path d="M 0 3 
C 0.795609 3 1.55874 2.683901 2.12132 2.12132 
C 2.683901 1.55874 3 0.795609 3 0 
C 3 -0.795609 2.683901 -1.55874 2.12132 -2.12132 
C 1.55874 -2.683901 0.795609 -3 0 -3 
C -0.795609 -3 -1.55874 -2.683901 -2.12132 -2.12132 
C -2.683901 -1.55874 -3 -0.795609 -3 0 
C -3 0.795609 -2.683901 1.55874 -2.12132 2.12132 
C -1.55874 2.683901 -0.795609 3 0 3 
z
" id="maa3bc862b1" style="stroke:#000000;"/>
     </defs>
     <g>
      <use style="fill:#e36f47;stroke:#000000;" x="37.194646" xlink:href="#maa3bc862b1" y="25.055896"/>
     </g>
    </g>
    <g id="text_12">
     <!-- y(t) -->
     <defs>
      <path d="M 32.171875 -5.078125 
Q 28.375 -14.84375 24.75 -17.8125 
Q 21.140625 -20.796875 15.09375 -20.796875 
L 7.90625 -20.796875 
L 7.90625 -13.28125 
L 13.1875 -13.28125 
Q 16.890625 -13.28125 18.9375 -11.515625 
Q 21 -9.765625 23.484375 -3.21875 
L 25.09375 0.875 
L 2.984375 54.6875 
L 12.5 54.6875 
L 29.59375 11.921875 
L 46.6875 54.6875 
L 56.203125 54.6875 
z
" id="DejaVuSans-121"/>
     </defs>
     <g transform="translate(51.594646 27.855896)scale(0.08 -0.08)">
      <use xlink:href="#DejaVuSans-121"/>
      <use x="59.179688" xlink:href="#DejaVuSans-40"/>
      <use x="98.193359" xlink:href="#DejaVuSans-116"/>
      <use x="137.402344" xlink:href="#DejaVuSans-41"/>
     </g>
    </g>
   </g>
  </g>
 </g>
 <defs>
  <clipPath id="p27198dad70">
   <rect height="271.630709" width="403.973121" x="21.994646" y="2.834646"/>
  </clipPath>
 </defs>
</svg>
