<?xml version="1.0" encoding="utf-8"?>
<svg xmlns="http://www.w3.org/2000/svg" xmlns:xlink="http://www.w3.org/1999/xlink" width="600" height="400" viewBox="0 0 2400 1600">
<defs>
  <clipPath id="clip8300">
    <rect x="0" y="0" width="2400" height="1600"/>
  </clipPath>
</defs>
<path clip-path="url(#clip8300)" d="
M0 1600 L2400 1600 L2400 0 L0 0  Z
  " fill="#1e1e1e" fill-rule="evenodd" fill-opacity="1"/>
<defs>
  <clipPath id="clip8301">
    <rect x="480" y="0" width="1681" height="1600"/>
  </clipPath>
</defs>
<path clip-path="url(#clip8300)" d="
M180.66 1487.47 L2352.76 1487.47 L2352.76 47.2441 L180.66 47.2441  Z
  " fill="#1e1e1e" fill-rule="evenodd" fill-opacity="1"/>
<defs>
  <clipPath id="clip8302">
    <rect x="180" y="47" width="2173" height="1441"/>
  </clipPath>
</defs>
<polyline clip-path="url(#clip8302)" style="stroke:#ffffff; stroke-width:2; stroke-opacity:0.1; fill:none" points="
  242.135,1487.47 242.135,47.2441 
  "/>
<polyline clip-path="url(#clip8302)" style="stroke:#ffffff; stroke-width:2; stroke-opacity:0.1; fill:none" points="
  762.553,1487.47 762.553,47.2441 
  "/>
<polyline clip-path="url(#clip8302)" style="stroke:#ffffff; stroke-width:2; stroke-opacity:0.1; fill:none" points="
  1282.97,1487.47 1282.97,47.2441 
  "/>
<polyline clip-path="url(#clip8302)" style="stroke:#ffffff; stroke-width:2; stroke-opacity:0.1; fill:none" points="
  1803.39,1487.47 1803.39,47.2441 
  "/>
<polyline clip-path="url(#clip8302)" style="stroke:#ffffff; stroke-width:2; stroke-opacity:0.1; fill:none" points="
  2323.81,1487.47 2323.81,47.2441 
  "/>
<polyline clip-path="url(#clip8302)" style="stroke:#ffffff; stroke-width:2; stroke-opacity:0.1; fill:none" points="
  180.66,1262.49 2352.76,1262.49 
  "/>
<polyline clip-path="url(#clip8302)" style="stroke:#ffffff; stroke-width:2; stroke-opacity:0.1; fill:none" points="
  180.66,964.208 2352.76,964.208 
  "/>
<polyline clip-path="url(#clip8302)" style="stroke:#ffffff; stroke-width:2; stroke-opacity:0.1; fill:none" points="
  180.66,665.927 2352.76,665.927 
  "/>
<polyline clip-path="url(#clip8302)" style="stroke:#ffffff; stroke-width:2; stroke-opacity:0.1; fill:none" points="
  180.66,367.645 2352.76,367.645 
  "/>
<polyline clip-path="url(#clip8302)" style="stroke:#ffffff; stroke-width:2; stroke-opacity:0.1; fill:none" points="
  180.66,69.3627 2352.76,69.3627 
  "/>
<polyline clip-path="url(#clip8300)" style="stroke:#ffffff; stroke-width:4; stroke-opacity:1; fill:none" points="
  180.66,1487.47 2352.76,1487.47 
  "/>
<polyline clip-path="url(#clip8300)" style="stroke:#ffffff; stroke-width:4; stroke-opacity:1; fill:none" points="
  180.66,1487.47 180.66,47.2441 
  "/>
<polyline clip-path="url(#clip8300)" style="stroke:#ffffff; stroke-width:4; stroke-opacity:1; fill:none" points="
  242.135,1487.47 242.135,1470.19 
  "/>
<polyline clip-path="url(#clip8300)" style="stroke:#ffffff; stroke-width:4; stroke-opacity:1; fill:none" points="
  762.553,1487.47 762.553,1470.19 
  "/>
<polyline clip-path="url(#clip8300)" style="stroke:#ffffff; stroke-width:4; stroke-opacity:1; fill:none" points="
  1282.97,1487.47 1282.97,1470.19 
  "/>
<polyline clip-path="url(#clip8300)" style="stroke:#ffffff; stroke-width:4; stroke-opacity:1; fill:none" points="
  1803.39,1487.47 1803.39,1470.19 
  "/>
<polyline clip-path="url(#clip8300)" style="stroke:#ffffff; stroke-width:4; stroke-opacity:1; fill:none" points="
  2323.81,1487.47 2323.81,1470.19 
  "/>
<polyline clip-path="url(#clip8300)" style="stroke:#ffffff; stroke-width:4; stroke-opacity:1; fill:none" points="
  180.66,1262.49 206.725,1262.49 
  "/>
<polyline clip-path="url(#clip8300)" style="stroke:#ffffff; stroke-width:4; stroke-opacity:1; fill:none" points="
  180.66,964.208 206.725,964.208 
  "/>
<polyline clip-path="url(#clip8300)" style="stroke:#ffffff; stroke-width:4; stroke-opacity:1; fill:none" points="
  180.66,665.927 206.725,665.927 
  "/>
<polyline clip-path="url(#clip8300)" style="stroke:#ffffff; stroke-width:4; stroke-opacity:1; fill:none" points="
  180.66,367.645 206.725,367.645 
  "/>
<polyline clip-path="url(#clip8300)" style="stroke:#ffffff; stroke-width:4; stroke-opacity:1; fill:none" points="
  180.66,69.3627 206.725,69.3627 
  "/>
<g clip-path="url(#clip8300)">
<text style="fill:#ffffff; fill-opacity:1; font-family:Arial,Helvetica Neue,Helvetica,sans-serif; font-size:48px; text-anchor:middle;" transform="rotate(0, 242.135, 1541.47)" x="242.135" y="1541.47">0.00</text>
</g>
<g clip-path="url(#clip8300)">
<text style="fill:#ffffff; fill-opacity:1; font-family:Arial,Helvetica Neue,Helvetica,sans-serif; font-size:48px; text-anchor:middle;" transform="rotate(0, 762.553, 1541.47)" x="762.553" y="1541.47">0.25</text>
</g>
<g clip-path="url(#clip8300)">
<text style="fill:#ffffff; fill-opacity:1; font-family:Arial,Helvetica Neue,Helvetica,sans-serif; font-size:48px; text-anchor:middle;" transform="rotate(0, 1282.97, 1541.47)" x="1282.97" y="1541.47">0.50</text>
</g>
<g clip-path="url(#clip8300)">
<text style="fill:#ffffff; fill-opacity:1; font-family:Arial,Helvetica Neue,Helvetica,sans-serif; font-size:48px; text-anchor:middle;" transform="rotate(0, 1803.39, 1541.47)" x="1803.39" y="1541.47">0.75</text>
</g>
<g clip-path="url(#clip8300)">
<text style="fill:#ffffff; fill-opacity:1; font-family:Arial,Helvetica Neue,Helvetica,sans-serif; font-size:48px; text-anchor:middle;" transform="rotate(0, 2323.81, 1541.47)" x="2323.81" y="1541.47">1.00</text>
</g>
<g clip-path="url(#clip8300)">
<text style="fill:#ffffff; fill-opacity:1; font-family:Arial,Helvetica Neue,Helvetica,sans-serif; font-size:48px; text-anchor:end;" transform="rotate(0, 156.66, 1279.99)" x="156.66" y="1279.99">0.00</text>
</g>
<g clip-path="url(#clip8300)">
<text style="fill:#ffffff; fill-opacity:1; font-family:Arial,Helvetica Neue,Helvetica,sans-serif; font-size:48px; text-anchor:end;" transform="rotate(0, 156.66, 981.708)" x="156.66" y="981.708">0.25</text>
</g>
<g clip-path="url(#clip8300)">
<text style="fill:#ffffff; fill-opacity:1; font-family:Arial,Helvetica Neue,Helvetica,sans-serif; font-size:48px; text-anchor:end;" transform="rotate(0, 156.66, 683.427)" x="156.66" y="683.427">0.50</text>
</g>
<g clip-path="url(#clip8300)">
<text style="fill:#ffffff; fill-opacity:1; font-family:Arial,Helvetica Neue,Helvetica,sans-serif; font-size:48px; text-anchor:end;" transform="rotate(0, 156.66, 385.145)" x="156.66" y="385.145">0.75</text>
</g>
<g clip-path="url(#clip8300)">
<text style="fill:#ffffff; fill-opacity:1; font-family:Arial,Helvetica Neue,Helvetica,sans-serif; font-size:48px; text-anchor:end;" transform="rotate(0, 156.66, 86.8627)" x="156.66" y="86.8627">1.00</text>
</g>
<polyline clip-path="url(#clip8302)" style="stroke:#14d0ff; stroke-width:8; stroke-opacity:1; fill:none" points="
  242.135,1262.49 274.661,1243.85 307.187,1225.21 339.713,1206.56 372.239,1187.92 404.765,1169.28 437.292,1150.63 469.818,1131.99 502.344,1113.35 534.87,1094.71 
  567.396,1076.06 599.922,1057.42 632.448,1038.78 664.975,1020.14 697.501,1001.49 730.027,982.851 762.553,964.208 795.079,945.566 827.605,926.923 860.131,908.281 
  892.658,889.638 925.184,870.995 957.71,852.353 990.236,833.71 1022.76,815.068 1055.29,796.425 1087.81,777.782 1120.34,759.14 1152.87,740.497 1185.39,721.854 
  1217.92,703.212 1250.45,684.569 1282.97,665.927 1315.5,647.284 1348.02,628.641 1380.55,609.999 1413.08,591.356 1445.6,572.713 1478.13,554.071 1510.65,535.428 
  1543.18,516.786 1575.71,498.143 1608.23,479.5 1640.76,460.858 1673.28,442.215 1705.81,423.572 1738.34,404.93 1770.86,386.287 1803.39,367.645 1835.92,349.002 
  1868.44,330.359 1900.97,311.717 1933.49,293.074 1966.02,274.432 1998.55,255.789 2031.07,237.146 2063.6,218.504 2096.12,199.861 2128.65,181.218 2161.18,162.576 
  2193.7,143.933 2226.23,125.291 2258.76,106.648 2291.28,88.0053 
  "/>
<circle clip-path="url(#clip8302)" cx="242.135" cy="1262.49" r="10" fill="#14d0ff" fill-rule="evenodd" fill-opacity="1" stroke="#ffffff" stroke-opacity="1" stroke-width="3.2"/>
<circle clip-path="url(#clip8302)" cx="274.661" cy="1243.85" r="10" fill="#14d0ff" fill-rule="evenodd" fill-opacity="1" stroke="#ffffff" stroke-opacity="1" stroke-width="3.2"/>
<circle clip-path="url(#clip8302)" cx="307.187" cy="1225.21" r="10" fill="#14d0ff" fill-rule="evenodd" fill-opacity="1" stroke="#ffffff" stroke-opacity="1" stroke-width="3.2"/>
<circle clip-path="url(#clip8302)" cx="339.713" cy="1206.56" r="10" fill="#14d0ff" fill-rule="evenodd" fill-opacity="1" stroke="#ffffff" stroke-opacity="1" stroke-width="3.2"/>
<circle clip-path="url(#clip8302)" cx="372.239" cy="1187.92" r="10" fill="#14d0ff" fill-rule="evenodd" fill-opacity="1" stroke="#ffffff" stroke-opacity="1" stroke-width="3.2"/>
<circle clip-path="url(#clip8302)" cx="404.765" cy="1169.28" r="10" fill="#14d0ff" fill-rule="evenodd" fill-opacity="1" stroke="#ffffff" stroke-opacity="1" stroke-width="3.2"/>
<circle clip-path="url(#clip8302)" cx="437.292" cy="1150.63" r="10" fill="#14d0ff" fill-rule="evenodd" fill-opacity="1" stroke="#ffffff" stroke-opacity="1" stroke-width="3.2"/>
<circle clip-path="url(#clip8302)" cx="469.818" cy="1131.99" r="10" fill="#14d0ff" fill-rule="evenodd" fill-opacity="1" stroke="#ffffff" stroke-opacity="1" stroke-width="3.2"/>
<circle clip-path="url(#clip8302)" cx="502.344" cy="1113.35" r="10" fill="#14d0ff" fill-rule="evenodd" fill-opacity="1" stroke="#ffffff" stroke-opacity="1" stroke-width="3.2"/>
<circle clip-path="url(#clip8302)" cx="534.87" cy="1094.71" r="10" fill="#14d0ff" fill-rule="evenodd" fill-opacity="1" stroke="#ffffff" stroke-opacity="1" stroke-width="3.2"/>
<circle clip-path="url(#clip8302)" cx="567.396" cy="1076.06" r="10" fill="#14d0ff" fill-rule="evenodd" fill-opacity="1" stroke="#ffffff" stroke-opacity="1" stroke-width="3.2"/>
<circle clip-path="url(#clip8302)" cx="599.922" cy="1057.42" r="10" fill="#14d0ff" fill-rule="evenodd" fill-opacity="1" stroke="#ffffff" stroke-opacity="1" stroke-width="3.2"/>
<circle clip-path="url(#clip8302)" cx="632.448" cy="1038.78" r="10" fill="#14d0ff" fill-rule="evenodd" fill-opacity="1" stroke="#ffffff" stroke-opacity="1" stroke-width="3.2"/>
<circle clip-path="url(#clip8302)" cx="664.975" cy="1020.14" r="10" fill="#14d0ff" fill-rule="evenodd" fill-opacity="1" stroke="#ffffff" stroke-opacity="1" stroke-width="3.2"/>
<circle clip-path="url(#clip8302)" cx="697.501" cy="1001.49" r="10" fill="#14d0ff" fill-rule="evenodd" fill-opacity="1" stroke="#ffffff" stroke-opacity="1" stroke-width="3.2"/>
<circle clip-path="url(#clip8302)" cx="730.027" cy="982.851" r="10" fill="#14d0ff" fill-rule="evenodd" fill-opacity="1" stroke="#ffffff" stroke-opacity="1" stroke-width="3.2"/>
<circle clip-path="url(#clip8302)" cx="762.553" cy="964.208" r="10" fill="#14d0ff" fill-rule="evenodd" fill-opacity="1" stroke="#ffffff" stroke-opacity="1" stroke-width="3.2"/>
<circle clip-path="url(#clip8302)" cx="795.079" cy="945.566" r="10" fill="#14d0ff" fill-rule="evenodd" fill-opacity="1" stroke="#ffffff" stroke-opacity="1" stroke-width="3.2"/>
<circle clip-path="url(#clip8302)" cx="827.605" cy="926.923" r="10" fill="#14d0ff" fill-rule="evenodd" fill-opacity="1" stroke="#ffffff" stroke-opacity="1" stroke-width="3.2"/>
<circle clip-path="url(#clip8302)" cx="860.131" cy="908.281" r="10" fill="#14d0ff" fill-rule="evenodd" fill-opacity="1" stroke="#ffffff" stroke-opacity="1" stroke-width="3.2"/>
<circle clip-path="url(#clip8302)" cx="892.658" cy="889.638" r="10" fill="#14d0ff" fill-rule="evenodd" fill-opacity="1" stroke="#ffffff" stroke-opacity="1" stroke-width="3.2"/>
<circle clip-path="url(#clip8302)" cx="925.184" cy="870.995" r="10" fill="#14d0ff" fill-rule="evenodd" fill-opacity="1" stroke="#ffffff" stroke-opacity="1" stroke-width="3.2"/>
<circle clip-path="url(#clip8302)" cx="957.71" cy="852.353" r="10" fill="#14d0ff" fill-rule="evenodd" fill-opacity="1" stroke="#ffffff" stroke-opacity="1" stroke-width="3.2"/>
<circle clip-path="url(#clip8302)" cx="990.236" cy="833.71" r="10" fill="#14d0ff" fill-rule="evenodd" fill-opacity="1" stroke="#ffffff" stroke-opacity="1" stroke-width="3.2"/>
<circle clip-path="url(#clip8302)" cx="1022.76" cy="815.068" r="10" fill="#14d0ff" fill-rule="evenodd" fill-opacity="1" stroke="#ffffff" stroke-opacity="1" stroke-width="3.2"/>
<circle clip-path="url(#clip8302)" cx="1055.29" cy="796.425" r="10" fill="#14d0ff" fill-rule="evenodd" fill-opacity="1" stroke="#ffffff" stroke-opacity="1" stroke-width="3.2"/>
<circle clip-path="url(#clip8302)" cx="1087.81" cy="777.782" r="10" fill="#14d0ff" fill-rule="evenodd" fill-opacity="1" stroke="#ffffff" stroke-opacity="1" stroke-width="3.2"/>
<circle clip-path="url(#clip8302)" cx="1120.34" cy="759.14" r="10" fill="#14d0ff" fill-rule="evenodd" fill-opacity="1" stroke="#ffffff" stroke-opacity="1" stroke-width="3.2"/>
<circle clip-path="url(#clip8302)" cx="1152.87" cy="740.497" r="10" fill="#14d0ff" fill-rule="evenodd" fill-opacity="1" stroke="#ffffff" stroke-opacity="1" stroke-width="3.2"/>
<circle clip-path="url(#clip8302)" cx="1185.39" cy="721.854" r="10" fill="#14d0ff" fill-rule="evenodd" fill-opacity="1" stroke="#ffffff" stroke-opacity="1" stroke-width="3.2"/>
<circle clip-path="url(#clip8302)" cx="1217.92" cy="703.212" r="10" fill="#14d0ff" fill-rule="evenodd" fill-opacity="1" stroke="#ffffff" stroke-opacity="1" stroke-width="3.2"/>
<circle clip-path="url(#clip8302)" cx="1250.45" cy="684.569" r="10" fill="#14d0ff" fill-rule="evenodd" fill-opacity="1" stroke="#ffffff" stroke-opacity="1" stroke-width="3.2"/>
<circle clip-path="url(#clip8302)" cx="1282.97" cy="665.927" r="10" fill="#14d0ff" fill-rule="evenodd" fill-opacity="1" stroke="#ffffff" stroke-opacity="1" stroke-width="3.2"/>
<circle clip-path="url(#clip8302)" cx="1315.5" cy="647.284" r="10" fill="#14d0ff" fill-rule="evenodd" fill-opacity="1" stroke="#ffffff" stroke-opacity="1" stroke-width="3.2"/>
<circle clip-path="url(#clip8302)" cx="1348.02" cy="628.641" r="10" fill="#14d0ff" fill-rule="evenodd" fill-opacity="1" stroke="#ffffff" stroke-opacity="1" stroke-width="3.2"/>
<circle clip-path="url(#clip8302)" cx="1380.55" cy="609.999" r="10" fill="#14d0ff" fill-rule="evenodd" fill-opacity="1" stroke="#ffffff" stroke-opacity="1" stroke-width="3.2"/>
<circle clip-path="url(#clip8302)" cx="1413.08" cy="591.356" r="10" fill="#14d0ff" fill-rule="evenodd" fill-opacity="1" stroke="#ffffff" stroke-opacity="1" stroke-width="3.2"/>
<circle clip-path="url(#clip8302)" cx="1445.6" cy="572.713" r="10" fill="#14d0ff" fill-rule="evenodd" fill-opacity="1" stroke="#ffffff" stroke-opacity="1" stroke-width="3.2"/>
<circle clip-path="url(#clip8302)" cx="1478.13" cy="554.071" r="10" fill="#14d0ff" fill-rule="evenodd" fill-opacity="1" stroke="#ffffff" stroke-opacity="1" stroke-width="3.2"/>
<circle clip-path="url(#clip8302)" cx="1510.65" cy="535.428" r="10" fill="#14d0ff" fill-rule="evenodd" fill-opacity="1" stroke="#ffffff" stroke-opacity="1" stroke-width="3.2"/>
<circle clip-path="url(#clip8302)" cx="1543.18" cy="516.786" r="10" fill="#14d0ff" fill-rule="evenodd" fill-opacity="1" stroke="#ffffff" stroke-opacity="1" stroke-width="3.2"/>
<circle clip-path="url(#clip8302)" cx="1575.71" cy="498.143" r="10" fill="#14d0ff" fill-rule="evenodd" fill-opacity="1" stroke="#ffffff" stroke-opacity="1" stroke-width="3.2"/>
<circle clip-path="url(#clip8302)" cx="1608.23" cy="479.5" r="10" fill="#14d0ff" fill-rule="evenodd" fill-opacity="1" stroke="#ffffff" stroke-opacity="1" stroke-width="3.2"/>
<circle clip-path="url(#clip8302)" cx="1640.76" cy="460.858" r="10" fill="#14d0ff" fill-rule="evenodd" fill-opacity="1" stroke="#ffffff" stroke-opacity="1" stroke-width="3.2"/>
<circle clip-path="url(#clip8302)" cx="1673.28" cy="442.215" r="10" fill="#14d0ff" fill-rule="evenodd" fill-opacity="1" stroke="#ffffff" stroke-opacity="1" stroke-width="3.2"/>
<circle clip-path="url(#clip8302)" cx="1705.81" cy="423.572" r="10" fill="#14d0ff" fill-rule="evenodd" fill-opacity="1" stroke="#ffffff" stroke-opacity="1" stroke-width="3.2"/>
<circle clip-path="url(#clip8302)" cx="1738.34" cy="404.93" r="10" fill="#14d0ff" fill-rule="evenodd" fill-opacity="1" stroke="#ffffff" stroke-opacity="1" stroke-width="3.2"/>
<circle clip-path="url(#clip8302)" cx="1770.86" cy="386.287" r="10" fill="#14d0ff" fill-rule="evenodd" fill-opacity="1" stroke="#ffffff" stroke-opacity="1" stroke-width="3.2"/>
<circle clip-path="url(#clip8302)" cx="1803.39" cy="367.645" r="10" fill="#14d0ff" fill-rule="evenodd" fill-opacity="1" stroke="#ffffff" stroke-opacity="1" stroke-width="3.2"/>
<circle clip-path="url(#clip8302)" cx="1835.92" cy="349.002" r="10" fill="#14d0ff" fill-rule="evenodd" fill-opacity="1" stroke="#ffffff" stroke-opacity="1" stroke-width="3.2"/>
<circle clip-path="url(#clip8302)" cx="1868.44" cy="330.359" r="10" fill="#14d0ff" fill-rule="evenodd" fill-opacity="1" stroke="#ffffff" stroke-opacity="1" stroke-width="3.2"/>
<circle clip-path="url(#clip8302)" cx="1900.97" cy="311.717" r="10" fill="#14d0ff" fill-rule="evenodd" fill-opacity="1" stroke="#ffffff" stroke-opacity="1" stroke-width="3.2"/>
<circle clip-path="url(#clip8302)" cx="1933.49" cy="293.074" r="10" fill="#14d0ff" fill-rule="evenodd" fill-opacity="1" stroke="#ffffff" stroke-opacity="1" stroke-width="3.2"/>
<circle clip-path="url(#clip8302)" cx="1966.02" cy="274.432" r="10" fill="#14d0ff" fill-rule="evenodd" fill-opacity="1" stroke="#ffffff" stroke-opacity="1" stroke-width="3.2"/>
<circle clip-path="url(#clip8302)" cx="1998.55" cy="255.789" r="10" fill="#14d0ff" fill-rule="evenodd" fill-opacity="1" stroke="#ffffff" stroke-opacity="1" stroke-width="3.2"/>
<circle clip-path="url(#clip8302)" cx="2031.07" cy="237.146" r="10" fill="#14d0ff" fill-rule="evenodd" fill-opacity="1" stroke="#ffffff" stroke-opacity="1" stroke-width="3.2"/>
<circle clip-path="url(#clip8302)" cx="2063.6" cy="218.504" r="10" fill="#14d0ff" fill-rule="evenodd" fill-opacity="1" stroke="#ffffff" stroke-opacity="1" stroke-width="3.2"/>
<circle clip-path="url(#clip8302)" cx="2096.12" cy="199.861" r="10" fill="#14d0ff" fill-rule="evenodd" fill-opacity="1" stroke="#ffffff" stroke-opacity="1" stroke-width="3.2"/>
<circle clip-path="url(#clip8302)" cx="2128.65" cy="181.218" r="10" fill="#14d0ff" fill-rule="evenodd" fill-opacity="1" stroke="#ffffff" stroke-opacity="1" stroke-width="3.2"/>
<circle clip-path="url(#clip8302)" cx="2161.18" cy="162.576" r="10" fill="#14d0ff" fill-rule="evenodd" fill-opacity="1" stroke="#ffffff" stroke-opacity="1" stroke-width="3.2"/>
<circle clip-path="url(#clip8302)" cx="2193.7" cy="143.933" r="10" fill="#14d0ff" fill-rule="evenodd" fill-opacity="1" stroke="#ffffff" stroke-opacity="1" stroke-width="3.2"/>
<circle clip-path="url(#clip8302)" cx="2226.23" cy="125.291" r="10" fill="#14d0ff" fill-rule="evenodd" fill-opacity="1" stroke="#ffffff" stroke-opacity="1" stroke-width="3.2"/>
<circle clip-path="url(#clip8302)" cx="2258.76" cy="106.648" r="10" fill="#14d0ff" fill-rule="evenodd" fill-opacity="1" stroke="#ffffff" stroke-opacity="1" stroke-width="3.2"/>
<circle clip-path="url(#clip8302)" cx="2291.28" cy="88.0053" r="10" fill="#14d0ff" fill-rule="evenodd" fill-opacity="1" stroke="#ffffff" stroke-opacity="1" stroke-width="3.2"/>
<polyline clip-path="url(#clip8302)" style="stroke:#ffa478; stroke-width:8; stroke-opacity:1; fill:none" points="
  242.135,1446.71 274.661,1428.07 307.187,1059.62 339.713,1409.43 372.239,1040.98 404.765,1390.79 437.292,1022.34 469.818,1372.14 502.344,1003.7 534.87,1353.5 
  567.396,985.054 599.922,1334.86 632.448,966.412 664.975,1316.22 697.501,947.769 730.027,1297.57 762.553,929.126 795.079,1278.93 827.605,910.484 860.131,1260.29 
  892.658,891.841 925.184,1241.64 957.71,873.198 990.236,1223 1022.76,854.556 1055.29,1204.36 1087.81,835.913 1120.34,1185.72 1152.87,817.271 1185.39,1167.07 
  1217.92,798.628 1250.45,1148.43 1282.97,779.985 1315.5,1129.79 1348.02,761.343 1380.55,1111.15 1413.08,742.7 1445.6,1092.5 1478.13,724.058 1510.65,1073.86 
  1543.18,705.415 1575.71,1055.22 1608.23,686.772 1640.76,1036.58 1673.28,668.13 1705.81,1017.93 1738.34,649.487 1770.86,999.291 1803.39,630.844 1835.92,980.648 
  1868.44,612.202 1900.97,962.005 1933.49,593.559 1966.02,943.363 1998.55,574.917 2031.07,924.72 2063.6,556.274 2096.12,906.078 2128.65,537.631 2161.18,887.435 
  2193.7,518.989 2226.23,868.792 2258.76,500.346 2291.28,850.15 
  "/>
<circle clip-path="url(#clip8302)" cx="242.135" cy="1446.71" r="10" fill="#ffa478" fill-rule="evenodd" fill-opacity="1" stroke="#ffffff" stroke-opacity="1" stroke-width="3.2"/>
<circle clip-path="url(#clip8302)" cx="274.661" cy="1428.07" r="10" fill="#ffa478" fill-rule="evenodd" fill-opacity="1" stroke="#ffffff" stroke-opacity="1" stroke-width="3.2"/>
<circle clip-path="url(#clip8302)" cx="307.187" cy="1059.62" r="10" fill="#ffa478" fill-rule="evenodd" fill-opacity="1" stroke="#ffffff" stroke-opacity="1" stroke-width="3.2"/>
<circle clip-path="url(#clip8302)" cx="339.713" cy="1409.43" r="10" fill="#ffa478" fill-rule="evenodd" fill-opacity="1" stroke="#ffffff" stroke-opacity="1" stroke-width="3.2"/>
<circle clip-path="url(#clip8302)" cx="372.239" cy="1040.98" r="10" fill="#ffa478" fill-rule="evenodd" fill-opacity="1" stroke="#ffffff" stroke-opacity="1" stroke-width="3.2"/>
<circle clip-path="url(#clip8302)" cx="404.765" cy="1390.79" r="10" fill="#ffa478" fill-rule="evenodd" fill-opacity="1" stroke="#ffffff" stroke-opacity="1" stroke-width="3.2"/>
<circle clip-path="url(#clip8302)" cx="437.292" cy="1022.34" r="10" fill="#ffa478" fill-rule="evenodd" fill-opacity="1" stroke="#ffffff" stroke-opacity="1" stroke-width="3.2"/>
<circle clip-path="url(#clip8302)" cx="469.818" cy="1372.14" r="10" fill="#ffa478" fill-rule="evenodd" fill-opacity="1" stroke="#ffffff" stroke-opacity="1" stroke-width="3.2"/>
<circle clip-path="url(#clip8302)" cx="502.344" cy="1003.7" r="10" fill="#ffa478" fill-rule="evenodd" fill-opacity="1" stroke="#ffffff" stroke-opacity="1" stroke-width="3.2"/>
<circle clip-path="url(#clip8302)" cx="534.87" cy="1353.5" r="10" fill="#ffa478" fill-rule="evenodd" fill-opacity="1" stroke="#ffffff" stroke-opacity="1" stroke-width="3.2"/>
<circle clip-path="url(#clip8302)" cx="567.396" cy="985.054" r="10" fill="#ffa478" fill-rule="evenodd" fill-opacity="1" stroke="#ffffff" stroke-opacity="1" stroke-width="3.2"/>
<circle clip-path="url(#clip8302)" cx="599.922" cy="1334.86" r="10" fill="#ffa478" fill-rule="evenodd" fill-opacity="1" stroke="#ffffff" stroke-opacity="1" stroke-width="3.2"/>
<circle clip-path="url(#clip8302)" cx="632.448" cy="966.412" r="10" fill="#ffa478" fill-rule="evenodd" fill-opacity="1" stroke="#ffffff" stroke-opacity="1" stroke-width="3.2"/>
<circle clip-path="url(#clip8302)" cx="664.975" cy="1316.22" r="10" fill="#ffa478" fill-rule="evenodd" fill-opacity="1" stroke="#ffffff" stroke-opacity="1" stroke-width="3.2"/>
<circle clip-path="url(#clip8302)" cx="697.501" cy="947.769" r="10" fill="#ffa478" fill-rule="evenodd" fill-opacity="1" stroke="#ffffff" stroke-opacity="1" stroke-width="3.2"/>
<circle clip-path="url(#clip8302)" cx="730.027" cy="1297.57" r="10" fill="#ffa478" fill-rule="evenodd" fill-opacity="1" stroke="#ffffff" stroke-opacity="1" stroke-width="3.2"/>
<circle clip-path="url(#clip8302)" cx="762.553" cy="929.126" r="10" fill="#ffa478" fill-rule="evenodd" fill-opacity="1" stroke="#ffffff" stroke-opacity="1" stroke-width="3.2"/>
<circle clip-path="url(#clip8302)" cx="795.079" cy="1278.93" r="10" fill="#ffa478" fill-rule="evenodd" fill-opacity="1" stroke="#ffffff" stroke-opacity="1" stroke-width="3.2"/>
<circle clip-path="url(#clip8302)" cx="827.605" cy="910.484" r="10" fill="#ffa478" fill-rule="evenodd" fill-opacity="1" stroke="#ffffff" stroke-opacity="1" stroke-width="3.2"/>
<circle clip-path="url(#clip8302)" cx="860.131" cy="1260.29" r="10" fill="#ffa478" fill-rule="evenodd" fill-opacity="1" stroke="#ffffff" stroke-opacity="1" stroke-width="3.2"/>
<circle clip-path="url(#clip8302)" cx="892.658" cy="891.841" r="10" fill="#ffa478" fill-rule="evenodd" fill-opacity="1" stroke="#ffffff" stroke-opacity="1" stroke-width="3.2"/>
<circle clip-path="url(#clip8302)" cx="925.184" cy="1241.64" r="10" fill="#ffa478" fill-rule="evenodd" fill-opacity="1" stroke="#ffffff" stroke-opacity="1" stroke-width="3.2"/>
<circle clip-path="url(#clip8302)" cx="957.71" cy="873.198" r="10" fill="#ffa478" fill-rule="evenodd" fill-opacity="1" stroke="#ffffff" stroke-opacity="1" stroke-width="3.2"/>
<circle clip-path="url(#clip8302)" cx="990.236" cy="1223" r="10" fill="#ffa478" fill-rule="evenodd" fill-opacity="1" stroke="#ffffff" stroke-opacity="1" stroke-width="3.2"/>
<circle clip-path="url(#clip8302)" cx="1022.76" cy="854.556" r="10" fill="#ffa478" fill-rule="evenodd" fill-opacity="1" stroke="#ffffff" stroke-opacity="1" stroke-width="3.2"/>
<circle clip-path="url(#clip8302)" cx="1055.29" cy="1204.36" r="10" fill="#ffa478" fill-rule="evenodd" fill-opacity="1" stroke="#ffffff" stroke-opacity="1" stroke-width="3.2"/>
<circle clip-path="url(#clip8302)" cx="1087.81" cy="835.913" r="10" fill="#ffa478" fill-rule="evenodd" fill-opacity="1" stroke="#ffffff" stroke-opacity="1" stroke-width="3.2"/>
<circle clip-path="url(#clip8302)" cx="1120.34" cy="1185.72" r="10" fill="#ffa478" fill-rule="evenodd" fill-opacity="1" stroke="#ffffff" stroke-opacity="1" stroke-width="3.2"/>
<circle clip-path="url(#clip8302)" cx="1152.87" cy="817.271" r="10" fill="#ffa478" fill-rule="evenodd" fill-opacity="1" stroke="#ffffff" stroke-opacity="1" stroke-width="3.2"/>
<circle clip-path="url(#clip8302)" cx="1185.39" cy="1167.07" r="10" fill="#ffa478" fill-rule="evenodd" fill-opacity="1" stroke="#ffffff" stroke-opacity="1" stroke-width="3.2"/>
<circle clip-path="url(#clip8302)" cx="1217.92" cy="798.628" r="10" fill="#ffa478" fill-rule="evenodd" fill-opacity="1" stroke="#ffffff" stroke-opacity="1" stroke-width="3.2"/>
<circle clip-path="url(#clip8302)" cx="1250.45" cy="1148.43" r="10" fill="#ffa478" fill-rule="evenodd" fill-opacity="1" stroke="#ffffff" stroke-opacity="1" stroke-width="3.2"/>
<circle clip-path="url(#clip8302)" cx="1282.97" cy="779.985" r="10" fill="#ffa478" fill-rule="evenodd" fill-opacity="1" stroke="#ffffff" stroke-opacity="1" stroke-width="3.2"/>
<circle clip-path="url(#clip8302)" cx="1315.5" cy="1129.79" r="10" fill="#ffa478" fill-rule="evenodd" fill-opacity="1" stroke="#ffffff" stroke-opacity="1" stroke-width="3.2"/>
<circle clip-path="url(#clip8302)" cx="1348.02" cy="761.343" r="10" fill="#ffa478" fill-rule="evenodd" fill-opacity="1" stroke="#ffffff" stroke-opacity="1" stroke-width="3.2"/>
<circle clip-path="url(#clip8302)" cx="1380.55" cy="1111.15" r="10" fill="#ffa478" fill-rule="evenodd" fill-opacity="1" stroke="#ffffff" stroke-opacity="1" stroke-width="3.2"/>
<circle clip-path="url(#clip8302)" cx="1413.08" cy="742.7" r="10" fill="#ffa478" fill-rule="evenodd" fill-opacity="1" stroke="#ffffff" stroke-opacity="1" stroke-width="3.2"/>
<circle clip-path="url(#clip8302)" cx="1445.6" cy="1092.5" r="10" fill="#ffa478" fill-rule="evenodd" fill-opacity="1" stroke="#ffffff" stroke-opacity="1" stroke-width="3.2"/>
<circle clip-path="url(#clip8302)" cx="1478.13" cy="724.058" r="10" fill="#ffa478" fill-rule="evenodd" fill-opacity="1" stroke="#ffffff" stroke-opacity="1" stroke-width="3.2"/>
<circle clip-path="url(#clip8302)" cx="1510.65" cy="1073.86" r="10" fill="#ffa478" fill-rule="evenodd" fill-opacity="1" stroke="#ffffff" stroke-opacity="1" stroke-width="3.2"/>
<circle clip-path="url(#clip8302)" cx="1543.18" cy="705.415" r="10" fill="#ffa478" fill-rule="evenodd" fill-opacity="1" stroke="#ffffff" stroke-opacity="1" stroke-width="3.2"/>
<circle clip-path="url(#clip8302)" cx="1575.71" cy="1055.22" r="10" fill="#ffa478" fill-rule="evenodd" fill-opacity="1" stroke="#ffffff" stroke-opacity="1" stroke-width="3.2"/>
<circle clip-path="url(#clip8302)" cx="1608.23" cy="686.772" r="10" fill="#ffa478" fill-rule="evenodd" fill-opacity="1" stroke="#ffffff" stroke-opacity="1" stroke-width="3.2"/>
<circle clip-path="url(#clip8302)" cx="1640.76" cy="1036.58" r="10" fill="#ffa478" fill-rule="evenodd" fill-opacity="1" stroke="#ffffff" stroke-opacity="1" stroke-width="3.2"/>
<circle clip-path="url(#clip8302)" cx="1673.28" cy="668.13" r="10" fill="#ffa478" fill-rule="evenodd" fill-opacity="1" stroke="#ffffff" stroke-opacity="1" stroke-width="3.2"/>
<circle clip-path="url(#clip8302)" cx="1705.81" cy="1017.93" r="10" fill="#ffa478" fill-rule="evenodd" fill-opacity="1" stroke="#ffffff" stroke-opacity="1" stroke-width="3.2"/>
<circle clip-path="url(#clip8302)" cx="1738.34" cy="649.487" r="10" fill="#ffa478" fill-rule="evenodd" fill-opacity="1" stroke="#ffffff" stroke-opacity="1" stroke-width="3.2"/>
<circle clip-path="url(#clip8302)" cx="1770.86" cy="999.291" r="10" fill="#ffa478" fill-rule="evenodd" fill-opacity="1" stroke="#ffffff" stroke-opacity="1" stroke-width="3.2"/>
<circle clip-path="url(#clip8302)" cx="1803.39" cy="630.844" r="10" fill="#ffa478" fill-rule="evenodd" fill-opacity="1" stroke="#ffffff" stroke-opacity="1" stroke-width="3.2"/>
<circle clip-path="url(#clip8302)" cx="1835.92" cy="980.648" r="10" fill="#ffa478" fill-rule="evenodd" fill-opacity="1" stroke="#ffffff" stroke-opacity="1" stroke-width="3.2"/>
<circle clip-path="url(#clip8302)" cx="1868.44" cy="612.202" r="10" fill="#ffa478" fill-rule="evenodd" fill-opacity="1" stroke="#ffffff" stroke-opacity="1" stroke-width="3.2"/>
<circle clip-path="url(#clip8302)" cx="1900.97" cy="962.005" r="10" fill="#ffa478" fill-rule="evenodd" fill-opacity="1" stroke="#ffffff" stroke-opacity="1" stroke-width="3.2"/>
<circle clip-path="url(#clip8302)" cx="1933.49" cy="593.559" r="10" fill="#ffa478" fill-rule="evenodd" fill-opacity="1" stroke="#ffffff" stroke-opacity="1" stroke-width="3.2"/>
<circle clip-path="url(#clip8302)" cx="1966.02" cy="943.363" r="10" fill="#ffa478" fill-rule="evenodd" fill-opacity="1" stroke="#ffffff" stroke-opacity="1" stroke-width="3.2"/>
<circle clip-path="url(#clip8302)" cx="1998.55" cy="574.917" r="10" fill="#ffa478" fill-rule="evenodd" fill-opacity="1" stroke="#ffffff" stroke-opacity="1" stroke-width="3.2"/>
<circle clip-path="url(#clip8302)" cx="2031.07" cy="924.72" r="10" fill="#ffa478" fill-rule="evenodd" fill-opacity="1" stroke="#ffffff" stroke-opacity="1" stroke-width="3.2"/>
<circle clip-path="url(#clip8302)" cx="2063.6" cy="556.274" r="10" fill="#ffa478" fill-rule="evenodd" fill-opacity="1" stroke="#ffffff" stroke-opacity="1" stroke-width="3.2"/>
<circle clip-path="url(#clip8302)" cx="2096.12" cy="906.078" r="10" fill="#ffa478" fill-rule="evenodd" fill-opacity="1" stroke="#ffffff" stroke-opacity="1" stroke-width="3.2"/>
<circle clip-path="url(#clip8302)" cx="2128.65" cy="537.631" r="10" fill="#ffa478" fill-rule="evenodd" fill-opacity="1" stroke="#ffffff" stroke-opacity="1" stroke-width="3.2"/>
<circle clip-path="url(#clip8302)" cx="2161.18" cy="887.435" r="10" fill="#ffa478" fill-rule="evenodd" fill-opacity="1" stroke="#ffffff" stroke-opacity="1" stroke-width="3.2"/>
<circle clip-path="url(#clip8302)" cx="2193.7" cy="518.989" r="10" fill="#ffa478" fill-rule="evenodd" fill-opacity="1" stroke="#ffffff" stroke-opacity="1" stroke-width="3.2"/>
<circle clip-path="url(#clip8302)" cx="2226.23" cy="868.792" r="10" fill="#ffa478" fill-rule="evenodd" fill-opacity="1" stroke="#ffffff" stroke-opacity="1" stroke-width="3.2"/>
<circle clip-path="url(#clip8302)" cx="2258.76" cy="500.346" r="10" fill="#ffa478" fill-rule="evenodd" fill-opacity="1" stroke="#ffffff" stroke-opacity="1" stroke-width="3.2"/>
<circle clip-path="url(#clip8302)" cx="2291.28" cy="850.15" r="10" fill="#ffa478" fill-rule="evenodd" fill-opacity="1" stroke="#ffffff" stroke-opacity="1" stroke-width="3.2"/>
<path clip-path="url(#clip8300)" d="
M1971.25 312.204 L2280.76 312.204 L2280.76 130.764 L1971.25 130.764  Z
  " fill="#1e1e1e" fill-rule="evenodd" fill-opacity="1"/>
<polyline clip-path="url(#clip8300)" style="stroke:#ffffff; stroke-width:4; stroke-opacity:1; fill:none" points="
  1971.25,312.204 2280.76,312.204 2280.76,130.764 1971.25,130.764 1971.25,312.204 
  "/>
<polyline clip-path="url(#clip8300)" style="stroke:#14d0ff; stroke-width:8; stroke-opacity:1; fill:none" points="
  1995.25,191.244 2139.25,191.244 
  "/>
<circle clip-path="url(#clip8300)" cx="2079.25" cy="191.244" r="21" fill="#14d0ff" fill-rule="evenodd" fill-opacity="1" stroke="#ffffff" stroke-opacity="1" stroke-width="3.2"/>
<g clip-path="url(#clip8300)">
<text style="fill:#ffffff; fill-opacity:1; font-family:Arial,Helvetica Neue,Helvetica,sans-serif; font-size:48px; text-anchor:start;" transform="rotate(0, 2163.25, 208.744)" x="2163.25" y="208.744">r(t)</text>
</g>
<polyline clip-path="url(#clip8300)" style="stroke:#ffa478; stroke-width:8; stroke-opacity:1; fill:none" points="
  1995.25,251.724 2139.25,251.724 
  "/>
<circle clip-path="url(#clip8300)" cx="2079.25" cy="251.724" r="21" fill="#ffa478" fill-rule="evenodd" fill-opacity="1" stroke="#ffffff" stroke-opacity="1" stroke-width="3.2"/>
<g clip-path="url(#clip8300)">
<text style="fill:#ffffff; fill-opacity:1; font-family:Arial,Helvetica Neue,Helvetica,sans-serif; font-size:48px; text-anchor:start;" transform="rotate(0, 2163.25, 269.224)" x="2163.25" y="269.224">y(t)</text>
</g>
</svg>
