<?xml version="1.0" encoding="utf-8"?>
<svg xmlns="http://www.w3.org/2000/svg" xmlns:xlink="http://www.w3.org/1999/xlink" width="600" height="400" viewBox="0 0 2400 1600">
<defs>
  <clipPath id="clip6500">
    <rect x="0" y="0" width="2400" height="1600"/>
  </clipPath>
</defs>
<path clip-path="url(#clip6500)" d="
M0 1600 L2400 1600 L2400 0 L0 0  Z
  " fill="#1e1e1e" fill-rule="evenodd" fill-opacity="1"/>
<defs>
  <clipPath id="clip6501">
    <rect x="480" y="0" width="1681" height="1600"/>
  </clipPath>
</defs>
<path clip-path="url(#clip6500)" d="
M180.66 1487.47 L2352.76 1487.47 L2352.76 47.2441 L180.66 47.2441  Z
  " fill="#1e1e1e" fill-rule="evenodd" fill-opacity="1"/>
<defs>
  <clipPath id="clip6502">
    <rect x="180" y="47" width="2173" height="1441"/>
  </clipPath>
</defs>
<polyline clip-path="url(#clip6502)" style="stroke:#ffffff; stroke-width:2; stroke-opacity:0.1; fill:none" points="
  242.135,1487.47 242.135,47.2441 
  "/>
<polyline clip-path="url(#clip6502)" style="stroke:#ffffff; stroke-width:2; stroke-opacity:0.1; fill:none" points="
  762.553,1487.47 762.553,47.2441 
  "/>
<polyline clip-path="url(#clip6502)" style="stroke:#ffffff; stroke-width:2; stroke-opacity:0.1; fill:none" points="
  1282.97,1487.47 1282.97,47.2441 
  "/>
<polyline clip-path="url(#clip6502)" style="stroke:#ffffff; stroke-width:2; stroke-opacity:0.1; fill:none" points="
  1803.39,1487.47 1803.39,47.2441 
  "/>
<polyline clip-path="url(#clip6502)" style="stroke:#ffffff; stroke-width:2; stroke-opacity:0.1; fill:none" points="
  2323.81,1487.47 2323.81,47.2441 
  "/>
<polyline clip-path="url(#clip6502)" style="stroke:#ffffff; stroke-width:2; stroke-opacity:0.1; fill:none" points="
  180.66,1446.71 2352.76,1446.71 
  "/>
<polyline clip-path="url(#clip6502)" style="stroke:#ffffff; stroke-width:2; stroke-opacity:0.1; fill:none" points="
  180.66,1101.64 2352.76,1101.64 
  "/>
<polyline clip-path="url(#clip6502)" style="stroke:#ffffff; stroke-width:2; stroke-opacity:0.1; fill:none" points="
  180.66,756.576 2352.76,756.576 
  "/>
<polyline clip-path="url(#clip6502)" style="stroke:#ffffff; stroke-width:2; stroke-opacity:0.1; fill:none" points="
  180.66,411.507 2352.76,411.507 
  "/>
<polyline clip-path="url(#clip6502)" style="stroke:#ffffff; stroke-width:2; stroke-opacity:0.1; fill:none" points="
  180.66,66.4385 2352.76,66.4385 
  "/>
<polyline clip-path="url(#clip6500)" style="stroke:#ffffff; stroke-width:4; stroke-opacity:1; fill:none" points="
  180.66,1487.47 2352.76,1487.47 
  "/>
<polyline clip-path="url(#clip6500)" style="stroke:#ffffff; stroke-width:4; stroke-opacity:1; fill:none" points="
  180.66,1487.47 180.66,47.2441 
  "/>
<polyline clip-path="url(#clip6500)" style="stroke:#ffffff; stroke-width:4; stroke-opacity:1; fill:none" points="
  242.135,1487.47 242.135,1470.19 
  "/>
<polyline clip-path="url(#clip6500)" style="stroke:#ffffff; stroke-width:4; stroke-opacity:1; fill:none" points="
  762.553,1487.47 762.553,1470.19 
  "/>
<polyline clip-path="url(#clip6500)" style="stroke:#ffffff; stroke-width:4; stroke-opacity:1; fill:none" points="
  1282.97,1487.47 1282.97,1470.19 
  "/>
<polyline clip-path="url(#clip6500)" style="stroke:#ffffff; stroke-width:4; stroke-opacity:1; fill:none" points="
  1803.39,1487.47 1803.39,1470.19 
  "/>
<polyline clip-path="url(#clip6500)" style="stroke:#ffffff; stroke-width:4; stroke-opacity:1; fill:none" points="
  2323.81,1487.47 2323.81,1470.19 
  "/>
<polyline clip-path="url(#clip6500)" style="stroke:#ffffff; stroke-width:4; stroke-opacity:1; fill:none" points="
  180.66,1446.71 206.725,1446.71 
  "/>
<polyline clip-path="url(#clip6500)" style="stroke:#ffffff; stroke-width:4; stroke-opacity:1; fill:none" points="
  180.66,1101.64 206.725,1101.64 
  "/>
<polyline clip-path="url(#clip6500)" style="stroke:#ffffff; stroke-width:4; stroke-opacity:1; fill:none" points="
  180.66,756.576 206.725,756.576 
  "/>
<polyline clip-path="url(#clip6500)" style="stroke:#ffffff; stroke-width:4; stroke-opacity:1; fill:none" points="
  180.66,411.507 206.725,411.507 
  "/>
<polyline clip-path="url(#clip6500)" style="stroke:#ffffff; stroke-width:4; stroke-opacity:1; fill:none" points="
  180.66,66.4385 206.725,66.4385 
  "/>
<g clip-path="url(#clip6500)">
<text style="fill:#ffffff; fill-opacity:1; font-family:Arial,Helvetica Neue,Helvetica,sans-serif; font-size:48px; text-anchor:middle;" transform="rotate(0, 242.135, 1541.47)" x="242.135" y="1541.47">0.00</text>
</g>
<g clip-path="url(#clip6500)">
<text style="fill:#ffffff; fill-opacity:1; font-family:Arial,Helvetica Neue,Helvetica,sans-serif; font-size:48px; text-anchor:middle;" transform="rotate(0, 762.553, 1541.47)" x="762.553" y="1541.47">0.25</text>
</g>
<g clip-path="url(#clip6500)">
<text style="fill:#ffffff; fill-opacity:1; font-family:Arial,Helvetica Neue,Helvetica,sans-serif; font-size:48px; text-anchor:middle;" transform="rotate(0, 1282.97, 1541.47)" x="1282.97" y="1541.47">0.50</text>
</g>
<g clip-path="url(#clip6500)">
<text style="fill:#ffffff; fill-opacity:1; font-family:Arial,Helvetica Neue,Helvetica,sans-serif; font-size:48px; text-anchor:middle;" transform="rotate(0, 1803.39, 1541.47)" x="1803.39" y="1541.47">0.75</text>
</g>
<g clip-path="url(#clip6500)">
<text style="fill:#ffffff; fill-opacity:1; font-family:Arial,Helvetica Neue,Helvetica,sans-serif; font-size:48px; text-anchor:middle;" transform="rotate(0, 2323.81, 1541.47)" x="2323.81" y="1541.47">1.00</text>
</g>
<g clip-path="url(#clip6500)">
<text style="fill:#ffffff; fill-opacity:1; font-family:Arial,Helvetica Neue,Helvetica,sans-serif; font-size:48px; text-anchor:end;" transform="rotate(0, 156.66, 1464.21)" x="156.66" y="1464.21">0.00</text>
</g>
<g clip-path="url(#clip6500)">
<text style="fill:#ffffff; fill-opacity:1; font-family:Arial,Helvetica Neue,Helvetica,sans-serif; font-size:48px; text-anchor:end;" transform="rotate(0, 156.66, 1119.14)" x="156.66" y="1119.14">0.25</text>
</g>
<g clip-path="url(#clip6500)">
<text style="fill:#ffffff; fill-opacity:1; font-family:Arial,Helvetica Neue,Helvetica,sans-serif; font-size:48px; text-anchor:end;" transform="rotate(0, 156.66, 774.076)" x="156.66" y="774.076">0.50</text>
</g>
<g clip-path="url(#clip6500)">
<text style="fill:#ffffff; fill-opacity:1; font-family:Arial,Helvetica Neue,Helvetica,sans-serif; font-size:48px; text-anchor:end;" transform="rotate(0, 156.66, 429.007)" x="156.66" y="429.007">0.75</text>
</g>
<g clip-path="url(#clip6500)">
<text style="fill:#ffffff; fill-opacity:1; font-family:Arial,Helvetica Neue,Helvetica,sans-serif; font-size:48px; text-anchor:end;" transform="rotate(0, 156.66, 83.9385)" x="156.66" y="83.9385">1.00</text>
</g>
<polyline clip-path="url(#clip6502)" style="stroke:#14d0ff; stroke-width:8; stroke-opacity:1; fill:none" points="
  242.135,1446.71 274.661,1425.15 307.187,1403.58 339.713,1382.01 372.239,1360.45 404.765,1338.88 437.292,1317.31 469.818,1295.75 502.344,1274.18 534.87,1252.61 
  567.396,1231.05 599.922,1209.48 632.448,1187.91 664.975,1166.35 697.501,1144.78 730.027,1123.21 762.553,1101.64 795.079,1080.08 827.605,1058.51 860.131,1036.94 
  892.658,1015.38 925.184,993.811 957.71,972.244 990.236,950.677 1022.76,929.11 1055.29,907.544 1087.81,885.977 1120.34,864.41 1152.87,842.843 1185.39,821.276 
  1217.92,799.71 1250.45,778.143 1282.97,756.576 1315.5,735.009 1348.02,713.442 1380.55,691.876 1413.08,670.309 1445.6,648.742 1478.13,627.175 1510.65,605.608 
  1543.18,584.042 1575.71,562.475 1608.23,540.908 1640.76,519.341 1673.28,497.774 1705.81,476.208 1738.34,454.641 1770.86,433.074 1803.39,411.507 1835.92,389.94 
  1868.44,368.374 1900.97,346.807 1933.49,325.24 1966.02,303.673 1998.55,282.107 2031.07,260.54 2063.6,238.973 2096.12,217.406 2128.65,195.839 2161.18,174.273 
  2193.7,152.706 2226.23,131.139 2258.76,109.572 2291.28,88.0053 
  "/>
<circle clip-path="url(#clip6502)" cx="242.135" cy="1446.71" r="10" fill="#14d0ff" fill-rule="evenodd" fill-opacity="1" stroke="#ffffff" stroke-opacity="1" stroke-width="3.2"/>
<circle clip-path="url(#clip6502)" cx="274.661" cy="1425.15" r="10" fill="#14d0ff" fill-rule="evenodd" fill-opacity="1" stroke="#ffffff" stroke-opacity="1" stroke-width="3.2"/>
<circle clip-path="url(#clip6502)" cx="307.187" cy="1403.58" r="10" fill="#14d0ff" fill-rule="evenodd" fill-opacity="1" stroke="#ffffff" stroke-opacity="1" stroke-width="3.2"/>
<circle clip-path="url(#clip6502)" cx="339.713" cy="1382.01" r="10" fill="#14d0ff" fill-rule="evenodd" fill-opacity="1" stroke="#ffffff" stroke-opacity="1" stroke-width="3.2"/>
<circle clip-path="url(#clip6502)" cx="372.239" cy="1360.45" r="10" fill="#14d0ff" fill-rule="evenodd" fill-opacity="1" stroke="#ffffff" stroke-opacity="1" stroke-width="3.2"/>
<circle clip-path="url(#clip6502)" cx="404.765" cy="1338.88" r="10" fill="#14d0ff" fill-rule="evenodd" fill-opacity="1" stroke="#ffffff" stroke-opacity="1" stroke-width="3.2"/>
<circle clip-path="url(#clip6502)" cx="437.292" cy="1317.31" r="10" fill="#14d0ff" fill-rule="evenodd" fill-opacity="1" stroke="#ffffff" stroke-opacity="1" stroke-width="3.2"/>
<circle clip-path="url(#clip6502)" cx="469.818" cy="1295.75" r="10" fill="#14d0ff" fill-rule="evenodd" fill-opacity="1" stroke="#ffffff" stroke-opacity="1" stroke-width="3.2"/>
<circle clip-path="url(#clip6502)" cx="502.344" cy="1274.18" r="10" fill="#14d0ff" fill-rule="evenodd" fill-opacity="1" stroke="#ffffff" stroke-opacity="1" stroke-width="3.2"/>
<circle clip-path="url(#clip6502)" cx="534.87" cy="1252.61" r="10" fill="#14d0ff" fill-rule="evenodd" fill-opacity="1" stroke="#ffffff" stroke-opacity="1" stroke-width="3.2"/>
<circle clip-path="url(#clip6502)" cx="567.396" cy="1231.05" r="10" fill="#14d0ff" fill-rule="evenodd" fill-opacity="1" stroke="#ffffff" stroke-opacity="1" stroke-width="3.2"/>
<circle clip-path="url(#clip6502)" cx="599.922" cy="1209.48" r="10" fill="#14d0ff" fill-rule="evenodd" fill-opacity="1" stroke="#ffffff" stroke-opacity="1" stroke-width="3.2"/>
<circle clip-path="url(#clip6502)" cx="632.448" cy="1187.91" r="10" fill="#14d0ff" fill-rule="evenodd" fill-opacity="1" stroke="#ffffff" stroke-opacity="1" stroke-width="3.2"/>
<circle clip-path="url(#clip6502)" cx="664.975" cy="1166.35" r="10" fill="#14d0ff" fill-rule="evenodd" fill-opacity="1" stroke="#ffffff" stroke-opacity="1" stroke-width="3.2"/>
<circle clip-path="url(#clip6502)" cx="697.501" cy="1144.78" r="10" fill="#14d0ff" fill-rule="evenodd" fill-opacity="1" stroke="#ffffff" stroke-opacity="1" stroke-width="3.2"/>
<circle clip-path="url(#clip6502)" cx="730.027" cy="1123.21" r="10" fill="#14d0ff" fill-rule="evenodd" fill-opacity="1" stroke="#ffffff" stroke-opacity="1" stroke-width="3.2"/>
<circle clip-path="url(#clip6502)" cx="762.553" cy="1101.64" r="10" fill="#14d0ff" fill-rule="evenodd" fill-opacity="1" stroke="#ffffff" stroke-opacity="1" stroke-width="3.2"/>
<circle clip-path="url(#clip6502)" cx="795.079" cy="1080.08" r="10" fill="#14d0ff" fill-rule="evenodd" fill-opacity="1" stroke="#ffffff" stroke-opacity="1" stroke-width="3.2"/>
<circle clip-path="url(#clip6502)" cx="827.605" cy="1058.51" r="10" fill="#14d0ff" fill-rule="evenodd" fill-opacity="1" stroke="#ffffff" stroke-opacity="1" stroke-width="3.2"/>
<circle clip-path="url(#clip6502)" cx="860.131" cy="1036.94" r="10" fill="#14d0ff" fill-rule="evenodd" fill-opacity="1" stroke="#ffffff" stroke-opacity="1" stroke-width="3.2"/>
<circle clip-path="url(#clip6502)" cx="892.658" cy="1015.38" r="10" fill="#14d0ff" fill-rule="evenodd" fill-opacity="1" stroke="#ffffff" stroke-opacity="1" stroke-width="3.2"/>
<circle clip-path="url(#clip6502)" cx="925.184" cy="993.811" r="10" fill="#14d0ff" fill-rule="evenodd" fill-opacity="1" stroke="#ffffff" stroke-opacity="1" stroke-width="3.2"/>
<circle clip-path="url(#clip6502)" cx="957.71" cy="972.244" r="10" fill="#14d0ff" fill-rule="evenodd" fill-opacity="1" stroke="#ffffff" stroke-opacity="1" stroke-width="3.2"/>
<circle clip-path="url(#clip6502)" cx="990.236" cy="950.677" r="10" fill="#14d0ff" fill-rule="evenodd" fill-opacity="1" stroke="#ffffff" stroke-opacity="1" stroke-width="3.2"/>
<circle clip-path="url(#clip6502)" cx="1022.76" cy="929.11" r="10" fill="#14d0ff" fill-rule="evenodd" fill-opacity="1" stroke="#ffffff" stroke-opacity="1" stroke-width="3.2"/>
<circle clip-path="url(#clip6502)" cx="1055.29" cy="907.544" r="10" fill="#14d0ff" fill-rule="evenodd" fill-opacity="1" stroke="#ffffff" stroke-opacity="1" stroke-width="3.2"/>
<circle clip-path="url(#clip6502)" cx="1087.81" cy="885.977" r="10" fill="#14d0ff" fill-rule="evenodd" fill-opacity="1" stroke="#ffffff" stroke-opacity="1" stroke-width="3.2"/>
<circle clip-path="url(#clip6502)" cx="1120.34" cy="864.41" r="10" fill="#14d0ff" fill-rule="evenodd" fill-opacity="1" stroke="#ffffff" stroke-opacity="1" stroke-width="3.2"/>
<circle clip-path="url(#clip6502)" cx="1152.87" cy="842.843" r="10" fill="#14d0ff" fill-rule="evenodd" fill-opacity="1" stroke="#ffffff" stroke-opacity="1" stroke-width="3.2"/>
<circle clip-path="url(#clip6502)" cx="1185.39" cy="821.276" r="10" fill="#14d0ff" fill-rule="evenodd" fill-opacity="1" stroke="#ffffff" stroke-opacity="1" stroke-width="3.2"/>
<circle clip-path="url(#clip6502)" cx="1217.92" cy="799.71" r="10" fill="#14d0ff" fill-rule="evenodd" fill-opacity="1" stroke="#ffffff" stroke-opacity="1" stroke-width="3.2"/>
<circle clip-path="url(#clip6502)" cx="1250.45" cy="778.143" r="10" fill="#14d0ff" fill-rule="evenodd" fill-opacity="1" stroke="#ffffff" stroke-opacity="1" stroke-width="3.2"/>
<circle clip-path="url(#clip6502)" cx="1282.97" cy="756.576" r="10" fill="#14d0ff" fill-rule="evenodd" fill-opacity="1" stroke="#ffffff" stroke-opacity="1" stroke-width="3.2"/>
<circle clip-path="url(#clip6502)" cx="1315.5" cy="735.009" r="10" fill="#14d0ff" fill-rule="evenodd" fill-opacity="1" stroke="#ffffff" stroke-opacity="1" stroke-width="3.2"/>
<circle clip-path="url(#clip6502)" cx="1348.02" cy="713.442" r="10" fill="#14d0ff" fill-rule="evenodd" fill-opacity="1" stroke="#ffffff" stroke-opacity="1" stroke-width="3.2"/>
<circle clip-path="url(#clip6502)" cx="1380.55" cy="691.876" r="10" fill="#14d0ff" fill-rule="evenodd" fill-opacity="1" stroke="#ffffff" stroke-opacity="1" stroke-width="3.2"/>
<circle clip-path="url(#clip6502)" cx="1413.08" cy="670.309" r="10" fill="#14d0ff" fill-rule="evenodd" fill-opacity="1" stroke="#ffffff" stroke-opacity="1" stroke-width="3.2"/>
<circle clip-path="url(#clip6502)" cx="1445.6" cy="648.742" r="10" fill="#14d0ff" fill-rule="evenodd" fill-opacity="1" stroke="#ffffff" stroke-opacity="1" stroke-width="3.2"/>
<circle clip-path="url(#clip6502)" cx="1478.13" cy="627.175" r="10" fill="#14d0ff" fill-rule="evenodd" fill-opacity="1" stroke="#ffffff" stroke-opacity="1" stroke-width="3.2"/>
<circle clip-path="url(#clip6502)" cx="1510.65" cy="605.608" r="10" fill="#14d0ff" fill-rule="evenodd" fill-opacity="1" stroke="#ffffff" stroke-opacity="1" stroke-width="3.2"/>
<circle clip-path="url(#clip6502)" cx="1543.18" cy="584.042" r="10" fill="#14d0ff" fill-rule="evenodd" fill-opacity="1" stroke="#ffffff" stroke-opacity="1" stroke-width="3.2"/>
<circle clip-path="url(#clip6502)" cx="1575.71" cy="562.475" r="10" fill="#14d0ff" fill-rule="evenodd" fill-opacity="1" stroke="#ffffff" stroke-opacity="1" stroke-width="3.2"/>
<circle clip-path="url(#clip6502)" cx="1608.23" cy="540.908" r="10" fill="#14d0ff" fill-rule="evenodd" fill-opacity="1" stroke="#ffffff" stroke-opacity="1" stroke-width="3.2"/>
<circle clip-path="url(#clip6502)" cx="1640.76" cy="519.341" r="10" fill="#14d0ff" fill-rule="evenodd" fill-opacity="1" stroke="#ffffff" stroke-opacity="1" stroke-width="3.2"/>
<circle clip-path="url(#clip6502)" cx="1673.28" cy="497.774" r="10" fill="#14d0ff" fill-rule="evenodd" fill-opacity="1" stroke="#ffffff" stroke-opacity="1" stroke-width="3.2"/>
<circle clip-path="url(#clip6502)" cx="1705.81" cy="476.208" r="10" fill="#14d0ff" fill-rule="evenodd" fill-opacity="1" stroke="#ffffff" stroke-opacity="1" stroke-width="3.2"/>
<circle clip-path="url(#clip6502)" cx="1738.34" cy="454.641" r="10" fill="#14d0ff" fill-rule="evenodd" fill-opacity="1" stroke="#ffffff" stroke-opacity="1" stroke-width="3.2"/>
<circle clip-path="url(#clip6502)" cx="1770.86" cy="433.074" r="10" fill="#14d0ff" fill-rule="evenodd" fill-opacity="1" stroke="#ffffff" stroke-opacity="1" stroke-width="3.2"/>
<circle clip-path="url(#clip6502)" cx="1803.39" cy="411.507" r="10" fill="#14d0ff" fill-rule="evenodd" fill-opacity="1" stroke="#ffffff" stroke-opacity="1" stroke-width="3.2"/>
<circle clip-path="url(#clip6502)" cx="1835.92" cy="389.94" r="10" fill="#14d0ff" fill-rule="evenodd" fill-opacity="1" stroke="#ffffff" stroke-opacity="1" stroke-width="3.2"/>
<circle clip-path="url(#clip6502)" cx="1868.44" cy="368.374" r="10" fill="#14d0ff" fill-rule="evenodd" fill-opacity="1" stroke="#ffffff" stroke-opacity="1" stroke-width="3.2"/>
<circle clip-path="url(#clip6502)" cx="1900.97" cy="346.807" r="10" fill="#14d0ff" fill-rule="evenodd" fill-opacity="1" stroke="#ffffff" stroke-opacity="1" stroke-width="3.2"/>
<circle clip-path="url(#clip6502)" cx="1933.49" cy="325.24" r="10" fill="#14d0ff" fill-rule="evenodd" fill-opacity="1" stroke="#ffffff" stroke-opacity="1" stroke-width="3.2"/>
<circle clip-path="url(#clip6502)" cx="1966.02" cy="303.673" r="10" fill="#14d0ff" fill-rule="evenodd" fill-opacity="1" stroke="#ffffff" stroke-opacity="1" stroke-width="3.2"/>
<circle clip-path="url(#clip6502)" cx="1998.55" cy="282.107" r="10" fill="#14d0ff" fill-rule="evenodd" fill-opacity="1" stroke="#ffffff" stroke-opacity="1" stroke-width="3.2"/>
<circle clip-path="url(#clip6502)" cx="2031.07" cy="260.54" r="10" fill="#14d0ff" fill-rule="evenodd" fill-opacity="1" stroke="#ffffff" stroke-opacity="1" stroke-width="3.2"/>
<circle clip-path="url(#clip6502)" cx="2063.6" cy="238.973" r="10" fill="#14d0ff" fill-rule="evenodd" fill-opacity="1" stroke="#ffffff" stroke-opacity="1" stroke-width="3.2"/>
<circle clip-path="url(#clip6502)" cx="2096.12" cy="217.406" r="10" fill="#14d0ff" fill-rule="evenodd" fill-opacity="1" stroke="#ffffff" stroke-opacity="1" stroke-width="3.2"/>
<circle clip-path="url(#clip6502)" cx="2128.65" cy="195.839" r="10" fill="#14d0ff" fill-rule="evenodd" fill-opacity="1" stroke="#ffffff" stroke-opacity="1" stroke-width="3.2"/>
<circle clip-path="url(#clip6502)" cx="2161.18" cy="174.273" r="10" fill="#14d0ff" fill-rule="evenodd" fill-opacity="1" stroke="#ffffff" stroke-opacity="1" stroke-width="3.2"/>
<circle clip-path="url(#clip6502)" cx="2193.7" cy="152.706" r="10" fill="#14d0ff" fill-rule="evenodd" fill-opacity="1" stroke="#ffffff" stroke-opacity="1" stroke-width="3.2"/>
<circle clip-path="url(#clip6502)" cx="2226.23" cy="131.139" r="10" fill="#14d0ff" fill-rule="evenodd" fill-opacity="1" stroke="#ffffff" stroke-opacity="1" stroke-width="3.2"/>
<circle clip-path="url(#clip6502)" cx="2258.76" cy="109.572" r="10" fill="#14d0ff" fill-rule="evenodd" fill-opacity="1" stroke="#ffffff" stroke-opacity="1" stroke-width="3.2"/>
<circle clip-path="url(#clip6502)" cx="2291.28" cy="88.0053" r="10" fill="#14d0ff" fill-rule="evenodd" fill-opacity="1" stroke="#ffffff" stroke-opacity="1" stroke-width="3.2"/>
<polyline clip-path="url(#clip6502)" style="stroke:#ffa478; stroke-width:8; stroke-opacity:1; fill:none" points="
  242.135,1446.71 274.661,1425.15 307.187,1425.15 339.713,1403.58 372.239,1403.58 404.765,1382.01 437.292,1382.01 469.818,1360.45 502.344,1360.45 534.87,1338.88 
  567.396,1338.88 599.922,1317.31 632.448,1317.31 664.975,1295.75 697.501,1295.75 730.027,1274.18 762.553,1274.18 795.079,1252.61 827.605,1252.61 860.131,1231.05 
  892.658,1231.05 925.184,1209.48 957.71,1209.48 990.236,1187.91 1022.76,1187.91 1055.29,1166.35 1087.81,1166.35 1120.34,1144.78 1152.87,1144.78 1185.39,1123.21 
  1217.92,1123.21 1250.45,1101.64 1282.97,1101.64 1315.5,1080.08 1348.02,1080.08 1380.55,1058.51 1413.08,1058.51 1445.6,1036.94 1478.13,1036.94 1510.65,1015.38 
  1543.18,1015.38 1575.71,993.811 1608.23,993.811 1640.76,972.244 1673.28,972.244 1705.81,950.677 1738.34,950.677 1770.86,929.11 1803.39,929.11 1835.92,907.544 
  1868.44,907.544 1900.97,885.977 1933.49,885.977 1966.02,864.41 1998.55,864.41 2031.07,842.843 2063.6,842.843 2096.12,821.276 2128.65,821.276 2161.18,799.71 
  2193.7,799.71 2226.23,778.143 2258.76,778.143 2291.28,756.576 
  "/>
<circle clip-path="url(#clip6502)" cx="242.135" cy="1446.71" r="10" fill="#ffa478" fill-rule="evenodd" fill-opacity="1" stroke="#ffffff" stroke-opacity="1" stroke-width="3.2"/>
<circle clip-path="url(#clip6502)" cx="274.661" cy="1425.15" r="10" fill="#ffa478" fill-rule="evenodd" fill-opacity="1" stroke="#ffffff" stroke-opacity="1" stroke-width="3.2"/>
<circle clip-path="url(#clip6502)" cx="307.187" cy="1425.15" r="10" fill="#ffa478" fill-rule="evenodd" fill-opacity="1" stroke="#ffffff" stroke-opacity="1" stroke-width="3.2"/>
<circle clip-path="url(#clip6502)" cx="339.713" cy="1403.58" r="10" fill="#ffa478" fill-rule="evenodd" fill-opacity="1" stroke="#ffffff" stroke-opacity="1" stroke-width="3.2"/>
<circle clip-path="url(#clip6502)" cx="372.239" cy="1403.58" r="10" fill="#ffa478" fill-rule="evenodd" fill-opacity="1" stroke="#ffffff" stroke-opacity="1" stroke-width="3.2"/>
<circle clip-path="url(#clip6502)" cx="404.765" cy="1382.01" r="10" fill="#ffa478" fill-rule="evenodd" fill-opacity="1" stroke="#ffffff" stroke-opacity="1" stroke-width="3.2"/>
<circle clip-path="url(#clip6502)" cx="437.292" cy="1382.01" r="10" fill="#ffa478" fill-rule="evenodd" fill-opacity="1" stroke="#ffffff" stroke-opacity="1" stroke-width="3.2"/>
<circle clip-path="url(#clip6502)" cx="469.818" cy="1360.45" r="10" fill="#ffa478" fill-rule="evenodd" fill-opacity="1" stroke="#ffffff" stroke-opacity="1" stroke-width="3.2"/>
<circle clip-path="url(#clip6502)" cx="502.344" cy="1360.45" r="10" fill="#ffa478" fill-rule="evenodd" fill-opacity="1" stroke="#ffffff" stroke-opacity="1" stroke-width="3.2"/>
<circle clip-path="url(#clip6502)" cx="534.87" cy="1338.88" r="10" fill="#ffa478" fill-rule="evenodd" fill-opacity="1" stroke="#ffffff" stroke-opacity="1" stroke-width="3.2"/>
<circle clip-path="url(#clip6502)" cx="567.396" cy="1338.88" r="10" fill="#ffa478" fill-rule="evenodd" fill-opacity="1" stroke="#ffffff" stroke-opacity="1" stroke-width="3.2"/>
<circle clip-path="url(#clip6502)" cx="599.922" cy="1317.31" r="10" fill="#ffa478" fill-rule="evenodd" fill-opacity="1" stroke="#ffffff" stroke-opacity="1" stroke-width="3.2"/>
<circle clip-path="url(#clip6502)" cx="632.448" cy="1317.31" r="10" fill="#ffa478" fill-rule="evenodd" fill-opacity="1" stroke="#ffffff" stroke-opacity="1" stroke-width="3.2"/>
<circle clip-path="url(#clip6502)" cx="664.975" cy="1295.75" r="10" fill="#ffa478" fill-rule="evenodd" fill-opacity="1" stroke="#ffffff" stroke-opacity="1" stroke-width="3.2"/>
<circle clip-path="url(#clip6502)" cx="697.501" cy="1295.75" r="10" fill="#ffa478" fill-rule="evenodd" fill-opacity="1" stroke="#ffffff" stroke-opacity="1" stroke-width="3.2"/>
<circle clip-path="url(#clip6502)" cx="730.027" cy="1274.18" r="10" fill="#ffa478" fill-rule="evenodd" fill-opacity="1" stroke="#ffffff" stroke-opacity="1" stroke-width="3.2"/>
<circle clip-path="url(#clip6502)" cx="762.553" cy="1274.18" r="10" fill="#ffa478" fill-rule="evenodd" fill-opacity="1" stroke="#ffffff" stroke-opacity="1" stroke-width="3.2"/>
<circle clip-path="url(#clip6502)" cx="795.079" cy="1252.61" r="10" fill="#ffa478" fill-rule="evenodd" fill-opacity="1" stroke="#ffffff" stroke-opacity="1" stroke-width="3.2"/>
<circle clip-path="url(#clip6502)" cx="827.605" cy="1252.61" r="10" fill="#ffa478" fill-rule="evenodd" fill-opacity="1" stroke="#ffffff" stroke-opacity="1" stroke-width="3.2"/>
<circle clip-path="url(#clip6502)" cx="860.131" cy="1231.05" r="10" fill="#ffa478" fill-rule="evenodd" fill-opacity="1" stroke="#ffffff" stroke-opacity="1" stroke-width="3.2"/>
<circle clip-path="url(#clip6502)" cx="892.658" cy="1231.05" r="10" fill="#ffa478" fill-rule="evenodd" fill-opacity="1" stroke="#ffffff" stroke-opacity="1" stroke-width="3.2"/>
<circle clip-path="url(#clip6502)" cx="925.184" cy="1209.48" r="10" fill="#ffa478" fill-rule="evenodd" fill-opacity="1" stroke="#ffffff" stroke-opacity="1" stroke-width="3.2"/>
<circle clip-path="url(#clip6502)" cx="957.71" cy="1209.48" r="10" fill="#ffa478" fill-rule="evenodd" fill-opacity="1" stroke="#ffffff" stroke-opacity="1" stroke-width="3.2"/>
<circle clip-path="url(#clip6502)" cx="990.236" cy="1187.91" r="10" fill="#ffa478" fill-rule="evenodd" fill-opacity="1" stroke="#ffffff" stroke-opacity="1" stroke-width="3.2"/>
<circle clip-path="url(#clip6502)" cx="1022.76" cy="1187.91" r="10" fill="#ffa478" fill-rule="evenodd" fill-opacity="1" stroke="#ffffff" stroke-opacity="1" stroke-width="3.2"/>
<circle clip-path="url(#clip6502)" cx="1055.29" cy="1166.35" r="10" fill="#ffa478" fill-rule="evenodd" fill-opacity="1" stroke="#ffffff" stroke-opacity="1" stroke-width="3.2"/>
<circle clip-path="url(#clip6502)" cx="1087.81" cy="1166.35" r="10" fill="#ffa478" fill-rule="evenodd" fill-opacity="1" stroke="#ffffff" stroke-opacity="1" stroke-width="3.2"/>
<circle clip-path="url(#clip6502)" cx="1120.34" cy="1144.78" r="10" fill="#ffa478" fill-rule="evenodd" fill-opacity="1" stroke="#ffffff" stroke-opacity="1" stroke-width="3.2"/>
<circle clip-path="url(#clip6502)" cx="1152.87" cy="1144.78" r="10" fill="#ffa478" fill-rule="evenodd" fill-opacity="1" stroke="#ffffff" stroke-opacity="1" stroke-width="3.2"/>
<circle clip-path="url(#clip6502)" cx="1185.39" cy="1123.21" r="10" fill="#ffa478" fill-rule="evenodd" fill-opacity="1" stroke="#ffffff" stroke-opacity="1" stroke-width="3.2"/>
<circle clip-path="url(#clip6502)" cx="1217.92" cy="1123.21" r="10" fill="#ffa478" fill-rule="evenodd" fill-opacity="1" stroke="#ffffff" stroke-opacity="1" stroke-width="3.2"/>
<circle clip-path="url(#clip6502)" cx="1250.45" cy="1101.64" r="10" fill="#ffa478" fill-rule="evenodd" fill-opacity="1" stroke="#ffffff" stroke-opacity="1" stroke-width="3.2"/>
<circle clip-path="url(#clip6502)" cx="1282.97" cy="1101.64" r="10" fill="#ffa478" fill-rule="evenodd" fill-opacity="1" stroke="#ffffff" stroke-opacity="1" stroke-width="3.2"/>
<circle clip-path="url(#clip6502)" cx="1315.5" cy="1080.08" r="10" fill="#ffa478" fill-rule="evenodd" fill-opacity="1" stroke="#ffffff" stroke-opacity="1" stroke-width="3.2"/>
<circle clip-path="url(#clip6502)" cx="1348.02" cy="1080.08" r="10" fill="#ffa478" fill-rule="evenodd" fill-opacity="1" stroke="#ffffff" stroke-opacity="1" stroke-width="3.2"/>
<circle clip-path="url(#clip6502)" cx="1380.55" cy="1058.51" r="10" fill="#ffa478" fill-rule="evenodd" fill-opacity="1" stroke="#ffffff" stroke-opacity="1" stroke-width="3.2"/>
<circle clip-path="url(#clip6502)" cx="1413.08" cy="1058.51" r="10" fill="#ffa478" fill-rule="evenodd" fill-opacity="1" stroke="#ffffff" stroke-opacity="1" stroke-width="3.2"/>
<circle clip-path="url(#clip6502)" cx="1445.6" cy="1036.94" r="10" fill="#ffa478" fill-rule="evenodd" fill-opacity="1" stroke="#ffffff" stroke-opacity="1" stroke-width="3.2"/>
<circle clip-path="url(#clip6502)" cx="1478.13" cy="1036.94" r="10" fill="#ffa478" fill-rule="evenodd" fill-opacity="1" stroke="#ffffff" stroke-opacity="1" stroke-width="3.2"/>
<circle clip-path="url(#clip6502)" cx="1510.65" cy="1015.38" r="10" fill="#ffa478" fill-rule="evenodd" fill-opacity="1" stroke="#ffffff" stroke-opacity="1" stroke-width="3.2"/>
<circle clip-path="url(#clip6502)" cx="1543.18" cy="1015.38" r="10" fill="#ffa478" fill-rule="evenodd" fill-opacity="1" stroke="#ffffff" stroke-opacity="1" stroke-width="3.2"/>
<circle clip-path="url(#clip6502)" cx="1575.71" cy="993.811" r="10" fill="#ffa478" fill-rule="evenodd" fill-opacity="1" stroke="#ffffff" stroke-opacity="1" stroke-width="3.2"/>
<circle clip-path="url(#clip6502)" cx="1608.23" cy="993.811" r="10" fill="#ffa478" fill-rule="evenodd" fill-opacity="1" stroke="#ffffff" stroke-opacity="1" stroke-width="3.2"/>
<circle clip-path="url(#clip6502)" cx="1640.76" cy="972.244" r="10" fill="#ffa478" fill-rule="evenodd" fill-opacity="1" stroke="#ffffff" stroke-opacity="1" stroke-width="3.2"/>
<circle clip-path="url(#clip6502)" cx="1673.28" cy="972.244" r="10" fill="#ffa478" fill-rule="evenodd" fill-opacity="1" stroke="#ffffff" stroke-opacity="1" stroke-width="3.2"/>
<circle clip-path="url(#clip6502)" cx="1705.81" cy="950.677" r="10" fill="#ffa478" fill-rule="evenodd" fill-opacity="1" stroke="#ffffff" stroke-opacity="1" stroke-width="3.2"/>
<circle clip-path="url(#clip6502)" cx="1738.34" cy="950.677" r="10" fill="#ffa478" fill-rule="evenodd" fill-opacity="1" stroke="#ffffff" stroke-opacity="1" stroke-width="3.2"/>
<circle clip-path="url(#clip6502)" cx="1770.86" cy="929.11" r="10" fill="#ffa478" fill-rule="evenodd" fill-opacity="1" stroke="#ffffff" stroke-opacity="1" stroke-width="3.2"/>
<circle clip-path="url(#clip6502)" cx="1803.39" cy="929.11" r="10" fill="#ffa478" fill-rule="evenodd" fill-opacity="1" stroke="#ffffff" stroke-opacity="1" stroke-width="3.2"/>
<circle clip-path="url(#clip6502)" cx="1835.92" cy="907.544" r="10" fill="#ffa478" fill-rule="evenodd" fill-opacity="1" stroke="#ffffff" stroke-opacity="1" stroke-width="3.2"/>
<circle clip-path="url(#clip6502)" cx="1868.44" cy="907.544" r="10" fill="#ffa478" fill-rule="evenodd" fill-opacity="1" stroke="#ffffff" stroke-opacity="1" stroke-width="3.2"/>
<circle clip-path="url(#clip6502)" cx="1900.97" cy="885.977" r="10" fill="#ffa478" fill-rule="evenodd" fill-opacity="1" stroke="#ffffff" stroke-opacity="1" stroke-width="3.2"/>
<circle clip-path="url(#clip6502)" cx="1933.49" cy="885.977" r="10" fill="#ffa478" fill-rule="evenodd" fill-opacity="1" stroke="#ffffff" stroke-opacity="1" stroke-width="3.2"/>
<circle clip-path="url(#clip6502)" cx="1966.02" cy="864.41" r="10" fill="#ffa478" fill-rule="evenodd" fill-opacity="1" stroke="#ffffff" stroke-opacity="1" stroke-width="3.2"/>
<circle clip-path="url(#clip6502)" cx="1998.55" cy="864.41" r="10" fill="#ffa478" fill-rule="evenodd" fill-opacity="1" stroke="#ffffff" stroke-opacity="1" stroke-width="3.2"/>
<circle clip-path="url(#clip6502)" cx="2031.07" cy="842.843" r="10" fill="#ffa478" fill-rule="evenodd" fill-opacity="1" stroke="#ffffff" stroke-opacity="1" stroke-width="3.2"/>
<circle clip-path="url(#clip6502)" cx="2063.6" cy="842.843" r="10" fill="#ffa478" fill-rule="evenodd" fill-opacity="1" stroke="#ffffff" stroke-opacity="1" stroke-width="3.2"/>
<circle clip-path="url(#clip6502)" cx="2096.12" cy="821.276" r="10" fill="#ffa478" fill-rule="evenodd" fill-opacity="1" stroke="#ffffff" stroke-opacity="1" stroke-width="3.2"/>
<circle clip-path="url(#clip6502)" cx="2128.65" cy="821.276" r="10" fill="#ffa478" fill-rule="evenodd" fill-opacity="1" stroke="#ffffff" stroke-opacity="1" stroke-width="3.2"/>
<circle clip-path="url(#clip6502)" cx="2161.18" cy="799.71" r="10" fill="#ffa478" fill-rule="evenodd" fill-opacity="1" stroke="#ffffff" stroke-opacity="1" stroke-width="3.2"/>
<circle clip-path="url(#clip6502)" cx="2193.7" cy="799.71" r="10" fill="#ffa478" fill-rule="evenodd" fill-opacity="1" stroke="#ffffff" stroke-opacity="1" stroke-width="3.2"/>
<circle clip-path="url(#clip6502)" cx="2226.23" cy="778.143" r="10" fill="#ffa478" fill-rule="evenodd" fill-opacity="1" stroke="#ffffff" stroke-opacity="1" stroke-width="3.2"/>
<circle clip-path="url(#clip6502)" cx="2258.76" cy="778.143" r="10" fill="#ffa478" fill-rule="evenodd" fill-opacity="1" stroke="#ffffff" stroke-opacity="1" stroke-width="3.2"/>
<circle clip-path="url(#clip6502)" cx="2291.28" cy="756.576" r="10" fill="#ffa478" fill-rule="evenodd" fill-opacity="1" stroke="#ffffff" stroke-opacity="1" stroke-width="3.2"/>
<path clip-path="url(#clip6500)" d="
M1971.25 312.204 L2280.76 312.204 L2280.76 130.764 L1971.25 130.764  Z
  " fill="#1e1e1e" fill-rule="evenodd" fill-opacity="1"/>
<polyline clip-path="url(#clip6500)" style="stroke:#ffffff; stroke-width:4; stroke-opacity:1; fill:none" points="
  1971.25,312.204 2280.76,312.204 2280.76,130.764 1971.25,130.764 1971.25,312.204 
  "/>
<polyline clip-path="url(#clip6500)" style="stroke:#14d0ff; stroke-width:8; stroke-opacity:1; fill:none" points="
  1995.25,191.244 2139.25,191.244 
  "/>
<circle clip-path="url(#clip6500)" cx="2079.25" cy="191.244" r="21" fill="#14d0ff" fill-rule="evenodd" fill-opacity="1" stroke="#ffffff" stroke-opacity="1" stroke-width="3.2"/>
<g clip-path="url(#clip6500)">
<text style="fill:#ffffff; fill-opacity:1; font-family:Arial,Helvetica Neue,Helvetica,sans-serif; font-size:48px; text-anchor:start;" transform="rotate(0, 2163.25, 208.744)" x="2163.25" y="208.744">r(t)</text>
</g>
<polyline clip-path="url(#clip6500)" style="stroke:#ffa478; stroke-width:8; stroke-opacity:1; fill:none" points="
  1995.25,251.724 2139.25,251.724 
  "/>
<circle clip-path="url(#clip6500)" cx="2079.25" cy="251.724" r="21" fill="#ffa478" fill-rule="evenodd" fill-opacity="1" stroke="#ffffff" stroke-opacity="1" stroke-width="3.2"/>
<g clip-path="url(#clip6500)">
<text style="fill:#ffffff; fill-opacity:1; font-family:Arial,Helvetica Neue,Helvetica,sans-serif; font-size:48px; text-anchor:start;" transform="rotate(0, 2163.25, 269.224)" x="2163.25" y="269.224">y(t)</text>
</g>
</svg>
