<?xml version="1.0" encoding="utf-8"?>
<svg xmlns="http://www.w3.org/2000/svg" xmlns:xlink="http://www.w3.org/1999/xlink" width="600" height="400" viewBox="0 0 2400 1600">
<defs>
  <clipPath id="clip6800">
    <rect x="0" y="0" width="2400" height="1600"/>
  </clipPath>
</defs>
<path clip-path="url(#clip6800)" d="
M0 1600 L2400 1600 L2400 0 L0 0  Z
  " fill="#1e1e1e" fill-rule="evenodd" fill-opacity="1"/>
<defs>
  <clipPath id="clip6801">
    <rect x="480" y="0" width="1681" height="1600"/>
  </clipPath>
</defs>
<path clip-path="url(#clip6800)" d="
M182.008 1487.47 L2352.76 1487.47 L2352.76 47.2441 L182.008 47.2441  Z
  " fill="#1e1e1e" fill-rule="evenodd" fill-opacity="1"/>
<defs>
  <clipPath id="clip6802">
    <rect x="182" y="47" width="2172" height="1441"/>
  </clipPath>
</defs>
<polyline clip-path="url(#clip6802)" style="stroke:#ffffff; stroke-width:2; stroke-opacity:0.1; fill:none" points="
  243.444,1487.47 243.444,47.2441 
  "/>
<polyline clip-path="url(#clip6802)" style="stroke:#ffffff; stroke-width:2; stroke-opacity:0.1; fill:none" points="
  763.54,1487.47 763.54,47.2441 
  "/>
<polyline clip-path="url(#clip6802)" style="stroke:#ffffff; stroke-width:2; stroke-opacity:0.1; fill:none" points="
  1283.63,1487.47 1283.63,47.2441 
  "/>
<polyline clip-path="url(#clip6802)" style="stroke:#ffffff; stroke-width:2; stroke-opacity:0.1; fill:none" points="
  1803.73,1487.47 1803.73,47.2441 
  "/>
<polyline clip-path="url(#clip6802)" style="stroke:#ffffff; stroke-width:2; stroke-opacity:0.1; fill:none" points="
  2323.83,1487.47 2323.83,47.2441 
  "/>
<polyline clip-path="url(#clip6802)" style="stroke:#ffffff; stroke-width:2; stroke-opacity:0.1; fill:none" points="
  182.008,1311.91 2352.76,1311.91 
  "/>
<polyline clip-path="url(#clip6802)" style="stroke:#ffffff; stroke-width:2; stroke-opacity:0.1; fill:none" points="
  182.008,1026.04 2352.76,1026.04 
  "/>
<polyline clip-path="url(#clip6802)" style="stroke:#ffffff; stroke-width:2; stroke-opacity:0.1; fill:none" points="
  182.008,740.16 2352.76,740.16 
  "/>
<polyline clip-path="url(#clip6802)" style="stroke:#ffffff; stroke-width:2; stroke-opacity:0.1; fill:none" points="
  182.008,454.284 2352.76,454.284 
  "/>
<polyline clip-path="url(#clip6802)" style="stroke:#ffffff; stroke-width:2; stroke-opacity:0.1; fill:none" points="
  182.008,168.408 2352.76,168.408 
  "/>
<polyline clip-path="url(#clip6800)" style="stroke:#ffffff; stroke-width:4; stroke-opacity:1; fill:none" points="
  182.008,1487.47 2352.76,1487.47 
  "/>
<polyline clip-path="url(#clip6800)" style="stroke:#ffffff; stroke-width:4; stroke-opacity:1; fill:none" points="
  182.008,1487.47 182.008,47.2441 
  "/>
<polyline clip-path="url(#clip6800)" style="stroke:#ffffff; stroke-width:4; stroke-opacity:1; fill:none" points="
  243.444,1487.47 243.444,1470.19 
  "/>
<polyline clip-path="url(#clip6800)" style="stroke:#ffffff; stroke-width:4; stroke-opacity:1; fill:none" points="
  763.54,1487.47 763.54,1470.19 
  "/>
<polyline clip-path="url(#clip6800)" style="stroke:#ffffff; stroke-width:4; stroke-opacity:1; fill:none" points="
  1283.63,1487.47 1283.63,1470.19 
  "/>
<polyline clip-path="url(#clip6800)" style="stroke:#ffffff; stroke-width:4; stroke-opacity:1; fill:none" points="
  1803.73,1487.47 1803.73,1470.19 
  "/>
<polyline clip-path="url(#clip6800)" style="stroke:#ffffff; stroke-width:4; stroke-opacity:1; fill:none" points="
  2323.83,1487.47 2323.83,1470.19 
  "/>
<polyline clip-path="url(#clip6800)" style="stroke:#ffffff; stroke-width:4; stroke-opacity:1; fill:none" points="
  182.008,1311.91 208.057,1311.91 
  "/>
<polyline clip-path="url(#clip6800)" style="stroke:#ffffff; stroke-width:4; stroke-opacity:1; fill:none" points="
  182.008,1026.04 208.057,1026.04 
  "/>
<polyline clip-path="url(#clip6800)" style="stroke:#ffffff; stroke-width:4; stroke-opacity:1; fill:none" points="
  182.008,740.16 208.057,740.16 
  "/>
<polyline clip-path="url(#clip6800)" style="stroke:#ffffff; stroke-width:4; stroke-opacity:1; fill:none" points="
  182.008,454.284 208.057,454.284 
  "/>
<polyline clip-path="url(#clip6800)" style="stroke:#ffffff; stroke-width:4; stroke-opacity:1; fill:none" points="
  182.008,168.408 208.057,168.408 
  "/>
<g clip-path="url(#clip6800)">
<text style="fill:#ffffff; fill-opacity:1; font-family:Arial,Helvetica Neue,Helvetica,sans-serif; font-size:48px; text-anchor:middle;" transform="rotate(0, 243.444, 1541.47)" x="243.444" y="1541.47">0.00</text>
</g>
<g clip-path="url(#clip6800)">
<text style="fill:#ffffff; fill-opacity:1; font-family:Arial,Helvetica Neue,Helvetica,sans-serif; font-size:48px; text-anchor:middle;" transform="rotate(0, 763.54, 1541.47)" x="763.54" y="1541.47">0.25</text>
</g>
<g clip-path="url(#clip6800)">
<text style="fill:#ffffff; fill-opacity:1; font-family:Arial,Helvetica Neue,Helvetica,sans-serif; font-size:48px; text-anchor:middle;" transform="rotate(0, 1283.63, 1541.47)" x="1283.63" y="1541.47">0.50</text>
</g>
<g clip-path="url(#clip6800)">
<text style="fill:#ffffff; fill-opacity:1; font-family:Arial,Helvetica Neue,Helvetica,sans-serif; font-size:48px; text-anchor:middle;" transform="rotate(0, 1803.73, 1541.47)" x="1803.73" y="1541.47">0.75</text>
</g>
<g clip-path="url(#clip6800)">
<text style="fill:#ffffff; fill-opacity:1; font-family:Arial,Helvetica Neue,Helvetica,sans-serif; font-size:48px; text-anchor:middle;" transform="rotate(0, 2323.83, 1541.47)" x="2323.83" y="1541.47">1.00</text>
</g>
<g clip-path="url(#clip6800)">
<text style="fill:#ffffff; fill-opacity:1; font-family:Arial,Helvetica Neue,Helvetica,sans-serif; font-size:48px; text-anchor:end;" transform="rotate(0, 158.008, 1329.41)" x="158.008" y="1329.41">-0.3</text>
</g>
<g clip-path="url(#clip6800)">
<text style="fill:#ffffff; fill-opacity:1; font-family:Arial,Helvetica Neue,Helvetica,sans-serif; font-size:48px; text-anchor:end;" transform="rotate(0, 158.008, 1043.54)" x="158.008" y="1043.54">0.0</text>
</g>
<g clip-path="url(#clip6800)">
<text style="fill:#ffffff; fill-opacity:1; font-family:Arial,Helvetica Neue,Helvetica,sans-serif; font-size:48px; text-anchor:end;" transform="rotate(0, 158.008, 757.66)" x="158.008" y="757.66">0.3</text>
</g>
<g clip-path="url(#clip6800)">
<text style="fill:#ffffff; fill-opacity:1; font-family:Arial,Helvetica Neue,Helvetica,sans-serif; font-size:48px; text-anchor:end;" transform="rotate(0, 158.008, 471.784)" x="158.008" y="471.784">0.6</text>
</g>
<g clip-path="url(#clip6800)">
<text style="fill:#ffffff; fill-opacity:1; font-family:Arial,Helvetica Neue,Helvetica,sans-serif; font-size:48px; text-anchor:end;" transform="rotate(0, 158.008, 185.908)" x="158.008" y="185.908">0.9</text>
</g>
<polyline clip-path="url(#clip6802)" style="stroke:#14d0ff; stroke-width:8; stroke-opacity:1; fill:none" points="
  243.444,1026.04 275.95,1011.15 308.456,996.258 340.962,981.368 373.468,966.479 405.974,951.589 438.48,936.7 470.986,921.811 503.492,906.921 535.998,892.032 
  568.504,877.143 601.01,862.253 633.516,847.364 666.022,832.474 698.528,817.585 731.034,802.696 763.54,787.806 796.046,772.917 828.552,758.027 861.058,743.138 
  893.563,728.249 926.069,713.359 958.575,698.47 991.081,683.581 1023.59,668.691 1056.09,653.802 1088.6,638.912 1121.11,624.023 1153.61,609.134 1186.12,594.244 
  1218.62,579.355 1251.13,564.466 1283.63,549.576 1316.14,534.687 1348.65,519.797 1381.15,504.908 1413.66,490.019 1446.16,475.129 1478.67,460.24 1511.18,445.35 
  1543.68,430.461 1576.19,415.572 1608.69,400.682 1641.2,385.793 1673.71,370.904 1706.21,356.014 1738.72,341.125 1771.22,326.235 1803.73,311.346 1836.24,296.457 
  1868.74,281.567 1901.25,266.678 1933.75,251.789 1966.26,236.899 1998.77,222.01 2031.27,207.12 2063.78,192.231 2096.28,177.342 2128.79,162.452 2161.3,147.563 
  2193.8,132.673 2226.31,117.784 2258.81,102.895 2291.32,88.0053 
  "/>
<circle clip-path="url(#clip6802)" cx="243.444" cy="1026.04" r="10" fill="#14d0ff" fill-rule="evenodd" fill-opacity="1" stroke="#ffffff" stroke-opacity="1" stroke-width="3.2"/>
<circle clip-path="url(#clip6802)" cx="275.95" cy="1011.15" r="10" fill="#14d0ff" fill-rule="evenodd" fill-opacity="1" stroke="#ffffff" stroke-opacity="1" stroke-width="3.2"/>
<circle clip-path="url(#clip6802)" cx="308.456" cy="996.258" r="10" fill="#14d0ff" fill-rule="evenodd" fill-opacity="1" stroke="#ffffff" stroke-opacity="1" stroke-width="3.2"/>
<circle clip-path="url(#clip6802)" cx="340.962" cy="981.368" r="10" fill="#14d0ff" fill-rule="evenodd" fill-opacity="1" stroke="#ffffff" stroke-opacity="1" stroke-width="3.2"/>
<circle clip-path="url(#clip6802)" cx="373.468" cy="966.479" r="10" fill="#14d0ff" fill-rule="evenodd" fill-opacity="1" stroke="#ffffff" stroke-opacity="1" stroke-width="3.2"/>
<circle clip-path="url(#clip6802)" cx="405.974" cy="951.589" r="10" fill="#14d0ff" fill-rule="evenodd" fill-opacity="1" stroke="#ffffff" stroke-opacity="1" stroke-width="3.2"/>
<circle clip-path="url(#clip6802)" cx="438.48" cy="936.7" r="10" fill="#14d0ff" fill-rule="evenodd" fill-opacity="1" stroke="#ffffff" stroke-opacity="1" stroke-width="3.2"/>
<circle clip-path="url(#clip6802)" cx="470.986" cy="921.811" r="10" fill="#14d0ff" fill-rule="evenodd" fill-opacity="1" stroke="#ffffff" stroke-opacity="1" stroke-width="3.2"/>
<circle clip-path="url(#clip6802)" cx="503.492" cy="906.921" r="10" fill="#14d0ff" fill-rule="evenodd" fill-opacity="1" stroke="#ffffff" stroke-opacity="1" stroke-width="3.2"/>
<circle clip-path="url(#clip6802)" cx="535.998" cy="892.032" r="10" fill="#14d0ff" fill-rule="evenodd" fill-opacity="1" stroke="#ffffff" stroke-opacity="1" stroke-width="3.2"/>
<circle clip-path="url(#clip6802)" cx="568.504" cy="877.143" r="10" fill="#14d0ff" fill-rule="evenodd" fill-opacity="1" stroke="#ffffff" stroke-opacity="1" stroke-width="3.2"/>
<circle clip-path="url(#clip6802)" cx="601.01" cy="862.253" r="10" fill="#14d0ff" fill-rule="evenodd" fill-opacity="1" stroke="#ffffff" stroke-opacity="1" stroke-width="3.2"/>
<circle clip-path="url(#clip6802)" cx="633.516" cy="847.364" r="10" fill="#14d0ff" fill-rule="evenodd" fill-opacity="1" stroke="#ffffff" stroke-opacity="1" stroke-width="3.2"/>
<circle clip-path="url(#clip6802)" cx="666.022" cy="832.474" r="10" fill="#14d0ff" fill-rule="evenodd" fill-opacity="1" stroke="#ffffff" stroke-opacity="1" stroke-width="3.2"/>
<circle clip-path="url(#clip6802)" cx="698.528" cy="817.585" r="10" fill="#14d0ff" fill-rule="evenodd" fill-opacity="1" stroke="#ffffff" stroke-opacity="1" stroke-width="3.2"/>
<circle clip-path="url(#clip6802)" cx="731.034" cy="802.696" r="10" fill="#14d0ff" fill-rule="evenodd" fill-opacity="1" stroke="#ffffff" stroke-opacity="1" stroke-width="3.2"/>
<circle clip-path="url(#clip6802)" cx="763.54" cy="787.806" r="10" fill="#14d0ff" fill-rule="evenodd" fill-opacity="1" stroke="#ffffff" stroke-opacity="1" stroke-width="3.2"/>
<circle clip-path="url(#clip6802)" cx="796.046" cy="772.917" r="10" fill="#14d0ff" fill-rule="evenodd" fill-opacity="1" stroke="#ffffff" stroke-opacity="1" stroke-width="3.2"/>
<circle clip-path="url(#clip6802)" cx="828.552" cy="758.027" r="10" fill="#14d0ff" fill-rule="evenodd" fill-opacity="1" stroke="#ffffff" stroke-opacity="1" stroke-width="3.2"/>
<circle clip-path="url(#clip6802)" cx="861.058" cy="743.138" r="10" fill="#14d0ff" fill-rule="evenodd" fill-opacity="1" stroke="#ffffff" stroke-opacity="1" stroke-width="3.2"/>
<circle clip-path="url(#clip6802)" cx="893.563" cy="728.249" r="10" fill="#14d0ff" fill-rule="evenodd" fill-opacity="1" stroke="#ffffff" stroke-opacity="1" stroke-width="3.2"/>
<circle clip-path="url(#clip6802)" cx="926.069" cy="713.359" r="10" fill="#14d0ff" fill-rule="evenodd" fill-opacity="1" stroke="#ffffff" stroke-opacity="1" stroke-width="3.2"/>
<circle clip-path="url(#clip6802)" cx="958.575" cy="698.47" r="10" fill="#14d0ff" fill-rule="evenodd" fill-opacity="1" stroke="#ffffff" stroke-opacity="1" stroke-width="3.2"/>
<circle clip-path="url(#clip6802)" cx="991.081" cy="683.581" r="10" fill="#14d0ff" fill-rule="evenodd" fill-opacity="1" stroke="#ffffff" stroke-opacity="1" stroke-width="3.2"/>
<circle clip-path="url(#clip6802)" cx="1023.59" cy="668.691" r="10" fill="#14d0ff" fill-rule="evenodd" fill-opacity="1" stroke="#ffffff" stroke-opacity="1" stroke-width="3.2"/>
<circle clip-path="url(#clip6802)" cx="1056.09" cy="653.802" r="10" fill="#14d0ff" fill-rule="evenodd" fill-opacity="1" stroke="#ffffff" stroke-opacity="1" stroke-width="3.2"/>
<circle clip-path="url(#clip6802)" cx="1088.6" cy="638.912" r="10" fill="#14d0ff" fill-rule="evenodd" fill-opacity="1" stroke="#ffffff" stroke-opacity="1" stroke-width="3.2"/>
<circle clip-path="url(#clip6802)" cx="1121.11" cy="624.023" r="10" fill="#14d0ff" fill-rule="evenodd" fill-opacity="1" stroke="#ffffff" stroke-opacity="1" stroke-width="3.2"/>
<circle clip-path="url(#clip6802)" cx="1153.61" cy="609.134" r="10" fill="#14d0ff" fill-rule="evenodd" fill-opacity="1" stroke="#ffffff" stroke-opacity="1" stroke-width="3.2"/>
<circle clip-path="url(#clip6802)" cx="1186.12" cy="594.244" r="10" fill="#14d0ff" fill-rule="evenodd" fill-opacity="1" stroke="#ffffff" stroke-opacity="1" stroke-width="3.2"/>
<circle clip-path="url(#clip6802)" cx="1218.62" cy="579.355" r="10" fill="#14d0ff" fill-rule="evenodd" fill-opacity="1" stroke="#ffffff" stroke-opacity="1" stroke-width="3.2"/>
<circle clip-path="url(#clip6802)" cx="1251.13" cy="564.466" r="10" fill="#14d0ff" fill-rule="evenodd" fill-opacity="1" stroke="#ffffff" stroke-opacity="1" stroke-width="3.2"/>
<circle clip-path="url(#clip6802)" cx="1283.63" cy="549.576" r="10" fill="#14d0ff" fill-rule="evenodd" fill-opacity="1" stroke="#ffffff" stroke-opacity="1" stroke-width="3.2"/>
<circle clip-path="url(#clip6802)" cx="1316.14" cy="534.687" r="10" fill="#14d0ff" fill-rule="evenodd" fill-opacity="1" stroke="#ffffff" stroke-opacity="1" stroke-width="3.2"/>
<circle clip-path="url(#clip6802)" cx="1348.65" cy="519.797" r="10" fill="#14d0ff" fill-rule="evenodd" fill-opacity="1" stroke="#ffffff" stroke-opacity="1" stroke-width="3.2"/>
<circle clip-path="url(#clip6802)" cx="1381.15" cy="504.908" r="10" fill="#14d0ff" fill-rule="evenodd" fill-opacity="1" stroke="#ffffff" stroke-opacity="1" stroke-width="3.2"/>
<circle clip-path="url(#clip6802)" cx="1413.66" cy="490.019" r="10" fill="#14d0ff" fill-rule="evenodd" fill-opacity="1" stroke="#ffffff" stroke-opacity="1" stroke-width="3.2"/>
<circle clip-path="url(#clip6802)" cx="1446.16" cy="475.129" r="10" fill="#14d0ff" fill-rule="evenodd" fill-opacity="1" stroke="#ffffff" stroke-opacity="1" stroke-width="3.2"/>
<circle clip-path="url(#clip6802)" cx="1478.67" cy="460.24" r="10" fill="#14d0ff" fill-rule="evenodd" fill-opacity="1" stroke="#ffffff" stroke-opacity="1" stroke-width="3.2"/>
<circle clip-path="url(#clip6802)" cx="1511.18" cy="445.35" r="10" fill="#14d0ff" fill-rule="evenodd" fill-opacity="1" stroke="#ffffff" stroke-opacity="1" stroke-width="3.2"/>
<circle clip-path="url(#clip6802)" cx="1543.68" cy="430.461" r="10" fill="#14d0ff" fill-rule="evenodd" fill-opacity="1" stroke="#ffffff" stroke-opacity="1" stroke-width="3.2"/>
<circle clip-path="url(#clip6802)" cx="1576.19" cy="415.572" r="10" fill="#14d0ff" fill-rule="evenodd" fill-opacity="1" stroke="#ffffff" stroke-opacity="1" stroke-width="3.2"/>
<circle clip-path="url(#clip6802)" cx="1608.69" cy="400.682" r="10" fill="#14d0ff" fill-rule="evenodd" fill-opacity="1" stroke="#ffffff" stroke-opacity="1" stroke-width="3.2"/>
<circle clip-path="url(#clip6802)" cx="1641.2" cy="385.793" r="10" fill="#14d0ff" fill-rule="evenodd" fill-opacity="1" stroke="#ffffff" stroke-opacity="1" stroke-width="3.2"/>
<circle clip-path="url(#clip6802)" cx="1673.71" cy="370.904" r="10" fill="#14d0ff" fill-rule="evenodd" fill-opacity="1" stroke="#ffffff" stroke-opacity="1" stroke-width="3.2"/>
<circle clip-path="url(#clip6802)" cx="1706.21" cy="356.014" r="10" fill="#14d0ff" fill-rule="evenodd" fill-opacity="1" stroke="#ffffff" stroke-opacity="1" stroke-width="3.2"/>
<circle clip-path="url(#clip6802)" cx="1738.72" cy="341.125" r="10" fill="#14d0ff" fill-rule="evenodd" fill-opacity="1" stroke="#ffffff" stroke-opacity="1" stroke-width="3.2"/>
<circle clip-path="url(#clip6802)" cx="1771.22" cy="326.235" r="10" fill="#14d0ff" fill-rule="evenodd" fill-opacity="1" stroke="#ffffff" stroke-opacity="1" stroke-width="3.2"/>
<circle clip-path="url(#clip6802)" cx="1803.73" cy="311.346" r="10" fill="#14d0ff" fill-rule="evenodd" fill-opacity="1" stroke="#ffffff" stroke-opacity="1" stroke-width="3.2"/>
<circle clip-path="url(#clip6802)" cx="1836.24" cy="296.457" r="10" fill="#14d0ff" fill-rule="evenodd" fill-opacity="1" stroke="#ffffff" stroke-opacity="1" stroke-width="3.2"/>
<circle clip-path="url(#clip6802)" cx="1868.74" cy="281.567" r="10" fill="#14d0ff" fill-rule="evenodd" fill-opacity="1" stroke="#ffffff" stroke-opacity="1" stroke-width="3.2"/>
<circle clip-path="url(#clip6802)" cx="1901.25" cy="266.678" r="10" fill="#14d0ff" fill-rule="evenodd" fill-opacity="1" stroke="#ffffff" stroke-opacity="1" stroke-width="3.2"/>
<circle clip-path="url(#clip6802)" cx="1933.75" cy="251.789" r="10" fill="#14d0ff" fill-rule="evenodd" fill-opacity="1" stroke="#ffffff" stroke-opacity="1" stroke-width="3.2"/>
<circle clip-path="url(#clip6802)" cx="1966.26" cy="236.899" r="10" fill="#14d0ff" fill-rule="evenodd" fill-opacity="1" stroke="#ffffff" stroke-opacity="1" stroke-width="3.2"/>
<circle clip-path="url(#clip6802)" cx="1998.77" cy="222.01" r="10" fill="#14d0ff" fill-rule="evenodd" fill-opacity="1" stroke="#ffffff" stroke-opacity="1" stroke-width="3.2"/>
<circle clip-path="url(#clip6802)" cx="2031.27" cy="207.12" r="10" fill="#14d0ff" fill-rule="evenodd" fill-opacity="1" stroke="#ffffff" stroke-opacity="1" stroke-width="3.2"/>
<circle clip-path="url(#clip6802)" cx="2063.78" cy="192.231" r="10" fill="#14d0ff" fill-rule="evenodd" fill-opacity="1" stroke="#ffffff" stroke-opacity="1" stroke-width="3.2"/>
<circle clip-path="url(#clip6802)" cx="2096.28" cy="177.342" r="10" fill="#14d0ff" fill-rule="evenodd" fill-opacity="1" stroke="#ffffff" stroke-opacity="1" stroke-width="3.2"/>
<circle clip-path="url(#clip6802)" cx="2128.79" cy="162.452" r="10" fill="#14d0ff" fill-rule="evenodd" fill-opacity="1" stroke="#ffffff" stroke-opacity="1" stroke-width="3.2"/>
<circle clip-path="url(#clip6802)" cx="2161.3" cy="147.563" r="10" fill="#14d0ff" fill-rule="evenodd" fill-opacity="1" stroke="#ffffff" stroke-opacity="1" stroke-width="3.2"/>
<circle clip-path="url(#clip6802)" cx="2193.8" cy="132.673" r="10" fill="#14d0ff" fill-rule="evenodd" fill-opacity="1" stroke="#ffffff" stroke-opacity="1" stroke-width="3.2"/>
<circle clip-path="url(#clip6802)" cx="2226.31" cy="117.784" r="10" fill="#14d0ff" fill-rule="evenodd" fill-opacity="1" stroke="#ffffff" stroke-opacity="1" stroke-width="3.2"/>
<circle clip-path="url(#clip6802)" cx="2258.81" cy="102.895" r="10" fill="#14d0ff" fill-rule="evenodd" fill-opacity="1" stroke="#ffffff" stroke-opacity="1" stroke-width="3.2"/>
<circle clip-path="url(#clip6802)" cx="2291.32" cy="88.0053" r="10" fill="#14d0ff" fill-rule="evenodd" fill-opacity="1" stroke="#ffffff" stroke-opacity="1" stroke-width="3.2"/>
<polyline clip-path="url(#clip6802)" style="stroke:#ffa478; stroke-width:8; stroke-opacity:1; fill:none" points="
  243.444,1446.71 275.95,1431.82 308.456,590.47 340.962,1416.93 373.468,575.58 405.974,1402.05 438.48,560.691 470.986,1387.16 503.492,545.802 535.998,1372.27 
  568.504,530.912 601.01,1357.38 633.516,516.023 666.022,1342.49 698.528,501.134 731.034,1327.6 763.54,486.244 796.046,1312.71 828.552,471.355 861.058,1297.82 
  893.563,456.465 926.069,1282.93 958.575,441.576 991.081,1268.04 1023.59,426.687 1056.09,1253.15 1088.6,411.797 1121.11,1238.26 1153.61,396.908 1186.12,1223.37 
  1218.62,382.019 1251.13,1208.48 1283.63,367.129 1316.14,1193.59 1348.65,352.24 1381.15,1178.7 1413.66,337.35 1446.16,1163.82 1478.67,322.461 1511.18,1148.93 
  1543.68,307.572 1576.19,1134.04 1608.69,292.682 1641.2,1119.15 1673.71,277.793 1706.21,1104.26 1738.72,262.903 1771.22,1089.37 1803.73,248.014 1836.24,1074.48 
  1868.74,233.125 1901.25,1059.59 1933.75,218.235 1966.26,1044.7 1998.77,203.346 2031.27,1029.81 2063.78,188.457 2096.28,1014.92 2128.79,173.567 2161.3,1000.03 
  2193.8,158.678 2226.31,985.143 2258.81,143.788 2291.32,970.253 
  "/>
<circle clip-path="url(#clip6802)" cx="243.444" cy="1446.71" r="10" fill="#ffa478" fill-rule="evenodd" fill-opacity="1" stroke="#ffffff" stroke-opacity="1" stroke-width="3.2"/>
<circle clip-path="url(#clip6802)" cx="275.95" cy="1431.82" r="10" fill="#ffa478" fill-rule="evenodd" fill-opacity="1" stroke="#ffffff" stroke-opacity="1" stroke-width="3.2"/>
<circle clip-path="url(#clip6802)" cx="308.456" cy="590.47" r="10" fill="#ffa478" fill-rule="evenodd" fill-opacity="1" stroke="#ffffff" stroke-opacity="1" stroke-width="3.2"/>
<circle clip-path="url(#clip6802)" cx="340.962" cy="1416.93" r="10" fill="#ffa478" fill-rule="evenodd" fill-opacity="1" stroke="#ffffff" stroke-opacity="1" stroke-width="3.2"/>
<circle clip-path="url(#clip6802)" cx="373.468" cy="575.58" r="10" fill="#ffa478" fill-rule="evenodd" fill-opacity="1" stroke="#ffffff" stroke-opacity="1" stroke-width="3.2"/>
<circle clip-path="url(#clip6802)" cx="405.974" cy="1402.05" r="10" fill="#ffa478" fill-rule="evenodd" fill-opacity="1" stroke="#ffffff" stroke-opacity="1" stroke-width="3.2"/>
<circle clip-path="url(#clip6802)" cx="438.48" cy="560.691" r="10" fill="#ffa478" fill-rule="evenodd" fill-opacity="1" stroke="#ffffff" stroke-opacity="1" stroke-width="3.2"/>
<circle clip-path="url(#clip6802)" cx="470.986" cy="1387.16" r="10" fill="#ffa478" fill-rule="evenodd" fill-opacity="1" stroke="#ffffff" stroke-opacity="1" stroke-width="3.2"/>
<circle clip-path="url(#clip6802)" cx="503.492" cy="545.802" r="10" fill="#ffa478" fill-rule="evenodd" fill-opacity="1" stroke="#ffffff" stroke-opacity="1" stroke-width="3.2"/>
<circle clip-path="url(#clip6802)" cx="535.998" cy="1372.27" r="10" fill="#ffa478" fill-rule="evenodd" fill-opacity="1" stroke="#ffffff" stroke-opacity="1" stroke-width="3.2"/>
<circle clip-path="url(#clip6802)" cx="568.504" cy="530.912" r="10" fill="#ffa478" fill-rule="evenodd" fill-opacity="1" stroke="#ffffff" stroke-opacity="1" stroke-width="3.2"/>
<circle clip-path="url(#clip6802)" cx="601.01" cy="1357.38" r="10" fill="#ffa478" fill-rule="evenodd" fill-opacity="1" stroke="#ffffff" stroke-opacity="1" stroke-width="3.2"/>
<circle clip-path="url(#clip6802)" cx="633.516" cy="516.023" r="10" fill="#ffa478" fill-rule="evenodd" fill-opacity="1" stroke="#ffffff" stroke-opacity="1" stroke-width="3.2"/>
<circle clip-path="url(#clip6802)" cx="666.022" cy="1342.49" r="10" fill="#ffa478" fill-rule="evenodd" fill-opacity="1" stroke="#ffffff" stroke-opacity="1" stroke-width="3.2"/>
<circle clip-path="url(#clip6802)" cx="698.528" cy="501.134" r="10" fill="#ffa478" fill-rule="evenodd" fill-opacity="1" stroke="#ffffff" stroke-opacity="1" stroke-width="3.2"/>
<circle clip-path="url(#clip6802)" cx="731.034" cy="1327.6" r="10" fill="#ffa478" fill-rule="evenodd" fill-opacity="1" stroke="#ffffff" stroke-opacity="1" stroke-width="3.2"/>
<circle clip-path="url(#clip6802)" cx="763.54" cy="486.244" r="10" fill="#ffa478" fill-rule="evenodd" fill-opacity="1" stroke="#ffffff" stroke-opacity="1" stroke-width="3.2"/>
<circle clip-path="url(#clip6802)" cx="796.046" cy="1312.71" r="10" fill="#ffa478" fill-rule="evenodd" fill-opacity="1" stroke="#ffffff" stroke-opacity="1" stroke-width="3.2"/>
<circle clip-path="url(#clip6802)" cx="828.552" cy="471.355" r="10" fill="#ffa478" fill-rule="evenodd" fill-opacity="1" stroke="#ffffff" stroke-opacity="1" stroke-width="3.2"/>
<circle clip-path="url(#clip6802)" cx="861.058" cy="1297.82" r="10" fill="#ffa478" fill-rule="evenodd" fill-opacity="1" stroke="#ffffff" stroke-opacity="1" stroke-width="3.2"/>
<circle clip-path="url(#clip6802)" cx="893.563" cy="456.465" r="10" fill="#ffa478" fill-rule="evenodd" fill-opacity="1" stroke="#ffffff" stroke-opacity="1" stroke-width="3.2"/>
<circle clip-path="url(#clip6802)" cx="926.069" cy="1282.93" r="10" fill="#ffa478" fill-rule="evenodd" fill-opacity="1" stroke="#ffffff" stroke-opacity="1" stroke-width="3.2"/>
<circle clip-path="url(#clip6802)" cx="958.575" cy="441.576" r="10" fill="#ffa478" fill-rule="evenodd" fill-opacity="1" stroke="#ffffff" stroke-opacity="1" stroke-width="3.2"/>
<circle clip-path="url(#clip6802)" cx="991.081" cy="1268.04" r="10" fill="#ffa478" fill-rule="evenodd" fill-opacity="1" stroke="#ffffff" stroke-opacity="1" stroke-width="3.2"/>
<circle clip-path="url(#clip6802)" cx="1023.59" cy="426.687" r="10" fill="#ffa478" fill-rule="evenodd" fill-opacity="1" stroke="#ffffff" stroke-opacity="1" stroke-width="3.2"/>
<circle clip-path="url(#clip6802)" cx="1056.09" cy="1253.15" r="10" fill="#ffa478" fill-rule="evenodd" fill-opacity="1" stroke="#ffffff" stroke-opacity="1" stroke-width="3.2"/>
<circle clip-path="url(#clip6802)" cx="1088.6" cy="411.797" r="10" fill="#ffa478" fill-rule="evenodd" fill-opacity="1" stroke="#ffffff" stroke-opacity="1" stroke-width="3.2"/>
<circle clip-path="url(#clip6802)" cx="1121.11" cy="1238.26" r="10" fill="#ffa478" fill-rule="evenodd" fill-opacity="1" stroke="#ffffff" stroke-opacity="1" stroke-width="3.2"/>
<circle clip-path="url(#clip6802)" cx="1153.61" cy="396.908" r="10" fill="#ffa478" fill-rule="evenodd" fill-opacity="1" stroke="#ffffff" stroke-opacity="1" stroke-width="3.2"/>
<circle clip-path="url(#clip6802)" cx="1186.12" cy="1223.37" r="10" fill="#ffa478" fill-rule="evenodd" fill-opacity="1" stroke="#ffffff" stroke-opacity="1" stroke-width="3.2"/>
<circle clip-path="url(#clip6802)" cx="1218.62" cy="382.019" r="10" fill="#ffa478" fill-rule="evenodd" fill-opacity="1" stroke="#ffffff" stroke-opacity="1" stroke-width="3.2"/>
<circle clip-path="url(#clip6802)" cx="1251.13" cy="1208.48" r="10" fill="#ffa478" fill-rule="evenodd" fill-opacity="1" stroke="#ffffff" stroke-opacity="1" stroke-width="3.2"/>
<circle clip-path="url(#clip6802)" cx="1283.63" cy="367.129" r="10" fill="#ffa478" fill-rule="evenodd" fill-opacity="1" stroke="#ffffff" stroke-opacity="1" stroke-width="3.2"/>
<circle clip-path="url(#clip6802)" cx="1316.14" cy="1193.59" r="10" fill="#ffa478" fill-rule="evenodd" fill-opacity="1" stroke="#ffffff" stroke-opacity="1" stroke-width="3.2"/>
<circle clip-path="url(#clip6802)" cx="1348.65" cy="352.24" r="10" fill="#ffa478" fill-rule="evenodd" fill-opacity="1" stroke="#ffffff" stroke-opacity="1" stroke-width="3.2"/>
<circle clip-path="url(#clip6802)" cx="1381.15" cy="1178.7" r="10" fill="#ffa478" fill-rule="evenodd" fill-opacity="1" stroke="#ffffff" stroke-opacity="1" stroke-width="3.2"/>
<circle clip-path="url(#clip6802)" cx="1413.66" cy="337.35" r="10" fill="#ffa478" fill-rule="evenodd" fill-opacity="1" stroke="#ffffff" stroke-opacity="1" stroke-width="3.2"/>
<circle clip-path="url(#clip6802)" cx="1446.16" cy="1163.82" r="10" fill="#ffa478" fill-rule="evenodd" fill-opacity="1" stroke="#ffffff" stroke-opacity="1" stroke-width="3.2"/>
<circle clip-path="url(#clip6802)" cx="1478.67" cy="322.461" r="10" fill="#ffa478" fill-rule="evenodd" fill-opacity="1" stroke="#ffffff" stroke-opacity="1" stroke-width="3.2"/>
<circle clip-path="url(#clip6802)" cx="1511.18" cy="1148.93" r="10" fill="#ffa478" fill-rule="evenodd" fill-opacity="1" stroke="#ffffff" stroke-opacity="1" stroke-width="3.2"/>
<circle clip-path="url(#clip6802)" cx="1543.68" cy="307.572" r="10" fill="#ffa478" fill-rule="evenodd" fill-opacity="1" stroke="#ffffff" stroke-opacity="1" stroke-width="3.2"/>
<circle clip-path="url(#clip6802)" cx="1576.19" cy="1134.04" r="10" fill="#ffa478" fill-rule="evenodd" fill-opacity="1" stroke="#ffffff" stroke-opacity="1" stroke-width="3.2"/>
<circle clip-path="url(#clip6802)" cx="1608.69" cy="292.682" r="10" fill="#ffa478" fill-rule="evenodd" fill-opacity="1" stroke="#ffffff" stroke-opacity="1" stroke-width="3.2"/>
<circle clip-path="url(#clip6802)" cx="1641.2" cy="1119.15" r="10" fill="#ffa478" fill-rule="evenodd" fill-opacity="1" stroke="#ffffff" stroke-opacity="1" stroke-width="3.2"/>
<circle clip-path="url(#clip6802)" cx="1673.71" cy="277.793" r="10" fill="#ffa478" fill-rule="evenodd" fill-opacity="1" stroke="#ffffff" stroke-opacity="1" stroke-width="3.2"/>
<circle clip-path="url(#clip6802)" cx="1706.21" cy="1104.26" r="10" fill="#ffa478" fill-rule="evenodd" fill-opacity="1" stroke="#ffffff" stroke-opacity="1" stroke-width="3.2"/>
<circle clip-path="url(#clip6802)" cx="1738.72" cy="262.903" r="10" fill="#ffa478" fill-rule="evenodd" fill-opacity="1" stroke="#ffffff" stroke-opacity="1" stroke-width="3.2"/>
<circle clip-path="url(#clip6802)" cx="1771.22" cy="1089.37" r="10" fill="#ffa478" fill-rule="evenodd" fill-opacity="1" stroke="#ffffff" stroke-opacity="1" stroke-width="3.2"/>
<circle clip-path="url(#clip6802)" cx="1803.73" cy="248.014" r="10" fill="#ffa478" fill-rule="evenodd" fill-opacity="1" stroke="#ffffff" stroke-opacity="1" stroke-width="3.2"/>
<circle clip-path="url(#clip6802)" cx="1836.24" cy="1074.48" r="10" fill="#ffa478" fill-rule="evenodd" fill-opacity="1" stroke="#ffffff" stroke-opacity="1" stroke-width="3.2"/>
<circle clip-path="url(#clip6802)" cx="1868.74" cy="233.125" r="10" fill="#ffa478" fill-rule="evenodd" fill-opacity="1" stroke="#ffffff" stroke-opacity="1" stroke-width="3.2"/>
<circle clip-path="url(#clip6802)" cx="1901.25" cy="1059.59" r="10" fill="#ffa478" fill-rule="evenodd" fill-opacity="1" stroke="#ffffff" stroke-opacity="1" stroke-width="3.2"/>
<circle clip-path="url(#clip6802)" cx="1933.75" cy="218.235" r="10" fill="#ffa478" fill-rule="evenodd" fill-opacity="1" stroke="#ffffff" stroke-opacity="1" stroke-width="3.2"/>
<circle clip-path="url(#clip6802)" cx="1966.26" cy="1044.7" r="10" fill="#ffa478" fill-rule="evenodd" fill-opacity="1" stroke="#ffffff" stroke-opacity="1" stroke-width="3.2"/>
<circle clip-path="url(#clip6802)" cx="1998.77" cy="203.346" r="10" fill="#ffa478" fill-rule="evenodd" fill-opacity="1" stroke="#ffffff" stroke-opacity="1" stroke-width="3.2"/>
<circle clip-path="url(#clip6802)" cx="2031.27" cy="1029.81" r="10" fill="#ffa478" fill-rule="evenodd" fill-opacity="1" stroke="#ffffff" stroke-opacity="1" stroke-width="3.2"/>
<circle clip-path="url(#clip6802)" cx="2063.78" cy="188.457" r="10" fill="#ffa478" fill-rule="evenodd" fill-opacity="1" stroke="#ffffff" stroke-opacity="1" stroke-width="3.2"/>
<circle clip-path="url(#clip6802)" cx="2096.28" cy="1014.92" r="10" fill="#ffa478" fill-rule="evenodd" fill-opacity="1" stroke="#ffffff" stroke-opacity="1" stroke-width="3.2"/>
<circle clip-path="url(#clip6802)" cx="2128.79" cy="173.567" r="10" fill="#ffa478" fill-rule="evenodd" fill-opacity="1" stroke="#ffffff" stroke-opacity="1" stroke-width="3.2"/>
<circle clip-path="url(#clip6802)" cx="2161.3" cy="1000.03" r="10" fill="#ffa478" fill-rule="evenodd" fill-opacity="1" stroke="#ffffff" stroke-opacity="1" stroke-width="3.2"/>
<circle clip-path="url(#clip6802)" cx="2193.8" cy="158.678" r="10" fill="#ffa478" fill-rule="evenodd" fill-opacity="1" stroke="#ffffff" stroke-opacity="1" stroke-width="3.2"/>
<circle clip-path="url(#clip6802)" cx="2226.31" cy="985.143" r="10" fill="#ffa478" fill-rule="evenodd" fill-opacity="1" stroke="#ffffff" stroke-opacity="1" stroke-width="3.2"/>
<circle clip-path="url(#clip6802)" cx="2258.81" cy="143.788" r="10" fill="#ffa478" fill-rule="evenodd" fill-opacity="1" stroke="#ffffff" stroke-opacity="1" stroke-width="3.2"/>
<circle clip-path="url(#clip6802)" cx="2291.32" cy="970.253" r="10" fill="#ffa478" fill-rule="evenodd" fill-opacity="1" stroke="#ffffff" stroke-opacity="1" stroke-width="3.2"/>
<path clip-path="url(#clip6800)" d="
M1971.25 312.204 L2280.76 312.204 L2280.76 130.764 L1971.25 130.764  Z
  " fill="#1e1e1e" fill-rule="evenodd" fill-opacity="1"/>
<polyline clip-path="url(#clip6800)" style="stroke:#ffffff; stroke-width:4; stroke-opacity:1; fill:none" points="
  1971.25,312.204 2280.76,312.204 2280.76,130.764 1971.25,130.764 1971.25,312.204 
  "/>
<polyline clip-path="url(#clip6800)" style="stroke:#14d0ff; stroke-width:8; stroke-opacity:1; fill:none" points="
  1995.25,191.244 2139.25,191.244 
  "/>
<circle clip-path="url(#clip6800)" cx="2079.25" cy="191.244" r="21" fill="#14d0ff" fill-rule="evenodd" fill-opacity="1" stroke="#ffffff" stroke-opacity="1" stroke-width="3.2"/>
<g clip-path="url(#clip6800)">
<text style="fill:#ffffff; fill-opacity:1; font-family:Arial,Helvetica Neue,Helvetica,sans-serif; font-size:48px; text-anchor:start;" transform="rotate(0, 2163.25, 208.744)" x="2163.25" y="208.744">r(t)</text>
</g>
<polyline clip-path="url(#clip6800)" style="stroke:#ffa478; stroke-width:8; stroke-opacity:1; fill:none" points="
  1995.25,251.724 2139.25,251.724 
  "/>
<circle clip-path="url(#clip6800)" cx="2079.25" cy="251.724" r="21" fill="#ffa478" fill-rule="evenodd" fill-opacity="1" stroke="#ffffff" stroke-opacity="1" stroke-width="3.2"/>
<g clip-path="url(#clip6800)">
<text style="fill:#ffffff; fill-opacity:1; font-family:Arial,Helvetica Neue,Helvetica,sans-serif; font-size:48px; text-anchor:start;" transform="rotate(0, 2163.25, 269.224)" x="2163.25" y="269.224">y(t)</text>
</g>
</svg>
