<?xml version="1.0" encoding="utf-8"?>
<svg xmlns="http://www.w3.org/2000/svg" xmlns:xlink="http://www.w3.org/1999/xlink" width="600" height="400" viewBox="0 0 2400 1600">
<defs>
  <clipPath id="clip9800">
    <rect x="0" y="0" width="2400" height="1600"/>
  </clipPath>
</defs>
<path clip-path="url(#clip9800)" d="
M0 1600 L2400 1600 L2400 0 L0 0  Z
  " fill="#ffffff" fill-rule="evenodd" fill-opacity="1"/>
<defs>
  <clipPath id="clip9801">
    <rect x="480" y="0" width="1681" height="1600"/>
  </clipPath>
</defs>
<path clip-path="url(#clip9800)" d="
M182.008 1487.47 L2352.76 1487.47 L2352.76 47.2441 L182.008 47.2441  Z
  " fill="#ffffff" fill-rule="evenodd" fill-opacity="1"/>
<defs>
  <clipPath id="clip9802">
    <rect x="182" y="47" width="2172" height="1441"/>
  </clipPath>
</defs>
<polyline clip-path="url(#clip9802)" style="stroke:#000000; stroke-width:2; stroke-opacity:0.1; fill:none" points="
  243.444,1487.47 243.444,47.2441 
  "/>
<polyline clip-path="url(#clip9802)" style="stroke:#000000; stroke-width:2; stroke-opacity:0.1; fill:none" points="
  763.54,1487.47 763.54,47.2441 
  "/>
<polyline clip-path="url(#clip9802)" style="stroke:#000000; stroke-width:2; stroke-opacity:0.1; fill:none" points="
  1283.63,1487.47 1283.63,47.2441 
  "/>
<polyline clip-path="url(#clip9802)" style="stroke:#000000; stroke-width:2; stroke-opacity:0.1; fill:none" points="
  1803.73,1487.47 1803.73,47.2441 
  "/>
<polyline clip-path="url(#clip9802)" style="stroke:#000000; stroke-width:2; stroke-opacity:0.1; fill:none" points="
  2323.83,1487.47 2323.83,47.2441 
  "/>
<polyline clip-path="url(#clip9802)" style="stroke:#000000; stroke-width:2; stroke-opacity:0.1; fill:none" points="
  182.008,1215.49 2352.76,1215.49 
  "/>
<polyline clip-path="url(#clip9802)" style="stroke:#000000; stroke-width:2; stroke-opacity:0.1; fill:none" points="
  182.008,913.591 2352.76,913.591 
  "/>
<polyline clip-path="url(#clip9802)" style="stroke:#000000; stroke-width:2; stroke-opacity:0.1; fill:none" points="
  182.008,611.693 2352.76,611.693 
  "/>
<polyline clip-path="url(#clip9802)" style="stroke:#000000; stroke-width:2; stroke-opacity:0.1; fill:none" points="
  182.008,309.796 2352.76,309.796 
  "/>
<polyline clip-path="url(#clip9800)" style="stroke:#000000; stroke-width:4; stroke-opacity:1; fill:none" points="
  182.008,1487.47 2352.76,1487.47 
  "/>
<polyline clip-path="url(#clip9800)" style="stroke:#000000; stroke-width:4; stroke-opacity:1; fill:none" points="
  182.008,1487.47 182.008,47.2441 
  "/>
<polyline clip-path="url(#clip9800)" style="stroke:#000000; stroke-width:4; stroke-opacity:1; fill:none" points="
  243.444,1487.47 243.444,1470.19 
  "/>
<polyline clip-path="url(#clip9800)" style="stroke:#000000; stroke-width:4; stroke-opacity:1; fill:none" points="
  763.54,1487.47 763.54,1470.19 
  "/>
<polyline clip-path="url(#clip9800)" style="stroke:#000000; stroke-width:4; stroke-opacity:1; fill:none" points="
  1283.63,1487.47 1283.63,1470.19 
  "/>
<polyline clip-path="url(#clip9800)" style="stroke:#000000; stroke-width:4; stroke-opacity:1; fill:none" points="
  1803.73,1487.47 1803.73,1470.19 
  "/>
<polyline clip-path="url(#clip9800)" style="stroke:#000000; stroke-width:4; stroke-opacity:1; fill:none" points="
  2323.83,1487.47 2323.83,1470.19 
  "/>
<polyline clip-path="url(#clip9800)" style="stroke:#000000; stroke-width:4; stroke-opacity:1; fill:none" points="
  182.008,1215.49 208.057,1215.49 
  "/>
<polyline clip-path="url(#clip9800)" style="stroke:#000000; stroke-width:4; stroke-opacity:1; fill:none" points="
  182.008,913.591 208.057,913.591 
  "/>
<polyline clip-path="url(#clip9800)" style="stroke:#000000; stroke-width:4; stroke-opacity:1; fill:none" points="
  182.008,611.693 208.057,611.693 
  "/>
<polyline clip-path="url(#clip9800)" style="stroke:#000000; stroke-width:4; stroke-opacity:1; fill:none" points="
  182.008,309.796 208.057,309.796 
  "/>
<g clip-path="url(#clip9800)">
<text style="fill:#000000; fill-opacity:1; font-family:Arial,Helvetica Neue,Helvetica,sans-serif; font-size:48px; text-anchor:middle;" transform="rotate(0, 243.444, 1541.47)" x="243.444" y="1541.47">0.00</text>
</g>
<g clip-path="url(#clip9800)">
<text style="fill:#000000; fill-opacity:1; font-family:Arial,Helvetica Neue,Helvetica,sans-serif; font-size:48px; text-anchor:middle;" transform="rotate(0, 763.54, 1541.47)" x="763.54" y="1541.47">0.25</text>
</g>
<g clip-path="url(#clip9800)">
<text style="fill:#000000; fill-opacity:1; font-family:Arial,Helvetica Neue,Helvetica,sans-serif; font-size:48px; text-anchor:middle;" transform="rotate(0, 1283.63, 1541.47)" x="1283.63" y="1541.47">0.50</text>
</g>
<g clip-path="url(#clip9800)">
<text style="fill:#000000; fill-opacity:1; font-family:Arial,Helvetica Neue,Helvetica,sans-serif; font-size:48px; text-anchor:middle;" transform="rotate(0, 1803.73, 1541.47)" x="1803.73" y="1541.47">0.75</text>
</g>
<g clip-path="url(#clip9800)">
<text style="fill:#000000; fill-opacity:1; font-family:Arial,Helvetica Neue,Helvetica,sans-serif; font-size:48px; text-anchor:middle;" transform="rotate(0, 2323.83, 1541.47)" x="2323.83" y="1541.47">1.00</text>
</g>
<g clip-path="url(#clip9800)">
<text style="fill:#000000; fill-opacity:1; font-family:Arial,Helvetica Neue,Helvetica,sans-serif; font-size:48px; text-anchor:end;" transform="rotate(0, 158.008, 1232.99)" x="158.008" y="1232.99">-0.5</text>
</g>
<g clip-path="url(#clip9800)">
<text style="fill:#000000; fill-opacity:1; font-family:Arial,Helvetica Neue,Helvetica,sans-serif; font-size:48px; text-anchor:end;" transform="rotate(0, 158.008, 931.091)" x="158.008" y="931.091">0.0</text>
</g>
<g clip-path="url(#clip9800)">
<text style="fill:#000000; fill-opacity:1; font-family:Arial,Helvetica Neue,Helvetica,sans-serif; font-size:48px; text-anchor:end;" transform="rotate(0, 158.008, 629.193)" x="158.008" y="629.193">0.5</text>
</g>
<g clip-path="url(#clip9800)">
<text style="fill:#000000; fill-opacity:1; font-family:Arial,Helvetica Neue,Helvetica,sans-serif; font-size:48px; text-anchor:end;" transform="rotate(0, 158.008, 327.296)" x="158.008" y="327.296">1.0</text>
</g>
<polyline clip-path="url(#clip9802)" style="stroke:#009af9; stroke-width:4; stroke-opacity:1; fill:none" points="
  243.444,913.591 275.95,904.157 308.456,894.723 340.962,885.288 373.468,875.854 405.974,866.42 438.48,856.985 470.986,847.551 503.492,838.117 535.998,828.682 
  568.504,819.248 601.01,809.814 633.516,800.379 666.022,790.945 698.528,781.511 731.034,772.077 763.54,762.642 796.046,753.208 828.552,743.774 861.058,734.339 
  893.563,724.905 926.069,715.471 958.575,706.036 991.081,696.602 1023.59,687.168 1056.09,677.734 1088.6,668.299 1121.11,658.865 1153.61,649.431 1186.12,639.996 
  1218.62,630.562 1251.13,621.128 1283.63,611.693 1316.14,602.259 1348.65,592.825 1381.15,583.39 1413.66,573.956 1446.16,564.522 1478.67,555.088 1511.18,545.653 
  1543.68,536.219 1576.19,526.785 1608.69,517.35 1641.2,507.916 1673.71,498.482 1706.21,489.047 1738.72,479.613 1771.22,470.179 1803.73,460.745 1836.24,451.31 
  1868.74,441.876 1901.25,432.442 1933.75,423.007 1966.26,413.573 1998.77,404.139 2031.27,394.704 2063.78,385.27 2096.28,375.836 2128.79,366.402 2161.3,356.967 
  2193.8,347.533 2226.31,338.099 2258.81,328.664 2291.32,319.23 
  "/>
<circle clip-path="url(#clip9802)" cx="243.444" cy="913.591" r="10" fill="#009af9" fill-rule="evenodd" fill-opacity="1" stroke="#000000" stroke-opacity="1" stroke-width="3.2"/>
<circle clip-path="url(#clip9802)" cx="275.95" cy="904.157" r="10" fill="#009af9" fill-rule="evenodd" fill-opacity="1" stroke="#000000" stroke-opacity="1" stroke-width="3.2"/>
<circle clip-path="url(#clip9802)" cx="308.456" cy="894.723" r="10" fill="#009af9" fill-rule="evenodd" fill-opacity="1" stroke="#000000" stroke-opacity="1" stroke-width="3.2"/>
<circle clip-path="url(#clip9802)" cx="340.962" cy="885.288" r="10" fill="#009af9" fill-rule="evenodd" fill-opacity="1" stroke="#000000" stroke-opacity="1" stroke-width="3.2"/>
<circle clip-path="url(#clip9802)" cx="373.468" cy="875.854" r="10" fill="#009af9" fill-rule="evenodd" fill-opacity="1" stroke="#000000" stroke-opacity="1" stroke-width="3.2"/>
<circle clip-path="url(#clip9802)" cx="405.974" cy="866.42" r="10" fill="#009af9" fill-rule="evenodd" fill-opacity="1" stroke="#000000" stroke-opacity="1" stroke-width="3.2"/>
<circle clip-path="url(#clip9802)" cx="438.48" cy="856.985" r="10" fill="#009af9" fill-rule="evenodd" fill-opacity="1" stroke="#000000" stroke-opacity="1" stroke-width="3.2"/>
<circle clip-path="url(#clip9802)" cx="470.986" cy="847.551" r="10" fill="#009af9" fill-rule="evenodd" fill-opacity="1" stroke="#000000" stroke-opacity="1" stroke-width="3.2"/>
<circle clip-path="url(#clip9802)" cx="503.492" cy="838.117" r="10" fill="#009af9" fill-rule="evenodd" fill-opacity="1" stroke="#000000" stroke-opacity="1" stroke-width="3.2"/>
<circle clip-path="url(#clip9802)" cx="535.998" cy="828.682" r="10" fill="#009af9" fill-rule="evenodd" fill-opacity="1" stroke="#000000" stroke-opacity="1" stroke-width="3.2"/>
<circle clip-path="url(#clip9802)" cx="568.504" cy="819.248" r="10" fill="#009af9" fill-rule="evenodd" fill-opacity="1" stroke="#000000" stroke-opacity="1" stroke-width="3.2"/>
<circle clip-path="url(#clip9802)" cx="601.01" cy="809.814" r="10" fill="#009af9" fill-rule="evenodd" fill-opacity="1" stroke="#000000" stroke-opacity="1" stroke-width="3.2"/>
<circle clip-path="url(#clip9802)" cx="633.516" cy="800.379" r="10" fill="#009af9" fill-rule="evenodd" fill-opacity="1" stroke="#000000" stroke-opacity="1" stroke-width="3.2"/>
<circle clip-path="url(#clip9802)" cx="666.022" cy="790.945" r="10" fill="#009af9" fill-rule="evenodd" fill-opacity="1" stroke="#000000" stroke-opacity="1" stroke-width="3.2"/>
<circle clip-path="url(#clip9802)" cx="698.528" cy="781.511" r="10" fill="#009af9" fill-rule="evenodd" fill-opacity="1" stroke="#000000" stroke-opacity="1" stroke-width="3.2"/>
<circle clip-path="url(#clip9802)" cx="731.034" cy="772.077" r="10" fill="#009af9" fill-rule="evenodd" fill-opacity="1" stroke="#000000" stroke-opacity="1" stroke-width="3.2"/>
<circle clip-path="url(#clip9802)" cx="763.54" cy="762.642" r="10" fill="#009af9" fill-rule="evenodd" fill-opacity="1" stroke="#000000" stroke-opacity="1" stroke-width="3.2"/>
<circle clip-path="url(#clip9802)" cx="796.046" cy="753.208" r="10" fill="#009af9" fill-rule="evenodd" fill-opacity="1" stroke="#000000" stroke-opacity="1" stroke-width="3.2"/>
<circle clip-path="url(#clip9802)" cx="828.552" cy="743.774" r="10" fill="#009af9" fill-rule="evenodd" fill-opacity="1" stroke="#000000" stroke-opacity="1" stroke-width="3.2"/>
<circle clip-path="url(#clip9802)" cx="861.058" cy="734.339" r="10" fill="#009af9" fill-rule="evenodd" fill-opacity="1" stroke="#000000" stroke-opacity="1" stroke-width="3.2"/>
<circle clip-path="url(#clip9802)" cx="893.563" cy="724.905" r="10" fill="#009af9" fill-rule="evenodd" fill-opacity="1" stroke="#000000" stroke-opacity="1" stroke-width="3.2"/>
<circle clip-path="url(#clip9802)" cx="926.069" cy="715.471" r="10" fill="#009af9" fill-rule="evenodd" fill-opacity="1" stroke="#000000" stroke-opacity="1" stroke-width="3.2"/>
<circle clip-path="url(#clip9802)" cx="958.575" cy="706.036" r="10" fill="#009af9" fill-rule="evenodd" fill-opacity="1" stroke="#000000" stroke-opacity="1" stroke-width="3.2"/>
<circle clip-path="url(#clip9802)" cx="991.081" cy="696.602" r="10" fill="#009af9" fill-rule="evenodd" fill-opacity="1" stroke="#000000" stroke-opacity="1" stroke-width="3.2"/>
<circle clip-path="url(#clip9802)" cx="1023.59" cy="687.168" r="10" fill="#009af9" fill-rule="evenodd" fill-opacity="1" stroke="#000000" stroke-opacity="1" stroke-width="3.2"/>
<circle clip-path="url(#clip9802)" cx="1056.09" cy="677.734" r="10" fill="#009af9" fill-rule="evenodd" fill-opacity="1" stroke="#000000" stroke-opacity="1" stroke-width="3.2"/>
<circle clip-path="url(#clip9802)" cx="1088.6" cy="668.299" r="10" fill="#009af9" fill-rule="evenodd" fill-opacity="1" stroke="#000000" stroke-opacity="1" stroke-width="3.2"/>
<circle clip-path="url(#clip9802)" cx="1121.11" cy="658.865" r="10" fill="#009af9" fill-rule="evenodd" fill-opacity="1" stroke="#000000" stroke-opacity="1" stroke-width="3.2"/>
<circle clip-path="url(#clip9802)" cx="1153.61" cy="649.431" r="10" fill="#009af9" fill-rule="evenodd" fill-opacity="1" stroke="#000000" stroke-opacity="1" stroke-width="3.2"/>
<circle clip-path="url(#clip9802)" cx="1186.12" cy="639.996" r="10" fill="#009af9" fill-rule="evenodd" fill-opacity="1" stroke="#000000" stroke-opacity="1" stroke-width="3.2"/>
<circle clip-path="url(#clip9802)" cx="1218.62" cy="630.562" r="10" fill="#009af9" fill-rule="evenodd" fill-opacity="1" stroke="#000000" stroke-opacity="1" stroke-width="3.2"/>
<circle clip-path="url(#clip9802)" cx="1251.13" cy="621.128" r="10" fill="#009af9" fill-rule="evenodd" fill-opacity="1" stroke="#000000" stroke-opacity="1" stroke-width="3.2"/>
<circle clip-path="url(#clip9802)" cx="1283.63" cy="611.693" r="10" fill="#009af9" fill-rule="evenodd" fill-opacity="1" stroke="#000000" stroke-opacity="1" stroke-width="3.2"/>
<circle clip-path="url(#clip9802)" cx="1316.14" cy="602.259" r="10" fill="#009af9" fill-rule="evenodd" fill-opacity="1" stroke="#000000" stroke-opacity="1" stroke-width="3.2"/>
<circle clip-path="url(#clip9802)" cx="1348.65" cy="592.825" r="10" fill="#009af9" fill-rule="evenodd" fill-opacity="1" stroke="#000000" stroke-opacity="1" stroke-width="3.2"/>
<circle clip-path="url(#clip9802)" cx="1381.15" cy="583.39" r="10" fill="#009af9" fill-rule="evenodd" fill-opacity="1" stroke="#000000" stroke-opacity="1" stroke-width="3.2"/>
<circle clip-path="url(#clip9802)" cx="1413.66" cy="573.956" r="10" fill="#009af9" fill-rule="evenodd" fill-opacity="1" stroke="#000000" stroke-opacity="1" stroke-width="3.2"/>
<circle clip-path="url(#clip9802)" cx="1446.16" cy="564.522" r="10" fill="#009af9" fill-rule="evenodd" fill-opacity="1" stroke="#000000" stroke-opacity="1" stroke-width="3.2"/>
<circle clip-path="url(#clip9802)" cx="1478.67" cy="555.088" r="10" fill="#009af9" fill-rule="evenodd" fill-opacity="1" stroke="#000000" stroke-opacity="1" stroke-width="3.2"/>
<circle clip-path="url(#clip9802)" cx="1511.18" cy="545.653" r="10" fill="#009af9" fill-rule="evenodd" fill-opacity="1" stroke="#000000" stroke-opacity="1" stroke-width="3.2"/>
<circle clip-path="url(#clip9802)" cx="1543.68" cy="536.219" r="10" fill="#009af9" fill-rule="evenodd" fill-opacity="1" stroke="#000000" stroke-opacity="1" stroke-width="3.2"/>
<circle clip-path="url(#clip9802)" cx="1576.19" cy="526.785" r="10" fill="#009af9" fill-rule="evenodd" fill-opacity="1" stroke="#000000" stroke-opacity="1" stroke-width="3.2"/>
<circle clip-path="url(#clip9802)" cx="1608.69" cy="517.35" r="10" fill="#009af9" fill-rule="evenodd" fill-opacity="1" stroke="#000000" stroke-opacity="1" stroke-width="3.2"/>
<circle clip-path="url(#clip9802)" cx="1641.2" cy="507.916" r="10" fill="#009af9" fill-rule="evenodd" fill-opacity="1" stroke="#000000" stroke-opacity="1" stroke-width="3.2"/>
<circle clip-path="url(#clip9802)" cx="1673.71" cy="498.482" r="10" fill="#009af9" fill-rule="evenodd" fill-opacity="1" stroke="#000000" stroke-opacity="1" stroke-width="3.2"/>
<circle clip-path="url(#clip9802)" cx="1706.21" cy="489.047" r="10" fill="#009af9" fill-rule="evenodd" fill-opacity="1" stroke="#000000" stroke-opacity="1" stroke-width="3.2"/>
<circle clip-path="url(#clip9802)" cx="1738.72" cy="479.613" r="10" fill="#009af9" fill-rule="evenodd" fill-opacity="1" stroke="#000000" stroke-opacity="1" stroke-width="3.2"/>
<circle clip-path="url(#clip9802)" cx="1771.22" cy="470.179" r="10" fill="#009af9" fill-rule="evenodd" fill-opacity="1" stroke="#000000" stroke-opacity="1" stroke-width="3.2"/>
<circle clip-path="url(#clip9802)" cx="1803.73" cy="460.745" r="10" fill="#009af9" fill-rule="evenodd" fill-opacity="1" stroke="#000000" stroke-opacity="1" stroke-width="3.2"/>
<circle clip-path="url(#clip9802)" cx="1836.24" cy="451.31" r="10" fill="#009af9" fill-rule="evenodd" fill-opacity="1" stroke="#000000" stroke-opacity="1" stroke-width="3.2"/>
<circle clip-path="url(#clip9802)" cx="1868.74" cy="441.876" r="10" fill="#009af9" fill-rule="evenodd" fill-opacity="1" stroke="#000000" stroke-opacity="1" stroke-width="3.2"/>
<circle clip-path="url(#clip9802)" cx="1901.25" cy="432.442" r="10" fill="#009af9" fill-rule="evenodd" fill-opacity="1" stroke="#000000" stroke-opacity="1" stroke-width="3.2"/>
<circle clip-path="url(#clip9802)" cx="1933.75" cy="423.007" r="10" fill="#009af9" fill-rule="evenodd" fill-opacity="1" stroke="#000000" stroke-opacity="1" stroke-width="3.2"/>
<circle clip-path="url(#clip9802)" cx="1966.26" cy="413.573" r="10" fill="#009af9" fill-rule="evenodd" fill-opacity="1" stroke="#000000" stroke-opacity="1" stroke-width="3.2"/>
<circle clip-path="url(#clip9802)" cx="1998.77" cy="404.139" r="10" fill="#009af9" fill-rule="evenodd" fill-opacity="1" stroke="#000000" stroke-opacity="1" stroke-width="3.2"/>
<circle clip-path="url(#clip9802)" cx="2031.27" cy="394.704" r="10" fill="#009af9" fill-rule="evenodd" fill-opacity="1" stroke="#000000" stroke-opacity="1" stroke-width="3.2"/>
<circle clip-path="url(#clip9802)" cx="2063.78" cy="385.27" r="10" fill="#009af9" fill-rule="evenodd" fill-opacity="1" stroke="#000000" stroke-opacity="1" stroke-width="3.2"/>
<circle clip-path="url(#clip9802)" cx="2096.28" cy="375.836" r="10" fill="#009af9" fill-rule="evenodd" fill-opacity="1" stroke="#000000" stroke-opacity="1" stroke-width="3.2"/>
<circle clip-path="url(#clip9802)" cx="2128.79" cy="366.402" r="10" fill="#009af9" fill-rule="evenodd" fill-opacity="1" stroke="#000000" stroke-opacity="1" stroke-width="3.2"/>
<circle clip-path="url(#clip9802)" cx="2161.3" cy="356.967" r="10" fill="#009af9" fill-rule="evenodd" fill-opacity="1" stroke="#000000" stroke-opacity="1" stroke-width="3.2"/>
<circle clip-path="url(#clip9802)" cx="2193.8" cy="347.533" r="10" fill="#009af9" fill-rule="evenodd" fill-opacity="1" stroke="#000000" stroke-opacity="1" stroke-width="3.2"/>
<circle clip-path="url(#clip9802)" cx="2226.31" cy="338.099" r="10" fill="#009af9" fill-rule="evenodd" fill-opacity="1" stroke="#000000" stroke-opacity="1" stroke-width="3.2"/>
<circle clip-path="url(#clip9802)" cx="2258.81" cy="328.664" r="10" fill="#009af9" fill-rule="evenodd" fill-opacity="1" stroke="#000000" stroke-opacity="1" stroke-width="3.2"/>
<circle clip-path="url(#clip9802)" cx="2291.32" cy="319.23" r="10" fill="#009af9" fill-rule="evenodd" fill-opacity="1" stroke="#000000" stroke-opacity="1" stroke-width="3.2"/>
<polyline clip-path="url(#clip9802)" style="stroke:#e26f46; stroke-width:4; stroke-opacity:1; fill:none" points="
  243.444,1446.71 275.95,1437.28 308.456,371.034 340.962,1427.84 373.468,361.6 405.974,1418.41 438.48,352.166 470.986,1408.98 503.492,342.732 535.998,1399.54 
  568.504,333.297 601.01,1390.11 633.516,323.863 666.022,1380.67 698.528,314.429 731.034,1371.24 763.54,304.994 796.046,1361.8 828.552,295.56 861.058,1352.37 
  893.563,286.126 926.069,1342.94 958.575,276.691 991.081,1333.5 1023.59,267.257 1056.09,1324.07 1088.6,257.823 1121.11,1314.63 1153.61,248.388 1186.12,1305.2 
  1218.62,238.954 1251.13,1295.76 1283.63,229.52 1316.14,1286.33 1348.65,220.086 1381.15,1276.9 1413.66,210.651 1446.16,1267.46 1478.67,201.217 1511.18,1258.03 
  1543.68,191.783 1576.19,1248.59 1608.69,182.348 1641.2,1239.16 1673.71,172.914 1706.21,1229.72 1738.72,163.48 1771.22,1220.29 1803.73,154.045 1836.24,1210.86 
  1868.74,144.611 1901.25,1201.42 1933.75,135.177 1966.26,1191.99 1998.77,125.743 2031.27,1182.55 2063.78,116.308 2096.28,1173.12 2128.79,106.874 2161.3,1163.68 
  2193.8,97.4396 2226.31,1154.25 2258.81,88.0053 2291.32,1144.82 
  "/>
<circle clip-path="url(#clip9802)" cx="243.444" cy="1446.71" r="10" fill="#e26f46" fill-rule="evenodd" fill-opacity="1" stroke="#000000" stroke-opacity="1" stroke-width="3.2"/>
<circle clip-path="url(#clip9802)" cx="275.95" cy="1437.28" r="10" fill="#e26f46" fill-rule="evenodd" fill-opacity="1" stroke="#000000" stroke-opacity="1" stroke-width="3.2"/>
<circle clip-path="url(#clip9802)" cx="308.456" cy="371.034" r="10" fill="#e26f46" fill-rule="evenodd" fill-opacity="1" stroke="#000000" stroke-opacity="1" stroke-width="3.2"/>
<circle clip-path="url(#clip9802)" cx="340.962" cy="1427.84" r="10" fill="#e26f46" fill-rule="evenodd" fill-opacity="1" stroke="#000000" stroke-opacity="1" stroke-width="3.2"/>
<circle clip-path="url(#clip9802)" cx="373.468" cy="361.6" r="10" fill="#e26f46" fill-rule="evenodd" fill-opacity="1" stroke="#000000" stroke-opacity="1" stroke-width="3.2"/>
<circle clip-path="url(#clip9802)" cx="405.974" cy="1418.41" r="10" fill="#e26f46" fill-rule="evenodd" fill-opacity="1" stroke="#000000" stroke-opacity="1" stroke-width="3.2"/>
<circle clip-path="url(#clip9802)" cx="438.48" cy="352.166" r="10" fill="#e26f46" fill-rule="evenodd" fill-opacity="1" stroke="#000000" stroke-opacity="1" stroke-width="3.2"/>
<circle clip-path="url(#clip9802)" cx="470.986" cy="1408.98" r="10" fill="#e26f46" fill-rule="evenodd" fill-opacity="1" stroke="#000000" stroke-opacity="1" stroke-width="3.2"/>
<circle clip-path="url(#clip9802)" cx="503.492" cy="342.732" r="10" fill="#e26f46" fill-rule="evenodd" fill-opacity="1" stroke="#000000" stroke-opacity="1" stroke-width="3.2"/>
<circle clip-path="url(#clip9802)" cx="535.998" cy="1399.54" r="10" fill="#e26f46" fill-rule="evenodd" fill-opacity="1" stroke="#000000" stroke-opacity="1" stroke-width="3.2"/>
<circle clip-path="url(#clip9802)" cx="568.504" cy="333.297" r="10" fill="#e26f46" fill-rule="evenodd" fill-opacity="1" stroke="#000000" stroke-opacity="1" stroke-width="3.2"/>
<circle clip-path="url(#clip9802)" cx="601.01" cy="1390.11" r="10" fill="#e26f46" fill-rule="evenodd" fill-opacity="1" stroke="#000000" stroke-opacity="1" stroke-width="3.2"/>
<circle clip-path="url(#clip9802)" cx="633.516" cy="323.863" r="10" fill="#e26f46" fill-rule="evenodd" fill-opacity="1" stroke="#000000" stroke-opacity="1" stroke-width="3.2"/>
<circle clip-path="url(#clip9802)" cx="666.022" cy="1380.67" r="10" fill="#e26f46" fill-rule="evenodd" fill-opacity="1" stroke="#000000" stroke-opacity="1" stroke-width="3.2"/>
<circle clip-path="url(#clip9802)" cx="698.528" cy="314.429" r="10" fill="#e26f46" fill-rule="evenodd" fill-opacity="1" stroke="#000000" stroke-opacity="1" stroke-width="3.2"/>
<circle clip-path="url(#clip9802)" cx="731.034" cy="1371.24" r="10" fill="#e26f46" fill-rule="evenodd" fill-opacity="1" stroke="#000000" stroke-opacity="1" stroke-width="3.2"/>
<circle clip-path="url(#clip9802)" cx="763.54" cy="304.994" r="10" fill="#e26f46" fill-rule="evenodd" fill-opacity="1" stroke="#000000" stroke-opacity="1" stroke-width="3.2"/>
<circle clip-path="url(#clip9802)" cx="796.046" cy="1361.8" r="10" fill="#e26f46" fill-rule="evenodd" fill-opacity="1" stroke="#000000" stroke-opacity="1" stroke-width="3.2"/>
<circle clip-path="url(#clip9802)" cx="828.552" cy="295.56" r="10" fill="#e26f46" fill-rule="evenodd" fill-opacity="1" stroke="#000000" stroke-opacity="1" stroke-width="3.2"/>
<circle clip-path="url(#clip9802)" cx="861.058" cy="1352.37" r="10" fill="#e26f46" fill-rule="evenodd" fill-opacity="1" stroke="#000000" stroke-opacity="1" stroke-width="3.2"/>
<circle clip-path="url(#clip9802)" cx="893.563" cy="286.126" r="10" fill="#e26f46" fill-rule="evenodd" fill-opacity="1" stroke="#000000" stroke-opacity="1" stroke-width="3.2"/>
<circle clip-path="url(#clip9802)" cx="926.069" cy="1342.94" r="10" fill="#e26f46" fill-rule="evenodd" fill-opacity="1" stroke="#000000" stroke-opacity="1" stroke-width="3.2"/>
<circle clip-path="url(#clip9802)" cx="958.575" cy="276.691" r="10" fill="#e26f46" fill-rule="evenodd" fill-opacity="1" stroke="#000000" stroke-opacity="1" stroke-width="3.2"/>
<circle clip-path="url(#clip9802)" cx="991.081" cy="1333.5" r="10" fill="#e26f46" fill-rule="evenodd" fill-opacity="1" stroke="#000000" stroke-opacity="1" stroke-width="3.2"/>
<circle clip-path="url(#clip9802)" cx="1023.59" cy="267.257" r="10" fill="#e26f46" fill-rule="evenodd" fill-opacity="1" stroke="#000000" stroke-opacity="1" stroke-width="3.2"/>
<circle clip-path="url(#clip9802)" cx="1056.09" cy="1324.07" r="10" fill="#e26f46" fill-rule="evenodd" fill-opacity="1" stroke="#000000" stroke-opacity="1" stroke-width="3.2"/>
<circle clip-path="url(#clip9802)" cx="1088.6" cy="257.823" r="10" fill="#e26f46" fill-rule="evenodd" fill-opacity="1" stroke="#000000" stroke-opacity="1" stroke-width="3.2"/>
<circle clip-path="url(#clip9802)" cx="1121.11" cy="1314.63" r="10" fill="#e26f46" fill-rule="evenodd" fill-opacity="1" stroke="#000000" stroke-opacity="1" stroke-width="3.2"/>
<circle clip-path="url(#clip9802)" cx="1153.61" cy="248.388" r="10" fill="#e26f46" fill-rule="evenodd" fill-opacity="1" stroke="#000000" stroke-opacity="1" stroke-width="3.2"/>
<circle clip-path="url(#clip9802)" cx="1186.12" cy="1305.2" r="10" fill="#e26f46" fill-rule="evenodd" fill-opacity="1" stroke="#000000" stroke-opacity="1" stroke-width="3.2"/>
<circle clip-path="url(#clip9802)" cx="1218.62" cy="238.954" r="10" fill="#e26f46" fill-rule="evenodd" fill-opacity="1" stroke="#000000" stroke-opacity="1" stroke-width="3.2"/>
<circle clip-path="url(#clip9802)" cx="1251.13" cy="1295.76" r="10" fill="#e26f46" fill-rule="evenodd" fill-opacity="1" stroke="#000000" stroke-opacity="1" stroke-width="3.2"/>
<circle clip-path="url(#clip9802)" cx="1283.63" cy="229.52" r="10" fill="#e26f46" fill-rule="evenodd" fill-opacity="1" stroke="#000000" stroke-opacity="1" stroke-width="3.2"/>
<circle clip-path="url(#clip9802)" cx="1316.14" cy="1286.33" r="10" fill="#e26f46" fill-rule="evenodd" fill-opacity="1" stroke="#000000" stroke-opacity="1" stroke-width="3.2"/>
<circle clip-path="url(#clip9802)" cx="1348.65" cy="220.086" r="10" fill="#e26f46" fill-rule="evenodd" fill-opacity="1" stroke="#000000" stroke-opacity="1" stroke-width="3.2"/>
<circle clip-path="url(#clip9802)" cx="1381.15" cy="1276.9" r="10" fill="#e26f46" fill-rule="evenodd" fill-opacity="1" stroke="#000000" stroke-opacity="1" stroke-width="3.2"/>
<circle clip-path="url(#clip9802)" cx="1413.66" cy="210.651" r="10" fill="#e26f46" fill-rule="evenodd" fill-opacity="1" stroke="#000000" stroke-opacity="1" stroke-width="3.2"/>
<circle clip-path="url(#clip9802)" cx="1446.16" cy="1267.46" r="10" fill="#e26f46" fill-rule="evenodd" fill-opacity="1" stroke="#000000" stroke-opacity="1" stroke-width="3.2"/>
<circle clip-path="url(#clip9802)" cx="1478.67" cy="201.217" r="10" fill="#e26f46" fill-rule="evenodd" fill-opacity="1" stroke="#000000" stroke-opacity="1" stroke-width="3.2"/>
<circle clip-path="url(#clip9802)" cx="1511.18" cy="1258.03" r="10" fill="#e26f46" fill-rule="evenodd" fill-opacity="1" stroke="#000000" stroke-opacity="1" stroke-width="3.2"/>
<circle clip-path="url(#clip9802)" cx="1543.68" cy="191.783" r="10" fill="#e26f46" fill-rule="evenodd" fill-opacity="1" stroke="#000000" stroke-opacity="1" stroke-width="3.2"/>
<circle clip-path="url(#clip9802)" cx="1576.19" cy="1248.59" r="10" fill="#e26f46" fill-rule="evenodd" fill-opacity="1" stroke="#000000" stroke-opacity="1" stroke-width="3.2"/>
<circle clip-path="url(#clip9802)" cx="1608.69" cy="182.348" r="10" fill="#e26f46" fill-rule="evenodd" fill-opacity="1" stroke="#000000" stroke-opacity="1" stroke-width="3.2"/>
<circle clip-path="url(#clip9802)" cx="1641.2" cy="1239.16" r="10" fill="#e26f46" fill-rule="evenodd" fill-opacity="1" stroke="#000000" stroke-opacity="1" stroke-width="3.2"/>
<circle clip-path="url(#clip9802)" cx="1673.71" cy="172.914" r="10" fill="#e26f46" fill-rule="evenodd" fill-opacity="1" stroke="#000000" stroke-opacity="1" stroke-width="3.2"/>
<circle clip-path="url(#clip9802)" cx="1706.21" cy="1229.72" r="10" fill="#e26f46" fill-rule="evenodd" fill-opacity="1" stroke="#000000" stroke-opacity="1" stroke-width="3.2"/>
<circle clip-path="url(#clip9802)" cx="1738.72" cy="163.48" r="10" fill="#e26f46" fill-rule="evenodd" fill-opacity="1" stroke="#000000" stroke-opacity="1" stroke-width="3.2"/>
<circle clip-path="url(#clip9802)" cx="1771.22" cy="1220.29" r="10" fill="#e26f46" fill-rule="evenodd" fill-opacity="1" stroke="#000000" stroke-opacity="1" stroke-width="3.2"/>
<circle clip-path="url(#clip9802)" cx="1803.73" cy="154.045" r="10" fill="#e26f46" fill-rule="evenodd" fill-opacity="1" stroke="#000000" stroke-opacity="1" stroke-width="3.2"/>
<circle clip-path="url(#clip9802)" cx="1836.24" cy="1210.86" r="10" fill="#e26f46" fill-rule="evenodd" fill-opacity="1" stroke="#000000" stroke-opacity="1" stroke-width="3.2"/>
<circle clip-path="url(#clip9802)" cx="1868.74" cy="144.611" r="10" fill="#e26f46" fill-rule="evenodd" fill-opacity="1" stroke="#000000" stroke-opacity="1" stroke-width="3.2"/>
<circle clip-path="url(#clip9802)" cx="1901.25" cy="1201.42" r="10" fill="#e26f46" fill-rule="evenodd" fill-opacity="1" stroke="#000000" stroke-opacity="1" stroke-width="3.2"/>
<circle clip-path="url(#clip9802)" cx="1933.75" cy="135.177" r="10" fill="#e26f46" fill-rule="evenodd" fill-opacity="1" stroke="#000000" stroke-opacity="1" stroke-width="3.2"/>
<circle clip-path="url(#clip9802)" cx="1966.26" cy="1191.99" r="10" fill="#e26f46" fill-rule="evenodd" fill-opacity="1" stroke="#000000" stroke-opacity="1" stroke-width="3.2"/>
<circle clip-path="url(#clip9802)" cx="1998.77" cy="125.743" r="10" fill="#e26f46" fill-rule="evenodd" fill-opacity="1" stroke="#000000" stroke-opacity="1" stroke-width="3.2"/>
<circle clip-path="url(#clip9802)" cx="2031.27" cy="1182.55" r="10" fill="#e26f46" fill-rule="evenodd" fill-opacity="1" stroke="#000000" stroke-opacity="1" stroke-width="3.2"/>
<circle clip-path="url(#clip9802)" cx="2063.78" cy="116.308" r="10" fill="#e26f46" fill-rule="evenodd" fill-opacity="1" stroke="#000000" stroke-opacity="1" stroke-width="3.2"/>
<circle clip-path="url(#clip9802)" cx="2096.28" cy="1173.12" r="10" fill="#e26f46" fill-rule="evenodd" fill-opacity="1" stroke="#000000" stroke-opacity="1" stroke-width="3.2"/>
<circle clip-path="url(#clip9802)" cx="2128.79" cy="106.874" r="10" fill="#e26f46" fill-rule="evenodd" fill-opacity="1" stroke="#000000" stroke-opacity="1" stroke-width="3.2"/>
<circle clip-path="url(#clip9802)" cx="2161.3" cy="1163.68" r="10" fill="#e26f46" fill-rule="evenodd" fill-opacity="1" stroke="#000000" stroke-opacity="1" stroke-width="3.2"/>
<circle clip-path="url(#clip9802)" cx="2193.8" cy="97.4396" r="10" fill="#e26f46" fill-rule="evenodd" fill-opacity="1" stroke="#000000" stroke-opacity="1" stroke-width="3.2"/>
<circle clip-path="url(#clip9802)" cx="2226.31" cy="1154.25" r="10" fill="#e26f46" fill-rule="evenodd" fill-opacity="1" stroke="#000000" stroke-opacity="1" stroke-width="3.2"/>
<circle clip-path="url(#clip9802)" cx="2258.81" cy="88.0053" r="10" fill="#e26f46" fill-rule="evenodd" fill-opacity="1" stroke="#000000" stroke-opacity="1" stroke-width="3.2"/>
<circle clip-path="url(#clip9802)" cx="2291.32" cy="1144.82" r="10" fill="#e26f46" fill-rule="evenodd" fill-opacity="1" stroke="#000000" stroke-opacity="1" stroke-width="3.2"/>
<path clip-path="url(#clip9800)" d="
M1971.25 312.204 L2280.76 312.204 L2280.76 130.764 L1971.25 130.764  Z
  " fill="#ffffff" fill-rule="evenodd" fill-opacity="1"/>
<polyline clip-path="url(#clip9800)" style="stroke:#000000; stroke-width:4; stroke-opacity:1; fill:none" points="
  1971.25,312.204 2280.76,312.204 2280.76,130.764 1971.25,130.764 1971.25,312.204 
  "/>
<polyline clip-path="url(#clip9800)" style="stroke:#009af9; stroke-width:4; stroke-opacity:1; fill:none" points="
  1995.25,191.244 2139.25,191.244 
  "/>
<circle clip-path="url(#clip9800)" cx="2079.25" cy="191.244" r="21" fill="#009af9" fill-rule="evenodd" fill-opacity="1" stroke="#000000" stroke-opacity="1" stroke-width="3.2"/>
<g clip-path="url(#clip9800)">
<text style="fill:#000000; fill-opacity:1; font-family:Arial,Helvetica Neue,Helvetica,sans-serif; font-size:48px; text-anchor:start;" transform="rotate(0, 2163.25, 208.744)" x="2163.25" y="208.744">r(t)</text>
</g>
<polyline clip-path="url(#clip9800)" style="stroke:#e26f46; stroke-width:4; stroke-opacity:1; fill:none" points="
  1995.25,251.724 2139.25,251.724 
  "/>
<circle clip-path="url(#clip9800)" cx="2079.25" cy="251.724" r="21" fill="#e26f46" fill-rule="evenodd" fill-opacity="1" stroke="#000000" stroke-opacity="1" stroke-width="3.2"/>
<g clip-path="url(#clip9800)">
<text style="fill:#000000; fill-opacity:1; font-family:Arial,Helvetica Neue,Helvetica,sans-serif; font-size:48px; text-anchor:start;" transform="rotate(0, 2163.25, 269.224)" x="2163.25" y="269.224">y(t)</text>
</g>
</svg>
