<?xml version="1.0" encoding="utf-8"?>
<svg xmlns="http://www.w3.org/2000/svg" xmlns:xlink="http://www.w3.org/1999/xlink" width="600" height="400" viewBox="0 0 2400 1600">
<defs>
  <clipPath id="clip6000">
    <rect x="0" y="0" width="2400" height="1600"/>
  </clipPath>
</defs>
<path clip-path="url(#clip6000)" d="
M0 1600 L2400 1600 L2400 0 L0 0  Z
  " fill="#1e1e1e" fill-rule="evenodd" fill-opacity="1"/>
<defs>
  <clipPath id="clip6001">
    <rect x="480" y="0" width="1681" height="1600"/>
  </clipPath>
</defs>
<path clip-path="url(#clip6000)" d="
M182.008 1487.47 L2352.76 1487.47 L2352.76 47.2441 L182.008 47.2441  Z
  " fill="#1e1e1e" fill-rule="evenodd" fill-opacity="1"/>
<defs>
  <clipPath id="clip6002">
    <rect x="182" y="47" width="2172" height="1441"/>
  </clipPath>
</defs>
<polyline clip-path="url(#clip6002)" style="stroke:#ffffff; stroke-width:2; stroke-opacity:0.1; fill:none" points="
  243.444,1487.47 243.444,47.2441 
  "/>
<polyline clip-path="url(#clip6002)" style="stroke:#ffffff; stroke-width:2; stroke-opacity:0.1; fill:none" points="
  763.54,1487.47 763.54,47.2441 
  "/>
<polyline clip-path="url(#clip6002)" style="stroke:#ffffff; stroke-width:2; stroke-opacity:0.1; fill:none" points="
  1283.63,1487.47 1283.63,47.2441 
  "/>
<polyline clip-path="url(#clip6002)" style="stroke:#ffffff; stroke-width:2; stroke-opacity:0.1; fill:none" points="
  1803.73,1487.47 1803.73,47.2441 
  "/>
<polyline clip-path="url(#clip6002)" style="stroke:#ffffff; stroke-width:2; stroke-opacity:0.1; fill:none" points="
  2323.83,1487.47 2323.83,47.2441 
  "/>
<polyline clip-path="url(#clip6002)" style="stroke:#ffffff; stroke-width:2; stroke-opacity:0.1; fill:none" points="
  182.008,1392.37 2352.76,1392.37 
  "/>
<polyline clip-path="url(#clip6002)" style="stroke:#ffffff; stroke-width:2; stroke-opacity:0.1; fill:none" points="
  182.008,971.309 2352.76,971.309 
  "/>
<polyline clip-path="url(#clip6002)" style="stroke:#ffffff; stroke-width:2; stroke-opacity:0.1; fill:none" points="
  182.008,550.252 2352.76,550.252 
  "/>
<polyline clip-path="url(#clip6002)" style="stroke:#ffffff; stroke-width:2; stroke-opacity:0.1; fill:none" points="
  182.008,129.195 2352.76,129.195 
  "/>
<polyline clip-path="url(#clip6000)" style="stroke:#ffffff; stroke-width:4; stroke-opacity:1; fill:none" points="
  182.008,1487.47 2352.76,1487.47 
  "/>
<polyline clip-path="url(#clip6000)" style="stroke:#ffffff; stroke-width:4; stroke-opacity:1; fill:none" points="
  182.008,1487.47 182.008,47.2441 
  "/>
<polyline clip-path="url(#clip6000)" style="stroke:#ffffff; stroke-width:4; stroke-opacity:1; fill:none" points="
  243.444,1487.47 243.444,1470.19 
  "/>
<polyline clip-path="url(#clip6000)" style="stroke:#ffffff; stroke-width:4; stroke-opacity:1; fill:none" points="
  763.54,1487.47 763.54,1470.19 
  "/>
<polyline clip-path="url(#clip6000)" style="stroke:#ffffff; stroke-width:4; stroke-opacity:1; fill:none" points="
  1283.63,1487.47 1283.63,1470.19 
  "/>
<polyline clip-path="url(#clip6000)" style="stroke:#ffffff; stroke-width:4; stroke-opacity:1; fill:none" points="
  1803.73,1487.47 1803.73,1470.19 
  "/>
<polyline clip-path="url(#clip6000)" style="stroke:#ffffff; stroke-width:4; stroke-opacity:1; fill:none" points="
  2323.83,1487.47 2323.83,1470.19 
  "/>
<polyline clip-path="url(#clip6000)" style="stroke:#ffffff; stroke-width:4; stroke-opacity:1; fill:none" points="
  182.008,1392.37 208.057,1392.37 
  "/>
<polyline clip-path="url(#clip6000)" style="stroke:#ffffff; stroke-width:4; stroke-opacity:1; fill:none" points="
  182.008,971.309 208.057,971.309 
  "/>
<polyline clip-path="url(#clip6000)" style="stroke:#ffffff; stroke-width:4; stroke-opacity:1; fill:none" points="
  182.008,550.252 208.057,550.252 
  "/>
<polyline clip-path="url(#clip6000)" style="stroke:#ffffff; stroke-width:4; stroke-opacity:1; fill:none" points="
  182.008,129.195 208.057,129.195 
  "/>
<g clip-path="url(#clip6000)">
<text style="fill:#ffffff; fill-opacity:1; font-family:Arial,Helvetica Neue,Helvetica,sans-serif; font-size:48px; text-anchor:middle;" transform="rotate(0, 243.444, 1541.47)" x="243.444" y="1541.47">0.00</text>
</g>
<g clip-path="url(#clip6000)">
<text style="fill:#ffffff; fill-opacity:1; font-family:Arial,Helvetica Neue,Helvetica,sans-serif; font-size:48px; text-anchor:middle;" transform="rotate(0, 763.54, 1541.47)" x="763.54" y="1541.47">0.25</text>
</g>
<g clip-path="url(#clip6000)">
<text style="fill:#ffffff; fill-opacity:1; font-family:Arial,Helvetica Neue,Helvetica,sans-serif; font-size:48px; text-anchor:middle;" transform="rotate(0, 1283.63, 1541.47)" x="1283.63" y="1541.47">0.50</text>
</g>
<g clip-path="url(#clip6000)">
<text style="fill:#ffffff; fill-opacity:1; font-family:Arial,Helvetica Neue,Helvetica,sans-serif; font-size:48px; text-anchor:middle;" transform="rotate(0, 1803.73, 1541.47)" x="1803.73" y="1541.47">0.75</text>
</g>
<g clip-path="url(#clip6000)">
<text style="fill:#ffffff; fill-opacity:1; font-family:Arial,Helvetica Neue,Helvetica,sans-serif; font-size:48px; text-anchor:middle;" transform="rotate(0, 2323.83, 1541.47)" x="2323.83" y="1541.47">1.00</text>
</g>
<g clip-path="url(#clip6000)">
<text style="fill:#ffffff; fill-opacity:1; font-family:Arial,Helvetica Neue,Helvetica,sans-serif; font-size:48px; text-anchor:end;" transform="rotate(0, 158.008, 1409.87)" x="158.008" y="1409.87">-0.5</text>
</g>
<g clip-path="url(#clip6000)">
<text style="fill:#ffffff; fill-opacity:1; font-family:Arial,Helvetica Neue,Helvetica,sans-serif; font-size:48px; text-anchor:end;" transform="rotate(0, 158.008, 988.809)" x="158.008" y="988.809">0.0</text>
</g>
<g clip-path="url(#clip6000)">
<text style="fill:#ffffff; fill-opacity:1; font-family:Arial,Helvetica Neue,Helvetica,sans-serif; font-size:48px; text-anchor:end;" transform="rotate(0, 158.008, 567.752)" x="158.008" y="567.752">0.5</text>
</g>
<g clip-path="url(#clip6000)">
<text style="fill:#ffffff; fill-opacity:1; font-family:Arial,Helvetica Neue,Helvetica,sans-serif; font-size:48px; text-anchor:end;" transform="rotate(0, 158.008, 146.695)" x="158.008" y="146.695">1.0</text>
</g>
<polyline clip-path="url(#clip6002)" style="stroke:#14d0ff; stroke-width:8; stroke-opacity:1; fill:none" points="
  243.444,971.309 275.95,958.151 308.456,944.993 340.962,931.835 373.468,918.677 405.974,905.519 438.48,892.361 470.986,879.203 503.492,866.045 535.998,852.887 
  568.504,839.729 601.01,826.571 633.516,813.413 666.022,800.255 698.528,787.096 731.034,773.938 763.54,760.78 796.046,747.622 828.552,734.464 861.058,721.306 
  893.563,708.148 926.069,694.99 958.575,681.832 991.081,668.674 1023.59,655.516 1056.09,642.358 1088.6,629.2 1121.11,616.042 1153.61,602.884 1186.12,589.726 
  1218.62,576.568 1251.13,563.41 1283.63,550.252 1316.14,537.094 1348.65,523.936 1381.15,510.778 1413.66,497.62 1446.16,484.462 1478.67,471.304 1511.18,458.146 
  1543.68,444.988 1576.19,431.829 1608.69,418.671 1641.2,405.513 1673.71,392.355 1706.21,379.197 1738.72,366.039 1771.22,352.881 1803.73,339.723 1836.24,326.565 
  1868.74,313.407 1901.25,300.249 1933.75,287.091 1966.26,273.933 1998.77,260.775 2031.27,247.617 2063.78,234.459 2096.28,221.301 2128.79,208.143 2161.3,194.985 
  2193.8,181.827 2226.31,168.669 2258.81,155.511 2291.32,142.353 
  "/>
<circle clip-path="url(#clip6002)" cx="243.444" cy="971.309" r="10" fill="#14d0ff" fill-rule="evenodd" fill-opacity="1" stroke="#ffffff" stroke-opacity="1" stroke-width="3.2"/>
<circle clip-path="url(#clip6002)" cx="275.95" cy="958.151" r="10" fill="#14d0ff" fill-rule="evenodd" fill-opacity="1" stroke="#ffffff" stroke-opacity="1" stroke-width="3.2"/>
<circle clip-path="url(#clip6002)" cx="308.456" cy="944.993" r="10" fill="#14d0ff" fill-rule="evenodd" fill-opacity="1" stroke="#ffffff" stroke-opacity="1" stroke-width="3.2"/>
<circle clip-path="url(#clip6002)" cx="340.962" cy="931.835" r="10" fill="#14d0ff" fill-rule="evenodd" fill-opacity="1" stroke="#ffffff" stroke-opacity="1" stroke-width="3.2"/>
<circle clip-path="url(#clip6002)" cx="373.468" cy="918.677" r="10" fill="#14d0ff" fill-rule="evenodd" fill-opacity="1" stroke="#ffffff" stroke-opacity="1" stroke-width="3.2"/>
<circle clip-path="url(#clip6002)" cx="405.974" cy="905.519" r="10" fill="#14d0ff" fill-rule="evenodd" fill-opacity="1" stroke="#ffffff" stroke-opacity="1" stroke-width="3.2"/>
<circle clip-path="url(#clip6002)" cx="438.48" cy="892.361" r="10" fill="#14d0ff" fill-rule="evenodd" fill-opacity="1" stroke="#ffffff" stroke-opacity="1" stroke-width="3.2"/>
<circle clip-path="url(#clip6002)" cx="470.986" cy="879.203" r="10" fill="#14d0ff" fill-rule="evenodd" fill-opacity="1" stroke="#ffffff" stroke-opacity="1" stroke-width="3.2"/>
<circle clip-path="url(#clip6002)" cx="503.492" cy="866.045" r="10" fill="#14d0ff" fill-rule="evenodd" fill-opacity="1" stroke="#ffffff" stroke-opacity="1" stroke-width="3.2"/>
<circle clip-path="url(#clip6002)" cx="535.998" cy="852.887" r="10" fill="#14d0ff" fill-rule="evenodd" fill-opacity="1" stroke="#ffffff" stroke-opacity="1" stroke-width="3.2"/>
<circle clip-path="url(#clip6002)" cx="568.504" cy="839.729" r="10" fill="#14d0ff" fill-rule="evenodd" fill-opacity="1" stroke="#ffffff" stroke-opacity="1" stroke-width="3.2"/>
<circle clip-path="url(#clip6002)" cx="601.01" cy="826.571" r="10" fill="#14d0ff" fill-rule="evenodd" fill-opacity="1" stroke="#ffffff" stroke-opacity="1" stroke-width="3.2"/>
<circle clip-path="url(#clip6002)" cx="633.516" cy="813.413" r="10" fill="#14d0ff" fill-rule="evenodd" fill-opacity="1" stroke="#ffffff" stroke-opacity="1" stroke-width="3.2"/>
<circle clip-path="url(#clip6002)" cx="666.022" cy="800.255" r="10" fill="#14d0ff" fill-rule="evenodd" fill-opacity="1" stroke="#ffffff" stroke-opacity="1" stroke-width="3.2"/>
<circle clip-path="url(#clip6002)" cx="698.528" cy="787.096" r="10" fill="#14d0ff" fill-rule="evenodd" fill-opacity="1" stroke="#ffffff" stroke-opacity="1" stroke-width="3.2"/>
<circle clip-path="url(#clip6002)" cx="731.034" cy="773.938" r="10" fill="#14d0ff" fill-rule="evenodd" fill-opacity="1" stroke="#ffffff" stroke-opacity="1" stroke-width="3.2"/>
<circle clip-path="url(#clip6002)" cx="763.54" cy="760.78" r="10" fill="#14d0ff" fill-rule="evenodd" fill-opacity="1" stroke="#ffffff" stroke-opacity="1" stroke-width="3.2"/>
<circle clip-path="url(#clip6002)" cx="796.046" cy="747.622" r="10" fill="#14d0ff" fill-rule="evenodd" fill-opacity="1" stroke="#ffffff" stroke-opacity="1" stroke-width="3.2"/>
<circle clip-path="url(#clip6002)" cx="828.552" cy="734.464" r="10" fill="#14d0ff" fill-rule="evenodd" fill-opacity="1" stroke="#ffffff" stroke-opacity="1" stroke-width="3.2"/>
<circle clip-path="url(#clip6002)" cx="861.058" cy="721.306" r="10" fill="#14d0ff" fill-rule="evenodd" fill-opacity="1" stroke="#ffffff" stroke-opacity="1" stroke-width="3.2"/>
<circle clip-path="url(#clip6002)" cx="893.563" cy="708.148" r="10" fill="#14d0ff" fill-rule="evenodd" fill-opacity="1" stroke="#ffffff" stroke-opacity="1" stroke-width="3.2"/>
<circle clip-path="url(#clip6002)" cx="926.069" cy="694.99" r="10" fill="#14d0ff" fill-rule="evenodd" fill-opacity="1" stroke="#ffffff" stroke-opacity="1" stroke-width="3.2"/>
<circle clip-path="url(#clip6002)" cx="958.575" cy="681.832" r="10" fill="#14d0ff" fill-rule="evenodd" fill-opacity="1" stroke="#ffffff" stroke-opacity="1" stroke-width="3.2"/>
<circle clip-path="url(#clip6002)" cx="991.081" cy="668.674" r="10" fill="#14d0ff" fill-rule="evenodd" fill-opacity="1" stroke="#ffffff" stroke-opacity="1" stroke-width="3.2"/>
<circle clip-path="url(#clip6002)" cx="1023.59" cy="655.516" r="10" fill="#14d0ff" fill-rule="evenodd" fill-opacity="1" stroke="#ffffff" stroke-opacity="1" stroke-width="3.2"/>
<circle clip-path="url(#clip6002)" cx="1056.09" cy="642.358" r="10" fill="#14d0ff" fill-rule="evenodd" fill-opacity="1" stroke="#ffffff" stroke-opacity="1" stroke-width="3.2"/>
<circle clip-path="url(#clip6002)" cx="1088.6" cy="629.2" r="10" fill="#14d0ff" fill-rule="evenodd" fill-opacity="1" stroke="#ffffff" stroke-opacity="1" stroke-width="3.2"/>
<circle clip-path="url(#clip6002)" cx="1121.11" cy="616.042" r="10" fill="#14d0ff" fill-rule="evenodd" fill-opacity="1" stroke="#ffffff" stroke-opacity="1" stroke-width="3.2"/>
<circle clip-path="url(#clip6002)" cx="1153.61" cy="602.884" r="10" fill="#14d0ff" fill-rule="evenodd" fill-opacity="1" stroke="#ffffff" stroke-opacity="1" stroke-width="3.2"/>
<circle clip-path="url(#clip6002)" cx="1186.12" cy="589.726" r="10" fill="#14d0ff" fill-rule="evenodd" fill-opacity="1" stroke="#ffffff" stroke-opacity="1" stroke-width="3.2"/>
<circle clip-path="url(#clip6002)" cx="1218.62" cy="576.568" r="10" fill="#14d0ff" fill-rule="evenodd" fill-opacity="1" stroke="#ffffff" stroke-opacity="1" stroke-width="3.2"/>
<circle clip-path="url(#clip6002)" cx="1251.13" cy="563.41" r="10" fill="#14d0ff" fill-rule="evenodd" fill-opacity="1" stroke="#ffffff" stroke-opacity="1" stroke-width="3.2"/>
<circle clip-path="url(#clip6002)" cx="1283.63" cy="550.252" r="10" fill="#14d0ff" fill-rule="evenodd" fill-opacity="1" stroke="#ffffff" stroke-opacity="1" stroke-width="3.2"/>
<circle clip-path="url(#clip6002)" cx="1316.14" cy="537.094" r="10" fill="#14d0ff" fill-rule="evenodd" fill-opacity="1" stroke="#ffffff" stroke-opacity="1" stroke-width="3.2"/>
<circle clip-path="url(#clip6002)" cx="1348.65" cy="523.936" r="10" fill="#14d0ff" fill-rule="evenodd" fill-opacity="1" stroke="#ffffff" stroke-opacity="1" stroke-width="3.2"/>
<circle clip-path="url(#clip6002)" cx="1381.15" cy="510.778" r="10" fill="#14d0ff" fill-rule="evenodd" fill-opacity="1" stroke="#ffffff" stroke-opacity="1" stroke-width="3.2"/>
<circle clip-path="url(#clip6002)" cx="1413.66" cy="497.62" r="10" fill="#14d0ff" fill-rule="evenodd" fill-opacity="1" stroke="#ffffff" stroke-opacity="1" stroke-width="3.2"/>
<circle clip-path="url(#clip6002)" cx="1446.16" cy="484.462" r="10" fill="#14d0ff" fill-rule="evenodd" fill-opacity="1" stroke="#ffffff" stroke-opacity="1" stroke-width="3.2"/>
<circle clip-path="url(#clip6002)" cx="1478.67" cy="471.304" r="10" fill="#14d0ff" fill-rule="evenodd" fill-opacity="1" stroke="#ffffff" stroke-opacity="1" stroke-width="3.2"/>
<circle clip-path="url(#clip6002)" cx="1511.18" cy="458.146" r="10" fill="#14d0ff" fill-rule="evenodd" fill-opacity="1" stroke="#ffffff" stroke-opacity="1" stroke-width="3.2"/>
<circle clip-path="url(#clip6002)" cx="1543.68" cy="444.988" r="10" fill="#14d0ff" fill-rule="evenodd" fill-opacity="1" stroke="#ffffff" stroke-opacity="1" stroke-width="3.2"/>
<circle clip-path="url(#clip6002)" cx="1576.19" cy="431.829" r="10" fill="#14d0ff" fill-rule="evenodd" fill-opacity="1" stroke="#ffffff" stroke-opacity="1" stroke-width="3.2"/>
<circle clip-path="url(#clip6002)" cx="1608.69" cy="418.671" r="10" fill="#14d0ff" fill-rule="evenodd" fill-opacity="1" stroke="#ffffff" stroke-opacity="1" stroke-width="3.2"/>
<circle clip-path="url(#clip6002)" cx="1641.2" cy="405.513" r="10" fill="#14d0ff" fill-rule="evenodd" fill-opacity="1" stroke="#ffffff" stroke-opacity="1" stroke-width="3.2"/>
<circle clip-path="url(#clip6002)" cx="1673.71" cy="392.355" r="10" fill="#14d0ff" fill-rule="evenodd" fill-opacity="1" stroke="#ffffff" stroke-opacity="1" stroke-width="3.2"/>
<circle clip-path="url(#clip6002)" cx="1706.21" cy="379.197" r="10" fill="#14d0ff" fill-rule="evenodd" fill-opacity="1" stroke="#ffffff" stroke-opacity="1" stroke-width="3.2"/>
<circle clip-path="url(#clip6002)" cx="1738.72" cy="366.039" r="10" fill="#14d0ff" fill-rule="evenodd" fill-opacity="1" stroke="#ffffff" stroke-opacity="1" stroke-width="3.2"/>
<circle clip-path="url(#clip6002)" cx="1771.22" cy="352.881" r="10" fill="#14d0ff" fill-rule="evenodd" fill-opacity="1" stroke="#ffffff" stroke-opacity="1" stroke-width="3.2"/>
<circle clip-path="url(#clip6002)" cx="1803.73" cy="339.723" r="10" fill="#14d0ff" fill-rule="evenodd" fill-opacity="1" stroke="#ffffff" stroke-opacity="1" stroke-width="3.2"/>
<circle clip-path="url(#clip6002)" cx="1836.24" cy="326.565" r="10" fill="#14d0ff" fill-rule="evenodd" fill-opacity="1" stroke="#ffffff" stroke-opacity="1" stroke-width="3.2"/>
<circle clip-path="url(#clip6002)" cx="1868.74" cy="313.407" r="10" fill="#14d0ff" fill-rule="evenodd" fill-opacity="1" stroke="#ffffff" stroke-opacity="1" stroke-width="3.2"/>
<circle clip-path="url(#clip6002)" cx="1901.25" cy="300.249" r="10" fill="#14d0ff" fill-rule="evenodd" fill-opacity="1" stroke="#ffffff" stroke-opacity="1" stroke-width="3.2"/>
<circle clip-path="url(#clip6002)" cx="1933.75" cy="287.091" r="10" fill="#14d0ff" fill-rule="evenodd" fill-opacity="1" stroke="#ffffff" stroke-opacity="1" stroke-width="3.2"/>
<circle clip-path="url(#clip6002)" cx="1966.26" cy="273.933" r="10" fill="#14d0ff" fill-rule="evenodd" fill-opacity="1" stroke="#ffffff" stroke-opacity="1" stroke-width="3.2"/>
<circle clip-path="url(#clip6002)" cx="1998.77" cy="260.775" r="10" fill="#14d0ff" fill-rule="evenodd" fill-opacity="1" stroke="#ffffff" stroke-opacity="1" stroke-width="3.2"/>
<circle clip-path="url(#clip6002)" cx="2031.27" cy="247.617" r="10" fill="#14d0ff" fill-rule="evenodd" fill-opacity="1" stroke="#ffffff" stroke-opacity="1" stroke-width="3.2"/>
<circle clip-path="url(#clip6002)" cx="2063.78" cy="234.459" r="10" fill="#14d0ff" fill-rule="evenodd" fill-opacity="1" stroke="#ffffff" stroke-opacity="1" stroke-width="3.2"/>
<circle clip-path="url(#clip6002)" cx="2096.28" cy="221.301" r="10" fill="#14d0ff" fill-rule="evenodd" fill-opacity="1" stroke="#ffffff" stroke-opacity="1" stroke-width="3.2"/>
<circle clip-path="url(#clip6002)" cx="2128.79" cy="208.143" r="10" fill="#14d0ff" fill-rule="evenodd" fill-opacity="1" stroke="#ffffff" stroke-opacity="1" stroke-width="3.2"/>
<circle clip-path="url(#clip6002)" cx="2161.3" cy="194.985" r="10" fill="#14d0ff" fill-rule="evenodd" fill-opacity="1" stroke="#ffffff" stroke-opacity="1" stroke-width="3.2"/>
<circle clip-path="url(#clip6002)" cx="2193.8" cy="181.827" r="10" fill="#14d0ff" fill-rule="evenodd" fill-opacity="1" stroke="#ffffff" stroke-opacity="1" stroke-width="3.2"/>
<circle clip-path="url(#clip6002)" cx="2226.31" cy="168.669" r="10" fill="#14d0ff" fill-rule="evenodd" fill-opacity="1" stroke="#ffffff" stroke-opacity="1" stroke-width="3.2"/>
<circle clip-path="url(#clip6002)" cx="2258.81" cy="155.511" r="10" fill="#14d0ff" fill-rule="evenodd" fill-opacity="1" stroke="#ffffff" stroke-opacity="1" stroke-width="3.2"/>
<circle clip-path="url(#clip6002)" cx="2291.32" cy="142.353" r="10" fill="#14d0ff" fill-rule="evenodd" fill-opacity="1" stroke="#ffffff" stroke-opacity="1" stroke-width="3.2"/>
<polyline clip-path="url(#clip6002)" style="stroke:#ffa478; stroke-width:8; stroke-opacity:1; fill:none" points="
  243.444,1446.71 275.95,1433.56 308.456,482.746 340.962,1420.4 373.468,469.588 405.974,1407.24 438.48,456.43 470.986,1394.08 503.492,443.272 535.998,1380.92 
  568.504,430.114 601.01,1367.77 633.516,416.956 666.022,1354.61 698.528,403.798 731.034,1341.45 763.54,390.64 796.046,1328.29 828.552,377.482 861.058,1315.13 
  893.563,364.324 926.069,1301.98 958.575,351.166 991.081,1288.82 1023.59,338.008 1056.09,1275.66 1088.6,324.85 1121.11,1262.5 1153.61,311.692 1186.12,1249.34 
  1218.62,298.534 1251.13,1236.18 1283.63,285.376 1316.14,1223.03 1348.65,272.218 1381.15,1209.87 1413.66,259.06 1446.16,1196.71 1478.67,245.902 1511.18,1183.55 
  1543.68,232.744 1576.19,1170.39 1608.69,219.586 1641.2,1157.24 1673.71,206.428 1706.21,1144.08 1738.72,193.27 1771.22,1130.92 1803.73,180.112 1836.24,1117.76 
  1868.74,166.954 1901.25,1104.6 1933.75,153.796 1966.26,1091.45 1998.77,140.637 2031.27,1078.29 2063.78,127.479 2096.28,1065.13 2128.79,114.321 2161.3,1051.97 
  2193.8,101.163 2226.31,1038.81 2258.81,88.0053 2291.32,1025.66 
  "/>
<circle clip-path="url(#clip6002)" cx="243.444" cy="1446.71" r="10" fill="#ffa478" fill-rule="evenodd" fill-opacity="1" stroke="#ffffff" stroke-opacity="1" stroke-width="3.2"/>
<circle clip-path="url(#clip6002)" cx="275.95" cy="1433.56" r="10" fill="#ffa478" fill-rule="evenodd" fill-opacity="1" stroke="#ffffff" stroke-opacity="1" stroke-width="3.2"/>
<circle clip-path="url(#clip6002)" cx="308.456" cy="482.746" r="10" fill="#ffa478" fill-rule="evenodd" fill-opacity="1" stroke="#ffffff" stroke-opacity="1" stroke-width="3.2"/>
<circle clip-path="url(#clip6002)" cx="340.962" cy="1420.4" r="10" fill="#ffa478" fill-rule="evenodd" fill-opacity="1" stroke="#ffffff" stroke-opacity="1" stroke-width="3.2"/>
<circle clip-path="url(#clip6002)" cx="373.468" cy="469.588" r="10" fill="#ffa478" fill-rule="evenodd" fill-opacity="1" stroke="#ffffff" stroke-opacity="1" stroke-width="3.2"/>
<circle clip-path="url(#clip6002)" cx="405.974" cy="1407.24" r="10" fill="#ffa478" fill-rule="evenodd" fill-opacity="1" stroke="#ffffff" stroke-opacity="1" stroke-width="3.2"/>
<circle clip-path="url(#clip6002)" cx="438.48" cy="456.43" r="10" fill="#ffa478" fill-rule="evenodd" fill-opacity="1" stroke="#ffffff" stroke-opacity="1" stroke-width="3.2"/>
<circle clip-path="url(#clip6002)" cx="470.986" cy="1394.08" r="10" fill="#ffa478" fill-rule="evenodd" fill-opacity="1" stroke="#ffffff" stroke-opacity="1" stroke-width="3.2"/>
<circle clip-path="url(#clip6002)" cx="503.492" cy="443.272" r="10" fill="#ffa478" fill-rule="evenodd" fill-opacity="1" stroke="#ffffff" stroke-opacity="1" stroke-width="3.2"/>
<circle clip-path="url(#clip6002)" cx="535.998" cy="1380.92" r="10" fill="#ffa478" fill-rule="evenodd" fill-opacity="1" stroke="#ffffff" stroke-opacity="1" stroke-width="3.2"/>
<circle clip-path="url(#clip6002)" cx="568.504" cy="430.114" r="10" fill="#ffa478" fill-rule="evenodd" fill-opacity="1" stroke="#ffffff" stroke-opacity="1" stroke-width="3.2"/>
<circle clip-path="url(#clip6002)" cx="601.01" cy="1367.77" r="10" fill="#ffa478" fill-rule="evenodd" fill-opacity="1" stroke="#ffffff" stroke-opacity="1" stroke-width="3.2"/>
<circle clip-path="url(#clip6002)" cx="633.516" cy="416.956" r="10" fill="#ffa478" fill-rule="evenodd" fill-opacity="1" stroke="#ffffff" stroke-opacity="1" stroke-width="3.2"/>
<circle clip-path="url(#clip6002)" cx="666.022" cy="1354.61" r="10" fill="#ffa478" fill-rule="evenodd" fill-opacity="1" stroke="#ffffff" stroke-opacity="1" stroke-width="3.2"/>
<circle clip-path="url(#clip6002)" cx="698.528" cy="403.798" r="10" fill="#ffa478" fill-rule="evenodd" fill-opacity="1" stroke="#ffffff" stroke-opacity="1" stroke-width="3.2"/>
<circle clip-path="url(#clip6002)" cx="731.034" cy="1341.45" r="10" fill="#ffa478" fill-rule="evenodd" fill-opacity="1" stroke="#ffffff" stroke-opacity="1" stroke-width="3.2"/>
<circle clip-path="url(#clip6002)" cx="763.54" cy="390.64" r="10" fill="#ffa478" fill-rule="evenodd" fill-opacity="1" stroke="#ffffff" stroke-opacity="1" stroke-width="3.2"/>
<circle clip-path="url(#clip6002)" cx="796.046" cy="1328.29" r="10" fill="#ffa478" fill-rule="evenodd" fill-opacity="1" stroke="#ffffff" stroke-opacity="1" stroke-width="3.2"/>
<circle clip-path="url(#clip6002)" cx="828.552" cy="377.482" r="10" fill="#ffa478" fill-rule="evenodd" fill-opacity="1" stroke="#ffffff" stroke-opacity="1" stroke-width="3.2"/>
<circle clip-path="url(#clip6002)" cx="861.058" cy="1315.13" r="10" fill="#ffa478" fill-rule="evenodd" fill-opacity="1" stroke="#ffffff" stroke-opacity="1" stroke-width="3.2"/>
<circle clip-path="url(#clip6002)" cx="893.563" cy="364.324" r="10" fill="#ffa478" fill-rule="evenodd" fill-opacity="1" stroke="#ffffff" stroke-opacity="1" stroke-width="3.2"/>
<circle clip-path="url(#clip6002)" cx="926.069" cy="1301.98" r="10" fill="#ffa478" fill-rule="evenodd" fill-opacity="1" stroke="#ffffff" stroke-opacity="1" stroke-width="3.2"/>
<circle clip-path="url(#clip6002)" cx="958.575" cy="351.166" r="10" fill="#ffa478" fill-rule="evenodd" fill-opacity="1" stroke="#ffffff" stroke-opacity="1" stroke-width="3.2"/>
<circle clip-path="url(#clip6002)" cx="991.081" cy="1288.82" r="10" fill="#ffa478" fill-rule="evenodd" fill-opacity="1" stroke="#ffffff" stroke-opacity="1" stroke-width="3.2"/>
<circle clip-path="url(#clip6002)" cx="1023.59" cy="338.008" r="10" fill="#ffa478" fill-rule="evenodd" fill-opacity="1" stroke="#ffffff" stroke-opacity="1" stroke-width="3.2"/>
<circle clip-path="url(#clip6002)" cx="1056.09" cy="1275.66" r="10" fill="#ffa478" fill-rule="evenodd" fill-opacity="1" stroke="#ffffff" stroke-opacity="1" stroke-width="3.2"/>
<circle clip-path="url(#clip6002)" cx="1088.6" cy="324.85" r="10" fill="#ffa478" fill-rule="evenodd" fill-opacity="1" stroke="#ffffff" stroke-opacity="1" stroke-width="3.2"/>
<circle clip-path="url(#clip6002)" cx="1121.11" cy="1262.5" r="10" fill="#ffa478" fill-rule="evenodd" fill-opacity="1" stroke="#ffffff" stroke-opacity="1" stroke-width="3.2"/>
<circle clip-path="url(#clip6002)" cx="1153.61" cy="311.692" r="10" fill="#ffa478" fill-rule="evenodd" fill-opacity="1" stroke="#ffffff" stroke-opacity="1" stroke-width="3.2"/>
<circle clip-path="url(#clip6002)" cx="1186.12" cy="1249.34" r="10" fill="#ffa478" fill-rule="evenodd" fill-opacity="1" stroke="#ffffff" stroke-opacity="1" stroke-width="3.2"/>
<circle clip-path="url(#clip6002)" cx="1218.62" cy="298.534" r="10" fill="#ffa478" fill-rule="evenodd" fill-opacity="1" stroke="#ffffff" stroke-opacity="1" stroke-width="3.2"/>
<circle clip-path="url(#clip6002)" cx="1251.13" cy="1236.18" r="10" fill="#ffa478" fill-rule="evenodd" fill-opacity="1" stroke="#ffffff" stroke-opacity="1" stroke-width="3.2"/>
<circle clip-path="url(#clip6002)" cx="1283.63" cy="285.376" r="10" fill="#ffa478" fill-rule="evenodd" fill-opacity="1" stroke="#ffffff" stroke-opacity="1" stroke-width="3.2"/>
<circle clip-path="url(#clip6002)" cx="1316.14" cy="1223.03" r="10" fill="#ffa478" fill-rule="evenodd" fill-opacity="1" stroke="#ffffff" stroke-opacity="1" stroke-width="3.2"/>
<circle clip-path="url(#clip6002)" cx="1348.65" cy="272.218" r="10" fill="#ffa478" fill-rule="evenodd" fill-opacity="1" stroke="#ffffff" stroke-opacity="1" stroke-width="3.2"/>
<circle clip-path="url(#clip6002)" cx="1381.15" cy="1209.87" r="10" fill="#ffa478" fill-rule="evenodd" fill-opacity="1" stroke="#ffffff" stroke-opacity="1" stroke-width="3.2"/>
<circle clip-path="url(#clip6002)" cx="1413.66" cy="259.06" r="10" fill="#ffa478" fill-rule="evenodd" fill-opacity="1" stroke="#ffffff" stroke-opacity="1" stroke-width="3.2"/>
<circle clip-path="url(#clip6002)" cx="1446.16" cy="1196.71" r="10" fill="#ffa478" fill-rule="evenodd" fill-opacity="1" stroke="#ffffff" stroke-opacity="1" stroke-width="3.2"/>
<circle clip-path="url(#clip6002)" cx="1478.67" cy="245.902" r="10" fill="#ffa478" fill-rule="evenodd" fill-opacity="1" stroke="#ffffff" stroke-opacity="1" stroke-width="3.2"/>
<circle clip-path="url(#clip6002)" cx="1511.18" cy="1183.55" r="10" fill="#ffa478" fill-rule="evenodd" fill-opacity="1" stroke="#ffffff" stroke-opacity="1" stroke-width="3.2"/>
<circle clip-path="url(#clip6002)" cx="1543.68" cy="232.744" r="10" fill="#ffa478" fill-rule="evenodd" fill-opacity="1" stroke="#ffffff" stroke-opacity="1" stroke-width="3.2"/>
<circle clip-path="url(#clip6002)" cx="1576.19" cy="1170.39" r="10" fill="#ffa478" fill-rule="evenodd" fill-opacity="1" stroke="#ffffff" stroke-opacity="1" stroke-width="3.2"/>
<circle clip-path="url(#clip6002)" cx="1608.69" cy="219.586" r="10" fill="#ffa478" fill-rule="evenodd" fill-opacity="1" stroke="#ffffff" stroke-opacity="1" stroke-width="3.2"/>
<circle clip-path="url(#clip6002)" cx="1641.2" cy="1157.24" r="10" fill="#ffa478" fill-rule="evenodd" fill-opacity="1" stroke="#ffffff" stroke-opacity="1" stroke-width="3.2"/>
<circle clip-path="url(#clip6002)" cx="1673.71" cy="206.428" r="10" fill="#ffa478" fill-rule="evenodd" fill-opacity="1" stroke="#ffffff" stroke-opacity="1" stroke-width="3.2"/>
<circle clip-path="url(#clip6002)" cx="1706.21" cy="1144.08" r="10" fill="#ffa478" fill-rule="evenodd" fill-opacity="1" stroke="#ffffff" stroke-opacity="1" stroke-width="3.2"/>
<circle clip-path="url(#clip6002)" cx="1738.72" cy="193.27" r="10" fill="#ffa478" fill-rule="evenodd" fill-opacity="1" stroke="#ffffff" stroke-opacity="1" stroke-width="3.2"/>
<circle clip-path="url(#clip6002)" cx="1771.22" cy="1130.92" r="10" fill="#ffa478" fill-rule="evenodd" fill-opacity="1" stroke="#ffffff" stroke-opacity="1" stroke-width="3.2"/>
<circle clip-path="url(#clip6002)" cx="1803.73" cy="180.112" r="10" fill="#ffa478" fill-rule="evenodd" fill-opacity="1" stroke="#ffffff" stroke-opacity="1" stroke-width="3.2"/>
<circle clip-path="url(#clip6002)" cx="1836.24" cy="1117.76" r="10" fill="#ffa478" fill-rule="evenodd" fill-opacity="1" stroke="#ffffff" stroke-opacity="1" stroke-width="3.2"/>
<circle clip-path="url(#clip6002)" cx="1868.74" cy="166.954" r="10" fill="#ffa478" fill-rule="evenodd" fill-opacity="1" stroke="#ffffff" stroke-opacity="1" stroke-width="3.2"/>
<circle clip-path="url(#clip6002)" cx="1901.25" cy="1104.6" r="10" fill="#ffa478" fill-rule="evenodd" fill-opacity="1" stroke="#ffffff" stroke-opacity="1" stroke-width="3.2"/>
<circle clip-path="url(#clip6002)" cx="1933.75" cy="153.796" r="10" fill="#ffa478" fill-rule="evenodd" fill-opacity="1" stroke="#ffffff" stroke-opacity="1" stroke-width="3.2"/>
<circle clip-path="url(#clip6002)" cx="1966.26" cy="1091.45" r="10" fill="#ffa478" fill-rule="evenodd" fill-opacity="1" stroke="#ffffff" stroke-opacity="1" stroke-width="3.2"/>
<circle clip-path="url(#clip6002)" cx="1998.77" cy="140.637" r="10" fill="#ffa478" fill-rule="evenodd" fill-opacity="1" stroke="#ffffff" stroke-opacity="1" stroke-width="3.2"/>
<circle clip-path="url(#clip6002)" cx="2031.27" cy="1078.29" r="10" fill="#ffa478" fill-rule="evenodd" fill-opacity="1" stroke="#ffffff" stroke-opacity="1" stroke-width="3.2"/>
<circle clip-path="url(#clip6002)" cx="2063.78" cy="127.479" r="10" fill="#ffa478" fill-rule="evenodd" fill-opacity="1" stroke="#ffffff" stroke-opacity="1" stroke-width="3.2"/>
<circle clip-path="url(#clip6002)" cx="2096.28" cy="1065.13" r="10" fill="#ffa478" fill-rule="evenodd" fill-opacity="1" stroke="#ffffff" stroke-opacity="1" stroke-width="3.2"/>
<circle clip-path="url(#clip6002)" cx="2128.79" cy="114.321" r="10" fill="#ffa478" fill-rule="evenodd" fill-opacity="1" stroke="#ffffff" stroke-opacity="1" stroke-width="3.2"/>
<circle clip-path="url(#clip6002)" cx="2161.3" cy="1051.97" r="10" fill="#ffa478" fill-rule="evenodd" fill-opacity="1" stroke="#ffffff" stroke-opacity="1" stroke-width="3.2"/>
<circle clip-path="url(#clip6002)" cx="2193.8" cy="101.163" r="10" fill="#ffa478" fill-rule="evenodd" fill-opacity="1" stroke="#ffffff" stroke-opacity="1" stroke-width="3.2"/>
<circle clip-path="url(#clip6002)" cx="2226.31" cy="1038.81" r="10" fill="#ffa478" fill-rule="evenodd" fill-opacity="1" stroke="#ffffff" stroke-opacity="1" stroke-width="3.2"/>
<circle clip-path="url(#clip6002)" cx="2258.81" cy="88.0053" r="10" fill="#ffa478" fill-rule="evenodd" fill-opacity="1" stroke="#ffffff" stroke-opacity="1" stroke-width="3.2"/>
<circle clip-path="url(#clip6002)" cx="2291.32" cy="1025.66" r="10" fill="#ffa478" fill-rule="evenodd" fill-opacity="1" stroke="#ffffff" stroke-opacity="1" stroke-width="3.2"/>
<path clip-path="url(#clip6000)" d="
M1971.25 312.204 L2280.76 312.204 L2280.76 130.764 L1971.25 130.764  Z
  " fill="#1e1e1e" fill-rule="evenodd" fill-opacity="1"/>
<polyline clip-path="url(#clip6000)" style="stroke:#ffffff; stroke-width:4; stroke-opacity:1; fill:none" points="
  1971.25,312.204 2280.76,312.204 2280.76,130.764 1971.25,130.764 1971.25,312.204 
  "/>
<polyline clip-path="url(#clip6000)" style="stroke:#14d0ff; stroke-width:8; stroke-opacity:1; fill:none" points="
  1995.25,191.244 2139.25,191.244 
  "/>
<circle clip-path="url(#clip6000)" cx="2079.25" cy="191.244" r="21" fill="#14d0ff" fill-rule="evenodd" fill-opacity="1" stroke="#ffffff" stroke-opacity="1" stroke-width="3.2"/>
<g clip-path="url(#clip6000)">
<text style="fill:#ffffff; fill-opacity:1; font-family:Arial,Helvetica Neue,Helvetica,sans-serif; font-size:48px; text-anchor:start;" transform="rotate(0, 2163.25, 208.744)" x="2163.25" y="208.744">r(t)</text>
</g>
<polyline clip-path="url(#clip6000)" style="stroke:#ffa478; stroke-width:8; stroke-opacity:1; fill:none" points="
  1995.25,251.724 2139.25,251.724 
  "/>
<circle clip-path="url(#clip6000)" cx="2079.25" cy="251.724" r="21" fill="#ffa478" fill-rule="evenodd" fill-opacity="1" stroke="#ffffff" stroke-opacity="1" stroke-width="3.2"/>
<g clip-path="url(#clip6000)">
<text style="fill:#ffffff; fill-opacity:1; font-family:Arial,Helvetica Neue,Helvetica,sans-serif; font-size:48px; text-anchor:start;" transform="rotate(0, 2163.25, 269.224)" x="2163.25" y="269.224">y(t)</text>
</g>
</svg>
