<?xml version="1.0" encoding="utf-8"?>
<svg xmlns="http://www.w3.org/2000/svg" xmlns:xlink="http://www.w3.org/1999/xlink" width="600" height="400" viewBox="0 0 2400 1600">
<defs>
  <clipPath id="clip2700">
    <rect x="0" y="0" width="2400" height="1600"/>
  </clipPath>
</defs>
<path clip-path="url(#clip2700)" d="
M0 1600 L2400 1600 L2400 0 L0 0  Z
  " fill="#ffffff" fill-rule="evenodd" fill-opacity="1"/>
<defs>
  <clipPath id="clip2701">
    <rect x="480" y="0" width="1681" height="1600"/>
  </clipPath>
</defs>
<path clip-path="url(#clip2700)" d="
M182.008 420.808 L2352.76 420.808 L2352.76 47.2441 L182.008 47.2441  Z
  " fill="#ffffff" fill-rule="evenodd" fill-opacity="1"/>
<defs>
  <clipPath id="clip2702">
    <rect x="182" y="47" width="2172" height="375"/>
  </clipPath>
</defs>
<polyline clip-path="url(#clip2702)" style="stroke:#000000; stroke-width:2; stroke-opacity:0.1; fill:none" points="
  569.727,420.808 569.727,47.2441 
  "/>
<polyline clip-path="url(#clip2702)" style="stroke:#000000; stroke-width:2; stroke-opacity:0.1; fill:none" points="
  1005.39,420.808 1005.39,47.2441 
  "/>
<polyline clip-path="url(#clip2702)" style="stroke:#000000; stroke-width:2; stroke-opacity:0.1; fill:none" points="
  1441.06,420.808 1441.06,47.2441 
  "/>
<polyline clip-path="url(#clip2702)" style="stroke:#000000; stroke-width:2; stroke-opacity:0.1; fill:none" points="
  1876.72,420.808 1876.72,47.2441 
  "/>
<polyline clip-path="url(#clip2702)" style="stroke:#000000; stroke-width:2; stroke-opacity:0.1; fill:none" points="
  2312.39,420.808 2312.39,47.2441 
  "/>
<polyline clip-path="url(#clip2702)" style="stroke:#000000; stroke-width:2; stroke-opacity:0.1; fill:none" points="
  182.008,420.134 2352.76,420.134 
  "/>
<polyline clip-path="url(#clip2702)" style="stroke:#000000; stroke-width:2; stroke-opacity:0.1; fill:none" points="
  182.008,323.13 2352.76,323.13 
  "/>
<polyline clip-path="url(#clip2702)" style="stroke:#000000; stroke-width:2; stroke-opacity:0.1; fill:none" points="
  182.008,226.126 2352.76,226.126 
  "/>
<polyline clip-path="url(#clip2702)" style="stroke:#000000; stroke-width:2; stroke-opacity:0.1; fill:none" points="
  182.008,129.122 2352.76,129.122 
  "/>
<polyline clip-path="url(#clip2700)" style="stroke:#000000; stroke-width:4; stroke-opacity:1; fill:none" points="
  182.008,420.808 2352.76,420.808 
  "/>
<polyline clip-path="url(#clip2700)" style="stroke:#000000; stroke-width:4; stroke-opacity:1; fill:none" points="
  182.008,420.808 182.008,47.2441 
  "/>
<polyline clip-path="url(#clip2700)" style="stroke:#000000; stroke-width:4; stroke-opacity:1; fill:none" points="
  569.727,420.808 569.727,416.325 
  "/>
<polyline clip-path="url(#clip2700)" style="stroke:#000000; stroke-width:4; stroke-opacity:1; fill:none" points="
  1005.39,420.808 1005.39,416.325 
  "/>
<polyline clip-path="url(#clip2700)" style="stroke:#000000; stroke-width:4; stroke-opacity:1; fill:none" points="
  1441.06,420.808 1441.06,416.325 
  "/>
<polyline clip-path="url(#clip2700)" style="stroke:#000000; stroke-width:4; stroke-opacity:1; fill:none" points="
  1876.72,420.808 1876.72,416.325 
  "/>
<polyline clip-path="url(#clip2700)" style="stroke:#000000; stroke-width:4; stroke-opacity:1; fill:none" points="
  2312.39,420.808 2312.39,416.325 
  "/>
<polyline clip-path="url(#clip2700)" style="stroke:#000000; stroke-width:4; stroke-opacity:1; fill:none" points="
  182.008,420.134 208.057,420.134 
  "/>
<polyline clip-path="url(#clip2700)" style="stroke:#000000; stroke-width:4; stroke-opacity:1; fill:none" points="
  182.008,323.13 208.057,323.13 
  "/>
<polyline clip-path="url(#clip2700)" style="stroke:#000000; stroke-width:4; stroke-opacity:1; fill:none" points="
  182.008,226.126 208.057,226.126 
  "/>
<polyline clip-path="url(#clip2700)" style="stroke:#000000; stroke-width:4; stroke-opacity:1; fill:none" points="
  182.008,129.122 208.057,129.122 
  "/>
<g clip-path="url(#clip2700)">
<text style="fill:#000000; fill-opacity:1; font-family:Arial,Helvetica Neue,Helvetica,sans-serif; font-size:48px; text-anchor:middle;" transform="rotate(0, 569.727, 474.808)" x="569.727" y="474.808">0</text>
</g>
<g clip-path="url(#clip2700)">
<text style="fill:#000000; fill-opacity:1; font-family:Arial,Helvetica Neue,Helvetica,sans-serif; font-size:48px; text-anchor:middle;" transform="rotate(0, 1005.39, 474.808)" x="1005.39" y="474.808">5</text>
</g>
<g clip-path="url(#clip2700)">
<text style="fill:#000000; fill-opacity:1; font-family:Arial,Helvetica Neue,Helvetica,sans-serif; font-size:48px; text-anchor:middle;" transform="rotate(0, 1441.06, 474.808)" x="1441.06" y="474.808">10</text>
</g>
<g clip-path="url(#clip2700)">
<text style="fill:#000000; fill-opacity:1; font-family:Arial,Helvetica Neue,Helvetica,sans-serif; font-size:48px; text-anchor:middle;" transform="rotate(0, 1876.72, 474.808)" x="1876.72" y="474.808">15</text>
</g>
<g clip-path="url(#clip2700)">
<text style="fill:#000000; fill-opacity:1; font-family:Arial,Helvetica Neue,Helvetica,sans-serif; font-size:48px; text-anchor:middle;" transform="rotate(0, 2312.39, 474.808)" x="2312.39" y="474.808">20</text>
</g>
<g clip-path="url(#clip2700)">
<text style="fill:#000000; fill-opacity:1; font-family:Arial,Helvetica Neue,Helvetica,sans-serif; font-size:48px; text-anchor:end;" transform="rotate(0, 158.008, 437.634)" x="158.008" y="437.634">-10</text>
</g>
<g clip-path="url(#clip2700)">
<text style="fill:#000000; fill-opacity:1; font-family:Arial,Helvetica Neue,Helvetica,sans-serif; font-size:48px; text-anchor:end;" transform="rotate(0, 158.008, 340.63)" x="158.008" y="340.63">0</text>
</g>
<g clip-path="url(#clip2700)">
<text style="fill:#000000; fill-opacity:1; font-family:Arial,Helvetica Neue,Helvetica,sans-serif; font-size:48px; text-anchor:end;" transform="rotate(0, 158.008, 243.626)" x="158.008" y="243.626">10</text>
</g>
<g clip-path="url(#clip2700)">
<text style="fill:#000000; fill-opacity:1; font-family:Arial,Helvetica Neue,Helvetica,sans-serif; font-size:48px; text-anchor:end;" transform="rotate(0, 158.008, 146.622)" x="158.008" y="146.622">20</text>
</g>
<polyline clip-path="url(#clip2702)" style="stroke:#009af9; stroke-width:4; stroke-opacity:1; fill:none" points="
  590.007,317.991 596.654,317.334 603.172,316.474 608.691,315.442 613.826,314.259 619.068,312.931 624.734,311.451 631.04,309.803 638.155,307.969 646.22,305.922 
  655.369,303.635 665.738,301.075 677.476,298.206 690.741,294.989 705.714,291.38 722.594,287.329 741.606,282.785 762.999,277.689 787.051,271.978 814.068,265.585 
  844.386,258.438 878.373,250.464 916.424,241.587 958.957,231.738 1006.41,220.852 1059.23,208.881 1117.83,195.804 1182.62,181.637 1253.89,166.458 1331.83,150.424 
  1416.41,133.805 1507.3,117.013 1603.78,100.634 1704.59,85.4537 1807.82,72.4621 1910.82,62.8266 2010.1,57.8167 2101.44,58.6662 2180.03,66.3793 2240.87,81.5044 
  2279.23,103.931 2291.32,132.778 2274.79,166.44 2229.21,202.795 2156.12,239.543 2058.86,274.564 1942.1,306.206 1811.22,333.429 1671.67,355.808 1528.5,373.421 
  1386.02,386.695 1247.65,396.246 1115.89,402.751 992.425,406.866 878.226,409.174 773.711,410.165 678.876,410.235 593.418,409.695 516.833,408.779 448.492,407.666 
  387.698,406.484 333.732,405.326 285.877,404.256 243.444,403.319 
  "/>
<path clip-path="url(#clip2700)" d="
M1963.16 251.724 L2280.76 251.724 L2280.76 130.764 L1963.16 130.764  Z
  " fill="#ffffff" fill-rule="evenodd" fill-opacity="1"/>
<polyline clip-path="url(#clip2700)" style="stroke:#000000; stroke-width:4; stroke-opacity:1; fill:none" points="
  1963.16,251.724 2280.76,251.724 2280.76,130.764 1963.16,130.764 1963.16,251.724 
  "/>
<polyline clip-path="url(#clip2700)" style="stroke:#009af9; stroke-width:4; stroke-opacity:1; fill:none" points="
  1987.16,191.244 2131.16,191.244 
  "/>
<g clip-path="url(#clip2700)">
<text style="fill:#000000; fill-opacity:1; font-family:Arial,Helvetica Neue,Helvetica,sans-serif; font-size:48px; text-anchor:start;" transform="rotate(0, 2155.16, 208.744)" x="2155.16" y="208.744">ds1</text>
</g>
<path clip-path="url(#clip2700)" d="
M182.008 954.141 L2352.76 954.141 L2352.76 580.577 L182.008 580.577  Z
  " fill="#ffffff" fill-rule="evenodd" fill-opacity="1"/>
<defs>
  <clipPath id="clip2703">
    <rect x="182" y="580" width="2172" height="375"/>
  </clipPath>
</defs>
<polyline clip-path="url(#clip2703)" style="stroke:#000000; stroke-width:2; stroke-opacity:0.1; fill:none" points="
  576.588,954.141 576.588,580.577 
  "/>
<polyline clip-path="url(#clip2703)" style="stroke:#000000; stroke-width:2; stroke-opacity:0.1; fill:none" points="
  1014.05,954.141 1014.05,580.577 
  "/>
<polyline clip-path="url(#clip2703)" style="stroke:#000000; stroke-width:2; stroke-opacity:0.1; fill:none" points="
  1451.51,954.141 1451.51,580.577 
  "/>
<polyline clip-path="url(#clip2703)" style="stroke:#000000; stroke-width:2; stroke-opacity:0.1; fill:none" points="
  1888.97,954.141 1888.97,580.577 
  "/>
<polyline clip-path="url(#clip2703)" style="stroke:#000000; stroke-width:2; stroke-opacity:0.1; fill:none" points="
  2326.43,954.141 2326.43,580.577 
  "/>
<polyline clip-path="url(#clip2703)" style="stroke:#000000; stroke-width:2; stroke-opacity:0.1; fill:none" points="
  182.008,951.57 2352.76,951.57 
  "/>
<polyline clip-path="url(#clip2703)" style="stroke:#000000; stroke-width:2; stroke-opacity:0.1; fill:none" points="
  182.008,855.303 2352.76,855.303 
  "/>
<polyline clip-path="url(#clip2703)" style="stroke:#000000; stroke-width:2; stroke-opacity:0.1; fill:none" points="
  182.008,759.037 2352.76,759.037 
  "/>
<polyline clip-path="url(#clip2703)" style="stroke:#000000; stroke-width:2; stroke-opacity:0.1; fill:none" points="
  182.008,662.77 2352.76,662.77 
  "/>
<polyline clip-path="url(#clip2700)" style="stroke:#000000; stroke-width:4; stroke-opacity:1; fill:none" points="
  182.008,954.141 2352.76,954.141 
  "/>
<polyline clip-path="url(#clip2700)" style="stroke:#000000; stroke-width:4; stroke-opacity:1; fill:none" points="
  182.008,954.141 182.008,580.577 
  "/>
<polyline clip-path="url(#clip2700)" style="stroke:#000000; stroke-width:4; stroke-opacity:1; fill:none" points="
  576.588,954.141 576.588,949.659 
  "/>
<polyline clip-path="url(#clip2700)" style="stroke:#000000; stroke-width:4; stroke-opacity:1; fill:none" points="
  1014.05,954.141 1014.05,949.659 
  "/>
<polyline clip-path="url(#clip2700)" style="stroke:#000000; stroke-width:4; stroke-opacity:1; fill:none" points="
  1451.51,954.141 1451.51,949.659 
  "/>
<polyline clip-path="url(#clip2700)" style="stroke:#000000; stroke-width:4; stroke-opacity:1; fill:none" points="
  1888.97,954.141 1888.97,949.659 
  "/>
<polyline clip-path="url(#clip2700)" style="stroke:#000000; stroke-width:4; stroke-opacity:1; fill:none" points="
  2326.43,954.141 2326.43,949.659 
  "/>
<polyline clip-path="url(#clip2700)" style="stroke:#000000; stroke-width:4; stroke-opacity:1; fill:none" points="
  182.008,951.57 208.057,951.57 
  "/>
<polyline clip-path="url(#clip2700)" style="stroke:#000000; stroke-width:4; stroke-opacity:1; fill:none" points="
  182.008,855.303 208.057,855.303 
  "/>
<polyline clip-path="url(#clip2700)" style="stroke:#000000; stroke-width:4; stroke-opacity:1; fill:none" points="
  182.008,759.037 208.057,759.037 
  "/>
<polyline clip-path="url(#clip2700)" style="stroke:#000000; stroke-width:4; stroke-opacity:1; fill:none" points="
  182.008,662.77 208.057,662.77 
  "/>
<g clip-path="url(#clip2700)">
<text style="fill:#000000; fill-opacity:1; font-family:Arial,Helvetica Neue,Helvetica,sans-serif; font-size:48px; text-anchor:middle;" transform="rotate(0, 576.588, 1008.14)" x="576.588" y="1008.14">0</text>
</g>
<g clip-path="url(#clip2700)">
<text style="fill:#000000; fill-opacity:1; font-family:Arial,Helvetica Neue,Helvetica,sans-serif; font-size:48px; text-anchor:middle;" transform="rotate(0, 1014.05, 1008.14)" x="1014.05" y="1008.14">5</text>
</g>
<g clip-path="url(#clip2700)">
<text style="fill:#000000; fill-opacity:1; font-family:Arial,Helvetica Neue,Helvetica,sans-serif; font-size:48px; text-anchor:middle;" transform="rotate(0, 1451.51, 1008.14)" x="1451.51" y="1008.14">10</text>
</g>
<g clip-path="url(#clip2700)">
<text style="fill:#000000; fill-opacity:1; font-family:Arial,Helvetica Neue,Helvetica,sans-serif; font-size:48px; text-anchor:middle;" transform="rotate(0, 1888.97, 1008.14)" x="1888.97" y="1008.14">15</text>
</g>
<g clip-path="url(#clip2700)">
<text style="fill:#000000; fill-opacity:1; font-family:Arial,Helvetica Neue,Helvetica,sans-serif; font-size:48px; text-anchor:middle;" transform="rotate(0, 2326.43, 1008.14)" x="2326.43" y="1008.14">20</text>
</g>
<g clip-path="url(#clip2700)">
<text style="fill:#000000; fill-opacity:1; font-family:Arial,Helvetica Neue,Helvetica,sans-serif; font-size:48px; text-anchor:end;" transform="rotate(0, 158.008, 969.07)" x="158.008" y="969.07">-10</text>
</g>
<g clip-path="url(#clip2700)">
<text style="fill:#000000; fill-opacity:1; font-family:Arial,Helvetica Neue,Helvetica,sans-serif; font-size:48px; text-anchor:end;" transform="rotate(0, 158.008, 872.803)" x="158.008" y="872.803">0</text>
</g>
<g clip-path="url(#clip2700)">
<text style="fill:#000000; fill-opacity:1; font-family:Arial,Helvetica Neue,Helvetica,sans-serif; font-size:48px; text-anchor:end;" transform="rotate(0, 158.008, 776.537)" x="158.008" y="776.537">10</text>
</g>
<g clip-path="url(#clip2700)">
<text style="fill:#000000; fill-opacity:1; font-family:Arial,Helvetica Neue,Helvetica,sans-serif; font-size:48px; text-anchor:end;" transform="rotate(0, 158.008, 680.27)" x="158.008" y="680.27">20</text>
</g>
<polyline clip-path="url(#clip2703)" style="stroke:#009af9; stroke-width:4; stroke-opacity:1; fill:none" points="
  642.409,851.585 636.261,849.736 632.36,848.065 631.426,846.48 632.755,844.904 635.82,843.275 640.322,841.548 646.103,839.683 653.102,837.644 661.318,835.397 
  670.801,832.907 681.635,830.137 693.936,827.049 707.847,823.602 723.538,819.75 741.203,815.445 761.063,810.633 783.37,805.256 808.398,799.253 836.455,792.557 
  867.877,785.101 903.027,776.813 942.296,767.626 986.093,757.475 1034.84,746.308 1088.97,734.092 1148.87,720.822 1214.89,706.541 1287.3,691.354 1366.19,675.457 
  1451.46,659.161 1542.67,642.925 1638.98,627.381 1739,613.353 1840.68,601.856 1941.25,594.048 2037.16,591.15 2124.18,594.292 2197.62,604.323 2252.71,621.593 
  2285.07,645.79 2291.32,675.859 2269.57,710.098 2219.74,746.382 2143.64,782.499 2044.67,816.481 1927.42,846.852 1797.06,872.733 1658.76,893.825 1517.31,910.284 
  1376.76,922.577 1240.32,931.329 1110.37,937.208 988.496,940.849 875.633,942.814 772.187,943.569 678.166,943.49 593.288,942.87 517.076,941.93 448.932,940.835 
  388.188,939.704 334.149,938.621 286.124,937.645 243.444,936.814 
  "/>
<path clip-path="url(#clip2700)" d="
M1963.16 785.057 L2280.76 785.057 L2280.76 664.097 L1963.16 664.097  Z
  " fill="#ffffff" fill-rule="evenodd" fill-opacity="1"/>
<polyline clip-path="url(#clip2700)" style="stroke:#000000; stroke-width:4; stroke-opacity:1; fill:none" points="
  1963.16,785.057 2280.76,785.057 2280.76,664.097 1963.16,664.097 1963.16,785.057 
  "/>
<polyline clip-path="url(#clip2700)" style="stroke:#009af9; stroke-width:4; stroke-opacity:1; fill:none" points="
  1987.16,724.577 2131.16,724.577 
  "/>
<g clip-path="url(#clip2700)">
<text style="fill:#000000; fill-opacity:1; font-family:Arial,Helvetica Neue,Helvetica,sans-serif; font-size:48px; text-anchor:start;" transform="rotate(0, 2155.16, 742.077)" x="2155.16" y="742.077">ds2</text>
</g>
<path clip-path="url(#clip2700)" d="
M182.008 1487.47 L2352.76 1487.47 L2352.76 1113.91 L182.008 1113.91  Z
  " fill="#ffffff" fill-rule="evenodd" fill-opacity="1"/>
<defs>
  <clipPath id="clip2704">
    <rect x="182" y="1113" width="2172" height="375"/>
  </clipPath>
</defs>
<polyline clip-path="url(#clip2704)" style="stroke:#000000; stroke-width:2; stroke-opacity:0.1; fill:none" points="
  243.444,1487.47 243.444,1113.91 
  "/>
<polyline clip-path="url(#clip2704)" style="stroke:#000000; stroke-width:2; stroke-opacity:0.1; fill:none" points="
  568.504,1487.47 568.504,1113.91 
  "/>
<polyline clip-path="url(#clip2704)" style="stroke:#000000; stroke-width:2; stroke-opacity:0.1; fill:none" points="
  893.563,1487.47 893.563,1113.91 
  "/>
<polyline clip-path="url(#clip2704)" style="stroke:#000000; stroke-width:2; stroke-opacity:0.1; fill:none" points="
  1218.62,1487.47 1218.62,1113.91 
  "/>
<polyline clip-path="url(#clip2704)" style="stroke:#000000; stroke-width:2; stroke-opacity:0.1; fill:none" points="
  1543.68,1487.47 1543.68,1113.91 
  "/>
<polyline clip-path="url(#clip2704)" style="stroke:#000000; stroke-width:2; stroke-opacity:0.1; fill:none" points="
  1868.74,1487.47 1868.74,1113.91 
  "/>
<polyline clip-path="url(#clip2704)" style="stroke:#000000; stroke-width:2; stroke-opacity:0.1; fill:none" points="
  2193.8,1487.47 2193.8,1113.91 
  "/>
<polyline clip-path="url(#clip2704)" style="stroke:#000000; stroke-width:2; stroke-opacity:0.1; fill:none" points="
  182.008,1426.17 2352.76,1426.17 
  "/>
<polyline clip-path="url(#clip2704)" style="stroke:#000000; stroke-width:2; stroke-opacity:0.1; fill:none" points="
  182.008,1341.29 2352.76,1341.29 
  "/>
<polyline clip-path="url(#clip2704)" style="stroke:#000000; stroke-width:2; stroke-opacity:0.1; fill:none" points="
  182.008,1256.42 2352.76,1256.42 
  "/>
<polyline clip-path="url(#clip2704)" style="stroke:#000000; stroke-width:2; stroke-opacity:0.1; fill:none" points="
  182.008,1171.55 2352.76,1171.55 
  "/>
<polyline clip-path="url(#clip2700)" style="stroke:#000000; stroke-width:4; stroke-opacity:1; fill:none" points="
  182.008,1487.47 2352.76,1487.47 
  "/>
<polyline clip-path="url(#clip2700)" style="stroke:#000000; stroke-width:4; stroke-opacity:1; fill:none" points="
  182.008,1487.47 182.008,1113.91 
  "/>
<polyline clip-path="url(#clip2700)" style="stroke:#000000; stroke-width:4; stroke-opacity:1; fill:none" points="
  243.444,1487.47 243.444,1482.99 
  "/>
<polyline clip-path="url(#clip2700)" style="stroke:#000000; stroke-width:4; stroke-opacity:1; fill:none" points="
  568.504,1487.47 568.504,1482.99 
  "/>
<polyline clip-path="url(#clip2700)" style="stroke:#000000; stroke-width:4; stroke-opacity:1; fill:none" points="
  893.563,1487.47 893.563,1482.99 
  "/>
<polyline clip-path="url(#clip2700)" style="stroke:#000000; stroke-width:4; stroke-opacity:1; fill:none" points="
  1218.62,1487.47 1218.62,1482.99 
  "/>
<polyline clip-path="url(#clip2700)" style="stroke:#000000; stroke-width:4; stroke-opacity:1; fill:none" points="
  1543.68,1487.47 1543.68,1482.99 
  "/>
<polyline clip-path="url(#clip2700)" style="stroke:#000000; stroke-width:4; stroke-opacity:1; fill:none" points="
  1868.74,1487.47 1868.74,1482.99 
  "/>
<polyline clip-path="url(#clip2700)" style="stroke:#000000; stroke-width:4; stroke-opacity:1; fill:none" points="
  2193.8,1487.47 2193.8,1482.99 
  "/>
<polyline clip-path="url(#clip2700)" style="stroke:#000000; stroke-width:4; stroke-opacity:1; fill:none" points="
  182.008,1426.17 208.057,1426.17 
  "/>
<polyline clip-path="url(#clip2700)" style="stroke:#000000; stroke-width:4; stroke-opacity:1; fill:none" points="
  182.008,1341.29 208.057,1341.29 
  "/>
<polyline clip-path="url(#clip2700)" style="stroke:#000000; stroke-width:4; stroke-opacity:1; fill:none" points="
  182.008,1256.42 208.057,1256.42 
  "/>
<polyline clip-path="url(#clip2700)" style="stroke:#000000; stroke-width:4; stroke-opacity:1; fill:none" points="
  182.008,1171.55 208.057,1171.55 
  "/>
<g clip-path="url(#clip2700)">
<text style="fill:#000000; fill-opacity:1; font-family:Arial,Helvetica Neue,Helvetica,sans-serif; font-size:48px; text-anchor:middle;" transform="rotate(0, 243.444, 1541.47)" x="243.444" y="1541.47">0.0</text>
</g>
<g clip-path="url(#clip2700)">
<text style="fill:#000000; fill-opacity:1; font-family:Arial,Helvetica Neue,Helvetica,sans-serif; font-size:48px; text-anchor:middle;" transform="rotate(0, 568.504, 1541.47)" x="568.504" y="1541.47">0.1</text>
</g>
<g clip-path="url(#clip2700)">
<text style="fill:#000000; fill-opacity:1; font-family:Arial,Helvetica Neue,Helvetica,sans-serif; font-size:48px; text-anchor:middle;" transform="rotate(0, 893.563, 1541.47)" x="893.563" y="1541.47">0.2</text>
</g>
<g clip-path="url(#clip2700)">
<text style="fill:#000000; fill-opacity:1; font-family:Arial,Helvetica Neue,Helvetica,sans-serif; font-size:48px; text-anchor:middle;" transform="rotate(0, 1218.62, 1541.47)" x="1218.62" y="1541.47">0.3</text>
</g>
<g clip-path="url(#clip2700)">
<text style="fill:#000000; fill-opacity:1; font-family:Arial,Helvetica Neue,Helvetica,sans-serif; font-size:48px; text-anchor:middle;" transform="rotate(0, 1543.68, 1541.47)" x="1543.68" y="1541.47">0.4</text>
</g>
<g clip-path="url(#clip2700)">
<text style="fill:#000000; fill-opacity:1; font-family:Arial,Helvetica Neue,Helvetica,sans-serif; font-size:48px; text-anchor:middle;" transform="rotate(0, 1868.74, 1541.47)" x="1868.74" y="1541.47">0.5</text>
</g>
<g clip-path="url(#clip2700)">
<text style="fill:#000000; fill-opacity:1; font-family:Arial,Helvetica Neue,Helvetica,sans-serif; font-size:48px; text-anchor:middle;" transform="rotate(0, 2193.8, 1541.47)" x="2193.8" y="1541.47">0.6</text>
</g>
<g clip-path="url(#clip2700)">
<text style="fill:#000000; fill-opacity:1; font-family:Arial,Helvetica Neue,Helvetica,sans-serif; font-size:48px; text-anchor:end;" transform="rotate(0, 158.008, 1443.67)" x="158.008" y="1443.67">-0.4</text>
</g>
<g clip-path="url(#clip2700)">
<text style="fill:#000000; fill-opacity:1; font-family:Arial,Helvetica Neue,Helvetica,sans-serif; font-size:48px; text-anchor:end;" transform="rotate(0, 158.008, 1358.79)" x="158.008" y="1358.79">-0.2</text>
</g>
<g clip-path="url(#clip2700)">
<text style="fill:#000000; fill-opacity:1; font-family:Arial,Helvetica Neue,Helvetica,sans-serif; font-size:48px; text-anchor:end;" transform="rotate(0, 158.008, 1273.92)" x="158.008" y="1273.92">0.0</text>
</g>
<g clip-path="url(#clip2700)">
<text style="fill:#000000; fill-opacity:1; font-family:Arial,Helvetica Neue,Helvetica,sans-serif; font-size:48px; text-anchor:end;" transform="rotate(0, 158.008, 1189.05)" x="158.008" y="1189.05">0.2</text>
</g>
<polyline clip-path="url(#clip2704)" style="stroke:#009af9; stroke-width:4; stroke-opacity:1; fill:none" points="
  243.444,1476.9 275.95,1414.71 308.456,1364.05 340.962,1332.64 373.468,1314.07 405.974,1303.41 438.48,1297.65 470.986,1294.98 503.492,1294.27 535.998,1294.84 
  568.504,1296.28 601.01,1298.33 633.516,1300.83 666.022,1303.69 698.528,1306.88 731.034,1310.34 763.54,1314.08 796.046,1318.08 828.552,1322.34 861.058,1326.84 
  893.563,1331.59 926.069,1336.55 958.575,1341.7 991.081,1346.98 1023.59,1352.32 1056.09,1357.61 1088.6,1362.72 1121.11,1367.43 1153.61,1371.49 1186.12,1374.56 
  1218.62,1376.22 1251.13,1375.97 1283.63,1373.23 1316.14,1367.37 1348.65,1357.77 1381.15,1343.94 1413.66,1325.58 1446.16,1302.82 1478.67,1276.27 1511.18,1247.16 
  1543.68,1217.27 1576.19,1188.73 1608.69,1163.71 1641.2,1144.05 1673.71,1130.89 1706.21,1124.53 1738.72,1124.48 1771.22,1129.62 1803.73,1138.53 1836.24,1149.73 
  1868.74,1161.91 1901.25,1174.06 1933.75,1185.45 1966.26,1195.64 1998.77,1204.4 2031.27,1211.67 2063.78,1217.52 2096.28,1222.04 2128.79,1225.38 2161.3,1227.7 
  2193.8,1229.15 2226.31,1229.88 2258.81,1230.01 2291.32,1229.66 
  "/>
<path clip-path="url(#clip2700)" d="
M1981.94 1318.39 L2280.76 1318.39 L2280.76 1197.43 L1981.94 1197.43  Z
  " fill="#ffffff" fill-rule="evenodd" fill-opacity="1"/>
<polyline clip-path="url(#clip2700)" style="stroke:#000000; stroke-width:4; stroke-opacity:1; fill:none" points="
  1981.94,1318.39 2280.76,1318.39 2280.76,1197.43 1981.94,1197.43 1981.94,1318.39 
  "/>
<polyline clip-path="url(#clip2700)" style="stroke:#009af9; stroke-width:4; stroke-opacity:1; fill:none" points="
  2005.94,1257.91 2149.94,1257.91 
  "/>
<g clip-path="url(#clip2700)">
<text style="fill:#000000; fill-opacity:1; font-family:Arial,Helvetica Neue,Helvetica,sans-serif; font-size:48px; text-anchor:start;" transform="rotate(0, 2173.94, 1275.41)" x="2173.94" y="1275.41">err</text>
</g>
</svg>
