<?xml version="1.0" encoding="utf-8"?>
<svg xmlns="http://www.w3.org/2000/svg" xmlns:xlink="http://www.w3.org/1999/xlink" width="600" height="400" viewBox="0 0 2400 1600">
<defs>
  <clipPath id="clip510">
    <rect x="0" y="0" width="2400" height="1600"/>
  </clipPath>
</defs>
<path clip-path="url(#clip510)" d="
M0 1600 L2400 1600 L2400 0 L0 0  Z
  " fill="#1e1e1e" fill-rule="evenodd" fill-opacity="1"/>
<defs>
  <clipPath id="clip511">
    <rect x="480" y="0" width="1681" height="1600"/>
  </clipPath>
</defs>
<path clip-path="url(#clip510)" d="
M86.9921 1521.01 L2352.76 1521.01 L2352.76 47.2441 L86.9921 47.2441  Z
  " fill="#1e1e1e" fill-rule="evenodd" fill-opacity="1"/>
<defs>
  <clipPath id="clip512">
    <rect x="86" y="47" width="2267" height="1475"/>
  </clipPath>
</defs>
<polyline clip-path="url(#clip512)" style="stroke:#ffffff; stroke-width:2; stroke-opacity:0.1; fill:none" points="
  151.118,1521.01 151.118,47.2441 
  "/>
<polyline clip-path="url(#clip512)" style="stroke:#ffffff; stroke-width:2; stroke-opacity:0.1; fill:none" points="
  490.405,1521.01 490.405,47.2441 
  "/>
<polyline clip-path="url(#clip512)" style="stroke:#ffffff; stroke-width:2; stroke-opacity:0.1; fill:none" points="
  829.693,1521.01 829.693,47.2441 
  "/>
<polyline clip-path="url(#clip512)" style="stroke:#ffffff; stroke-width:2; stroke-opacity:0.1; fill:none" points="
  1168.98,1521.01 1168.98,47.2441 
  "/>
<polyline clip-path="url(#clip512)" style="stroke:#ffffff; stroke-width:2; stroke-opacity:0.1; fill:none" points="
  1508.27,1521.01 1508.27,47.2441 
  "/>
<polyline clip-path="url(#clip512)" style="stroke:#ffffff; stroke-width:2; stroke-opacity:0.1; fill:none" points="
  1847.56,1521.01 1847.56,47.2441 
  "/>
<polyline clip-path="url(#clip512)" style="stroke:#ffffff; stroke-width:2; stroke-opacity:0.1; fill:none" points="
  2186.84,1521.01 2186.84,47.2441 
  "/>
<polyline clip-path="url(#clip512)" style="stroke:#ffffff; stroke-width:2; stroke-opacity:0.1; fill:none" points="
  86.9921,1449.18 2352.76,1449.18 
  "/>
<polyline clip-path="url(#clip512)" style="stroke:#ffffff; stroke-width:2; stroke-opacity:0.1; fill:none" points="
  86.9921,1170.96 2352.76,1170.96 
  "/>
<polyline clip-path="url(#clip512)" style="stroke:#ffffff; stroke-width:2; stroke-opacity:0.1; fill:none" points="
  86.9921,892.745 2352.76,892.745 
  "/>
<polyline clip-path="url(#clip512)" style="stroke:#ffffff; stroke-width:2; stroke-opacity:0.1; fill:none" points="
  86.9921,614.526 2352.76,614.526 
  "/>
<polyline clip-path="url(#clip512)" style="stroke:#ffffff; stroke-width:2; stroke-opacity:0.1; fill:none" points="
  86.9921,336.307 2352.76,336.307 
  "/>
<polyline clip-path="url(#clip512)" style="stroke:#ffffff; stroke-width:2; stroke-opacity:0.1; fill:none" points="
  86.9921,58.0878 2352.76,58.0878 
  "/>
<polyline clip-path="url(#clip510)" style="stroke:#ffffff; stroke-width:4; stroke-opacity:1; fill:none" points="
  86.9921,1521.01 2352.76,1521.01 
  "/>
<polyline clip-path="url(#clip510)" style="stroke:#ffffff; stroke-width:4; stroke-opacity:1; fill:none" points="
  86.9921,1521.01 86.9921,47.2441 
  "/>
<polyline clip-path="url(#clip510)" style="stroke:#ffffff; stroke-width:4; stroke-opacity:1; fill:none" points="
  151.118,1521.01 151.118,1503.32 
  "/>
<polyline clip-path="url(#clip510)" style="stroke:#ffffff; stroke-width:4; stroke-opacity:1; fill:none" points="
  490.405,1521.01 490.405,1503.32 
  "/>
<polyline clip-path="url(#clip510)" style="stroke:#ffffff; stroke-width:4; stroke-opacity:1; fill:none" points="
  829.693,1521.01 829.693,1503.32 
  "/>
<polyline clip-path="url(#clip510)" style="stroke:#ffffff; stroke-width:4; stroke-opacity:1; fill:none" points="
  1168.98,1521.01 1168.98,1503.32 
  "/>
<polyline clip-path="url(#clip510)" style="stroke:#ffffff; stroke-width:4; stroke-opacity:1; fill:none" points="
  1508.27,1521.01 1508.27,1503.32 
  "/>
<polyline clip-path="url(#clip510)" style="stroke:#ffffff; stroke-width:4; stroke-opacity:1; fill:none" points="
  1847.56,1521.01 1847.56,1503.32 
  "/>
<polyline clip-path="url(#clip510)" style="stroke:#ffffff; stroke-width:4; stroke-opacity:1; fill:none" points="
  2186.84,1521.01 2186.84,1503.32 
  "/>
<polyline clip-path="url(#clip510)" style="stroke:#ffffff; stroke-width:4; stroke-opacity:1; fill:none" points="
  86.9921,1449.18 114.181,1449.18 
  "/>
<polyline clip-path="url(#clip510)" style="stroke:#ffffff; stroke-width:4; stroke-opacity:1; fill:none" points="
  86.9921,1170.96 114.181,1170.96 
  "/>
<polyline clip-path="url(#clip510)" style="stroke:#ffffff; stroke-width:4; stroke-opacity:1; fill:none" points="
  86.9921,892.745 114.181,892.745 
  "/>
<polyline clip-path="url(#clip510)" style="stroke:#ffffff; stroke-width:4; stroke-opacity:1; fill:none" points="
  86.9921,614.526 114.181,614.526 
  "/>
<polyline clip-path="url(#clip510)" style="stroke:#ffffff; stroke-width:4; stroke-opacity:1; fill:none" points="
  86.9921,336.307 114.181,336.307 
  "/>
<polyline clip-path="url(#clip510)" style="stroke:#ffffff; stroke-width:4; stroke-opacity:1; fill:none" points="
  86.9921,58.0878 114.181,58.0878 
  "/>
<path clip-path="url(#clip510)" d="M 0 0 M132.634 1543 Q129.023 1543 127.194 1546.56 Q125.388 1550.11 125.388 1557.23 Q125.388 1564.34 127.194 1567.91 Q129.023 1571.45 132.634 1571.45 Q136.268 1571.45 138.074 1567.91 Q139.902 1564.34 139.902 1557.23 Q139.902 1550.11 138.074 1546.56 Q136.268 1543 132.634 1543 M132.634 1539.29 Q138.444 1539.29 141.5 1543.9 Q144.578 1548.48 144.578 1557.23 Q144.578 1565.96 141.5 1570.57 Q138.444 1575.15 132.634 1575.15 Q126.824 1575.15 123.745 1570.57 Q120.689 1565.96 120.689 1557.23 Q120.689 1548.48 123.745 1543.9 Q126.824 1539.29 132.634 1539.29 Z" fill="#ffffff" fill-rule="evenodd" fill-opacity="1" /><path clip-path="url(#clip510)" d="M 0 0 M149.648 1568.6 L154.532 1568.6 L154.532 1574.48 L149.648 1574.48 L149.648 1568.6 Z" fill="#ffffff" fill-rule="evenodd" fill-opacity="1" /><path clip-path="url(#clip510)" d="M 0 0 M169.601 1543 Q165.99 1543 164.161 1546.56 Q162.356 1550.11 162.356 1557.23 Q162.356 1564.34 164.161 1567.91 Q165.99 1571.45 169.601 1571.45 Q173.235 1571.45 175.041 1567.91 Q176.87 1564.34 176.87 1557.23 Q176.87 1550.11 175.041 1546.56 Q173.235 1543 169.601 1543 M169.601 1539.29 Q175.411 1539.29 178.467 1543.9 Q181.546 1548.48 181.546 1557.23 Q181.546 1565.96 178.467 1570.57 Q175.411 1575.15 169.601 1575.15 Q163.791 1575.15 160.712 1570.57 Q157.657 1565.96 157.657 1557.23 Q157.657 1548.48 160.712 1543.9 Q163.791 1539.29 169.601 1539.29 Z" fill="#ffffff" fill-rule="evenodd" fill-opacity="1" /><path clip-path="url(#clip510)" d="M 0 0 M472.535 1543 Q468.924 1543 467.095 1546.56 Q465.29 1550.11 465.29 1557.23 Q465.29 1564.34 467.095 1567.91 Q468.924 1571.45 472.535 1571.45 Q476.169 1571.45 477.975 1567.91 Q479.803 1564.34 479.803 1557.23 Q479.803 1550.11 477.975 1546.56 Q476.169 1543 472.535 1543 M472.535 1539.29 Q478.345 1539.29 481.401 1543.9 Q484.479 1548.48 484.479 1557.23 Q484.479 1565.96 481.401 1570.57 Q478.345 1575.15 472.535 1575.15 Q466.725 1575.15 463.646 1570.57 Q460.591 1565.96 460.591 1557.23 Q460.591 1548.48 463.646 1543.9 Q466.725 1539.29 472.535 1539.29 Z" fill="#ffffff" fill-rule="evenodd" fill-opacity="1" /><path clip-path="url(#clip510)" d="M 0 0 M489.549 1568.6 L494.433 1568.6 L494.433 1574.48 L489.549 1574.48 L489.549 1568.6 Z" fill="#ffffff" fill-rule="evenodd" fill-opacity="1" /><path clip-path="url(#clip510)" d="M 0 0 M500.313 1570.54 L507.951 1570.54 L507.951 1544.18 L499.641 1545.85 L499.641 1541.59 L507.905 1539.92 L512.581 1539.92 L512.581 1570.54 L520.22 1570.54 L520.22 1574.48 L500.313 1574.48 L500.313 1570.54 Z" fill="#ffffff" fill-rule="evenodd" fill-opacity="1" /><path clip-path="url(#clip510)" d="M 0 0 M812.008 1543 Q808.397 1543 806.568 1546.56 Q804.763 1550.11 804.763 1557.23 Q804.763 1564.34 806.568 1567.91 Q808.397 1571.45 812.008 1571.45 Q815.642 1571.45 817.448 1567.91 Q819.276 1564.34 819.276 1557.23 Q819.276 1550.11 817.448 1546.56 Q815.642 1543 812.008 1543 M812.008 1539.29 Q817.818 1539.29 820.874 1543.9 Q823.952 1548.48 823.952 1557.23 Q823.952 1565.96 820.874 1570.57 Q817.818 1575.15 812.008 1575.15 Q806.198 1575.15 803.119 1570.57 Q800.064 1565.96 800.064 1557.23 Q800.064 1548.48 803.119 1543.9 Q806.198 1539.29 812.008 1539.29 Z" fill="#ffffff" fill-rule="evenodd" fill-opacity="1" /><path clip-path="url(#clip510)" d="M 0 0 M829.022 1568.6 L833.906 1568.6 L833.906 1574.48 L829.022 1574.48 L829.022 1568.6 Z" fill="#ffffff" fill-rule="evenodd" fill-opacity="1" /><path clip-path="url(#clip510)" d="M 0 0 M843.003 1570.54 L859.323 1570.54 L859.323 1574.48 L837.378 1574.48 L837.378 1570.54 Q840.04 1567.79 844.624 1563.16 Q849.23 1558.51 850.411 1557.17 Q852.656 1554.64 853.536 1552.91 Q854.438 1551.15 854.438 1549.46 Q854.438 1546.7 852.494 1544.97 Q850.573 1543.23 847.471 1543.23 Q845.272 1543.23 842.818 1543.99 Q840.387 1544.76 837.61 1546.31 L837.61 1541.59 Q840.434 1540.45 842.887 1539.87 Q845.341 1539.29 847.378 1539.29 Q852.749 1539.29 855.943 1541.98 Q859.137 1544.67 859.137 1549.16 Q859.137 1551.29 858.327 1553.21 Q857.54 1555.1 855.434 1557.7 Q854.855 1558.37 851.753 1561.59 Q848.651 1564.78 843.003 1570.54 Z" fill="#ffffff" fill-rule="evenodd" fill-opacity="1" /><path clip-path="url(#clip510)" d="M 0 0 M1150.82 1543 Q1147.21 1543 1145.38 1546.56 Q1143.58 1550.11 1143.58 1557.23 Q1143.58 1564.34 1145.38 1567.91 Q1147.21 1571.45 1150.82 1571.45 Q1154.46 1571.45 1156.26 1567.91 Q1158.09 1564.34 1158.09 1557.23 Q1158.09 1550.11 1156.26 1546.56 Q1154.46 1543 1150.82 1543 M1150.82 1539.29 Q1156.63 1539.29 1159.69 1543.9 Q1162.77 1548.48 1162.77 1557.23 Q1162.77 1565.96 1159.69 1570.57 Q1156.63 1575.15 1150.82 1575.15 Q1145.01 1575.15 1141.93 1570.57 Q1138.88 1565.96 1138.88 1557.23 Q1138.88 1548.48 1141.93 1543.9 Q1145.01 1539.29 1150.82 1539.29 Z" fill="#ffffff" fill-rule="evenodd" fill-opacity="1" /><path clip-path="url(#clip510)" d="M 0 0 M1167.84 1568.6 L1172.72 1568.6 L1172.72 1574.48 L1167.84 1574.48 L1167.84 1568.6 Z" fill="#ffffff" fill-rule="evenodd" fill-opacity="1" /><path clip-path="url(#clip510)" d="M 0 0 M1191.96 1555.85 Q1195.31 1556.56 1197.19 1558.83 Q1199.08 1561.1 1199.08 1564.43 Q1199.08 1569.55 1195.57 1572.35 Q1192.05 1575.15 1185.57 1575.15 Q1183.39 1575.15 1181.08 1574.71 Q1178.78 1574.29 1176.33 1573.44 L1176.33 1568.92 Q1178.27 1570.06 1180.59 1570.64 Q1182.9 1571.22 1185.43 1571.22 Q1189.83 1571.22 1192.12 1569.48 Q1194.43 1567.74 1194.43 1564.43 Q1194.43 1561.38 1192.28 1559.67 Q1190.15 1557.93 1186.33 1557.93 L1182.3 1557.93 L1182.3 1554.09 L1186.52 1554.09 Q1189.96 1554.09 1191.79 1552.72 Q1193.62 1551.33 1193.62 1548.74 Q1193.62 1546.08 1191.72 1544.67 Q1189.85 1543.23 1186.33 1543.23 Q1184.41 1543.23 1182.21 1543.65 Q1180.01 1544.06 1177.37 1544.94 L1177.37 1540.78 Q1180.03 1540.04 1182.35 1539.67 Q1184.69 1539.29 1186.75 1539.29 Q1192.07 1539.29 1195.17 1541.73 Q1198.27 1544.13 1198.27 1548.25 Q1198.27 1551.12 1196.63 1553.11 Q1194.99 1555.08 1191.96 1555.85 Z" fill="#ffffff" fill-rule="evenodd" fill-opacity="1" /><path clip-path="url(#clip510)" d="M 0 0 M1489.54 1543 Q1485.93 1543 1484.1 1546.56 Q1482.3 1550.11 1482.3 1557.23 Q1482.3 1564.34 1484.1 1567.91 Q1485.93 1571.45 1489.54 1571.45 Q1493.18 1571.45 1494.98 1567.91 Q1496.81 1564.34 1496.81 1557.23 Q1496.81 1550.11 1494.98 1546.56 Q1493.18 1543 1489.54 1543 M1489.54 1539.29 Q1495.35 1539.29 1498.41 1543.9 Q1501.49 1548.48 1501.49 1557.23 Q1501.49 1565.96 1498.41 1570.57 Q1495.35 1575.15 1489.54 1575.15 Q1483.73 1575.15 1480.65 1570.57 Q1477.6 1565.96 1477.6 1557.23 Q1477.6 1548.48 1480.65 1543.9 Q1483.73 1539.29 1489.54 1539.29 Z" fill="#ffffff" fill-rule="evenodd" fill-opacity="1" /><path clip-path="url(#clip510)" d="M 0 0 M1506.56 1568.6 L1511.44 1568.6 L1511.44 1574.48 L1506.56 1574.48 L1506.56 1568.6 Z" fill="#ffffff" fill-rule="evenodd" fill-opacity="1" /><path clip-path="url(#clip510)" d="M 0 0 M1529.36 1543.99 L1517.55 1562.44 L1529.36 1562.44 L1529.36 1543.99 M1528.13 1539.92 L1534.01 1539.92 L1534.01 1562.44 L1538.94 1562.44 L1538.94 1566.33 L1534.01 1566.33 L1534.01 1574.48 L1529.36 1574.48 L1529.36 1566.33 L1513.75 1566.33 L1513.75 1561.82 L1528.13 1539.92 Z" fill="#ffffff" fill-rule="evenodd" fill-opacity="1" /><path clip-path="url(#clip510)" d="M 0 0 M1829.57 1543 Q1825.96 1543 1824.13 1546.56 Q1822.33 1550.11 1822.33 1557.23 Q1822.33 1564.34 1824.13 1567.91 Q1825.96 1571.45 1829.57 1571.45 Q1833.2 1571.45 1835.01 1567.91 Q1836.84 1564.34 1836.84 1557.23 Q1836.84 1550.11 1835.01 1546.56 Q1833.2 1543 1829.57 1543 M1829.57 1539.29 Q1835.38 1539.29 1838.44 1543.9 Q1841.51 1548.48 1841.51 1557.23 Q1841.51 1565.96 1838.44 1570.57 Q1835.38 1575.15 1829.57 1575.15 Q1823.76 1575.15 1820.68 1570.57 Q1817.63 1565.96 1817.63 1557.23 Q1817.63 1548.48 1820.68 1543.9 Q1823.76 1539.29 1829.57 1539.29 Z" fill="#ffffff" fill-rule="evenodd" fill-opacity="1" /><path clip-path="url(#clip510)" d="M 0 0 M1846.58 1568.6 L1851.47 1568.6 L1851.47 1574.48 L1846.58 1574.48 L1846.58 1568.6 Z" fill="#ffffff" fill-rule="evenodd" fill-opacity="1" /><path clip-path="url(#clip510)" d="M 0 0 M1856.58 1539.92 L1874.94 1539.92 L1874.94 1543.86 L1860.87 1543.86 L1860.87 1552.33 Q1861.89 1551.98 1862.9 1551.82 Q1863.92 1551.63 1864.94 1551.63 Q1870.73 1551.63 1874.11 1554.8 Q1877.49 1557.98 1877.49 1563.39 Q1877.49 1568.97 1874.01 1572.07 Q1870.54 1575.15 1864.22 1575.15 Q1862.05 1575.15 1859.78 1574.78 Q1857.53 1574.41 1855.13 1573.67 L1855.13 1568.97 Q1857.21 1570.1 1859.43 1570.66 Q1861.65 1571.22 1864.13 1571.22 Q1868.13 1571.22 1870.47 1569.11 Q1872.81 1567 1872.81 1563.39 Q1872.81 1559.78 1870.47 1557.67 Q1868.13 1555.57 1864.13 1555.57 Q1862.26 1555.57 1860.38 1555.98 Q1858.53 1556.4 1856.58 1557.28 L1856.58 1539.92 Z" fill="#ffffff" fill-rule="evenodd" fill-opacity="1" /><path clip-path="url(#clip510)" d="M 0 0 M2168.28 1543 Q2164.67 1543 2162.84 1546.56 Q2161.03 1550.11 2161.03 1557.23 Q2161.03 1564.34 2162.84 1567.91 Q2164.67 1571.45 2168.28 1571.45 Q2171.91 1571.45 2173.72 1567.91 Q2175.55 1564.34 2175.55 1557.23 Q2175.55 1550.11 2173.72 1546.56 Q2171.91 1543 2168.28 1543 M2168.28 1539.29 Q2174.09 1539.29 2177.15 1543.9 Q2180.22 1548.48 2180.22 1557.23 Q2180.22 1565.96 2177.15 1570.57 Q2174.09 1575.15 2168.28 1575.15 Q2162.47 1575.15 2159.39 1570.57 Q2156.34 1565.96 2156.34 1557.23 Q2156.34 1548.48 2159.39 1543.9 Q2162.47 1539.29 2168.28 1539.29 Z" fill="#ffffff" fill-rule="evenodd" fill-opacity="1" /><path clip-path="url(#clip510)" d="M 0 0 M2185.29 1568.6 L2190.18 1568.6 L2190.18 1574.48 L2185.29 1574.48 L2185.29 1568.6 Z" fill="#ffffff" fill-rule="evenodd" fill-opacity="1" /><path clip-path="url(#clip510)" d="M 0 0 M2205.83 1555.34 Q2202.68 1555.34 2200.83 1557.49 Q2199 1559.64 2199 1563.39 Q2199 1567.12 2200.83 1569.29 Q2202.68 1571.45 2205.83 1571.45 Q2208.97 1571.45 2210.8 1569.29 Q2212.65 1567.12 2212.65 1563.39 Q2212.65 1559.64 2210.8 1557.49 Q2208.97 1555.34 2205.83 1555.34 M2215.11 1540.68 L2215.11 1544.94 Q2213.35 1544.11 2211.54 1543.67 Q2209.76 1543.23 2208 1543.23 Q2203.37 1543.23 2200.92 1546.36 Q2198.49 1549.48 2198.14 1555.8 Q2199.51 1553.79 2201.57 1552.72 Q2203.63 1551.63 2206.1 1551.63 Q2211.31 1551.63 2214.32 1554.8 Q2217.35 1557.95 2217.35 1563.39 Q2217.35 1568.72 2214.21 1571.93 Q2211.06 1575.15 2205.83 1575.15 Q2199.83 1575.15 2196.66 1570.57 Q2193.49 1565.96 2193.49 1557.23 Q2193.49 1549.04 2197.38 1544.18 Q2201.27 1539.29 2207.82 1539.29 Q2209.58 1539.29 2211.36 1539.64 Q2213.16 1539.99 2215.11 1540.68 Z" fill="#ffffff" fill-rule="evenodd" fill-opacity="1" /><path clip-path="url(#clip510)" d="M 0 0 M-12.239 1451.58 L0.237833 1451.58 L0.237833 1455.37 L-12.239 1455.37 L-12.239 1451.58 Z" fill="#ffffff" fill-rule="evenodd" fill-opacity="1" /><path clip-path="url(#clip510)" d="M 0 0 M6.11743 1462.53 L13.7563 1462.53 L13.7563 1436.16 L5.44614 1437.83 L5.44614 1433.57 L13.71 1431.9 L18.3859 1431.9 L18.3859 1462.53 L26.0247 1462.53 L26.0247 1466.46 L6.11743 1466.46 L6.11743 1462.53 Z" fill="#ffffff" fill-rule="evenodd" fill-opacity="1" /><path clip-path="url(#clip510)" d="M 0 0 M31.0941 1460.58 L35.9784 1460.58 L35.9784 1466.46 L31.0941 1466.46 L31.0941 1460.58 Z" fill="#ffffff" fill-rule="evenodd" fill-opacity="1" /><path clip-path="url(#clip510)" d="M 0 0 M51.0477 1434.98 Q47.4367 1434.98 45.608 1438.55 Q43.8024 1442.09 43.8024 1449.22 Q43.8024 1456.32 45.608 1459.89 Q47.4367 1463.43 51.0477 1463.43 Q54.682 1463.43 56.4875 1459.89 Q58.3162 1456.32 58.3162 1449.22 Q58.3162 1442.09 56.4875 1438.55 Q54.682 1434.98 51.0477 1434.98 M51.0477 1431.28 Q56.8579 1431.28 59.9134 1435.88 Q62.9921 1440.47 62.9921 1449.22 Q62.9921 1457.94 59.9134 1462.55 Q56.8579 1467.13 51.0477 1467.13 Q45.2376 1467.13 42.1589 1462.55 Q39.1034 1457.94 39.1034 1449.22 Q39.1034 1440.47 42.1589 1435.88 Q45.2376 1431.28 51.0477 1431.28 Z" fill="#ffffff" fill-rule="evenodd" fill-opacity="1" /><path clip-path="url(#clip510)" d="M 0 0 M-12.4704 1173.36 L0.00635237 1173.36 L0.00635237 1177.16 L-12.4704 1177.16 L-12.4704 1173.36 Z" fill="#ffffff" fill-rule="evenodd" fill-opacity="1" /><path clip-path="url(#clip510)" d="M 0 0 M15.0757 1156.76 Q11.4646 1156.76 9.63593 1160.33 Q7.83038 1163.87 7.83038 1171 Q7.83038 1178.1 9.63593 1181.67 Q11.4646 1185.21 15.0757 1185.21 Q18.71 1185.21 20.5155 1181.67 Q22.3442 1178.1 22.3442 1171 Q22.3442 1163.87 20.5155 1160.33 Q18.71 1156.76 15.0757 1156.76 M15.0757 1153.06 Q20.8859 1153.06 23.9414 1157.66 Q27.0201 1162.25 27.0201 1171 Q27.0201 1179.72 23.9414 1184.33 Q20.8859 1188.91 15.0757 1188.91 Q9.26556 1188.91 6.18687 1184.33 Q3.13134 1179.72 3.13134 1171 Q3.13134 1162.25 6.18687 1157.66 Q9.26556 1153.06 15.0757 1153.06 Z" fill="#ffffff" fill-rule="evenodd" fill-opacity="1" /><path clip-path="url(#clip510)" d="M 0 0 M32.0895 1182.36 L36.9737 1182.36 L36.9737 1188.24 L32.0895 1188.24 L32.0895 1182.36 Z" fill="#ffffff" fill-rule="evenodd" fill-opacity="1" /><path clip-path="url(#clip510)" d="M 0 0 M42.0895 1153.68 L60.4458 1153.68 L60.4458 1157.62 L46.3718 1157.62 L46.3718 1166.09 Q47.3904 1165.74 48.4089 1165.58 Q49.4274 1165.4 50.4459 1165.4 Q56.2329 1165.4 59.6125 1168.57 Q62.9921 1171.74 62.9921 1177.16 Q62.9921 1182.73 59.5199 1185.84 Q56.0477 1188.91 49.7283 1188.91 Q47.5524 1188.91 45.2839 1188.54 Q43.0385 1188.17 40.6311 1187.43 L40.6311 1182.73 Q42.7145 1183.87 44.9367 1184.42 Q47.1589 1184.98 49.6357 1184.98 Q53.6403 1184.98 55.9783 1182.87 Q58.3162 1180.77 58.3162 1177.16 Q58.3162 1173.54 55.9783 1171.44 Q53.6403 1169.33 49.6357 1169.33 Q47.7607 1169.33 45.8857 1169.75 Q44.0339 1170.16 42.0895 1171.04 L42.0895 1153.68 Z" fill="#ffffff" fill-rule="evenodd" fill-opacity="1" /><path clip-path="url(#clip510)" d="M 0 0 M14.0804 878.543 Q10.4693 878.543 8.64057 882.108 Q6.83502 885.65 6.83502 892.779 Q6.83502 899.886 8.64057 903.451 Q10.4693 906.992 14.0804 906.992 Q17.7146 906.992 19.5201 903.451 Q21.3488 899.886 21.3488 892.779 Q21.3488 885.65 19.5201 882.108 Q17.7146 878.543 14.0804 878.543 M14.0804 874.84 Q19.8905 874.84 22.946 879.446 Q26.0247 884.029 26.0247 892.779 Q26.0247 901.506 22.946 906.113 Q19.8905 910.696 14.0804 910.696 Q8.2702 910.696 5.19151 906.113 Q2.13597 901.506 2.13597 892.779 Q2.13597 884.029 5.19151 879.446 Q8.2702 874.84 14.0804 874.84 Z" fill="#ffffff" fill-rule="evenodd" fill-opacity="1" /><path clip-path="url(#clip510)" d="M 0 0 M31.0941 904.145 L35.9784 904.145 L35.9784 910.025 L31.0941 910.025 L31.0941 904.145 Z" fill="#ffffff" fill-rule="evenodd" fill-opacity="1" /><path clip-path="url(#clip510)" d="M 0 0 M51.0477 878.543 Q47.4367 878.543 45.608 882.108 Q43.8024 885.65 43.8024 892.779 Q43.8024 899.886 45.608 903.451 Q47.4367 906.992 51.0477 906.992 Q54.682 906.992 56.4875 903.451 Q58.3162 899.886 58.3162 892.779 Q58.3162 885.65 56.4875 882.108 Q54.682 878.543 51.0477 878.543 M51.0477 874.84 Q56.8579 874.84 59.9134 879.446 Q62.9921 884.029 62.9921 892.779 Q62.9921 901.506 59.9134 906.113 Q56.8579 910.696 51.0477 910.696 Q45.2376 910.696 42.1589 906.113 Q39.1034 901.506 39.1034 892.779 Q39.1034 884.029 42.1589 879.446 Q45.2376 874.84 51.0477 874.84 Z" fill="#ffffff" fill-rule="evenodd" fill-opacity="1" /><path clip-path="url(#clip510)" d="M 0 0 M15.0757 600.324 Q11.4646 600.324 9.63593 603.889 Q7.83038 607.431 7.83038 614.56 Q7.83038 621.667 9.63593 625.232 Q11.4646 628.773 15.0757 628.773 Q18.71 628.773 20.5155 625.232 Q22.3442 621.667 22.3442 614.56 Q22.3442 607.431 20.5155 603.889 Q18.71 600.324 15.0757 600.324 M15.0757 596.621 Q20.8859 596.621 23.9414 601.227 Q27.0201 605.81 27.0201 614.56 Q27.0201 623.287 23.9414 627.894 Q20.8859 632.477 15.0757 632.477 Q9.26556 632.477 6.18687 627.894 Q3.13134 623.287 3.13134 614.56 Q3.13134 605.81 6.18687 601.227 Q9.26556 596.621 15.0757 596.621 Z" fill="#ffffff" fill-rule="evenodd" fill-opacity="1" /><path clip-path="url(#clip510)" d="M 0 0 M32.0895 625.926 L36.9737 625.926 L36.9737 631.806 L32.0895 631.806 L32.0895 625.926 Z" fill="#ffffff" fill-rule="evenodd" fill-opacity="1" /><path clip-path="url(#clip510)" d="M 0 0 M42.0895 597.246 L60.4458 597.246 L60.4458 601.181 L46.3718 601.181 L46.3718 609.653 Q47.3904 609.306 48.4089 609.144 Q49.4274 608.959 50.4459 608.959 Q56.2329 608.959 59.6125 612.13 Q62.9921 615.301 62.9921 620.718 Q62.9921 626.296 59.5199 629.398 Q56.0477 632.477 49.7283 632.477 Q47.5524 632.477 45.2839 632.107 Q43.0385 631.736 40.6311 630.995 L40.6311 626.296 Q42.7145 627.431 44.9367 627.986 Q47.1589 628.542 49.6357 628.542 Q53.6403 628.542 55.9783 626.435 Q58.3162 624.329 58.3162 620.718 Q58.3162 617.107 55.9783 615 Q53.6403 612.894 49.6357 612.894 Q47.7607 612.894 45.8857 613.31 Q44.0339 613.727 42.0895 614.607 L42.0895 597.246 Z" fill="#ffffff" fill-rule="evenodd" fill-opacity="1" /><path clip-path="url(#clip510)" d="M 0 0 M6.11743 349.652 L13.7563 349.652 L13.7563 323.286 L5.44614 324.953 L5.44614 320.693 L13.71 319.027 L18.3859 319.027 L18.3859 349.652 L26.0247 349.652 L26.0247 353.587 L6.11743 353.587 L6.11743 349.652 Z" fill="#ffffff" fill-rule="evenodd" fill-opacity="1" /><path clip-path="url(#clip510)" d="M 0 0 M31.0941 347.707 L35.9784 347.707 L35.9784 353.587 L31.0941 353.587 L31.0941 347.707 Z" fill="#ffffff" fill-rule="evenodd" fill-opacity="1" /><path clip-path="url(#clip510)" d="M 0 0 M51.0477 322.105 Q47.4367 322.105 45.608 325.67 Q43.8024 329.212 43.8024 336.341 Q43.8024 343.448 45.608 347.013 Q47.4367 350.554 51.0477 350.554 Q54.682 350.554 56.4875 347.013 Q58.3162 343.448 58.3162 336.341 Q58.3162 329.212 56.4875 325.67 Q54.682 322.105 51.0477 322.105 M51.0477 318.402 Q56.8579 318.402 59.9134 323.008 Q62.9921 327.591 62.9921 336.341 Q62.9921 345.068 59.9134 349.675 Q56.8579 354.258 51.0477 354.258 Q45.2376 354.258 42.1589 349.675 Q39.1034 345.068 39.1034 336.341 Q39.1034 327.591 42.1589 323.008 Q45.2376 318.402 51.0477 318.402 Z" fill="#ffffff" fill-rule="evenodd" fill-opacity="1" /><path clip-path="url(#clip510)" d="M 0 0 M7.1128 71.4326 L14.7516 71.4326 L14.7516 45.067 L6.4415 46.7337 L6.4415 42.4745 L14.7053 40.8078 L19.3812 40.8078 L19.3812 71.4326 L27.0201 71.4326 L27.0201 75.3678 L7.1128 75.3678 L7.1128 71.4326 Z" fill="#ffffff" fill-rule="evenodd" fill-opacity="1" /><path clip-path="url(#clip510)" d="M 0 0 M32.0895 69.4882 L36.9737 69.4882 L36.9737 75.3678 L32.0895 75.3678 L32.0895 69.4882 Z" fill="#ffffff" fill-rule="evenodd" fill-opacity="1" /><path clip-path="url(#clip510)" d="M 0 0 M42.0895 40.8078 L60.4458 40.8078 L60.4458 44.743 L46.3718 44.743 L46.3718 53.2151 Q47.3904 52.8679 48.4089 52.7059 Q49.4274 52.5207 50.4459 52.5207 Q56.2329 52.5207 59.6125 55.692 Q62.9921 58.8633 62.9921 64.2799 Q62.9921 69.8586 59.5199 72.9604 Q56.0477 76.0391 49.7283 76.0391 Q47.5524 76.0391 45.2839 75.6687 Q43.0385 75.2984 40.6311 74.5576 L40.6311 69.8586 Q42.7145 70.9928 44.9367 71.5484 Q47.1589 72.1039 49.6357 72.1039 Q53.6403 72.1039 55.9783 69.9975 Q58.3162 67.891 58.3162 64.2799 Q58.3162 60.6688 55.9783 58.5623 Q53.6403 56.4559 49.6357 56.4559 Q47.7607 56.4559 45.8857 56.8725 Q44.0339 57.2892 42.0895 58.1688 L42.0895 40.8078 Z" fill="#ffffff" fill-rule="evenodd" fill-opacity="1" /><polyline clip-path="url(#clip512)" style="stroke:#009af9; stroke-width:8; stroke-opacity:1; fill:none" points="
  151.118,892.745 185.046,753.608 218.975,618.716 252.904,492.171 286.833,377.804 320.761,279.044 354.69,198.811 388.619,139.417 422.548,102.497 456.477,88.9544 
  490.405,98.9388 524.334,131.843 558.263,186.332 592.192,260.388 626.12,351.388 660.049,456.194 693.978,571.264 727.907,692.776 761.836,816.754 795.764,939.21 
  829.693,1056.28 863.622,1164.34 897.551,1260.14 931.479,1340.92 965.408,1404.46 999.337,1449.18 1033.27,1474.2 1067.19,1479.3 1101.12,1464.98 1135.05,1432.4 
  1168.98,1383.34 1202.91,1320.12 1236.84,1245.5 1270.77,1162.59 1304.7,1074.74 1338.62,985.398 1372.55,897.969 1406.48,815.728 1440.41,741.672 1474.34,678.425 
  1508.27,628.143 1542.2,592.434 1576.13,572.313 1610.05,568.16 1643.98,579.718 1677.91,606.11 1711.84,645.87 1745.77,697.009 1779.7,757.096 1813.63,823.349 
  1847.56,892.745 1881.49,962.141 1915.41,1028.39 1949.34,1088.48 1983.27,1139.62 2017.2,1179.38 2051.13,1205.77 2085.06,1217.33 2118.99,1213.18 2152.92,1193.05 
  2186.84,1157.35 2220.77,1107.06 2254.7,1043.82 2288.63,969.761 
  "/>
<path clip-path="url(#clip510)" d="
M1974.46 217.33 L2277.23 217.33 L2277.23 96.3696 L1974.46 96.3696  Z
  " fill="#1e1e1e" fill-rule="evenodd" fill-opacity="1"/>
<polyline clip-path="url(#clip510)" style="stroke:#ffffff; stroke-width:4; stroke-opacity:1; fill:none" points="
  1974.46,217.33 2277.23,217.33 2277.23,96.3696 1974.46,96.3696 1974.46,217.33 
  "/>
<polyline clip-path="url(#clip510)" style="stroke:#009af9; stroke-width:4; stroke-opacity:1; fill:none" points="
  1999.64,156.85 2150.69,156.85 
  "/>
<path clip-path="url(#clip510)" d="M 0 0 M2189.7 176.537 Q2187.9 181.167 2186.19 182.579 Q2184.47 183.991 2181.6 183.991 L2178.2 183.991 L2178.2 180.426 L2180.7 180.426 Q2182.46 180.426 2183.43 179.592 Q2184.4 178.759 2185.58 175.657 L2186.35 173.713 L2175.86 148.204 L2180.38 148.204 L2188.48 168.481 L2196.58 148.204 L2201.09 148.204 L2189.7 176.537 Z" fill="#ffffff" fill-rule="evenodd" fill-opacity="1" /><path clip-path="url(#clip510)" d="M 0 0 M2206.97 170.194 L2214.61 170.194 L2214.61 143.829 L2206.3 145.495 L2206.3 141.236 L2214.57 139.57 L2219.24 139.57 L2219.24 170.194 L2226.88 170.194 L2226.88 174.13 L2206.97 174.13 L2206.97 170.194 Z" fill="#ffffff" fill-rule="evenodd" fill-opacity="1" /></svg>
