<?xml version="1.0" encoding="utf-8"?>
<svg xmlns="http://www.w3.org/2000/svg" xmlns:xlink="http://www.w3.org/1999/xlink" width="600" height="400" viewBox="0 0 2400 1600">
<defs>
  <clipPath id="clip9200">
    <rect x="0" y="0" width="2400" height="1600"/>
  </clipPath>
</defs>
<path clip-path="url(#clip9200)" d="
M0 1600 L2400 1600 L2400 0 L0 0  Z
  " fill="#1e1e1e" fill-rule="evenodd" fill-opacity="1"/>
<defs>
  <clipPath id="clip9201">
    <rect x="480" y="0" width="1681" height="1600"/>
  </clipPath>
</defs>
<path clip-path="url(#clip9200)" d="
M182.008 1487.47 L2352.76 1487.47 L2352.76 47.2441 L182.008 47.2441  Z
  " fill="#1e1e1e" fill-rule="evenodd" fill-opacity="1"/>
<defs>
  <clipPath id="clip9202">
    <rect x="182" y="47" width="2172" height="1441"/>
  </clipPath>
</defs>
<polyline clip-path="url(#clip9202)" style="stroke:#ffffff; stroke-width:2; stroke-opacity:0.1; fill:none" points="
  243.444,1487.47 243.444,47.2441 
  "/>
<polyline clip-path="url(#clip9202)" style="stroke:#ffffff; stroke-width:2; stroke-opacity:0.1; fill:none" points="
  568.504,1487.47 568.504,47.2441 
  "/>
<polyline clip-path="url(#clip9202)" style="stroke:#ffffff; stroke-width:2; stroke-opacity:0.1; fill:none" points="
  893.563,1487.47 893.563,47.2441 
  "/>
<polyline clip-path="url(#clip9202)" style="stroke:#ffffff; stroke-width:2; stroke-opacity:0.1; fill:none" points="
  1218.62,1487.47 1218.62,47.2441 
  "/>
<polyline clip-path="url(#clip9202)" style="stroke:#ffffff; stroke-width:2; stroke-opacity:0.1; fill:none" points="
  1543.68,1487.47 1543.68,47.2441 
  "/>
<polyline clip-path="url(#clip9202)" style="stroke:#ffffff; stroke-width:2; stroke-opacity:0.1; fill:none" points="
  1868.74,1487.47 1868.74,47.2441 
  "/>
<polyline clip-path="url(#clip9202)" style="stroke:#ffffff; stroke-width:2; stroke-opacity:0.1; fill:none" points="
  2193.8,1487.47 2193.8,47.2441 
  "/>
<polyline clip-path="url(#clip9202)" style="stroke:#ffffff; stroke-width:2; stroke-opacity:0.1; fill:none" points="
  182.008,1417.28 2352.76,1417.28 
  "/>
<polyline clip-path="url(#clip9202)" style="stroke:#ffffff; stroke-width:2; stroke-opacity:0.1; fill:none" points="
  182.008,1145.4 2352.76,1145.4 
  "/>
<polyline clip-path="url(#clip9202)" style="stroke:#ffffff; stroke-width:2; stroke-opacity:0.1; fill:none" points="
  182.008,873.507 2352.76,873.507 
  "/>
<polyline clip-path="url(#clip9202)" style="stroke:#ffffff; stroke-width:2; stroke-opacity:0.1; fill:none" points="
  182.008,601.618 2352.76,601.618 
  "/>
<polyline clip-path="url(#clip9202)" style="stroke:#ffffff; stroke-width:2; stroke-opacity:0.1; fill:none" points="
  182.008,329.73 2352.76,329.73 
  "/>
<polyline clip-path="url(#clip9202)" style="stroke:#ffffff; stroke-width:2; stroke-opacity:0.1; fill:none" points="
  182.008,57.8411 2352.76,57.8411 
  "/>
<polyline clip-path="url(#clip9200)" style="stroke:#ffffff; stroke-width:4; stroke-opacity:1; fill:none" points="
  182.008,1487.47 2352.76,1487.47 
  "/>
<polyline clip-path="url(#clip9200)" style="stroke:#ffffff; stroke-width:4; stroke-opacity:1; fill:none" points="
  182.008,1487.47 182.008,47.2441 
  "/>
<polyline clip-path="url(#clip9200)" style="stroke:#ffffff; stroke-width:4; stroke-opacity:1; fill:none" points="
  243.444,1487.47 243.444,1470.19 
  "/>
<polyline clip-path="url(#clip9200)" style="stroke:#ffffff; stroke-width:4; stroke-opacity:1; fill:none" points="
  568.504,1487.47 568.504,1470.19 
  "/>
<polyline clip-path="url(#clip9200)" style="stroke:#ffffff; stroke-width:4; stroke-opacity:1; fill:none" points="
  893.563,1487.47 893.563,1470.19 
  "/>
<polyline clip-path="url(#clip9200)" style="stroke:#ffffff; stroke-width:4; stroke-opacity:1; fill:none" points="
  1218.62,1487.47 1218.62,1470.19 
  "/>
<polyline clip-path="url(#clip9200)" style="stroke:#ffffff; stroke-width:4; stroke-opacity:1; fill:none" points="
  1543.68,1487.47 1543.68,1470.19 
  "/>
<polyline clip-path="url(#clip9200)" style="stroke:#ffffff; stroke-width:4; stroke-opacity:1; fill:none" points="
  1868.74,1487.47 1868.74,1470.19 
  "/>
<polyline clip-path="url(#clip9200)" style="stroke:#ffffff; stroke-width:4; stroke-opacity:1; fill:none" points="
  2193.8,1487.47 2193.8,1470.19 
  "/>
<polyline clip-path="url(#clip9200)" style="stroke:#ffffff; stroke-width:4; stroke-opacity:1; fill:none" points="
  182.008,1417.28 208.057,1417.28 
  "/>
<polyline clip-path="url(#clip9200)" style="stroke:#ffffff; stroke-width:4; stroke-opacity:1; fill:none" points="
  182.008,1145.4 208.057,1145.4 
  "/>
<polyline clip-path="url(#clip9200)" style="stroke:#ffffff; stroke-width:4; stroke-opacity:1; fill:none" points="
  182.008,873.507 208.057,873.507 
  "/>
<polyline clip-path="url(#clip9200)" style="stroke:#ffffff; stroke-width:4; stroke-opacity:1; fill:none" points="
  182.008,601.618 208.057,601.618 
  "/>
<polyline clip-path="url(#clip9200)" style="stroke:#ffffff; stroke-width:4; stroke-opacity:1; fill:none" points="
  182.008,329.73 208.057,329.73 
  "/>
<polyline clip-path="url(#clip9200)" style="stroke:#ffffff; stroke-width:4; stroke-opacity:1; fill:none" points="
  182.008,57.8411 208.057,57.8411 
  "/>
<g clip-path="url(#clip9200)">
<text style="fill:#ffffff; fill-opacity:1; font-family:Arial,Helvetica Neue,Helvetica,sans-serif; font-size:48px; text-anchor:middle;" transform="rotate(0, 243.444, 1541.47)" x="243.444" y="1541.47">0.0</text>
</g>
<g clip-path="url(#clip9200)">
<text style="fill:#ffffff; fill-opacity:1; font-family:Arial,Helvetica Neue,Helvetica,sans-serif; font-size:48px; text-anchor:middle;" transform="rotate(0, 568.504, 1541.47)" x="568.504" y="1541.47">0.1</text>
</g>
<g clip-path="url(#clip9200)">
<text style="fill:#ffffff; fill-opacity:1; font-family:Arial,Helvetica Neue,Helvetica,sans-serif; font-size:48px; text-anchor:middle;" transform="rotate(0, 893.563, 1541.47)" x="893.563" y="1541.47">0.2</text>
</g>
<g clip-path="url(#clip9200)">
<text style="fill:#ffffff; fill-opacity:1; font-family:Arial,Helvetica Neue,Helvetica,sans-serif; font-size:48px; text-anchor:middle;" transform="rotate(0, 1218.62, 1541.47)" x="1218.62" y="1541.47">0.3</text>
</g>
<g clip-path="url(#clip9200)">
<text style="fill:#ffffff; fill-opacity:1; font-family:Arial,Helvetica Neue,Helvetica,sans-serif; font-size:48px; text-anchor:middle;" transform="rotate(0, 1543.68, 1541.47)" x="1543.68" y="1541.47">0.4</text>
</g>
<g clip-path="url(#clip9200)">
<text style="fill:#ffffff; fill-opacity:1; font-family:Arial,Helvetica Neue,Helvetica,sans-serif; font-size:48px; text-anchor:middle;" transform="rotate(0, 1868.74, 1541.47)" x="1868.74" y="1541.47">0.5</text>
</g>
<g clip-path="url(#clip9200)">
<text style="fill:#ffffff; fill-opacity:1; font-family:Arial,Helvetica Neue,Helvetica,sans-serif; font-size:48px; text-anchor:middle;" transform="rotate(0, 2193.8, 1541.47)" x="2193.8" y="1541.47">0.6</text>
</g>
<g clip-path="url(#clip9200)">
<text style="fill:#ffffff; fill-opacity:1; font-family:Arial,Helvetica Neue,Helvetica,sans-serif; font-size:48px; text-anchor:end;" transform="rotate(0, 158.008, 1434.78)" x="158.008" y="1434.78">-1.0</text>
</g>
<g clip-path="url(#clip9200)">
<text style="fill:#ffffff; fill-opacity:1; font-family:Arial,Helvetica Neue,Helvetica,sans-serif; font-size:48px; text-anchor:end;" transform="rotate(0, 158.008, 1162.9)" x="158.008" y="1162.9">-0.5</text>
</g>
<g clip-path="url(#clip9200)">
<text style="fill:#ffffff; fill-opacity:1; font-family:Arial,Helvetica Neue,Helvetica,sans-serif; font-size:48px; text-anchor:end;" transform="rotate(0, 158.008, 891.007)" x="158.008" y="891.007">0.0</text>
</g>
<g clip-path="url(#clip9200)">
<text style="fill:#ffffff; fill-opacity:1; font-family:Arial,Helvetica Neue,Helvetica,sans-serif; font-size:48px; text-anchor:end;" transform="rotate(0, 158.008, 619.118)" x="158.008" y="619.118">0.5</text>
</g>
<g clip-path="url(#clip9200)">
<text style="fill:#ffffff; fill-opacity:1; font-family:Arial,Helvetica Neue,Helvetica,sans-serif; font-size:48px; text-anchor:end;" transform="rotate(0, 158.008, 347.23)" x="158.008" y="347.23">1.0</text>
</g>
<g clip-path="url(#clip9200)">
<text style="fill:#ffffff; fill-opacity:1; font-family:Arial,Helvetica Neue,Helvetica,sans-serif; font-size:48px; text-anchor:end;" transform="rotate(0, 158.008, 75.3411)" x="158.008" y="75.3411">1.5</text>
</g>
<polyline clip-path="url(#clip9202)" style="stroke:#14d0ff; stroke-width:8; stroke-opacity:1; fill:none" points="
  243.444,873.507 275.95,737.536 308.456,605.713 340.962,482.047 373.468,370.282 405.974,273.77 438.48,195.362 470.986,137.32 503.492,101.24 535.998,88.0053 
  568.504,97.7626 601.01,129.919 633.516,183.167 666.022,255.538 698.528,344.467 731.034,446.889 763.54,559.341 796.046,678.088 828.552,799.245 861.058,918.915 
  893.563,1033.32 926.069,1138.92 958.575,1232.54 991.081,1311.48 1023.59,1373.58 1056.09,1417.28 1088.6,1441.73 1121.11,1446.71 1153.61,1432.72 1186.12,1400.89 
  1218.62,1352.94 1251.13,1291.16 1283.63,1218.23 1316.14,1137.21 1348.65,1051.37 1381.15,964.052 1413.66,878.613 1446.16,798.242 1478.67,725.871 1511.18,664.064 
  1543.68,614.925 1576.19,580.029 1608.69,560.366 1641.2,556.307 1673.71,567.603 1706.21,593.394 1738.72,632.249 1771.22,682.225 1803.73,740.945 1836.24,805.69 
  1868.74,873.507 1901.25,941.324 1933.75,1006.07 1966.26,1064.79 1998.77,1114.76 2031.27,1153.62 2063.78,1179.41 2096.28,1190.71 2128.79,1186.65 2161.3,1166.98 
  2193.8,1132.09 2226.31,1082.95 2258.81,1021.14 2291.32,948.771 
  "/>
<path clip-path="url(#clip9200)" d="
M1989.93 251.724 L2280.76 251.724 L2280.76 130.764 L1989.93 130.764  Z
  " fill="#1e1e1e" fill-rule="evenodd" fill-opacity="1"/>
<polyline clip-path="url(#clip9200)" style="stroke:#ffffff; stroke-width:4; stroke-opacity:1; fill:none" points="
  1989.93,251.724 2280.76,251.724 2280.76,130.764 1989.93,130.764 1989.93,251.724 
  "/>
<polyline clip-path="url(#clip9200)" style="stroke:#14d0ff; stroke-width:8; stroke-opacity:1; fill:none" points="
  2013.93,191.244 2157.93,191.244 
  "/>
<g clip-path="url(#clip9200)">
<text style="fill:#ffffff; fill-opacity:1; font-family:Arial,Helvetica Neue,Helvetica,sans-serif; font-size:48px; text-anchor:start;" transform="rotate(0, 2181.93, 208.744)" x="2181.93" y="208.744">y1</text>
</g>
</svg>
