<?xml version="1.0" encoding="utf-8"?>
<svg xmlns="http://www.w3.org/2000/svg" xmlns:xlink="http://www.w3.org/1999/xlink" width="600" height="400" viewBox="0 0 2400 1600">
<defs>
  <clipPath id="clip170">
    <rect x="0" y="0" width="2400" height="1600"/>
  </clipPath>
</defs>
<path clip-path="url(#clip170)" d="
M0 1600 L2400 1600 L2400 0 L0 0  Z
  " fill="#1e1e1e" fill-rule="evenodd" fill-opacity="1"/>
<defs>
  <clipPath id="clip171">
    <rect x="480" y="0" width="1681" height="1600"/>
  </clipPath>
</defs>
<path clip-path="url(#clip170)" d="
M102.74 1505.26 L2352.76 1505.26 L2352.76 47.2441 L102.74 47.2441  Z
  " fill="#1e1e1e" fill-rule="evenodd" fill-opacity="1"/>
<defs>
  <clipPath id="clip172">
    <rect x="102" y="47" width="2251" height="1459"/>
  </clipPath>
</defs>
<polyline clip-path="url(#clip172)" style="stroke:#ffffff; stroke-width:2; stroke-opacity:0.1; fill:none" points="
  166.42,1505.26 166.42,47.2441 
  "/>
<polyline clip-path="url(#clip172)" style="stroke:#ffffff; stroke-width:2; stroke-opacity:0.1; fill:none" points="
  609.101,1505.26 609.101,47.2441 
  "/>
<polyline clip-path="url(#clip172)" style="stroke:#ffffff; stroke-width:2; stroke-opacity:0.1; fill:none" points="
  1051.78,1505.26 1051.78,47.2441 
  "/>
<polyline clip-path="url(#clip172)" style="stroke:#ffffff; stroke-width:2; stroke-opacity:0.1; fill:none" points="
  1494.46,1505.26 1494.46,47.2441 
  "/>
<polyline clip-path="url(#clip172)" style="stroke:#ffffff; stroke-width:2; stroke-opacity:0.1; fill:none" points="
  1937.14,1505.26 1937.14,47.2441 
  "/>
<polyline clip-path="url(#clip172)" style="stroke:#ffffff; stroke-width:2; stroke-opacity:0.1; fill:none" points="
  102.74,1464 2352.76,1464 
  "/>
<polyline clip-path="url(#clip172)" style="stroke:#ffffff; stroke-width:2; stroke-opacity:0.1; fill:none" points="
  102.74,1120.12 2352.76,1120.12 
  "/>
<polyline clip-path="url(#clip172)" style="stroke:#ffffff; stroke-width:2; stroke-opacity:0.1; fill:none" points="
  102.74,776.252 2352.76,776.252 
  "/>
<polyline clip-path="url(#clip172)" style="stroke:#ffffff; stroke-width:2; stroke-opacity:0.1; fill:none" points="
  102.74,432.38 2352.76,432.38 
  "/>
<polyline clip-path="url(#clip172)" style="stroke:#ffffff; stroke-width:2; stroke-opacity:0.1; fill:none" points="
  102.74,88.5087 2352.76,88.5087 
  "/>
<polyline clip-path="url(#clip170)" style="stroke:#ffffff; stroke-width:4; stroke-opacity:1; fill:none" points="
  102.74,1505.26 2352.76,1505.26 
  "/>
<polyline clip-path="url(#clip170)" style="stroke:#ffffff; stroke-width:4; stroke-opacity:1; fill:none" points="
  102.74,1505.26 102.74,47.2441 
  "/>
<polyline clip-path="url(#clip170)" style="stroke:#ffffff; stroke-width:4; stroke-opacity:1; fill:none" points="
  166.42,1505.26 166.42,1487.76 
  "/>
<polyline clip-path="url(#clip170)" style="stroke:#ffffff; stroke-width:4; stroke-opacity:1; fill:none" points="
  609.101,1505.26 609.101,1487.76 
  "/>
<polyline clip-path="url(#clip170)" style="stroke:#ffffff; stroke-width:4; stroke-opacity:1; fill:none" points="
  1051.78,1505.26 1051.78,1487.76 
  "/>
<polyline clip-path="url(#clip170)" style="stroke:#ffffff; stroke-width:4; stroke-opacity:1; fill:none" points="
  1494.46,1505.26 1494.46,1487.76 
  "/>
<polyline clip-path="url(#clip170)" style="stroke:#ffffff; stroke-width:4; stroke-opacity:1; fill:none" points="
  1937.14,1505.26 1937.14,1487.76 
  "/>
<polyline clip-path="url(#clip170)" style="stroke:#ffffff; stroke-width:4; stroke-opacity:1; fill:none" points="
  102.74,1464 129.74,1464 
  "/>
<polyline clip-path="url(#clip170)" style="stroke:#ffffff; stroke-width:4; stroke-opacity:1; fill:none" points="
  102.74,1120.12 129.74,1120.12 
  "/>
<polyline clip-path="url(#clip170)" style="stroke:#ffffff; stroke-width:4; stroke-opacity:1; fill:none" points="
  102.74,776.252 129.74,776.252 
  "/>
<polyline clip-path="url(#clip170)" style="stroke:#ffffff; stroke-width:4; stroke-opacity:1; fill:none" points="
  102.74,432.38 129.74,432.38 
  "/>
<polyline clip-path="url(#clip170)" style="stroke:#ffffff; stroke-width:4; stroke-opacity:1; fill:none" points="
  102.74,88.5087 129.74,88.5087 
  "/>
<path clip-path="url(#clip170)" d="M 0 0 M166.42 1527.25 Q162.809 1527.25 160.98 1530.82 Q159.175 1534.36 159.175 1541.49 Q159.175 1548.59 160.98 1552.16 Q162.809 1555.7 166.42 1555.7 Q170.054 1555.7 171.86 1552.16 Q173.688 1548.59 173.688 1541.49 Q173.688 1534.36 171.86 1530.82 Q170.054 1527.25 166.42 1527.25 M166.42 1523.55 Q172.23 1523.55 175.286 1528.15 Q178.364 1532.74 178.364 1541.49 Q178.364 1550.21 175.286 1554.82 Q172.23 1559.4 166.42 1559.4 Q160.61 1559.4 157.531 1554.82 Q154.475 1550.21 154.475 1541.49 Q154.475 1532.74 157.531 1528.15 Q160.61 1523.55 166.42 1523.55 Z" fill="#ffffff" fill-rule="evenodd" fill-opacity="1" /><path clip-path="url(#clip170)" d="M 0 0 M603.754 1554.8 L620.073 1554.8 L620.073 1558.73 L598.129 1558.73 L598.129 1554.8 Q600.791 1552.04 605.374 1547.41 Q609.981 1542.76 611.161 1541.42 Q613.407 1538.89 614.286 1537.16 Q615.189 1535.4 615.189 1533.71 Q615.189 1530.95 613.245 1529.22 Q611.323 1527.48 608.221 1527.48 Q606.022 1527.48 603.569 1528.25 Q601.138 1529.01 598.36 1530.56 L598.36 1525.84 Q601.184 1524.7 603.638 1524.13 Q606.092 1523.55 608.129 1523.55 Q613.499 1523.55 616.694 1526.23 Q619.888 1528.92 619.888 1533.41 Q619.888 1535.54 619.078 1537.46 Q618.291 1539.36 616.184 1541.95 Q615.606 1542.62 612.504 1545.84 Q609.402 1549.03 603.754 1554.8 Z" fill="#ffffff" fill-rule="evenodd" fill-opacity="1" /><path clip-path="url(#clip170)" d="M 0 0 M1054.79 1528.25 L1042.99 1546.69 L1054.79 1546.69 L1054.79 1528.25 M1053.56 1524.17 L1059.44 1524.17 L1059.44 1546.69 L1064.37 1546.69 L1064.37 1550.58 L1059.44 1550.58 L1059.44 1558.73 L1054.79 1558.73 L1054.79 1550.58 L1039.19 1550.58 L1039.19 1546.07 L1053.56 1524.17 Z" fill="#ffffff" fill-rule="evenodd" fill-opacity="1" /><path clip-path="url(#clip170)" d="M 0 0 M1494.87 1539.59 Q1491.72 1539.59 1489.87 1541.74 Q1488.04 1543.89 1488.04 1547.64 Q1488.04 1551.37 1489.87 1553.55 Q1491.72 1555.7 1494.87 1555.7 Q1498.02 1555.7 1499.85 1553.55 Q1501.7 1551.37 1501.7 1547.64 Q1501.7 1543.89 1499.85 1541.74 Q1498.02 1539.59 1494.87 1539.59 M1504.15 1524.94 L1504.15 1529.19 Q1502.39 1528.36 1500.59 1527.92 Q1498.8 1527.48 1497.04 1527.48 Q1492.41 1527.48 1489.96 1530.61 Q1487.53 1533.73 1487.18 1540.05 Q1488.55 1538.04 1490.61 1536.97 Q1492.67 1535.88 1495.15 1535.88 Q1500.35 1535.88 1503.36 1539.06 Q1506.4 1542.2 1506.4 1547.64 Q1506.4 1552.97 1503.25 1556.19 Q1500.1 1559.4 1494.87 1559.4 Q1488.87 1559.4 1485.7 1554.82 Q1482.53 1550.21 1482.53 1541.49 Q1482.53 1533.29 1486.42 1528.43 Q1490.31 1523.55 1496.86 1523.55 Q1498.62 1523.55 1500.4 1523.89 Q1502.21 1524.24 1504.15 1524.94 Z" fill="#ffffff" fill-rule="evenodd" fill-opacity="1" /><path clip-path="url(#clip170)" d="M 0 0 M1937.14 1542.32 Q1933.81 1542.32 1931.89 1544.1 Q1929.99 1545.88 1929.99 1549.01 Q1929.99 1552.13 1931.89 1553.92 Q1933.81 1555.7 1937.14 1555.7 Q1940.48 1555.7 1942.4 1553.92 Q1944.32 1552.11 1944.32 1549.01 Q1944.32 1545.88 1942.4 1544.1 Q1940.5 1542.32 1937.14 1542.32 M1932.47 1540.33 Q1929.46 1539.59 1927.77 1537.53 Q1926.1 1535.47 1926.1 1532.51 Q1926.1 1528.36 1929.04 1525.95 Q1932.01 1523.55 1937.14 1523.55 Q1942.31 1523.55 1945.25 1525.95 Q1948.19 1528.36 1948.19 1532.51 Q1948.19 1535.47 1946.5 1537.53 Q1944.83 1539.59 1941.84 1540.33 Q1945.22 1541.12 1947.1 1543.41 Q1949 1545.7 1949 1549.01 Q1949 1554.03 1945.92 1556.72 Q1942.86 1559.4 1937.14 1559.4 Q1931.43 1559.4 1928.35 1556.72 Q1925.29 1554.03 1925.29 1549.01 Q1925.29 1545.7 1927.19 1543.41 Q1929.09 1541.12 1932.47 1540.33 M1930.76 1532.94 Q1930.76 1535.63 1932.42 1537.13 Q1934.11 1538.64 1937.14 1538.64 Q1940.15 1538.64 1941.84 1537.13 Q1943.56 1535.63 1943.56 1532.94 Q1943.56 1530.26 1941.84 1528.76 Q1940.15 1527.25 1937.14 1527.25 Q1934.11 1527.25 1932.42 1528.76 Q1930.76 1530.26 1930.76 1532.94 Z" fill="#ffffff" fill-rule="evenodd" fill-opacity="1" /><path clip-path="url(#clip170)" d="M 0 0 M3.50908 1466.39 L15.9859 1466.39 L15.9859 1470.19 L3.50908 1470.19 L3.50908 1466.39 Z" fill="#ffffff" fill-rule="evenodd" fill-opacity="1" /><path clip-path="url(#clip170)" d="M 0 0 M21.8655 1477.34 L29.5043 1477.34 L29.5043 1450.97 L21.1942 1452.64 L21.1942 1448.38 L29.458 1446.72 L34.1339 1446.72 L34.1339 1477.34 L41.7728 1477.34 L41.7728 1481.28 L21.8655 1481.28 L21.8655 1477.34 Z" fill="#ffffff" fill-rule="evenodd" fill-opacity="1" /><path clip-path="url(#clip170)" d="M 0 0 M46.8422 1475.4 L51.7264 1475.4 L51.7264 1481.28 L46.8422 1481.28 L46.8422 1475.4 Z" fill="#ffffff" fill-rule="evenodd" fill-opacity="1" /><path clip-path="url(#clip170)" d="M 0 0 M66.7958 1449.79 Q63.1847 1449.79 61.356 1453.36 Q59.5504 1456.9 59.5504 1464.03 Q59.5504 1471.14 61.356 1474.7 Q63.1847 1478.24 66.7958 1478.24 Q70.43 1478.24 72.2356 1474.7 Q74.0643 1471.14 74.0643 1464.03 Q74.0643 1456.9 72.2356 1453.36 Q70.43 1449.79 66.7958 1449.79 M66.7958 1446.09 Q72.6059 1446.09 75.6615 1450.7 Q78.7402 1455.28 78.7402 1464.03 Q78.7402 1472.76 75.6615 1477.36 Q72.6059 1481.95 66.7958 1481.95 Q60.9856 1481.95 57.9069 1477.36 Q54.8514 1472.76 54.8514 1464.03 Q54.8514 1455.28 57.9069 1450.7 Q60.9856 1446.09 66.7958 1446.09 Z" fill="#ffffff" fill-rule="evenodd" fill-opacity="1" /><path clip-path="url(#clip170)" d="M 0 0 M3.2776 1122.52 L15.7544 1122.52 L15.7544 1126.32 L3.2776 1126.32 L3.2776 1122.52 Z" fill="#ffffff" fill-rule="evenodd" fill-opacity="1" /><path clip-path="url(#clip170)" d="M 0 0 M30.8237 1105.92 Q27.2127 1105.92 25.384 1109.49 Q23.5784 1113.03 23.5784 1120.16 Q23.5784 1127.26 25.384 1130.83 Q27.2127 1134.37 30.8237 1134.37 Q34.458 1134.37 36.2635 1130.83 Q38.0922 1127.26 38.0922 1120.16 Q38.0922 1113.03 36.2635 1109.49 Q34.458 1105.92 30.8237 1105.92 M30.8237 1102.22 Q36.6339 1102.22 39.6894 1106.83 Q42.7681 1111.41 42.7681 1120.16 Q42.7681 1128.89 39.6894 1133.49 Q36.6339 1138.07 30.8237 1138.07 Q25.0136 1138.07 21.9349 1133.49 Q18.8794 1128.89 18.8794 1120.16 Q18.8794 1111.41 21.9349 1106.83 Q25.0136 1102.22 30.8237 1102.22 Z" fill="#ffffff" fill-rule="evenodd" fill-opacity="1" /><path clip-path="url(#clip170)" d="M 0 0 M47.8375 1131.52 L52.7218 1131.52 L52.7218 1137.4 L47.8375 1137.4 L47.8375 1131.52 Z" fill="#ffffff" fill-rule="evenodd" fill-opacity="1" /><path clip-path="url(#clip170)" d="M 0 0 M57.8375 1102.84 L76.1939 1102.84 L76.1939 1106.78 L62.1199 1106.78 L62.1199 1115.25 Q63.1384 1114.9 64.1569 1114.74 Q65.1754 1114.56 66.1939 1114.56 Q71.9809 1114.56 75.3605 1117.73 Q78.7402 1120.9 78.7402 1126.32 Q78.7402 1131.89 75.268 1135 Q71.7958 1138.07 65.4763 1138.07 Q63.3004 1138.07 61.0319 1137.7 Q58.7866 1137.33 56.3792 1136.59 L56.3792 1131.89 Q58.4625 1133.03 60.6847 1133.58 Q62.9069 1134.14 65.3837 1134.14 Q69.3884 1134.14 71.7263 1132.03 Q74.0643 1129.93 74.0643 1126.32 Q74.0643 1122.7 71.7263 1120.6 Q69.3884 1118.49 65.3837 1118.49 Q63.5088 1118.49 61.6338 1118.91 Q59.7819 1119.33 57.8375 1120.2 L57.8375 1102.84 Z" fill="#ffffff" fill-rule="evenodd" fill-opacity="1" /><path clip-path="url(#clip170)" d="M 0 0 M29.8284 762.051 Q26.2173 762.051 24.3886 765.615 Q22.5831 769.157 22.5831 776.287 Q22.5831 783.393 24.3886 786.958 Q26.2173 790.5 29.8284 790.5 Q33.4626 790.5 35.2682 786.958 Q37.0969 783.393 37.0969 776.287 Q37.0969 769.157 35.2682 765.615 Q33.4626 762.051 29.8284 762.051 M29.8284 758.347 Q35.6385 758.347 38.6941 762.953 Q41.7728 767.537 41.7728 776.287 Q41.7728 785.013 38.6941 789.62 Q35.6385 794.203 29.8284 794.203 Q24.0182 794.203 20.9395 789.62 Q17.884 785.013 17.884 776.287 Q17.884 767.537 20.9395 762.953 Q24.0182 758.347 29.8284 758.347 Z" fill="#ffffff" fill-rule="evenodd" fill-opacity="1" /><path clip-path="url(#clip170)" d="M 0 0 M46.8422 787.652 L51.7264 787.652 L51.7264 793.532 L46.8422 793.532 L46.8422 787.652 Z" fill="#ffffff" fill-rule="evenodd" fill-opacity="1" /><path clip-path="url(#clip170)" d="M 0 0 M66.7958 762.051 Q63.1847 762.051 61.356 765.615 Q59.5504 769.157 59.5504 776.287 Q59.5504 783.393 61.356 786.958 Q63.1847 790.5 66.7958 790.5 Q70.43 790.5 72.2356 786.958 Q74.0643 783.393 74.0643 776.287 Q74.0643 769.157 72.2356 765.615 Q70.43 762.051 66.7958 762.051 M66.7958 758.347 Q72.6059 758.347 75.6615 762.953 Q78.7402 767.537 78.7402 776.287 Q78.7402 785.013 75.6615 789.62 Q72.6059 794.203 66.7958 794.203 Q60.9856 794.203 57.9069 789.62 Q54.8514 785.013 54.8514 776.287 Q54.8514 767.537 57.9069 762.953 Q60.9856 758.347 66.7958 758.347 Z" fill="#ffffff" fill-rule="evenodd" fill-opacity="1" /><path clip-path="url(#clip170)" d="M 0 0 M30.8237 418.179 Q27.2127 418.179 25.384 421.744 Q23.5784 425.285 23.5784 432.415 Q23.5784 439.521 25.384 443.086 Q27.2127 446.628 30.8237 446.628 Q34.458 446.628 36.2635 443.086 Q38.0922 439.521 38.0922 432.415 Q38.0922 425.285 36.2635 421.744 Q34.458 418.179 30.8237 418.179 M30.8237 414.475 Q36.6339 414.475 39.6894 419.082 Q42.7681 423.665 42.7681 432.415 Q42.7681 441.142 39.6894 445.748 Q36.6339 450.332 30.8237 450.332 Q25.0136 450.332 21.9349 445.748 Q18.8794 441.142 18.8794 432.415 Q18.8794 423.665 21.9349 419.082 Q25.0136 414.475 30.8237 414.475 Z" fill="#ffffff" fill-rule="evenodd" fill-opacity="1" /><path clip-path="url(#clip170)" d="M 0 0 M47.8375 443.781 L52.7218 443.781 L52.7218 449.66 L47.8375 449.66 L47.8375 443.781 Z" fill="#ffffff" fill-rule="evenodd" fill-opacity="1" /><path clip-path="url(#clip170)" d="M 0 0 M57.8375 415.1 L76.1939 415.1 L76.1939 419.035 L62.1199 419.035 L62.1199 427.508 Q63.1384 427.16 64.1569 426.998 Q65.1754 426.813 66.1939 426.813 Q71.9809 426.813 75.3605 429.985 Q78.7402 433.156 78.7402 438.572 Q78.7402 444.151 75.268 447.253 Q71.7958 450.332 65.4763 450.332 Q63.3004 450.332 61.0319 449.961 Q58.7866 449.591 56.3792 448.85 L56.3792 444.151 Q58.4625 445.285 60.6847 445.841 Q62.9069 446.396 65.3837 446.396 Q69.3884 446.396 71.7263 444.29 Q74.0643 442.184 74.0643 438.572 Q74.0643 434.961 71.7263 432.855 Q69.3884 430.748 65.3837 430.748 Q63.5088 430.748 61.6338 431.165 Q59.7819 431.582 57.8375 432.461 L57.8375 415.1 Z" fill="#ffffff" fill-rule="evenodd" fill-opacity="1" /><path clip-path="url(#clip170)" d="M 0 0 M21.8655 101.854 L29.5043 101.854 L29.5043 75.4879 L21.1942 77.1546 L21.1942 72.8953 L29.458 71.2287 L34.1339 71.2287 L34.1339 101.854 L41.7728 101.854 L41.7728 105.789 L21.8655 105.789 L21.8655 101.854 Z" fill="#ffffff" fill-rule="evenodd" fill-opacity="1" /><path clip-path="url(#clip170)" d="M 0 0 M46.8422 99.9091 L51.7264 99.9091 L51.7264 105.789 L46.8422 105.789 L46.8422 99.9091 Z" fill="#ffffff" fill-rule="evenodd" fill-opacity="1" /><path clip-path="url(#clip170)" d="M 0 0 M66.7958 74.3074 Q63.1847 74.3074 61.356 77.8722 Q59.5504 81.4138 59.5504 88.5434 Q59.5504 95.6499 61.356 99.2147 Q63.1847 102.756 66.7958 102.756 Q70.43 102.756 72.2356 99.2147 Q74.0643 95.6499 74.0643 88.5434 Q74.0643 81.4138 72.2356 77.8722 Q70.43 74.3074 66.7958 74.3074 M66.7958 70.6037 Q72.6059 70.6037 75.6615 75.2102 Q78.7402 79.7935 78.7402 88.5434 Q78.7402 97.2702 75.6615 101.877 Q72.6059 106.46 66.7958 106.46 Q60.9856 106.46 57.9069 101.877 Q54.8514 97.2702 54.8514 88.5434 Q54.8514 79.7935 57.9069 75.2102 Q60.9856 70.6037 66.7958 70.6037 Z" fill="#ffffff" fill-rule="evenodd" fill-opacity="1" /><path clip-path="url(#clip170)" d="M 0 0 M1226.81 1592.35 L1226.81 1602.48 L1238.87 1602.48 L1238.87 1607.03 L1226.81 1607.03 L1226.81 1626.38 Q1226.81 1630.74 1227.99 1631.98 Q1229.2 1633.22 1232.86 1633.22 L1238.87 1633.22 L1238.87 1638.12 L1232.86 1638.12 Q1226.08 1638.12 1223.5 1635.61 Q1220.92 1633.06 1220.92 1626.38 L1220.92 1607.03 L1216.62 1607.03 L1216.62 1602.48 L1220.92 1602.48 L1220.92 1592.35 L1226.81 1592.35 Z" fill="#ffffff" fill-rule="evenodd" fill-opacity="1" /><path clip-path="url(#clip170)" d="M 0 0 M-70.6264 759.637 L-53.2798 772.528 L-34.9784 758.969 L-34.9784 765.876 L-48.983 776.252 L-34.9784 786.628 L-34.9784 793.535 L-53.6299 779.689 L-70.6264 792.357 L-70.6264 785.45 L-57.9268 775.997 L-70.6264 766.544 L-70.6264 759.637 Z" fill="#ffffff" fill-rule="evenodd" fill-opacity="1" /><polyline clip-path="url(#clip172)" style="stroke:#009af9; stroke-width:8; stroke-opacity:1; fill:none" points="
  166.42,776.252 168.633,733.068 170.847,690.055 173.06,647.382 175.273,605.217 177.487,563.728 179.7,523.077 181.914,483.425 184.127,444.929 186.341,407.741 
  188.554,372.007 190.767,337.868 192.981,305.459 195.194,274.909 197.408,246.337 199.621,219.856 201.834,195.571 204.048,173.578 206.261,153.963 208.475,136.804 
  210.688,122.169 212.901,110.115 215.115,100.691 217.328,93.9318 219.542,89.8658 221.755,88.5087 223.968,89.8658 226.182,93.9318 228.395,100.691 230.609,110.115 
  232.822,122.169 235.035,136.804 237.249,153.963 239.462,173.578 241.676,195.571 243.889,219.856 246.102,246.337 248.316,274.909 250.529,305.459 252.743,337.868 
  254.956,372.007 257.169,407.741 259.383,444.929 261.596,483.425 263.81,523.077 266.023,563.728 268.237,605.217 270.45,647.382 272.663,690.055 274.877,733.068 
  277.09,776.252 279.304,819.436 281.517,862.449 283.73,905.122 285.944,947.287 288.157,988.776 290.371,1029.43 292.584,1069.08 294.797,1107.57 297.011,1144.76 
  299.224,1180.5 301.438,1214.64 303.651,1247.04 305.864,1277.6 308.078,1306.17 310.291,1332.65 312.505,1356.93 314.718,1378.93 316.931,1398.54 319.145,1415.7 
  321.358,1430.33 323.572,1442.39 325.785,1451.81 327.998,1458.57 330.212,1462.64 332.425,1464 334.639,1462.64 336.852,1458.57 339.066,1451.81 341.279,1442.39 
  343.492,1430.33 345.706,1415.7 347.919,1398.54 350.133,1378.93 352.346,1356.93 354.559,1332.65 356.773,1306.17 358.986,1277.6 361.2,1247.04 363.413,1214.64 
  365.626,1180.5 367.84,1144.76 370.053,1107.57 372.267,1069.08 374.48,1029.43 376.693,988.776 378.907,947.287 381.12,905.122 383.334,862.449 385.547,819.436 
  387.76,776.252 389.974,733.068 392.187,690.055 394.401,647.382 396.614,605.217 398.827,563.728 401.041,523.077 403.254,483.425 405.468,444.929 407.681,407.741 
  409.895,372.007 412.108,337.868 414.321,305.459 416.535,274.909 418.748,246.337 420.962,219.856 423.175,195.571 425.388,173.578 427.602,153.963 429.815,136.804 
  432.029,122.169 434.242,110.115 436.455,100.691 438.669,93.9318 440.882,89.8658 443.096,88.5087 445.309,89.8658 447.522,93.9318 449.736,100.691 451.949,110.115 
  454.163,122.169 456.376,136.804 458.589,153.963 460.803,173.578 463.016,195.571 465.23,219.856 467.443,246.337 469.656,274.909 471.87,305.459 474.083,337.868 
  476.297,372.007 478.51,407.741 480.724,444.929 482.937,483.425 485.15,523.077 487.364,563.728 489.577,605.217 491.791,647.382 494.004,690.055 496.217,733.068 
  498.431,776.252 500.644,819.436 502.858,862.449 505.071,905.122 507.284,947.287 509.498,988.776 511.711,1029.43 513.925,1069.08 516.138,1107.57 518.351,1144.76 
  520.565,1180.5 522.778,1214.64 524.992,1247.04 527.205,1277.6 529.418,1306.17 531.632,1332.65 533.845,1356.93 536.059,1378.93 538.272,1398.54 540.485,1415.7 
  542.699,1430.33 544.912,1442.39 547.126,1451.81 549.339,1458.57 551.552,1462.64 553.766,1464 555.979,1462.64 558.193,1458.57 560.406,1451.81 562.62,1442.39 
  564.833,1430.33 567.046,1415.7 569.26,1398.54 571.473,1378.93 573.687,1356.93 575.9,1332.65 578.113,1306.17 580.327,1277.6 582.54,1247.04 584.754,1214.64 
  586.967,1180.5 589.18,1144.76 591.394,1107.57 593.607,1069.08 595.821,1029.43 598.034,988.776 600.247,947.287 602.461,905.122 604.674,862.449 606.888,819.436 
  609.101,776.252 611.314,733.068 613.528,690.055 615.741,647.382 617.955,605.217 620.168,563.728 622.381,523.077 624.595,483.425 626.808,444.929 629.022,407.741 
  631.235,372.007 633.449,337.868 635.662,305.459 637.875,274.909 640.089,246.337 642.302,219.856 644.516,195.571 646.729,173.578 648.942,153.963 651.156,136.804 
  653.369,122.169 655.583,110.115 657.796,100.691 660.009,93.9318 662.223,89.8658 664.436,88.5087 666.65,89.8658 668.863,93.9318 671.076,100.691 673.29,110.115 
  675.503,122.169 677.717,136.804 679.93,153.963 682.143,173.578 684.357,195.571 686.57,219.856 688.784,246.337 690.997,274.909 693.21,305.459 695.424,337.868 
  697.637,372.007 699.851,407.741 702.064,444.929 704.278,483.425 706.491,523.077 708.704,563.728 710.918,605.217 713.131,647.382 715.345,690.055 717.558,733.068 
  719.771,776.252 721.985,819.436 724.198,862.449 726.412,905.122 728.625,947.287 730.838,988.776 733.052,1029.43 735.265,1069.08 737.479,1107.57 739.692,1144.76 
  741.905,1180.5 744.119,1214.64 746.332,1247.04 748.546,1277.6 750.759,1306.17 752.972,1332.65 755.186,1356.93 757.399,1378.93 759.613,1398.54 761.826,1415.7 
  764.039,1430.33 766.253,1442.39 768.466,1451.81 770.68,1458.57 772.893,1462.64 775.107,1464 777.32,1462.64 779.533,1458.57 781.747,1451.81 783.96,1442.39 
  786.174,1430.33 788.387,1415.7 790.6,1398.54 792.814,1378.93 795.027,1356.93 797.241,1332.65 799.454,1306.17 801.667,1277.6 803.881,1247.04 806.094,1214.64 
  808.308,1180.5 810.521,1144.76 812.734,1107.57 814.948,1069.08 817.161,1029.43 819.375,988.776 821.588,947.287 823.801,905.122 826.015,862.449 828.228,819.436 
  830.442,776.252 832.655,733.068 834.868,690.055 837.082,647.382 839.295,605.217 841.509,563.728 843.722,523.077 845.935,483.425 848.149,444.929 850.362,407.741 
  852.576,372.007 854.789,337.868 857.003,305.459 859.216,274.909 861.429,246.337 863.643,219.856 865.856,195.571 868.07,173.578 870.283,153.963 872.496,136.804 
  874.71,122.169 876.923,110.115 879.137,100.691 881.35,93.9318 883.563,89.8658 885.777,88.5087 887.99,89.8658 890.204,93.9318 892.417,100.691 894.63,110.115 
  896.844,122.169 899.057,136.804 901.271,153.963 903.484,173.578 905.697,195.571 907.911,219.856 910.124,246.337 912.338,274.909 914.551,305.459 916.764,337.868 
  918.978,372.007 921.191,407.741 923.405,444.929 925.618,483.425 927.832,523.077 930.045,563.728 932.258,605.217 934.472,647.382 936.685,690.055 938.899,733.068 
  941.112,776.252 943.325,819.436 945.539,862.449 947.752,905.122 949.966,947.287 952.179,988.776 954.392,1029.43 956.606,1069.08 958.819,1107.57 961.033,1144.76 
  963.246,1180.5 965.459,1214.64 967.673,1247.04 969.886,1277.6 972.1,1306.17 974.313,1332.65 976.526,1356.93 978.74,1378.93 980.953,1398.54 983.167,1415.7 
  985.38,1430.33 987.593,1442.39 989.807,1451.81 992.02,1458.57 994.234,1462.64 996.447,1464 998.661,1462.64 1000.87,1458.57 1003.09,1451.81 1005.3,1442.39 
  1007.51,1430.33 1009.73,1415.7 1011.94,1398.54 1014.15,1378.93 1016.37,1356.93 1018.58,1332.65 1020.79,1306.17 1023.01,1277.6 1025.22,1247.04 1027.43,1214.64 
  1029.65,1180.5 1031.86,1144.76 1034.08,1107.57 1036.29,1069.08 1038.5,1029.43 1040.72,988.776 1042.93,947.287 1045.14,905.122 1047.36,862.449 1049.57,819.436 
  1051.78,776.252 1054,733.068 1056.21,690.055 1058.42,647.382 1060.64,605.217 1062.85,563.728 1065.06,523.077 1067.28,483.425 1069.49,444.929 1071.7,407.741 
  1073.92,372.007 1076.13,337.868 1078.34,305.459 1080.56,274.909 1082.77,246.337 1084.98,219.856 1087.2,195.571 1089.41,173.578 1091.62,153.963 1093.84,136.804 
  1096.05,122.169 1098.26,110.115 1100.48,100.691 1102.69,93.9318 1104.9,89.8658 1107.12,88.5087 1109.33,89.8658 1111.54,93.9318 1113.76,100.691 1115.97,110.115 
  1118.18,122.169 1120.4,136.804 1122.61,153.963 1124.82,173.578 1127.04,195.571 1129.25,219.856 1131.46,246.337 1133.68,274.909 1135.89,305.459 1138.11,337.868 
  1140.32,372.007 1142.53,407.741 1144.75,444.929 1146.96,483.425 1149.17,523.077 1151.39,563.728 1153.6,605.217 1155.81,647.382 1158.03,690.055 1160.24,733.068 
  1162.45,776.252 1164.67,819.436 1166.88,862.449 1169.09,905.122 1171.31,947.287 1173.52,988.776 1175.73,1029.43 1177.95,1069.08 1180.16,1107.57 1182.37,1144.76 
  1184.59,1180.5 1186.8,1214.64 1189.01,1247.04 1191.23,1277.6 1193.44,1306.17 1195.65,1332.65 1197.87,1356.93 1200.08,1378.93 1202.29,1398.54 1204.51,1415.7 
  1206.72,1430.33 1208.93,1442.39 1211.15,1451.81 1213.36,1458.57 1215.57,1462.64 1217.79,1464 1220,1462.64 1222.21,1458.57 1224.43,1451.81 1226.64,1442.39 
  1228.85,1430.33 1231.07,1415.7 1233.28,1398.54 1235.49,1378.93 1237.71,1356.93 1239.92,1332.65 1242.14,1306.17 1244.35,1277.6 1246.56,1247.04 1248.78,1214.64 
  1250.99,1180.5 1253.2,1144.76 1255.42,1107.57 1257.63,1069.08 1259.84,1029.43 1262.06,988.776 1264.27,947.287 1266.48,905.122 1268.7,862.449 1270.91,819.436 
  1273.12,776.252 1275.34,733.068 1277.55,690.055 1279.76,647.382 1281.98,605.217 1284.19,563.728 1286.4,523.077 1288.62,483.425 1290.83,444.929 1293.04,407.741 
  1295.26,372.007 1297.47,337.868 1299.68,305.459 1301.9,274.909 1304.11,246.337 1306.32,219.856 1308.54,195.571 1310.75,173.578 1312.96,153.963 1315.18,136.804 
  1317.39,122.169 1319.6,110.115 1321.82,100.691 1324.03,93.9318 1326.24,89.8658 1328.46,88.5087 1330.67,89.8658 1332.88,93.9318 1335.1,100.691 1337.31,110.115 
  1339.53,122.169 1341.74,136.804 1343.95,153.963 1346.17,173.578 1348.38,195.571 1350.59,219.856 1352.81,246.337 1355.02,274.909 1357.23,305.459 1359.45,337.868 
  1361.66,372.007 1363.87,407.741 1366.09,444.929 1368.3,483.425 1370.51,523.077 1372.73,563.728 1374.94,605.217 1377.15,647.382 1379.37,690.055 1381.58,733.068 
  1383.79,776.252 1386.01,819.436 1388.22,862.449 1390.43,905.122 1392.65,947.287 1394.86,988.776 1397.07,1029.43 1399.29,1069.08 1401.5,1107.57 1403.71,1144.76 
  1405.93,1180.5 1408.14,1214.64 1410.35,1247.04 1412.57,1277.6 1414.78,1306.17 1416.99,1332.65 1419.21,1356.93 1421.42,1378.93 1423.63,1398.54 1425.85,1415.7 
  1428.06,1430.33 1430.27,1442.39 1432.49,1451.81 1434.7,1458.57 1436.91,1462.64 1439.13,1464 1441.34,1462.64 1443.56,1458.57 1445.77,1451.81 1447.98,1442.39 
  1450.2,1430.33 1452.41,1415.7 1454.62,1398.54 1456.84,1378.93 1459.05,1356.93 1461.26,1332.65 1463.48,1306.17 1465.69,1277.6 1467.9,1247.04 1470.12,1214.64 
  1472.33,1180.5 1474.54,1144.76 1476.76,1107.57 1478.97,1069.08 1481.18,1029.43 1483.4,988.776 1485.61,947.287 1487.82,905.122 1490.04,862.449 1492.25,819.436 
  1494.46,776.252 1496.68,733.068 1498.89,690.055 1501.1,647.382 1503.32,605.217 1505.53,563.728 1507.74,523.077 1509.96,483.425 1512.17,444.929 1514.38,407.741 
  1516.6,372.007 1518.81,337.868 1521.02,305.459 1523.24,274.909 1525.45,246.337 1527.66,219.856 1529.88,195.571 1532.09,173.578 1534.3,153.963 1536.52,136.804 
  1538.73,122.169 1540.94,110.115 1543.16,100.691 1545.37,93.9318 1547.59,89.8658 1549.8,88.5087 1552.01,89.8658 1554.23,93.9318 1556.44,100.691 1558.65,110.115 
  1560.87,122.169 1563.08,136.804 1565.29,153.963 1567.51,173.578 1569.72,195.571 1571.93,219.856 1574.15,246.337 1576.36,274.909 1578.57,305.459 1580.79,337.868 
  1583,372.007 1585.21,407.741 1587.43,444.929 1589.64,483.425 1591.85,523.077 1594.07,563.728 1596.28,605.217 1598.49,647.382 1600.71,690.055 1602.92,733.068 
  1605.13,776.252 1607.35,819.436 1609.56,862.449 1611.77,905.122 1613.99,947.287 1616.2,988.776 1618.41,1029.43 1620.63,1069.08 1622.84,1107.57 1625.05,1144.76 
  1627.27,1180.5 1629.48,1214.64 1631.69,1247.04 1633.91,1277.6 1636.12,1306.17 1638.33,1332.65 1640.55,1356.93 1642.76,1378.93 1644.98,1398.54 1647.19,1415.7 
  1649.4,1430.33 1651.62,1442.39 1653.83,1451.81 1656.04,1458.57 1658.26,1462.64 1660.47,1464 1662.68,1462.64 1664.9,1458.57 1667.11,1451.81 1669.32,1442.39 
  1671.54,1430.33 1673.75,1415.7 1675.96,1398.54 1678.18,1378.93 1680.39,1356.93 1682.6,1332.65 1684.82,1306.17 1687.03,1277.6 1689.24,1247.04 1691.46,1214.64 
  1693.67,1180.5 1695.88,1144.76 1698.1,1107.57 1700.31,1069.08 1702.52,1029.43 1704.74,988.776 1706.95,947.287 1709.16,905.122 1711.38,862.449 1713.59,819.436 
  1715.8,776.252 1718.02,733.068 1720.23,690.055 1722.44,647.382 1724.66,605.217 1726.87,563.728 1729.08,523.077 1731.3,483.425 1733.51,444.929 1735.72,407.741 
  1737.94,372.007 1740.15,337.868 1742.36,305.459 1744.58,274.909 1746.79,246.337 1749.01,219.856 1751.22,195.571 1753.43,173.578 1755.65,153.963 1757.86,136.804 
  1760.07,122.169 1762.29,110.115 1764.5,100.691 1766.71,93.9318 1768.93,89.8658 1771.14,88.5087 1773.35,89.8658 1775.57,93.9318 1777.78,100.691 1779.99,110.115 
  1782.21,122.169 1784.42,136.804 1786.63,153.963 1788.85,173.578 1791.06,195.571 1793.27,219.856 1795.49,246.337 1797.7,274.909 1799.91,305.459 1802.13,337.868 
  1804.34,372.007 1806.55,407.741 1808.77,444.929 1810.98,483.425 1813.19,523.077 1815.41,563.728 1817.62,605.217 1819.83,647.382 1822.05,690.055 1824.26,733.068 
  1826.47,776.252 1828.69,819.436 1830.9,862.449 1833.11,905.122 1835.33,947.287 1837.54,988.776 1839.75,1029.43 1841.97,1069.08 1844.18,1107.57 1846.4,1144.76 
  1848.61,1180.5 1850.82,1214.64 1853.04,1247.04 1855.25,1277.6 1857.46,1306.17 1859.68,1332.65 1861.89,1356.93 1864.1,1378.93 1866.32,1398.54 1868.53,1415.7 
  1870.74,1430.33 1872.96,1442.39 1875.17,1451.81 1877.38,1458.57 1879.6,1462.64 1881.81,1464 1884.02,1462.64 1886.24,1458.57 1888.45,1451.81 1890.66,1442.39 
  1892.88,1430.33 1895.09,1415.7 1897.3,1398.54 1899.52,1378.93 1901.73,1356.93 1903.94,1332.65 1906.16,1306.17 1908.37,1277.6 1910.58,1247.04 1912.8,1214.64 
  1915.01,1180.5 1917.22,1144.76 1919.44,1107.57 1921.65,1069.08 1923.86,1029.43 1926.08,988.776 1928.29,947.287 1930.5,905.122 1932.72,862.449 1934.93,819.436 
  1937.14,776.252 1939.36,733.068 1941.57,690.055 1943.78,647.382 1946,605.217 1948.21,563.728 1950.43,523.077 1952.64,483.425 1954.85,444.929 1957.07,407.741 
  1959.28,372.007 1961.49,337.868 1963.71,305.459 1965.92,274.909 1968.13,246.337 1970.35,219.856 1972.56,195.571 1974.77,173.578 1976.99,153.963 1979.2,136.804 
  1981.41,122.169 1983.63,110.115 1985.84,100.691 1988.05,93.9318 1990.27,89.8658 1992.48,88.5087 1994.69,89.8658 1996.91,93.9318 1999.12,100.691 2001.33,110.115 
  2003.55,122.169 2005.76,136.804 2007.97,153.963 2010.19,173.578 2012.4,195.571 2014.61,219.856 2016.83,246.337 2019.04,274.909 2021.25,305.459 2023.47,337.868 
  2025.68,372.007 2027.89,407.741 2030.11,444.929 2032.32,483.425 2034.53,523.077 2036.75,563.728 2038.96,605.217 2041.17,647.382 2043.39,690.055 2045.6,733.068 
  2047.81,776.252 2050.03,819.436 2052.24,862.449 2054.46,905.122 2056.67,947.287 2058.88,988.776 2061.1,1029.43 2063.31,1069.08 2065.52,1107.57 2067.74,1144.76 
  2069.95,1180.5 2072.16,1214.64 2074.38,1247.04 2076.59,1277.6 2078.8,1306.17 2081.02,1332.65 2083.23,1356.93 2085.44,1378.93 2087.66,1398.54 2089.87,1415.7 
  2092.08,1430.33 2094.3,1442.39 2096.51,1451.81 2098.72,1458.57 2100.94,1462.64 2103.15,1464 2105.36,1462.64 2107.58,1458.57 2109.79,1451.81 2112,1442.39 
  2114.22,1430.33 2116.43,1415.7 2118.64,1398.54 2120.86,1378.93 2123.07,1356.93 2125.28,1332.65 2127.5,1306.17 2129.71,1277.6 2131.92,1247.04 2134.14,1214.64 
  2136.35,1180.5 2138.56,1144.76 2140.78,1107.57 2142.99,1069.08 2145.2,1029.43 2147.42,988.776 2149.63,947.287 2151.85,905.122 2154.06,862.449 2156.27,819.436 
  2158.49,776.252 2160.7,733.068 2162.91,690.055 2165.13,647.382 2167.34,605.217 2169.55,563.728 2171.77,523.077 2173.98,483.425 2176.19,444.929 2178.41,407.741 
  2180.62,372.007 2182.83,337.868 2185.05,305.459 2187.26,274.909 2189.47,246.337 2191.69,219.856 2193.9,195.571 2196.11,173.578 2198.33,153.963 2200.54,136.804 
  2202.75,122.169 2204.97,110.115 2207.18,100.691 2209.39,93.9318 2211.61,89.8658 2213.82,88.5087 2216.03,89.8658 2218.25,93.9318 2220.46,100.691 2222.67,110.115 
  2224.89,122.169 2227.1,136.804 2229.31,153.963 2231.53,173.578 2233.74,195.571 2235.95,219.856 2238.17,246.337 2240.38,274.909 2242.59,305.459 2244.81,337.868 
  2247.02,372.007 2249.23,407.741 2251.45,444.929 2253.66,483.425 2255.88,523.077 2258.09,563.728 2260.3,605.217 2262.52,647.382 2264.73,690.055 2266.94,733.068 
  2269.16,776.252 2271.37,819.436 2273.58,862.449 2275.8,905.122 2278.01,947.287 2280.22,988.776 2282.44,1029.43 2284.65,1069.08 2286.86,1107.57 2289.08,1144.76 
  
  "/>
</svg>
