<?xml version="1.0" encoding="utf-8" standalone="no"?>
<!DOCTYPE svg PUBLIC "-//W3C//DTD SVG 1.1//EN"
  "http://www.w3.org/Graphics/SVG/1.1/DTD/svg11.dtd">
<!-- Created with matplotlib (https://matplotlib.org/) -->
<svg height="288pt" version="1.1" viewBox="0 0 432 288" width="432pt" xmlns="http://www.w3.org/2000/svg" xmlns:xlink="http://www.w3.org/1999/xlink">
 <defs>
  <style type="text/css">
*{stroke-linecap:butt;stroke-linejoin:round;}
  </style>
 </defs>
 <g id="figure_1">
  <g id="patch_1">
   <path d="M 0 288 
L 432 288 
L 432 0 
L 0 0 
z
" style="fill:#ffffff;"/>
  </g>
  <g id="axes_1">
   <g id="patch_2">
    <path d="M 36.794646 259.665354 
L 429.165354 259.665354 
L 429.165354 2.834646 
L 36.794646 2.834646 
z
" style="fill:#ffffff;"/>
   </g>
   <g id="matplotlib.axis_1">
    <g id="xtick_1">
     <g id="line2d_1">
      <path clip-path="url(#pe9974e6440)" d="M 47.899477 259.665354 
L 47.899477 2.834646 
" style="fill:none;stroke:#000000;stroke-linecap:square;stroke-opacity:0.1;stroke-width:0.5;"/>
     </g>
     <g id="line2d_2">
      <defs>
       <path d="M 0 0 
L 0 -3.5 
" id="mbfd89d7c74" style="stroke:#000000;stroke-width:0.8;"/>
      </defs>
      <g>
       <use style="stroke:#000000;stroke-width:0.8;" x="47.899477" xlink:href="#mbfd89d7c74" y="259.665354"/>
      </g>
     </g>
     <g id="text_1">
      <!-- 0 -->
      <defs>
       <path d="M 31.78125 66.40625 
Q 24.171875 66.40625 20.328125 58.90625 
Q 16.5 51.421875 16.5 36.375 
Q 16.5 21.390625 20.328125 13.890625 
Q 24.171875 6.390625 31.78125 6.390625 
Q 39.453125 6.390625 43.28125 13.890625 
Q 47.125 21.390625 47.125 36.375 
Q 47.125 51.421875 43.28125 58.90625 
Q 39.453125 66.40625 31.78125 66.40625 
z
M 31.78125 74.21875 
Q 44.046875 74.21875 50.515625 64.515625 
Q 56.984375 54.828125 56.984375 36.375 
Q 56.984375 17.96875 50.515625 8.265625 
Q 44.046875 -1.421875 31.78125 -1.421875 
Q 19.53125 -1.421875 13.0625 8.265625 
Q 6.59375 17.96875 6.59375 36.375 
Q 6.59375 54.828125 13.0625 64.515625 
Q 19.53125 74.21875 31.78125 74.21875 
z
" id="DejaVuSans-48"/>
      </defs>
      <g transform="translate(45.354477 269.244104)scale(0.08 -0.08)">
       <use xlink:href="#DejaVuSans-48"/>
      </g>
     </g>
    </g>
    <g id="xtick_2">
     <g id="line2d_3">
      <path clip-path="url(#pe9974e6440)" d="M 125.096775 259.665354 
L 125.096775 2.834646 
" style="fill:none;stroke:#000000;stroke-linecap:square;stroke-opacity:0.1;stroke-width:0.5;"/>
     </g>
     <g id="line2d_4">
      <g>
       <use style="stroke:#000000;stroke-width:0.8;" x="125.096775" xlink:href="#mbfd89d7c74" y="259.665354"/>
      </g>
     </g>
     <g id="text_2">
      <!-- 2 -->
      <defs>
       <path d="M 19.1875 8.296875 
L 53.609375 8.296875 
L 53.609375 0 
L 7.328125 0 
L 7.328125 8.296875 
Q 12.9375 14.109375 22.625 23.890625 
Q 32.328125 33.6875 34.8125 36.53125 
Q 39.546875 41.84375 41.421875 45.53125 
Q 43.3125 49.21875 43.3125 52.78125 
Q 43.3125 58.59375 39.234375 62.25 
Q 35.15625 65.921875 28.609375 65.921875 
Q 23.96875 65.921875 18.8125 64.3125 
Q 13.671875 62.703125 7.8125 59.421875 
L 7.8125 69.390625 
Q 13.765625 71.78125 18.9375 73 
Q 24.125 74.21875 28.421875 74.21875 
Q 39.75 74.21875 46.484375 68.546875 
Q 53.21875 62.890625 53.21875 53.421875 
Q 53.21875 48.921875 51.53125 44.890625 
Q 49.859375 40.875 45.40625 35.40625 
Q 44.1875 33.984375 37.640625 27.21875 
Q 31.109375 20.453125 19.1875 8.296875 
z
" id="DejaVuSans-50"/>
      </defs>
      <g transform="translate(122.551775 269.244104)scale(0.08 -0.08)">
       <use xlink:href="#DejaVuSans-50"/>
      </g>
     </g>
    </g>
    <g id="xtick_3">
     <g id="line2d_5">
      <path clip-path="url(#pe9974e6440)" d="M 202.294074 259.665354 
L 202.294074 2.834646 
" style="fill:none;stroke:#000000;stroke-linecap:square;stroke-opacity:0.1;stroke-width:0.5;"/>
     </g>
     <g id="line2d_6">
      <g>
       <use style="stroke:#000000;stroke-width:0.8;" x="202.294074" xlink:href="#mbfd89d7c74" y="259.665354"/>
      </g>
     </g>
     <g id="text_3">
      <!-- 4 -->
      <defs>
       <path d="M 37.796875 64.3125 
L 12.890625 25.390625 
L 37.796875 25.390625 
z
M 35.203125 72.90625 
L 47.609375 72.90625 
L 47.609375 25.390625 
L 58.015625 25.390625 
L 58.015625 17.1875 
L 47.609375 17.1875 
L 47.609375 0 
L 37.796875 0 
L 37.796875 17.1875 
L 4.890625 17.1875 
L 4.890625 26.703125 
z
" id="DejaVuSans-52"/>
      </defs>
      <g transform="translate(199.749074 269.244104)scale(0.08 -0.08)">
       <use xlink:href="#DejaVuSans-52"/>
      </g>
     </g>
    </g>
    <g id="xtick_4">
     <g id="line2d_7">
      <path clip-path="url(#pe9974e6440)" d="M 279.491372 259.665354 
L 279.491372 2.834646 
" style="fill:none;stroke:#000000;stroke-linecap:square;stroke-opacity:0.1;stroke-width:0.5;"/>
     </g>
     <g id="line2d_8">
      <g>
       <use style="stroke:#000000;stroke-width:0.8;" x="279.491372" xlink:href="#mbfd89d7c74" y="259.665354"/>
      </g>
     </g>
     <g id="text_4">
      <!-- 6 -->
      <defs>
       <path d="M 33.015625 40.375 
Q 26.375 40.375 22.484375 35.828125 
Q 18.609375 31.296875 18.609375 23.390625 
Q 18.609375 15.53125 22.484375 10.953125 
Q 26.375 6.390625 33.015625 6.390625 
Q 39.65625 6.390625 43.53125 10.953125 
Q 47.40625 15.53125 47.40625 23.390625 
Q 47.40625 31.296875 43.53125 35.828125 
Q 39.65625 40.375 33.015625 40.375 
z
M 52.59375 71.296875 
L 52.59375 62.3125 
Q 48.875 64.0625 45.09375 64.984375 
Q 41.3125 65.921875 37.59375 65.921875 
Q 27.828125 65.921875 22.671875 59.328125 
Q 17.53125 52.734375 16.796875 39.40625 
Q 19.671875 43.65625 24.015625 45.921875 
Q 28.375 48.1875 33.59375 48.1875 
Q 44.578125 48.1875 50.953125 41.515625 
Q 57.328125 34.859375 57.328125 23.390625 
Q 57.328125 12.15625 50.6875 5.359375 
Q 44.046875 -1.421875 33.015625 -1.421875 
Q 20.359375 -1.421875 13.671875 8.265625 
Q 6.984375 17.96875 6.984375 36.375 
Q 6.984375 53.65625 15.1875 63.9375 
Q 23.390625 74.21875 37.203125 74.21875 
Q 40.921875 74.21875 44.703125 73.484375 
Q 48.484375 72.75 52.59375 71.296875 
z
" id="DejaVuSans-54"/>
      </defs>
      <g transform="translate(276.946372 269.244104)scale(0.08 -0.08)">
       <use xlink:href="#DejaVuSans-54"/>
      </g>
     </g>
    </g>
    <g id="xtick_5">
     <g id="line2d_9">
      <path clip-path="url(#pe9974e6440)" d="M 356.688671 259.665354 
L 356.688671 2.834646 
" style="fill:none;stroke:#000000;stroke-linecap:square;stroke-opacity:0.1;stroke-width:0.5;"/>
     </g>
     <g id="line2d_10">
      <g>
       <use style="stroke:#000000;stroke-width:0.8;" x="356.688671" xlink:href="#mbfd89d7c74" y="259.665354"/>
      </g>
     </g>
     <g id="text_5">
      <!-- 8 -->
      <defs>
       <path d="M 31.78125 34.625 
Q 24.75 34.625 20.71875 30.859375 
Q 16.703125 27.09375 16.703125 20.515625 
Q 16.703125 13.921875 20.71875 10.15625 
Q 24.75 6.390625 31.78125 6.390625 
Q 38.8125 6.390625 42.859375 10.171875 
Q 46.921875 13.96875 46.921875 20.515625 
Q 46.921875 27.09375 42.890625 30.859375 
Q 38.875 34.625 31.78125 34.625 
z
M 21.921875 38.8125 
Q 15.578125 40.375 12.03125 44.71875 
Q 8.5 49.078125 8.5 55.328125 
Q 8.5 64.0625 14.71875 69.140625 
Q 20.953125 74.21875 31.78125 74.21875 
Q 42.671875 74.21875 48.875 69.140625 
Q 55.078125 64.0625 55.078125 55.328125 
Q 55.078125 49.078125 51.53125 44.71875 
Q 48 40.375 41.703125 38.8125 
Q 48.828125 37.15625 52.796875 32.3125 
Q 56.78125 27.484375 56.78125 20.515625 
Q 56.78125 9.90625 50.3125 4.234375 
Q 43.84375 -1.421875 31.78125 -1.421875 
Q 19.734375 -1.421875 13.25 4.234375 
Q 6.78125 9.90625 6.78125 20.515625 
Q 6.78125 27.484375 10.78125 32.3125 
Q 14.796875 37.15625 21.921875 38.8125 
z
M 18.3125 54.390625 
Q 18.3125 48.734375 21.84375 45.5625 
Q 25.390625 42.390625 31.78125 42.390625 
Q 38.140625 42.390625 41.71875 45.5625 
Q 45.3125 48.734375 45.3125 54.390625 
Q 45.3125 60.0625 41.71875 63.234375 
Q 38.140625 66.40625 31.78125 66.40625 
Q 25.390625 66.40625 21.84375 63.234375 
Q 18.3125 60.0625 18.3125 54.390625 
z
" id="DejaVuSans-56"/>
      </defs>
      <g transform="translate(354.143671 269.244104)scale(0.08 -0.08)">
       <use xlink:href="#DejaVuSans-56"/>
      </g>
     </g>
    </g>
    <g id="text_6">
     <!-- t -->
     <defs>
      <path d="M 18.3125 70.21875 
L 18.3125 54.6875 
L 36.8125 54.6875 
L 36.8125 47.703125 
L 18.3125 47.703125 
L 18.3125 18.015625 
Q 18.3125 11.328125 20.140625 9.421875 
Q 21.96875 7.515625 27.59375 7.515625 
L 36.8125 7.515625 
L 36.8125 0 
L 27.59375 0 
Q 17.1875 0 13.234375 3.875 
Q 9.28125 7.765625 9.28125 18.015625 
L 9.28125 47.703125 
L 2.6875 47.703125 
L 2.6875 54.6875 
L 9.28125 54.6875 
L 9.28125 70.21875 
z
" id="DejaVuSans-116"/>
     </defs>
     <g transform="translate(230.823828 283.266136)scale(0.11 -0.11)">
      <use xlink:href="#DejaVuSans-116"/>
     </g>
    </g>
   </g>
   <g id="matplotlib.axis_2">
    <g id="ytick_1">
     <g id="line2d_11">
      <path clip-path="url(#pe9974e6440)" d="M 36.794646 252.396561 
L 429.165354 252.396561 
" style="fill:none;stroke:#000000;stroke-linecap:square;stroke-opacity:0.1;stroke-width:0.5;"/>
     </g>
     <g id="line2d_12">
      <defs>
       <path d="M 0 0 
L 3.5 0 
" id="mfa47b87f97" style="stroke:#000000;stroke-width:0.8;"/>
      </defs>
      <g>
       <use style="stroke:#000000;stroke-width:0.8;" x="36.794646" xlink:href="#mfa47b87f97" y="252.396561"/>
      </g>
     </g>
     <g id="text_7">
      <!-- -1.0 -->
      <defs>
       <path d="M 4.890625 31.390625 
L 31.203125 31.390625 
L 31.203125 23.390625 
L 4.890625 23.390625 
z
" id="DejaVuSans-45"/>
       <path d="M 12.40625 8.296875 
L 28.515625 8.296875 
L 28.515625 63.921875 
L 10.984375 60.40625 
L 10.984375 69.390625 
L 28.421875 72.90625 
L 38.28125 72.90625 
L 38.28125 8.296875 
L 54.390625 8.296875 
L 54.390625 0 
L 12.40625 0 
z
" id="DejaVuSans-49"/>
       <path d="M 10.6875 12.40625 
L 21 12.40625 
L 21 0 
L 10.6875 0 
z
" id="DejaVuSans-46"/>
      </defs>
      <g transform="translate(17.685896 255.435936)scale(0.08 -0.08)">
       <use xlink:href="#DejaVuSans-45"/>
       <use x="36.083984" xlink:href="#DejaVuSans-49"/>
       <use x="99.707031" xlink:href="#DejaVuSans-46"/>
       <use x="131.494141" xlink:href="#DejaVuSans-48"/>
      </g>
     </g>
    </g>
    <g id="ytick_2">
     <g id="line2d_13">
      <path clip-path="url(#pe9974e6440)" d="M 36.794646 191.82328 
L 429.165354 191.82328 
" style="fill:none;stroke:#000000;stroke-linecap:square;stroke-opacity:0.1;stroke-width:0.5;"/>
     </g>
     <g id="line2d_14">
      <g>
       <use style="stroke:#000000;stroke-width:0.8;" x="36.794646" xlink:href="#mfa47b87f97" y="191.82328"/>
      </g>
     </g>
     <g id="text_8">
      <!-- -0.5 -->
      <defs>
       <path d="M 10.796875 72.90625 
L 49.515625 72.90625 
L 49.515625 64.59375 
L 19.828125 64.59375 
L 19.828125 46.734375 
Q 21.96875 47.46875 24.109375 47.828125 
Q 26.265625 48.1875 28.421875 48.1875 
Q 40.625 48.1875 47.75 41.5 
Q 54.890625 34.8125 54.890625 23.390625 
Q 54.890625 11.625 47.5625 5.09375 
Q 40.234375 -1.421875 26.90625 -1.421875 
Q 22.3125 -1.421875 17.546875 -0.640625 
Q 12.796875 0.140625 7.71875 1.703125 
L 7.71875 11.625 
Q 12.109375 9.234375 16.796875 8.0625 
Q 21.484375 6.890625 26.703125 6.890625 
Q 35.15625 6.890625 40.078125 11.328125 
Q 45.015625 15.765625 45.015625 23.390625 
Q 45.015625 31 40.078125 35.4375 
Q 35.15625 39.890625 26.703125 39.890625 
Q 22.75 39.890625 18.8125 39.015625 
Q 14.890625 38.140625 10.796875 36.28125 
z
" id="DejaVuSans-53"/>
      </defs>
      <g transform="translate(17.685896 194.862655)scale(0.08 -0.08)">
       <use xlink:href="#DejaVuSans-45"/>
       <use x="36.083984" xlink:href="#DejaVuSans-48"/>
       <use x="99.707031" xlink:href="#DejaVuSans-46"/>
       <use x="131.494141" xlink:href="#DejaVuSans-53"/>
      </g>
     </g>
    </g>
    <g id="ytick_3">
     <g id="line2d_15">
      <path clip-path="url(#pe9974e6440)" d="M 36.794646 131.25 
L 429.165354 131.25 
" style="fill:none;stroke:#000000;stroke-linecap:square;stroke-opacity:0.1;stroke-width:0.5;"/>
     </g>
     <g id="line2d_16">
      <g>
       <use style="stroke:#000000;stroke-width:0.8;" x="36.794646" xlink:href="#mfa47b87f97" y="131.25"/>
      </g>
     </g>
     <g id="text_9">
      <!-- 0.0 -->
      <g transform="translate(20.572146 134.289375)scale(0.08 -0.08)">
       <use xlink:href="#DejaVuSans-48"/>
       <use x="63.623047" xlink:href="#DejaVuSans-46"/>
       <use x="95.410156" xlink:href="#DejaVuSans-48"/>
      </g>
     </g>
    </g>
    <g id="ytick_4">
     <g id="line2d_17">
      <path clip-path="url(#pe9974e6440)" d="M 36.794646 70.67672 
L 429.165354 70.67672 
" style="fill:none;stroke:#000000;stroke-linecap:square;stroke-opacity:0.1;stroke-width:0.5;"/>
     </g>
     <g id="line2d_18">
      <g>
       <use style="stroke:#000000;stroke-width:0.8;" x="36.794646" xlink:href="#mfa47b87f97" y="70.67672"/>
      </g>
     </g>
     <g id="text_10">
      <!-- 0.5 -->
      <g transform="translate(20.572146 73.716095)scale(0.08 -0.08)">
       <use xlink:href="#DejaVuSans-48"/>
       <use x="63.623047" xlink:href="#DejaVuSans-46"/>
       <use x="95.410156" xlink:href="#DejaVuSans-53"/>
      </g>
     </g>
    </g>
    <g id="ytick_5">
     <g id="line2d_19">
      <path clip-path="url(#pe9974e6440)" d="M 36.794646 10.103439 
L 429.165354 10.103439 
" style="fill:none;stroke:#000000;stroke-linecap:square;stroke-opacity:0.1;stroke-width:0.5;"/>
     </g>
     <g id="line2d_20">
      <g>
       <use style="stroke:#000000;stroke-width:0.8;" x="36.794646" xlink:href="#mfa47b87f97" y="10.103439"/>
      </g>
     </g>
     <g id="text_11">
      <!-- 1.0 -->
      <g transform="translate(20.572146 13.142814)scale(0.08 -0.08)">
       <use xlink:href="#DejaVuSans-49"/>
       <use x="63.623047" xlink:href="#DejaVuSans-46"/>
       <use x="95.410156" xlink:href="#DejaVuSans-48"/>
      </g>
     </g>
    </g>
    <g id="text_12">
     <!-- x -->
     <defs>
      <path d="M 54.890625 54.6875 
L 35.109375 28.078125 
L 55.90625 0 
L 45.3125 0 
L 29.390625 21.484375 
L 13.484375 0 
L 2.875 0 
L 24.125 28.609375 
L 4.6875 54.6875 
L 15.28125 54.6875 
L 29.78125 35.203125 
L 44.28125 54.6875 
z
" id="DejaVuSans-120"/>
     </defs>
     <g transform="translate(11.398239 134.505312)rotate(-90)scale(0.11 -0.11)">
      <use xlink:href="#DejaVuSans-120"/>
     </g>
    </g>
   </g>
   <g id="line2d_21">
    <path clip-path="url(#pe9974e6440)" d="M 47.899477 131.25 
L 50.601382 79.668303 
L 52.145328 54.028276 
L 53.303288 37.904971 
L 54.461247 25.08846 
L 55.23322 18.610777 
L 56.005193 13.909481 
L 56.777166 11.058716 
L 57.163153 10.342494 
L 57.549139 10.103439 
L 57.935126 10.342494 
L 58.321112 11.058716 
L 58.707099 12.249278 
L 59.479072 16.032774 
L 60.251045 21.633315 
L 61.023018 28.962576 
L 62.180977 42.937958 
L 63.338937 60.041838 
L 64.882883 86.652977 
L 67.198802 131.25 
L 69.900707 182.831697 
L 71.444653 208.471724 
L 72.602613 224.595029 
L 73.760572 237.41154 
L 74.532545 243.889223 
L 75.304518 248.590519 
L 76.076491 251.441284 
L 76.462477 252.157506 
L 76.848464 252.396561 
L 77.23445 252.157506 
L 77.620437 251.441284 
L 78.006423 250.250722 
L 78.778396 246.467226 
L 79.550369 240.866685 
L 80.322342 233.537424 
L 81.480302 219.562042 
L 82.638261 202.458162 
L 84.182207 175.847023 
L 86.498126 131.25 
L 89.200032 79.668303 
L 90.743978 54.028276 
L 91.901937 37.904971 
L 93.059897 25.08846 
L 93.83187 18.610777 
L 94.603843 13.909481 
L 95.375816 11.058716 
L 95.761802 10.342494 
L 96.147789 10.103439 
L 96.533775 10.342494 
L 96.919762 11.058716 
L 97.305748 12.249278 
L 98.077721 16.032774 
L 98.849694 21.633315 
L 99.621667 28.962576 
L 100.779626 42.937958 
L 101.937586 60.041838 
L 103.481532 86.652977 
L 105.797451 131.25 
L 108.499356 182.831697 
L 110.043302 208.471724 
L 111.201262 224.595029 
L 112.359221 237.41154 
L 113.131194 243.889223 
L 113.903167 248.590519 
L 114.67514 251.441284 
L 115.061127 252.157506 
L 115.447113 252.396561 
L 115.8331 252.157506 
L 116.219086 251.441284 
L 116.605073 250.250722 
L 117.377046 246.467226 
L 118.149019 240.866685 
L 118.920992 233.537424 
L 120.078951 219.562042 
L 121.236911 202.458162 
L 122.780857 175.847023 
L 125.096775 131.25 
L 127.798681 79.668303 
L 129.342627 54.028276 
L 130.500586 37.904971 
L 131.658546 25.08846 
L 132.430519 18.610777 
L 133.202492 13.909481 
L 133.974465 11.058716 
L 134.360451 10.342494 
L 134.746438 10.103439 
L 135.132424 10.342494 
L 135.518411 11.058716 
L 135.904397 12.249278 
L 136.67637 16.032774 
L 137.448343 21.633315 
L 138.220316 28.962576 
L 139.378276 42.937958 
L 140.536235 60.041838 
L 142.080181 86.652977 
L 144.3961 131.25 
L 147.098006 182.831697 
L 148.641951 208.471724 
L 149.799911 224.595029 
L 150.95787 237.41154 
L 151.729843 243.889223 
L 152.501816 248.590519 
L 153.273789 251.441284 
L 153.659776 252.157506 
L 154.045762 252.396561 
L 154.431749 252.157506 
L 154.817735 251.441284 
L 155.203722 250.250722 
L 155.975695 246.467226 
L 156.747668 240.866685 
L 157.519641 233.537424 
L 158.6776 219.562042 
L 159.83556 202.458162 
L 161.379506 175.847023 
L 163.695425 131.25 
L 166.39733 79.668303 
L 167.941276 54.028276 
L 169.099236 37.904971 
L 170.257195 25.08846 
L 171.029168 18.610777 
L 171.801141 13.909481 
L 172.573114 11.058716 
L 172.9591 10.342494 
L 173.345087 10.103439 
L 173.731073 10.342494 
L 174.11706 11.058716 
L 174.503046 12.249278 
L 175.275019 16.032774 
L 176.046992 21.633315 
L 176.818965 28.962576 
L 177.976925 42.937958 
L 179.134884 60.041838 
L 180.67883 86.652977 
L 182.994749 131.25 
L 185.696655 182.831697 
L 187.240601 208.471724 
L 188.39856 224.595029 
L 189.55652 237.41154 
L 190.328493 243.889223 
L 191.100466 248.590519 
L 191.872439 251.441284 
L 192.258425 252.157506 
L 192.644412 252.396561 
L 193.030398 252.157506 
L 193.416385 251.441284 
L 193.802371 250.250722 
L 194.574344 246.467226 
L 195.346317 240.866685 
L 196.11829 233.537424 
L 197.276249 219.562042 
L 198.434209 202.458162 
L 199.978155 175.847023 
L 202.294074 131.25 
L 204.995979 79.668303 
L 206.539925 54.028276 
L 207.697885 37.904971 
L 208.855844 25.08846 
L 209.627817 18.610777 
L 210.39979 13.909481 
L 211.171763 11.058716 
L 211.55775 10.342494 
L 211.943736 10.103439 
L 212.329723 10.342494 
L 212.715709 11.058716 
L 213.101696 12.249278 
L 213.873669 16.032774 
L 214.645642 21.633315 
L 215.417615 28.962576 
L 216.575574 42.937958 
L 217.733534 60.041838 
L 219.27748 86.652977 
L 221.593398 131.25 
L 224.295304 182.831697 
L 225.83925 208.471724 
L 226.997209 224.595029 
L 228.155169 237.41154 
L 228.927142 243.889223 
L 229.699115 248.590519 
L 230.471088 251.441284 
L 230.857074 252.157506 
L 231.243061 252.396561 
L 231.629047 252.157506 
L 232.015034 251.441284 
L 232.40102 250.250722 
L 233.172993 246.467226 
L 233.944966 240.866685 
L 234.716939 233.537424 
L 235.874899 219.562042 
L 237.032858 202.458162 
L 238.576804 175.847023 
L 240.892723 131.25 
L 243.594629 79.668303 
L 245.138575 54.028276 
L 246.296534 37.904971 
L 247.454493 25.08846 
L 248.226466 18.610777 
L 248.998439 13.909481 
L 249.770412 11.058716 
L 250.156399 10.342494 
L 250.542385 10.103439 
L 250.928372 10.342494 
L 251.314358 11.058716 
L 251.700345 12.249278 
L 252.472318 16.032774 
L 253.244291 21.633315 
L 254.016264 28.962576 
L 255.174223 42.937958 
L 256.332183 60.041838 
L 257.876129 86.652977 
L 260.192048 131.25 
L 262.893953 182.831697 
L 264.437899 208.471724 
L 265.595859 224.595029 
L 266.753818 237.41154 
L 267.525791 243.889223 
L 268.297764 248.590519 
L 269.069737 251.441284 
L 269.455724 252.157506 
L 269.84171 252.396561 
L 270.227696 252.157506 
L 270.613683 251.441284 
L 270.999669 250.250722 
L 271.771642 246.467226 
L 272.543615 240.866685 
L 273.315588 233.537424 
L 274.473548 219.562042 
L 275.631507 202.458162 
L 277.175453 175.847023 
L 279.491372 131.25 
L 282.193278 79.668303 
L 283.737224 54.028276 
L 284.895183 37.904971 
L 286.053143 25.08846 
L 286.825116 18.610777 
L 287.597089 13.909481 
L 288.369062 11.058716 
L 288.755048 10.342494 
L 289.141035 10.103439 
L 289.527021 10.342494 
L 289.913008 11.058716 
L 290.298994 12.249278 
L 291.070967 16.032774 
L 291.84294 21.633315 
L 292.614913 28.962576 
L 293.772873 42.937958 
L 294.930832 60.041838 
L 296.474778 86.652977 
L 298.790697 131.25 
L 301.492602 182.831697 
L 303.036548 208.471724 
L 304.194508 224.595029 
L 305.352467 237.41154 
L 306.12444 243.889223 
L 306.896413 248.590519 
L 307.668386 251.441284 
L 308.054373 252.157506 
L 308.440359 252.396561 
L 308.826346 252.157506 
L 309.212332 251.441284 
L 309.598319 250.250722 
L 310.370292 246.467226 
L 311.142265 240.866685 
L 311.914238 233.537424 
L 313.072197 219.562042 
L 314.230157 202.458162 
L 315.774103 175.847023 
L 318.090022 131.25 
L 320.791927 79.668303 
L 322.335873 54.028276 
L 323.493832 37.904971 
L 324.651792 25.08846 
L 325.423765 18.610777 
L 326.195738 13.909481 
L 326.967711 11.058716 
L 327.353697 10.342494 
L 327.739684 10.103439 
L 328.12567 10.342494 
L 328.511657 11.058716 
L 328.897643 12.249278 
L 329.669616 16.032774 
L 330.441589 21.633315 
L 331.213562 28.962576 
L 332.371522 42.937958 
L 333.529481 60.041838 
L 335.073427 86.652977 
L 337.389346 131.25 
L 340.091252 182.831697 
L 341.635198 208.471724 
L 342.793157 224.595029 
L 343.951116 237.41154 
L 344.723089 243.889223 
L 345.495062 248.590519 
L 346.267035 251.441284 
L 346.653022 252.157506 
L 347.039008 252.396561 
L 347.424995 252.157506 
L 347.810981 251.441284 
L 348.196968 250.250722 
L 348.968941 246.467226 
L 349.740914 240.866685 
L 350.512887 233.537424 
L 351.670846 219.562042 
L 352.828806 202.458162 
L 354.372752 175.847023 
L 356.688671 131.25 
L 359.390576 79.668303 
L 360.934522 54.028276 
L 362.092482 37.904971 
L 363.250441 25.08846 
L 364.022414 18.610777 
L 364.794387 13.909481 
L 365.56636 11.058716 
L 365.952347 10.342494 
L 366.338333 10.103439 
L 366.72432 10.342494 
L 367.110306 11.058716 
L 367.496292 12.249278 
L 368.268265 16.032774 
L 369.040238 21.633315 
L 369.812211 28.962576 
L 370.970171 42.937958 
L 372.12813 60.041838 
L 373.672076 86.652977 
L 375.987995 131.25 
L 378.689901 182.831697 
L 380.233847 208.471724 
L 381.391806 224.595029 
L 382.549766 237.41154 
L 383.321739 243.889223 
L 384.093712 248.590519 
L 384.865685 251.441284 
L 385.251671 252.157506 
L 385.637658 252.396561 
L 386.023644 252.157506 
L 386.409631 251.441284 
L 386.795617 250.250722 
L 387.56759 246.467226 
L 388.339563 240.866685 
L 389.111536 233.537424 
L 390.269496 219.562042 
L 391.427455 202.458162 
L 392.971401 175.847023 
L 395.28732 131.25 
L 397.989225 79.668303 
L 399.533171 54.028276 
L 400.691131 37.904971 
L 401.84909 25.08846 
L 402.621063 18.610777 
L 403.393036 13.909481 
L 404.165009 11.058716 
L 404.550996 10.342494 
L 404.936982 10.103439 
L 405.322969 10.342494 
L 405.708955 11.058716 
L 406.094942 12.249278 
L 406.866915 16.032774 
L 407.638888 21.633315 
L 408.410861 28.962576 
L 409.56882 42.937958 
L 410.72678 60.041838 
L 412.270726 86.652977 
L 414.586645 131.25 
L 417.28855 182.831697 
L 418.060523 196.163573 
L 418.060523 196.163573 
" style="fill:none;stroke:#009afa;stroke-linecap:round;"/>
   </g>
   <g id="patch_3">
    <path d="M 36.794646 259.665354 
L 36.794646 2.834646 
" style="fill:none;stroke:#000000;stroke-linecap:square;stroke-linejoin:miter;"/>
   </g>
   <g id="patch_4">
    <path d="M 36.794646 259.665354 
L 429.165354 259.665354 
" style="fill:none;stroke:#000000;stroke-linecap:square;stroke-linejoin:miter;"/>
   </g>
  </g>
 </g>
 <defs>
  <clipPath id="pe9974e6440">
   <rect height="256.830709" width="392.370709" x="36.794646" y="2.834646"/>
  </clipPath>
 </defs>
</svg>
