<?xml version="1.0" encoding="utf-8"?>
<svg xmlns="http://www.w3.org/2000/svg" xmlns:xlink="http://www.w3.org/1999/xlink" width="600" height="400" viewBox="0 0 2400 1600">
<defs>
  <clipPath id="clip3500">
    <rect x="0" y="0" width="2400" height="1600"/>
  </clipPath>
</defs>
<path clip-path="url(#clip3500)" d="
M0 1600 L2400 1600 L2400 0 L0 0  Z
  " fill="#ffffff" fill-rule="evenodd" fill-opacity="1"/>
<defs>
  <clipPath id="clip3501">
    <rect x="480" y="0" width="1681" height="1600"/>
  </clipPath>
</defs>
<path clip-path="url(#clip3500)" d="
M141.865 1487.47 L2352.76 1487.47 L2352.76 47.2441 L141.865 47.2441  Z
  " fill="#ffffff" fill-rule="evenodd" fill-opacity="1"/>
<defs>
  <clipPath id="clip3502">
    <rect x="141" y="47" width="2212" height="1441"/>
  </clipPath>
</defs>
<polyline clip-path="url(#clip3502)" style="stroke:#000000; stroke-width:2; stroke-opacity:0.1; fill:none" points="
  204.437,1487.47 204.437,47.2441 
  "/>
<polyline clip-path="url(#clip3502)" style="stroke:#000000; stroke-width:2; stroke-opacity:0.1; fill:none" points="
  639.421,1487.47 639.421,47.2441 
  "/>
<polyline clip-path="url(#clip3502)" style="stroke:#000000; stroke-width:2; stroke-opacity:0.1; fill:none" points="
  1074.4,1487.47 1074.4,47.2441 
  "/>
<polyline clip-path="url(#clip3502)" style="stroke:#000000; stroke-width:2; stroke-opacity:0.1; fill:none" points="
  1509.39,1487.47 1509.39,47.2441 
  "/>
<polyline clip-path="url(#clip3502)" style="stroke:#000000; stroke-width:2; stroke-opacity:0.1; fill:none" points="
  1944.37,1487.47 1944.37,47.2441 
  "/>
<polyline clip-path="url(#clip3502)" style="stroke:#000000; stroke-width:2; stroke-opacity:0.1; fill:none" points="
  141.865,1276.88 2352.76,1276.88 
  "/>
<polyline clip-path="url(#clip3502)" style="stroke:#000000; stroke-width:2; stroke-opacity:0.1; fill:none" points="
  141.865,1022.12 2352.76,1022.12 
  "/>
<polyline clip-path="url(#clip3502)" style="stroke:#000000; stroke-width:2; stroke-opacity:0.1; fill:none" points="
  141.865,767.36 2352.76,767.36 
  "/>
<polyline clip-path="url(#clip3502)" style="stroke:#000000; stroke-width:2; stroke-opacity:0.1; fill:none" points="
  141.865,512.602 2352.76,512.602 
  "/>
<polyline clip-path="url(#clip3502)" style="stroke:#000000; stroke-width:2; stroke-opacity:0.1; fill:none" points="
  141.865,257.844 2352.76,257.844 
  "/>
<polyline clip-path="url(#clip3500)" style="stroke:#000000; stroke-width:4; stroke-opacity:1; fill:none" points="
  141.865,1487.47 2352.76,1487.47 
  "/>
<polyline clip-path="url(#clip3500)" style="stroke:#000000; stroke-width:4; stroke-opacity:1; fill:none" points="
  141.865,1487.47 141.865,47.2441 
  "/>
<polyline clip-path="url(#clip3500)" style="stroke:#000000; stroke-width:4; stroke-opacity:1; fill:none" points="
  204.437,1487.47 204.437,1470.19 
  "/>
<polyline clip-path="url(#clip3500)" style="stroke:#000000; stroke-width:4; stroke-opacity:1; fill:none" points="
  639.421,1487.47 639.421,1470.19 
  "/>
<polyline clip-path="url(#clip3500)" style="stroke:#000000; stroke-width:4; stroke-opacity:1; fill:none" points="
  1074.4,1487.47 1074.4,1470.19 
  "/>
<polyline clip-path="url(#clip3500)" style="stroke:#000000; stroke-width:4; stroke-opacity:1; fill:none" points="
  1509.39,1487.47 1509.39,1470.19 
  "/>
<polyline clip-path="url(#clip3500)" style="stroke:#000000; stroke-width:4; stroke-opacity:1; fill:none" points="
  1944.37,1487.47 1944.37,1470.19 
  "/>
<polyline clip-path="url(#clip3500)" style="stroke:#000000; stroke-width:4; stroke-opacity:1; fill:none" points="
  141.865,1276.88 168.395,1276.88 
  "/>
<polyline clip-path="url(#clip3500)" style="stroke:#000000; stroke-width:4; stroke-opacity:1; fill:none" points="
  141.865,1022.12 168.395,1022.12 
  "/>
<polyline clip-path="url(#clip3500)" style="stroke:#000000; stroke-width:4; stroke-opacity:1; fill:none" points="
  141.865,767.36 168.395,767.36 
  "/>
<polyline clip-path="url(#clip3500)" style="stroke:#000000; stroke-width:4; stroke-opacity:1; fill:none" points="
  141.865,512.602 168.395,512.602 
  "/>
<polyline clip-path="url(#clip3500)" style="stroke:#000000; stroke-width:4; stroke-opacity:1; fill:none" points="
  141.865,257.844 168.395,257.844 
  "/>
<g clip-path="url(#clip3500)">
<text style="fill:#000000; fill-opacity:1; font-family:Arial,Helvetica Neue,Helvetica,sans-serif; font-size:48px; text-anchor:middle;" transform="rotate(0, 204.437, 1541.47)" x="204.437" y="1541.47">0</text>
</g>
<g clip-path="url(#clip3500)">
<text style="fill:#000000; fill-opacity:1; font-family:Arial,Helvetica Neue,Helvetica,sans-serif; font-size:48px; text-anchor:middle;" transform="rotate(0, 639.421, 1541.47)" x="639.421" y="1541.47">2</text>
</g>
<g clip-path="url(#clip3500)">
<text style="fill:#000000; fill-opacity:1; font-family:Arial,Helvetica Neue,Helvetica,sans-serif; font-size:48px; text-anchor:middle;" transform="rotate(0, 1074.4, 1541.47)" x="1074.4" y="1541.47">4</text>
</g>
<g clip-path="url(#clip3500)">
<text style="fill:#000000; fill-opacity:1; font-family:Arial,Helvetica Neue,Helvetica,sans-serif; font-size:48px; text-anchor:middle;" transform="rotate(0, 1509.39, 1541.47)" x="1509.39" y="1541.47">6</text>
</g>
<g clip-path="url(#clip3500)">
<text style="fill:#000000; fill-opacity:1; font-family:Arial,Helvetica Neue,Helvetica,sans-serif; font-size:48px; text-anchor:middle;" transform="rotate(0, 1944.37, 1541.47)" x="1944.37" y="1541.47">8</text>
</g>
<g clip-path="url(#clip3500)">
<text style="fill:#000000; fill-opacity:1; font-family:Arial,Helvetica Neue,Helvetica,sans-serif; font-size:48px; text-anchor:end;" transform="rotate(0, 117.865, 1294.38)" x="117.865" y="1294.38">-6</text>
</g>
<g clip-path="url(#clip3500)">
<text style="fill:#000000; fill-opacity:1; font-family:Arial,Helvetica Neue,Helvetica,sans-serif; font-size:48px; text-anchor:end;" transform="rotate(0, 117.865, 1039.62)" x="117.865" y="1039.62">-3</text>
</g>
<g clip-path="url(#clip3500)">
<text style="fill:#000000; fill-opacity:1; font-family:Arial,Helvetica Neue,Helvetica,sans-serif; font-size:48px; text-anchor:end;" transform="rotate(0, 117.865, 784.86)" x="117.865" y="784.86">0</text>
</g>
<g clip-path="url(#clip3500)">
<text style="fill:#000000; fill-opacity:1; font-family:Arial,Helvetica Neue,Helvetica,sans-serif; font-size:48px; text-anchor:end;" transform="rotate(0, 117.865, 530.102)" x="117.865" y="530.102">3</text>
</g>
<g clip-path="url(#clip3500)">
<text style="fill:#000000; fill-opacity:1; font-family:Arial,Helvetica Neue,Helvetica,sans-serif; font-size:48px; text-anchor:end;" transform="rotate(0, 117.865, 275.344)" x="117.865" y="275.344">6</text>
</g>
<polyline clip-path="url(#clip3502)" style="stroke:#009af9; stroke-width:12; stroke-opacity:1; fill:none" points="
  204.437,684.632 206.612,684.632 208.787,684.632 210.962,684.632 213.137,684.632 215.312,684.632 217.486,684.632 219.661,684.632 221.836,684.632 224.011,684.632 
  226.186,684.632 228.361,684.632 230.536,684.632 232.711,684.632 234.886,684.632 237.061,684.632 239.236,684.632 241.411,684.632 243.585,684.632 245.76,684.632 
  247.935,684.632 250.11,684.632 252.285,684.632 254.46,684.632 256.635,684.632 258.81,684.632 260.985,684.632 263.16,684.632 265.335,684.632 267.51,684.632 
  269.684,684.632 271.859,684.632 274.034,684.632 276.209,684.632 278.384,684.632 280.559,684.632 282.734,684.632 284.909,684.632 287.084,684.632 289.259,684.632 
  291.434,684.632 293.609,684.632 295.784,684.632 297.958,684.632 300.133,684.632 302.308,684.632 304.483,684.632 306.658,684.632 308.833,684.632 311.008,684.632 
  313.183,767.36 315.358,760.567 317.533,753.774 319.708,746.983 321.883,740.193 324.057,733.407 326.232,726.623 328.407,719.844 330.582,713.07 332.757,706.301 
  334.932,699.538 337.107,692.782 339.282,686.033 341.457,679.293 343.632,672.561 345.807,665.839 347.982,659.127 350.156,652.425 352.331,645.736 354.506,639.058 
  356.681,632.393 358.856,625.742 361.031,619.105 363.206,612.483 365.381,605.876 367.556,599.285 369.731,592.711 371.906,586.155 374.081,579.617 376.255,573.097 
  378.43,566.597 380.605,560.117 382.78,553.658 384.955,547.22 387.13,540.804 389.305,534.411 391.48,528.041 393.655,521.695 395.83,515.374 398.005,509.077 
  400.18,502.807 402.355,496.563 404.529,490.346 406.704,484.157 408.879,477.996 411.054,471.864 413.229,465.762 415.404,459.69 417.579,453.648 419.754,447.638 
  421.929,441.66 424.104,435.715 426.279,429.802 428.454,423.924 430.628,418.079 432.803,412.27 434.978,406.496 437.153,400.758 439.328,395.057 441.503,389.394 
  443.678,383.768 445.853,378.18 448.028,372.631 450.203,367.122 452.378,361.652 454.553,356.224 456.727,350.836 458.902,345.49 461.077,340.186 463.252,334.925 
  465.427,329.708 467.602,324.534 469.777,319.404 471.952,314.319 474.127,309.279 476.302,304.285 478.477,299.338 480.652,294.437 482.826,289.584 485.001,284.778 
  487.176,280.021 489.351,275.312 491.526,270.653 493.701,266.043 495.876,261.483 498.051,256.974 500.226,252.516 502.401,248.109 504.576,243.755 506.751,239.453 
  508.925,235.203 511.1,231.007 513.275,226.864 515.45,222.776 517.625,218.742 519.8,214.762 521.975,210.838 524.15,206.97 526.325,203.158 528.5,199.402 
  530.675,195.703 532.85,192.061 535.025,188.476 537.199,184.95 539.374,181.482 541.549,178.072 543.724,174.721 545.899,171.43 548.074,168.198 550.249,165.026 
  552.424,161.914 554.599,158.863 556.774,155.872 558.949,152.943 561.124,150.075 563.298,147.269 565.473,144.525 567.648,141.844 569.823,139.224 571.998,136.668 
  574.173,134.175 576.348,131.745 578.523,129.378 580.698,127.076 582.873,124.837 585.048,122.663 587.223,120.553 589.397,118.508 591.572,116.527 593.747,114.612 
  595.922,112.762 598.097,110.978 600.272,109.259 602.447,107.606 604.622,106.019 606.797,104.498 608.972,103.043 611.147,101.655 613.322,100.333 615.496,99.0781 
  617.671,97.8899 619.846,96.7687 622.021,95.7146 624.196,94.7276 626.371,93.8079 628.546,92.9556 630.721,92.1707 632.896,91.4533 635.071,90.8035 637.246,90.2213 
  639.421,89.7069 641.596,89.2603 643.77,88.8814 645.945,88.5704 648.12,88.3273 650.295,88.152 652.47,88.0447 654.645,88.0053 656.82,88.0339 658.995,88.1304 
  661.17,88.2948 663.345,88.5271 665.52,88.8273 667.695,89.1954 669.869,89.6312 672.044,90.1349 674.219,90.7062 676.394,91.3453 678.569,92.0519 680.744,92.8261 
  682.919,93.6677 685.094,94.5767 687.269,95.5529 689.444,96.5964 691.619,97.7069 693.794,98.8844 695.968,100.129 698.143,101.44 700.318,102.817 702.493,104.261 
  704.668,105.772 706.843,107.348 709.018,108.991 711.193,110.699 713.368,112.473 715.543,114.313 717.718,116.218 719.893,118.188 722.067,120.223 724.242,122.322 
  726.417,124.486 728.592,126.715 730.767,129.007 732.942,131.364 735.117,133.783 737.292,136.267 739.467,138.813 741.642,141.422 743.817,144.094 745.992,146.828 
  748.166,149.624 750.341,152.482 752.516,155.402 754.691,158.382 756.866,161.424 759.041,164.526 761.216,167.688 763.391,170.911 765.566,174.193 767.741,177.534 
  769.916,180.935 772.091,184.394 774.266,187.911 776.44,191.486 778.615,195.119 780.79,198.809 782.965,202.556 785.14,206.359 787.315,210.218 789.49,214.134 
  791.665,218.104 793.84,222.129 796.015,226.209 798.19,230.343 800.365,234.531 802.539,238.772 804.714,243.066 806.889,247.412 809.064,251.811 811.239,256.261 
  813.414,260.762 815.589,265.313 817.764,269.915 819.939,274.567 822.114,279.268 824.289,284.017 826.464,288.815 828.638,293.661 830.813,298.554 832.988,303.494 
  835.163,308.481 837.338,313.513 839.513,318.591 841.688,323.714 843.863,328.881 846.038,334.092 848.213,339.346 850.388,344.643 852.563,349.982 854.737,355.363 
  856.912,360.785 859.087,366.248 861.262,371.751 863.437,377.293 865.612,382.875 867.787,388.495 869.962,394.153 872.137,399.848 874.312,405.58 876.487,411.348 
  878.662,417.152 880.837,422.99 883.011,428.864 885.186,434.771 887.361,440.711 889.536,446.684 891.711,452.689 893.886,458.725 896.061,464.793 898.236,470.89 
  900.411,477.018 902.586,483.174 904.761,489.359 906.936,495.571 909.11,501.811 911.285,508.077 913.46,514.369 915.635,520.687 917.81,527.029 919.985,533.395 
  922.16,539.784 924.335,546.197 926.51,552.631 928.685,559.087 930.86,565.564 933.035,572.061 935.209,578.577 937.384,585.112 939.559,591.666 941.734,598.237 
  943.909,604.825 946.084,611.429 948.259,618.049 950.434,624.684 952.609,631.333 954.784,637.996 956.959,644.671 959.134,651.359 961.308,658.059 963.483,664.769 
  965.658,671.49 967.833,678.22 970.008,684.959 972.183,691.706 974.358,698.461 976.533,705.223 978.708,711.991 980.883,718.765 983.058,725.543 985.233,732.326 
  987.408,739.112 989.582,745.901 991.757,752.692 993.932,759.485 996.107,766.278 998.282,773.072 1000.46,779.865 1002.63,786.656 1004.81,793.446 1006.98,800.233 
  1009.16,807.017 1011.33,813.797 1013.51,820.572 1015.68,827.342 1017.86,834.106 1020.03,840.863 1022.21,847.613 1024.38,854.355 1026.56,861.088 1028.73,867.812 
  1030.91,874.526 1033.08,881.229 1035.26,887.92 1037.43,894.6 1039.61,901.267 1041.78,907.92 1043.96,914.56 1046.13,921.184 1048.31,927.794 1050.48,934.387 
  1052.66,940.963 1054.83,947.523 1057,954.064 1059.18,960.586 1061.35,967.09 1063.53,973.573 1065.7,980.035 1067.88,986.477 1070.05,992.896 1072.23,999.293 
  1074.4,1005.67 1076.58,1012.02 1078.75,1018.34 1080.93,1024.64 1083.1,1030.92 1085.28,1037.16 1087.45,1043.39 1089.63,1049.58 1091.8,1055.75 1093.98,1061.88 
  1096.15,1067.99 1098.33,1074.07 1100.5,1080.11 1102.68,1086.13 1104.85,1092.11 1107.03,1098.06 1109.2,1103.98 1111.38,1109.86 1113.55,1115.71 1115.73,1121.53 
  1117.9,1127.31 1120.08,1133.05 1122.25,1138.76 1124.43,1144.43 1126.6,1150.06 1128.78,1155.65 1130.95,1161.21 1133.13,1166.72 1135.3,1172.2 1137.48,1177.63 
  1139.65,1183.03 1141.83,1188.38 1144,1193.69 1146.18,1198.96 1148.35,1204.18 1150.53,1209.37 1152.7,1214.5 1154.88,1219.59 1157.05,1224.64 1159.23,1229.64 
  1161.4,1234.6 1163.58,1239.51 1165.75,1244.37 1167.93,1249.18 1170.1,1253.95 1172.28,1258.66 1174.45,1263.33 1176.63,1267.95 1178.8,1272.51 1180.98,1277.03 
  1183.15,1281.5 1185.33,1285.91 1187.5,1290.28 1189.67,1294.59 1191.85,1298.84 1194.02,1303.05 1196.2,1307.2 1198.37,1311.3 1200.55,1315.34 1202.72,1319.33 
  1204.9,1323.26 1207.07,1327.14 1209.25,1330.96 1211.42,1334.72 1213.6,1338.43 1215.77,1342.08 1217.95,1345.68 1220.12,1349.21 1222.3,1352.69 1224.47,1356.11 
  1226.65,1359.47 1228.82,1362.77 1231,1366.01 1233.17,1369.19 1235.35,1372.32 1237.52,1375.38 1239.7,1378.38 1241.87,1381.31 1244.05,1384.19 1246.22,1387.01 
  1248.4,1389.76 1250.57,1392.45 1252.75,1395.08 1254.92,1397.65 1257.1,1400.15 1259.27,1402.59 1261.45,1404.97 1263.62,1407.28 1265.8,1409.53 1267.97,1411.72 
  1270.15,1413.84 1272.32,1415.89 1274.5,1417.88 1276.67,1419.81 1278.85,1421.67 1281.02,1423.46 1283.2,1425.19 1285.37,1426.86 1287.55,1428.45 1289.72,1429.99 
  1291.9,1431.45 1294.07,1432.85 1296.25,1434.18 1298.42,1435.45 1300.6,1436.65 1302.77,1437.78 1304.95,1438.84 1307.12,1439.84 1309.3,1440.77 1311.47,1441.63 
  1313.65,1442.43 1315.82,1443.16 1318,1443.82 1320.17,1444.41 1322.34,1444.94 1324.52,1445.39 1326.69,1445.78 1328.87,1446.11 1331.04,1446.36 1333.22,1446.55 
  1335.39,1446.66 1337.57,1446.71 1339.74,1446.7 1341.92,1446.61 1344.09,1446.46 1346.27,1446.23 1348.44,1445.95 1350.62,1445.59 1352.79,1445.16 1354.97,1444.67 
  1357.14,1444.11 1359.32,1443.48 1361.49,1442.79 1363.67,1442.02 1365.84,1441.19 1368.02,1440.29 1370.19,1439.33 1372.37,1438.29 1374.54,1437.2 1376.72,1436.03 
  1378.89,1434.79 1381.07,1433.49 1383.24,1432.13 1385.42,1430.69 1387.59,1429.19 1389.77,1427.63 1391.94,1426 1394.12,1424.3 1396.29,1422.53 1398.47,1420.7 
  1400.64,1418.81 1402.82,1416.85 1404.99,1414.83 1407.17,1412.74 1409.34,1410.58 1411.52,1408.36 1413.69,1406.08 1415.87,1403.74 1418.04,1401.33 1420.22,1398.85 
  1422.39,1396.32 1424.57,1393.72 1426.74,1391.06 1428.92,1388.33 1431.09,1385.55 1433.27,1382.7 1435.44,1379.79 1437.62,1376.82 1439.79,1373.79 1441.97,1370.69 
  1444.14,1367.54 1446.32,1364.33 1448.49,1361.05 1450.67,1357.72 1452.84,1354.33 1455.01,1350.88 1457.19,1347.37 1459.36,1343.81 1461.54,1340.18 1463.71,1336.5 
  1465.89,1332.77 1468.06,1328.97 1470.24,1325.12 1472.41,1321.21 1474.59,1317.25 1476.76,1313.24 1478.94,1309.16 1481.11,1305.04 1483.29,1300.86 1485.46,1296.63 
  1487.64,1292.34 1489.81,1288 1491.99,1283.61 1494.16,1279.17 1496.34,1274.68 1498.51,1270.14 1500.69,1265.54 1502.86,1260.9 1505.04,1256.2 1507.21,1251.46 
  1509.39,1246.67 1511.56,1241.83 1513.74,1236.95 1515.91,1232.02 1518.09,1227.04 1520.26,1222.01 1522.44,1216.94 1524.61,1211.83 1526.79,1206.67 1528.96,1201.46 
  1531.14,1196.21 1533.31,1190.92 1535.49,1185.59 1537.66,1180.22 1539.84,1174.8 1542.01,1169.35 1544.19,1163.85 1546.36,1158.31 1548.54,1152.74 1550.71,1147.12 
  1552.89,1141.47 1555.06,1135.78 1557.24,1130.06 1559.41,1124.29 1561.59,1118.5 1563.76,1112.66 1565.94,1106.79 1568.11,1100.89 1570.29,1094.96 1572.46,1088.99 
  1574.64,1082.99 1576.81,1076.96 1578.99,1070.9 1581.16,1064.8 1583.34,1058.68 1585.51,1052.53 1587.68,1046.35 1589.86,1040.14 1592.03,1033.91 1594.21,1027.64 
  1596.38,1021.36 1598.56,1015.04 1600.73,1008.7 1602.91,1002.34 1605.08,995.955 1607.26,989.547 1609.43,983.116 1611.61,976.663 1613.78,970.19 1615.96,963.696 
  1618.13,957.183 1620.31,950.65 1622.48,944.1 1624.66,937.531 1626.83,930.946 1629.01,924.344 1631.18,917.727 1633.36,911.094 1635.53,904.447 1637.71,897.787 
  1639.88,891.113 1642.06,884.427 1644.23,877.73 1646.41,871.021 1648.58,864.302 1650.76,857.573 1652.93,850.835 1655.11,844.089 1657.28,837.335 1659.46,830.575 
  1661.63,823.807 1663.81,817.035 1665.98,810.257 1668.16,803.475 1670.33,796.689 1672.51,789.901 1674.68,783.11 1676.86,776.318 1679.03,769.524 1681.21,762.731 
  1683.38,755.938 1685.56,749.146 1687.73,742.356 1689.91,735.568 1692.08,728.784 1694.26,722.003 1696.43,715.227 1698.61,708.456 1700.78,701.691 1702.96,694.933 
  1705.13,688.182 1707.31,681.439 1709.48,674.704 1711.66,667.979 1713.83,661.263 1716.01,654.559 1718.18,647.865 1720.35,641.184 1722.53,634.515 1724.7,627.859 
  1726.88,621.217 1729.05,614.59 1731.23,607.979 1733.4,601.383 1735.58,594.803 1737.75,588.241 1739.93,581.697 1742.1,575.172 1744.28,568.665 1746.45,562.179 
  1748.63,555.713 1750.8,549.268 1752.98,542.845 1755.15,536.445 1757.33,530.067 1759.5,523.714 1761.68,517.384 1763.85,511.08 1766.03,504.801 1768.2,498.549 
  1770.38,492.323 1772.55,486.125 1774.73,479.955 1776.9,473.814 1779.08,467.702 1781.25,461.621 1783.43,455.569 1785.6,449.549 1787.78,443.561 1789.95,437.605 
  1792.13,431.682 1794.3,425.792 1796.48,419.937 1798.65,414.117 1800.83,408.331 1803,402.582 1805.18,396.869 1807.35,391.194 1809.53,385.555 1811.7,379.955 
  1813.88,374.394 1816.05,368.872 1818.23,363.39 1820.4,357.949 1822.58,352.548 1824.75,347.189 1826.93,341.871 1829.1,336.597 1831.28,331.365 1833.45,326.177 
  1835.63,321.033 1837.8,315.934 1839.98,310.88 1842.15,305.871 1844.33,300.909 1846.5,295.993 1848.68,291.125 1850.85,286.304 1853.02,281.531 1855.2,276.807 
  1857.37,272.131 1859.55,267.506 1861.72,262.93 1863.9,258.405 1866.07,253.93 1868.25,249.507 1870.42,245.136 1872.6,240.817 1874.77,236.551 1876.95,232.338 
  1879.12,228.178 1881.3,224.072 1883.47,220.021 1885.65,216.024 1887.82,212.082 1890,208.196 1892.17,204.366 1894.35,200.592 1896.52,196.875 1898.7,193.215 
  1900.87,189.612 1903.05,186.067 1905.22,182.58 1907.4,179.152 1909.57,175.782 1911.75,172.472 1913.92,169.221 1916.1,166.03 1918.27,162.899 1920.45,159.828 
  1922.62,156.818 1924.8,153.87 1926.97,150.982 1929.15,148.156 1931.32,145.393 1933.5,142.691 1935.67,140.052 1937.85,137.475 1940.02,134.962 1942.2,132.512 
  1944.37,130.125 1946.55,127.802 1948.72,125.543 1950.9,123.348 1953.07,121.218 1955.25,119.152 1957.42,117.151 1959.6,115.215 1961.77,113.344 1963.95,111.539 
  1966.12,109.799 1968.3,108.125 1970.47,106.517 1972.65,104.975 1974.82,103.499 1977,102.09 1979.17,100.747 1981.35,99.4706 1983.52,98.2611 1985.69,97.1186 
  1987.87,96.0431 1990.04,95.0347 1992.22,94.0936 1994.39,93.2198 1996.57,92.4134 1998.74,91.6745 2000.92,91.0031 2003.09,90.3994 2005.27,89.8634 2007.44,89.3952 
  2009.62,88.9947 2011.79,88.6621 2013.97,88.3973 2016.14,88.2005 2018.32,88.0715 2020.49,88.0105 2022.67,88.0174 2024.84,88.0923 2027.02,88.2351 2029.19,88.4457 
  2031.37,88.7243 2033.54,89.0708 2035.72,89.485 2037.89,89.9671 2040.07,90.5169 2042.24,91.1344 2044.42,91.8195 2046.59,92.5721 2048.77,93.3923 2050.94,94.2798 
  2053.12,95.2347 2055.29,96.2567 2057.47,97.3459 2059.64,98.502 2061.82,99.7251 2063.99,101.015 2066.17,102.371 2068.34,103.794 2070.52,105.284 2072.69,106.839 
  2074.87,108.461 2077.04,110.148 2079.22,111.901 2081.39,113.72 2083.57,115.604 2085.74,117.553 2087.92,119.568 2090.09,121.647 2092.27,123.79 2094.44,125.998 
  2096.62,128.27 2098.79,130.606 2100.97,133.006 2103.14,135.469 2105.32,137.995 2107.49,140.584 2109.67,143.236 2111.84,145.951 2114.02,148.727 2116.19,151.565 
  2118.36,154.465 2120.54,157.426 2122.71,160.449 2124.89,163.531 2127.06,166.675 2129.24,169.878 2131.41,173.141 2133.59,176.463 2135.76,179.845 2137.94,183.285 
  2140.11,186.784 2142.29,190.341 2144.46,193.955 2146.64,197.627 2148.81,201.356 2150.99,205.141 2153.16,208.983 2155.34,212.88 2157.51,216.833 2159.69,220.841 
  2161.86,224.904 2164.04,229.021 2166.21,233.191 2168.39,237.416 2170.56,241.693 2172.74,246.022 2174.91,250.404 2177.09,254.838 2179.26,259.322 2181.44,263.858 
  2183.61,268.444 2185.79,273.08 2187.96,277.765 2190.14,282.499 2192.31,287.282 2194.49,292.112 2196.66,296.991 2198.84,301.916 2201.01,306.888 2203.19,311.905 
  2205.36,316.969 2207.54,322.077 2209.71,327.23 2211.89,332.427 2214.06,337.667 2216.24,342.951 2218.41,348.277 2220.59,353.644 2222.76,359.054 2224.94,364.504 
  2227.11,369.994 2229.29,375.524 2231.46,381.093 2233.64,386.701 2235.81,392.347 2237.99,398.03 2240.16,403.75 2242.34,409.507 2244.51,415.299 2246.69,421.127 
  2248.86,426.989 2251.03,432.885 2253.21,438.815 2255.38,444.778 2257.56,450.773 2259.73,456.799 2261.91,462.857 2264.08,468.945 2266.26,475.063 2268.43,481.21 
  2270.61,487.385 2272.78,493.589 2274.96,499.82 2277.13,506.078 2279.31,512.362 2281.48,518.672 2283.66,525.006 2285.83,531.364 2288.01,537.747 2290.18,544.152 
  
  "/>
<path clip-path="url(#clip3500)" d="
M1989.93 251.724 L2280.76 251.724 L2280.76 130.764 L1989.93 130.764  Z
  " fill="#ffffff" fill-rule="evenodd" fill-opacity="1"/>
<polyline clip-path="url(#clip3500)" style="stroke:#000000; stroke-width:4; stroke-opacity:1; fill:none" points="
  1989.93,251.724 2280.76,251.724 2280.76,130.764 1989.93,130.764 1989.93,251.724 
  "/>
<polyline clip-path="url(#clip3500)" style="stroke:#009af9; stroke-width:12; stroke-opacity:1; fill:none" points="
  2013.93,191.244 2157.93,191.244 
  "/>
<g clip-path="url(#clip3500)">
<text style="fill:#000000; fill-opacity:1; font-family:Arial,Helvetica Neue,Helvetica,sans-serif; font-size:48px; text-anchor:start;" transform="rotate(0, 2181.93, 208.744)" x="2181.93" y="208.744">y1</text>
</g>
</svg>
