<?xml version="1.0" encoding="utf-8"?>
<svg xmlns="http://www.w3.org/2000/svg" xmlns:xlink="http://www.w3.org/1999/xlink" width="600" height="400" viewBox="0 0 2400 1600">
<defs>
  <clipPath id="clip1800">
    <rect x="0" y="0" width="2400" height="1600"/>
  </clipPath>
</defs>
<path clip-path="url(#clip1800)" d="
M0 1600 L2400 1600 L2400 0 L0 0  Z
  " fill="#ffffff" fill-rule="evenodd" fill-opacity="1"/>
<defs>
  <clipPath id="clip1801">
    <rect x="480" y="0" width="1681" height="1600"/>
  </clipPath>
</defs>
<path clip-path="url(#clip1800)" d="
M182.008 1487.47 L2352.76 1487.47 L2352.76 47.2441 L182.008 47.2441  Z
  " fill="#ffffff" fill-rule="evenodd" fill-opacity="1"/>
<defs>
  <clipPath id="clip1802">
    <rect x="182" y="47" width="2172" height="1441"/>
  </clipPath>
</defs>
<polyline clip-path="url(#clip1802)" style="stroke:#000000; stroke-width:2; stroke-opacity:0.1; fill:none" points="
  243.444,1487.47 243.444,47.2441 
  "/>
<polyline clip-path="url(#clip1802)" style="stroke:#000000; stroke-width:2; stroke-opacity:0.1; fill:none" points="
  568.504,1487.47 568.504,47.2441 
  "/>
<polyline clip-path="url(#clip1802)" style="stroke:#000000; stroke-width:2; stroke-opacity:0.1; fill:none" points="
  893.563,1487.47 893.563,47.2441 
  "/>
<polyline clip-path="url(#clip1802)" style="stroke:#000000; stroke-width:2; stroke-opacity:0.1; fill:none" points="
  1218.62,1487.47 1218.62,47.2441 
  "/>
<polyline clip-path="url(#clip1802)" style="stroke:#000000; stroke-width:2; stroke-opacity:0.1; fill:none" points="
  1543.68,1487.47 1543.68,47.2441 
  "/>
<polyline clip-path="url(#clip1802)" style="stroke:#000000; stroke-width:2; stroke-opacity:0.1; fill:none" points="
  1868.74,1487.47 1868.74,47.2441 
  "/>
<polyline clip-path="url(#clip1802)" style="stroke:#000000; stroke-width:2; stroke-opacity:0.1; fill:none" points="
  2193.8,1487.47 2193.8,47.2441 
  "/>
<polyline clip-path="url(#clip1802)" style="stroke:#000000; stroke-width:2; stroke-opacity:0.1; fill:none" points="
  182.008,1446.71 2352.76,1446.71 
  "/>
<polyline clip-path="url(#clip1802)" style="stroke:#000000; stroke-width:2; stroke-opacity:0.1; fill:none" points="
  182.008,1107.04 2352.76,1107.04 
  "/>
<polyline clip-path="url(#clip1802)" style="stroke:#000000; stroke-width:2; stroke-opacity:0.1; fill:none" points="
  182.008,767.359 2352.76,767.359 
  "/>
<polyline clip-path="url(#clip1802)" style="stroke:#000000; stroke-width:2; stroke-opacity:0.1; fill:none" points="
  182.008,427.682 2352.76,427.682 
  "/>
<polyline clip-path="url(#clip1802)" style="stroke:#000000; stroke-width:2; stroke-opacity:0.1; fill:none" points="
  182.008,88.0053 2352.76,88.0053 
  "/>
<polyline clip-path="url(#clip1800)" style="stroke:#000000; stroke-width:4; stroke-opacity:1; fill:none" points="
  182.008,1487.47 2352.76,1487.47 
  "/>
<polyline clip-path="url(#clip1800)" style="stroke:#000000; stroke-width:4; stroke-opacity:1; fill:none" points="
  182.008,1487.47 182.008,47.2441 
  "/>
<polyline clip-path="url(#clip1800)" style="stroke:#000000; stroke-width:4; stroke-opacity:1; fill:none" points="
  243.444,1487.47 243.444,1470.19 
  "/>
<polyline clip-path="url(#clip1800)" style="stroke:#000000; stroke-width:4; stroke-opacity:1; fill:none" points="
  568.504,1487.47 568.504,1470.19 
  "/>
<polyline clip-path="url(#clip1800)" style="stroke:#000000; stroke-width:4; stroke-opacity:1; fill:none" points="
  893.563,1487.47 893.563,1470.19 
  "/>
<polyline clip-path="url(#clip1800)" style="stroke:#000000; stroke-width:4; stroke-opacity:1; fill:none" points="
  1218.62,1487.47 1218.62,1470.19 
  "/>
<polyline clip-path="url(#clip1800)" style="stroke:#000000; stroke-width:4; stroke-opacity:1; fill:none" points="
  1543.68,1487.47 1543.68,1470.19 
  "/>
<polyline clip-path="url(#clip1800)" style="stroke:#000000; stroke-width:4; stroke-opacity:1; fill:none" points="
  1868.74,1487.47 1868.74,1470.19 
  "/>
<polyline clip-path="url(#clip1800)" style="stroke:#000000; stroke-width:4; stroke-opacity:1; fill:none" points="
  2193.8,1487.47 2193.8,1470.19 
  "/>
<polyline clip-path="url(#clip1800)" style="stroke:#000000; stroke-width:4; stroke-opacity:1; fill:none" points="
  182.008,1446.71 208.057,1446.71 
  "/>
<polyline clip-path="url(#clip1800)" style="stroke:#000000; stroke-width:4; stroke-opacity:1; fill:none" points="
  182.008,1107.04 208.057,1107.04 
  "/>
<polyline clip-path="url(#clip1800)" style="stroke:#000000; stroke-width:4; stroke-opacity:1; fill:none" points="
  182.008,767.359 208.057,767.359 
  "/>
<polyline clip-path="url(#clip1800)" style="stroke:#000000; stroke-width:4; stroke-opacity:1; fill:none" points="
  182.008,427.682 208.057,427.682 
  "/>
<polyline clip-path="url(#clip1800)" style="stroke:#000000; stroke-width:4; stroke-opacity:1; fill:none" points="
  182.008,88.0053 208.057,88.0053 
  "/>
<g clip-path="url(#clip1800)">
<text style="fill:#000000; fill-opacity:1; font-family:Arial,Helvetica Neue,Helvetica,sans-serif; font-size:48px; text-anchor:middle;" transform="rotate(0, 243.444, 1541.47)" x="243.444" y="1541.47">0.0</text>
</g>
<g clip-path="url(#clip1800)">
<text style="fill:#000000; fill-opacity:1; font-family:Arial,Helvetica Neue,Helvetica,sans-serif; font-size:48px; text-anchor:middle;" transform="rotate(0, 568.504, 1541.47)" x="568.504" y="1541.47">0.1</text>
</g>
<g clip-path="url(#clip1800)">
<text style="fill:#000000; fill-opacity:1; font-family:Arial,Helvetica Neue,Helvetica,sans-serif; font-size:48px; text-anchor:middle;" transform="rotate(0, 893.563, 1541.47)" x="893.563" y="1541.47">0.2</text>
</g>
<g clip-path="url(#clip1800)">
<text style="fill:#000000; fill-opacity:1; font-family:Arial,Helvetica Neue,Helvetica,sans-serif; font-size:48px; text-anchor:middle;" transform="rotate(0, 1218.62, 1541.47)" x="1218.62" y="1541.47">0.3</text>
</g>
<g clip-path="url(#clip1800)">
<text style="fill:#000000; fill-opacity:1; font-family:Arial,Helvetica Neue,Helvetica,sans-serif; font-size:48px; text-anchor:middle;" transform="rotate(0, 1543.68, 1541.47)" x="1543.68" y="1541.47">0.4</text>
</g>
<g clip-path="url(#clip1800)">
<text style="fill:#000000; fill-opacity:1; font-family:Arial,Helvetica Neue,Helvetica,sans-serif; font-size:48px; text-anchor:middle;" transform="rotate(0, 1868.74, 1541.47)" x="1868.74" y="1541.47">0.5</text>
</g>
<g clip-path="url(#clip1800)">
<text style="fill:#000000; fill-opacity:1; font-family:Arial,Helvetica Neue,Helvetica,sans-serif; font-size:48px; text-anchor:middle;" transform="rotate(0, 2193.8, 1541.47)" x="2193.8" y="1541.47">0.6</text>
</g>
<g clip-path="url(#clip1800)">
<text style="fill:#000000; fill-opacity:1; font-family:Arial,Helvetica Neue,Helvetica,sans-serif; font-size:48px; text-anchor:end;" transform="rotate(0, 158.008, 1464.21)" x="158.008" y="1464.21">-2.0</text>
</g>
<g clip-path="url(#clip1800)">
<text style="fill:#000000; fill-opacity:1; font-family:Arial,Helvetica Neue,Helvetica,sans-serif; font-size:48px; text-anchor:end;" transform="rotate(0, 158.008, 1124.54)" x="158.008" y="1124.54">-1.5</text>
</g>
<g clip-path="url(#clip1800)">
<text style="fill:#000000; fill-opacity:1; font-family:Arial,Helvetica Neue,Helvetica,sans-serif; font-size:48px; text-anchor:end;" transform="rotate(0, 158.008, 784.859)" x="158.008" y="784.859">-1.0</text>
</g>
<g clip-path="url(#clip1800)">
<text style="fill:#000000; fill-opacity:1; font-family:Arial,Helvetica Neue,Helvetica,sans-serif; font-size:48px; text-anchor:end;" transform="rotate(0, 158.008, 445.182)" x="158.008" y="445.182">-0.5</text>
</g>
<g clip-path="url(#clip1800)">
<text style="fill:#000000; fill-opacity:1; font-family:Arial,Helvetica Neue,Helvetica,sans-serif; font-size:48px; text-anchor:end;" transform="rotate(0, 158.008, 105.505)" x="158.008" y="105.505">0.0</text>
</g>
<polyline clip-path="url(#clip1802)" style="stroke:#009af9; stroke-width:4; stroke-opacity:1; fill:none" points="
  243.444,767.359 275.95,557.427 308.456,368.045 340.962,217.75 373.468,121.255 405.974,88.0053 438.48,121.255 470.986,217.75 503.492,368.045 535.998,557.427 
  568.504,767.359 601.01,977.291 633.516,1166.67 666.022,1316.97 698.528,1413.46 731.034,1446.71 763.54,1413.46 796.046,1316.97 828.552,1166.67 861.058,977.291 
  893.563,767.359 926.069,557.427 958.575,368.045 991.081,217.75 1023.59,121.255 1056.09,88.0053 1088.6,121.255 1121.11,217.75 1153.61,368.045 1186.12,557.427 
  1218.62,767.359 1251.13,977.291 1283.63,1166.67 1316.14,1316.97 1348.65,1413.46 1381.15,1446.71 1413.66,1413.46 1446.16,1316.97 1478.67,1166.67 1511.18,977.291 
  1543.68,767.359 1576.19,557.427 1608.69,368.045 1641.2,217.75 1673.71,121.255 1706.21,88.0053 1738.72,121.255 1771.22,217.75 1803.73,368.045 1836.24,557.427 
  1868.74,767.359 1901.25,977.291 1933.75,1166.67 1966.26,1316.97 1998.77,1413.46 2031.27,1446.71 2063.78,1413.46 2096.28,1316.97 2128.79,1166.67 2161.3,977.291 
  2193.8,767.359 2226.31,557.427 2258.81,368.045 2291.32,217.75 
  "/>
<path clip-path="url(#clip1800)" d="
M1989.93 251.724 L2280.76 251.724 L2280.76 130.764 L1989.93 130.764  Z
  " fill="#ffffff" fill-rule="evenodd" fill-opacity="1"/>
<polyline clip-path="url(#clip1800)" style="stroke:#000000; stroke-width:4; stroke-opacity:1; fill:none" points="
  1989.93,251.724 2280.76,251.724 2280.76,130.764 1989.93,130.764 1989.93,251.724 
  "/>
<polyline clip-path="url(#clip1800)" style="stroke:#009af9; stroke-width:4; stroke-opacity:1; fill:none" points="
  2013.93,191.244 2157.93,191.244 
  "/>
<g clip-path="url(#clip1800)">
<text style="fill:#000000; fill-opacity:1; font-family:Arial,Helvetica Neue,Helvetica,sans-serif; font-size:48px; text-anchor:start;" transform="rotate(0, 2181.93, 208.744)" x="2181.93" y="208.744">y1</text>
</g>
</svg>
