<?xml version="1.0" encoding="utf-8"?>
<svg xmlns="http://www.w3.org/2000/svg" xmlns:xlink="http://www.w3.org/1999/xlink" width="600" height="400" viewBox="0 0 2400 1600">
<defs>
  <clipPath id="clip900">
    <rect x="0" y="0" width="2400" height="1600"/>
  </clipPath>
</defs>
<path clip-path="url(#clip900)" d="
M0 1600 L2400 1600 L2400 0 L0 0  Z
  " fill="#ffffff" fill-rule="evenodd" fill-opacity="1"/>
<defs>
  <clipPath id="clip901">
    <rect x="480" y="0" width="1681" height="1600"/>
  </clipPath>
</defs>
<path clip-path="url(#clip900)" d="
M162.455 1486.45 L2352.76 1486.45 L2352.76 47.2441 L162.455 47.2441  Z
  " fill="#ffffff" fill-rule="evenodd" fill-opacity="1"/>
<defs>
  <clipPath id="clip902">
    <rect x="162" y="47" width="2191" height="1440"/>
  </clipPath>
</defs>
<polyline clip-path="url(#clip902)" style="stroke:#000000; stroke-width:2; stroke-opacity:0.1; fill:none" points="
  224.444,1486.45 224.444,47.2441 
  "/>
<polyline clip-path="url(#clip902)" style="stroke:#000000; stroke-width:2; stroke-opacity:0.1; fill:none" points="
  749.225,1486.45 749.225,47.2441 
  "/>
<polyline clip-path="url(#clip902)" style="stroke:#000000; stroke-width:2; stroke-opacity:0.1; fill:none" points="
  1274,1486.45 1274,47.2441 
  "/>
<polyline clip-path="url(#clip902)" style="stroke:#000000; stroke-width:2; stroke-opacity:0.1; fill:none" points="
  1798.78,1486.45 1798.78,47.2441 
  "/>
<polyline clip-path="url(#clip902)" style="stroke:#000000; stroke-width:2; stroke-opacity:0.1; fill:none" points="
  2323.57,1486.45 2323.57,47.2441 
  "/>
<polyline clip-path="url(#clip902)" style="stroke:#000000; stroke-width:2; stroke-opacity:0.1; fill:none" points="
  162.455,1327.87 2352.76,1327.87 
  "/>
<polyline clip-path="url(#clip902)" style="stroke:#000000; stroke-width:2; stroke-opacity:0.1; fill:none" points="
  162.455,949.918 2352.76,949.918 
  "/>
<polyline clip-path="url(#clip902)" style="stroke:#000000; stroke-width:2; stroke-opacity:0.1; fill:none" points="
  162.455,571.963 2352.76,571.963 
  "/>
<polyline clip-path="url(#clip902)" style="stroke:#000000; stroke-width:2; stroke-opacity:0.1; fill:none" points="
  162.455,194.008 2352.76,194.008 
  "/>
<polyline clip-path="url(#clip900)" style="stroke:#000000; stroke-width:4; stroke-opacity:1; fill:none" points="
  162.455,1486.45 2352.76,1486.45 
  "/>
<polyline clip-path="url(#clip900)" style="stroke:#000000; stroke-width:4; stroke-opacity:1; fill:none" points="
  162.455,1486.45 162.455,47.2441 
  "/>
<polyline clip-path="url(#clip900)" style="stroke:#000000; stroke-width:4; stroke-opacity:1; fill:none" points="
  224.444,1486.45 224.444,1469.18 
  "/>
<polyline clip-path="url(#clip900)" style="stroke:#000000; stroke-width:4; stroke-opacity:1; fill:none" points="
  749.225,1486.45 749.225,1469.18 
  "/>
<polyline clip-path="url(#clip900)" style="stroke:#000000; stroke-width:4; stroke-opacity:1; fill:none" points="
  1274,1486.45 1274,1469.18 
  "/>
<polyline clip-path="url(#clip900)" style="stroke:#000000; stroke-width:4; stroke-opacity:1; fill:none" points="
  1798.78,1486.45 1798.78,1469.18 
  "/>
<polyline clip-path="url(#clip900)" style="stroke:#000000; stroke-width:4; stroke-opacity:1; fill:none" points="
  2323.57,1486.45 2323.57,1469.18 
  "/>
<polyline clip-path="url(#clip900)" style="stroke:#000000; stroke-width:4; stroke-opacity:1; fill:none" points="
  162.455,1327.87 188.738,1327.87 
  "/>
<polyline clip-path="url(#clip900)" style="stroke:#000000; stroke-width:4; stroke-opacity:1; fill:none" points="
  162.455,949.918 188.738,949.918 
  "/>
<polyline clip-path="url(#clip900)" style="stroke:#000000; stroke-width:4; stroke-opacity:1; fill:none" points="
  162.455,571.963 188.738,571.963 
  "/>
<polyline clip-path="url(#clip900)" style="stroke:#000000; stroke-width:4; stroke-opacity:1; fill:none" points="
  162.455,194.008 188.738,194.008 
  "/>
<path clip-path="url(#clip900)" d="M 0 0 M192.454 1508.44 Q188.843 1508.44 187.014 1512 Q185.208 1515.55 185.208 1522.67 Q185.208 1529.78 187.014 1533.35 Q188.843 1536.89 192.454 1536.89 Q196.088 1536.89 197.894 1533.35 Q199.722 1529.78 199.722 1522.67 Q199.722 1515.55 197.894 1512 Q196.088 1508.44 192.454 1508.44 M192.454 1504.73 Q198.264 1504.73 201.319 1509.34 Q204.398 1513.92 204.398 1522.67 Q204.398 1531.4 201.319 1536.01 Q198.264 1540.59 192.454 1540.59 Q186.644 1540.59 183.565 1536.01 Q180.509 1531.4 180.509 1522.67 Q180.509 1513.92 183.565 1509.34 Q186.644 1504.73 192.454 1504.73 Z" fill="#000000" fill-rule="evenodd" fill-opacity="1" /><path clip-path="url(#clip900)" d="M 0 0 M209.468 1534.04 L214.352 1534.04 L214.352 1539.92 L209.468 1539.92 L209.468 1534.04 Z" fill="#000000" fill-rule="evenodd" fill-opacity="1" /><path clip-path="url(#clip900)" d="M 0 0 M229.421 1508.44 Q225.81 1508.44 223.981 1512 Q222.176 1515.55 222.176 1522.67 Q222.176 1529.78 223.981 1533.35 Q225.81 1536.89 229.421 1536.89 Q233.055 1536.89 234.861 1533.35 Q236.69 1529.78 236.69 1522.67 Q236.69 1515.55 234.861 1512 Q233.055 1508.44 229.421 1508.44 M229.421 1504.73 Q235.231 1504.73 238.287 1509.34 Q241.366 1513.92 241.366 1522.67 Q241.366 1531.4 238.287 1536.01 Q235.231 1540.59 229.421 1540.59 Q223.611 1540.59 220.532 1536.01 Q217.477 1531.4 217.477 1522.67 Q217.477 1513.92 220.532 1509.34 Q223.611 1504.73 229.421 1504.73 Z" fill="#000000" fill-rule="evenodd" fill-opacity="1" /><path clip-path="url(#clip900)" d="M 0 0 M256.435 1508.44 Q252.824 1508.44 250.995 1512 Q249.19 1515.55 249.19 1522.67 Q249.19 1529.78 250.995 1533.35 Q252.824 1536.89 256.435 1536.89 Q260.069 1536.89 261.875 1533.35 Q263.703 1529.78 263.703 1522.67 Q263.703 1515.55 261.875 1512 Q260.069 1508.44 256.435 1508.44 M256.435 1504.73 Q262.245 1504.73 265.301 1509.34 Q268.379 1513.92 268.379 1522.67 Q268.379 1531.4 265.301 1536.01 Q262.245 1540.59 256.435 1540.59 Q250.625 1540.59 247.546 1536.01 Q244.491 1531.4 244.491 1522.67 Q244.491 1513.92 247.546 1509.34 Q250.625 1504.73 256.435 1504.73 Z" fill="#000000" fill-rule="evenodd" fill-opacity="1" /><path clip-path="url(#clip900)" d="M 0 0 M718.53 1508.44 Q714.919 1508.44 713.09 1512 Q711.285 1515.55 711.285 1522.67 Q711.285 1529.78 713.09 1533.35 Q714.919 1536.89 718.53 1536.89 Q722.164 1536.89 723.97 1533.35 Q725.799 1529.78 725.799 1522.67 Q725.799 1515.55 723.97 1512 Q722.164 1508.44 718.53 1508.44 M718.53 1504.73 Q724.34 1504.73 727.396 1509.34 Q730.475 1513.92 730.475 1522.67 Q730.475 1531.4 727.396 1536.01 Q724.34 1540.59 718.53 1540.59 Q712.72 1540.59 709.641 1536.01 Q706.586 1531.4 706.586 1522.67 Q706.586 1513.92 709.641 1509.34 Q712.72 1504.73 718.53 1504.73 Z" fill="#000000" fill-rule="evenodd" fill-opacity="1" /><path clip-path="url(#clip900)" d="M 0 0 M735.544 1534.04 L740.428 1534.04 L740.428 1539.92 L735.544 1539.92 L735.544 1534.04 Z" fill="#000000" fill-rule="evenodd" fill-opacity="1" /><path clip-path="url(#clip900)" d="M 0 0 M749.525 1535.98 L765.845 1535.98 L765.845 1539.92 L743.9 1539.92 L743.9 1535.98 Q746.562 1533.23 751.146 1528.6 Q755.752 1523.95 756.933 1522.61 Q759.178 1520.08 760.058 1518.35 Q760.961 1516.59 760.961 1514.9 Q760.961 1512.14 759.016 1510.41 Q757.095 1508.67 753.993 1508.67 Q751.794 1508.67 749.34 1509.43 Q746.91 1510.2 744.132 1511.75 L744.132 1507.03 Q746.956 1505.89 749.41 1505.31 Q751.863 1504.73 753.9 1504.73 Q759.271 1504.73 762.465 1507.42 Q765.66 1510.11 765.66 1514.6 Q765.66 1516.73 764.849 1518.65 Q764.062 1520.54 761.956 1523.14 Q761.377 1523.81 758.275 1527.03 Q755.174 1530.22 749.525 1535.98 Z" fill="#000000" fill-rule="evenodd" fill-opacity="1" /><path clip-path="url(#clip900)" d="M 0 0 M770.961 1505.36 L789.317 1505.36 L789.317 1509.3 L775.243 1509.3 L775.243 1517.77 Q776.261 1517.42 777.28 1517.26 Q778.298 1517.07 779.317 1517.07 Q785.104 1517.07 788.484 1520.24 Q791.863 1523.42 791.863 1528.83 Q791.863 1534.41 788.391 1537.51 Q784.919 1540.59 778.599 1540.59 Q776.423 1540.59 774.155 1540.22 Q771.91 1539.85 769.502 1539.11 L769.502 1534.41 Q771.585 1535.54 773.808 1536.1 Q776.03 1536.66 778.507 1536.66 Q782.511 1536.66 784.849 1534.55 Q787.187 1532.44 787.187 1528.83 Q787.187 1525.22 784.849 1523.11 Q782.511 1521.01 778.507 1521.01 Q776.632 1521.01 774.757 1521.42 Q772.905 1521.84 770.961 1522.72 L770.961 1505.36 Z" fill="#000000" fill-rule="evenodd" fill-opacity="1" /><path clip-path="url(#clip900)" d="M 0 0 M1242.51 1508.44 Q1238.9 1508.44 1237.07 1512 Q1235.27 1515.55 1235.27 1522.67 Q1235.27 1529.78 1237.07 1533.35 Q1238.9 1536.89 1242.51 1536.89 Q1246.15 1536.89 1247.95 1533.35 Q1249.78 1529.78 1249.78 1522.67 Q1249.78 1515.55 1247.95 1512 Q1246.15 1508.44 1242.51 1508.44 M1242.51 1504.73 Q1248.32 1504.73 1251.38 1509.34 Q1254.46 1513.92 1254.46 1522.67 Q1254.46 1531.4 1251.38 1536.01 Q1248.32 1540.59 1242.51 1540.59 Q1236.7 1540.59 1233.62 1536.01 Q1230.57 1531.4 1230.57 1522.67 Q1230.57 1513.92 1233.62 1509.34 Q1236.7 1504.73 1242.51 1504.73 Z" fill="#000000" fill-rule="evenodd" fill-opacity="1" /><path clip-path="url(#clip900)" d="M 0 0 M1259.53 1534.04 L1264.41 1534.04 L1264.41 1539.92 L1259.53 1539.92 L1259.53 1534.04 Z" fill="#000000" fill-rule="evenodd" fill-opacity="1" /><path clip-path="url(#clip900)" d="M 0 0 M1269.53 1505.36 L1287.88 1505.36 L1287.88 1509.3 L1273.81 1509.3 L1273.81 1517.77 Q1274.83 1517.42 1275.84 1517.26 Q1276.86 1517.07 1277.88 1517.07 Q1283.67 1517.07 1287.05 1520.24 Q1290.43 1523.42 1290.43 1528.83 Q1290.43 1534.41 1286.96 1537.51 Q1283.48 1540.59 1277.16 1540.59 Q1274.99 1540.59 1272.72 1540.22 Q1270.47 1539.85 1268.07 1539.11 L1268.07 1534.41 Q1270.15 1535.54 1272.37 1536.1 Q1274.59 1536.66 1277.07 1536.66 Q1281.08 1536.66 1283.41 1534.55 Q1285.75 1532.44 1285.75 1528.83 Q1285.75 1525.22 1283.41 1523.11 Q1281.08 1521.01 1277.07 1521.01 Q1275.2 1521.01 1273.32 1521.42 Q1271.47 1521.84 1269.53 1522.72 L1269.53 1505.36 Z" fill="#000000" fill-rule="evenodd" fill-opacity="1" /><path clip-path="url(#clip900)" d="M 0 0 M1305.5 1508.44 Q1301.89 1508.44 1300.06 1512 Q1298.25 1515.55 1298.25 1522.67 Q1298.25 1529.78 1300.06 1533.35 Q1301.89 1536.89 1305.5 1536.89 Q1309.13 1536.89 1310.94 1533.35 Q1312.77 1529.78 1312.77 1522.67 Q1312.77 1515.55 1310.94 1512 Q1309.13 1508.44 1305.5 1508.44 M1305.5 1504.73 Q1311.31 1504.73 1314.36 1509.34 Q1317.44 1513.92 1317.44 1522.67 Q1317.44 1531.4 1314.36 1536.01 Q1311.31 1540.59 1305.5 1540.59 Q1299.69 1540.59 1296.61 1536.01 Q1293.55 1531.4 1293.55 1522.67 Q1293.55 1513.92 1296.61 1509.34 Q1299.69 1504.73 1305.5 1504.73 Z" fill="#000000" fill-rule="evenodd" fill-opacity="1" /><path clip-path="url(#clip900)" d="M 0 0 M1767.74 1508.44 Q1764.13 1508.44 1762.3 1512 Q1760.5 1515.55 1760.5 1522.67 Q1760.5 1529.78 1762.3 1533.35 Q1764.13 1536.89 1767.74 1536.89 Q1771.38 1536.89 1773.18 1533.35 Q1775.01 1529.78 1775.01 1522.67 Q1775.01 1515.55 1773.18 1512 Q1771.38 1508.44 1767.74 1508.44 M1767.74 1504.73 Q1773.55 1504.73 1776.61 1509.34 Q1779.69 1513.92 1779.69 1522.67 Q1779.69 1531.4 1776.61 1536.01 Q1773.55 1540.59 1767.74 1540.59 Q1761.93 1540.59 1758.85 1536.01 Q1755.8 1531.4 1755.8 1522.67 Q1755.8 1513.92 1758.85 1509.34 Q1761.93 1504.73 1767.74 1504.73 Z" fill="#000000" fill-rule="evenodd" fill-opacity="1" /><path clip-path="url(#clip900)" d="M 0 0 M1784.76 1534.04 L1789.64 1534.04 L1789.64 1539.92 L1784.76 1539.92 L1784.76 1534.04 Z" fill="#000000" fill-rule="evenodd" fill-opacity="1" /><path clip-path="url(#clip900)" d="M 0 0 M1793.53 1505.36 L1815.75 1505.36 L1815.75 1507.35 L1803.21 1539.92 L1798.32 1539.92 L1810.13 1509.3 L1793.53 1509.3 L1793.53 1505.36 Z" fill="#000000" fill-rule="evenodd" fill-opacity="1" /><path clip-path="url(#clip900)" d="M 0 0 M1820.87 1505.36 L1839.22 1505.36 L1839.22 1509.3 L1825.15 1509.3 L1825.15 1517.77 Q1826.17 1517.42 1827.19 1517.26 Q1828.21 1517.07 1829.22 1517.07 Q1835.01 1517.07 1838.39 1520.24 Q1841.77 1523.42 1841.77 1528.83 Q1841.77 1534.41 1838.3 1537.51 Q1834.83 1540.59 1828.51 1540.59 Q1826.33 1540.59 1824.06 1540.22 Q1821.82 1539.85 1819.41 1539.11 L1819.41 1534.41 Q1821.49 1535.54 1823.72 1536.1 Q1825.94 1536.66 1828.41 1536.66 Q1832.42 1536.66 1834.76 1534.55 Q1837.09 1532.44 1837.09 1528.83 Q1837.09 1525.22 1834.76 1523.11 Q1832.42 1521.01 1828.41 1521.01 Q1826.54 1521.01 1824.66 1521.42 Q1822.81 1521.84 1820.87 1522.72 L1820.87 1505.36 Z" fill="#000000" fill-rule="evenodd" fill-opacity="1" /><path clip-path="url(#clip900)" d="M 0 0 M2281.96 1535.98 L2289.6 1535.98 L2289.6 1509.62 L2281.29 1511.29 L2281.29 1507.03 L2289.55 1505.36 L2294.22 1505.36 L2294.22 1535.98 L2301.86 1535.98 L2301.86 1539.92 L2281.96 1539.92 L2281.96 1535.98 Z" fill="#000000" fill-rule="evenodd" fill-opacity="1" /><path clip-path="url(#clip900)" d="M 0 0 M2306.93 1534.04 L2311.82 1534.04 L2311.82 1539.92 L2306.93 1539.92 L2306.93 1534.04 Z" fill="#000000" fill-rule="evenodd" fill-opacity="1" /><path clip-path="url(#clip900)" d="M 0 0 M2326.89 1508.44 Q2323.28 1508.44 2321.45 1512 Q2319.64 1515.55 2319.64 1522.67 Q2319.64 1529.78 2321.45 1533.35 Q2323.28 1536.89 2326.89 1536.89 Q2330.52 1536.89 2332.33 1533.35 Q2334.16 1529.78 2334.16 1522.67 Q2334.16 1515.55 2332.33 1512 Q2330.52 1508.44 2326.89 1508.44 M2326.89 1504.73 Q2332.7 1504.73 2335.75 1509.34 Q2338.83 1513.92 2338.83 1522.67 Q2338.83 1531.4 2335.75 1536.01 Q2332.7 1540.59 2326.89 1540.59 Q2321.08 1540.59 2318 1536.01 Q2314.94 1531.4 2314.94 1522.67 Q2314.94 1513.92 2318 1509.34 Q2321.08 1504.73 2326.89 1504.73 Z" fill="#000000" fill-rule="evenodd" fill-opacity="1" /><path clip-path="url(#clip900)" d="M 0 0 M2353.9 1508.44 Q2350.29 1508.44 2348.46 1512 Q2346.66 1515.55 2346.66 1522.67 Q2346.66 1529.78 2348.46 1533.35 Q2350.29 1536.89 2353.9 1536.89 Q2357.53 1536.89 2359.34 1533.35 Q2361.17 1529.78 2361.17 1522.67 Q2361.17 1515.55 2359.34 1512 Q2357.53 1508.44 2353.9 1508.44 M2353.9 1504.73 Q2359.71 1504.73 2362.77 1509.34 Q2365.84 1513.92 2365.84 1522.67 Q2365.84 1531.4 2362.77 1536.01 Q2359.71 1540.59 2353.9 1540.59 Q2348.09 1540.59 2345.01 1536.01 Q2341.96 1531.4 2341.96 1522.67 Q2341.96 1513.92 2345.01 1509.34 Q2348.09 1504.73 2353.9 1504.73 Z" fill="#000000" fill-rule="evenodd" fill-opacity="1" /><path clip-path="url(#clip900)" d="M 0 0 M62.9921 1330.27 L75.4689 1330.27 L75.4689 1334.06 L62.9921 1334.06 L62.9921 1330.27 Z" fill="#000000" fill-rule="evenodd" fill-opacity="1" /><path clip-path="url(#clip900)" d="M 0 0 M90.5383 1313.67 Q86.9272 1313.67 85.0985 1317.24 Q83.2929 1320.78 83.2929 1327.91 Q83.2929 1335.01 85.0985 1338.58 Q86.9272 1342.12 90.5383 1342.12 Q94.1725 1342.12 95.9781 1338.58 Q97.8068 1335.01 97.8068 1327.91 Q97.8068 1320.78 95.9781 1317.24 Q94.1725 1313.67 90.5383 1313.67 M90.5383 1309.97 Q96.3484 1309.97 99.404 1314.57 Q102.483 1319.16 102.483 1327.91 Q102.483 1336.63 99.404 1341.24 Q96.3484 1345.82 90.5383 1345.82 Q84.7281 1345.82 81.6494 1341.24 Q78.5939 1336.63 78.5939 1327.91 Q78.5939 1319.16 81.6494 1314.57 Q84.7281 1309.97 90.5383 1309.97 Z" fill="#000000" fill-rule="evenodd" fill-opacity="1" /><path clip-path="url(#clip900)" d="M 0 0 M107.552 1339.27 L112.436 1339.27 L112.436 1345.15 L107.552 1345.15 L107.552 1339.27 Z" fill="#000000" fill-rule="evenodd" fill-opacity="1" /><path clip-path="url(#clip900)" d="M 0 0 M117.552 1310.59 L135.908 1310.59 L135.908 1314.53 L121.834 1314.53 L121.834 1323 Q122.853 1322.65 123.871 1322.49 Q124.89 1322.31 125.908 1322.31 Q131.695 1322.31 135.075 1325.48 Q138.455 1328.65 138.455 1334.06 Q138.455 1339.64 134.982 1342.75 Q131.51 1345.82 125.191 1345.82 Q123.015 1345.82 120.746 1345.45 Q118.501 1345.08 116.094 1344.34 L116.094 1339.64 Q118.177 1340.78 120.399 1341.33 Q122.621 1341.89 125.098 1341.89 Q129.103 1341.89 131.441 1339.78 Q133.779 1337.68 133.779 1334.06 Q133.779 1330.45 131.441 1328.35 Q129.103 1326.24 125.098 1326.24 Q123.223 1326.24 121.348 1326.66 Q119.496 1327.07 117.552 1327.95 L117.552 1310.59 Z" fill="#000000" fill-rule="evenodd" fill-opacity="1" /><path clip-path="url(#clip900)" d="M 0 0 M89.5429 935.717 Q85.9318 935.717 84.1031 939.281 Q82.2976 942.823 82.2976 949.953 Q82.2976 957.059 84.1031 960.624 Q85.9318 964.165 89.5429 964.165 Q93.1771 964.165 94.9827 960.624 Q96.8114 957.059 96.8114 949.953 Q96.8114 942.823 94.9827 939.281 Q93.1771 935.717 89.5429 935.717 M89.5429 932.013 Q95.3531 932.013 98.4086 936.619 Q101.487 941.203 101.487 949.953 Q101.487 958.679 98.4086 963.286 Q95.3531 967.869 89.5429 967.869 Q83.7328 967.869 80.6541 963.286 Q77.5985 958.679 77.5985 949.953 Q77.5985 941.203 80.6541 936.619 Q83.7328 932.013 89.5429 932.013 Z" fill="#000000" fill-rule="evenodd" fill-opacity="1" /><path clip-path="url(#clip900)" d="M 0 0 M106.557 961.318 L111.441 961.318 L111.441 967.198 L106.557 967.198 L106.557 961.318 Z" fill="#000000" fill-rule="evenodd" fill-opacity="1" /><path clip-path="url(#clip900)" d="M 0 0 M126.51 935.717 Q122.899 935.717 121.071 939.281 Q119.265 942.823 119.265 949.953 Q119.265 957.059 121.071 960.624 Q122.899 964.165 126.51 964.165 Q130.145 964.165 131.95 960.624 Q133.779 957.059 133.779 949.953 Q133.779 942.823 131.95 939.281 Q130.145 935.717 126.51 935.717 M126.51 932.013 Q132.32 932.013 135.376 936.619 Q138.455 941.203 138.455 949.953 Q138.455 958.679 135.376 963.286 Q132.32 967.869 126.51 967.869 Q120.7 967.869 117.621 963.286 Q114.566 958.679 114.566 949.953 Q114.566 941.203 117.621 936.619 Q120.7 932.013 126.51 932.013 Z" fill="#000000" fill-rule="evenodd" fill-opacity="1" /><path clip-path="url(#clip900)" d="M 0 0 M90.5383 557.762 Q86.9272 557.762 85.0985 561.326 Q83.2929 564.868 83.2929 571.998 Q83.2929 579.104 85.0985 582.669 Q86.9272 586.211 90.5383 586.211 Q94.1725 586.211 95.9781 582.669 Q97.8068 579.104 97.8068 571.998 Q97.8068 564.868 95.9781 561.326 Q94.1725 557.762 90.5383 557.762 M90.5383 554.058 Q96.3484 554.058 99.404 558.664 Q102.483 563.248 102.483 571.998 Q102.483 580.725 99.404 585.331 Q96.3484 589.914 90.5383 589.914 Q84.7281 589.914 81.6494 585.331 Q78.5939 580.725 78.5939 571.998 Q78.5939 563.248 81.6494 558.664 Q84.7281 554.058 90.5383 554.058 Z" fill="#000000" fill-rule="evenodd" fill-opacity="1" /><path clip-path="url(#clip900)" d="M 0 0 M107.552 583.363 L112.436 583.363 L112.436 589.243 L107.552 589.243 L107.552 583.363 Z" fill="#000000" fill-rule="evenodd" fill-opacity="1" /><path clip-path="url(#clip900)" d="M 0 0 M117.552 554.683 L135.908 554.683 L135.908 558.618 L121.834 558.618 L121.834 567.09 Q122.853 566.743 123.871 566.581 Q124.89 566.396 125.908 566.396 Q131.695 566.396 135.075 569.567 Q138.455 572.738 138.455 578.155 Q138.455 583.734 134.982 586.836 Q131.51 589.914 125.191 589.914 Q123.015 589.914 120.746 589.544 Q118.501 589.174 116.094 588.433 L116.094 583.734 Q118.177 584.868 120.399 585.424 Q122.621 585.979 125.098 585.979 Q129.103 585.979 131.441 583.873 Q133.779 581.766 133.779 578.155 Q133.779 574.544 131.441 572.438 Q129.103 570.331 125.098 570.331 Q123.223 570.331 121.348 570.748 Q119.496 571.164 117.552 572.044 L117.552 554.683 Z" fill="#000000" fill-rule="evenodd" fill-opacity="1" /><path clip-path="url(#clip900)" d="M 0 0 M81.58 207.353 L89.2188 207.353 L89.2188 180.987 L80.9087 182.654 L80.9087 178.395 L89.1725 176.728 L93.8484 176.728 L93.8484 207.353 L101.487 207.353 L101.487 211.288 L81.58 211.288 L81.58 207.353 Z" fill="#000000" fill-rule="evenodd" fill-opacity="1" /><path clip-path="url(#clip900)" d="M 0 0 M106.557 205.408 L111.441 205.408 L111.441 211.288 L106.557 211.288 L106.557 205.408 Z" fill="#000000" fill-rule="evenodd" fill-opacity="1" /><path clip-path="url(#clip900)" d="M 0 0 M126.51 179.807 Q122.899 179.807 121.071 183.372 Q119.265 186.913 119.265 194.043 Q119.265 201.149 121.071 204.714 Q122.899 208.256 126.51 208.256 Q130.145 208.256 131.95 204.714 Q133.779 201.149 133.779 194.043 Q133.779 186.913 131.95 183.372 Q130.145 179.807 126.51 179.807 M126.51 176.103 Q132.32 176.103 135.376 180.71 Q138.455 185.293 138.455 194.043 Q138.455 202.77 135.376 207.376 Q132.32 211.959 126.51 211.959 Q120.7 211.959 117.621 207.376 Q114.566 202.77 114.566 194.043 Q114.566 185.293 117.621 180.71 Q120.7 176.103 126.51 176.103 Z" fill="#000000" fill-rule="evenodd" fill-opacity="1" /><polyline clip-path="url(#clip902)" style="stroke:#009af9; stroke-width:4; stroke-opacity:1; fill:none" points="
  224.444,949.918 257.243,938.107 290.042,926.296 322.841,914.485 355.639,902.674 388.438,890.862 421.237,879.051 454.036,867.24 486.834,855.429 519.633,843.618 
  552.432,831.807 585.231,819.996 618.029,808.185 650.828,796.374 683.627,784.563 716.426,772.752 749.225,760.94 782.023,749.129 814.822,737.318 847.621,725.507 
  880.42,713.696 913.218,701.885 946.017,690.074 978.816,678.263 1011.61,666.452 1044.41,654.641 1077.21,642.83 1110.01,631.018 1142.81,619.207 1175.61,607.396 
  1208.41,595.585 1241.21,583.774 1274,571.963 1306.8,560.152 1339.6,548.341 1372.4,536.53 1405.2,524.719 1438,512.908 1470.8,501.096 1503.6,489.285 
  1536.39,477.474 1569.19,465.663 1601.99,453.852 1634.79,442.041 1667.59,430.23 1700.39,418.419 1733.19,406.608 1765.99,394.797 1798.78,382.986 1831.58,371.174 
  1864.38,359.363 1897.18,347.552 1929.98,335.741 1962.78,323.93 1995.58,312.119 2028.38,300.308 2061.17,288.497 2093.97,276.686 2126.77,264.875 2159.57,253.064 
  2192.37,241.252 2225.17,229.441 2257.97,217.63 2290.77,205.819 
  "/>
<circle clip-path="url(#clip902)" cx="224.444" cy="949.918" r="10" fill="#009af9" fill-rule="evenodd" fill-opacity="1" stroke="#000000" stroke-opacity="1" stroke-width="3.2"/>
<circle clip-path="url(#clip902)" cx="257.243" cy="938.107" r="10" fill="#009af9" fill-rule="evenodd" fill-opacity="1" stroke="#000000" stroke-opacity="1" stroke-width="3.2"/>
<circle clip-path="url(#clip902)" cx="290.042" cy="926.296" r="10" fill="#009af9" fill-rule="evenodd" fill-opacity="1" stroke="#000000" stroke-opacity="1" stroke-width="3.2"/>
<circle clip-path="url(#clip902)" cx="322.841" cy="914.485" r="10" fill="#009af9" fill-rule="evenodd" fill-opacity="1" stroke="#000000" stroke-opacity="1" stroke-width="3.2"/>
<circle clip-path="url(#clip902)" cx="355.639" cy="902.674" r="10" fill="#009af9" fill-rule="evenodd" fill-opacity="1" stroke="#000000" stroke-opacity="1" stroke-width="3.2"/>
<circle clip-path="url(#clip902)" cx="388.438" cy="890.862" r="10" fill="#009af9" fill-rule="evenodd" fill-opacity="1" stroke="#000000" stroke-opacity="1" stroke-width="3.2"/>
<circle clip-path="url(#clip902)" cx="421.237" cy="879.051" r="10" fill="#009af9" fill-rule="evenodd" fill-opacity="1" stroke="#000000" stroke-opacity="1" stroke-width="3.2"/>
<circle clip-path="url(#clip902)" cx="454.036" cy="867.24" r="10" fill="#009af9" fill-rule="evenodd" fill-opacity="1" stroke="#000000" stroke-opacity="1" stroke-width="3.2"/>
<circle clip-path="url(#clip902)" cx="486.834" cy="855.429" r="10" fill="#009af9" fill-rule="evenodd" fill-opacity="1" stroke="#000000" stroke-opacity="1" stroke-width="3.2"/>
<circle clip-path="url(#clip902)" cx="519.633" cy="843.618" r="10" fill="#009af9" fill-rule="evenodd" fill-opacity="1" stroke="#000000" stroke-opacity="1" stroke-width="3.2"/>
<circle clip-path="url(#clip902)" cx="552.432" cy="831.807" r="10" fill="#009af9" fill-rule="evenodd" fill-opacity="1" stroke="#000000" stroke-opacity="1" stroke-width="3.2"/>
<circle clip-path="url(#clip902)" cx="585.231" cy="819.996" r="10" fill="#009af9" fill-rule="evenodd" fill-opacity="1" stroke="#000000" stroke-opacity="1" stroke-width="3.2"/>
<circle clip-path="url(#clip902)" cx="618.029" cy="808.185" r="10" fill="#009af9" fill-rule="evenodd" fill-opacity="1" stroke="#000000" stroke-opacity="1" stroke-width="3.2"/>
<circle clip-path="url(#clip902)" cx="650.828" cy="796.374" r="10" fill="#009af9" fill-rule="evenodd" fill-opacity="1" stroke="#000000" stroke-opacity="1" stroke-width="3.2"/>
<circle clip-path="url(#clip902)" cx="683.627" cy="784.563" r="10" fill="#009af9" fill-rule="evenodd" fill-opacity="1" stroke="#000000" stroke-opacity="1" stroke-width="3.2"/>
<circle clip-path="url(#clip902)" cx="716.426" cy="772.752" r="10" fill="#009af9" fill-rule="evenodd" fill-opacity="1" stroke="#000000" stroke-opacity="1" stroke-width="3.2"/>
<circle clip-path="url(#clip902)" cx="749.225" cy="760.94" r="10" fill="#009af9" fill-rule="evenodd" fill-opacity="1" stroke="#000000" stroke-opacity="1" stroke-width="3.2"/>
<circle clip-path="url(#clip902)" cx="782.023" cy="749.129" r="10" fill="#009af9" fill-rule="evenodd" fill-opacity="1" stroke="#000000" stroke-opacity="1" stroke-width="3.2"/>
<circle clip-path="url(#clip902)" cx="814.822" cy="737.318" r="10" fill="#009af9" fill-rule="evenodd" fill-opacity="1" stroke="#000000" stroke-opacity="1" stroke-width="3.2"/>
<circle clip-path="url(#clip902)" cx="847.621" cy="725.507" r="10" fill="#009af9" fill-rule="evenodd" fill-opacity="1" stroke="#000000" stroke-opacity="1" stroke-width="3.2"/>
<circle clip-path="url(#clip902)" cx="880.42" cy="713.696" r="10" fill="#009af9" fill-rule="evenodd" fill-opacity="1" stroke="#000000" stroke-opacity="1" stroke-width="3.2"/>
<circle clip-path="url(#clip902)" cx="913.218" cy="701.885" r="10" fill="#009af9" fill-rule="evenodd" fill-opacity="1" stroke="#000000" stroke-opacity="1" stroke-width="3.2"/>
<circle clip-path="url(#clip902)" cx="946.017" cy="690.074" r="10" fill="#009af9" fill-rule="evenodd" fill-opacity="1" stroke="#000000" stroke-opacity="1" stroke-width="3.2"/>
<circle clip-path="url(#clip902)" cx="978.816" cy="678.263" r="10" fill="#009af9" fill-rule="evenodd" fill-opacity="1" stroke="#000000" stroke-opacity="1" stroke-width="3.2"/>
<circle clip-path="url(#clip902)" cx="1011.61" cy="666.452" r="10" fill="#009af9" fill-rule="evenodd" fill-opacity="1" stroke="#000000" stroke-opacity="1" stroke-width="3.2"/>
<circle clip-path="url(#clip902)" cx="1044.41" cy="654.641" r="10" fill="#009af9" fill-rule="evenodd" fill-opacity="1" stroke="#000000" stroke-opacity="1" stroke-width="3.2"/>
<circle clip-path="url(#clip902)" cx="1077.21" cy="642.83" r="10" fill="#009af9" fill-rule="evenodd" fill-opacity="1" stroke="#000000" stroke-opacity="1" stroke-width="3.2"/>
<circle clip-path="url(#clip902)" cx="1110.01" cy="631.018" r="10" fill="#009af9" fill-rule="evenodd" fill-opacity="1" stroke="#000000" stroke-opacity="1" stroke-width="3.2"/>
<circle clip-path="url(#clip902)" cx="1142.81" cy="619.207" r="10" fill="#009af9" fill-rule="evenodd" fill-opacity="1" stroke="#000000" stroke-opacity="1" stroke-width="3.2"/>
<circle clip-path="url(#clip902)" cx="1175.61" cy="607.396" r="10" fill="#009af9" fill-rule="evenodd" fill-opacity="1" stroke="#000000" stroke-opacity="1" stroke-width="3.2"/>
<circle clip-path="url(#clip902)" cx="1208.41" cy="595.585" r="10" fill="#009af9" fill-rule="evenodd" fill-opacity="1" stroke="#000000" stroke-opacity="1" stroke-width="3.2"/>
<circle clip-path="url(#clip902)" cx="1241.21" cy="583.774" r="10" fill="#009af9" fill-rule="evenodd" fill-opacity="1" stroke="#000000" stroke-opacity="1" stroke-width="3.2"/>
<circle clip-path="url(#clip902)" cx="1274" cy="571.963" r="10" fill="#009af9" fill-rule="evenodd" fill-opacity="1" stroke="#000000" stroke-opacity="1" stroke-width="3.2"/>
<circle clip-path="url(#clip902)" cx="1306.8" cy="560.152" r="10" fill="#009af9" fill-rule="evenodd" fill-opacity="1" stroke="#000000" stroke-opacity="1" stroke-width="3.2"/>
<circle clip-path="url(#clip902)" cx="1339.6" cy="548.341" r="10" fill="#009af9" fill-rule="evenodd" fill-opacity="1" stroke="#000000" stroke-opacity="1" stroke-width="3.2"/>
<circle clip-path="url(#clip902)" cx="1372.4" cy="536.53" r="10" fill="#009af9" fill-rule="evenodd" fill-opacity="1" stroke="#000000" stroke-opacity="1" stroke-width="3.2"/>
<circle clip-path="url(#clip902)" cx="1405.2" cy="524.719" r="10" fill="#009af9" fill-rule="evenodd" fill-opacity="1" stroke="#000000" stroke-opacity="1" stroke-width="3.2"/>
<circle clip-path="url(#clip902)" cx="1438" cy="512.908" r="10" fill="#009af9" fill-rule="evenodd" fill-opacity="1" stroke="#000000" stroke-opacity="1" stroke-width="3.2"/>
<circle clip-path="url(#clip902)" cx="1470.8" cy="501.096" r="10" fill="#009af9" fill-rule="evenodd" fill-opacity="1" stroke="#000000" stroke-opacity="1" stroke-width="3.2"/>
<circle clip-path="url(#clip902)" cx="1503.6" cy="489.285" r="10" fill="#009af9" fill-rule="evenodd" fill-opacity="1" stroke="#000000" stroke-opacity="1" stroke-width="3.2"/>
<circle clip-path="url(#clip902)" cx="1536.39" cy="477.474" r="10" fill="#009af9" fill-rule="evenodd" fill-opacity="1" stroke="#000000" stroke-opacity="1" stroke-width="3.2"/>
<circle clip-path="url(#clip902)" cx="1569.19" cy="465.663" r="10" fill="#009af9" fill-rule="evenodd" fill-opacity="1" stroke="#000000" stroke-opacity="1" stroke-width="3.2"/>
<circle clip-path="url(#clip902)" cx="1601.99" cy="453.852" r="10" fill="#009af9" fill-rule="evenodd" fill-opacity="1" stroke="#000000" stroke-opacity="1" stroke-width="3.2"/>
<circle clip-path="url(#clip902)" cx="1634.79" cy="442.041" r="10" fill="#009af9" fill-rule="evenodd" fill-opacity="1" stroke="#000000" stroke-opacity="1" stroke-width="3.2"/>
<circle clip-path="url(#clip902)" cx="1667.59" cy="430.23" r="10" fill="#009af9" fill-rule="evenodd" fill-opacity="1" stroke="#000000" stroke-opacity="1" stroke-width="3.2"/>
<circle clip-path="url(#clip902)" cx="1700.39" cy="418.419" r="10" fill="#009af9" fill-rule="evenodd" fill-opacity="1" stroke="#000000" stroke-opacity="1" stroke-width="3.2"/>
<circle clip-path="url(#clip902)" cx="1733.19" cy="406.608" r="10" fill="#009af9" fill-rule="evenodd" fill-opacity="1" stroke="#000000" stroke-opacity="1" stroke-width="3.2"/>
<circle clip-path="url(#clip902)" cx="1765.99" cy="394.797" r="10" fill="#009af9" fill-rule="evenodd" fill-opacity="1" stroke="#000000" stroke-opacity="1" stroke-width="3.2"/>
<circle clip-path="url(#clip902)" cx="1798.78" cy="382.986" r="10" fill="#009af9" fill-rule="evenodd" fill-opacity="1" stroke="#000000" stroke-opacity="1" stroke-width="3.2"/>
<circle clip-path="url(#clip902)" cx="1831.58" cy="371.174" r="10" fill="#009af9" fill-rule="evenodd" fill-opacity="1" stroke="#000000" stroke-opacity="1" stroke-width="3.2"/>
<circle clip-path="url(#clip902)" cx="1864.38" cy="359.363" r="10" fill="#009af9" fill-rule="evenodd" fill-opacity="1" stroke="#000000" stroke-opacity="1" stroke-width="3.2"/>
<circle clip-path="url(#clip902)" cx="1897.18" cy="347.552" r="10" fill="#009af9" fill-rule="evenodd" fill-opacity="1" stroke="#000000" stroke-opacity="1" stroke-width="3.2"/>
<circle clip-path="url(#clip902)" cx="1929.98" cy="335.741" r="10" fill="#009af9" fill-rule="evenodd" fill-opacity="1" stroke="#000000" stroke-opacity="1" stroke-width="3.2"/>
<circle clip-path="url(#clip902)" cx="1962.78" cy="323.93" r="10" fill="#009af9" fill-rule="evenodd" fill-opacity="1" stroke="#000000" stroke-opacity="1" stroke-width="3.2"/>
<circle clip-path="url(#clip902)" cx="1995.58" cy="312.119" r="10" fill="#009af9" fill-rule="evenodd" fill-opacity="1" stroke="#000000" stroke-opacity="1" stroke-width="3.2"/>
<circle clip-path="url(#clip902)" cx="2028.38" cy="300.308" r="10" fill="#009af9" fill-rule="evenodd" fill-opacity="1" stroke="#000000" stroke-opacity="1" stroke-width="3.2"/>
<circle clip-path="url(#clip902)" cx="2061.17" cy="288.497" r="10" fill="#009af9" fill-rule="evenodd" fill-opacity="1" stroke="#000000" stroke-opacity="1" stroke-width="3.2"/>
<circle clip-path="url(#clip902)" cx="2093.97" cy="276.686" r="10" fill="#009af9" fill-rule="evenodd" fill-opacity="1" stroke="#000000" stroke-opacity="1" stroke-width="3.2"/>
<circle clip-path="url(#clip902)" cx="2126.77" cy="264.875" r="10" fill="#009af9" fill-rule="evenodd" fill-opacity="1" stroke="#000000" stroke-opacity="1" stroke-width="3.2"/>
<circle clip-path="url(#clip902)" cx="2159.57" cy="253.064" r="10" fill="#009af9" fill-rule="evenodd" fill-opacity="1" stroke="#000000" stroke-opacity="1" stroke-width="3.2"/>
<circle clip-path="url(#clip902)" cx="2192.37" cy="241.252" r="10" fill="#009af9" fill-rule="evenodd" fill-opacity="1" stroke="#000000" stroke-opacity="1" stroke-width="3.2"/>
<circle clip-path="url(#clip902)" cx="2225.17" cy="229.441" r="10" fill="#009af9" fill-rule="evenodd" fill-opacity="1" stroke="#000000" stroke-opacity="1" stroke-width="3.2"/>
<circle clip-path="url(#clip902)" cx="2257.97" cy="217.63" r="10" fill="#009af9" fill-rule="evenodd" fill-opacity="1" stroke="#000000" stroke-opacity="1" stroke-width="3.2"/>
<circle clip-path="url(#clip902)" cx="2290.77" cy="205.819" r="10" fill="#009af9" fill-rule="evenodd" fill-opacity="1" stroke="#000000" stroke-opacity="1" stroke-width="3.2"/>
<polyline clip-path="url(#clip902)" style="stroke:#e26f46; stroke-width:4; stroke-opacity:1; fill:none" points="
  224.444,1445.72 257.243,1433.9 290.042,442.309 322.841,1422.09 355.639,430.498 388.438,1410.28 421.237,418.687 454.036,1398.47 486.834,406.876 519.633,1386.66 
  552.432,395.065 585.231,1374.85 618.029,383.254 650.828,1363.04 683.627,371.442 716.426,1351.23 749.225,359.631 782.023,1339.42 814.822,347.82 847.621,1327.6 
  880.42,336.009 913.218,1315.79 946.017,324.198 978.816,1303.98 1011.61,312.387 1044.41,1292.17 1077.21,300.576 1110.01,1280.36 1142.81,288.765 1175.61,1268.55 
  1208.41,276.954 1241.21,1256.74 1274,265.143 1306.8,1244.93 1339.6,253.332 1372.4,1233.12 1405.2,241.52 1438,1221.3 1470.8,229.709 1503.6,1209.49 
  1536.39,217.898 1569.19,1197.68 1601.99,206.087 1634.79,1185.87 1667.59,194.276 1700.39,1174.06 1733.19,182.465 1765.99,1162.25 1798.78,170.654 1831.58,1150.44 
  1864.38,158.843 1897.18,1138.63 1929.98,147.032 1962.78,1126.82 1995.58,135.221 2028.38,1115.01 2061.17,123.41 2093.97,1103.19 2126.77,111.598 2159.57,1091.38 
  2192.37,99.7874 2225.17,1079.57 2257.97,87.9763 2290.77,1067.76 
  "/>
<circle clip-path="url(#clip902)" cx="224.444" cy="1445.72" r="10" fill="#e26f46" fill-rule="evenodd" fill-opacity="1" stroke="#000000" stroke-opacity="1" stroke-width="3.2"/>
<circle clip-path="url(#clip902)" cx="257.243" cy="1433.9" r="10" fill="#e26f46" fill-rule="evenodd" fill-opacity="1" stroke="#000000" stroke-opacity="1" stroke-width="3.2"/>
<circle clip-path="url(#clip902)" cx="290.042" cy="442.309" r="10" fill="#e26f46" fill-rule="evenodd" fill-opacity="1" stroke="#000000" stroke-opacity="1" stroke-width="3.2"/>
<circle clip-path="url(#clip902)" cx="322.841" cy="1422.09" r="10" fill="#e26f46" fill-rule="evenodd" fill-opacity="1" stroke="#000000" stroke-opacity="1" stroke-width="3.2"/>
<circle clip-path="url(#clip902)" cx="355.639" cy="430.498" r="10" fill="#e26f46" fill-rule="evenodd" fill-opacity="1" stroke="#000000" stroke-opacity="1" stroke-width="3.2"/>
<circle clip-path="url(#clip902)" cx="388.438" cy="1410.28" r="10" fill="#e26f46" fill-rule="evenodd" fill-opacity="1" stroke="#000000" stroke-opacity="1" stroke-width="3.2"/>
<circle clip-path="url(#clip902)" cx="421.237" cy="418.687" r="10" fill="#e26f46" fill-rule="evenodd" fill-opacity="1" stroke="#000000" stroke-opacity="1" stroke-width="3.2"/>
<circle clip-path="url(#clip902)" cx="454.036" cy="1398.47" r="10" fill="#e26f46" fill-rule="evenodd" fill-opacity="1" stroke="#000000" stroke-opacity="1" stroke-width="3.2"/>
<circle clip-path="url(#clip902)" cx="486.834" cy="406.876" r="10" fill="#e26f46" fill-rule="evenodd" fill-opacity="1" stroke="#000000" stroke-opacity="1" stroke-width="3.2"/>
<circle clip-path="url(#clip902)" cx="519.633" cy="1386.66" r="10" fill="#e26f46" fill-rule="evenodd" fill-opacity="1" stroke="#000000" stroke-opacity="1" stroke-width="3.2"/>
<circle clip-path="url(#clip902)" cx="552.432" cy="395.065" r="10" fill="#e26f46" fill-rule="evenodd" fill-opacity="1" stroke="#000000" stroke-opacity="1" stroke-width="3.2"/>
<circle clip-path="url(#clip902)" cx="585.231" cy="1374.85" r="10" fill="#e26f46" fill-rule="evenodd" fill-opacity="1" stroke="#000000" stroke-opacity="1" stroke-width="3.2"/>
<circle clip-path="url(#clip902)" cx="618.029" cy="383.254" r="10" fill="#e26f46" fill-rule="evenodd" fill-opacity="1" stroke="#000000" stroke-opacity="1" stroke-width="3.2"/>
<circle clip-path="url(#clip902)" cx="650.828" cy="1363.04" r="10" fill="#e26f46" fill-rule="evenodd" fill-opacity="1" stroke="#000000" stroke-opacity="1" stroke-width="3.2"/>
<circle clip-path="url(#clip902)" cx="683.627" cy="371.442" r="10" fill="#e26f46" fill-rule="evenodd" fill-opacity="1" stroke="#000000" stroke-opacity="1" stroke-width="3.2"/>
<circle clip-path="url(#clip902)" cx="716.426" cy="1351.23" r="10" fill="#e26f46" fill-rule="evenodd" fill-opacity="1" stroke="#000000" stroke-opacity="1" stroke-width="3.2"/>
<circle clip-path="url(#clip902)" cx="749.225" cy="359.631" r="10" fill="#e26f46" fill-rule="evenodd" fill-opacity="1" stroke="#000000" stroke-opacity="1" stroke-width="3.2"/>
<circle clip-path="url(#clip902)" cx="782.023" cy="1339.42" r="10" fill="#e26f46" fill-rule="evenodd" fill-opacity="1" stroke="#000000" stroke-opacity="1" stroke-width="3.2"/>
<circle clip-path="url(#clip902)" cx="814.822" cy="347.82" r="10" fill="#e26f46" fill-rule="evenodd" fill-opacity="1" stroke="#000000" stroke-opacity="1" stroke-width="3.2"/>
<circle clip-path="url(#clip902)" cx="847.621" cy="1327.6" r="10" fill="#e26f46" fill-rule="evenodd" fill-opacity="1" stroke="#000000" stroke-opacity="1" stroke-width="3.2"/>
<circle clip-path="url(#clip902)" cx="880.42" cy="336.009" r="10" fill="#e26f46" fill-rule="evenodd" fill-opacity="1" stroke="#000000" stroke-opacity="1" stroke-width="3.2"/>
<circle clip-path="url(#clip902)" cx="913.218" cy="1315.79" r="10" fill="#e26f46" fill-rule="evenodd" fill-opacity="1" stroke="#000000" stroke-opacity="1" stroke-width="3.2"/>
<circle clip-path="url(#clip902)" cx="946.017" cy="324.198" r="10" fill="#e26f46" fill-rule="evenodd" fill-opacity="1" stroke="#000000" stroke-opacity="1" stroke-width="3.2"/>
<circle clip-path="url(#clip902)" cx="978.816" cy="1303.98" r="10" fill="#e26f46" fill-rule="evenodd" fill-opacity="1" stroke="#000000" stroke-opacity="1" stroke-width="3.2"/>
<circle clip-path="url(#clip902)" cx="1011.61" cy="312.387" r="10" fill="#e26f46" fill-rule="evenodd" fill-opacity="1" stroke="#000000" stroke-opacity="1" stroke-width="3.2"/>
<circle clip-path="url(#clip902)" cx="1044.41" cy="1292.17" r="10" fill="#e26f46" fill-rule="evenodd" fill-opacity="1" stroke="#000000" stroke-opacity="1" stroke-width="3.2"/>
<circle clip-path="url(#clip902)" cx="1077.21" cy="300.576" r="10" fill="#e26f46" fill-rule="evenodd" fill-opacity="1" stroke="#000000" stroke-opacity="1" stroke-width="3.2"/>
<circle clip-path="url(#clip902)" cx="1110.01" cy="1280.36" r="10" fill="#e26f46" fill-rule="evenodd" fill-opacity="1" stroke="#000000" stroke-opacity="1" stroke-width="3.2"/>
<circle clip-path="url(#clip902)" cx="1142.81" cy="288.765" r="10" fill="#e26f46" fill-rule="evenodd" fill-opacity="1" stroke="#000000" stroke-opacity="1" stroke-width="3.2"/>
<circle clip-path="url(#clip902)" cx="1175.61" cy="1268.55" r="10" fill="#e26f46" fill-rule="evenodd" fill-opacity="1" stroke="#000000" stroke-opacity="1" stroke-width="3.2"/>
<circle clip-path="url(#clip902)" cx="1208.41" cy="276.954" r="10" fill="#e26f46" fill-rule="evenodd" fill-opacity="1" stroke="#000000" stroke-opacity="1" stroke-width="3.2"/>
<circle clip-path="url(#clip902)" cx="1241.21" cy="1256.74" r="10" fill="#e26f46" fill-rule="evenodd" fill-opacity="1" stroke="#000000" stroke-opacity="1" stroke-width="3.2"/>
<circle clip-path="url(#clip902)" cx="1274" cy="265.143" r="10" fill="#e26f46" fill-rule="evenodd" fill-opacity="1" stroke="#000000" stroke-opacity="1" stroke-width="3.2"/>
<circle clip-path="url(#clip902)" cx="1306.8" cy="1244.93" r="10" fill="#e26f46" fill-rule="evenodd" fill-opacity="1" stroke="#000000" stroke-opacity="1" stroke-width="3.2"/>
<circle clip-path="url(#clip902)" cx="1339.6" cy="253.332" r="10" fill="#e26f46" fill-rule="evenodd" fill-opacity="1" stroke="#000000" stroke-opacity="1" stroke-width="3.2"/>
<circle clip-path="url(#clip902)" cx="1372.4" cy="1233.12" r="10" fill="#e26f46" fill-rule="evenodd" fill-opacity="1" stroke="#000000" stroke-opacity="1" stroke-width="3.2"/>
<circle clip-path="url(#clip902)" cx="1405.2" cy="241.52" r="10" fill="#e26f46" fill-rule="evenodd" fill-opacity="1" stroke="#000000" stroke-opacity="1" stroke-width="3.2"/>
<circle clip-path="url(#clip902)" cx="1438" cy="1221.3" r="10" fill="#e26f46" fill-rule="evenodd" fill-opacity="1" stroke="#000000" stroke-opacity="1" stroke-width="3.2"/>
<circle clip-path="url(#clip902)" cx="1470.8" cy="229.709" r="10" fill="#e26f46" fill-rule="evenodd" fill-opacity="1" stroke="#000000" stroke-opacity="1" stroke-width="3.2"/>
<circle clip-path="url(#clip902)" cx="1503.6" cy="1209.49" r="10" fill="#e26f46" fill-rule="evenodd" fill-opacity="1" stroke="#000000" stroke-opacity="1" stroke-width="3.2"/>
<circle clip-path="url(#clip902)" cx="1536.39" cy="217.898" r="10" fill="#e26f46" fill-rule="evenodd" fill-opacity="1" stroke="#000000" stroke-opacity="1" stroke-width="3.2"/>
<circle clip-path="url(#clip902)" cx="1569.19" cy="1197.68" r="10" fill="#e26f46" fill-rule="evenodd" fill-opacity="1" stroke="#000000" stroke-opacity="1" stroke-width="3.2"/>
<circle clip-path="url(#clip902)" cx="1601.99" cy="206.087" r="10" fill="#e26f46" fill-rule="evenodd" fill-opacity="1" stroke="#000000" stroke-opacity="1" stroke-width="3.2"/>
<circle clip-path="url(#clip902)" cx="1634.79" cy="1185.87" r="10" fill="#e26f46" fill-rule="evenodd" fill-opacity="1" stroke="#000000" stroke-opacity="1" stroke-width="3.2"/>
<circle clip-path="url(#clip902)" cx="1667.59" cy="194.276" r="10" fill="#e26f46" fill-rule="evenodd" fill-opacity="1" stroke="#000000" stroke-opacity="1" stroke-width="3.2"/>
<circle clip-path="url(#clip902)" cx="1700.39" cy="1174.06" r="10" fill="#e26f46" fill-rule="evenodd" fill-opacity="1" stroke="#000000" stroke-opacity="1" stroke-width="3.2"/>
<circle clip-path="url(#clip902)" cx="1733.19" cy="182.465" r="10" fill="#e26f46" fill-rule="evenodd" fill-opacity="1" stroke="#000000" stroke-opacity="1" stroke-width="3.2"/>
<circle clip-path="url(#clip902)" cx="1765.99" cy="1162.25" r="10" fill="#e26f46" fill-rule="evenodd" fill-opacity="1" stroke="#000000" stroke-opacity="1" stroke-width="3.2"/>
<circle clip-path="url(#clip902)" cx="1798.78" cy="170.654" r="10" fill="#e26f46" fill-rule="evenodd" fill-opacity="1" stroke="#000000" stroke-opacity="1" stroke-width="3.2"/>
<circle clip-path="url(#clip902)" cx="1831.58" cy="1150.44" r="10" fill="#e26f46" fill-rule="evenodd" fill-opacity="1" stroke="#000000" stroke-opacity="1" stroke-width="3.2"/>
<circle clip-path="url(#clip902)" cx="1864.38" cy="158.843" r="10" fill="#e26f46" fill-rule="evenodd" fill-opacity="1" stroke="#000000" stroke-opacity="1" stroke-width="3.2"/>
<circle clip-path="url(#clip902)" cx="1897.18" cy="1138.63" r="10" fill="#e26f46" fill-rule="evenodd" fill-opacity="1" stroke="#000000" stroke-opacity="1" stroke-width="3.2"/>
<circle clip-path="url(#clip902)" cx="1929.98" cy="147.032" r="10" fill="#e26f46" fill-rule="evenodd" fill-opacity="1" stroke="#000000" stroke-opacity="1" stroke-width="3.2"/>
<circle clip-path="url(#clip902)" cx="1962.78" cy="1126.82" r="10" fill="#e26f46" fill-rule="evenodd" fill-opacity="1" stroke="#000000" stroke-opacity="1" stroke-width="3.2"/>
<circle clip-path="url(#clip902)" cx="1995.58" cy="135.221" r="10" fill="#e26f46" fill-rule="evenodd" fill-opacity="1" stroke="#000000" stroke-opacity="1" stroke-width="3.2"/>
<circle clip-path="url(#clip902)" cx="2028.38" cy="1115.01" r="10" fill="#e26f46" fill-rule="evenodd" fill-opacity="1" stroke="#000000" stroke-opacity="1" stroke-width="3.2"/>
<circle clip-path="url(#clip902)" cx="2061.17" cy="123.41" r="10" fill="#e26f46" fill-rule="evenodd" fill-opacity="1" stroke="#000000" stroke-opacity="1" stroke-width="3.2"/>
<circle clip-path="url(#clip902)" cx="2093.97" cy="1103.19" r="10" fill="#e26f46" fill-rule="evenodd" fill-opacity="1" stroke="#000000" stroke-opacity="1" stroke-width="3.2"/>
<circle clip-path="url(#clip902)" cx="2126.77" cy="111.598" r="10" fill="#e26f46" fill-rule="evenodd" fill-opacity="1" stroke="#000000" stroke-opacity="1" stroke-width="3.2"/>
<circle clip-path="url(#clip902)" cx="2159.57" cy="1091.38" r="10" fill="#e26f46" fill-rule="evenodd" fill-opacity="1" stroke="#000000" stroke-opacity="1" stroke-width="3.2"/>
<circle clip-path="url(#clip902)" cx="2192.37" cy="99.7874" r="10" fill="#e26f46" fill-rule="evenodd" fill-opacity="1" stroke="#000000" stroke-opacity="1" stroke-width="3.2"/>
<circle clip-path="url(#clip902)" cx="2225.17" cy="1079.57" r="10" fill="#e26f46" fill-rule="evenodd" fill-opacity="1" stroke="#000000" stroke-opacity="1" stroke-width="3.2"/>
<circle clip-path="url(#clip902)" cx="2257.97" cy="87.9763" r="10" fill="#e26f46" fill-rule="evenodd" fill-opacity="1" stroke="#000000" stroke-opacity="1" stroke-width="3.2"/>
<circle clip-path="url(#clip902)" cx="2290.77" cy="1067.76" r="10" fill="#e26f46" fill-rule="evenodd" fill-opacity="1" stroke="#000000" stroke-opacity="1" stroke-width="3.2"/>
<path clip-path="url(#clip900)" d="
M1968.95 312.204 L2280.76 312.204 L2280.76 130.764 L1968.95 130.764  Z
  " fill="#ffffff" fill-rule="evenodd" fill-opacity="1"/>
<polyline clip-path="url(#clip900)" style="stroke:#000000; stroke-width:4; stroke-opacity:1; fill:none" points="
  1968.95,312.204 2280.76,312.204 2280.76,130.764 1968.95,130.764 1968.95,312.204 
  "/>
<polyline clip-path="url(#clip900)" style="stroke:#009af9; stroke-width:4; stroke-opacity:1; fill:none" points="
  1992.95,191.244 2136.95,191.244 
  "/>
<circle clip-path="url(#clip900)" cx="2076.95" cy="191.244" r="23" fill="#009af9" fill-rule="evenodd" fill-opacity="1" stroke="#000000" stroke-opacity="1" stroke-width="6.82667"/>
<path clip-path="url(#clip900)" d="M 0 0 M2176.14 186.58 Q2175.42 186.163 2174.56 185.978 Q2173.73 185.77 2172.71 185.77 Q2169.1 185.77 2167.15 188.131 Q2165.23 190.469 2165.23 194.867 L2165.23 208.524 L2160.95 208.524 L2160.95 182.598 L2165.23 182.598 L2165.23 186.626 Q2166.58 184.265 2168.73 183.131 Q2170.88 181.973 2173.96 181.973 Q2174.4 181.973 2174.93 182.043 Q2175.46 182.089 2176.11 182.205 L2176.14 186.58 Z" fill="#000000" fill-rule="evenodd" fill-opacity="1" /><path clip-path="url(#clip900)" d="M 0 0 M2190.83 172.552 Q2187.73 177.876 2186.23 183.084 Q2184.72 188.293 2184.72 193.64 Q2184.72 198.987 2186.23 204.242 Q2187.76 209.473 2190.83 214.774 L2187.13 214.774 Q2183.66 209.334 2181.92 204.08 Q2180.21 198.825 2180.21 193.64 Q2180.21 188.478 2181.92 183.246 Q2183.64 178.015 2187.13 172.552 L2190.83 172.552 Z" fill="#000000" fill-rule="evenodd" fill-opacity="1" /><path clip-path="url(#clip900)" d="M 0 0 M2199.52 175.237 L2199.52 182.598 L2208.29 182.598 L2208.29 185.908 L2199.52 185.908 L2199.52 199.982 Q2199.52 203.154 2200.37 204.057 Q2201.25 204.959 2203.91 204.959 L2208.29 204.959 L2208.29 208.524 L2203.91 208.524 Q2198.98 208.524 2197.11 206.695 Q2195.23 204.844 2195.23 199.982 L2195.23 185.908 L2192.11 185.908 L2192.11 182.598 L2195.23 182.598 L2195.23 175.237 L2199.52 175.237 Z" fill="#000000" fill-rule="evenodd" fill-opacity="1" /><path clip-path="url(#clip900)" d="M 0 0 M2212.08 172.552 L2215.79 172.552 Q2219.26 178.015 2220.97 183.246 Q2222.71 188.478 2222.71 193.64 Q2222.71 198.825 2220.97 204.08 Q2219.26 209.334 2215.79 214.774 L2212.08 214.774 Q2215.16 209.473 2216.67 204.242 Q2218.2 198.987 2218.2 193.64 Q2218.2 188.293 2216.67 183.084 Q2215.16 177.876 2212.08 172.552 Z" fill="#000000" fill-rule="evenodd" fill-opacity="1" /><polyline clip-path="url(#clip900)" style="stroke:#e26f46; stroke-width:4; stroke-opacity:1; fill:none" points="
  1992.95,251.724 2136.95,251.724 
  "/>
<circle clip-path="url(#clip900)" cx="2076.95" cy="251.724" r="23" fill="#e26f46" fill-rule="evenodd" fill-opacity="1" stroke="#000000" stroke-opacity="1" stroke-width="6.82667"/>
<path clip-path="url(#clip900)" d="M 0 0 M2174.79 271.411 Q2172.99 276.041 2171.27 277.453 Q2169.56 278.865 2166.69 278.865 L2163.29 278.865 L2163.29 275.3 L2165.79 275.3 Q2167.55 275.3 2168.52 274.467 Q2169.49 273.634 2170.67 270.532 L2171.44 268.587 L2160.95 243.078 L2165.46 243.078 L2173.57 263.356 L2181.67 243.078 L2186.18 243.078 L2174.79 271.411 Z" fill="#000000" fill-rule="evenodd" fill-opacity="1" /><path clip-path="url(#clip900)" d="M 0 0 M2200.88 233.032 Q2197.78 238.356 2196.27 243.564 Q2194.77 248.773 2194.77 254.12 Q2194.77 259.467 2196.27 264.722 Q2197.8 269.953 2200.88 275.254 L2197.18 275.254 Q2193.71 269.814 2191.97 264.56 Q2190.26 259.305 2190.26 254.12 Q2190.26 248.958 2191.97 243.726 Q2193.68 238.495 2197.18 233.032 L2200.88 233.032 Z" fill="#000000" fill-rule="evenodd" fill-opacity="1" /><path clip-path="url(#clip900)" d="M 0 0 M2209.56 235.717 L2209.56 243.078 L2218.33 243.078 L2218.33 246.388 L2209.56 246.388 L2209.56 260.462 Q2209.56 263.634 2210.42 264.537 Q2211.3 265.439 2213.96 265.439 L2218.33 265.439 L2218.33 269.004 L2213.96 269.004 Q2209.03 269.004 2207.15 267.175 Q2205.28 265.324 2205.28 260.462 L2205.28 246.388 L2202.15 246.388 L2202.15 243.078 L2205.28 243.078 L2205.28 235.717 L2209.56 235.717 Z" fill="#000000" fill-rule="evenodd" fill-opacity="1" /><path clip-path="url(#clip900)" d="M 0 0 M2222.13 233.032 L2225.83 233.032 Q2229.31 238.495 2231.02 243.726 Q2232.76 248.958 2232.76 254.12 Q2232.76 259.305 2231.02 264.56 Q2229.31 269.814 2225.83 275.254 L2222.13 275.254 Q2225.21 269.953 2226.71 264.722 Q2228.24 259.467 2228.24 254.12 Q2228.24 248.773 2226.71 243.564 Q2225.21 238.356 2222.13 233.032 Z" fill="#000000" fill-rule="evenodd" fill-opacity="1" /></svg>
