<?xml version="1.0" encoding="utf-8"?>
<svg xmlns="http://www.w3.org/2000/svg" xmlns:xlink="http://www.w3.org/1999/xlink" width="600" height="400" viewBox="0 0 2400 1600">
<defs>
  <clipPath id="clip6600">
    <rect x="0" y="0" width="2400" height="1600"/>
  </clipPath>
</defs>
<path clip-path="url(#clip6600)" d="
M0 1600 L2400 1600 L2400 0 L0 0  Z
  " fill="#ffffff" fill-rule="evenodd" fill-opacity="1"/>
<defs>
  <clipPath id="clip6601">
    <rect x="480" y="0" width="1681" height="1600"/>
  </clipPath>
</defs>
<path clip-path="url(#clip6600)" d="
M86.9921 1521.01 L2352.76 1521.01 L2352.76 47.2441 L86.9921 47.2441  Z
  " fill="#ffffff" fill-rule="evenodd" fill-opacity="1"/>
<defs>
  <clipPath id="clip6602">
    <rect x="86" y="47" width="2267" height="1475"/>
  </clipPath>
</defs>
<polyline clip-path="url(#clip6602)" style="stroke:#000000; stroke-width:2; stroke-opacity:0.1; fill:none" points="
  151.118,1521.01 151.118,47.2441 
  "/>
<polyline clip-path="url(#clip6602)" style="stroke:#000000; stroke-width:2; stroke-opacity:0.1; fill:none" points="
  693.978,1521.01 693.978,47.2441 
  "/>
<polyline clip-path="url(#clip6602)" style="stroke:#000000; stroke-width:2; stroke-opacity:0.1; fill:none" points="
  1236.84,1521.01 1236.84,47.2441 
  "/>
<polyline clip-path="url(#clip6602)" style="stroke:#000000; stroke-width:2; stroke-opacity:0.1; fill:none" points="
  1779.7,1521.01 1779.7,47.2441 
  "/>
<polyline clip-path="url(#clip6602)" style="stroke:#000000; stroke-width:2; stroke-opacity:0.1; fill:none" points="
  2322.56,1521.01 2322.56,47.2441 
  "/>
<polyline clip-path="url(#clip6602)" style="stroke:#000000; stroke-width:2; stroke-opacity:0.1; fill:none" points="
  86.9921,1479.3 2352.76,1479.3 
  "/>
<polyline clip-path="url(#clip6602)" style="stroke:#000000; stroke-width:2; stroke-opacity:0.1; fill:none" points="
  86.9921,1126.19 2352.76,1126.19 
  "/>
<polyline clip-path="url(#clip6602)" style="stroke:#000000; stroke-width:2; stroke-opacity:0.1; fill:none" points="
  86.9921,773.092 2352.76,773.092 
  "/>
<polyline clip-path="url(#clip6602)" style="stroke:#000000; stroke-width:2; stroke-opacity:0.1; fill:none" points="
  86.9921,419.988 2352.76,419.988 
  "/>
<polyline clip-path="url(#clip6602)" style="stroke:#000000; stroke-width:2; stroke-opacity:0.1; fill:none" points="
  86.9921,66.8855 2352.76,66.8855 
  "/>
<polyline clip-path="url(#clip6600)" style="stroke:#000000; stroke-width:4; stroke-opacity:1; fill:none" points="
  86.9921,1521.01 2352.76,1521.01 
  "/>
<polyline clip-path="url(#clip6600)" style="stroke:#000000; stroke-width:4; stroke-opacity:1; fill:none" points="
  86.9921,1521.01 86.9921,47.2441 
  "/>
<polyline clip-path="url(#clip6600)" style="stroke:#000000; stroke-width:4; stroke-opacity:1; fill:none" points="
  151.118,1521.01 151.118,1503.32 
  "/>
<polyline clip-path="url(#clip6600)" style="stroke:#000000; stroke-width:4; stroke-opacity:1; fill:none" points="
  693.978,1521.01 693.978,1503.32 
  "/>
<polyline clip-path="url(#clip6600)" style="stroke:#000000; stroke-width:4; stroke-opacity:1; fill:none" points="
  1236.84,1521.01 1236.84,1503.32 
  "/>
<polyline clip-path="url(#clip6600)" style="stroke:#000000; stroke-width:4; stroke-opacity:1; fill:none" points="
  1779.7,1521.01 1779.7,1503.32 
  "/>
<polyline clip-path="url(#clip6600)" style="stroke:#000000; stroke-width:4; stroke-opacity:1; fill:none" points="
  2322.56,1521.01 2322.56,1503.32 
  "/>
<polyline clip-path="url(#clip6600)" style="stroke:#000000; stroke-width:4; stroke-opacity:1; fill:none" points="
  86.9921,1479.3 114.181,1479.3 
  "/>
<polyline clip-path="url(#clip6600)" style="stroke:#000000; stroke-width:4; stroke-opacity:1; fill:none" points="
  86.9921,1126.19 114.181,1126.19 
  "/>
<polyline clip-path="url(#clip6600)" style="stroke:#000000; stroke-width:4; stroke-opacity:1; fill:none" points="
  86.9921,773.092 114.181,773.092 
  "/>
<polyline clip-path="url(#clip6600)" style="stroke:#000000; stroke-width:4; stroke-opacity:1; fill:none" points="
  86.9921,419.988 114.181,419.988 
  "/>
<polyline clip-path="url(#clip6600)" style="stroke:#000000; stroke-width:4; stroke-opacity:1; fill:none" points="
  86.9921,66.8855 114.181,66.8855 
  "/>
<path clip-path="url(#clip6600)" d="M 0 0 M119.127 1543 Q115.516 1543 113.687 1546.56 Q111.882 1550.11 111.882 1557.23 Q111.882 1564.34 113.687 1567.91 Q115.516 1571.45 119.127 1571.45 Q122.761 1571.45 124.567 1567.91 Q126.395 1564.34 126.395 1557.23 Q126.395 1550.11 124.567 1546.56 Q122.761 1543 119.127 1543 M119.127 1539.29 Q124.937 1539.29 127.993 1543.9 Q131.071 1548.48 131.071 1557.23 Q131.071 1565.96 127.993 1570.57 Q124.937 1575.15 119.127 1575.15 Q113.317 1575.15 110.238 1570.57 Q107.183 1565.96 107.183 1557.23 Q107.183 1548.48 110.238 1543.9 Q113.317 1539.29 119.127 1539.29 Z" fill="#000000" fill-rule="evenodd" fill-opacity="1" /><path clip-path="url(#clip6600)" d="M 0 0 M136.141 1568.6 L141.025 1568.6 L141.025 1574.48 L136.141 1574.48 L136.141 1568.6 Z" fill="#000000" fill-rule="evenodd" fill-opacity="1" /><path clip-path="url(#clip6600)" d="M 0 0 M156.094 1543 Q152.483 1543 150.655 1546.56 Q148.849 1550.11 148.849 1557.23 Q148.849 1564.34 150.655 1567.91 Q152.483 1571.45 156.094 1571.45 Q159.729 1571.45 161.534 1567.91 Q163.363 1564.34 163.363 1557.23 Q163.363 1550.11 161.534 1546.56 Q159.729 1543 156.094 1543 M156.094 1539.29 Q161.904 1539.29 164.96 1543.9 Q168.039 1548.48 168.039 1557.23 Q168.039 1565.96 164.96 1570.57 Q161.904 1575.15 156.094 1575.15 Q150.284 1575.15 147.205 1570.57 Q144.15 1565.96 144.15 1557.23 Q144.15 1548.48 147.205 1543.9 Q150.284 1539.29 156.094 1539.29 Z" fill="#000000" fill-rule="evenodd" fill-opacity="1" /><path clip-path="url(#clip6600)" d="M 0 0 M183.108 1543 Q179.497 1543 177.668 1546.56 Q175.863 1550.11 175.863 1557.23 Q175.863 1564.34 177.668 1567.91 Q179.497 1571.45 183.108 1571.45 Q186.742 1571.45 188.548 1567.91 Q190.377 1564.34 190.377 1557.23 Q190.377 1550.11 188.548 1546.56 Q186.742 1543 183.108 1543 M183.108 1539.29 Q188.918 1539.29 191.974 1543.9 Q195.052 1548.48 195.052 1557.23 Q195.052 1565.96 191.974 1570.57 Q188.918 1575.15 183.108 1575.15 Q177.298 1575.15 174.219 1570.57 Q171.164 1565.96 171.164 1557.23 Q171.164 1548.48 174.219 1543.9 Q177.298 1539.29 183.108 1539.29 Z" fill="#000000" fill-rule="evenodd" fill-opacity="1" /><path clip-path="url(#clip6600)" d="M 0 0 M663.284 1543 Q659.673 1543 657.844 1546.56 Q656.038 1550.11 656.038 1557.23 Q656.038 1564.34 657.844 1567.91 Q659.673 1571.45 663.284 1571.45 Q666.918 1571.45 668.723 1567.91 Q670.552 1564.34 670.552 1557.23 Q670.552 1550.11 668.723 1546.56 Q666.918 1543 663.284 1543 M663.284 1539.29 Q669.094 1539.29 672.149 1543.9 Q675.228 1548.48 675.228 1557.23 Q675.228 1565.96 672.149 1570.57 Q669.094 1575.15 663.284 1575.15 Q657.474 1575.15 654.395 1570.57 Q651.339 1565.96 651.339 1557.23 Q651.339 1548.48 654.395 1543.9 Q657.474 1539.29 663.284 1539.29 Z" fill="#000000" fill-rule="evenodd" fill-opacity="1" /><path clip-path="url(#clip6600)" d="M 0 0 M680.297 1568.6 L685.182 1568.6 L685.182 1574.48 L680.297 1574.48 L680.297 1568.6 Z" fill="#000000" fill-rule="evenodd" fill-opacity="1" /><path clip-path="url(#clip6600)" d="M 0 0 M694.279 1570.54 L710.598 1570.54 L710.598 1574.48 L688.654 1574.48 L688.654 1570.54 Q691.316 1567.79 695.899 1563.16 Q700.506 1558.51 701.686 1557.17 Q703.932 1554.64 704.811 1552.91 Q705.714 1551.15 705.714 1549.46 Q705.714 1546.7 703.77 1544.97 Q701.848 1543.23 698.746 1543.23 Q696.547 1543.23 694.094 1543.99 Q691.663 1544.76 688.885 1546.31 L688.885 1541.59 Q691.709 1540.45 694.163 1539.87 Q696.617 1539.29 698.654 1539.29 Q704.024 1539.29 707.219 1541.98 Q710.413 1544.67 710.413 1549.16 Q710.413 1551.29 709.603 1553.21 Q708.816 1555.1 706.709 1557.7 Q706.131 1558.37 703.029 1561.59 Q699.927 1564.78 694.279 1570.54 Z" fill="#000000" fill-rule="evenodd" fill-opacity="1" /><path clip-path="url(#clip6600)" d="M 0 0 M715.714 1539.92 L734.07 1539.92 L734.07 1543.86 L719.996 1543.86 L719.996 1552.33 Q721.015 1551.98 722.033 1551.82 Q723.052 1551.63 724.07 1551.63 Q729.857 1551.63 733.237 1554.8 Q736.617 1557.98 736.617 1563.39 Q736.617 1568.97 733.144 1572.07 Q729.672 1575.15 723.353 1575.15 Q721.177 1575.15 718.908 1574.78 Q716.663 1574.41 714.256 1573.67 L714.256 1568.97 Q716.339 1570.1 718.561 1570.66 Q720.783 1571.22 723.26 1571.22 Q727.265 1571.22 729.603 1569.11 Q731.941 1567 731.941 1563.39 Q731.941 1559.78 729.603 1557.67 Q727.265 1555.57 723.26 1555.57 Q721.385 1555.57 719.51 1555.98 Q717.658 1556.4 715.714 1557.28 L715.714 1539.92 Z" fill="#000000" fill-rule="evenodd" fill-opacity="1" /><path clip-path="url(#clip6600)" d="M 0 0 M1205.35 1543 Q1201.73 1543 1199.91 1546.56 Q1198.1 1550.11 1198.1 1557.23 Q1198.1 1564.34 1199.91 1567.91 Q1201.73 1571.45 1205.35 1571.45 Q1208.98 1571.45 1210.79 1567.91 Q1212.61 1564.34 1212.61 1557.23 Q1212.61 1550.11 1210.79 1546.56 Q1208.98 1543 1205.35 1543 M1205.35 1539.29 Q1211.16 1539.29 1214.21 1543.9 Q1217.29 1548.48 1217.29 1557.23 Q1217.29 1565.96 1214.21 1570.57 Q1211.16 1575.15 1205.35 1575.15 Q1199.54 1575.15 1196.46 1570.57 Q1193.4 1565.96 1193.4 1557.23 Q1193.4 1548.48 1196.46 1543.9 Q1199.54 1539.29 1205.35 1539.29 Z" fill="#000000" fill-rule="evenodd" fill-opacity="1" /><path clip-path="url(#clip6600)" d="M 0 0 M1222.36 1568.6 L1227.24 1568.6 L1227.24 1574.48 L1222.36 1574.48 L1222.36 1568.6 Z" fill="#000000" fill-rule="evenodd" fill-opacity="1" /><path clip-path="url(#clip6600)" d="M 0 0 M1232.36 1539.92 L1250.72 1539.92 L1250.72 1543.86 L1236.64 1543.86 L1236.64 1552.33 Q1237.66 1551.98 1238.68 1551.82 Q1239.7 1551.63 1240.72 1551.63 Q1246.5 1551.63 1249.88 1554.8 Q1253.26 1557.98 1253.26 1563.39 Q1253.26 1568.97 1249.79 1572.07 Q1246.32 1575.15 1240 1575.15 Q1237.82 1575.15 1235.55 1574.78 Q1233.31 1574.41 1230.9 1573.67 L1230.9 1568.97 Q1232.98 1570.1 1235.21 1570.66 Q1237.43 1571.22 1239.91 1571.22 Q1243.91 1571.22 1246.25 1569.11 Q1248.59 1567 1248.59 1563.39 Q1248.59 1559.78 1246.25 1557.67 Q1243.91 1555.57 1239.91 1555.57 Q1238.03 1555.57 1236.16 1555.98 Q1234.3 1556.4 1232.36 1557.28 L1232.36 1539.92 Z" fill="#000000" fill-rule="evenodd" fill-opacity="1" /><path clip-path="url(#clip6600)" d="M 0 0 M1268.33 1543 Q1264.72 1543 1262.89 1546.56 Q1261.09 1550.11 1261.09 1557.23 Q1261.09 1564.34 1262.89 1567.91 Q1264.72 1571.45 1268.33 1571.45 Q1271.97 1571.45 1273.77 1567.91 Q1275.6 1564.34 1275.6 1557.23 Q1275.6 1550.11 1273.77 1546.56 Q1271.97 1543 1268.33 1543 M1268.33 1539.29 Q1274.14 1539.29 1277.2 1543.9 Q1280.28 1548.48 1280.28 1557.23 Q1280.28 1565.96 1277.2 1570.57 Q1274.14 1575.15 1268.33 1575.15 Q1262.52 1575.15 1259.44 1570.57 Q1256.39 1565.96 1256.39 1557.23 Q1256.39 1548.48 1259.44 1543.9 Q1262.52 1539.29 1268.33 1539.29 Z" fill="#000000" fill-rule="evenodd" fill-opacity="1" /><path clip-path="url(#clip6600)" d="M 0 0 M1748.66 1543 Q1745.05 1543 1743.22 1546.56 Q1741.41 1550.11 1741.41 1557.23 Q1741.41 1564.34 1743.22 1567.91 Q1745.05 1571.45 1748.66 1571.45 Q1752.29 1571.45 1754.1 1567.91 Q1755.93 1564.34 1755.93 1557.23 Q1755.93 1550.11 1754.1 1546.56 Q1752.29 1543 1748.66 1543 M1748.66 1539.29 Q1754.47 1539.29 1757.52 1543.9 Q1760.6 1548.48 1760.6 1557.23 Q1760.6 1565.96 1757.52 1570.57 Q1754.47 1575.15 1748.66 1575.15 Q1742.85 1575.15 1739.77 1570.57 Q1736.71 1565.96 1736.71 1557.23 Q1736.71 1548.48 1739.77 1543.9 Q1742.85 1539.29 1748.66 1539.29 Z" fill="#000000" fill-rule="evenodd" fill-opacity="1" /><path clip-path="url(#clip6600)" d="M 0 0 M1765.67 1568.6 L1770.56 1568.6 L1770.56 1574.48 L1765.67 1574.48 L1765.67 1568.6 Z" fill="#000000" fill-rule="evenodd" fill-opacity="1" /><path clip-path="url(#clip6600)" d="M 0 0 M1774.44 1539.92 L1796.67 1539.92 L1796.67 1541.91 L1784.12 1574.48 L1779.24 1574.48 L1791.04 1543.86 L1774.44 1543.86 L1774.44 1539.92 Z" fill="#000000" fill-rule="evenodd" fill-opacity="1" /><path clip-path="url(#clip6600)" d="M 0 0 M1801.78 1539.92 L1820.14 1539.92 L1820.14 1543.86 L1806.06 1543.86 L1806.06 1552.33 Q1807.08 1551.98 1808.1 1551.82 Q1809.12 1551.63 1810.14 1551.63 Q1815.93 1551.63 1819.31 1554.8 Q1822.68 1557.98 1822.68 1563.39 Q1822.68 1568.97 1819.21 1572.07 Q1815.74 1575.15 1809.42 1575.15 Q1807.24 1575.15 1804.98 1574.78 Q1802.73 1574.41 1800.32 1573.67 L1800.32 1568.97 Q1802.41 1570.1 1804.63 1570.66 Q1806.85 1571.22 1809.33 1571.22 Q1813.33 1571.22 1815.67 1569.11 Q1818.01 1567 1818.01 1563.39 Q1818.01 1559.78 1815.67 1557.67 Q1813.33 1555.57 1809.33 1555.57 Q1807.45 1555.57 1805.58 1555.98 Q1803.73 1556.4 1801.78 1557.28 L1801.78 1539.92 Z" fill="#000000" fill-rule="evenodd" fill-opacity="1" /><path clip-path="url(#clip6600)" d="M 0 0 M2280.95 1570.54 L2288.59 1570.54 L2288.59 1544.18 L2280.28 1545.85 L2280.28 1541.59 L2288.54 1539.92 L2293.22 1539.92 L2293.22 1570.54 L2300.86 1570.54 L2300.86 1574.48 L2280.95 1574.48 L2280.95 1570.54 Z" fill="#000000" fill-rule="evenodd" fill-opacity="1" /><path clip-path="url(#clip6600)" d="M 0 0 M2305.93 1568.6 L2310.81 1568.6 L2310.81 1574.48 L2305.93 1574.48 L2305.93 1568.6 Z" fill="#000000" fill-rule="evenodd" fill-opacity="1" /><path clip-path="url(#clip6600)" d="M 0 0 M2325.88 1543 Q2322.27 1543 2320.44 1546.56 Q2318.64 1550.11 2318.64 1557.23 Q2318.64 1564.34 2320.44 1567.91 Q2322.27 1571.45 2325.88 1571.45 Q2329.52 1571.45 2331.32 1567.91 Q2333.15 1564.34 2333.15 1557.23 Q2333.15 1550.11 2331.32 1546.56 Q2329.52 1543 2325.88 1543 M2325.88 1539.29 Q2331.69 1539.29 2334.75 1543.9 Q2337.83 1548.48 2337.83 1557.23 Q2337.83 1565.96 2334.75 1570.57 Q2331.69 1575.15 2325.88 1575.15 Q2320.07 1575.15 2316.99 1570.57 Q2313.94 1565.96 2313.94 1557.23 Q2313.94 1548.48 2316.99 1543.9 Q2320.07 1539.29 2325.88 1539.29 Z" fill="#000000" fill-rule="evenodd" fill-opacity="1" /><path clip-path="url(#clip6600)" d="M 0 0 M2352.89 1543 Q2349.28 1543 2347.45 1546.56 Q2345.65 1550.11 2345.65 1557.23 Q2345.65 1564.34 2347.45 1567.91 Q2349.28 1571.45 2352.89 1571.45 Q2356.53 1571.45 2358.33 1567.91 Q2360.16 1564.34 2360.16 1557.23 Q2360.16 1550.11 2358.33 1546.56 Q2356.53 1543 2352.89 1543 M2352.89 1539.29 Q2358.7 1539.29 2361.76 1543.9 Q2364.84 1548.48 2364.84 1557.23 Q2364.84 1565.96 2361.76 1570.57 Q2358.7 1575.15 2352.89 1575.15 Q2347.08 1575.15 2344.01 1570.57 Q2340.95 1565.96 2340.95 1557.23 Q2340.95 1548.48 2344.01 1543.9 Q2347.08 1539.29 2352.89 1539.29 Z" fill="#000000" fill-rule="evenodd" fill-opacity="1" /><path clip-path="url(#clip6600)" d="M 0 0 M-12.9334 1465.1 Q-16.5445 1465.1 -18.3732 1468.66 Q-20.1787 1472.2 -20.1787 1479.33 Q-20.1787 1486.44 -18.3732 1490 Q-16.5445 1493.55 -12.9334 1493.55 Q-9.29915 1493.55 -7.49361 1490 Q-5.66491 1486.44 -5.66491 1479.33 Q-5.66491 1472.2 -7.49361 1468.66 Q-9.29915 1465.1 -12.9334 1465.1 M-12.9334 1461.39 Q-7.12324 1461.39 -4.0677 1466 Q-0.989013 1470.58 -0.989013 1479.33 Q-0.989013 1488.06 -4.0677 1492.67 Q-7.12324 1497.25 -12.9334 1497.25 Q-18.7435 1497.25 -21.8222 1492.67 Q-24.8778 1488.06 -24.8778 1479.33 Q-24.8778 1470.58 -21.8222 1466 Q-18.7435 1461.39 -12.9334 1461.39 Z" fill="#000000" fill-rule="evenodd" fill-opacity="1" /><path clip-path="url(#clip6600)" d="M 0 0 M4.0804 1490.7 L8.96464 1490.7 L8.96464 1496.58 L4.0804 1496.58 L4.0804 1490.7 Z" fill="#000000" fill-rule="evenodd" fill-opacity="1" /><path clip-path="url(#clip6600)" d="M 0 0 M24.034 1465.1 Q20.4229 1465.1 18.5942 1468.66 Q16.7887 1472.2 16.7887 1479.33 Q16.7887 1486.44 18.5942 1490 Q20.4229 1493.55 24.034 1493.55 Q27.6682 1493.55 29.4738 1490 Q31.3025 1486.44 31.3025 1479.33 Q31.3025 1472.2 29.4738 1468.66 Q27.6682 1465.1 24.034 1465.1 M24.034 1461.39 Q29.8442 1461.39 32.8997 1466 Q35.9784 1470.58 35.9784 1479.33 Q35.9784 1488.06 32.8997 1492.67 Q29.8442 1497.25 24.034 1497.25 Q18.2238 1497.25 15.1452 1492.67 Q12.0896 1488.06 12.0896 1479.33 Q12.0896 1470.58 15.1452 1466 Q18.2238 1461.39 24.034 1461.39 Z" fill="#000000" fill-rule="evenodd" fill-opacity="1" /><path clip-path="url(#clip6600)" d="M 0 0 M51.0477 1465.1 Q47.4367 1465.1 45.608 1468.66 Q43.8024 1472.2 43.8024 1479.33 Q43.8024 1486.44 45.608 1490 Q47.4367 1493.55 51.0477 1493.55 Q54.682 1493.55 56.4875 1490 Q58.3162 1486.44 58.3162 1479.33 Q58.3162 1472.2 56.4875 1468.66 Q54.682 1465.1 51.0477 1465.1 M51.0477 1461.39 Q56.8579 1461.39 59.9134 1466 Q62.9921 1470.58 62.9921 1479.33 Q62.9921 1488.06 59.9134 1492.67 Q56.8579 1497.25 51.0477 1497.25 Q45.2376 1497.25 42.1589 1492.67 Q39.1034 1488.06 39.1034 1479.33 Q39.1034 1470.58 42.1589 1466 Q45.2376 1461.39 51.0477 1461.39 Z" fill="#000000" fill-rule="evenodd" fill-opacity="1" /><path clip-path="url(#clip6600)" d="M 0 0 M-10.3408 1111.99 Q-13.9519 1111.99 -15.7806 1115.56 Q-17.5861 1119.1 -17.5861 1126.23 Q-17.5861 1133.34 -15.7806 1136.9 Q-13.9519 1140.44 -10.3408 1140.44 Q-6.70657 1140.44 -4.90103 1136.9 Q-3.07233 1133.34 -3.07233 1126.23 Q-3.07233 1119.1 -4.90103 1115.56 Q-6.70657 1111.99 -10.3408 1111.99 M-10.3408 1108.29 Q-4.53066 1108.29 -1.47512 1112.9 Q1.60357 1117.48 1.60357 1126.23 Q1.60357 1134.96 -1.47512 1139.56 Q-4.53066 1144.15 -10.3408 1144.15 Q-16.151 1144.15 -19.2297 1139.56 Q-22.2852 1134.96 -22.2852 1126.23 Q-22.2852 1117.48 -19.2297 1112.9 Q-16.151 1108.29 -10.3408 1108.29 Z" fill="#000000" fill-rule="evenodd" fill-opacity="1" /><path clip-path="url(#clip6600)" d="M 0 0 M6.67298 1137.59 L11.5572 1137.59 L11.5572 1143.47 L6.67298 1143.47 L6.67298 1137.59 Z" fill="#000000" fill-rule="evenodd" fill-opacity="1" /><path clip-path="url(#clip6600)" d="M 0 0 M20.6544 1139.54 L36.9737 1139.54 L36.9737 1143.47 L15.0294 1143.47 L15.0294 1139.54 Q17.6914 1136.78 22.2748 1132.16 Q26.8812 1127.5 28.0618 1126.16 Q30.3071 1123.64 31.1867 1121.9 Q32.0895 1120.14 32.0895 1118.45 Q32.0895 1115.7 30.1451 1113.96 Q28.2238 1112.22 25.122 1112.22 Q22.9229 1112.22 20.4692 1112.99 Q18.0387 1113.75 15.2609 1115.3 L15.2609 1110.58 Q18.085 1109.45 20.5386 1108.87 Q22.9923 1108.29 25.0294 1108.29 Q30.3997 1108.29 33.5941 1110.97 Q36.7886 1113.66 36.7886 1118.15 Q36.7886 1120.28 35.9784 1122.2 Q35.1913 1124.1 33.0849 1126.69 Q32.5062 1127.36 29.4043 1130.58 Q26.3025 1133.78 20.6544 1139.54 Z" fill="#000000" fill-rule="evenodd" fill-opacity="1" /><path clip-path="url(#clip6600)" d="M 0 0 M42.0895 1108.91 L60.4458 1108.91 L60.4458 1112.85 L46.3718 1112.85 L46.3718 1121.32 Q47.3904 1120.97 48.4089 1120.81 Q49.4274 1120.63 50.4459 1120.63 Q56.2329 1120.63 59.6125 1123.8 Q62.9921 1126.97 62.9921 1132.39 Q62.9921 1137.97 59.5199 1141.07 Q56.0477 1144.15 49.7283 1144.15 Q47.5524 1144.15 45.2839 1143.78 Q43.0385 1143.41 40.6311 1142.66 L40.6311 1137.97 Q42.7145 1139.1 44.9367 1139.66 Q47.1589 1140.21 49.6357 1140.21 Q53.6403 1140.21 55.9783 1138.1 Q58.3162 1136 58.3162 1132.39 Q58.3162 1128.78 55.9783 1126.67 Q53.6403 1124.56 49.6357 1124.56 Q47.7607 1124.56 45.8857 1124.98 Q44.0339 1125.4 42.0895 1126.28 L42.0895 1108.91 Z" fill="#000000" fill-rule="evenodd" fill-opacity="1" /><path clip-path="url(#clip6600)" d="M 0 0 M-11.938 758.89 Q-15.5491 758.89 -17.3778 762.455 Q-19.1834 765.997 -19.1834 773.126 Q-19.1834 780.233 -17.3778 783.797 Q-15.5491 787.339 -11.938 787.339 Q-8.30379 787.339 -6.49824 783.797 Q-4.66955 780.233 -4.66955 773.126 Q-4.66955 765.997 -6.49824 762.455 Q-8.30379 758.89 -11.938 758.89 M-11.938 755.187 Q-6.12787 755.187 -3.07233 759.793 Q0.00635237 764.376 0.00635237 773.126 Q0.00635237 781.853 -3.07233 786.459 Q-6.12787 791.043 -11.938 791.043 Q-17.7482 791.043 -20.8269 786.459 Q-23.8824 781.853 -23.8824 773.126 Q-23.8824 764.376 -20.8269 759.793 Q-17.7482 755.187 -11.938 755.187 Z" fill="#000000" fill-rule="evenodd" fill-opacity="1" /><path clip-path="url(#clip6600)" d="M 0 0 M5.07577 784.492 L9.96 784.492 L9.96 790.372 L5.07577 790.372 L5.07577 784.492 Z" fill="#000000" fill-rule="evenodd" fill-opacity="1" /><path clip-path="url(#clip6600)" d="M 0 0 M15.0757 755.812 L33.4321 755.812 L33.4321 759.747 L19.3581 759.747 L19.3581 768.219 Q20.3766 767.872 21.3951 767.71 Q22.4136 767.524 23.4322 767.524 Q29.2192 767.524 32.5988 770.696 Q35.9784 773.867 35.9784 779.284 Q35.9784 784.862 32.5062 787.964 Q29.034 791.043 22.7146 791.043 Q20.5386 791.043 18.2701 790.672 Q16.0248 790.302 13.6174 789.561 L13.6174 784.862 Q15.7007 785.997 17.9229 786.552 Q20.1451 787.108 22.622 787.108 Q26.6266 787.108 28.9645 785.001 Q31.3025 782.895 31.3025 779.284 Q31.3025 775.673 28.9645 773.566 Q26.6266 771.46 22.622 771.46 Q20.747 771.46 18.872 771.876 Q17.0202 772.293 15.0757 773.173 L15.0757 755.812 Z" fill="#000000" fill-rule="evenodd" fill-opacity="1" /><path clip-path="url(#clip6600)" d="M 0 0 M51.0477 758.89 Q47.4367 758.89 45.608 762.455 Q43.8024 765.997 43.8024 773.126 Q43.8024 780.233 45.608 783.797 Q47.4367 787.339 51.0477 787.339 Q54.682 787.339 56.4875 783.797 Q58.3162 780.233 58.3162 773.126 Q58.3162 765.997 56.4875 762.455 Q54.682 758.89 51.0477 758.89 M51.0477 755.187 Q56.8579 755.187 59.9134 759.793 Q62.9921 764.376 62.9921 773.126 Q62.9921 781.853 59.9134 786.459 Q56.8579 791.043 51.0477 791.043 Q45.2376 791.043 42.1589 786.459 Q39.1034 781.853 39.1034 773.126 Q39.1034 764.376 42.1589 759.793 Q45.2376 755.187 51.0477 755.187 Z" fill="#000000" fill-rule="evenodd" fill-opacity="1" /><path clip-path="url(#clip6600)" d="M 0 0 M-11.0353 405.787 Q-14.6463 405.787 -16.475 409.352 Q-18.2806 412.894 -18.2806 420.023 Q-18.2806 427.13 -16.475 430.694 Q-14.6463 434.236 -11.0353 434.236 Q-7.40102 434.236 -5.59547 430.694 Q-3.76678 427.13 -3.76678 420.023 Q-3.76678 412.894 -5.59547 409.352 Q-7.40102 405.787 -11.0353 405.787 M-11.0353 402.083 Q-5.2251 402.083 -2.16956 406.69 Q0.909125 411.273 0.909125 420.023 Q0.909125 428.75 -2.16956 433.356 Q-5.2251 437.94 -11.0353 437.94 Q-16.8454 437.94 -19.9241 433.356 Q-22.9796 428.75 -22.9796 420.023 Q-22.9796 411.273 -19.9241 406.69 Q-16.8454 402.083 -11.0353 402.083 Z" fill="#000000" fill-rule="evenodd" fill-opacity="1" /><path clip-path="url(#clip6600)" d="M 0 0 M5.97854 431.389 L10.8628 431.389 L10.8628 437.268 L5.97854 437.268 L5.97854 431.389 Z" fill="#000000" fill-rule="evenodd" fill-opacity="1" /><path clip-path="url(#clip6600)" d="M 0 0 M14.7516 402.708 L36.9737 402.708 L36.9737 404.699 L24.4275 437.268 L19.5433 437.268 L31.3488 406.644 L14.7516 406.644 L14.7516 402.708 Z" fill="#000000" fill-rule="evenodd" fill-opacity="1" /><path clip-path="url(#clip6600)" d="M 0 0 M42.0895 402.708 L60.4458 402.708 L60.4458 406.644 L46.3718 406.644 L46.3718 415.116 Q47.3904 414.769 48.4089 414.607 Q49.4274 414.421 50.4459 414.421 Q56.2329 414.421 59.6125 417.593 Q62.9921 420.764 62.9921 426.181 Q62.9921 431.759 59.5199 434.861 Q56.0477 437.94 49.7283 437.94 Q47.5524 437.94 45.2839 437.569 Q43.0385 437.199 40.6311 436.458 L40.6311 431.759 Q42.7145 432.894 44.9367 433.449 Q47.1589 434.005 49.6357 434.005 Q53.6403 434.005 55.9783 431.898 Q58.3162 429.792 58.3162 426.181 Q58.3162 422.569 55.9783 420.463 Q53.6403 418.357 49.6357 418.357 Q47.7607 418.357 45.8857 418.773 Q44.0339 419.19 42.0895 420.07 L42.0895 402.708 Z" fill="#000000" fill-rule="evenodd" fill-opacity="1" /><path clip-path="url(#clip6600)" d="M 0 0 M-20.8963 80.2303 L-13.2575 80.2303 L-13.2575 53.8647 L-21.5676 55.5313 L-21.5676 51.2721 L-13.3038 49.6055 L-8.62786 49.6055 L-8.62786 80.2303 L-0.989013 80.2303 L-0.989013 84.1655 L-20.8963 84.1655 L-20.8963 80.2303 Z" fill="#000000" fill-rule="evenodd" fill-opacity="1" /><path clip-path="url(#clip6600)" d="M 0 0 M4.0804 78.2859 L8.96464 78.2859 L8.96464 84.1655 L4.0804 84.1655 L4.0804 78.2859 Z" fill="#000000" fill-rule="evenodd" fill-opacity="1" /><path clip-path="url(#clip6600)" d="M 0 0 M24.034 52.6841 Q20.4229 52.6841 18.5942 56.2489 Q16.7887 59.7906 16.7887 66.9202 Q16.7887 74.0266 18.5942 77.5914 Q20.4229 81.1331 24.034 81.1331 Q27.6682 81.1331 29.4738 77.5914 Q31.3025 74.0266 31.3025 66.9202 Q31.3025 59.7906 29.4738 56.2489 Q27.6682 52.6841 24.034 52.6841 M24.034 48.9805 Q29.8442 48.9805 32.8997 53.5869 Q35.9784 58.1702 35.9784 66.9202 Q35.9784 75.647 32.8997 80.2534 Q29.8442 84.8367 24.034 84.8367 Q18.2238 84.8367 15.1452 80.2534 Q12.0896 75.647 12.0896 66.9202 Q12.0896 58.1702 15.1452 53.5869 Q18.2238 48.9805 24.034 48.9805 Z" fill="#000000" fill-rule="evenodd" fill-opacity="1" /><path clip-path="url(#clip6600)" d="M 0 0 M51.0477 52.6841 Q47.4367 52.6841 45.608 56.2489 Q43.8024 59.7906 43.8024 66.9202 Q43.8024 74.0266 45.608 77.5914 Q47.4367 81.1331 51.0477 81.1331 Q54.682 81.1331 56.4875 77.5914 Q58.3162 74.0266 58.3162 66.9202 Q58.3162 59.7906 56.4875 56.2489 Q54.682 52.6841 51.0477 52.6841 M51.0477 48.9805 Q56.8579 48.9805 59.9134 53.5869 Q62.9921 58.1702 62.9921 66.9202 Q62.9921 75.647 59.9134 80.2534 Q56.8579 84.8367 51.0477 84.8367 Q45.2376 84.8367 42.1589 80.2534 Q39.1034 75.647 39.1034 66.9202 Q39.1034 58.1702 42.1589 53.5869 Q45.2376 48.9805 51.0477 48.9805 Z" fill="#000000" fill-rule="evenodd" fill-opacity="1" /><polyline clip-path="url(#clip6602)" style="stroke:#009af9; stroke-width:4; stroke-opacity:1; fill:none" points="
  151.118,1479.3 185.046,1457.23 218.975,1435.16 252.904,1413.09 286.833,1391.02 320.761,1368.95 354.69,1346.88 388.619,1324.82 422.548,1302.75 456.477,1280.68 
  490.405,1258.61 524.334,1236.54 558.263,1214.47 592.192,1192.4 626.12,1170.33 660.049,1148.26 693.978,1126.19 727.907,1104.13 761.836,1082.06 795.764,1059.99 
  829.693,1037.92 863.622,1015.85 897.551,993.781 931.479,971.712 965.408,949.643 999.337,927.574 1033.27,905.505 1067.19,883.436 1101.12,861.367 1135.05,839.298 
  1168.98,817.229 1202.91,795.16 1236.84,773.092 1270.77,751.023 1304.7,728.954 1338.62,706.885 1372.55,684.816 1406.48,662.747 1440.41,640.678 1474.34,618.609 
  1508.27,596.54 1542.2,574.471 1576.13,552.402 1610.05,530.333 1643.98,508.264 1677.91,486.195 1711.84,464.126 1745.77,442.057 1779.7,419.988 1813.63,397.92 
  1847.56,375.851 1881.49,353.782 1915.41,331.713 1949.34,309.644 1983.27,287.575 2017.2,265.506 2051.13,243.437 2085.06,221.368 2118.99,199.299 2152.92,177.23 
  2186.84,155.161 2220.77,133.092 2254.7,111.023 2288.63,88.9544 
  "/>
<circle clip-path="url(#clip6602)" cx="151.118" cy="1479.3" r="3" fill="#009af9" fill-rule="evenodd" fill-opacity="1" stroke="#000000" stroke-opacity="1" stroke-width="3.2"/>
<circle clip-path="url(#clip6602)" cx="185.046" cy="1457.23" r="3" fill="#009af9" fill-rule="evenodd" fill-opacity="1" stroke="#000000" stroke-opacity="1" stroke-width="3.2"/>
<circle clip-path="url(#clip6602)" cx="218.975" cy="1435.16" r="3" fill="#009af9" fill-rule="evenodd" fill-opacity="1" stroke="#000000" stroke-opacity="1" stroke-width="3.2"/>
<circle clip-path="url(#clip6602)" cx="252.904" cy="1413.09" r="3" fill="#009af9" fill-rule="evenodd" fill-opacity="1" stroke="#000000" stroke-opacity="1" stroke-width="3.2"/>
<circle clip-path="url(#clip6602)" cx="286.833" cy="1391.02" r="3" fill="#009af9" fill-rule="evenodd" fill-opacity="1" stroke="#000000" stroke-opacity="1" stroke-width="3.2"/>
<circle clip-path="url(#clip6602)" cx="320.761" cy="1368.95" r="3" fill="#009af9" fill-rule="evenodd" fill-opacity="1" stroke="#000000" stroke-opacity="1" stroke-width="3.2"/>
<circle clip-path="url(#clip6602)" cx="354.69" cy="1346.88" r="3" fill="#009af9" fill-rule="evenodd" fill-opacity="1" stroke="#000000" stroke-opacity="1" stroke-width="3.2"/>
<circle clip-path="url(#clip6602)" cx="388.619" cy="1324.82" r="3" fill="#009af9" fill-rule="evenodd" fill-opacity="1" stroke="#000000" stroke-opacity="1" stroke-width="3.2"/>
<circle clip-path="url(#clip6602)" cx="422.548" cy="1302.75" r="3" fill="#009af9" fill-rule="evenodd" fill-opacity="1" stroke="#000000" stroke-opacity="1" stroke-width="3.2"/>
<circle clip-path="url(#clip6602)" cx="456.477" cy="1280.68" r="3" fill="#009af9" fill-rule="evenodd" fill-opacity="1" stroke="#000000" stroke-opacity="1" stroke-width="3.2"/>
<circle clip-path="url(#clip6602)" cx="490.405" cy="1258.61" r="3" fill="#009af9" fill-rule="evenodd" fill-opacity="1" stroke="#000000" stroke-opacity="1" stroke-width="3.2"/>
<circle clip-path="url(#clip6602)" cx="524.334" cy="1236.54" r="3" fill="#009af9" fill-rule="evenodd" fill-opacity="1" stroke="#000000" stroke-opacity="1" stroke-width="3.2"/>
<circle clip-path="url(#clip6602)" cx="558.263" cy="1214.47" r="3" fill="#009af9" fill-rule="evenodd" fill-opacity="1" stroke="#000000" stroke-opacity="1" stroke-width="3.2"/>
<circle clip-path="url(#clip6602)" cx="592.192" cy="1192.4" r="3" fill="#009af9" fill-rule="evenodd" fill-opacity="1" stroke="#000000" stroke-opacity="1" stroke-width="3.2"/>
<circle clip-path="url(#clip6602)" cx="626.12" cy="1170.33" r="3" fill="#009af9" fill-rule="evenodd" fill-opacity="1" stroke="#000000" stroke-opacity="1" stroke-width="3.2"/>
<circle clip-path="url(#clip6602)" cx="660.049" cy="1148.26" r="3" fill="#009af9" fill-rule="evenodd" fill-opacity="1" stroke="#000000" stroke-opacity="1" stroke-width="3.2"/>
<circle clip-path="url(#clip6602)" cx="693.978" cy="1126.19" r="3" fill="#009af9" fill-rule="evenodd" fill-opacity="1" stroke="#000000" stroke-opacity="1" stroke-width="3.2"/>
<circle clip-path="url(#clip6602)" cx="727.907" cy="1104.13" r="3" fill="#009af9" fill-rule="evenodd" fill-opacity="1" stroke="#000000" stroke-opacity="1" stroke-width="3.2"/>
<circle clip-path="url(#clip6602)" cx="761.836" cy="1082.06" r="3" fill="#009af9" fill-rule="evenodd" fill-opacity="1" stroke="#000000" stroke-opacity="1" stroke-width="3.2"/>
<circle clip-path="url(#clip6602)" cx="795.764" cy="1059.99" r="3" fill="#009af9" fill-rule="evenodd" fill-opacity="1" stroke="#000000" stroke-opacity="1" stroke-width="3.2"/>
<circle clip-path="url(#clip6602)" cx="829.693" cy="1037.92" r="3" fill="#009af9" fill-rule="evenodd" fill-opacity="1" stroke="#000000" stroke-opacity="1" stroke-width="3.2"/>
<circle clip-path="url(#clip6602)" cx="863.622" cy="1015.85" r="3" fill="#009af9" fill-rule="evenodd" fill-opacity="1" stroke="#000000" stroke-opacity="1" stroke-width="3.2"/>
<circle clip-path="url(#clip6602)" cx="897.551" cy="993.781" r="3" fill="#009af9" fill-rule="evenodd" fill-opacity="1" stroke="#000000" stroke-opacity="1" stroke-width="3.2"/>
<circle clip-path="url(#clip6602)" cx="931.479" cy="971.712" r="3" fill="#009af9" fill-rule="evenodd" fill-opacity="1" stroke="#000000" stroke-opacity="1" stroke-width="3.2"/>
<circle clip-path="url(#clip6602)" cx="965.408" cy="949.643" r="3" fill="#009af9" fill-rule="evenodd" fill-opacity="1" stroke="#000000" stroke-opacity="1" stroke-width="3.2"/>
<circle clip-path="url(#clip6602)" cx="999.337" cy="927.574" r="3" fill="#009af9" fill-rule="evenodd" fill-opacity="1" stroke="#000000" stroke-opacity="1" stroke-width="3.2"/>
<circle clip-path="url(#clip6602)" cx="1033.27" cy="905.505" r="3" fill="#009af9" fill-rule="evenodd" fill-opacity="1" stroke="#000000" stroke-opacity="1" stroke-width="3.2"/>
<circle clip-path="url(#clip6602)" cx="1067.19" cy="883.436" r="3" fill="#009af9" fill-rule="evenodd" fill-opacity="1" stroke="#000000" stroke-opacity="1" stroke-width="3.2"/>
<circle clip-path="url(#clip6602)" cx="1101.12" cy="861.367" r="3" fill="#009af9" fill-rule="evenodd" fill-opacity="1" stroke="#000000" stroke-opacity="1" stroke-width="3.2"/>
<circle clip-path="url(#clip6602)" cx="1135.05" cy="839.298" r="3" fill="#009af9" fill-rule="evenodd" fill-opacity="1" stroke="#000000" stroke-opacity="1" stroke-width="3.2"/>
<circle clip-path="url(#clip6602)" cx="1168.98" cy="817.229" r="3" fill="#009af9" fill-rule="evenodd" fill-opacity="1" stroke="#000000" stroke-opacity="1" stroke-width="3.2"/>
<circle clip-path="url(#clip6602)" cx="1202.91" cy="795.16" r="3" fill="#009af9" fill-rule="evenodd" fill-opacity="1" stroke="#000000" stroke-opacity="1" stroke-width="3.2"/>
<circle clip-path="url(#clip6602)" cx="1236.84" cy="773.092" r="3" fill="#009af9" fill-rule="evenodd" fill-opacity="1" stroke="#000000" stroke-opacity="1" stroke-width="3.2"/>
<circle clip-path="url(#clip6602)" cx="1270.77" cy="751.023" r="3" fill="#009af9" fill-rule="evenodd" fill-opacity="1" stroke="#000000" stroke-opacity="1" stroke-width="3.2"/>
<circle clip-path="url(#clip6602)" cx="1304.7" cy="728.954" r="3" fill="#009af9" fill-rule="evenodd" fill-opacity="1" stroke="#000000" stroke-opacity="1" stroke-width="3.2"/>
<circle clip-path="url(#clip6602)" cx="1338.62" cy="706.885" r="3" fill="#009af9" fill-rule="evenodd" fill-opacity="1" stroke="#000000" stroke-opacity="1" stroke-width="3.2"/>
<circle clip-path="url(#clip6602)" cx="1372.55" cy="684.816" r="3" fill="#009af9" fill-rule="evenodd" fill-opacity="1" stroke="#000000" stroke-opacity="1" stroke-width="3.2"/>
<circle clip-path="url(#clip6602)" cx="1406.48" cy="662.747" r="3" fill="#009af9" fill-rule="evenodd" fill-opacity="1" stroke="#000000" stroke-opacity="1" stroke-width="3.2"/>
<circle clip-path="url(#clip6602)" cx="1440.41" cy="640.678" r="3" fill="#009af9" fill-rule="evenodd" fill-opacity="1" stroke="#000000" stroke-opacity="1" stroke-width="3.2"/>
<circle clip-path="url(#clip6602)" cx="1474.34" cy="618.609" r="3" fill="#009af9" fill-rule="evenodd" fill-opacity="1" stroke="#000000" stroke-opacity="1" stroke-width="3.2"/>
<circle clip-path="url(#clip6602)" cx="1508.27" cy="596.54" r="3" fill="#009af9" fill-rule="evenodd" fill-opacity="1" stroke="#000000" stroke-opacity="1" stroke-width="3.2"/>
<circle clip-path="url(#clip6602)" cx="1542.2" cy="574.471" r="3" fill="#009af9" fill-rule="evenodd" fill-opacity="1" stroke="#000000" stroke-opacity="1" stroke-width="3.2"/>
<circle clip-path="url(#clip6602)" cx="1576.13" cy="552.402" r="3" fill="#009af9" fill-rule="evenodd" fill-opacity="1" stroke="#000000" stroke-opacity="1" stroke-width="3.2"/>
<circle clip-path="url(#clip6602)" cx="1610.05" cy="530.333" r="3" fill="#009af9" fill-rule="evenodd" fill-opacity="1" stroke="#000000" stroke-opacity="1" stroke-width="3.2"/>
<circle clip-path="url(#clip6602)" cx="1643.98" cy="508.264" r="3" fill="#009af9" fill-rule="evenodd" fill-opacity="1" stroke="#000000" stroke-opacity="1" stroke-width="3.2"/>
<circle clip-path="url(#clip6602)" cx="1677.91" cy="486.195" r="3" fill="#009af9" fill-rule="evenodd" fill-opacity="1" stroke="#000000" stroke-opacity="1" stroke-width="3.2"/>
<circle clip-path="url(#clip6602)" cx="1711.84" cy="464.126" r="3" fill="#009af9" fill-rule="evenodd" fill-opacity="1" stroke="#000000" stroke-opacity="1" stroke-width="3.2"/>
<circle clip-path="url(#clip6602)" cx="1745.77" cy="442.057" r="3" fill="#009af9" fill-rule="evenodd" fill-opacity="1" stroke="#000000" stroke-opacity="1" stroke-width="3.2"/>
<circle clip-path="url(#clip6602)" cx="1779.7" cy="419.988" r="3" fill="#009af9" fill-rule="evenodd" fill-opacity="1" stroke="#000000" stroke-opacity="1" stroke-width="3.2"/>
<circle clip-path="url(#clip6602)" cx="1813.63" cy="397.92" r="3" fill="#009af9" fill-rule="evenodd" fill-opacity="1" stroke="#000000" stroke-opacity="1" stroke-width="3.2"/>
<circle clip-path="url(#clip6602)" cx="1847.56" cy="375.851" r="3" fill="#009af9" fill-rule="evenodd" fill-opacity="1" stroke="#000000" stroke-opacity="1" stroke-width="3.2"/>
<circle clip-path="url(#clip6602)" cx="1881.49" cy="353.782" r="3" fill="#009af9" fill-rule="evenodd" fill-opacity="1" stroke="#000000" stroke-opacity="1" stroke-width="3.2"/>
<circle clip-path="url(#clip6602)" cx="1915.41" cy="331.713" r="3" fill="#009af9" fill-rule="evenodd" fill-opacity="1" stroke="#000000" stroke-opacity="1" stroke-width="3.2"/>
<circle clip-path="url(#clip6602)" cx="1949.34" cy="309.644" r="3" fill="#009af9" fill-rule="evenodd" fill-opacity="1" stroke="#000000" stroke-opacity="1" stroke-width="3.2"/>
<circle clip-path="url(#clip6602)" cx="1983.27" cy="287.575" r="3" fill="#009af9" fill-rule="evenodd" fill-opacity="1" stroke="#000000" stroke-opacity="1" stroke-width="3.2"/>
<circle clip-path="url(#clip6602)" cx="2017.2" cy="265.506" r="3" fill="#009af9" fill-rule="evenodd" fill-opacity="1" stroke="#000000" stroke-opacity="1" stroke-width="3.2"/>
<circle clip-path="url(#clip6602)" cx="2051.13" cy="243.437" r="3" fill="#009af9" fill-rule="evenodd" fill-opacity="1" stroke="#000000" stroke-opacity="1" stroke-width="3.2"/>
<circle clip-path="url(#clip6602)" cx="2085.06" cy="221.368" r="3" fill="#009af9" fill-rule="evenodd" fill-opacity="1" stroke="#000000" stroke-opacity="1" stroke-width="3.2"/>
<circle clip-path="url(#clip6602)" cx="2118.99" cy="199.299" r="3" fill="#009af9" fill-rule="evenodd" fill-opacity="1" stroke="#000000" stroke-opacity="1" stroke-width="3.2"/>
<circle clip-path="url(#clip6602)" cx="2152.92" cy="177.23" r="3" fill="#009af9" fill-rule="evenodd" fill-opacity="1" stroke="#000000" stroke-opacity="1" stroke-width="3.2"/>
<circle clip-path="url(#clip6602)" cx="2186.84" cy="155.161" r="3" fill="#009af9" fill-rule="evenodd" fill-opacity="1" stroke="#000000" stroke-opacity="1" stroke-width="3.2"/>
<circle clip-path="url(#clip6602)" cx="2220.77" cy="133.092" r="3" fill="#009af9" fill-rule="evenodd" fill-opacity="1" stroke="#000000" stroke-opacity="1" stroke-width="3.2"/>
<circle clip-path="url(#clip6602)" cx="2254.7" cy="111.023" r="3" fill="#009af9" fill-rule="evenodd" fill-opacity="1" stroke="#000000" stroke-opacity="1" stroke-width="3.2"/>
<circle clip-path="url(#clip6602)" cx="2288.63" cy="88.9544" r="3" fill="#009af9" fill-rule="evenodd" fill-opacity="1" stroke="#000000" stroke-opacity="1" stroke-width="3.2"/>
<polyline clip-path="url(#clip6602)" style="stroke:#e26f46; stroke-width:4; stroke-opacity:1; fill:none" points="
  151.118,1479.3 185.046,1457.23 218.975,1457.23 252.904,1435.16 286.833,1435.16 320.761,1413.09 354.69,1413.09 388.619,1391.02 422.548,1391.02 456.477,1368.95 
  490.405,1368.95 524.334,1346.88 558.263,1346.88 592.192,1324.82 626.12,1324.82 660.049,1302.75 693.978,1302.75 727.907,1280.68 761.836,1280.68 795.764,1258.61 
  829.693,1258.61 863.622,1236.54 897.551,1236.54 931.479,1214.47 965.408,1214.47 999.337,1192.4 1033.27,1192.4 1067.19,1170.33 1101.12,1170.33 1135.05,1148.26 
  1168.98,1148.26 1202.91,1126.19 1236.84,1126.19 1270.77,1104.13 1304.7,1104.13 1338.62,1082.06 1372.55,1082.06 1406.48,1059.99 1440.41,1059.99 1474.34,1037.92 
  1508.27,1037.92 1542.2,1015.85 1576.13,1015.85 1610.05,993.781 1643.98,993.781 1677.91,971.712 1711.84,971.712 1745.77,949.643 1779.7,949.643 1813.63,927.574 
  1847.56,927.574 1881.49,905.505 1915.41,905.505 1949.34,883.436 1983.27,883.436 2017.2,861.367 2051.13,861.367 2085.06,839.298 2118.99,839.298 2152.92,817.229 
  2186.84,817.229 2220.77,795.16 2254.7,795.16 2288.63,773.092 
  "/>
<circle clip-path="url(#clip6602)" cx="151.118" cy="1479.3" r="3" fill="#e26f46" fill-rule="evenodd" fill-opacity="1" stroke="#000000" stroke-opacity="1" stroke-width="3.2"/>
<circle clip-path="url(#clip6602)" cx="185.046" cy="1457.23" r="3" fill="#e26f46" fill-rule="evenodd" fill-opacity="1" stroke="#000000" stroke-opacity="1" stroke-width="3.2"/>
<circle clip-path="url(#clip6602)" cx="218.975" cy="1457.23" r="3" fill="#e26f46" fill-rule="evenodd" fill-opacity="1" stroke="#000000" stroke-opacity="1" stroke-width="3.2"/>
<circle clip-path="url(#clip6602)" cx="252.904" cy="1435.16" r="3" fill="#e26f46" fill-rule="evenodd" fill-opacity="1" stroke="#000000" stroke-opacity="1" stroke-width="3.2"/>
<circle clip-path="url(#clip6602)" cx="286.833" cy="1435.16" r="3" fill="#e26f46" fill-rule="evenodd" fill-opacity="1" stroke="#000000" stroke-opacity="1" stroke-width="3.2"/>
<circle clip-path="url(#clip6602)" cx="320.761" cy="1413.09" r="3" fill="#e26f46" fill-rule="evenodd" fill-opacity="1" stroke="#000000" stroke-opacity="1" stroke-width="3.2"/>
<circle clip-path="url(#clip6602)" cx="354.69" cy="1413.09" r="3" fill="#e26f46" fill-rule="evenodd" fill-opacity="1" stroke="#000000" stroke-opacity="1" stroke-width="3.2"/>
<circle clip-path="url(#clip6602)" cx="388.619" cy="1391.02" r="3" fill="#e26f46" fill-rule="evenodd" fill-opacity="1" stroke="#000000" stroke-opacity="1" stroke-width="3.2"/>
<circle clip-path="url(#clip6602)" cx="422.548" cy="1391.02" r="3" fill="#e26f46" fill-rule="evenodd" fill-opacity="1" stroke="#000000" stroke-opacity="1" stroke-width="3.2"/>
<circle clip-path="url(#clip6602)" cx="456.477" cy="1368.95" r="3" fill="#e26f46" fill-rule="evenodd" fill-opacity="1" stroke="#000000" stroke-opacity="1" stroke-width="3.2"/>
<circle clip-path="url(#clip6602)" cx="490.405" cy="1368.95" r="3" fill="#e26f46" fill-rule="evenodd" fill-opacity="1" stroke="#000000" stroke-opacity="1" stroke-width="3.2"/>
<circle clip-path="url(#clip6602)" cx="524.334" cy="1346.88" r="3" fill="#e26f46" fill-rule="evenodd" fill-opacity="1" stroke="#000000" stroke-opacity="1" stroke-width="3.2"/>
<circle clip-path="url(#clip6602)" cx="558.263" cy="1346.88" r="3" fill="#e26f46" fill-rule="evenodd" fill-opacity="1" stroke="#000000" stroke-opacity="1" stroke-width="3.2"/>
<circle clip-path="url(#clip6602)" cx="592.192" cy="1324.82" r="3" fill="#e26f46" fill-rule="evenodd" fill-opacity="1" stroke="#000000" stroke-opacity="1" stroke-width="3.2"/>
<circle clip-path="url(#clip6602)" cx="626.12" cy="1324.82" r="3" fill="#e26f46" fill-rule="evenodd" fill-opacity="1" stroke="#000000" stroke-opacity="1" stroke-width="3.2"/>
<circle clip-path="url(#clip6602)" cx="660.049" cy="1302.75" r="3" fill="#e26f46" fill-rule="evenodd" fill-opacity="1" stroke="#000000" stroke-opacity="1" stroke-width="3.2"/>
<circle clip-path="url(#clip6602)" cx="693.978" cy="1302.75" r="3" fill="#e26f46" fill-rule="evenodd" fill-opacity="1" stroke="#000000" stroke-opacity="1" stroke-width="3.2"/>
<circle clip-path="url(#clip6602)" cx="727.907" cy="1280.68" r="3" fill="#e26f46" fill-rule="evenodd" fill-opacity="1" stroke="#000000" stroke-opacity="1" stroke-width="3.2"/>
<circle clip-path="url(#clip6602)" cx="761.836" cy="1280.68" r="3" fill="#e26f46" fill-rule="evenodd" fill-opacity="1" stroke="#000000" stroke-opacity="1" stroke-width="3.2"/>
<circle clip-path="url(#clip6602)" cx="795.764" cy="1258.61" r="3" fill="#e26f46" fill-rule="evenodd" fill-opacity="1" stroke="#000000" stroke-opacity="1" stroke-width="3.2"/>
<circle clip-path="url(#clip6602)" cx="829.693" cy="1258.61" r="3" fill="#e26f46" fill-rule="evenodd" fill-opacity="1" stroke="#000000" stroke-opacity="1" stroke-width="3.2"/>
<circle clip-path="url(#clip6602)" cx="863.622" cy="1236.54" r="3" fill="#e26f46" fill-rule="evenodd" fill-opacity="1" stroke="#000000" stroke-opacity="1" stroke-width="3.2"/>
<circle clip-path="url(#clip6602)" cx="897.551" cy="1236.54" r="3" fill="#e26f46" fill-rule="evenodd" fill-opacity="1" stroke="#000000" stroke-opacity="1" stroke-width="3.2"/>
<circle clip-path="url(#clip6602)" cx="931.479" cy="1214.47" r="3" fill="#e26f46" fill-rule="evenodd" fill-opacity="1" stroke="#000000" stroke-opacity="1" stroke-width="3.2"/>
<circle clip-path="url(#clip6602)" cx="965.408" cy="1214.47" r="3" fill="#e26f46" fill-rule="evenodd" fill-opacity="1" stroke="#000000" stroke-opacity="1" stroke-width="3.2"/>
<circle clip-path="url(#clip6602)" cx="999.337" cy="1192.4" r="3" fill="#e26f46" fill-rule="evenodd" fill-opacity="1" stroke="#000000" stroke-opacity="1" stroke-width="3.2"/>
<circle clip-path="url(#clip6602)" cx="1033.27" cy="1192.4" r="3" fill="#e26f46" fill-rule="evenodd" fill-opacity="1" stroke="#000000" stroke-opacity="1" stroke-width="3.2"/>
<circle clip-path="url(#clip6602)" cx="1067.19" cy="1170.33" r="3" fill="#e26f46" fill-rule="evenodd" fill-opacity="1" stroke="#000000" stroke-opacity="1" stroke-width="3.2"/>
<circle clip-path="url(#clip6602)" cx="1101.12" cy="1170.33" r="3" fill="#e26f46" fill-rule="evenodd" fill-opacity="1" stroke="#000000" stroke-opacity="1" stroke-width="3.2"/>
<circle clip-path="url(#clip6602)" cx="1135.05" cy="1148.26" r="3" fill="#e26f46" fill-rule="evenodd" fill-opacity="1" stroke="#000000" stroke-opacity="1" stroke-width="3.2"/>
<circle clip-path="url(#clip6602)" cx="1168.98" cy="1148.26" r="3" fill="#e26f46" fill-rule="evenodd" fill-opacity="1" stroke="#000000" stroke-opacity="1" stroke-width="3.2"/>
<circle clip-path="url(#clip6602)" cx="1202.91" cy="1126.19" r="3" fill="#e26f46" fill-rule="evenodd" fill-opacity="1" stroke="#000000" stroke-opacity="1" stroke-width="3.2"/>
<circle clip-path="url(#clip6602)" cx="1236.84" cy="1126.19" r="3" fill="#e26f46" fill-rule="evenodd" fill-opacity="1" stroke="#000000" stroke-opacity="1" stroke-width="3.2"/>
<circle clip-path="url(#clip6602)" cx="1270.77" cy="1104.13" r="3" fill="#e26f46" fill-rule="evenodd" fill-opacity="1" stroke="#000000" stroke-opacity="1" stroke-width="3.2"/>
<circle clip-path="url(#clip6602)" cx="1304.7" cy="1104.13" r="3" fill="#e26f46" fill-rule="evenodd" fill-opacity="1" stroke="#000000" stroke-opacity="1" stroke-width="3.2"/>
<circle clip-path="url(#clip6602)" cx="1338.62" cy="1082.06" r="3" fill="#e26f46" fill-rule="evenodd" fill-opacity="1" stroke="#000000" stroke-opacity="1" stroke-width="3.2"/>
<circle clip-path="url(#clip6602)" cx="1372.55" cy="1082.06" r="3" fill="#e26f46" fill-rule="evenodd" fill-opacity="1" stroke="#000000" stroke-opacity="1" stroke-width="3.2"/>
<circle clip-path="url(#clip6602)" cx="1406.48" cy="1059.99" r="3" fill="#e26f46" fill-rule="evenodd" fill-opacity="1" stroke="#000000" stroke-opacity="1" stroke-width="3.2"/>
<circle clip-path="url(#clip6602)" cx="1440.41" cy="1059.99" r="3" fill="#e26f46" fill-rule="evenodd" fill-opacity="1" stroke="#000000" stroke-opacity="1" stroke-width="3.2"/>
<circle clip-path="url(#clip6602)" cx="1474.34" cy="1037.92" r="3" fill="#e26f46" fill-rule="evenodd" fill-opacity="1" stroke="#000000" stroke-opacity="1" stroke-width="3.2"/>
<circle clip-path="url(#clip6602)" cx="1508.27" cy="1037.92" r="3" fill="#e26f46" fill-rule="evenodd" fill-opacity="1" stroke="#000000" stroke-opacity="1" stroke-width="3.2"/>
<circle clip-path="url(#clip6602)" cx="1542.2" cy="1015.85" r="3" fill="#e26f46" fill-rule="evenodd" fill-opacity="1" stroke="#000000" stroke-opacity="1" stroke-width="3.2"/>
<circle clip-path="url(#clip6602)" cx="1576.13" cy="1015.85" r="3" fill="#e26f46" fill-rule="evenodd" fill-opacity="1" stroke="#000000" stroke-opacity="1" stroke-width="3.2"/>
<circle clip-path="url(#clip6602)" cx="1610.05" cy="993.781" r="3" fill="#e26f46" fill-rule="evenodd" fill-opacity="1" stroke="#000000" stroke-opacity="1" stroke-width="3.2"/>
<circle clip-path="url(#clip6602)" cx="1643.98" cy="993.781" r="3" fill="#e26f46" fill-rule="evenodd" fill-opacity="1" stroke="#000000" stroke-opacity="1" stroke-width="3.2"/>
<circle clip-path="url(#clip6602)" cx="1677.91" cy="971.712" r="3" fill="#e26f46" fill-rule="evenodd" fill-opacity="1" stroke="#000000" stroke-opacity="1" stroke-width="3.2"/>
<circle clip-path="url(#clip6602)" cx="1711.84" cy="971.712" r="3" fill="#e26f46" fill-rule="evenodd" fill-opacity="1" stroke="#000000" stroke-opacity="1" stroke-width="3.2"/>
<circle clip-path="url(#clip6602)" cx="1745.77" cy="949.643" r="3" fill="#e26f46" fill-rule="evenodd" fill-opacity="1" stroke="#000000" stroke-opacity="1" stroke-width="3.2"/>
<circle clip-path="url(#clip6602)" cx="1779.7" cy="949.643" r="3" fill="#e26f46" fill-rule="evenodd" fill-opacity="1" stroke="#000000" stroke-opacity="1" stroke-width="3.2"/>
<circle clip-path="url(#clip6602)" cx="1813.63" cy="927.574" r="3" fill="#e26f46" fill-rule="evenodd" fill-opacity="1" stroke="#000000" stroke-opacity="1" stroke-width="3.2"/>
<circle clip-path="url(#clip6602)" cx="1847.56" cy="927.574" r="3" fill="#e26f46" fill-rule="evenodd" fill-opacity="1" stroke="#000000" stroke-opacity="1" stroke-width="3.2"/>
<circle clip-path="url(#clip6602)" cx="1881.49" cy="905.505" r="3" fill="#e26f46" fill-rule="evenodd" fill-opacity="1" stroke="#000000" stroke-opacity="1" stroke-width="3.2"/>
<circle clip-path="url(#clip6602)" cx="1915.41" cy="905.505" r="3" fill="#e26f46" fill-rule="evenodd" fill-opacity="1" stroke="#000000" stroke-opacity="1" stroke-width="3.2"/>
<circle clip-path="url(#clip6602)" cx="1949.34" cy="883.436" r="3" fill="#e26f46" fill-rule="evenodd" fill-opacity="1" stroke="#000000" stroke-opacity="1" stroke-width="3.2"/>
<circle clip-path="url(#clip6602)" cx="1983.27" cy="883.436" r="3" fill="#e26f46" fill-rule="evenodd" fill-opacity="1" stroke="#000000" stroke-opacity="1" stroke-width="3.2"/>
<circle clip-path="url(#clip6602)" cx="2017.2" cy="861.367" r="3" fill="#e26f46" fill-rule="evenodd" fill-opacity="1" stroke="#000000" stroke-opacity="1" stroke-width="3.2"/>
<circle clip-path="url(#clip6602)" cx="2051.13" cy="861.367" r="3" fill="#e26f46" fill-rule="evenodd" fill-opacity="1" stroke="#000000" stroke-opacity="1" stroke-width="3.2"/>
<circle clip-path="url(#clip6602)" cx="2085.06" cy="839.298" r="3" fill="#e26f46" fill-rule="evenodd" fill-opacity="1" stroke="#000000" stroke-opacity="1" stroke-width="3.2"/>
<circle clip-path="url(#clip6602)" cx="2118.99" cy="839.298" r="3" fill="#e26f46" fill-rule="evenodd" fill-opacity="1" stroke="#000000" stroke-opacity="1" stroke-width="3.2"/>
<circle clip-path="url(#clip6602)" cx="2152.92" cy="817.229" r="3" fill="#e26f46" fill-rule="evenodd" fill-opacity="1" stroke="#000000" stroke-opacity="1" stroke-width="3.2"/>
<circle clip-path="url(#clip6602)" cx="2186.84" cy="817.229" r="3" fill="#e26f46" fill-rule="evenodd" fill-opacity="1" stroke="#000000" stroke-opacity="1" stroke-width="3.2"/>
<circle clip-path="url(#clip6602)" cx="2220.77" cy="795.16" r="3" fill="#e26f46" fill-rule="evenodd" fill-opacity="1" stroke="#000000" stroke-opacity="1" stroke-width="3.2"/>
<circle clip-path="url(#clip6602)" cx="2254.7" cy="795.16" r="3" fill="#e26f46" fill-rule="evenodd" fill-opacity="1" stroke="#000000" stroke-opacity="1" stroke-width="3.2"/>
<circle clip-path="url(#clip6602)" cx="2288.63" cy="773.092" r="3" fill="#e26f46" fill-rule="evenodd" fill-opacity="1" stroke="#000000" stroke-opacity="1" stroke-width="3.2"/>
<path clip-path="url(#clip6600)" d="
M1968.95 312.204 L2280.76 312.204 L2280.76 130.764 L1968.95 130.764  Z
  " fill="#ffffff" fill-rule="evenodd" fill-opacity="1"/>
<polyline clip-path="url(#clip6600)" style="stroke:#000000; stroke-width:4; stroke-opacity:1; fill:none" points="
  1968.95,312.204 2280.76,312.204 2280.76,130.764 1968.95,130.764 1968.95,312.204 
  "/>
<polyline clip-path="url(#clip6600)" style="stroke:#009af9; stroke-width:4; stroke-opacity:1; fill:none" points="
  1992.95,191.244 2136.95,191.244 
  "/>
<circle clip-path="url(#clip6600)" cx="2076.95" cy="191.244" r="23" fill="#009af9" fill-rule="evenodd" fill-opacity="1" stroke="#000000" stroke-opacity="1" stroke-width="20.48"/>
<path clip-path="url(#clip6600)" d="M 0 0 M2176.14 186.58 Q2175.42 186.163 2174.56 185.978 Q2173.73 185.77 2172.71 185.77 Q2169.1 185.77 2167.15 188.131 Q2165.23 190.469 2165.23 194.867 L2165.23 208.524 L2160.95 208.524 L2160.95 182.598 L2165.23 182.598 L2165.23 186.626 Q2166.58 184.265 2168.73 183.131 Q2170.88 181.973 2173.96 181.973 Q2174.4 181.973 2174.93 182.043 Q2175.46 182.089 2176.11 182.205 L2176.14 186.58 Z" fill="#000000" fill-rule="evenodd" fill-opacity="1" /><path clip-path="url(#clip6600)" d="M 0 0 M2190.83 172.552 Q2187.73 177.876 2186.23 183.084 Q2184.72 188.293 2184.72 193.64 Q2184.72 198.987 2186.23 204.242 Q2187.76 209.473 2190.83 214.774 L2187.13 214.774 Q2183.66 209.334 2181.92 204.08 Q2180.21 198.825 2180.21 193.64 Q2180.21 188.478 2181.92 183.246 Q2183.64 178.015 2187.13 172.552 L2190.83 172.552 Z" fill="#000000" fill-rule="evenodd" fill-opacity="1" /><path clip-path="url(#clip6600)" d="M 0 0 M2199.52 175.237 L2199.52 182.598 L2208.29 182.598 L2208.29 185.908 L2199.52 185.908 L2199.52 199.982 Q2199.52 203.154 2200.37 204.057 Q2201.25 204.959 2203.91 204.959 L2208.29 204.959 L2208.29 208.524 L2203.91 208.524 Q2198.98 208.524 2197.11 206.695 Q2195.23 204.844 2195.23 199.982 L2195.23 185.908 L2192.11 185.908 L2192.11 182.598 L2195.23 182.598 L2195.23 175.237 L2199.52 175.237 Z" fill="#000000" fill-rule="evenodd" fill-opacity="1" /><path clip-path="url(#clip6600)" d="M 0 0 M2212.08 172.552 L2215.79 172.552 Q2219.26 178.015 2220.97 183.246 Q2222.71 188.478 2222.71 193.64 Q2222.71 198.825 2220.97 204.08 Q2219.26 209.334 2215.79 214.774 L2212.08 214.774 Q2215.16 209.473 2216.67 204.242 Q2218.2 198.987 2218.2 193.64 Q2218.2 188.293 2216.67 183.084 Q2215.16 177.876 2212.08 172.552 Z" fill="#000000" fill-rule="evenodd" fill-opacity="1" /><polyline clip-path="url(#clip6600)" style="stroke:#e26f46; stroke-width:4; stroke-opacity:1; fill:none" points="
  1992.95,251.724 2136.95,251.724 
  "/>
<circle clip-path="url(#clip6600)" cx="2076.95" cy="251.724" r="23" fill="#e26f46" fill-rule="evenodd" fill-opacity="1" stroke="#000000" stroke-opacity="1" stroke-width="20.48"/>
<path clip-path="url(#clip6600)" d="M 0 0 M2174.79 271.411 Q2172.99 276.041 2171.27 277.453 Q2169.56 278.865 2166.69 278.865 L2163.29 278.865 L2163.29 275.3 L2165.79 275.3 Q2167.55 275.3 2168.52 274.467 Q2169.49 273.634 2170.67 270.532 L2171.44 268.587 L2160.95 243.078 L2165.46 243.078 L2173.57 263.356 L2181.67 243.078 L2186.18 243.078 L2174.79 271.411 Z" fill="#000000" fill-rule="evenodd" fill-opacity="1" /><path clip-path="url(#clip6600)" d="M 0 0 M2200.88 233.032 Q2197.78 238.356 2196.27 243.564 Q2194.77 248.773 2194.77 254.12 Q2194.77 259.467 2196.27 264.722 Q2197.8 269.953 2200.88 275.254 L2197.18 275.254 Q2193.71 269.814 2191.97 264.56 Q2190.26 259.305 2190.26 254.12 Q2190.26 248.958 2191.97 243.726 Q2193.68 238.495 2197.18 233.032 L2200.88 233.032 Z" fill="#000000" fill-rule="evenodd" fill-opacity="1" /><path clip-path="url(#clip6600)" d="M 0 0 M2209.56 235.717 L2209.56 243.078 L2218.33 243.078 L2218.33 246.388 L2209.56 246.388 L2209.56 260.462 Q2209.56 263.634 2210.42 264.537 Q2211.3 265.439 2213.96 265.439 L2218.33 265.439 L2218.33 269.004 L2213.96 269.004 Q2209.03 269.004 2207.15 267.175 Q2205.28 265.324 2205.28 260.462 L2205.28 246.388 L2202.15 246.388 L2202.15 243.078 L2205.28 243.078 L2205.28 235.717 L2209.56 235.717 Z" fill="#000000" fill-rule="evenodd" fill-opacity="1" /><path clip-path="url(#clip6600)" d="M 0 0 M2222.13 233.032 L2225.83 233.032 Q2229.31 238.495 2231.02 243.726 Q2232.76 248.958 2232.76 254.12 Q2232.76 259.305 2231.02 264.56 Q2229.31 269.814 2225.83 275.254 L2222.13 275.254 Q2225.21 269.953 2226.71 264.722 Q2228.24 259.467 2228.24 254.12 Q2228.24 248.773 2226.71 243.564 Q2225.21 238.356 2222.13 233.032 Z" fill="#000000" fill-rule="evenodd" fill-opacity="1" /></svg>
