<?xml version="1.0" encoding="utf-8"?>
<svg xmlns="http://www.w3.org/2000/svg" xmlns:xlink="http://www.w3.org/1999/xlink" width="600" height="400" viewBox="0 0 2400 1600">
<defs>
  <clipPath id="clip6900">
    <rect x="0" y="0" width="2400" height="1600"/>
  </clipPath>
</defs>
<path clip-path="url(#clip6900)" d="
M0 1600 L2400 1600 L2400 0 L0 0  Z
  " fill="#ffffff" fill-rule="evenodd" fill-opacity="1"/>
<defs>
  <clipPath id="clip6901">
    <rect x="480" y="0" width="1681" height="1600"/>
  </clipPath>
</defs>
<path clip-path="url(#clip6900)" d="
M86.9921 1521.01 L2352.76 1521.01 L2352.76 47.2441 L86.9921 47.2441  Z
  " fill="#ffffff" fill-rule="evenodd" fill-opacity="1"/>
<defs>
  <clipPath id="clip6902">
    <rect x="86" y="47" width="2267" height="1475"/>
  </clipPath>
</defs>
<polyline clip-path="url(#clip6902)" style="stroke:#000000; stroke-width:2; stroke-opacity:0.1; fill:none" points="
  151.118,1521.01 151.118,47.2441 
  "/>
<polyline clip-path="url(#clip6902)" style="stroke:#000000; stroke-width:2; stroke-opacity:0.1; fill:none" points="
  693.978,1521.01 693.978,47.2441 
  "/>
<polyline clip-path="url(#clip6902)" style="stroke:#000000; stroke-width:2; stroke-opacity:0.1; fill:none" points="
  1236.84,1521.01 1236.84,47.2441 
  "/>
<polyline clip-path="url(#clip6902)" style="stroke:#000000; stroke-width:2; stroke-opacity:0.1; fill:none" points="
  1779.7,1521.01 1779.7,47.2441 
  "/>
<polyline clip-path="url(#clip6902)" style="stroke:#000000; stroke-width:2; stroke-opacity:0.1; fill:none" points="
  2322.56,1521.01 2322.56,47.2441 
  "/>
<polyline clip-path="url(#clip6902)" style="stroke:#000000; stroke-width:2; stroke-opacity:0.1; fill:none" points="
  86.9921,1229.53 2352.76,1229.53 
  "/>
<polyline clip-path="url(#clip6902)" style="stroke:#000000; stroke-width:2; stroke-opacity:0.1; fill:none" points="
  86.9921,929.469 2352.76,929.469 
  "/>
<polyline clip-path="url(#clip6902)" style="stroke:#000000; stroke-width:2; stroke-opacity:0.1; fill:none" points="
  86.9921,629.406 2352.76,629.406 
  "/>
<polyline clip-path="url(#clip6902)" style="stroke:#000000; stroke-width:2; stroke-opacity:0.1; fill:none" points="
  86.9921,329.343 2352.76,329.343 
  "/>
<polyline clip-path="url(#clip6900)" style="stroke:#000000; stroke-width:4; stroke-opacity:1; fill:none" points="
  86.9921,1521.01 2352.76,1521.01 
  "/>
<polyline clip-path="url(#clip6900)" style="stroke:#000000; stroke-width:4; stroke-opacity:1; fill:none" points="
  86.9921,1521.01 86.9921,47.2441 
  "/>
<polyline clip-path="url(#clip6900)" style="stroke:#000000; stroke-width:4; stroke-opacity:1; fill:none" points="
  151.118,1521.01 151.118,1503.32 
  "/>
<polyline clip-path="url(#clip6900)" style="stroke:#000000; stroke-width:4; stroke-opacity:1; fill:none" points="
  693.978,1521.01 693.978,1503.32 
  "/>
<polyline clip-path="url(#clip6900)" style="stroke:#000000; stroke-width:4; stroke-opacity:1; fill:none" points="
  1236.84,1521.01 1236.84,1503.32 
  "/>
<polyline clip-path="url(#clip6900)" style="stroke:#000000; stroke-width:4; stroke-opacity:1; fill:none" points="
  1779.7,1521.01 1779.7,1503.32 
  "/>
<polyline clip-path="url(#clip6900)" style="stroke:#000000; stroke-width:4; stroke-opacity:1; fill:none" points="
  2322.56,1521.01 2322.56,1503.32 
  "/>
<polyline clip-path="url(#clip6900)" style="stroke:#000000; stroke-width:4; stroke-opacity:1; fill:none" points="
  86.9921,1229.53 114.181,1229.53 
  "/>
<polyline clip-path="url(#clip6900)" style="stroke:#000000; stroke-width:4; stroke-opacity:1; fill:none" points="
  86.9921,929.469 114.181,929.469 
  "/>
<polyline clip-path="url(#clip6900)" style="stroke:#000000; stroke-width:4; stroke-opacity:1; fill:none" points="
  86.9921,629.406 114.181,629.406 
  "/>
<polyline clip-path="url(#clip6900)" style="stroke:#000000; stroke-width:4; stroke-opacity:1; fill:none" points="
  86.9921,329.343 114.181,329.343 
  "/>
<path clip-path="url(#clip6900)" d="M 0 0 M119.127 1543 Q115.516 1543 113.687 1546.56 Q111.882 1550.11 111.882 1557.23 Q111.882 1564.34 113.687 1567.91 Q115.516 1571.45 119.127 1571.45 Q122.761 1571.45 124.567 1567.91 Q126.395 1564.34 126.395 1557.23 Q126.395 1550.11 124.567 1546.56 Q122.761 1543 119.127 1543 M119.127 1539.29 Q124.937 1539.29 127.993 1543.9 Q131.071 1548.48 131.071 1557.23 Q131.071 1565.96 127.993 1570.57 Q124.937 1575.15 119.127 1575.15 Q113.317 1575.15 110.238 1570.57 Q107.183 1565.96 107.183 1557.23 Q107.183 1548.48 110.238 1543.9 Q113.317 1539.29 119.127 1539.29 Z" fill="#000000" fill-rule="evenodd" fill-opacity="1" /><path clip-path="url(#clip6900)" d="M 0 0 M136.141 1568.6 L141.025 1568.6 L141.025 1574.48 L136.141 1574.48 L136.141 1568.6 Z" fill="#000000" fill-rule="evenodd" fill-opacity="1" /><path clip-path="url(#clip6900)" d="M 0 0 M156.094 1543 Q152.483 1543 150.655 1546.56 Q148.849 1550.11 148.849 1557.23 Q148.849 1564.34 150.655 1567.91 Q152.483 1571.45 156.094 1571.45 Q159.729 1571.45 161.534 1567.91 Q163.363 1564.34 163.363 1557.23 Q163.363 1550.11 161.534 1546.56 Q159.729 1543 156.094 1543 M156.094 1539.29 Q161.904 1539.29 164.96 1543.9 Q168.039 1548.48 168.039 1557.23 Q168.039 1565.96 164.96 1570.57 Q161.904 1575.15 156.094 1575.15 Q150.284 1575.15 147.205 1570.57 Q144.15 1565.96 144.15 1557.23 Q144.15 1548.48 147.205 1543.9 Q150.284 1539.29 156.094 1539.29 Z" fill="#000000" fill-rule="evenodd" fill-opacity="1" /><path clip-path="url(#clip6900)" d="M 0 0 M183.108 1543 Q179.497 1543 177.668 1546.56 Q175.863 1550.11 175.863 1557.23 Q175.863 1564.34 177.668 1567.91 Q179.497 1571.45 183.108 1571.45 Q186.742 1571.45 188.548 1567.91 Q190.377 1564.34 190.377 1557.23 Q190.377 1550.11 188.548 1546.56 Q186.742 1543 183.108 1543 M183.108 1539.29 Q188.918 1539.29 191.974 1543.9 Q195.052 1548.48 195.052 1557.23 Q195.052 1565.96 191.974 1570.57 Q188.918 1575.15 183.108 1575.15 Q177.298 1575.15 174.219 1570.57 Q171.164 1565.96 171.164 1557.23 Q171.164 1548.48 174.219 1543.9 Q177.298 1539.29 183.108 1539.29 Z" fill="#000000" fill-rule="evenodd" fill-opacity="1" /><path clip-path="url(#clip6900)" d="M 0 0 M663.284 1543 Q659.673 1543 657.844 1546.56 Q656.038 1550.11 656.038 1557.23 Q656.038 1564.34 657.844 1567.91 Q659.673 1571.45 663.284 1571.45 Q666.918 1571.45 668.723 1567.91 Q670.552 1564.34 670.552 1557.23 Q670.552 1550.11 668.723 1546.56 Q666.918 1543 663.284 1543 M663.284 1539.29 Q669.094 1539.29 672.149 1543.9 Q675.228 1548.48 675.228 1557.23 Q675.228 1565.96 672.149 1570.57 Q669.094 1575.15 663.284 1575.15 Q657.474 1575.15 654.395 1570.57 Q651.339 1565.96 651.339 1557.23 Q651.339 1548.48 654.395 1543.9 Q657.474 1539.29 663.284 1539.29 Z" fill="#000000" fill-rule="evenodd" fill-opacity="1" /><path clip-path="url(#clip6900)" d="M 0 0 M680.297 1568.6 L685.182 1568.6 L685.182 1574.48 L680.297 1574.48 L680.297 1568.6 Z" fill="#000000" fill-rule="evenodd" fill-opacity="1" /><path clip-path="url(#clip6900)" d="M 0 0 M694.279 1570.54 L710.598 1570.54 L710.598 1574.48 L688.654 1574.48 L688.654 1570.54 Q691.316 1567.79 695.899 1563.16 Q700.506 1558.51 701.686 1557.17 Q703.932 1554.64 704.811 1552.91 Q705.714 1551.15 705.714 1549.46 Q705.714 1546.7 703.77 1544.97 Q701.848 1543.23 698.746 1543.23 Q696.547 1543.23 694.094 1543.99 Q691.663 1544.76 688.885 1546.31 L688.885 1541.59 Q691.709 1540.45 694.163 1539.87 Q696.617 1539.29 698.654 1539.29 Q704.024 1539.29 707.219 1541.98 Q710.413 1544.67 710.413 1549.16 Q710.413 1551.29 709.603 1553.21 Q708.816 1555.1 706.709 1557.7 Q706.131 1558.37 703.029 1561.59 Q699.927 1564.78 694.279 1570.54 Z" fill="#000000" fill-rule="evenodd" fill-opacity="1" /><path clip-path="url(#clip6900)" d="M 0 0 M715.714 1539.92 L734.07 1539.92 L734.07 1543.86 L719.996 1543.86 L719.996 1552.33 Q721.015 1551.98 722.033 1551.82 Q723.052 1551.63 724.07 1551.63 Q729.857 1551.63 733.237 1554.8 Q736.617 1557.98 736.617 1563.39 Q736.617 1568.97 733.144 1572.07 Q729.672 1575.15 723.353 1575.15 Q721.177 1575.15 718.908 1574.78 Q716.663 1574.41 714.256 1573.67 L714.256 1568.97 Q716.339 1570.1 718.561 1570.66 Q720.783 1571.22 723.26 1571.22 Q727.265 1571.22 729.603 1569.11 Q731.941 1567 731.941 1563.39 Q731.941 1559.78 729.603 1557.67 Q727.265 1555.57 723.26 1555.57 Q721.385 1555.57 719.51 1555.98 Q717.658 1556.4 715.714 1557.28 L715.714 1539.92 Z" fill="#000000" fill-rule="evenodd" fill-opacity="1" /><path clip-path="url(#clip6900)" d="M 0 0 M1205.35 1543 Q1201.73 1543 1199.91 1546.56 Q1198.1 1550.11 1198.1 1557.23 Q1198.1 1564.34 1199.91 1567.91 Q1201.73 1571.45 1205.35 1571.45 Q1208.98 1571.45 1210.79 1567.91 Q1212.61 1564.34 1212.61 1557.23 Q1212.61 1550.11 1210.79 1546.56 Q1208.98 1543 1205.35 1543 M1205.35 1539.29 Q1211.16 1539.29 1214.21 1543.9 Q1217.29 1548.48 1217.29 1557.23 Q1217.29 1565.96 1214.21 1570.57 Q1211.16 1575.15 1205.35 1575.15 Q1199.54 1575.15 1196.46 1570.57 Q1193.4 1565.96 1193.4 1557.23 Q1193.4 1548.48 1196.46 1543.9 Q1199.54 1539.29 1205.35 1539.29 Z" fill="#000000" fill-rule="evenodd" fill-opacity="1" /><path clip-path="url(#clip6900)" d="M 0 0 M1222.36 1568.6 L1227.24 1568.6 L1227.24 1574.48 L1222.36 1574.48 L1222.36 1568.6 Z" fill="#000000" fill-rule="evenodd" fill-opacity="1" /><path clip-path="url(#clip6900)" d="M 0 0 M1232.36 1539.92 L1250.72 1539.92 L1250.72 1543.86 L1236.64 1543.86 L1236.64 1552.33 Q1237.66 1551.98 1238.68 1551.82 Q1239.7 1551.63 1240.72 1551.63 Q1246.5 1551.63 1249.88 1554.8 Q1253.26 1557.98 1253.26 1563.39 Q1253.26 1568.97 1249.79 1572.07 Q1246.32 1575.15 1240 1575.15 Q1237.82 1575.15 1235.55 1574.78 Q1233.31 1574.41 1230.9 1573.67 L1230.9 1568.97 Q1232.98 1570.1 1235.21 1570.66 Q1237.43 1571.22 1239.91 1571.22 Q1243.91 1571.22 1246.25 1569.11 Q1248.59 1567 1248.59 1563.39 Q1248.59 1559.78 1246.25 1557.67 Q1243.91 1555.57 1239.91 1555.57 Q1238.03 1555.57 1236.16 1555.98 Q1234.3 1556.4 1232.36 1557.28 L1232.36 1539.92 Z" fill="#000000" fill-rule="evenodd" fill-opacity="1" /><path clip-path="url(#clip6900)" d="M 0 0 M1268.33 1543 Q1264.72 1543 1262.89 1546.56 Q1261.09 1550.11 1261.09 1557.23 Q1261.09 1564.34 1262.89 1567.91 Q1264.72 1571.45 1268.33 1571.45 Q1271.97 1571.45 1273.77 1567.91 Q1275.6 1564.34 1275.6 1557.23 Q1275.6 1550.11 1273.77 1546.56 Q1271.97 1543 1268.33 1543 M1268.33 1539.29 Q1274.14 1539.29 1277.2 1543.9 Q1280.28 1548.48 1280.28 1557.23 Q1280.28 1565.96 1277.2 1570.57 Q1274.14 1575.15 1268.33 1575.15 Q1262.52 1575.15 1259.44 1570.57 Q1256.39 1565.96 1256.39 1557.23 Q1256.39 1548.48 1259.44 1543.9 Q1262.52 1539.29 1268.33 1539.29 Z" fill="#000000" fill-rule="evenodd" fill-opacity="1" /><path clip-path="url(#clip6900)" d="M 0 0 M1748.66 1543 Q1745.05 1543 1743.22 1546.56 Q1741.41 1550.11 1741.41 1557.23 Q1741.41 1564.34 1743.22 1567.91 Q1745.05 1571.45 1748.66 1571.45 Q1752.29 1571.45 1754.1 1567.91 Q1755.93 1564.34 1755.93 1557.23 Q1755.93 1550.11 1754.1 1546.56 Q1752.29 1543 1748.66 1543 M1748.66 1539.29 Q1754.47 1539.29 1757.52 1543.9 Q1760.6 1548.48 1760.6 1557.23 Q1760.6 1565.96 1757.52 1570.57 Q1754.47 1575.15 1748.66 1575.15 Q1742.85 1575.15 1739.77 1570.57 Q1736.71 1565.96 1736.71 1557.23 Q1736.71 1548.48 1739.77 1543.9 Q1742.85 1539.29 1748.66 1539.29 Z" fill="#000000" fill-rule="evenodd" fill-opacity="1" /><path clip-path="url(#clip6900)" d="M 0 0 M1765.67 1568.6 L1770.56 1568.6 L1770.56 1574.48 L1765.67 1574.48 L1765.67 1568.6 Z" fill="#000000" fill-rule="evenodd" fill-opacity="1" /><path clip-path="url(#clip6900)" d="M 0 0 M1774.44 1539.92 L1796.67 1539.92 L1796.67 1541.91 L1784.12 1574.48 L1779.24 1574.48 L1791.04 1543.86 L1774.44 1543.86 L1774.44 1539.92 Z" fill="#000000" fill-rule="evenodd" fill-opacity="1" /><path clip-path="url(#clip6900)" d="M 0 0 M1801.78 1539.92 L1820.14 1539.92 L1820.14 1543.86 L1806.06 1543.86 L1806.06 1552.33 Q1807.08 1551.98 1808.1 1551.82 Q1809.12 1551.63 1810.14 1551.63 Q1815.93 1551.63 1819.31 1554.8 Q1822.68 1557.98 1822.68 1563.39 Q1822.68 1568.97 1819.21 1572.07 Q1815.74 1575.15 1809.42 1575.15 Q1807.24 1575.15 1804.98 1574.78 Q1802.73 1574.41 1800.32 1573.67 L1800.32 1568.97 Q1802.41 1570.1 1804.63 1570.66 Q1806.85 1571.22 1809.33 1571.22 Q1813.33 1571.22 1815.67 1569.11 Q1818.01 1567 1818.01 1563.39 Q1818.01 1559.78 1815.67 1557.67 Q1813.33 1555.57 1809.33 1555.57 Q1807.45 1555.57 1805.58 1555.98 Q1803.73 1556.4 1801.78 1557.28 L1801.78 1539.92 Z" fill="#000000" fill-rule="evenodd" fill-opacity="1" /><path clip-path="url(#clip6900)" d="M 0 0 M2280.95 1570.54 L2288.59 1570.54 L2288.59 1544.18 L2280.28 1545.85 L2280.28 1541.59 L2288.54 1539.92 L2293.22 1539.92 L2293.22 1570.54 L2300.86 1570.54 L2300.86 1574.48 L2280.95 1574.48 L2280.95 1570.54 Z" fill="#000000" fill-rule="evenodd" fill-opacity="1" /><path clip-path="url(#clip6900)" d="M 0 0 M2305.93 1568.6 L2310.81 1568.6 L2310.81 1574.48 L2305.93 1574.48 L2305.93 1568.6 Z" fill="#000000" fill-rule="evenodd" fill-opacity="1" /><path clip-path="url(#clip6900)" d="M 0 0 M2325.88 1543 Q2322.27 1543 2320.44 1546.56 Q2318.64 1550.11 2318.64 1557.23 Q2318.64 1564.34 2320.44 1567.91 Q2322.27 1571.45 2325.88 1571.45 Q2329.52 1571.45 2331.32 1567.91 Q2333.15 1564.34 2333.15 1557.23 Q2333.15 1550.11 2331.32 1546.56 Q2329.52 1543 2325.88 1543 M2325.88 1539.29 Q2331.69 1539.29 2334.75 1543.9 Q2337.83 1548.48 2337.83 1557.23 Q2337.83 1565.96 2334.75 1570.57 Q2331.69 1575.15 2325.88 1575.15 Q2320.07 1575.15 2316.99 1570.57 Q2313.94 1565.96 2313.94 1557.23 Q2313.94 1548.48 2316.99 1543.9 Q2320.07 1539.29 2325.88 1539.29 Z" fill="#000000" fill-rule="evenodd" fill-opacity="1" /><path clip-path="url(#clip6900)" d="M 0 0 M2352.89 1543 Q2349.28 1543 2347.45 1546.56 Q2345.65 1550.11 2345.65 1557.23 Q2345.65 1564.34 2347.45 1567.91 Q2349.28 1571.45 2352.89 1571.45 Q2356.53 1571.45 2358.33 1567.91 Q2360.16 1564.34 2360.16 1557.23 Q2360.16 1550.11 2358.33 1546.56 Q2356.53 1543 2352.89 1543 M2352.89 1539.29 Q2358.7 1539.29 2361.76 1543.9 Q2364.84 1548.48 2364.84 1557.23 Q2364.84 1565.96 2361.76 1570.57 Q2358.7 1575.15 2352.89 1575.15 Q2347.08 1575.15 2344.01 1570.57 Q2340.95 1565.96 2340.95 1557.23 Q2340.95 1548.48 2344.01 1543.9 Q2347.08 1539.29 2352.89 1539.29 Z" fill="#000000" fill-rule="evenodd" fill-opacity="1" /><path clip-path="url(#clip6900)" d="M 0 0 M-12.4704 1231.93 L0.00635237 1231.93 L0.00635237 1235.72 L-12.4704 1235.72 L-12.4704 1231.93 Z" fill="#000000" fill-rule="evenodd" fill-opacity="1" /><path clip-path="url(#clip6900)" d="M 0 0 M15.0757 1215.33 Q11.4646 1215.33 9.63593 1218.9 Q7.83038 1222.44 7.83038 1229.57 Q7.83038 1236.67 9.63593 1240.24 Q11.4646 1243.78 15.0757 1243.78 Q18.71 1243.78 20.5155 1240.24 Q22.3442 1236.67 22.3442 1229.57 Q22.3442 1222.44 20.5155 1218.9 Q18.71 1215.33 15.0757 1215.33 M15.0757 1211.63 Q20.8859 1211.63 23.9414 1216.23 Q27.0201 1220.82 27.0201 1229.57 Q27.0201 1238.29 23.9414 1242.9 Q20.8859 1247.48 15.0757 1247.48 Q9.26556 1247.48 6.18687 1242.9 Q3.13134 1238.29 3.13134 1229.57 Q3.13134 1220.82 6.18687 1216.23 Q9.26556 1211.63 15.0757 1211.63 Z" fill="#000000" fill-rule="evenodd" fill-opacity="1" /><path clip-path="url(#clip6900)" d="M 0 0 M32.0895 1240.93 L36.9737 1240.93 L36.9737 1246.81 L32.0895 1246.81 L32.0895 1240.93 Z" fill="#000000" fill-rule="evenodd" fill-opacity="1" /><path clip-path="url(#clip6900)" d="M 0 0 M42.0895 1212.25 L60.4458 1212.25 L60.4458 1216.19 L46.3718 1216.19 L46.3718 1224.66 Q47.3904 1224.31 48.4089 1224.15 Q49.4274 1223.97 50.4459 1223.97 Q56.2329 1223.97 59.6125 1227.14 Q62.9921 1230.31 62.9921 1235.72 Q62.9921 1241.3 59.5199 1244.41 Q56.0477 1247.48 49.7283 1247.48 Q47.5524 1247.48 45.2839 1247.11 Q43.0385 1246.74 40.6311 1246 L40.6311 1241.3 Q42.7145 1242.44 44.9367 1242.99 Q47.1589 1243.55 49.6357 1243.55 Q53.6403 1243.55 55.9783 1241.44 Q58.3162 1239.34 58.3162 1235.72 Q58.3162 1232.11 55.9783 1230.01 Q53.6403 1227.9 49.6357 1227.9 Q47.7607 1227.9 45.8857 1228.32 Q44.0339 1228.73 42.0895 1229.61 L42.0895 1212.25 Z" fill="#000000" fill-rule="evenodd" fill-opacity="1" /><path clip-path="url(#clip6900)" d="M 0 0 M14.0804 915.268 Q10.4693 915.268 8.64057 918.833 Q6.83502 922.374 6.83502 929.504 Q6.83502 936.61 8.64057 940.175 Q10.4693 943.717 14.0804 943.717 Q17.7146 943.717 19.5201 940.175 Q21.3488 936.61 21.3488 929.504 Q21.3488 922.374 19.5201 918.833 Q17.7146 915.268 14.0804 915.268 M14.0804 911.564 Q19.8905 911.564 22.946 916.171 Q26.0247 920.754 26.0247 929.504 Q26.0247 938.231 22.946 942.837 Q19.8905 947.42 14.0804 947.42 Q8.2702 947.42 5.19151 942.837 Q2.13597 938.231 2.13597 929.504 Q2.13597 920.754 5.19151 916.171 Q8.2702 911.564 14.0804 911.564 Z" fill="#000000" fill-rule="evenodd" fill-opacity="1" /><path clip-path="url(#clip6900)" d="M 0 0 M31.0941 940.87 L35.9784 940.87 L35.9784 946.749 L31.0941 946.749 L31.0941 940.87 Z" fill="#000000" fill-rule="evenodd" fill-opacity="1" /><path clip-path="url(#clip6900)" d="M 0 0 M51.0477 915.268 Q47.4367 915.268 45.608 918.833 Q43.8024 922.374 43.8024 929.504 Q43.8024 936.61 45.608 940.175 Q47.4367 943.717 51.0477 943.717 Q54.682 943.717 56.4875 940.175 Q58.3162 936.61 58.3162 929.504 Q58.3162 922.374 56.4875 918.833 Q54.682 915.268 51.0477 915.268 M51.0477 911.564 Q56.8579 911.564 59.9134 916.171 Q62.9921 920.754 62.9921 929.504 Q62.9921 938.231 59.9134 942.837 Q56.8579 947.42 51.0477 947.42 Q45.2376 947.42 42.1589 942.837 Q39.1034 938.231 39.1034 929.504 Q39.1034 920.754 42.1589 916.171 Q45.2376 911.564 51.0477 911.564 Z" fill="#000000" fill-rule="evenodd" fill-opacity="1" /><path clip-path="url(#clip6900)" d="M 0 0 M15.0757 615.205 Q11.4646 615.205 9.63593 618.769 Q7.83038 622.311 7.83038 629.441 Q7.83038 636.547 9.63593 640.112 Q11.4646 643.653 15.0757 643.653 Q18.71 643.653 20.5155 640.112 Q22.3442 636.547 22.3442 629.441 Q22.3442 622.311 20.5155 618.769 Q18.71 615.205 15.0757 615.205 M15.0757 611.501 Q20.8859 611.501 23.9414 616.107 Q27.0201 620.691 27.0201 629.441 Q27.0201 638.167 23.9414 642.774 Q20.8859 647.357 15.0757 647.357 Q9.26556 647.357 6.18687 642.774 Q3.13134 638.167 3.13134 629.441 Q3.13134 620.691 6.18687 616.107 Q9.26556 611.501 15.0757 611.501 Z" fill="#000000" fill-rule="evenodd" fill-opacity="1" /><path clip-path="url(#clip6900)" d="M 0 0 M32.0895 640.806 L36.9737 640.806 L36.9737 646.686 L32.0895 646.686 L32.0895 640.806 Z" fill="#000000" fill-rule="evenodd" fill-opacity="1" /><path clip-path="url(#clip6900)" d="M 0 0 M42.0895 612.126 L60.4458 612.126 L60.4458 616.061 L46.3718 616.061 L46.3718 624.533 Q47.3904 624.186 48.4089 624.024 Q49.4274 623.839 50.4459 623.839 Q56.2329 623.839 59.6125 627.01 Q62.9921 630.181 62.9921 635.598 Q62.9921 641.177 59.5199 644.278 Q56.0477 647.357 49.7283 647.357 Q47.5524 647.357 45.2839 646.987 Q43.0385 646.616 40.6311 645.876 L40.6311 641.177 Q42.7145 642.311 44.9367 642.866 Q47.1589 643.422 49.6357 643.422 Q53.6403 643.422 55.9783 641.315 Q58.3162 639.209 58.3162 635.598 Q58.3162 631.987 55.9783 629.88 Q53.6403 627.774 49.6357 627.774 Q47.7607 627.774 45.8857 628.191 Q44.0339 628.607 42.0895 629.487 L42.0895 612.126 Z" fill="#000000" fill-rule="evenodd" fill-opacity="1" /><path clip-path="url(#clip6900)" d="M 0 0 M6.11743 342.687 L13.7563 342.687 L13.7563 316.322 L5.44614 317.988 L5.44614 313.729 L13.71 312.063 L18.3859 312.063 L18.3859 342.687 L26.0247 342.687 L26.0247 346.623 L6.11743 346.623 L6.11743 342.687 Z" fill="#000000" fill-rule="evenodd" fill-opacity="1" /><path clip-path="url(#clip6900)" d="M 0 0 M31.0941 340.743 L35.9784 340.743 L35.9784 346.623 L31.0941 346.623 L31.0941 340.743 Z" fill="#000000" fill-rule="evenodd" fill-opacity="1" /><path clip-path="url(#clip6900)" d="M 0 0 M51.0477 315.141 Q47.4367 315.141 45.608 318.706 Q43.8024 322.248 43.8024 329.377 Q43.8024 336.484 45.608 340.048 Q47.4367 343.59 51.0477 343.59 Q54.682 343.59 56.4875 340.048 Q58.3162 336.484 58.3162 329.377 Q58.3162 322.248 56.4875 318.706 Q54.682 315.141 51.0477 315.141 M51.0477 311.438 Q56.8579 311.438 59.9134 316.044 Q62.9921 320.627 62.9921 329.377 Q62.9921 338.104 59.9134 342.71 Q56.8579 347.294 51.0477 347.294 Q45.2376 347.294 42.1589 342.71 Q39.1034 338.104 39.1034 329.377 Q39.1034 320.627 42.1589 316.044 Q45.2376 311.438 51.0477 311.438 Z" fill="#000000" fill-rule="evenodd" fill-opacity="1" /><polyline clip-path="url(#clip6902)" style="stroke:#009af9; stroke-width:4; stroke-opacity:1; fill:none" points="
  151.118,929.469 185.046,920.092 218.975,910.715 252.904,901.338 286.833,891.961 320.761,882.584 354.69,873.207 388.619,863.83 422.548,854.453 456.477,845.076 
  490.405,835.699 524.334,826.322 558.263,816.945 592.192,807.568 626.12,798.191 660.049,788.814 693.978,779.437 727.907,770.061 761.836,760.684 795.764,751.307 
  829.693,741.93 863.622,732.553 897.551,723.176 931.479,713.799 965.408,704.422 999.337,695.045 1033.27,685.668 1067.19,676.291 1101.12,666.914 1135.05,657.537 
  1168.98,648.16 1202.91,638.783 1236.84,629.406 1270.77,620.029 1304.7,610.652 1338.62,601.275 1372.55,591.898 1406.48,582.521 1440.41,573.144 1474.34,563.767 
  1508.27,554.39 1542.2,545.013 1576.13,535.636 1610.05,526.259 1643.98,516.882 1677.91,507.505 1711.84,498.128 1745.77,488.751 1779.7,479.374 1813.63,469.997 
  1847.56,460.62 1881.49,451.243 1915.41,441.866 1949.34,432.489 1983.27,423.112 2017.2,413.735 2051.13,404.358 2085.06,394.981 2118.99,385.604 2152.92,376.227 
  2186.84,366.85 2220.77,357.473 2254.7,348.096 2288.63,338.719 
  "/>
<circle clip-path="url(#clip6902)" cx="151.118" cy="929.469" r="3" fill="#009af9" fill-rule="evenodd" fill-opacity="1" stroke="#000000" stroke-opacity="1" stroke-width="3.2"/>
<circle clip-path="url(#clip6902)" cx="185.046" cy="920.092" r="3" fill="#009af9" fill-rule="evenodd" fill-opacity="1" stroke="#000000" stroke-opacity="1" stroke-width="3.2"/>
<circle clip-path="url(#clip6902)" cx="218.975" cy="910.715" r="3" fill="#009af9" fill-rule="evenodd" fill-opacity="1" stroke="#000000" stroke-opacity="1" stroke-width="3.2"/>
<circle clip-path="url(#clip6902)" cx="252.904" cy="901.338" r="3" fill="#009af9" fill-rule="evenodd" fill-opacity="1" stroke="#000000" stroke-opacity="1" stroke-width="3.2"/>
<circle clip-path="url(#clip6902)" cx="286.833" cy="891.961" r="3" fill="#009af9" fill-rule="evenodd" fill-opacity="1" stroke="#000000" stroke-opacity="1" stroke-width="3.2"/>
<circle clip-path="url(#clip6902)" cx="320.761" cy="882.584" r="3" fill="#009af9" fill-rule="evenodd" fill-opacity="1" stroke="#000000" stroke-opacity="1" stroke-width="3.2"/>
<circle clip-path="url(#clip6902)" cx="354.69" cy="873.207" r="3" fill="#009af9" fill-rule="evenodd" fill-opacity="1" stroke="#000000" stroke-opacity="1" stroke-width="3.2"/>
<circle clip-path="url(#clip6902)" cx="388.619" cy="863.83" r="3" fill="#009af9" fill-rule="evenodd" fill-opacity="1" stroke="#000000" stroke-opacity="1" stroke-width="3.2"/>
<circle clip-path="url(#clip6902)" cx="422.548" cy="854.453" r="3" fill="#009af9" fill-rule="evenodd" fill-opacity="1" stroke="#000000" stroke-opacity="1" stroke-width="3.2"/>
<circle clip-path="url(#clip6902)" cx="456.477" cy="845.076" r="3" fill="#009af9" fill-rule="evenodd" fill-opacity="1" stroke="#000000" stroke-opacity="1" stroke-width="3.2"/>
<circle clip-path="url(#clip6902)" cx="490.405" cy="835.699" r="3" fill="#009af9" fill-rule="evenodd" fill-opacity="1" stroke="#000000" stroke-opacity="1" stroke-width="3.2"/>
<circle clip-path="url(#clip6902)" cx="524.334" cy="826.322" r="3" fill="#009af9" fill-rule="evenodd" fill-opacity="1" stroke="#000000" stroke-opacity="1" stroke-width="3.2"/>
<circle clip-path="url(#clip6902)" cx="558.263" cy="816.945" r="3" fill="#009af9" fill-rule="evenodd" fill-opacity="1" stroke="#000000" stroke-opacity="1" stroke-width="3.2"/>
<circle clip-path="url(#clip6902)" cx="592.192" cy="807.568" r="3" fill="#009af9" fill-rule="evenodd" fill-opacity="1" stroke="#000000" stroke-opacity="1" stroke-width="3.2"/>
<circle clip-path="url(#clip6902)" cx="626.12" cy="798.191" r="3" fill="#009af9" fill-rule="evenodd" fill-opacity="1" stroke="#000000" stroke-opacity="1" stroke-width="3.2"/>
<circle clip-path="url(#clip6902)" cx="660.049" cy="788.814" r="3" fill="#009af9" fill-rule="evenodd" fill-opacity="1" stroke="#000000" stroke-opacity="1" stroke-width="3.2"/>
<circle clip-path="url(#clip6902)" cx="693.978" cy="779.437" r="3" fill="#009af9" fill-rule="evenodd" fill-opacity="1" stroke="#000000" stroke-opacity="1" stroke-width="3.2"/>
<circle clip-path="url(#clip6902)" cx="727.907" cy="770.061" r="3" fill="#009af9" fill-rule="evenodd" fill-opacity="1" stroke="#000000" stroke-opacity="1" stroke-width="3.2"/>
<circle clip-path="url(#clip6902)" cx="761.836" cy="760.684" r="3" fill="#009af9" fill-rule="evenodd" fill-opacity="1" stroke="#000000" stroke-opacity="1" stroke-width="3.2"/>
<circle clip-path="url(#clip6902)" cx="795.764" cy="751.307" r="3" fill="#009af9" fill-rule="evenodd" fill-opacity="1" stroke="#000000" stroke-opacity="1" stroke-width="3.2"/>
<circle clip-path="url(#clip6902)" cx="829.693" cy="741.93" r="3" fill="#009af9" fill-rule="evenodd" fill-opacity="1" stroke="#000000" stroke-opacity="1" stroke-width="3.2"/>
<circle clip-path="url(#clip6902)" cx="863.622" cy="732.553" r="3" fill="#009af9" fill-rule="evenodd" fill-opacity="1" stroke="#000000" stroke-opacity="1" stroke-width="3.2"/>
<circle clip-path="url(#clip6902)" cx="897.551" cy="723.176" r="3" fill="#009af9" fill-rule="evenodd" fill-opacity="1" stroke="#000000" stroke-opacity="1" stroke-width="3.2"/>
<circle clip-path="url(#clip6902)" cx="931.479" cy="713.799" r="3" fill="#009af9" fill-rule="evenodd" fill-opacity="1" stroke="#000000" stroke-opacity="1" stroke-width="3.2"/>
<circle clip-path="url(#clip6902)" cx="965.408" cy="704.422" r="3" fill="#009af9" fill-rule="evenodd" fill-opacity="1" stroke="#000000" stroke-opacity="1" stroke-width="3.2"/>
<circle clip-path="url(#clip6902)" cx="999.337" cy="695.045" r="3" fill="#009af9" fill-rule="evenodd" fill-opacity="1" stroke="#000000" stroke-opacity="1" stroke-width="3.2"/>
<circle clip-path="url(#clip6902)" cx="1033.27" cy="685.668" r="3" fill="#009af9" fill-rule="evenodd" fill-opacity="1" stroke="#000000" stroke-opacity="1" stroke-width="3.2"/>
<circle clip-path="url(#clip6902)" cx="1067.19" cy="676.291" r="3" fill="#009af9" fill-rule="evenodd" fill-opacity="1" stroke="#000000" stroke-opacity="1" stroke-width="3.2"/>
<circle clip-path="url(#clip6902)" cx="1101.12" cy="666.914" r="3" fill="#009af9" fill-rule="evenodd" fill-opacity="1" stroke="#000000" stroke-opacity="1" stroke-width="3.2"/>
<circle clip-path="url(#clip6902)" cx="1135.05" cy="657.537" r="3" fill="#009af9" fill-rule="evenodd" fill-opacity="1" stroke="#000000" stroke-opacity="1" stroke-width="3.2"/>
<circle clip-path="url(#clip6902)" cx="1168.98" cy="648.16" r="3" fill="#009af9" fill-rule="evenodd" fill-opacity="1" stroke="#000000" stroke-opacity="1" stroke-width="3.2"/>
<circle clip-path="url(#clip6902)" cx="1202.91" cy="638.783" r="3" fill="#009af9" fill-rule="evenodd" fill-opacity="1" stroke="#000000" stroke-opacity="1" stroke-width="3.2"/>
<circle clip-path="url(#clip6902)" cx="1236.84" cy="629.406" r="3" fill="#009af9" fill-rule="evenodd" fill-opacity="1" stroke="#000000" stroke-opacity="1" stroke-width="3.2"/>
<circle clip-path="url(#clip6902)" cx="1270.77" cy="620.029" r="3" fill="#009af9" fill-rule="evenodd" fill-opacity="1" stroke="#000000" stroke-opacity="1" stroke-width="3.2"/>
<circle clip-path="url(#clip6902)" cx="1304.7" cy="610.652" r="3" fill="#009af9" fill-rule="evenodd" fill-opacity="1" stroke="#000000" stroke-opacity="1" stroke-width="3.2"/>
<circle clip-path="url(#clip6902)" cx="1338.62" cy="601.275" r="3" fill="#009af9" fill-rule="evenodd" fill-opacity="1" stroke="#000000" stroke-opacity="1" stroke-width="3.2"/>
<circle clip-path="url(#clip6902)" cx="1372.55" cy="591.898" r="3" fill="#009af9" fill-rule="evenodd" fill-opacity="1" stroke="#000000" stroke-opacity="1" stroke-width="3.2"/>
<circle clip-path="url(#clip6902)" cx="1406.48" cy="582.521" r="3" fill="#009af9" fill-rule="evenodd" fill-opacity="1" stroke="#000000" stroke-opacity="1" stroke-width="3.2"/>
<circle clip-path="url(#clip6902)" cx="1440.41" cy="573.144" r="3" fill="#009af9" fill-rule="evenodd" fill-opacity="1" stroke="#000000" stroke-opacity="1" stroke-width="3.2"/>
<circle clip-path="url(#clip6902)" cx="1474.34" cy="563.767" r="3" fill="#009af9" fill-rule="evenodd" fill-opacity="1" stroke="#000000" stroke-opacity="1" stroke-width="3.2"/>
<circle clip-path="url(#clip6902)" cx="1508.27" cy="554.39" r="3" fill="#009af9" fill-rule="evenodd" fill-opacity="1" stroke="#000000" stroke-opacity="1" stroke-width="3.2"/>
<circle clip-path="url(#clip6902)" cx="1542.2" cy="545.013" r="3" fill="#009af9" fill-rule="evenodd" fill-opacity="1" stroke="#000000" stroke-opacity="1" stroke-width="3.2"/>
<circle clip-path="url(#clip6902)" cx="1576.13" cy="535.636" r="3" fill="#009af9" fill-rule="evenodd" fill-opacity="1" stroke="#000000" stroke-opacity="1" stroke-width="3.2"/>
<circle clip-path="url(#clip6902)" cx="1610.05" cy="526.259" r="3" fill="#009af9" fill-rule="evenodd" fill-opacity="1" stroke="#000000" stroke-opacity="1" stroke-width="3.2"/>
<circle clip-path="url(#clip6902)" cx="1643.98" cy="516.882" r="3" fill="#009af9" fill-rule="evenodd" fill-opacity="1" stroke="#000000" stroke-opacity="1" stroke-width="3.2"/>
<circle clip-path="url(#clip6902)" cx="1677.91" cy="507.505" r="3" fill="#009af9" fill-rule="evenodd" fill-opacity="1" stroke="#000000" stroke-opacity="1" stroke-width="3.2"/>
<circle clip-path="url(#clip6902)" cx="1711.84" cy="498.128" r="3" fill="#009af9" fill-rule="evenodd" fill-opacity="1" stroke="#000000" stroke-opacity="1" stroke-width="3.2"/>
<circle clip-path="url(#clip6902)" cx="1745.77" cy="488.751" r="3" fill="#009af9" fill-rule="evenodd" fill-opacity="1" stroke="#000000" stroke-opacity="1" stroke-width="3.2"/>
<circle clip-path="url(#clip6902)" cx="1779.7" cy="479.374" r="3" fill="#009af9" fill-rule="evenodd" fill-opacity="1" stroke="#000000" stroke-opacity="1" stroke-width="3.2"/>
<circle clip-path="url(#clip6902)" cx="1813.63" cy="469.997" r="3" fill="#009af9" fill-rule="evenodd" fill-opacity="1" stroke="#000000" stroke-opacity="1" stroke-width="3.2"/>
<circle clip-path="url(#clip6902)" cx="1847.56" cy="460.62" r="3" fill="#009af9" fill-rule="evenodd" fill-opacity="1" stroke="#000000" stroke-opacity="1" stroke-width="3.2"/>
<circle clip-path="url(#clip6902)" cx="1881.49" cy="451.243" r="3" fill="#009af9" fill-rule="evenodd" fill-opacity="1" stroke="#000000" stroke-opacity="1" stroke-width="3.2"/>
<circle clip-path="url(#clip6902)" cx="1915.41" cy="441.866" r="3" fill="#009af9" fill-rule="evenodd" fill-opacity="1" stroke="#000000" stroke-opacity="1" stroke-width="3.2"/>
<circle clip-path="url(#clip6902)" cx="1949.34" cy="432.489" r="3" fill="#009af9" fill-rule="evenodd" fill-opacity="1" stroke="#000000" stroke-opacity="1" stroke-width="3.2"/>
<circle clip-path="url(#clip6902)" cx="1983.27" cy="423.112" r="3" fill="#009af9" fill-rule="evenodd" fill-opacity="1" stroke="#000000" stroke-opacity="1" stroke-width="3.2"/>
<circle clip-path="url(#clip6902)" cx="2017.2" cy="413.735" r="3" fill="#009af9" fill-rule="evenodd" fill-opacity="1" stroke="#000000" stroke-opacity="1" stroke-width="3.2"/>
<circle clip-path="url(#clip6902)" cx="2051.13" cy="404.358" r="3" fill="#009af9" fill-rule="evenodd" fill-opacity="1" stroke="#000000" stroke-opacity="1" stroke-width="3.2"/>
<circle clip-path="url(#clip6902)" cx="2085.06" cy="394.981" r="3" fill="#009af9" fill-rule="evenodd" fill-opacity="1" stroke="#000000" stroke-opacity="1" stroke-width="3.2"/>
<circle clip-path="url(#clip6902)" cx="2118.99" cy="385.604" r="3" fill="#009af9" fill-rule="evenodd" fill-opacity="1" stroke="#000000" stroke-opacity="1" stroke-width="3.2"/>
<circle clip-path="url(#clip6902)" cx="2152.92" cy="376.227" r="3" fill="#009af9" fill-rule="evenodd" fill-opacity="1" stroke="#000000" stroke-opacity="1" stroke-width="3.2"/>
<circle clip-path="url(#clip6902)" cx="2186.84" cy="366.85" r="3" fill="#009af9" fill-rule="evenodd" fill-opacity="1" stroke="#000000" stroke-opacity="1" stroke-width="3.2"/>
<circle clip-path="url(#clip6902)" cx="2220.77" cy="357.473" r="3" fill="#009af9" fill-rule="evenodd" fill-opacity="1" stroke="#000000" stroke-opacity="1" stroke-width="3.2"/>
<circle clip-path="url(#clip6902)" cx="2254.7" cy="348.096" r="3" fill="#009af9" fill-rule="evenodd" fill-opacity="1" stroke="#000000" stroke-opacity="1" stroke-width="3.2"/>
<circle clip-path="url(#clip6902)" cx="2288.63" cy="338.719" r="3" fill="#009af9" fill-rule="evenodd" fill-opacity="1" stroke="#000000" stroke-opacity="1" stroke-width="3.2"/>
<polyline clip-path="url(#clip6902)" style="stroke:#e26f46; stroke-width:4; stroke-opacity:1; fill:none" points="
  151.118,1479.3 185.046,1469.92 218.975,370.264 252.904,1460.54 286.833,360.887 320.761,1451.17 354.69,351.51 388.619,1441.79 422.548,342.133 456.477,1432.41 
  490.405,332.756 524.334,1423.04 558.263,323.379 592.192,1413.66 626.12,314.002 660.049,1404.28 693.978,304.625 727.907,1394.9 761.836,295.248 795.764,1385.53 
  829.693,285.871 863.622,1376.15 897.551,276.494 931.479,1366.77 965.408,267.117 999.337,1357.4 1033.27,257.74 1067.19,1348.02 1101.12,248.363 1135.05,1338.64 
  1168.98,238.986 1202.91,1329.27 1236.84,229.609 1270.77,1319.89 1304.7,220.232 1338.62,1310.51 1372.55,210.855 1406.48,1301.13 1440.41,201.478 1474.34,1291.76 
  1508.27,192.101 1542.2,1282.38 1576.13,182.724 1610.05,1273 1643.98,173.347 1677.91,1263.63 1711.84,163.97 1745.77,1254.25 1779.7,154.593 1813.63,1244.87 
  1847.56,145.216 1881.49,1235.5 1915.41,135.839 1949.34,1226.12 1983.27,126.462 2017.2,1216.74 2051.13,117.085 2085.06,1207.37 2118.99,107.708 2152.92,1197.99 
  2186.84,98.3314 2220.77,1188.61 2254.7,88.9544 2288.63,1179.23 
  "/>
<circle clip-path="url(#clip6902)" cx="151.118" cy="1479.3" r="3" fill="#e26f46" fill-rule="evenodd" fill-opacity="1" stroke="#000000" stroke-opacity="1" stroke-width="3.2"/>
<circle clip-path="url(#clip6902)" cx="185.046" cy="1469.92" r="3" fill="#e26f46" fill-rule="evenodd" fill-opacity="1" stroke="#000000" stroke-opacity="1" stroke-width="3.2"/>
<circle clip-path="url(#clip6902)" cx="218.975" cy="370.264" r="3" fill="#e26f46" fill-rule="evenodd" fill-opacity="1" stroke="#000000" stroke-opacity="1" stroke-width="3.2"/>
<circle clip-path="url(#clip6902)" cx="252.904" cy="1460.54" r="3" fill="#e26f46" fill-rule="evenodd" fill-opacity="1" stroke="#000000" stroke-opacity="1" stroke-width="3.2"/>
<circle clip-path="url(#clip6902)" cx="286.833" cy="360.887" r="3" fill="#e26f46" fill-rule="evenodd" fill-opacity="1" stroke="#000000" stroke-opacity="1" stroke-width="3.2"/>
<circle clip-path="url(#clip6902)" cx="320.761" cy="1451.17" r="3" fill="#e26f46" fill-rule="evenodd" fill-opacity="1" stroke="#000000" stroke-opacity="1" stroke-width="3.2"/>
<circle clip-path="url(#clip6902)" cx="354.69" cy="351.51" r="3" fill="#e26f46" fill-rule="evenodd" fill-opacity="1" stroke="#000000" stroke-opacity="1" stroke-width="3.2"/>
<circle clip-path="url(#clip6902)" cx="388.619" cy="1441.79" r="3" fill="#e26f46" fill-rule="evenodd" fill-opacity="1" stroke="#000000" stroke-opacity="1" stroke-width="3.2"/>
<circle clip-path="url(#clip6902)" cx="422.548" cy="342.133" r="3" fill="#e26f46" fill-rule="evenodd" fill-opacity="1" stroke="#000000" stroke-opacity="1" stroke-width="3.2"/>
<circle clip-path="url(#clip6902)" cx="456.477" cy="1432.41" r="3" fill="#e26f46" fill-rule="evenodd" fill-opacity="1" stroke="#000000" stroke-opacity="1" stroke-width="3.2"/>
<circle clip-path="url(#clip6902)" cx="490.405" cy="332.756" r="3" fill="#e26f46" fill-rule="evenodd" fill-opacity="1" stroke="#000000" stroke-opacity="1" stroke-width="3.2"/>
<circle clip-path="url(#clip6902)" cx="524.334" cy="1423.04" r="3" fill="#e26f46" fill-rule="evenodd" fill-opacity="1" stroke="#000000" stroke-opacity="1" stroke-width="3.2"/>
<circle clip-path="url(#clip6902)" cx="558.263" cy="323.379" r="3" fill="#e26f46" fill-rule="evenodd" fill-opacity="1" stroke="#000000" stroke-opacity="1" stroke-width="3.2"/>
<circle clip-path="url(#clip6902)" cx="592.192" cy="1413.66" r="3" fill="#e26f46" fill-rule="evenodd" fill-opacity="1" stroke="#000000" stroke-opacity="1" stroke-width="3.2"/>
<circle clip-path="url(#clip6902)" cx="626.12" cy="314.002" r="3" fill="#e26f46" fill-rule="evenodd" fill-opacity="1" stroke="#000000" stroke-opacity="1" stroke-width="3.2"/>
<circle clip-path="url(#clip6902)" cx="660.049" cy="1404.28" r="3" fill="#e26f46" fill-rule="evenodd" fill-opacity="1" stroke="#000000" stroke-opacity="1" stroke-width="3.2"/>
<circle clip-path="url(#clip6902)" cx="693.978" cy="304.625" r="3" fill="#e26f46" fill-rule="evenodd" fill-opacity="1" stroke="#000000" stroke-opacity="1" stroke-width="3.2"/>
<circle clip-path="url(#clip6902)" cx="727.907" cy="1394.9" r="3" fill="#e26f46" fill-rule="evenodd" fill-opacity="1" stroke="#000000" stroke-opacity="1" stroke-width="3.2"/>
<circle clip-path="url(#clip6902)" cx="761.836" cy="295.248" r="3" fill="#e26f46" fill-rule="evenodd" fill-opacity="1" stroke="#000000" stroke-opacity="1" stroke-width="3.2"/>
<circle clip-path="url(#clip6902)" cx="795.764" cy="1385.53" r="3" fill="#e26f46" fill-rule="evenodd" fill-opacity="1" stroke="#000000" stroke-opacity="1" stroke-width="3.2"/>
<circle clip-path="url(#clip6902)" cx="829.693" cy="285.871" r="3" fill="#e26f46" fill-rule="evenodd" fill-opacity="1" stroke="#000000" stroke-opacity="1" stroke-width="3.2"/>
<circle clip-path="url(#clip6902)" cx="863.622" cy="1376.15" r="3" fill="#e26f46" fill-rule="evenodd" fill-opacity="1" stroke="#000000" stroke-opacity="1" stroke-width="3.2"/>
<circle clip-path="url(#clip6902)" cx="897.551" cy="276.494" r="3" fill="#e26f46" fill-rule="evenodd" fill-opacity="1" stroke="#000000" stroke-opacity="1" stroke-width="3.2"/>
<circle clip-path="url(#clip6902)" cx="931.479" cy="1366.77" r="3" fill="#e26f46" fill-rule="evenodd" fill-opacity="1" stroke="#000000" stroke-opacity="1" stroke-width="3.2"/>
<circle clip-path="url(#clip6902)" cx="965.408" cy="267.117" r="3" fill="#e26f46" fill-rule="evenodd" fill-opacity="1" stroke="#000000" stroke-opacity="1" stroke-width="3.2"/>
<circle clip-path="url(#clip6902)" cx="999.337" cy="1357.4" r="3" fill="#e26f46" fill-rule="evenodd" fill-opacity="1" stroke="#000000" stroke-opacity="1" stroke-width="3.2"/>
<circle clip-path="url(#clip6902)" cx="1033.27" cy="257.74" r="3" fill="#e26f46" fill-rule="evenodd" fill-opacity="1" stroke="#000000" stroke-opacity="1" stroke-width="3.2"/>
<circle clip-path="url(#clip6902)" cx="1067.19" cy="1348.02" r="3" fill="#e26f46" fill-rule="evenodd" fill-opacity="1" stroke="#000000" stroke-opacity="1" stroke-width="3.2"/>
<circle clip-path="url(#clip6902)" cx="1101.12" cy="248.363" r="3" fill="#e26f46" fill-rule="evenodd" fill-opacity="1" stroke="#000000" stroke-opacity="1" stroke-width="3.2"/>
<circle clip-path="url(#clip6902)" cx="1135.05" cy="1338.64" r="3" fill="#e26f46" fill-rule="evenodd" fill-opacity="1" stroke="#000000" stroke-opacity="1" stroke-width="3.2"/>
<circle clip-path="url(#clip6902)" cx="1168.98" cy="238.986" r="3" fill="#e26f46" fill-rule="evenodd" fill-opacity="1" stroke="#000000" stroke-opacity="1" stroke-width="3.2"/>
<circle clip-path="url(#clip6902)" cx="1202.91" cy="1329.27" r="3" fill="#e26f46" fill-rule="evenodd" fill-opacity="1" stroke="#000000" stroke-opacity="1" stroke-width="3.2"/>
<circle clip-path="url(#clip6902)" cx="1236.84" cy="229.609" r="3" fill="#e26f46" fill-rule="evenodd" fill-opacity="1" stroke="#000000" stroke-opacity="1" stroke-width="3.2"/>
<circle clip-path="url(#clip6902)" cx="1270.77" cy="1319.89" r="3" fill="#e26f46" fill-rule="evenodd" fill-opacity="1" stroke="#000000" stroke-opacity="1" stroke-width="3.2"/>
<circle clip-path="url(#clip6902)" cx="1304.7" cy="220.232" r="3" fill="#e26f46" fill-rule="evenodd" fill-opacity="1" stroke="#000000" stroke-opacity="1" stroke-width="3.2"/>
<circle clip-path="url(#clip6902)" cx="1338.62" cy="1310.51" r="3" fill="#e26f46" fill-rule="evenodd" fill-opacity="1" stroke="#000000" stroke-opacity="1" stroke-width="3.2"/>
<circle clip-path="url(#clip6902)" cx="1372.55" cy="210.855" r="3" fill="#e26f46" fill-rule="evenodd" fill-opacity="1" stroke="#000000" stroke-opacity="1" stroke-width="3.2"/>
<circle clip-path="url(#clip6902)" cx="1406.48" cy="1301.13" r="3" fill="#e26f46" fill-rule="evenodd" fill-opacity="1" stroke="#000000" stroke-opacity="1" stroke-width="3.2"/>
<circle clip-path="url(#clip6902)" cx="1440.41" cy="201.478" r="3" fill="#e26f46" fill-rule="evenodd" fill-opacity="1" stroke="#000000" stroke-opacity="1" stroke-width="3.2"/>
<circle clip-path="url(#clip6902)" cx="1474.34" cy="1291.76" r="3" fill="#e26f46" fill-rule="evenodd" fill-opacity="1" stroke="#000000" stroke-opacity="1" stroke-width="3.2"/>
<circle clip-path="url(#clip6902)" cx="1508.27" cy="192.101" r="3" fill="#e26f46" fill-rule="evenodd" fill-opacity="1" stroke="#000000" stroke-opacity="1" stroke-width="3.2"/>
<circle clip-path="url(#clip6902)" cx="1542.2" cy="1282.38" r="3" fill="#e26f46" fill-rule="evenodd" fill-opacity="1" stroke="#000000" stroke-opacity="1" stroke-width="3.2"/>
<circle clip-path="url(#clip6902)" cx="1576.13" cy="182.724" r="3" fill="#e26f46" fill-rule="evenodd" fill-opacity="1" stroke="#000000" stroke-opacity="1" stroke-width="3.2"/>
<circle clip-path="url(#clip6902)" cx="1610.05" cy="1273" r="3" fill="#e26f46" fill-rule="evenodd" fill-opacity="1" stroke="#000000" stroke-opacity="1" stroke-width="3.2"/>
<circle clip-path="url(#clip6902)" cx="1643.98" cy="173.347" r="3" fill="#e26f46" fill-rule="evenodd" fill-opacity="1" stroke="#000000" stroke-opacity="1" stroke-width="3.2"/>
<circle clip-path="url(#clip6902)" cx="1677.91" cy="1263.63" r="3" fill="#e26f46" fill-rule="evenodd" fill-opacity="1" stroke="#000000" stroke-opacity="1" stroke-width="3.2"/>
<circle clip-path="url(#clip6902)" cx="1711.84" cy="163.97" r="3" fill="#e26f46" fill-rule="evenodd" fill-opacity="1" stroke="#000000" stroke-opacity="1" stroke-width="3.2"/>
<circle clip-path="url(#clip6902)" cx="1745.77" cy="1254.25" r="3" fill="#e26f46" fill-rule="evenodd" fill-opacity="1" stroke="#000000" stroke-opacity="1" stroke-width="3.2"/>
<circle clip-path="url(#clip6902)" cx="1779.7" cy="154.593" r="3" fill="#e26f46" fill-rule="evenodd" fill-opacity="1" stroke="#000000" stroke-opacity="1" stroke-width="3.2"/>
<circle clip-path="url(#clip6902)" cx="1813.63" cy="1244.87" r="3" fill="#e26f46" fill-rule="evenodd" fill-opacity="1" stroke="#000000" stroke-opacity="1" stroke-width="3.2"/>
<circle clip-path="url(#clip6902)" cx="1847.56" cy="145.216" r="3" fill="#e26f46" fill-rule="evenodd" fill-opacity="1" stroke="#000000" stroke-opacity="1" stroke-width="3.2"/>
<circle clip-path="url(#clip6902)" cx="1881.49" cy="1235.5" r="3" fill="#e26f46" fill-rule="evenodd" fill-opacity="1" stroke="#000000" stroke-opacity="1" stroke-width="3.2"/>
<circle clip-path="url(#clip6902)" cx="1915.41" cy="135.839" r="3" fill="#e26f46" fill-rule="evenodd" fill-opacity="1" stroke="#000000" stroke-opacity="1" stroke-width="3.2"/>
<circle clip-path="url(#clip6902)" cx="1949.34" cy="1226.12" r="3" fill="#e26f46" fill-rule="evenodd" fill-opacity="1" stroke="#000000" stroke-opacity="1" stroke-width="3.2"/>
<circle clip-path="url(#clip6902)" cx="1983.27" cy="126.462" r="3" fill="#e26f46" fill-rule="evenodd" fill-opacity="1" stroke="#000000" stroke-opacity="1" stroke-width="3.2"/>
<circle clip-path="url(#clip6902)" cx="2017.2" cy="1216.74" r="3" fill="#e26f46" fill-rule="evenodd" fill-opacity="1" stroke="#000000" stroke-opacity="1" stroke-width="3.2"/>
<circle clip-path="url(#clip6902)" cx="2051.13" cy="117.085" r="3" fill="#e26f46" fill-rule="evenodd" fill-opacity="1" stroke="#000000" stroke-opacity="1" stroke-width="3.2"/>
<circle clip-path="url(#clip6902)" cx="2085.06" cy="1207.37" r="3" fill="#e26f46" fill-rule="evenodd" fill-opacity="1" stroke="#000000" stroke-opacity="1" stroke-width="3.2"/>
<circle clip-path="url(#clip6902)" cx="2118.99" cy="107.708" r="3" fill="#e26f46" fill-rule="evenodd" fill-opacity="1" stroke="#000000" stroke-opacity="1" stroke-width="3.2"/>
<circle clip-path="url(#clip6902)" cx="2152.92" cy="1197.99" r="3" fill="#e26f46" fill-rule="evenodd" fill-opacity="1" stroke="#000000" stroke-opacity="1" stroke-width="3.2"/>
<circle clip-path="url(#clip6902)" cx="2186.84" cy="98.3314" r="3" fill="#e26f46" fill-rule="evenodd" fill-opacity="1" stroke="#000000" stroke-opacity="1" stroke-width="3.2"/>
<circle clip-path="url(#clip6902)" cx="2220.77" cy="1188.61" r="3" fill="#e26f46" fill-rule="evenodd" fill-opacity="1" stroke="#000000" stroke-opacity="1" stroke-width="3.2"/>
<circle clip-path="url(#clip6902)" cx="2254.7" cy="88.9544" r="3" fill="#e26f46" fill-rule="evenodd" fill-opacity="1" stroke="#000000" stroke-opacity="1" stroke-width="3.2"/>
<circle clip-path="url(#clip6902)" cx="2288.63" cy="1179.23" r="3" fill="#e26f46" fill-rule="evenodd" fill-opacity="1" stroke="#000000" stroke-opacity="1" stroke-width="3.2"/>
<path clip-path="url(#clip6900)" d="
M1968.95 312.204 L2280.76 312.204 L2280.76 130.764 L1968.95 130.764  Z
  " fill="#ffffff" fill-rule="evenodd" fill-opacity="1"/>
<polyline clip-path="url(#clip6900)" style="stroke:#000000; stroke-width:4; stroke-opacity:1; fill:none" points="
  1968.95,312.204 2280.76,312.204 2280.76,130.764 1968.95,130.764 1968.95,312.204 
  "/>
<polyline clip-path="url(#clip6900)" style="stroke:#009af9; stroke-width:4; stroke-opacity:1; fill:none" points="
  1992.95,191.244 2136.95,191.244 
  "/>
<circle clip-path="url(#clip6900)" cx="2076.95" cy="191.244" r="23" fill="#009af9" fill-rule="evenodd" fill-opacity="1" stroke="#000000" stroke-opacity="1" stroke-width="20.48"/>
<path clip-path="url(#clip6900)" d="M 0 0 M2176.14 186.58 Q2175.42 186.163 2174.56 185.978 Q2173.73 185.77 2172.71 185.77 Q2169.1 185.77 2167.15 188.131 Q2165.23 190.469 2165.23 194.867 L2165.23 208.524 L2160.95 208.524 L2160.95 182.598 L2165.23 182.598 L2165.23 186.626 Q2166.58 184.265 2168.73 183.131 Q2170.88 181.973 2173.96 181.973 Q2174.4 181.973 2174.93 182.043 Q2175.46 182.089 2176.11 182.205 L2176.14 186.58 Z" fill="#000000" fill-rule="evenodd" fill-opacity="1" /><path clip-path="url(#clip6900)" d="M 0 0 M2190.83 172.552 Q2187.73 177.876 2186.23 183.084 Q2184.72 188.293 2184.72 193.64 Q2184.72 198.987 2186.23 204.242 Q2187.76 209.473 2190.83 214.774 L2187.13 214.774 Q2183.66 209.334 2181.92 204.08 Q2180.21 198.825 2180.21 193.64 Q2180.21 188.478 2181.92 183.246 Q2183.64 178.015 2187.13 172.552 L2190.83 172.552 Z" fill="#000000" fill-rule="evenodd" fill-opacity="1" /><path clip-path="url(#clip6900)" d="M 0 0 M2199.52 175.237 L2199.52 182.598 L2208.29 182.598 L2208.29 185.908 L2199.52 185.908 L2199.52 199.982 Q2199.52 203.154 2200.37 204.057 Q2201.25 204.959 2203.91 204.959 L2208.29 204.959 L2208.29 208.524 L2203.91 208.524 Q2198.98 208.524 2197.11 206.695 Q2195.23 204.844 2195.23 199.982 L2195.23 185.908 L2192.11 185.908 L2192.11 182.598 L2195.23 182.598 L2195.23 175.237 L2199.52 175.237 Z" fill="#000000" fill-rule="evenodd" fill-opacity="1" /><path clip-path="url(#clip6900)" d="M 0 0 M2212.08 172.552 L2215.79 172.552 Q2219.26 178.015 2220.97 183.246 Q2222.71 188.478 2222.71 193.64 Q2222.71 198.825 2220.97 204.08 Q2219.26 209.334 2215.79 214.774 L2212.08 214.774 Q2215.16 209.473 2216.67 204.242 Q2218.2 198.987 2218.2 193.64 Q2218.2 188.293 2216.67 183.084 Q2215.16 177.876 2212.08 172.552 Z" fill="#000000" fill-rule="evenodd" fill-opacity="1" /><polyline clip-path="url(#clip6900)" style="stroke:#e26f46; stroke-width:4; stroke-opacity:1; fill:none" points="
  1992.95,251.724 2136.95,251.724 
  "/>
<circle clip-path="url(#clip6900)" cx="2076.95" cy="251.724" r="23" fill="#e26f46" fill-rule="evenodd" fill-opacity="1" stroke="#000000" stroke-opacity="1" stroke-width="20.48"/>
<path clip-path="url(#clip6900)" d="M 0 0 M2174.79 271.411 Q2172.99 276.041 2171.27 277.453 Q2169.56 278.865 2166.69 278.865 L2163.29 278.865 L2163.29 275.3 L2165.79 275.3 Q2167.55 275.3 2168.52 274.467 Q2169.49 273.634 2170.67 270.532 L2171.44 268.587 L2160.95 243.078 L2165.46 243.078 L2173.57 263.356 L2181.67 243.078 L2186.18 243.078 L2174.79 271.411 Z" fill="#000000" fill-rule="evenodd" fill-opacity="1" /><path clip-path="url(#clip6900)" d="M 0 0 M2200.88 233.032 Q2197.78 238.356 2196.27 243.564 Q2194.77 248.773 2194.77 254.12 Q2194.77 259.467 2196.27 264.722 Q2197.8 269.953 2200.88 275.254 L2197.18 275.254 Q2193.71 269.814 2191.97 264.56 Q2190.26 259.305 2190.26 254.12 Q2190.26 248.958 2191.97 243.726 Q2193.68 238.495 2197.18 233.032 L2200.88 233.032 Z" fill="#000000" fill-rule="evenodd" fill-opacity="1" /><path clip-path="url(#clip6900)" d="M 0 0 M2209.56 235.717 L2209.56 243.078 L2218.33 243.078 L2218.33 246.388 L2209.56 246.388 L2209.56 260.462 Q2209.56 263.634 2210.42 264.537 Q2211.3 265.439 2213.96 265.439 L2218.33 265.439 L2218.33 269.004 L2213.96 269.004 Q2209.03 269.004 2207.15 267.175 Q2205.28 265.324 2205.28 260.462 L2205.28 246.388 L2202.15 246.388 L2202.15 243.078 L2205.28 243.078 L2205.28 235.717 L2209.56 235.717 Z" fill="#000000" fill-rule="evenodd" fill-opacity="1" /><path clip-path="url(#clip6900)" d="M 0 0 M2222.13 233.032 L2225.83 233.032 Q2229.31 238.495 2231.02 243.726 Q2232.76 248.958 2232.76 254.12 Q2232.76 259.305 2231.02 264.56 Q2229.31 269.814 2225.83 275.254 L2222.13 275.254 Q2225.21 269.953 2226.71 264.722 Q2228.24 259.467 2228.24 254.12 Q2228.24 248.773 2226.71 243.564 Q2225.21 238.356 2222.13 233.032 Z" fill="#000000" fill-rule="evenodd" fill-opacity="1" /></svg>
