<?xml version="1.0" encoding="utf-8"?>
<svg xmlns="http://www.w3.org/2000/svg" xmlns:xlink="http://www.w3.org/1999/xlink" width="600" height="400" viewBox="0 0 2400 1600">
<defs>
  <clipPath id="clip8100">
    <rect x="0" y="0" width="2400" height="1600"/>
  </clipPath>
</defs>
<path clip-path="url(#clip8100)" d="
M0 1600 L2400 1600 L2400 0 L0 0  Z
  " fill="#ffffff" fill-rule="evenodd" fill-opacity="1"/>
<defs>
  <clipPath id="clip8101">
    <rect x="480" y="0" width="1681" height="1600"/>
  </clipPath>
</defs>
<path clip-path="url(#clip8100)" d="
M86.9921 1521.01 L2352.76 1521.01 L2352.76 47.2441 L86.9921 47.2441  Z
  " fill="#ffffff" fill-rule="evenodd" fill-opacity="1"/>
<defs>
  <clipPath id="clip8102">
    <rect x="86" y="47" width="2267" height="1475"/>
  </clipPath>
</defs>
<polyline clip-path="url(#clip8102)" style="stroke:#000000; stroke-width:2; stroke-opacity:0.1; fill:none" points="
  151.118,1521.01 151.118,47.2441 
  "/>
<polyline clip-path="url(#clip8102)" style="stroke:#000000; stroke-width:2; stroke-opacity:0.1; fill:none" points="
  490.405,1521.01 490.405,47.2441 
  "/>
<polyline clip-path="url(#clip8102)" style="stroke:#000000; stroke-width:2; stroke-opacity:0.1; fill:none" points="
  829.693,1521.01 829.693,47.2441 
  "/>
<polyline clip-path="url(#clip8102)" style="stroke:#000000; stroke-width:2; stroke-opacity:0.1; fill:none" points="
  1168.98,1521.01 1168.98,47.2441 
  "/>
<polyline clip-path="url(#clip8102)" style="stroke:#000000; stroke-width:2; stroke-opacity:0.1; fill:none" points="
  1508.27,1521.01 1508.27,47.2441 
  "/>
<polyline clip-path="url(#clip8102)" style="stroke:#000000; stroke-width:2; stroke-opacity:0.1; fill:none" points="
  1847.56,1521.01 1847.56,47.2441 
  "/>
<polyline clip-path="url(#clip8102)" style="stroke:#000000; stroke-width:2; stroke-opacity:0.1; fill:none" points="
  2186.84,1521.01 2186.84,47.2441 
  "/>
<polyline clip-path="url(#clip8102)" style="stroke:#000000; stroke-width:2; stroke-opacity:0.1; fill:none" points="
  86.9921,1479.3 2352.76,1479.3 
  "/>
<polyline clip-path="url(#clip8102)" style="stroke:#000000; stroke-width:2; stroke-opacity:0.1; fill:none" points="
  86.9921,1131.71 2352.76,1131.71 
  "/>
<polyline clip-path="url(#clip8102)" style="stroke:#000000; stroke-width:2; stroke-opacity:0.1; fill:none" points="
  86.9921,784.126 2352.76,784.126 
  "/>
<polyline clip-path="url(#clip8102)" style="stroke:#000000; stroke-width:2; stroke-opacity:0.1; fill:none" points="
  86.9921,436.54 2352.76,436.54 
  "/>
<polyline clip-path="url(#clip8102)" style="stroke:#000000; stroke-width:2; stroke-opacity:0.1; fill:none" points="
  86.9921,88.9544 2352.76,88.9544 
  "/>
<polyline clip-path="url(#clip8100)" style="stroke:#000000; stroke-width:4; stroke-opacity:1; fill:none" points="
  86.9921,1521.01 2352.76,1521.01 
  "/>
<polyline clip-path="url(#clip8100)" style="stroke:#000000; stroke-width:4; stroke-opacity:1; fill:none" points="
  86.9921,1521.01 86.9921,47.2441 
  "/>
<polyline clip-path="url(#clip8100)" style="stroke:#000000; stroke-width:4; stroke-opacity:1; fill:none" points="
  151.118,1521.01 151.118,1503.32 
  "/>
<polyline clip-path="url(#clip8100)" style="stroke:#000000; stroke-width:4; stroke-opacity:1; fill:none" points="
  490.405,1521.01 490.405,1503.32 
  "/>
<polyline clip-path="url(#clip8100)" style="stroke:#000000; stroke-width:4; stroke-opacity:1; fill:none" points="
  829.693,1521.01 829.693,1503.32 
  "/>
<polyline clip-path="url(#clip8100)" style="stroke:#000000; stroke-width:4; stroke-opacity:1; fill:none" points="
  1168.98,1521.01 1168.98,1503.32 
  "/>
<polyline clip-path="url(#clip8100)" style="stroke:#000000; stroke-width:4; stroke-opacity:1; fill:none" points="
  1508.27,1521.01 1508.27,1503.32 
  "/>
<polyline clip-path="url(#clip8100)" style="stroke:#000000; stroke-width:4; stroke-opacity:1; fill:none" points="
  1847.56,1521.01 1847.56,1503.32 
  "/>
<polyline clip-path="url(#clip8100)" style="stroke:#000000; stroke-width:4; stroke-opacity:1; fill:none" points="
  2186.84,1521.01 2186.84,1503.32 
  "/>
<polyline clip-path="url(#clip8100)" style="stroke:#000000; stroke-width:4; stroke-opacity:1; fill:none" points="
  86.9921,1479.3 114.181,1479.3 
  "/>
<polyline clip-path="url(#clip8100)" style="stroke:#000000; stroke-width:4; stroke-opacity:1; fill:none" points="
  86.9921,1131.71 114.181,1131.71 
  "/>
<polyline clip-path="url(#clip8100)" style="stroke:#000000; stroke-width:4; stroke-opacity:1; fill:none" points="
  86.9921,784.126 114.181,784.126 
  "/>
<polyline clip-path="url(#clip8100)" style="stroke:#000000; stroke-width:4; stroke-opacity:1; fill:none" points="
  86.9921,436.54 114.181,436.54 
  "/>
<polyline clip-path="url(#clip8100)" style="stroke:#000000; stroke-width:4; stroke-opacity:1; fill:none" points="
  86.9921,88.9544 114.181,88.9544 
  "/>
<path clip-path="url(#clip8100)" d="M 0 0 M132.634 1543 Q129.023 1543 127.194 1546.56 Q125.388 1550.11 125.388 1557.23 Q125.388 1564.34 127.194 1567.91 Q129.023 1571.45 132.634 1571.45 Q136.268 1571.45 138.074 1567.91 Q139.902 1564.34 139.902 1557.23 Q139.902 1550.11 138.074 1546.56 Q136.268 1543 132.634 1543 M132.634 1539.29 Q138.444 1539.29 141.5 1543.9 Q144.578 1548.48 144.578 1557.23 Q144.578 1565.96 141.5 1570.57 Q138.444 1575.15 132.634 1575.15 Q126.824 1575.15 123.745 1570.57 Q120.689 1565.96 120.689 1557.23 Q120.689 1548.48 123.745 1543.9 Q126.824 1539.29 132.634 1539.29 Z" fill="#000000" fill-rule="evenodd" fill-opacity="1" /><path clip-path="url(#clip8100)" d="M 0 0 M149.648 1568.6 L154.532 1568.6 L154.532 1574.48 L149.648 1574.48 L149.648 1568.6 Z" fill="#000000" fill-rule="evenodd" fill-opacity="1" /><path clip-path="url(#clip8100)" d="M 0 0 M169.601 1543 Q165.99 1543 164.161 1546.56 Q162.356 1550.11 162.356 1557.23 Q162.356 1564.34 164.161 1567.91 Q165.99 1571.45 169.601 1571.45 Q173.235 1571.45 175.041 1567.91 Q176.87 1564.34 176.87 1557.23 Q176.87 1550.11 175.041 1546.56 Q173.235 1543 169.601 1543 M169.601 1539.29 Q175.411 1539.29 178.467 1543.9 Q181.546 1548.48 181.546 1557.23 Q181.546 1565.96 178.467 1570.57 Q175.411 1575.15 169.601 1575.15 Q163.791 1575.15 160.712 1570.57 Q157.657 1565.96 157.657 1557.23 Q157.657 1548.48 160.712 1543.9 Q163.791 1539.29 169.601 1539.29 Z" fill="#000000" fill-rule="evenodd" fill-opacity="1" /><path clip-path="url(#clip8100)" d="M 0 0 M472.535 1543 Q468.924 1543 467.095 1546.56 Q465.29 1550.11 465.29 1557.23 Q465.29 1564.34 467.095 1567.91 Q468.924 1571.45 472.535 1571.45 Q476.169 1571.45 477.975 1567.91 Q479.803 1564.34 479.803 1557.23 Q479.803 1550.11 477.975 1546.56 Q476.169 1543 472.535 1543 M472.535 1539.29 Q478.345 1539.29 481.401 1543.9 Q484.479 1548.48 484.479 1557.23 Q484.479 1565.96 481.401 1570.57 Q478.345 1575.15 472.535 1575.15 Q466.725 1575.15 463.646 1570.57 Q460.591 1565.96 460.591 1557.23 Q460.591 1548.48 463.646 1543.9 Q466.725 1539.29 472.535 1539.29 Z" fill="#000000" fill-rule="evenodd" fill-opacity="1" /><path clip-path="url(#clip8100)" d="M 0 0 M489.549 1568.6 L494.433 1568.6 L494.433 1574.48 L489.549 1574.48 L489.549 1568.6 Z" fill="#000000" fill-rule="evenodd" fill-opacity="1" /><path clip-path="url(#clip8100)" d="M 0 0 M500.313 1570.54 L507.951 1570.54 L507.951 1544.18 L499.641 1545.85 L499.641 1541.59 L507.905 1539.92 L512.581 1539.92 L512.581 1570.54 L520.22 1570.54 L520.22 1574.48 L500.313 1574.48 L500.313 1570.54 Z" fill="#000000" fill-rule="evenodd" fill-opacity="1" /><path clip-path="url(#clip8100)" d="M 0 0 M812.008 1543 Q808.397 1543 806.568 1546.56 Q804.763 1550.11 804.763 1557.23 Q804.763 1564.34 806.568 1567.91 Q808.397 1571.45 812.008 1571.45 Q815.642 1571.45 817.448 1567.91 Q819.276 1564.34 819.276 1557.23 Q819.276 1550.11 817.448 1546.56 Q815.642 1543 812.008 1543 M812.008 1539.29 Q817.818 1539.29 820.874 1543.9 Q823.952 1548.48 823.952 1557.23 Q823.952 1565.96 820.874 1570.57 Q817.818 1575.15 812.008 1575.15 Q806.198 1575.15 803.119 1570.57 Q800.064 1565.96 800.064 1557.23 Q800.064 1548.48 803.119 1543.9 Q806.198 1539.29 812.008 1539.29 Z" fill="#000000" fill-rule="evenodd" fill-opacity="1" /><path clip-path="url(#clip8100)" d="M 0 0 M829.022 1568.6 L833.906 1568.6 L833.906 1574.48 L829.022 1574.48 L829.022 1568.6 Z" fill="#000000" fill-rule="evenodd" fill-opacity="1" /><path clip-path="url(#clip8100)" d="M 0 0 M843.003 1570.54 L859.323 1570.54 L859.323 1574.48 L837.378 1574.48 L837.378 1570.54 Q840.04 1567.79 844.624 1563.16 Q849.23 1558.51 850.411 1557.17 Q852.656 1554.64 853.536 1552.91 Q854.438 1551.15 854.438 1549.46 Q854.438 1546.7 852.494 1544.97 Q850.573 1543.23 847.471 1543.23 Q845.272 1543.23 842.818 1543.99 Q840.387 1544.76 837.61 1546.31 L837.61 1541.59 Q840.434 1540.45 842.887 1539.87 Q845.341 1539.29 847.378 1539.29 Q852.749 1539.29 855.943 1541.98 Q859.137 1544.67 859.137 1549.16 Q859.137 1551.29 858.327 1553.21 Q857.54 1555.1 855.434 1557.7 Q854.855 1558.37 851.753 1561.59 Q848.651 1564.78 843.003 1570.54 Z" fill="#000000" fill-rule="evenodd" fill-opacity="1" /><path clip-path="url(#clip8100)" d="M 0 0 M1150.82 1543 Q1147.21 1543 1145.38 1546.56 Q1143.58 1550.11 1143.58 1557.23 Q1143.58 1564.34 1145.38 1567.91 Q1147.21 1571.45 1150.82 1571.45 Q1154.46 1571.45 1156.26 1567.91 Q1158.09 1564.34 1158.09 1557.23 Q1158.09 1550.11 1156.26 1546.56 Q1154.46 1543 1150.82 1543 M1150.82 1539.29 Q1156.63 1539.29 1159.69 1543.9 Q1162.77 1548.48 1162.77 1557.23 Q1162.77 1565.96 1159.69 1570.57 Q1156.63 1575.15 1150.82 1575.15 Q1145.01 1575.15 1141.93 1570.57 Q1138.88 1565.96 1138.88 1557.23 Q1138.88 1548.48 1141.93 1543.9 Q1145.01 1539.29 1150.82 1539.29 Z" fill="#000000" fill-rule="evenodd" fill-opacity="1" /><path clip-path="url(#clip8100)" d="M 0 0 M1167.84 1568.6 L1172.72 1568.6 L1172.72 1574.48 L1167.84 1574.48 L1167.84 1568.6 Z" fill="#000000" fill-rule="evenodd" fill-opacity="1" /><path clip-path="url(#clip8100)" d="M 0 0 M1191.96 1555.85 Q1195.31 1556.56 1197.19 1558.83 Q1199.08 1561.1 1199.08 1564.43 Q1199.08 1569.55 1195.57 1572.35 Q1192.05 1575.15 1185.57 1575.15 Q1183.39 1575.15 1181.08 1574.71 Q1178.78 1574.29 1176.33 1573.44 L1176.33 1568.92 Q1178.27 1570.06 1180.59 1570.64 Q1182.9 1571.22 1185.43 1571.22 Q1189.83 1571.22 1192.12 1569.48 Q1194.43 1567.74 1194.43 1564.43 Q1194.43 1561.38 1192.28 1559.67 Q1190.15 1557.93 1186.33 1557.93 L1182.3 1557.93 L1182.3 1554.09 L1186.52 1554.09 Q1189.96 1554.09 1191.79 1552.72 Q1193.62 1551.33 1193.62 1548.74 Q1193.62 1546.08 1191.72 1544.67 Q1189.85 1543.23 1186.33 1543.23 Q1184.41 1543.23 1182.21 1543.65 Q1180.01 1544.06 1177.37 1544.94 L1177.37 1540.78 Q1180.03 1540.04 1182.35 1539.67 Q1184.69 1539.29 1186.75 1539.29 Q1192.07 1539.29 1195.17 1541.73 Q1198.27 1544.13 1198.27 1548.25 Q1198.27 1551.12 1196.63 1553.11 Q1194.99 1555.08 1191.96 1555.85 Z" fill="#000000" fill-rule="evenodd" fill-opacity="1" /><path clip-path="url(#clip8100)" d="M 0 0 M1489.54 1543 Q1485.93 1543 1484.1 1546.56 Q1482.3 1550.11 1482.3 1557.23 Q1482.3 1564.34 1484.1 1567.91 Q1485.93 1571.45 1489.54 1571.45 Q1493.18 1571.45 1494.98 1567.91 Q1496.81 1564.34 1496.81 1557.23 Q1496.81 1550.11 1494.98 1546.56 Q1493.18 1543 1489.54 1543 M1489.54 1539.29 Q1495.35 1539.29 1498.41 1543.9 Q1501.49 1548.48 1501.49 1557.23 Q1501.49 1565.96 1498.41 1570.57 Q1495.35 1575.15 1489.54 1575.15 Q1483.73 1575.15 1480.65 1570.57 Q1477.6 1565.96 1477.6 1557.23 Q1477.6 1548.48 1480.65 1543.9 Q1483.73 1539.29 1489.54 1539.29 Z" fill="#000000" fill-rule="evenodd" fill-opacity="1" /><path clip-path="url(#clip8100)" d="M 0 0 M1506.56 1568.6 L1511.44 1568.6 L1511.44 1574.48 L1506.56 1574.48 L1506.56 1568.6 Z" fill="#000000" fill-rule="evenodd" fill-opacity="1" /><path clip-path="url(#clip8100)" d="M 0 0 M1529.36 1543.99 L1517.55 1562.44 L1529.36 1562.44 L1529.36 1543.99 M1528.13 1539.92 L1534.01 1539.92 L1534.01 1562.44 L1538.94 1562.44 L1538.94 1566.33 L1534.01 1566.33 L1534.01 1574.48 L1529.36 1574.48 L1529.36 1566.33 L1513.75 1566.33 L1513.75 1561.82 L1528.13 1539.92 Z" fill="#000000" fill-rule="evenodd" fill-opacity="1" /><path clip-path="url(#clip8100)" d="M 0 0 M1829.57 1543 Q1825.96 1543 1824.13 1546.56 Q1822.33 1550.11 1822.33 1557.23 Q1822.33 1564.34 1824.13 1567.91 Q1825.96 1571.45 1829.57 1571.45 Q1833.2 1571.45 1835.01 1567.91 Q1836.84 1564.34 1836.84 1557.23 Q1836.84 1550.11 1835.01 1546.56 Q1833.2 1543 1829.57 1543 M1829.57 1539.29 Q1835.38 1539.29 1838.44 1543.9 Q1841.51 1548.48 1841.51 1557.23 Q1841.51 1565.96 1838.44 1570.57 Q1835.38 1575.15 1829.57 1575.15 Q1823.76 1575.15 1820.68 1570.57 Q1817.63 1565.96 1817.63 1557.23 Q1817.63 1548.48 1820.68 1543.9 Q1823.76 1539.29 1829.57 1539.29 Z" fill="#000000" fill-rule="evenodd" fill-opacity="1" /><path clip-path="url(#clip8100)" d="M 0 0 M1846.58 1568.6 L1851.47 1568.6 L1851.47 1574.48 L1846.58 1574.48 L1846.58 1568.6 Z" fill="#000000" fill-rule="evenodd" fill-opacity="1" /><path clip-path="url(#clip8100)" d="M 0 0 M1856.58 1539.92 L1874.94 1539.92 L1874.94 1543.86 L1860.87 1543.86 L1860.87 1552.33 Q1861.89 1551.98 1862.9 1551.82 Q1863.92 1551.63 1864.94 1551.63 Q1870.73 1551.63 1874.11 1554.8 Q1877.49 1557.98 1877.49 1563.39 Q1877.49 1568.97 1874.01 1572.07 Q1870.54 1575.15 1864.22 1575.15 Q1862.05 1575.15 1859.78 1574.78 Q1857.53 1574.41 1855.13 1573.67 L1855.13 1568.97 Q1857.21 1570.1 1859.43 1570.66 Q1861.65 1571.22 1864.13 1571.22 Q1868.13 1571.22 1870.47 1569.11 Q1872.81 1567 1872.81 1563.39 Q1872.81 1559.78 1870.47 1557.67 Q1868.13 1555.57 1864.13 1555.57 Q1862.26 1555.57 1860.38 1555.98 Q1858.53 1556.4 1856.58 1557.28 L1856.58 1539.92 Z" fill="#000000" fill-rule="evenodd" fill-opacity="1" /><path clip-path="url(#clip8100)" d="M 0 0 M2168.28 1543 Q2164.67 1543 2162.84 1546.56 Q2161.03 1550.11 2161.03 1557.23 Q2161.03 1564.34 2162.84 1567.91 Q2164.67 1571.45 2168.28 1571.45 Q2171.91 1571.45 2173.72 1567.91 Q2175.55 1564.34 2175.55 1557.23 Q2175.55 1550.11 2173.72 1546.56 Q2171.91 1543 2168.28 1543 M2168.28 1539.29 Q2174.09 1539.29 2177.15 1543.9 Q2180.22 1548.48 2180.22 1557.23 Q2180.22 1565.96 2177.15 1570.57 Q2174.09 1575.15 2168.28 1575.15 Q2162.47 1575.15 2159.39 1570.57 Q2156.34 1565.96 2156.34 1557.23 Q2156.34 1548.48 2159.39 1543.9 Q2162.47 1539.29 2168.28 1539.29 Z" fill="#000000" fill-rule="evenodd" fill-opacity="1" /><path clip-path="url(#clip8100)" d="M 0 0 M2185.29 1568.6 L2190.18 1568.6 L2190.18 1574.48 L2185.29 1574.48 L2185.29 1568.6 Z" fill="#000000" fill-rule="evenodd" fill-opacity="1" /><path clip-path="url(#clip8100)" d="M 0 0 M2205.83 1555.34 Q2202.68 1555.34 2200.83 1557.49 Q2199 1559.64 2199 1563.39 Q2199 1567.12 2200.83 1569.29 Q2202.68 1571.45 2205.83 1571.45 Q2208.97 1571.45 2210.8 1569.29 Q2212.65 1567.12 2212.65 1563.39 Q2212.65 1559.64 2210.8 1557.49 Q2208.97 1555.34 2205.83 1555.34 M2215.11 1540.68 L2215.11 1544.94 Q2213.35 1544.11 2211.54 1543.67 Q2209.76 1543.23 2208 1543.23 Q2203.37 1543.23 2200.92 1546.36 Q2198.49 1549.48 2198.14 1555.8 Q2199.51 1553.79 2201.57 1552.72 Q2203.63 1551.63 2206.1 1551.63 Q2211.31 1551.63 2214.32 1554.8 Q2217.35 1557.95 2217.35 1563.39 Q2217.35 1568.72 2214.21 1571.93 Q2211.06 1575.15 2205.83 1575.15 Q2199.83 1575.15 2196.66 1570.57 Q2193.49 1565.96 2193.49 1557.23 Q2193.49 1549.04 2197.38 1544.18 Q2201.27 1539.29 2207.82 1539.29 Q2209.58 1539.29 2211.36 1539.64 Q2213.16 1539.99 2215.11 1540.68 Z" fill="#000000" fill-rule="evenodd" fill-opacity="1" /><path clip-path="url(#clip8100)" d="M 0 0 M-11.8686 1481.69 L0.608201 1481.69 L0.608201 1485.49 L-11.8686 1485.49 L-11.8686 1481.69 Z" fill="#000000" fill-rule="evenodd" fill-opacity="1" /><path clip-path="url(#clip8100)" d="M 0 0 M9.70537 1492.64 L26.0247 1492.64 L26.0247 1496.58 L4.0804 1496.58 L4.0804 1492.64 Q6.74243 1489.89 11.3257 1485.26 Q15.9322 1480.61 17.1127 1479.26 Q19.3581 1476.74 20.2377 1475 Q21.1405 1473.24 21.1405 1471.55 Q21.1405 1468.8 19.1961 1467.06 Q17.2748 1465.33 14.1729 1465.33 Q11.9739 1465.33 9.52019 1466.09 Q7.08965 1466.86 4.31188 1468.41 L4.31188 1463.68 Q7.13594 1462.55 9.58963 1461.97 Q12.0433 1461.39 14.0804 1461.39 Q19.4507 1461.39 22.6451 1464.08 Q25.8395 1466.76 25.8395 1471.25 Q25.8395 1473.38 25.0294 1475.3 Q24.2423 1477.2 22.1359 1479.8 Q21.5572 1480.47 18.4553 1483.68 Q15.3535 1486.88 9.70537 1492.64 Z" fill="#000000" fill-rule="evenodd" fill-opacity="1" /><path clip-path="url(#clip8100)" d="M 0 0 M31.0941 1490.7 L35.9784 1490.7 L35.9784 1496.58 L31.0941 1496.58 L31.0941 1490.7 Z" fill="#000000" fill-rule="evenodd" fill-opacity="1" /><path clip-path="url(#clip8100)" d="M 0 0 M51.0477 1465.1 Q47.4367 1465.1 45.608 1468.66 Q43.8024 1472.2 43.8024 1479.33 Q43.8024 1486.44 45.608 1490 Q47.4367 1493.55 51.0477 1493.55 Q54.682 1493.55 56.4875 1490 Q58.3162 1486.44 58.3162 1479.33 Q58.3162 1472.2 56.4875 1468.66 Q54.682 1465.1 51.0477 1465.1 M51.0477 1461.39 Q56.8579 1461.39 59.9134 1466 Q62.9921 1470.58 62.9921 1479.33 Q62.9921 1488.06 59.9134 1492.67 Q56.8579 1497.25 51.0477 1497.25 Q45.2376 1497.25 42.1589 1492.67 Q39.1034 1488.06 39.1034 1479.33 Q39.1034 1470.58 42.1589 1466 Q45.2376 1461.39 51.0477 1461.39 Z" fill="#000000" fill-rule="evenodd" fill-opacity="1" /><path clip-path="url(#clip8100)" d="M 0 0 M-11.2436 1134.11 L1.2332 1134.11 L1.2332 1137.9 L-11.2436 1137.9 L-11.2436 1134.11 Z" fill="#000000" fill-rule="evenodd" fill-opacity="1" /><path clip-path="url(#clip8100)" d="M 0 0 M7.1128 1145.06 L14.7516 1145.06 L14.7516 1118.69 L6.4415 1120.36 L6.4415 1116.1 L14.7053 1114.43 L19.3812 1114.43 L19.3812 1145.06 L27.0201 1145.06 L27.0201 1148.99 L7.1128 1148.99 L7.1128 1145.06 Z" fill="#000000" fill-rule="evenodd" fill-opacity="1" /><path clip-path="url(#clip8100)" d="M 0 0 M32.0895 1143.11 L36.9737 1143.11 L36.9737 1148.99 L32.0895 1148.99 L32.0895 1143.11 Z" fill="#000000" fill-rule="evenodd" fill-opacity="1" /><path clip-path="url(#clip8100)" d="M 0 0 M42.0895 1114.43 L60.4458 1114.43 L60.4458 1118.37 L46.3718 1118.37 L46.3718 1126.84 Q47.3904 1126.49 48.4089 1126.33 Q49.4274 1126.14 50.4459 1126.14 Q56.2329 1126.14 59.6125 1129.32 Q62.9921 1132.49 62.9921 1137.9 Q62.9921 1143.48 59.5199 1146.58 Q56.0477 1149.66 49.7283 1149.66 Q47.5524 1149.66 45.2839 1149.29 Q43.0385 1148.92 40.6311 1148.18 L40.6311 1143.48 Q42.7145 1144.62 44.9367 1145.17 Q47.1589 1145.73 49.6357 1145.73 Q53.6403 1145.73 55.9783 1143.62 Q58.3162 1141.51 58.3162 1137.9 Q58.3162 1134.29 55.9783 1132.19 Q53.6403 1130.08 49.6357 1130.08 Q47.7607 1130.08 45.8857 1130.5 Q44.0339 1130.91 42.0895 1131.79 L42.0895 1114.43 Z" fill="#000000" fill-rule="evenodd" fill-opacity="1" /><path clip-path="url(#clip8100)" d="M 0 0 M-12.239 786.522 L0.237833 786.522 L0.237833 790.318 L-12.239 790.318 L-12.239 786.522 Z" fill="#000000" fill-rule="evenodd" fill-opacity="1" /><path clip-path="url(#clip8100)" d="M 0 0 M6.11743 797.471 L13.7563 797.471 L13.7563 771.105 L5.44614 772.772 L5.44614 768.513 L13.71 766.846 L18.3859 766.846 L18.3859 797.471 L26.0247 797.471 L26.0247 801.406 L6.11743 801.406 L6.11743 797.471 Z" fill="#000000" fill-rule="evenodd" fill-opacity="1" /><path clip-path="url(#clip8100)" d="M 0 0 M31.0941 795.526 L35.9784 795.526 L35.9784 801.406 L31.0941 801.406 L31.0941 795.526 Z" fill="#000000" fill-rule="evenodd" fill-opacity="1" /><path clip-path="url(#clip8100)" d="M 0 0 M51.0477 769.925 Q47.4367 769.925 45.608 773.489 Q43.8024 777.031 43.8024 784.161 Q43.8024 791.267 45.608 794.832 Q47.4367 798.374 51.0477 798.374 Q54.682 798.374 56.4875 794.832 Q58.3162 791.267 58.3162 784.161 Q58.3162 777.031 56.4875 773.489 Q54.682 769.925 51.0477 769.925 M51.0477 766.221 Q56.8579 766.221 59.9134 770.827 Q62.9921 775.411 62.9921 784.161 Q62.9921 792.888 59.9134 797.494 Q56.8579 802.077 51.0477 802.077 Q45.2376 802.077 42.1589 797.494 Q39.1034 792.888 39.1034 784.161 Q39.1034 775.411 42.1589 770.827 Q45.2376 766.221 51.0477 766.221 Z" fill="#000000" fill-rule="evenodd" fill-opacity="1" /><path clip-path="url(#clip8100)" d="M 0 0 M-12.4704 438.936 L0.00635237 438.936 L0.00635237 442.732 L-12.4704 442.732 L-12.4704 438.936 Z" fill="#000000" fill-rule="evenodd" fill-opacity="1" /><path clip-path="url(#clip8100)" d="M 0 0 M15.0757 422.339 Q11.4646 422.339 9.63593 425.904 Q7.83038 429.445 7.83038 436.575 Q7.83038 443.681 9.63593 447.246 Q11.4646 450.788 15.0757 450.788 Q18.71 450.788 20.5155 447.246 Q22.3442 443.681 22.3442 436.575 Q22.3442 429.445 20.5155 425.904 Q18.71 422.339 15.0757 422.339 M15.0757 418.635 Q20.8859 418.635 23.9414 423.242 Q27.0201 427.825 27.0201 436.575 Q27.0201 445.302 23.9414 449.908 Q20.8859 454.491 15.0757 454.491 Q9.26556 454.491 6.18687 449.908 Q3.13134 445.302 3.13134 436.575 Q3.13134 427.825 6.18687 423.242 Q9.26556 418.635 15.0757 418.635 Z" fill="#000000" fill-rule="evenodd" fill-opacity="1" /><path clip-path="url(#clip8100)" d="M 0 0 M32.0895 447.941 L36.9737 447.941 L36.9737 453.82 L32.0895 453.82 L32.0895 447.941 Z" fill="#000000" fill-rule="evenodd" fill-opacity="1" /><path clip-path="url(#clip8100)" d="M 0 0 M42.0895 419.26 L60.4458 419.26 L60.4458 423.195 L46.3718 423.195 L46.3718 431.668 Q47.3904 431.32 48.4089 431.158 Q49.4274 430.973 50.4459 430.973 Q56.2329 430.973 59.6125 434.144 Q62.9921 437.316 62.9921 442.732 Q62.9921 448.311 59.5199 451.413 Q56.0477 454.491 49.7283 454.491 Q47.5524 454.491 45.2839 454.121 Q43.0385 453.751 40.6311 453.01 L40.6311 448.311 Q42.7145 449.445 44.9367 450.001 Q47.1589 450.556 49.6357 450.556 Q53.6403 450.556 55.9783 448.45 Q58.3162 446.343 58.3162 442.732 Q58.3162 439.121 55.9783 437.015 Q53.6403 434.908 49.6357 434.908 Q47.7607 434.908 45.8857 435.325 Q44.0339 435.742 42.0895 436.621 L42.0895 419.26 Z" fill="#000000" fill-rule="evenodd" fill-opacity="1" /><path clip-path="url(#clip8100)" d="M 0 0 M14.0804 74.7531 Q10.4693 74.7531 8.64057 78.3179 Q6.83502 81.8595 6.83502 88.9891 Q6.83502 96.0956 8.64057 99.6604 Q10.4693 103.202 14.0804 103.202 Q17.7146 103.202 19.5201 99.6604 Q21.3488 96.0956 21.3488 88.9891 Q21.3488 81.8595 19.5201 78.3179 Q17.7146 74.7531 14.0804 74.7531 M14.0804 71.0494 Q19.8905 71.0494 22.946 75.6559 Q26.0247 80.2392 26.0247 88.9891 Q26.0247 97.7159 22.946 102.322 Q19.8905 106.906 14.0804 106.906 Q8.2702 106.906 5.19151 102.322 Q2.13597 97.7159 2.13597 88.9891 Q2.13597 80.2392 5.19151 75.6559 Q8.2702 71.0494 14.0804 71.0494 Z" fill="#000000" fill-rule="evenodd" fill-opacity="1" /><path clip-path="url(#clip8100)" d="M 0 0 M31.0941 100.355 L35.9784 100.355 L35.9784 106.234 L31.0941 106.234 L31.0941 100.355 Z" fill="#000000" fill-rule="evenodd" fill-opacity="1" /><path clip-path="url(#clip8100)" d="M 0 0 M51.0477 74.7531 Q47.4367 74.7531 45.608 78.3179 Q43.8024 81.8595 43.8024 88.9891 Q43.8024 96.0956 45.608 99.6604 Q47.4367 103.202 51.0477 103.202 Q54.682 103.202 56.4875 99.6604 Q58.3162 96.0956 58.3162 88.9891 Q58.3162 81.8595 56.4875 78.3179 Q54.682 74.7531 51.0477 74.7531 M51.0477 71.0494 Q56.8579 71.0494 59.9134 75.6559 Q62.9921 80.2392 62.9921 88.9891 Q62.9921 97.7159 59.9134 102.322 Q56.8579 106.906 51.0477 106.906 Q45.2376 106.906 42.1589 102.322 Q39.1034 97.7159 39.1034 88.9891 Q39.1034 80.2392 42.1589 75.6559 Q45.2376 71.0494 51.0477 71.0494 Z" fill="#000000" fill-rule="evenodd" fill-opacity="1" /><polyline clip-path="url(#clip8102)" style="stroke:#009af9; stroke-width:4; stroke-opacity:1; fill:none" points="
  151.118,784.126 185.046,569.306 218.975,375.514 252.904,221.72 286.833,122.979 320.761,88.9544 354.69,122.979 388.619,221.72 422.548,375.514 456.477,569.306 
  490.405,784.126 524.334,998.946 558.263,1192.74 592.192,1346.53 626.12,1445.27 660.049,1479.3 693.978,1445.27 727.907,1346.53 761.836,1192.74 795.764,998.946 
  829.693,784.126 863.622,569.306 897.551,375.514 931.479,221.72 965.408,122.979 999.337,88.9544 1033.27,122.979 1067.19,221.72 1101.12,375.514 1135.05,569.306 
  1168.98,784.126 1202.91,998.946 1236.84,1192.74 1270.77,1346.53 1304.7,1445.27 1338.62,1479.3 1372.55,1445.27 1406.48,1346.53 1440.41,1192.74 1474.34,998.946 
  1508.27,784.126 1542.2,569.306 1576.13,375.514 1610.05,221.72 1643.98,122.979 1677.91,88.9544 1711.84,122.979 1745.77,221.72 1779.7,375.514 1813.63,569.306 
  1847.56,784.126 1881.49,998.946 1915.41,1192.74 1949.34,1346.53 1983.27,1445.27 2017.2,1479.3 2051.13,1445.27 2085.06,1346.53 2118.99,1192.74 2152.92,998.946 
  2186.84,784.126 2220.77,569.306 2254.7,375.514 2288.63,221.72 
  "/>
<path clip-path="url(#clip8100)" d="
M1989.74 251.724 L2280.76 251.724 L2280.76 130.764 L1989.74 130.764  Z
  " fill="#ffffff" fill-rule="evenodd" fill-opacity="1"/>
<polyline clip-path="url(#clip8100)" style="stroke:#000000; stroke-width:4; stroke-opacity:1; fill:none" points="
  1989.74,251.724 2280.76,251.724 2280.76,130.764 1989.74,130.764 1989.74,251.724 
  "/>
<polyline clip-path="url(#clip8100)" style="stroke:#009af9; stroke-width:4; stroke-opacity:1; fill:none" points="
  2013.74,191.244 2157.74,191.244 
  "/>
<path clip-path="url(#clip8100)" d="M 0 0 M2195.58 210.931 Q2193.77 215.561 2192.06 216.973 Q2190.35 218.385 2187.48 218.385 L2184.08 218.385 L2184.08 214.82 L2186.58 214.82 Q2188.33 214.82 2189.31 213.987 Q2190.28 213.154 2191.46 210.052 L2192.22 208.107 L2181.74 182.598 L2186.25 182.598 L2194.35 202.876 L2202.46 182.598 L2206.97 182.598 L2195.58 210.931 Z" fill="#000000" fill-rule="evenodd" fill-opacity="1" /><path clip-path="url(#clip8100)" d="M 0 0 M2212.85 204.589 L2220.49 204.589 L2220.49 178.223 L2212.18 179.89 L2212.18 175.631 L2220.44 173.964 L2225.12 173.964 L2225.12 204.589 L2232.76 204.589 L2232.76 208.524 L2212.85 208.524 L2212.85 204.589 Z" fill="#000000" fill-rule="evenodd" fill-opacity="1" /></svg>
