<?xml version="1.0" encoding="utf-8"?>
<svg xmlns="http://www.w3.org/2000/svg" xmlns:xlink="http://www.w3.org/1999/xlink" width="600" height="400" viewBox="0 0 2400 1600">
<defs>
  <clipPath id="clip030">
    <rect x="0" y="0" width="2400" height="1600"/>
  </clipPath>
</defs>
<path clip-path="url(#clip030)" d="
M0 1600 L2400 1600 L2400 0 L0 0  Z
  " fill="#ffffff" fill-rule="evenodd" fill-opacity="1"/>
<defs>
  <clipPath id="clip031">
    <rect x="480" y="0" width="1681" height="1600"/>
  </clipPath>
</defs>
<path clip-path="url(#clip030)" d="
M162.802 1486.45 L2352.76 1486.45 L2352.76 47.2441 L162.802 47.2441  Z
  " fill="#ffffff" fill-rule="evenodd" fill-opacity="1"/>
<defs>
  <clipPath id="clip032">
    <rect x="162" y="47" width="2191" height="1440"/>
  </clipPath>
</defs>
<polyline clip-path="url(#clip032)" style="stroke:#000000; stroke-width:2; stroke-opacity:0.1; fill:none" points="
  224.782,1486.45 224.782,47.2441 
  "/>
<polyline clip-path="url(#clip032)" style="stroke:#000000; stroke-width:2; stroke-opacity:0.1; fill:none" points="
  749.479,1486.45 749.479,47.2441 
  "/>
<polyline clip-path="url(#clip032)" style="stroke:#000000; stroke-width:2; stroke-opacity:0.1; fill:none" points="
  1274.18,1486.45 1274.18,47.2441 
  "/>
<polyline clip-path="url(#clip032)" style="stroke:#000000; stroke-width:2; stroke-opacity:0.1; fill:none" points="
  1798.87,1486.45 1798.87,47.2441 
  "/>
<polyline clip-path="url(#clip032)" style="stroke:#000000; stroke-width:2; stroke-opacity:0.1; fill:none" points="
  2323.57,1486.45 2323.57,47.2441 
  "/>
<polyline clip-path="url(#clip032)" style="stroke:#000000; stroke-width:2; stroke-opacity:0.1; fill:none" points="
  162.802,1230.6 2352.76,1230.6 
  "/>
<polyline clip-path="url(#clip032)" style="stroke:#000000; stroke-width:2; stroke-opacity:0.1; fill:none" points="
  162.802,973.998 2352.76,973.998 
  "/>
<polyline clip-path="url(#clip032)" style="stroke:#000000; stroke-width:2; stroke-opacity:0.1; fill:none" points="
  162.802,717.397 2352.76,717.397 
  "/>
<polyline clip-path="url(#clip032)" style="stroke:#000000; stroke-width:2; stroke-opacity:0.1; fill:none" points="
  162.802,460.795 2352.76,460.795 
  "/>
<polyline clip-path="url(#clip032)" style="stroke:#000000; stroke-width:2; stroke-opacity:0.1; fill:none" points="
  162.802,204.193 2352.76,204.193 
  "/>
<polyline clip-path="url(#clip030)" style="stroke:#000000; stroke-width:4; stroke-opacity:1; fill:none" points="
  162.802,1486.45 2352.76,1486.45 
  "/>
<polyline clip-path="url(#clip030)" style="stroke:#000000; stroke-width:4; stroke-opacity:1; fill:none" points="
  162.802,1486.45 162.802,47.2441 
  "/>
<polyline clip-path="url(#clip030)" style="stroke:#000000; stroke-width:4; stroke-opacity:1; fill:none" points="
  224.782,1486.45 224.782,1469.18 
  "/>
<polyline clip-path="url(#clip030)" style="stroke:#000000; stroke-width:4; stroke-opacity:1; fill:none" points="
  749.479,1486.45 749.479,1469.18 
  "/>
<polyline clip-path="url(#clip030)" style="stroke:#000000; stroke-width:4; stroke-opacity:1; fill:none" points="
  1274.18,1486.45 1274.18,1469.18 
  "/>
<polyline clip-path="url(#clip030)" style="stroke:#000000; stroke-width:4; stroke-opacity:1; fill:none" points="
  1798.87,1486.45 1798.87,1469.18 
  "/>
<polyline clip-path="url(#clip030)" style="stroke:#000000; stroke-width:4; stroke-opacity:1; fill:none" points="
  2323.57,1486.45 2323.57,1469.18 
  "/>
<polyline clip-path="url(#clip030)" style="stroke:#000000; stroke-width:4; stroke-opacity:1; fill:none" points="
  162.802,1230.6 189.081,1230.6 
  "/>
<polyline clip-path="url(#clip030)" style="stroke:#000000; stroke-width:4; stroke-opacity:1; fill:none" points="
  162.802,973.998 189.081,973.998 
  "/>
<polyline clip-path="url(#clip030)" style="stroke:#000000; stroke-width:4; stroke-opacity:1; fill:none" points="
  162.802,717.397 189.081,717.397 
  "/>
<polyline clip-path="url(#clip030)" style="stroke:#000000; stroke-width:4; stroke-opacity:1; fill:none" points="
  162.802,460.795 189.081,460.795 
  "/>
<polyline clip-path="url(#clip030)" style="stroke:#000000; stroke-width:4; stroke-opacity:1; fill:none" points="
  162.802,204.193 189.081,204.193 
  "/>
<path clip-path="url(#clip030)" d="M 0 0 M192.791 1508.44 Q189.18 1508.44 187.351 1512 Q185.546 1515.55 185.546 1522.67 Q185.546 1529.78 187.351 1533.35 Q189.18 1536.89 192.791 1536.89 Q196.425 1536.89 198.231 1533.35 Q200.06 1529.78 200.06 1522.67 Q200.06 1515.55 198.231 1512 Q196.425 1508.44 192.791 1508.44 M192.791 1504.73 Q198.601 1504.73 201.657 1509.34 Q204.736 1513.92 204.736 1522.67 Q204.736 1531.4 201.657 1536.01 Q198.601 1540.59 192.791 1540.59 Q186.981 1540.59 183.902 1536.01 Q180.847 1531.4 180.847 1522.67 Q180.847 1513.92 183.902 1509.34 Q186.981 1504.73 192.791 1504.73 Z" fill="#000000" fill-rule="evenodd" fill-opacity="1" /><path clip-path="url(#clip030)" d="M 0 0 M209.805 1534.04 L214.689 1534.04 L214.689 1539.92 L209.805 1539.92 L209.805 1534.04 Z" fill="#000000" fill-rule="evenodd" fill-opacity="1" /><path clip-path="url(#clip030)" d="M 0 0 M229.759 1508.44 Q226.147 1508.44 224.319 1512 Q222.513 1515.55 222.513 1522.67 Q222.513 1529.78 224.319 1533.35 Q226.147 1536.89 229.759 1536.89 Q233.393 1536.89 235.198 1533.35 Q237.027 1529.78 237.027 1522.67 Q237.027 1515.55 235.198 1512 Q233.393 1508.44 229.759 1508.44 M229.759 1504.73 Q235.569 1504.73 238.624 1509.34 Q241.703 1513.92 241.703 1522.67 Q241.703 1531.4 238.624 1536.01 Q235.569 1540.59 229.759 1540.59 Q223.948 1540.59 220.87 1536.01 Q217.814 1531.4 217.814 1522.67 Q217.814 1513.92 220.87 1509.34 Q223.948 1504.73 229.759 1504.73 Z" fill="#000000" fill-rule="evenodd" fill-opacity="1" /><path clip-path="url(#clip030)" d="M 0 0 M256.772 1508.44 Q253.161 1508.44 251.333 1512 Q249.527 1515.55 249.527 1522.67 Q249.527 1529.78 251.333 1533.35 Q253.161 1536.89 256.772 1536.89 Q260.407 1536.89 262.212 1533.35 Q264.041 1529.78 264.041 1522.67 Q264.041 1515.55 262.212 1512 Q260.407 1508.44 256.772 1508.44 M256.772 1504.73 Q262.582 1504.73 265.638 1509.34 Q268.717 1513.92 268.717 1522.67 Q268.717 1531.4 265.638 1536.01 Q262.582 1540.59 256.772 1540.59 Q250.962 1540.59 247.883 1536.01 Q244.828 1531.4 244.828 1522.67 Q244.828 1513.92 247.883 1509.34 Q250.962 1504.73 256.772 1504.73 Z" fill="#000000" fill-rule="evenodd" fill-opacity="1" /><path clip-path="url(#clip030)" d="M 0 0 M718.784 1508.44 Q715.173 1508.44 713.345 1512 Q711.539 1515.55 711.539 1522.67 Q711.539 1529.78 713.345 1533.35 Q715.173 1536.89 718.784 1536.89 Q722.419 1536.89 724.224 1533.35 Q726.053 1529.78 726.053 1522.67 Q726.053 1515.55 724.224 1512 Q722.419 1508.44 718.784 1508.44 M718.784 1504.73 Q724.595 1504.73 727.65 1509.34 Q730.729 1513.92 730.729 1522.67 Q730.729 1531.4 727.65 1536.01 Q724.595 1540.59 718.784 1540.59 Q712.974 1540.59 709.896 1536.01 Q706.84 1531.4 706.84 1522.67 Q706.84 1513.92 709.896 1509.34 Q712.974 1504.73 718.784 1504.73 Z" fill="#000000" fill-rule="evenodd" fill-opacity="1" /><path clip-path="url(#clip030)" d="M 0 0 M735.798 1534.04 L740.682 1534.04 L740.682 1539.92 L735.798 1539.92 L735.798 1534.04 Z" fill="#000000" fill-rule="evenodd" fill-opacity="1" /><path clip-path="url(#clip030)" d="M 0 0 M749.78 1535.98 L766.099 1535.98 L766.099 1539.92 L744.155 1539.92 L744.155 1535.98 Q746.817 1533.23 751.4 1528.6 Q756.006 1523.95 757.187 1522.61 Q759.432 1520.08 760.312 1518.35 Q761.215 1516.59 761.215 1514.9 Q761.215 1512.14 759.27 1510.41 Q757.349 1508.67 754.247 1508.67 Q752.048 1508.67 749.594 1509.43 Q747.164 1510.2 744.386 1511.75 L744.386 1507.03 Q747.21 1505.89 749.664 1505.31 Q752.118 1504.73 754.155 1504.73 Q759.525 1504.73 762.719 1507.42 Q765.914 1510.11 765.914 1514.6 Q765.914 1516.73 765.104 1518.65 Q764.317 1520.54 762.21 1523.14 Q761.631 1523.81 758.53 1527.03 Q755.428 1530.22 749.78 1535.98 Z" fill="#000000" fill-rule="evenodd" fill-opacity="1" /><path clip-path="url(#clip030)" d="M 0 0 M771.215 1505.36 L789.571 1505.36 L789.571 1509.3 L775.497 1509.3 L775.497 1517.77 Q776.516 1517.42 777.534 1517.26 Q778.553 1517.07 779.571 1517.07 Q785.358 1517.07 788.738 1520.24 Q792.117 1523.42 792.117 1528.83 Q792.117 1534.41 788.645 1537.51 Q785.173 1540.59 778.854 1540.59 Q776.678 1540.59 774.409 1540.22 Q772.164 1539.85 769.756 1539.11 L769.756 1534.41 Q771.84 1535.54 774.062 1536.1 Q776.284 1536.66 778.761 1536.66 Q782.766 1536.66 785.104 1534.55 Q787.441 1532.44 787.441 1528.83 Q787.441 1525.22 785.104 1523.11 Q782.766 1521.01 778.761 1521.01 Q776.886 1521.01 775.011 1521.42 Q773.159 1521.84 771.215 1522.72 L771.215 1505.36 Z" fill="#000000" fill-rule="evenodd" fill-opacity="1" /><path clip-path="url(#clip030)" d="M 0 0 M1242.68 1508.44 Q1239.07 1508.44 1237.24 1512 Q1235.44 1515.55 1235.44 1522.67 Q1235.44 1529.78 1237.24 1533.35 Q1239.07 1536.89 1242.68 1536.89 Q1246.32 1536.89 1248.12 1533.35 Q1249.95 1529.78 1249.95 1522.67 Q1249.95 1515.55 1248.12 1512 Q1246.32 1508.44 1242.68 1508.44 M1242.68 1504.73 Q1248.49 1504.73 1251.55 1509.34 Q1254.63 1513.92 1254.63 1522.67 Q1254.63 1531.4 1251.55 1536.01 Q1248.49 1540.59 1242.68 1540.59 Q1236.87 1540.59 1233.79 1536.01 Q1230.74 1531.4 1230.74 1522.67 Q1230.74 1513.92 1233.79 1509.34 Q1236.87 1504.73 1242.68 1504.73 Z" fill="#000000" fill-rule="evenodd" fill-opacity="1" /><path clip-path="url(#clip030)" d="M 0 0 M1259.7 1534.04 L1264.58 1534.04 L1264.58 1539.92 L1259.7 1539.92 L1259.7 1534.04 Z" fill="#000000" fill-rule="evenodd" fill-opacity="1" /><path clip-path="url(#clip030)" d="M 0 0 M1269.7 1505.36 L1288.05 1505.36 L1288.05 1509.3 L1273.98 1509.3 L1273.98 1517.77 Q1275 1517.42 1276.02 1517.26 Q1277.03 1517.07 1278.05 1517.07 Q1283.84 1517.07 1287.22 1520.24 Q1290.6 1523.42 1290.6 1528.83 Q1290.6 1534.41 1287.13 1537.51 Q1283.65 1540.59 1277.34 1540.59 Q1275.16 1540.59 1272.89 1540.22 Q1270.65 1539.85 1268.24 1539.11 L1268.24 1534.41 Q1270.32 1535.54 1272.54 1536.1 Q1274.77 1536.66 1277.24 1536.66 Q1281.25 1536.66 1283.59 1534.55 Q1285.92 1532.44 1285.92 1528.83 Q1285.92 1525.22 1283.59 1523.11 Q1281.25 1521.01 1277.24 1521.01 Q1275.37 1521.01 1273.49 1521.42 Q1271.64 1521.84 1269.7 1522.72 L1269.7 1505.36 Z" fill="#000000" fill-rule="evenodd" fill-opacity="1" /><path clip-path="url(#clip030)" d="M 0 0 M1305.67 1508.44 Q1302.06 1508.44 1300.23 1512 Q1298.42 1515.55 1298.42 1522.67 Q1298.42 1529.78 1300.23 1533.35 Q1302.06 1536.89 1305.67 1536.89 Q1309.3 1536.89 1311.11 1533.35 Q1312.94 1529.78 1312.94 1522.67 Q1312.94 1515.55 1311.11 1512 Q1309.3 1508.44 1305.67 1508.44 M1305.67 1504.73 Q1311.48 1504.73 1314.53 1509.34 Q1317.61 1513.92 1317.61 1522.67 Q1317.61 1531.4 1314.53 1536.01 Q1311.48 1540.59 1305.67 1540.59 Q1299.86 1540.59 1296.78 1536.01 Q1293.72 1531.4 1293.72 1522.67 Q1293.72 1513.92 1296.78 1509.34 Q1299.86 1504.73 1305.67 1504.73 Z" fill="#000000" fill-rule="evenodd" fill-opacity="1" /><path clip-path="url(#clip030)" d="M 0 0 M1767.83 1508.44 Q1764.22 1508.44 1762.39 1512 Q1760.59 1515.55 1760.59 1522.67 Q1760.59 1529.78 1762.39 1533.35 Q1764.22 1536.89 1767.83 1536.89 Q1771.47 1536.89 1773.27 1533.35 Q1775.1 1529.78 1775.1 1522.67 Q1775.1 1515.55 1773.27 1512 Q1771.47 1508.44 1767.83 1508.44 M1767.83 1504.73 Q1773.64 1504.73 1776.7 1509.34 Q1779.78 1513.92 1779.78 1522.67 Q1779.78 1531.4 1776.7 1536.01 Q1773.64 1540.59 1767.83 1540.59 Q1762.02 1540.59 1758.94 1536.01 Q1755.89 1531.4 1755.89 1522.67 Q1755.89 1513.92 1758.94 1509.34 Q1762.02 1504.73 1767.83 1504.73 Z" fill="#000000" fill-rule="evenodd" fill-opacity="1" /><path clip-path="url(#clip030)" d="M 0 0 M1784.84 1534.04 L1789.73 1534.04 L1789.73 1539.92 L1784.84 1539.92 L1784.84 1534.04 Z" fill="#000000" fill-rule="evenodd" fill-opacity="1" /><path clip-path="url(#clip030)" d="M 0 0 M1793.62 1505.36 L1815.84 1505.36 L1815.84 1507.35 L1803.29 1539.92 L1798.41 1539.92 L1810.22 1509.3 L1793.62 1509.3 L1793.62 1505.36 Z" fill="#000000" fill-rule="evenodd" fill-opacity="1" /><path clip-path="url(#clip030)" d="M 0 0 M1820.96 1505.36 L1839.31 1505.36 L1839.31 1509.3 L1825.24 1509.3 L1825.24 1517.77 Q1826.26 1517.42 1827.28 1517.26 Q1828.29 1517.07 1829.31 1517.07 Q1835.1 1517.07 1838.48 1520.24 Q1841.86 1523.42 1841.86 1528.83 Q1841.86 1534.41 1838.39 1537.51 Q1834.91 1540.59 1828.59 1540.59 Q1826.42 1540.59 1824.15 1540.22 Q1821.9 1539.85 1819.5 1539.11 L1819.5 1534.41 Q1821.58 1535.54 1823.8 1536.1 Q1826.03 1536.66 1828.5 1536.66 Q1832.51 1536.66 1834.84 1534.55 Q1837.18 1532.44 1837.18 1528.83 Q1837.18 1525.22 1834.84 1523.11 Q1832.51 1521.01 1828.5 1521.01 Q1826.63 1521.01 1824.75 1521.42 Q1822.9 1521.84 1820.96 1522.72 L1820.96 1505.36 Z" fill="#000000" fill-rule="evenodd" fill-opacity="1" /><path clip-path="url(#clip030)" d="M 0 0 M2281.96 1535.98 L2289.6 1535.98 L2289.6 1509.62 L2281.29 1511.29 L2281.29 1507.03 L2289.55 1505.36 L2294.23 1505.36 L2294.23 1535.98 L2301.87 1535.98 L2301.87 1539.92 L2281.96 1539.92 L2281.96 1535.98 Z" fill="#000000" fill-rule="evenodd" fill-opacity="1" /><path clip-path="url(#clip030)" d="M 0 0 M2306.94 1534.04 L2311.82 1534.04 L2311.82 1539.92 L2306.94 1539.92 L2306.94 1534.04 Z" fill="#000000" fill-rule="evenodd" fill-opacity="1" /><path clip-path="url(#clip030)" d="M 0 0 M2326.89 1508.44 Q2323.28 1508.44 2321.45 1512 Q2319.65 1515.55 2319.65 1522.67 Q2319.65 1529.78 2321.45 1533.35 Q2323.28 1536.89 2326.89 1536.89 Q2330.53 1536.89 2332.33 1533.35 Q2334.16 1529.78 2334.16 1522.67 Q2334.16 1515.55 2332.33 1512 Q2330.53 1508.44 2326.89 1508.44 M2326.89 1504.73 Q2332.7 1504.73 2335.76 1509.34 Q2338.84 1513.92 2338.84 1522.67 Q2338.84 1531.4 2335.76 1536.01 Q2332.7 1540.59 2326.89 1540.59 Q2321.08 1540.59 2318 1536.01 Q2314.95 1531.4 2314.95 1522.67 Q2314.95 1513.92 2318 1509.34 Q2321.08 1504.73 2326.89 1504.73 Z" fill="#000000" fill-rule="evenodd" fill-opacity="1" /><path clip-path="url(#clip030)" d="M 0 0 M2353.91 1508.44 Q2350.29 1508.44 2348.47 1512 Q2346.66 1515.55 2346.66 1522.67 Q2346.66 1529.78 2348.47 1533.35 Q2350.29 1536.89 2353.91 1536.89 Q2357.54 1536.89 2359.34 1533.35 Q2361.17 1529.78 2361.17 1522.67 Q2361.17 1515.55 2359.34 1512 Q2357.54 1508.44 2353.91 1508.44 M2353.91 1504.73 Q2359.72 1504.73 2362.77 1509.34 Q2365.85 1513.92 2365.85 1522.67 Q2365.85 1531.4 2362.77 1536.01 Q2359.72 1540.59 2353.91 1540.59 Q2348.09 1540.59 2345.02 1536.01 Q2341.96 1531.4 2341.96 1522.67 Q2341.96 1513.92 2345.02 1509.34 Q2348.09 1504.73 2353.91 1504.73 Z" fill="#000000" fill-rule="evenodd" fill-opacity="1" /><path clip-path="url(#clip030)" d="M 0 0 M62.9921 1233 L75.4689 1233 L75.4689 1236.79 L62.9921 1236.79 L62.9921 1233 Z" fill="#000000" fill-rule="evenodd" fill-opacity="1" /><path clip-path="url(#clip030)" d="M 0 0 M90.5383 1216.4 Q86.9272 1216.4 85.0985 1219.96 Q83.2929 1223.51 83.2929 1230.63 Q83.2929 1237.74 85.0985 1241.31 Q86.9272 1244.85 90.5383 1244.85 Q94.1725 1244.85 95.9781 1241.31 Q97.8068 1237.74 97.8068 1230.63 Q97.8068 1223.51 95.9781 1219.96 Q94.1725 1216.4 90.5383 1216.4 M90.5383 1212.69 Q96.3484 1212.69 99.404 1217.3 Q102.483 1221.88 102.483 1230.63 Q102.483 1239.36 99.404 1243.97 Q96.3484 1248.55 90.5383 1248.55 Q84.7281 1248.55 81.6494 1243.97 Q78.5939 1239.36 78.5939 1230.63 Q78.5939 1221.88 81.6494 1217.3 Q84.7281 1212.69 90.5383 1212.69 Z" fill="#000000" fill-rule="evenodd" fill-opacity="1" /><path clip-path="url(#clip030)" d="M 0 0 M107.552 1242 L112.436 1242 L112.436 1247.88 L107.552 1247.88 L107.552 1242 Z" fill="#000000" fill-rule="evenodd" fill-opacity="1" /><path clip-path="url(#clip030)" d="M 0 0 M131.672 1229.25 Q135.029 1229.96 136.904 1232.23 Q138.802 1234.5 138.802 1237.83 Q138.802 1242.95 135.283 1245.75 Q131.765 1248.55 125.283 1248.55 Q123.108 1248.55 120.793 1248.11 Q118.501 1247.69 116.047 1246.84 L116.047 1242.32 Q117.992 1243.46 120.307 1244.04 Q122.621 1244.62 125.145 1244.62 Q129.543 1244.62 131.834 1242.88 Q134.149 1241.14 134.149 1237.83 Q134.149 1234.78 131.996 1233.07 Q129.867 1231.33 126.047 1231.33 L122.02 1231.33 L122.02 1227.49 L126.233 1227.49 Q129.682 1227.49 131.51 1226.12 Q133.339 1224.73 133.339 1222.14 Q133.339 1219.48 131.441 1218.07 Q129.566 1216.63 126.047 1216.63 Q124.126 1216.63 121.927 1217.05 Q119.728 1217.46 117.089 1218.34 L117.089 1214.18 Q119.751 1213.44 122.066 1213.07 Q124.404 1212.69 126.464 1212.69 Q131.788 1212.69 134.89 1215.13 Q137.992 1217.53 137.992 1221.65 Q137.992 1224.52 136.348 1226.51 Q134.705 1228.48 131.672 1229.25 Z" fill="#000000" fill-rule="evenodd" fill-opacity="1" /><path clip-path="url(#clip030)" d="M 0 0 M89.8901 959.797 Q86.279 959.797 84.4503 963.362 Q82.6448 966.903 82.6448 974.033 Q82.6448 981.139 84.4503 984.704 Q86.279 988.246 89.8901 988.246 Q93.5244 988.246 95.3299 984.704 Q97.1586 981.139 97.1586 974.033 Q97.1586 966.903 95.3299 963.362 Q93.5244 959.797 89.8901 959.797 M89.8901 956.093 Q95.7003 956.093 98.7558 960.7 Q101.835 965.283 101.835 974.033 Q101.835 982.76 98.7558 987.366 Q95.7003 991.95 89.8901 991.95 Q84.08 991.95 81.0013 987.366 Q77.9457 982.76 77.9457 974.033 Q77.9457 965.283 81.0013 960.7 Q84.08 956.093 89.8901 956.093 Z" fill="#000000" fill-rule="evenodd" fill-opacity="1" /><path clip-path="url(#clip030)" d="M 0 0 M106.904 985.399 L111.788 985.399 L111.788 991.278 L106.904 991.278 L106.904 985.399 Z" fill="#000000" fill-rule="evenodd" fill-opacity="1" /><path clip-path="url(#clip030)" d="M 0 0 M126.858 959.797 Q123.246 959.797 121.418 963.362 Q119.612 966.903 119.612 974.033 Q119.612 981.139 121.418 984.704 Q123.246 988.246 126.858 988.246 Q130.492 988.246 132.297 984.704 Q134.126 981.139 134.126 974.033 Q134.126 966.903 132.297 963.362 Q130.492 959.797 126.858 959.797 M126.858 956.093 Q132.668 956.093 135.723 960.7 Q138.802 965.283 138.802 974.033 Q138.802 982.76 135.723 987.366 Q132.668 991.95 126.858 991.95 Q121.047 991.95 117.969 987.366 Q114.913 982.76 114.913 974.033 Q114.913 965.283 117.969 960.7 Q121.047 956.093 126.858 956.093 Z" fill="#000000" fill-rule="evenodd" fill-opacity="1" /><path clip-path="url(#clip030)" d="M 0 0 M90.5383 703.195 Q86.9272 703.195 85.0985 706.76 Q83.2929 710.302 83.2929 717.431 Q83.2929 724.538 85.0985 728.103 Q86.9272 731.644 90.5383 731.644 Q94.1725 731.644 95.9781 728.103 Q97.8068 724.538 97.8068 717.431 Q97.8068 710.302 95.9781 706.76 Q94.1725 703.195 90.5383 703.195 M90.5383 699.492 Q96.3484 699.492 99.404 704.098 Q102.483 708.681 102.483 717.431 Q102.483 726.158 99.404 730.765 Q96.3484 735.348 90.5383 735.348 Q84.7281 735.348 81.6494 730.765 Q78.5939 726.158 78.5939 717.431 Q78.5939 708.681 81.6494 704.098 Q84.7281 699.492 90.5383 699.492 Z" fill="#000000" fill-rule="evenodd" fill-opacity="1" /><path clip-path="url(#clip030)" d="M 0 0 M107.552 728.797 L112.436 728.797 L112.436 734.677 L107.552 734.677 L107.552 728.797 Z" fill="#000000" fill-rule="evenodd" fill-opacity="1" /><path clip-path="url(#clip030)" d="M 0 0 M131.672 716.043 Q135.029 716.76 136.904 719.029 Q138.802 721.297 138.802 724.63 Q138.802 729.746 135.283 732.547 Q131.765 735.348 125.283 735.348 Q123.108 735.348 120.793 734.908 Q118.501 734.492 116.047 733.635 L116.047 729.121 Q117.992 730.255 120.307 730.834 Q122.621 731.413 125.145 731.413 Q129.543 731.413 131.834 729.677 Q134.149 727.941 134.149 724.63 Q134.149 721.575 131.996 719.862 Q129.867 718.126 126.047 718.126 L122.02 718.126 L122.02 714.283 L126.233 714.283 Q129.682 714.283 131.51 712.918 Q133.339 711.529 133.339 708.936 Q133.339 706.274 131.441 704.862 Q129.566 703.427 126.047 703.427 Q124.126 703.427 121.927 703.844 Q119.728 704.26 117.089 705.14 L117.089 700.973 Q119.751 700.232 122.066 699.862 Q124.404 699.492 126.464 699.492 Q131.788 699.492 134.89 701.922 Q137.992 704.33 137.992 708.45 Q137.992 711.32 136.348 713.311 Q134.705 715.279 131.672 716.043 Z" fill="#000000" fill-rule="evenodd" fill-opacity="1" /><path clip-path="url(#clip030)" d="M 0 0 M89.7281 446.594 Q86.117 446.594 84.2883 450.159 Q82.4828 453.7 82.4828 460.83 Q82.4828 467.936 84.2883 471.501 Q86.117 475.043 89.7281 475.043 Q93.3623 475.043 95.1679 471.501 Q96.9966 467.936 96.9966 460.83 Q96.9966 453.7 95.1679 450.159 Q93.3623 446.594 89.7281 446.594 M89.7281 442.89 Q95.5382 442.89 98.5938 447.497 Q101.672 452.08 101.672 460.83 Q101.672 469.557 98.5938 474.163 Q95.5382 478.746 89.7281 478.746 Q83.9179 478.746 80.8393 474.163 Q77.7837 469.557 77.7837 460.83 Q77.7837 452.08 80.8393 447.497 Q83.9179 442.89 89.7281 442.89 Z" fill="#000000" fill-rule="evenodd" fill-opacity="1" /><path clip-path="url(#clip030)" d="M 0 0 M106.742 472.196 L111.626 472.196 L111.626 478.075 L106.742 478.075 L106.742 472.196 Z" fill="#000000" fill-rule="evenodd" fill-opacity="1" /><path clip-path="url(#clip030)" d="M 0 0 M127.274 458.932 Q124.126 458.932 122.274 461.084 Q120.446 463.237 120.446 466.987 Q120.446 470.714 122.274 472.89 Q124.126 475.043 127.274 475.043 Q130.422 475.043 132.251 472.89 Q134.103 470.714 134.103 466.987 Q134.103 463.237 132.251 461.084 Q130.422 458.932 127.274 458.932 M136.557 444.279 L136.557 448.538 Q134.797 447.705 132.992 447.265 Q131.209 446.825 129.45 446.825 Q124.82 446.825 122.367 449.95 Q119.936 453.075 119.589 459.395 Q120.955 457.381 123.015 456.316 Q125.075 455.228 127.552 455.228 Q132.76 455.228 135.77 458.399 Q138.802 461.547 138.802 466.987 Q138.802 472.311 135.654 475.529 Q132.506 478.746 127.274 478.746 Q121.279 478.746 118.108 474.163 Q114.936 469.557 114.936 460.83 Q114.936 452.635 118.825 447.774 Q122.714 442.89 129.265 442.89 Q131.024 442.89 132.807 443.237 Q134.612 443.585 136.557 444.279 Z" fill="#000000" fill-rule="evenodd" fill-opacity="1" /><path clip-path="url(#clip030)" d="M 0 0 M90.0753 189.992 Q86.4642 189.992 84.6355 193.557 Q82.83 197.099 82.83 204.228 Q82.83 211.335 84.6355 214.899 Q86.4642 218.441 90.0753 218.441 Q93.7096 218.441 95.5151 214.899 Q97.3438 211.335 97.3438 204.228 Q97.3438 197.099 95.5151 193.557 Q93.7096 189.992 90.0753 189.992 M90.0753 186.288 Q95.8855 186.288 98.941 190.895 Q102.02 195.478 102.02 204.228 Q102.02 212.955 98.941 217.561 Q95.8855 222.145 90.0753 222.145 Q84.2652 222.145 81.1865 217.561 Q78.1309 212.955 78.1309 204.228 Q78.1309 195.478 81.1865 190.895 Q84.2652 186.288 90.0753 186.288 Z" fill="#000000" fill-rule="evenodd" fill-opacity="1" /><path clip-path="url(#clip030)" d="M 0 0 M107.089 215.594 L111.973 215.594 L111.973 221.473 L107.089 221.473 L107.089 215.594 Z" fill="#000000" fill-rule="evenodd" fill-opacity="1" /><path clip-path="url(#clip030)" d="M 0 0 M117.182 220.756 L117.182 216.497 Q118.941 217.33 120.746 217.77 Q122.552 218.21 124.288 218.21 Q128.918 218.21 131.348 215.108 Q133.802 211.983 134.149 205.64 Q132.807 207.631 130.746 208.696 Q128.686 209.761 126.186 209.761 Q121.001 209.761 117.969 206.636 Q114.959 203.487 114.959 198.048 Q114.959 192.724 118.108 189.506 Q121.256 186.288 126.487 186.288 Q132.482 186.288 135.631 190.895 Q138.802 195.478 138.802 204.228 Q138.802 212.399 134.913 217.284 Q131.047 222.145 124.496 222.145 Q122.737 222.145 120.932 221.798 Q119.126 221.45 117.182 220.756 M126.487 206.103 Q129.635 206.103 131.464 203.95 Q133.316 201.798 133.316 198.048 Q133.316 194.321 131.464 192.168 Q129.635 189.992 126.487 189.992 Q123.339 189.992 121.487 192.168 Q119.658 194.321 119.658 198.048 Q119.658 201.798 121.487 203.95 Q123.339 206.103 126.487 206.103 Z" fill="#000000" fill-rule="evenodd" fill-opacity="1" /><polyline clip-path="url(#clip032)" style="stroke:#009af9; stroke-width:4; stroke-opacity:1; fill:none" points="
  224.782,973.998 257.575,960.634 290.369,947.269 323.162,933.904 355.956,920.54 388.75,907.175 421.543,893.81 454.337,880.446 487.13,867.081 519.924,853.716 
  552.717,840.352 585.511,826.987 618.304,813.622 651.098,800.258 683.892,786.893 716.685,773.528 749.479,760.164 782.272,746.799 815.066,733.434 847.859,720.07 
  880.653,706.705 913.447,693.34 946.24,679.976 979.034,666.611 1011.83,653.246 1044.62,639.882 1077.41,626.517 1110.21,613.152 1143,599.788 1175.8,586.423 
  1208.59,573.058 1241.38,559.694 1274.18,546.329 1306.97,532.964 1339.76,519.6 1372.56,506.235 1405.35,492.87 1438.14,479.506 1470.94,466.141 1503.73,452.776 
  1536.52,439.412 1569.32,426.047 1602.11,412.682 1634.9,399.318 1667.7,385.953 1700.49,372.588 1733.29,359.224 1766.08,345.859 1798.87,332.494 1831.67,319.13 
  1864.46,305.765 1897.25,292.4 1930.05,279.036 1962.84,265.671 1995.63,252.306 2028.43,238.942 2061.22,225.577 2094.01,212.212 2126.81,198.848 2159.6,185.483 
  2192.4,172.118 2225.19,158.754 2257.98,145.389 2290.78,132.024 
  "/>
<circle clip-path="url(#clip032)" cx="224.782" cy="973.998" r="10" fill="#009af9" fill-rule="evenodd" fill-opacity="1" stroke="#000000" stroke-opacity="1" stroke-width="3.2"/>
<circle clip-path="url(#clip032)" cx="257.575" cy="960.634" r="10" fill="#009af9" fill-rule="evenodd" fill-opacity="1" stroke="#000000" stroke-opacity="1" stroke-width="3.2"/>
<circle clip-path="url(#clip032)" cx="290.369" cy="947.269" r="10" fill="#009af9" fill-rule="evenodd" fill-opacity="1" stroke="#000000" stroke-opacity="1" stroke-width="3.2"/>
<circle clip-path="url(#clip032)" cx="323.162" cy="933.904" r="10" fill="#009af9" fill-rule="evenodd" fill-opacity="1" stroke="#000000" stroke-opacity="1" stroke-width="3.2"/>
<circle clip-path="url(#clip032)" cx="355.956" cy="920.54" r="10" fill="#009af9" fill-rule="evenodd" fill-opacity="1" stroke="#000000" stroke-opacity="1" stroke-width="3.2"/>
<circle clip-path="url(#clip032)" cx="388.75" cy="907.175" r="10" fill="#009af9" fill-rule="evenodd" fill-opacity="1" stroke="#000000" stroke-opacity="1" stroke-width="3.2"/>
<circle clip-path="url(#clip032)" cx="421.543" cy="893.81" r="10" fill="#009af9" fill-rule="evenodd" fill-opacity="1" stroke="#000000" stroke-opacity="1" stroke-width="3.2"/>
<circle clip-path="url(#clip032)" cx="454.337" cy="880.446" r="10" fill="#009af9" fill-rule="evenodd" fill-opacity="1" stroke="#000000" stroke-opacity="1" stroke-width="3.2"/>
<circle clip-path="url(#clip032)" cx="487.13" cy="867.081" r="10" fill="#009af9" fill-rule="evenodd" fill-opacity="1" stroke="#000000" stroke-opacity="1" stroke-width="3.2"/>
<circle clip-path="url(#clip032)" cx="519.924" cy="853.716" r="10" fill="#009af9" fill-rule="evenodd" fill-opacity="1" stroke="#000000" stroke-opacity="1" stroke-width="3.2"/>
<circle clip-path="url(#clip032)" cx="552.717" cy="840.352" r="10" fill="#009af9" fill-rule="evenodd" fill-opacity="1" stroke="#000000" stroke-opacity="1" stroke-width="3.2"/>
<circle clip-path="url(#clip032)" cx="585.511" cy="826.987" r="10" fill="#009af9" fill-rule="evenodd" fill-opacity="1" stroke="#000000" stroke-opacity="1" stroke-width="3.2"/>
<circle clip-path="url(#clip032)" cx="618.304" cy="813.622" r="10" fill="#009af9" fill-rule="evenodd" fill-opacity="1" stroke="#000000" stroke-opacity="1" stroke-width="3.2"/>
<circle clip-path="url(#clip032)" cx="651.098" cy="800.258" r="10" fill="#009af9" fill-rule="evenodd" fill-opacity="1" stroke="#000000" stroke-opacity="1" stroke-width="3.2"/>
<circle clip-path="url(#clip032)" cx="683.892" cy="786.893" r="10" fill="#009af9" fill-rule="evenodd" fill-opacity="1" stroke="#000000" stroke-opacity="1" stroke-width="3.2"/>
<circle clip-path="url(#clip032)" cx="716.685" cy="773.528" r="10" fill="#009af9" fill-rule="evenodd" fill-opacity="1" stroke="#000000" stroke-opacity="1" stroke-width="3.2"/>
<circle clip-path="url(#clip032)" cx="749.479" cy="760.164" r="10" fill="#009af9" fill-rule="evenodd" fill-opacity="1" stroke="#000000" stroke-opacity="1" stroke-width="3.2"/>
<circle clip-path="url(#clip032)" cx="782.272" cy="746.799" r="10" fill="#009af9" fill-rule="evenodd" fill-opacity="1" stroke="#000000" stroke-opacity="1" stroke-width="3.2"/>
<circle clip-path="url(#clip032)" cx="815.066" cy="733.434" r="10" fill="#009af9" fill-rule="evenodd" fill-opacity="1" stroke="#000000" stroke-opacity="1" stroke-width="3.2"/>
<circle clip-path="url(#clip032)" cx="847.859" cy="720.07" r="10" fill="#009af9" fill-rule="evenodd" fill-opacity="1" stroke="#000000" stroke-opacity="1" stroke-width="3.2"/>
<circle clip-path="url(#clip032)" cx="880.653" cy="706.705" r="10" fill="#009af9" fill-rule="evenodd" fill-opacity="1" stroke="#000000" stroke-opacity="1" stroke-width="3.2"/>
<circle clip-path="url(#clip032)" cx="913.447" cy="693.34" r="10" fill="#009af9" fill-rule="evenodd" fill-opacity="1" stroke="#000000" stroke-opacity="1" stroke-width="3.2"/>
<circle clip-path="url(#clip032)" cx="946.24" cy="679.976" r="10" fill="#009af9" fill-rule="evenodd" fill-opacity="1" stroke="#000000" stroke-opacity="1" stroke-width="3.2"/>
<circle clip-path="url(#clip032)" cx="979.034" cy="666.611" r="10" fill="#009af9" fill-rule="evenodd" fill-opacity="1" stroke="#000000" stroke-opacity="1" stroke-width="3.2"/>
<circle clip-path="url(#clip032)" cx="1011.83" cy="653.246" r="10" fill="#009af9" fill-rule="evenodd" fill-opacity="1" stroke="#000000" stroke-opacity="1" stroke-width="3.2"/>
<circle clip-path="url(#clip032)" cx="1044.62" cy="639.882" r="10" fill="#009af9" fill-rule="evenodd" fill-opacity="1" stroke="#000000" stroke-opacity="1" stroke-width="3.2"/>
<circle clip-path="url(#clip032)" cx="1077.41" cy="626.517" r="10" fill="#009af9" fill-rule="evenodd" fill-opacity="1" stroke="#000000" stroke-opacity="1" stroke-width="3.2"/>
<circle clip-path="url(#clip032)" cx="1110.21" cy="613.152" r="10" fill="#009af9" fill-rule="evenodd" fill-opacity="1" stroke="#000000" stroke-opacity="1" stroke-width="3.2"/>
<circle clip-path="url(#clip032)" cx="1143" cy="599.788" r="10" fill="#009af9" fill-rule="evenodd" fill-opacity="1" stroke="#000000" stroke-opacity="1" stroke-width="3.2"/>
<circle clip-path="url(#clip032)" cx="1175.8" cy="586.423" r="10" fill="#009af9" fill-rule="evenodd" fill-opacity="1" stroke="#000000" stroke-opacity="1" stroke-width="3.2"/>
<circle clip-path="url(#clip032)" cx="1208.59" cy="573.058" r="10" fill="#009af9" fill-rule="evenodd" fill-opacity="1" stroke="#000000" stroke-opacity="1" stroke-width="3.2"/>
<circle clip-path="url(#clip032)" cx="1241.38" cy="559.694" r="10" fill="#009af9" fill-rule="evenodd" fill-opacity="1" stroke="#000000" stroke-opacity="1" stroke-width="3.2"/>
<circle clip-path="url(#clip032)" cx="1274.18" cy="546.329" r="10" fill="#009af9" fill-rule="evenodd" fill-opacity="1" stroke="#000000" stroke-opacity="1" stroke-width="3.2"/>
<circle clip-path="url(#clip032)" cx="1306.97" cy="532.964" r="10" fill="#009af9" fill-rule="evenodd" fill-opacity="1" stroke="#000000" stroke-opacity="1" stroke-width="3.2"/>
<circle clip-path="url(#clip032)" cx="1339.76" cy="519.6" r="10" fill="#009af9" fill-rule="evenodd" fill-opacity="1" stroke="#000000" stroke-opacity="1" stroke-width="3.2"/>
<circle clip-path="url(#clip032)" cx="1372.56" cy="506.235" r="10" fill="#009af9" fill-rule="evenodd" fill-opacity="1" stroke="#000000" stroke-opacity="1" stroke-width="3.2"/>
<circle clip-path="url(#clip032)" cx="1405.35" cy="492.87" r="10" fill="#009af9" fill-rule="evenodd" fill-opacity="1" stroke="#000000" stroke-opacity="1" stroke-width="3.2"/>
<circle clip-path="url(#clip032)" cx="1438.14" cy="479.506" r="10" fill="#009af9" fill-rule="evenodd" fill-opacity="1" stroke="#000000" stroke-opacity="1" stroke-width="3.2"/>
<circle clip-path="url(#clip032)" cx="1470.94" cy="466.141" r="10" fill="#009af9" fill-rule="evenodd" fill-opacity="1" stroke="#000000" stroke-opacity="1" stroke-width="3.2"/>
<circle clip-path="url(#clip032)" cx="1503.73" cy="452.776" r="10" fill="#009af9" fill-rule="evenodd" fill-opacity="1" stroke="#000000" stroke-opacity="1" stroke-width="3.2"/>
<circle clip-path="url(#clip032)" cx="1536.52" cy="439.412" r="10" fill="#009af9" fill-rule="evenodd" fill-opacity="1" stroke="#000000" stroke-opacity="1" stroke-width="3.2"/>
<circle clip-path="url(#clip032)" cx="1569.32" cy="426.047" r="10" fill="#009af9" fill-rule="evenodd" fill-opacity="1" stroke="#000000" stroke-opacity="1" stroke-width="3.2"/>
<circle clip-path="url(#clip032)" cx="1602.11" cy="412.682" r="10" fill="#009af9" fill-rule="evenodd" fill-opacity="1" stroke="#000000" stroke-opacity="1" stroke-width="3.2"/>
<circle clip-path="url(#clip032)" cx="1634.9" cy="399.318" r="10" fill="#009af9" fill-rule="evenodd" fill-opacity="1" stroke="#000000" stroke-opacity="1" stroke-width="3.2"/>
<circle clip-path="url(#clip032)" cx="1667.7" cy="385.953" r="10" fill="#009af9" fill-rule="evenodd" fill-opacity="1" stroke="#000000" stroke-opacity="1" stroke-width="3.2"/>
<circle clip-path="url(#clip032)" cx="1700.49" cy="372.588" r="10" fill="#009af9" fill-rule="evenodd" fill-opacity="1" stroke="#000000" stroke-opacity="1" stroke-width="3.2"/>
<circle clip-path="url(#clip032)" cx="1733.29" cy="359.224" r="10" fill="#009af9" fill-rule="evenodd" fill-opacity="1" stroke="#000000" stroke-opacity="1" stroke-width="3.2"/>
<circle clip-path="url(#clip032)" cx="1766.08" cy="345.859" r="10" fill="#009af9" fill-rule="evenodd" fill-opacity="1" stroke="#000000" stroke-opacity="1" stroke-width="3.2"/>
<circle clip-path="url(#clip032)" cx="1798.87" cy="332.494" r="10" fill="#009af9" fill-rule="evenodd" fill-opacity="1" stroke="#000000" stroke-opacity="1" stroke-width="3.2"/>
<circle clip-path="url(#clip032)" cx="1831.67" cy="319.13" r="10" fill="#009af9" fill-rule="evenodd" fill-opacity="1" stroke="#000000" stroke-opacity="1" stroke-width="3.2"/>
<circle clip-path="url(#clip032)" cx="1864.46" cy="305.765" r="10" fill="#009af9" fill-rule="evenodd" fill-opacity="1" stroke="#000000" stroke-opacity="1" stroke-width="3.2"/>
<circle clip-path="url(#clip032)" cx="1897.25" cy="292.4" r="10" fill="#009af9" fill-rule="evenodd" fill-opacity="1" stroke="#000000" stroke-opacity="1" stroke-width="3.2"/>
<circle clip-path="url(#clip032)" cx="1930.05" cy="279.036" r="10" fill="#009af9" fill-rule="evenodd" fill-opacity="1" stroke="#000000" stroke-opacity="1" stroke-width="3.2"/>
<circle clip-path="url(#clip032)" cx="1962.84" cy="265.671" r="10" fill="#009af9" fill-rule="evenodd" fill-opacity="1" stroke="#000000" stroke-opacity="1" stroke-width="3.2"/>
<circle clip-path="url(#clip032)" cx="1995.63" cy="252.306" r="10" fill="#009af9" fill-rule="evenodd" fill-opacity="1" stroke="#000000" stroke-opacity="1" stroke-width="3.2"/>
<circle clip-path="url(#clip032)" cx="2028.43" cy="238.942" r="10" fill="#009af9" fill-rule="evenodd" fill-opacity="1" stroke="#000000" stroke-opacity="1" stroke-width="3.2"/>
<circle clip-path="url(#clip032)" cx="2061.22" cy="225.577" r="10" fill="#009af9" fill-rule="evenodd" fill-opacity="1" stroke="#000000" stroke-opacity="1" stroke-width="3.2"/>
<circle clip-path="url(#clip032)" cx="2094.01" cy="212.212" r="10" fill="#009af9" fill-rule="evenodd" fill-opacity="1" stroke="#000000" stroke-opacity="1" stroke-width="3.2"/>
<circle clip-path="url(#clip032)" cx="2126.81" cy="198.848" r="10" fill="#009af9" fill-rule="evenodd" fill-opacity="1" stroke="#000000" stroke-opacity="1" stroke-width="3.2"/>
<circle clip-path="url(#clip032)" cx="2159.6" cy="185.483" r="10" fill="#009af9" fill-rule="evenodd" fill-opacity="1" stroke="#000000" stroke-opacity="1" stroke-width="3.2"/>
<circle clip-path="url(#clip032)" cx="2192.4" cy="172.118" r="10" fill="#009af9" fill-rule="evenodd" fill-opacity="1" stroke="#000000" stroke-opacity="1" stroke-width="3.2"/>
<circle clip-path="url(#clip032)" cx="2225.19" cy="158.754" r="10" fill="#009af9" fill-rule="evenodd" fill-opacity="1" stroke="#000000" stroke-opacity="1" stroke-width="3.2"/>
<circle clip-path="url(#clip032)" cx="2257.98" cy="145.389" r="10" fill="#009af9" fill-rule="evenodd" fill-opacity="1" stroke="#000000" stroke-opacity="1" stroke-width="3.2"/>
<circle clip-path="url(#clip032)" cx="2290.78" cy="132.024" r="10" fill="#009af9" fill-rule="evenodd" fill-opacity="1" stroke="#000000" stroke-opacity="1" stroke-width="3.2"/>
<polyline clip-path="url(#clip032)" style="stroke:#e26f46; stroke-width:4; stroke-opacity:1; fill:none" points="
  224.782,1445.72 257.575,1432.35 290.369,488.916 323.162,1418.99 355.956,475.552 388.75,1405.62 421.543,462.187 454.337,1392.26 487.13,448.822 519.924,1378.89 
  552.717,435.458 585.511,1365.53 618.304,422.093 651.098,1352.16 683.892,408.728 716.685,1338.8 749.479,395.364 782.272,1325.43 815.066,381.999 847.859,1312.07 
  880.653,368.634 913.447,1298.7 946.24,355.27 979.034,1285.34 1011.83,341.905 1044.62,1271.98 1077.41,328.54 1110.21,1258.61 1143,315.176 1175.8,1245.25 
  1208.59,301.811 1241.38,1231.88 1274.18,288.446 1306.97,1218.52 1339.76,275.082 1372.56,1205.15 1405.35,261.717 1438.14,1191.79 1470.94,248.352 1503.73,1178.42 
  1536.52,234.988 1569.32,1165.06 1602.11,221.623 1634.9,1151.69 1667.7,208.258 1700.49,1138.33 1733.29,194.894 1766.08,1124.96 1798.87,181.529 1831.67,1111.6 
  1864.46,168.164 1897.25,1098.23 1930.05,154.8 1962.84,1084.87 1995.63,141.435 2028.43,1071.51 2061.22,128.07 2094.01,1058.14 2126.81,114.706 2159.6,1044.78 
  2192.4,101.341 2225.19,1031.41 2257.98,87.9763 2290.78,1018.05 
  "/>
<circle clip-path="url(#clip032)" cx="224.782" cy="1445.72" r="10" fill="#e26f46" fill-rule="evenodd" fill-opacity="1" stroke="#000000" stroke-opacity="1" stroke-width="3.2"/>
<circle clip-path="url(#clip032)" cx="257.575" cy="1432.35" r="10" fill="#e26f46" fill-rule="evenodd" fill-opacity="1" stroke="#000000" stroke-opacity="1" stroke-width="3.2"/>
<circle clip-path="url(#clip032)" cx="290.369" cy="488.916" r="10" fill="#e26f46" fill-rule="evenodd" fill-opacity="1" stroke="#000000" stroke-opacity="1" stroke-width="3.2"/>
<circle clip-path="url(#clip032)" cx="323.162" cy="1418.99" r="10" fill="#e26f46" fill-rule="evenodd" fill-opacity="1" stroke="#000000" stroke-opacity="1" stroke-width="3.2"/>
<circle clip-path="url(#clip032)" cx="355.956" cy="475.552" r="10" fill="#e26f46" fill-rule="evenodd" fill-opacity="1" stroke="#000000" stroke-opacity="1" stroke-width="3.2"/>
<circle clip-path="url(#clip032)" cx="388.75" cy="1405.62" r="10" fill="#e26f46" fill-rule="evenodd" fill-opacity="1" stroke="#000000" stroke-opacity="1" stroke-width="3.2"/>
<circle clip-path="url(#clip032)" cx="421.543" cy="462.187" r="10" fill="#e26f46" fill-rule="evenodd" fill-opacity="1" stroke="#000000" stroke-opacity="1" stroke-width="3.2"/>
<circle clip-path="url(#clip032)" cx="454.337" cy="1392.26" r="10" fill="#e26f46" fill-rule="evenodd" fill-opacity="1" stroke="#000000" stroke-opacity="1" stroke-width="3.2"/>
<circle clip-path="url(#clip032)" cx="487.13" cy="448.822" r="10" fill="#e26f46" fill-rule="evenodd" fill-opacity="1" stroke="#000000" stroke-opacity="1" stroke-width="3.2"/>
<circle clip-path="url(#clip032)" cx="519.924" cy="1378.89" r="10" fill="#e26f46" fill-rule="evenodd" fill-opacity="1" stroke="#000000" stroke-opacity="1" stroke-width="3.2"/>
<circle clip-path="url(#clip032)" cx="552.717" cy="435.458" r="10" fill="#e26f46" fill-rule="evenodd" fill-opacity="1" stroke="#000000" stroke-opacity="1" stroke-width="3.2"/>
<circle clip-path="url(#clip032)" cx="585.511" cy="1365.53" r="10" fill="#e26f46" fill-rule="evenodd" fill-opacity="1" stroke="#000000" stroke-opacity="1" stroke-width="3.2"/>
<circle clip-path="url(#clip032)" cx="618.304" cy="422.093" r="10" fill="#e26f46" fill-rule="evenodd" fill-opacity="1" stroke="#000000" stroke-opacity="1" stroke-width="3.2"/>
<circle clip-path="url(#clip032)" cx="651.098" cy="1352.16" r="10" fill="#e26f46" fill-rule="evenodd" fill-opacity="1" stroke="#000000" stroke-opacity="1" stroke-width="3.2"/>
<circle clip-path="url(#clip032)" cx="683.892" cy="408.728" r="10" fill="#e26f46" fill-rule="evenodd" fill-opacity="1" stroke="#000000" stroke-opacity="1" stroke-width="3.2"/>
<circle clip-path="url(#clip032)" cx="716.685" cy="1338.8" r="10" fill="#e26f46" fill-rule="evenodd" fill-opacity="1" stroke="#000000" stroke-opacity="1" stroke-width="3.2"/>
<circle clip-path="url(#clip032)" cx="749.479" cy="395.364" r="10" fill="#e26f46" fill-rule="evenodd" fill-opacity="1" stroke="#000000" stroke-opacity="1" stroke-width="3.2"/>
<circle clip-path="url(#clip032)" cx="782.272" cy="1325.43" r="10" fill="#e26f46" fill-rule="evenodd" fill-opacity="1" stroke="#000000" stroke-opacity="1" stroke-width="3.2"/>
<circle clip-path="url(#clip032)" cx="815.066" cy="381.999" r="10" fill="#e26f46" fill-rule="evenodd" fill-opacity="1" stroke="#000000" stroke-opacity="1" stroke-width="3.2"/>
<circle clip-path="url(#clip032)" cx="847.859" cy="1312.07" r="10" fill="#e26f46" fill-rule="evenodd" fill-opacity="1" stroke="#000000" stroke-opacity="1" stroke-width="3.2"/>
<circle clip-path="url(#clip032)" cx="880.653" cy="368.634" r="10" fill="#e26f46" fill-rule="evenodd" fill-opacity="1" stroke="#000000" stroke-opacity="1" stroke-width="3.2"/>
<circle clip-path="url(#clip032)" cx="913.447" cy="1298.7" r="10" fill="#e26f46" fill-rule="evenodd" fill-opacity="1" stroke="#000000" stroke-opacity="1" stroke-width="3.2"/>
<circle clip-path="url(#clip032)" cx="946.24" cy="355.27" r="10" fill="#e26f46" fill-rule="evenodd" fill-opacity="1" stroke="#000000" stroke-opacity="1" stroke-width="3.2"/>
<circle clip-path="url(#clip032)" cx="979.034" cy="1285.34" r="10" fill="#e26f46" fill-rule="evenodd" fill-opacity="1" stroke="#000000" stroke-opacity="1" stroke-width="3.2"/>
<circle clip-path="url(#clip032)" cx="1011.83" cy="341.905" r="10" fill="#e26f46" fill-rule="evenodd" fill-opacity="1" stroke="#000000" stroke-opacity="1" stroke-width="3.2"/>
<circle clip-path="url(#clip032)" cx="1044.62" cy="1271.98" r="10" fill="#e26f46" fill-rule="evenodd" fill-opacity="1" stroke="#000000" stroke-opacity="1" stroke-width="3.2"/>
<circle clip-path="url(#clip032)" cx="1077.41" cy="328.54" r="10" fill="#e26f46" fill-rule="evenodd" fill-opacity="1" stroke="#000000" stroke-opacity="1" stroke-width="3.2"/>
<circle clip-path="url(#clip032)" cx="1110.21" cy="1258.61" r="10" fill="#e26f46" fill-rule="evenodd" fill-opacity="1" stroke="#000000" stroke-opacity="1" stroke-width="3.2"/>
<circle clip-path="url(#clip032)" cx="1143" cy="315.176" r="10" fill="#e26f46" fill-rule="evenodd" fill-opacity="1" stroke="#000000" stroke-opacity="1" stroke-width="3.2"/>
<circle clip-path="url(#clip032)" cx="1175.8" cy="1245.25" r="10" fill="#e26f46" fill-rule="evenodd" fill-opacity="1" stroke="#000000" stroke-opacity="1" stroke-width="3.2"/>
<circle clip-path="url(#clip032)" cx="1208.59" cy="301.811" r="10" fill="#e26f46" fill-rule="evenodd" fill-opacity="1" stroke="#000000" stroke-opacity="1" stroke-width="3.2"/>
<circle clip-path="url(#clip032)" cx="1241.38" cy="1231.88" r="10" fill="#e26f46" fill-rule="evenodd" fill-opacity="1" stroke="#000000" stroke-opacity="1" stroke-width="3.2"/>
<circle clip-path="url(#clip032)" cx="1274.18" cy="288.446" r="10" fill="#e26f46" fill-rule="evenodd" fill-opacity="1" stroke="#000000" stroke-opacity="1" stroke-width="3.2"/>
<circle clip-path="url(#clip032)" cx="1306.97" cy="1218.52" r="10" fill="#e26f46" fill-rule="evenodd" fill-opacity="1" stroke="#000000" stroke-opacity="1" stroke-width="3.2"/>
<circle clip-path="url(#clip032)" cx="1339.76" cy="275.082" r="10" fill="#e26f46" fill-rule="evenodd" fill-opacity="1" stroke="#000000" stroke-opacity="1" stroke-width="3.2"/>
<circle clip-path="url(#clip032)" cx="1372.56" cy="1205.15" r="10" fill="#e26f46" fill-rule="evenodd" fill-opacity="1" stroke="#000000" stroke-opacity="1" stroke-width="3.2"/>
<circle clip-path="url(#clip032)" cx="1405.35" cy="261.717" r="10" fill="#e26f46" fill-rule="evenodd" fill-opacity="1" stroke="#000000" stroke-opacity="1" stroke-width="3.2"/>
<circle clip-path="url(#clip032)" cx="1438.14" cy="1191.79" r="10" fill="#e26f46" fill-rule="evenodd" fill-opacity="1" stroke="#000000" stroke-opacity="1" stroke-width="3.2"/>
<circle clip-path="url(#clip032)" cx="1470.94" cy="248.352" r="10" fill="#e26f46" fill-rule="evenodd" fill-opacity="1" stroke="#000000" stroke-opacity="1" stroke-width="3.2"/>
<circle clip-path="url(#clip032)" cx="1503.73" cy="1178.42" r="10" fill="#e26f46" fill-rule="evenodd" fill-opacity="1" stroke="#000000" stroke-opacity="1" stroke-width="3.2"/>
<circle clip-path="url(#clip032)" cx="1536.52" cy="234.988" r="10" fill="#e26f46" fill-rule="evenodd" fill-opacity="1" stroke="#000000" stroke-opacity="1" stroke-width="3.2"/>
<circle clip-path="url(#clip032)" cx="1569.32" cy="1165.06" r="10" fill="#e26f46" fill-rule="evenodd" fill-opacity="1" stroke="#000000" stroke-opacity="1" stroke-width="3.2"/>
<circle clip-path="url(#clip032)" cx="1602.11" cy="221.623" r="10" fill="#e26f46" fill-rule="evenodd" fill-opacity="1" stroke="#000000" stroke-opacity="1" stroke-width="3.2"/>
<circle clip-path="url(#clip032)" cx="1634.9" cy="1151.69" r="10" fill="#e26f46" fill-rule="evenodd" fill-opacity="1" stroke="#000000" stroke-opacity="1" stroke-width="3.2"/>
<circle clip-path="url(#clip032)" cx="1667.7" cy="208.258" r="10" fill="#e26f46" fill-rule="evenodd" fill-opacity="1" stroke="#000000" stroke-opacity="1" stroke-width="3.2"/>
<circle clip-path="url(#clip032)" cx="1700.49" cy="1138.33" r="10" fill="#e26f46" fill-rule="evenodd" fill-opacity="1" stroke="#000000" stroke-opacity="1" stroke-width="3.2"/>
<circle clip-path="url(#clip032)" cx="1733.29" cy="194.894" r="10" fill="#e26f46" fill-rule="evenodd" fill-opacity="1" stroke="#000000" stroke-opacity="1" stroke-width="3.2"/>
<circle clip-path="url(#clip032)" cx="1766.08" cy="1124.96" r="10" fill="#e26f46" fill-rule="evenodd" fill-opacity="1" stroke="#000000" stroke-opacity="1" stroke-width="3.2"/>
<circle clip-path="url(#clip032)" cx="1798.87" cy="181.529" r="10" fill="#e26f46" fill-rule="evenodd" fill-opacity="1" stroke="#000000" stroke-opacity="1" stroke-width="3.2"/>
<circle clip-path="url(#clip032)" cx="1831.67" cy="1111.6" r="10" fill="#e26f46" fill-rule="evenodd" fill-opacity="1" stroke="#000000" stroke-opacity="1" stroke-width="3.2"/>
<circle clip-path="url(#clip032)" cx="1864.46" cy="168.164" r="10" fill="#e26f46" fill-rule="evenodd" fill-opacity="1" stroke="#000000" stroke-opacity="1" stroke-width="3.2"/>
<circle clip-path="url(#clip032)" cx="1897.25" cy="1098.23" r="10" fill="#e26f46" fill-rule="evenodd" fill-opacity="1" stroke="#000000" stroke-opacity="1" stroke-width="3.2"/>
<circle clip-path="url(#clip032)" cx="1930.05" cy="154.8" r="10" fill="#e26f46" fill-rule="evenodd" fill-opacity="1" stroke="#000000" stroke-opacity="1" stroke-width="3.2"/>
<circle clip-path="url(#clip032)" cx="1962.84" cy="1084.87" r="10" fill="#e26f46" fill-rule="evenodd" fill-opacity="1" stroke="#000000" stroke-opacity="1" stroke-width="3.2"/>
<circle clip-path="url(#clip032)" cx="1995.63" cy="141.435" r="10" fill="#e26f46" fill-rule="evenodd" fill-opacity="1" stroke="#000000" stroke-opacity="1" stroke-width="3.2"/>
<circle clip-path="url(#clip032)" cx="2028.43" cy="1071.51" r="10" fill="#e26f46" fill-rule="evenodd" fill-opacity="1" stroke="#000000" stroke-opacity="1" stroke-width="3.2"/>
<circle clip-path="url(#clip032)" cx="2061.22" cy="128.07" r="10" fill="#e26f46" fill-rule="evenodd" fill-opacity="1" stroke="#000000" stroke-opacity="1" stroke-width="3.2"/>
<circle clip-path="url(#clip032)" cx="2094.01" cy="1058.14" r="10" fill="#e26f46" fill-rule="evenodd" fill-opacity="1" stroke="#000000" stroke-opacity="1" stroke-width="3.2"/>
<circle clip-path="url(#clip032)" cx="2126.81" cy="114.706" r="10" fill="#e26f46" fill-rule="evenodd" fill-opacity="1" stroke="#000000" stroke-opacity="1" stroke-width="3.2"/>
<circle clip-path="url(#clip032)" cx="2159.6" cy="1044.78" r="10" fill="#e26f46" fill-rule="evenodd" fill-opacity="1" stroke="#000000" stroke-opacity="1" stroke-width="3.2"/>
<circle clip-path="url(#clip032)" cx="2192.4" cy="101.341" r="10" fill="#e26f46" fill-rule="evenodd" fill-opacity="1" stroke="#000000" stroke-opacity="1" stroke-width="3.2"/>
<circle clip-path="url(#clip032)" cx="2225.19" cy="1031.41" r="10" fill="#e26f46" fill-rule="evenodd" fill-opacity="1" stroke="#000000" stroke-opacity="1" stroke-width="3.2"/>
<circle clip-path="url(#clip032)" cx="2257.98" cy="87.9763" r="10" fill="#e26f46" fill-rule="evenodd" fill-opacity="1" stroke="#000000" stroke-opacity="1" stroke-width="3.2"/>
<circle clip-path="url(#clip032)" cx="2290.78" cy="1018.05" r="10" fill="#e26f46" fill-rule="evenodd" fill-opacity="1" stroke="#000000" stroke-opacity="1" stroke-width="3.2"/>
<path clip-path="url(#clip030)" d="
M1968.95 312.204 L2280.76 312.204 L2280.76 130.764 L1968.95 130.764  Z
  " fill="#ffffff" fill-rule="evenodd" fill-opacity="1"/>
<polyline clip-path="url(#clip030)" style="stroke:#000000; stroke-width:4; stroke-opacity:1; fill:none" points="
  1968.95,312.204 2280.76,312.204 2280.76,130.764 1968.95,130.764 1968.95,312.204 
  "/>
<polyline clip-path="url(#clip030)" style="stroke:#009af9; stroke-width:4; stroke-opacity:1; fill:none" points="
  1992.95,191.244 2136.95,191.244 
  "/>
<circle clip-path="url(#clip030)" cx="2076.95" cy="191.244" r="23" fill="#009af9" fill-rule="evenodd" fill-opacity="1" stroke="#000000" stroke-opacity="1" stroke-width="6.82667"/>
<path clip-path="url(#clip030)" d="M 0 0 M2176.14 186.58 Q2175.42 186.163 2174.56 185.978 Q2173.73 185.77 2172.71 185.77 Q2169.1 185.77 2167.15 188.131 Q2165.23 190.469 2165.23 194.867 L2165.23 208.524 L2160.95 208.524 L2160.95 182.598 L2165.23 182.598 L2165.23 186.626 Q2166.58 184.265 2168.73 183.131 Q2170.88 181.973 2173.96 181.973 Q2174.4 181.973 2174.93 182.043 Q2175.46 182.089 2176.11 182.205 L2176.14 186.58 Z" fill="#000000" fill-rule="evenodd" fill-opacity="1" /><path clip-path="url(#clip030)" d="M 0 0 M2190.83 172.552 Q2187.73 177.876 2186.23 183.084 Q2184.72 188.293 2184.72 193.64 Q2184.72 198.987 2186.23 204.242 Q2187.76 209.473 2190.83 214.774 L2187.13 214.774 Q2183.66 209.334 2181.92 204.08 Q2180.21 198.825 2180.21 193.64 Q2180.21 188.478 2181.92 183.246 Q2183.64 178.015 2187.13 172.552 L2190.83 172.552 Z" fill="#000000" fill-rule="evenodd" fill-opacity="1" /><path clip-path="url(#clip030)" d="M 0 0 M2199.52 175.237 L2199.52 182.598 L2208.29 182.598 L2208.29 185.908 L2199.52 185.908 L2199.52 199.982 Q2199.52 203.154 2200.37 204.057 Q2201.25 204.959 2203.91 204.959 L2208.29 204.959 L2208.29 208.524 L2203.91 208.524 Q2198.98 208.524 2197.11 206.695 Q2195.23 204.844 2195.23 199.982 L2195.23 185.908 L2192.11 185.908 L2192.11 182.598 L2195.23 182.598 L2195.23 175.237 L2199.52 175.237 Z" fill="#000000" fill-rule="evenodd" fill-opacity="1" /><path clip-path="url(#clip030)" d="M 0 0 M2212.08 172.552 L2215.79 172.552 Q2219.26 178.015 2220.97 183.246 Q2222.71 188.478 2222.71 193.64 Q2222.71 198.825 2220.97 204.08 Q2219.26 209.334 2215.79 214.774 L2212.08 214.774 Q2215.16 209.473 2216.67 204.242 Q2218.2 198.987 2218.2 193.64 Q2218.2 188.293 2216.67 183.084 Q2215.16 177.876 2212.08 172.552 Z" fill="#000000" fill-rule="evenodd" fill-opacity="1" /><polyline clip-path="url(#clip030)" style="stroke:#e26f46; stroke-width:4; stroke-opacity:1; fill:none" points="
  1992.95,251.724 2136.95,251.724 
  "/>
<circle clip-path="url(#clip030)" cx="2076.95" cy="251.724" r="23" fill="#e26f46" fill-rule="evenodd" fill-opacity="1" stroke="#000000" stroke-opacity="1" stroke-width="6.82667"/>
<path clip-path="url(#clip030)" d="M 0 0 M2174.79 271.411 Q2172.99 276.041 2171.27 277.453 Q2169.56 278.865 2166.69 278.865 L2163.29 278.865 L2163.29 275.3 L2165.79 275.3 Q2167.55 275.3 2168.52 274.467 Q2169.49 273.634 2170.67 270.532 L2171.44 268.587 L2160.95 243.078 L2165.46 243.078 L2173.57 263.356 L2181.67 243.078 L2186.18 243.078 L2174.79 271.411 Z" fill="#000000" fill-rule="evenodd" fill-opacity="1" /><path clip-path="url(#clip030)" d="M 0 0 M2200.88 233.032 Q2197.78 238.356 2196.27 243.564 Q2194.77 248.773 2194.77 254.12 Q2194.77 259.467 2196.27 264.722 Q2197.8 269.953 2200.88 275.254 L2197.18 275.254 Q2193.71 269.814 2191.97 264.56 Q2190.26 259.305 2190.26 254.12 Q2190.26 248.958 2191.97 243.726 Q2193.68 238.495 2197.18 233.032 L2200.88 233.032 Z" fill="#000000" fill-rule="evenodd" fill-opacity="1" /><path clip-path="url(#clip030)" d="M 0 0 M2209.56 235.717 L2209.56 243.078 L2218.33 243.078 L2218.33 246.388 L2209.56 246.388 L2209.56 260.462 Q2209.56 263.634 2210.42 264.537 Q2211.3 265.439 2213.96 265.439 L2218.33 265.439 L2218.33 269.004 L2213.96 269.004 Q2209.03 269.004 2207.15 267.175 Q2205.28 265.324 2205.28 260.462 L2205.28 246.388 L2202.15 246.388 L2202.15 243.078 L2205.28 243.078 L2205.28 235.717 L2209.56 235.717 Z" fill="#000000" fill-rule="evenodd" fill-opacity="1" /><path clip-path="url(#clip030)" d="M 0 0 M2222.13 233.032 L2225.83 233.032 Q2229.31 238.495 2231.02 243.726 Q2232.76 248.958 2232.76 254.12 Q2232.76 259.305 2231.02 264.56 Q2229.31 269.814 2225.83 275.254 L2222.13 275.254 Q2225.21 269.953 2226.71 264.722 Q2228.24 259.467 2228.24 254.12 Q2228.24 248.773 2226.71 243.564 Q2225.21 238.356 2222.13 233.032 Z" fill="#000000" fill-rule="evenodd" fill-opacity="1" /></svg>
