<?xml version="1.0" encoding="utf-8" standalone="no"?>
<!DOCTYPE svg PUBLIC "-//W3C//DTD SVG 1.1//EN"
  "http://www.w3.org/Graphics/SVG/1.1/DTD/svg11.dtd">
<!-- Created with matplotlib (https://matplotlib.org/) -->
<svg height="288pt" version="1.1" viewBox="0 0 432 288" width="432pt" xmlns="http://www.w3.org/2000/svg" xmlns:xlink="http://www.w3.org/1999/xlink">
 <defs>
  <style type="text/css">
*{stroke-linecap:butt;stroke-linejoin:round;}
  </style>
 </defs>
 <g id="figure_1">
  <g id="patch_1">
   <path d="M 0 288 
L 432 288 
L 432 0 
L 0 0 
z
" style="fill:#ffffff;"/>
  </g>
  <g id="axes_1">
   <g id="patch_2">
    <path d="M 21.994646 259.665354 
L 429.165354 259.665354 
L 429.165354 2.834646 
L 21.994646 2.834646 
z
" style="fill:#ffffff;"/>
   </g>
   <g id="matplotlib.axis_1">
    <g id="xtick_1">
     <g id="line2d_1">
      <path clip-path="url(#pc5ba81b0ca)" d="M 33.518345 259.665354 
L 33.518345 2.834646 
" style="fill:none;stroke:#000000;stroke-linecap:square;stroke-opacity:0.1;stroke-width:0.5;"/>
     </g>
     <g id="line2d_2">
      <defs>
       <path d="M 0 0 
L 0 -3.5 
" id="m4298bcffe7" style="stroke:#000000;stroke-width:0.8;"/>
      </defs>
      <g>
       <use style="stroke:#000000;stroke-width:0.8;" x="33.518345" xlink:href="#m4298bcffe7" y="259.665354"/>
      </g>
     </g>
     <g id="text_1">
      <!-- 0 -->
      <defs>
       <path d="M 31.78125 66.40625 
Q 24.171875 66.40625 20.328125 58.90625 
Q 16.5 51.421875 16.5 36.375 
Q 16.5 21.390625 20.328125 13.890625 
Q 24.171875 6.390625 31.78125 6.390625 
Q 39.453125 6.390625 43.28125 13.890625 
Q 47.125 21.390625 47.125 36.375 
Q 47.125 51.421875 43.28125 58.90625 
Q 39.453125 66.40625 31.78125 66.40625 
z
M 31.78125 74.21875 
Q 44.046875 74.21875 50.515625 64.515625 
Q 56.984375 54.828125 56.984375 36.375 
Q 56.984375 17.96875 50.515625 8.265625 
Q 44.046875 -1.421875 31.78125 -1.421875 
Q 19.53125 -1.421875 13.0625 8.265625 
Q 6.59375 17.96875 6.59375 36.375 
Q 6.59375 54.828125 13.0625 64.515625 
Q 19.53125 74.21875 31.78125 74.21875 
z
" id="DejaVuSans-48"/>
      </defs>
      <g transform="translate(30.973345 269.244104)scale(0.08 -0.08)">
       <use xlink:href="#DejaVuSans-48"/>
      </g>
     </g>
    </g>
    <g id="xtick_2">
     <g id="line2d_3">
      <path clip-path="url(#pc5ba81b0ca)" d="M 113.627482 259.665354 
L 113.627482 2.834646 
" style="fill:none;stroke:#000000;stroke-linecap:square;stroke-opacity:0.1;stroke-width:0.5;"/>
     </g>
     <g id="line2d_4">
      <g>
       <use style="stroke:#000000;stroke-width:0.8;" x="113.627482" xlink:href="#m4298bcffe7" y="259.665354"/>
      </g>
     </g>
     <g id="text_2">
      <!-- 2 -->
      <defs>
       <path d="M 19.1875 8.296875 
L 53.609375 8.296875 
L 53.609375 0 
L 7.328125 0 
L 7.328125 8.296875 
Q 12.9375 14.109375 22.625 23.890625 
Q 32.328125 33.6875 34.8125 36.53125 
Q 39.546875 41.84375 41.421875 45.53125 
Q 43.3125 49.21875 43.3125 52.78125 
Q 43.3125 58.59375 39.234375 62.25 
Q 35.15625 65.921875 28.609375 65.921875 
Q 23.96875 65.921875 18.8125 64.3125 
Q 13.671875 62.703125 7.8125 59.421875 
L 7.8125 69.390625 
Q 13.765625 71.78125 18.9375 73 
Q 24.125 74.21875 28.421875 74.21875 
Q 39.75 74.21875 46.484375 68.546875 
Q 53.21875 62.890625 53.21875 53.421875 
Q 53.21875 48.921875 51.53125 44.890625 
Q 49.859375 40.875 45.40625 35.40625 
Q 44.1875 33.984375 37.640625 27.21875 
Q 31.109375 20.453125 19.1875 8.296875 
z
" id="DejaVuSans-50"/>
      </defs>
      <g transform="translate(111.082482 269.244104)scale(0.08 -0.08)">
       <use xlink:href="#DejaVuSans-50"/>
      </g>
     </g>
    </g>
    <g id="xtick_3">
     <g id="line2d_5">
      <path clip-path="url(#pc5ba81b0ca)" d="M 193.736618 259.665354 
L 193.736618 2.834646 
" style="fill:none;stroke:#000000;stroke-linecap:square;stroke-opacity:0.1;stroke-width:0.5;"/>
     </g>
     <g id="line2d_6">
      <g>
       <use style="stroke:#000000;stroke-width:0.8;" x="193.736618" xlink:href="#m4298bcffe7" y="259.665354"/>
      </g>
     </g>
     <g id="text_3">
      <!-- 4 -->
      <defs>
       <path d="M 37.796875 64.3125 
L 12.890625 25.390625 
L 37.796875 25.390625 
z
M 35.203125 72.90625 
L 47.609375 72.90625 
L 47.609375 25.390625 
L 58.015625 25.390625 
L 58.015625 17.1875 
L 47.609375 17.1875 
L 47.609375 0 
L 37.796875 0 
L 37.796875 17.1875 
L 4.890625 17.1875 
L 4.890625 26.703125 
z
" id="DejaVuSans-52"/>
      </defs>
      <g transform="translate(191.191618 269.244104)scale(0.08 -0.08)">
       <use xlink:href="#DejaVuSans-52"/>
      </g>
     </g>
    </g>
    <g id="xtick_4">
     <g id="line2d_7">
      <path clip-path="url(#pc5ba81b0ca)" d="M 273.845755 259.665354 
L 273.845755 2.834646 
" style="fill:none;stroke:#000000;stroke-linecap:square;stroke-opacity:0.1;stroke-width:0.5;"/>
     </g>
     <g id="line2d_8">
      <g>
       <use style="stroke:#000000;stroke-width:0.8;" x="273.845755" xlink:href="#m4298bcffe7" y="259.665354"/>
      </g>
     </g>
     <g id="text_4">
      <!-- 6 -->
      <defs>
       <path d="M 33.015625 40.375 
Q 26.375 40.375 22.484375 35.828125 
Q 18.609375 31.296875 18.609375 23.390625 
Q 18.609375 15.53125 22.484375 10.953125 
Q 26.375 6.390625 33.015625 6.390625 
Q 39.65625 6.390625 43.53125 10.953125 
Q 47.40625 15.53125 47.40625 23.390625 
Q 47.40625 31.296875 43.53125 35.828125 
Q 39.65625 40.375 33.015625 40.375 
z
M 52.59375 71.296875 
L 52.59375 62.3125 
Q 48.875 64.0625 45.09375 64.984375 
Q 41.3125 65.921875 37.59375 65.921875 
Q 27.828125 65.921875 22.671875 59.328125 
Q 17.53125 52.734375 16.796875 39.40625 
Q 19.671875 43.65625 24.015625 45.921875 
Q 28.375 48.1875 33.59375 48.1875 
Q 44.578125 48.1875 50.953125 41.515625 
Q 57.328125 34.859375 57.328125 23.390625 
Q 57.328125 12.15625 50.6875 5.359375 
Q 44.046875 -1.421875 33.015625 -1.421875 
Q 20.359375 -1.421875 13.671875 8.265625 
Q 6.984375 17.96875 6.984375 36.375 
Q 6.984375 53.65625 15.1875 63.9375 
Q 23.390625 74.21875 37.203125 74.21875 
Q 40.921875 74.21875 44.703125 73.484375 
Q 48.484375 72.75 52.59375 71.296875 
z
" id="DejaVuSans-54"/>
      </defs>
      <g transform="translate(271.300755 269.244104)scale(0.08 -0.08)">
       <use xlink:href="#DejaVuSans-54"/>
      </g>
     </g>
    </g>
    <g id="xtick_5">
     <g id="line2d_9">
      <path clip-path="url(#pc5ba81b0ca)" d="M 353.954891 259.665354 
L 353.954891 2.834646 
" style="fill:none;stroke:#000000;stroke-linecap:square;stroke-opacity:0.1;stroke-width:0.5;"/>
     </g>
     <g id="line2d_10">
      <g>
       <use style="stroke:#000000;stroke-width:0.8;" x="353.954891" xlink:href="#m4298bcffe7" y="259.665354"/>
      </g>
     </g>
     <g id="text_5">
      <!-- 8 -->
      <defs>
       <path d="M 31.78125 34.625 
Q 24.75 34.625 20.71875 30.859375 
Q 16.703125 27.09375 16.703125 20.515625 
Q 16.703125 13.921875 20.71875 10.15625 
Q 24.75 6.390625 31.78125 6.390625 
Q 38.8125 6.390625 42.859375 10.171875 
Q 46.921875 13.96875 46.921875 20.515625 
Q 46.921875 27.09375 42.890625 30.859375 
Q 38.875 34.625 31.78125 34.625 
z
M 21.921875 38.8125 
Q 15.578125 40.375 12.03125 44.71875 
Q 8.5 49.078125 8.5 55.328125 
Q 8.5 64.0625 14.71875 69.140625 
Q 20.953125 74.21875 31.78125 74.21875 
Q 42.671875 74.21875 48.875 69.140625 
Q 55.078125 64.0625 55.078125 55.328125 
Q 55.078125 49.078125 51.53125 44.71875 
Q 48 40.375 41.703125 38.8125 
Q 48.828125 37.15625 52.796875 32.3125 
Q 56.78125 27.484375 56.78125 20.515625 
Q 56.78125 9.90625 50.3125 4.234375 
Q 43.84375 -1.421875 31.78125 -1.421875 
Q 19.734375 -1.421875 13.25 4.234375 
Q 6.78125 9.90625 6.78125 20.515625 
Q 6.78125 27.484375 10.78125 32.3125 
Q 14.796875 37.15625 21.921875 38.8125 
z
M 18.3125 54.390625 
Q 18.3125 48.734375 21.84375 45.5625 
Q 25.390625 42.390625 31.78125 42.390625 
Q 38.140625 42.390625 41.71875 45.5625 
Q 45.3125 48.734375 45.3125 54.390625 
Q 45.3125 60.0625 41.71875 63.234375 
Q 38.140625 66.40625 31.78125 66.40625 
Q 25.390625 66.40625 21.84375 63.234375 
Q 18.3125 60.0625 18.3125 54.390625 
z
" id="DejaVuSans-56"/>
      </defs>
      <g transform="translate(351.409891 269.244104)scale(0.08 -0.08)">
       <use xlink:href="#DejaVuSans-56"/>
      </g>
     </g>
    </g>
    <g id="text_6">
     <!-- t -->
     <defs>
      <path d="M 18.3125 70.21875 
L 18.3125 54.6875 
L 36.8125 54.6875 
L 36.8125 47.703125 
L 18.3125 47.703125 
L 18.3125 18.015625 
Q 18.3125 11.328125 20.140625 9.421875 
Q 21.96875 7.515625 27.59375 7.515625 
L 36.8125 7.515625 
L 36.8125 0 
L 27.59375 0 
Q 17.1875 0 13.234375 3.875 
Q 9.28125 7.765625 9.28125 18.015625 
L 9.28125 47.703125 
L 2.6875 47.703125 
L 2.6875 54.6875 
L 9.28125 54.6875 
L 9.28125 70.21875 
z
" id="DejaVuSans-116"/>
     </defs>
     <g transform="translate(223.423828 283.266136)scale(0.11 -0.11)">
      <use xlink:href="#DejaVuSans-116"/>
     </g>
    </g>
   </g>
   <g id="matplotlib.axis_2">
    <g id="ytick_1">
     <g id="line2d_11">
      <path clip-path="url(#pc5ba81b0ca)" d="M 21.994646 252.396906 
L 429.165354 252.396906 
" style="fill:none;stroke:#000000;stroke-linecap:square;stroke-opacity:0.1;stroke-width:0.5;"/>
     </g>
     <g id="line2d_12">
      <defs>
       <path d="M 0 0 
L 3.5 0 
" id="m2dc43e6a34" style="stroke:#000000;stroke-width:0.8;"/>
      </defs>
      <g>
       <use style="stroke:#000000;stroke-width:0.8;" x="21.994646" xlink:href="#m2dc43e6a34" y="252.396906"/>
      </g>
     </g>
     <g id="text_7">
      <!-- -1.0 -->
      <defs>
       <path d="M 4.890625 31.390625 
L 31.203125 31.390625 
L 31.203125 23.390625 
L 4.890625 23.390625 
z
" id="DejaVuSans-45"/>
       <path d="M 12.40625 8.296875 
L 28.515625 8.296875 
L 28.515625 63.921875 
L 10.984375 60.40625 
L 10.984375 69.390625 
L 28.421875 72.90625 
L 38.28125 72.90625 
L 38.28125 8.296875 
L 54.390625 8.296875 
L 54.390625 0 
L 12.40625 0 
z
" id="DejaVuSans-49"/>
       <path d="M 10.6875 12.40625 
L 21 12.40625 
L 21 0 
L 10.6875 0 
z
" id="DejaVuSans-46"/>
      </defs>
      <g transform="translate(2.885896 255.436281)scale(0.08 -0.08)">
       <use xlink:href="#DejaVuSans-45"/>
       <use x="36.083984" xlink:href="#DejaVuSans-49"/>
       <use x="99.707031" xlink:href="#DejaVuSans-46"/>
       <use x="131.494141" xlink:href="#DejaVuSans-48"/>
      </g>
     </g>
    </g>
    <g id="ytick_2">
     <g id="line2d_13">
      <path clip-path="url(#pc5ba81b0ca)" d="M 21.994646 191.82354 
L 429.165354 191.82354 
" style="fill:none;stroke:#000000;stroke-linecap:square;stroke-opacity:0.1;stroke-width:0.5;"/>
     </g>
     <g id="line2d_14">
      <g>
       <use style="stroke:#000000;stroke-width:0.8;" x="21.994646" xlink:href="#m2dc43e6a34" y="191.82354"/>
      </g>
     </g>
     <g id="text_8">
      <!-- -0.5 -->
      <defs>
       <path d="M 10.796875 72.90625 
L 49.515625 72.90625 
L 49.515625 64.59375 
L 19.828125 64.59375 
L 19.828125 46.734375 
Q 21.96875 47.46875 24.109375 47.828125 
Q 26.265625 48.1875 28.421875 48.1875 
Q 40.625 48.1875 47.75 41.5 
Q 54.890625 34.8125 54.890625 23.390625 
Q 54.890625 11.625 47.5625 5.09375 
Q 40.234375 -1.421875 26.90625 -1.421875 
Q 22.3125 -1.421875 17.546875 -0.640625 
Q 12.796875 0.140625 7.71875 1.703125 
L 7.71875 11.625 
Q 12.109375 9.234375 16.796875 8.0625 
Q 21.484375 6.890625 26.703125 6.890625 
Q 35.15625 6.890625 40.078125 11.328125 
Q 45.015625 15.765625 45.015625 23.390625 
Q 45.015625 31 40.078125 35.4375 
Q 35.15625 39.890625 26.703125 39.890625 
Q 22.75 39.890625 18.8125 39.015625 
Q 14.890625 38.140625 10.796875 36.28125 
z
" id="DejaVuSans-53"/>
      </defs>
      <g transform="translate(2.885896 194.862915)scale(0.08 -0.08)">
       <use xlink:href="#DejaVuSans-45"/>
       <use x="36.083984" xlink:href="#DejaVuSans-48"/>
       <use x="99.707031" xlink:href="#DejaVuSans-46"/>
       <use x="131.494141" xlink:href="#DejaVuSans-53"/>
      </g>
     </g>
    </g>
    <g id="ytick_3">
     <g id="line2d_15">
      <path clip-path="url(#pc5ba81b0ca)" d="M 21.994646 131.250173 
L 429.165354 131.250173 
" style="fill:none;stroke:#000000;stroke-linecap:square;stroke-opacity:0.1;stroke-width:0.5;"/>
     </g>
     <g id="line2d_16">
      <g>
       <use style="stroke:#000000;stroke-width:0.8;" x="21.994646" xlink:href="#m2dc43e6a34" y="131.250173"/>
      </g>
     </g>
     <g id="text_9">
      <!-- 0.0 -->
      <g transform="translate(5.772146 134.289548)scale(0.08 -0.08)">
       <use xlink:href="#DejaVuSans-48"/>
       <use x="63.623047" xlink:href="#DejaVuSans-46"/>
       <use x="95.410156" xlink:href="#DejaVuSans-48"/>
      </g>
     </g>
    </g>
    <g id="ytick_4">
     <g id="line2d_17">
      <path clip-path="url(#pc5ba81b0ca)" d="M 21.994646 70.676806 
L 429.165354 70.676806 
" style="fill:none;stroke:#000000;stroke-linecap:square;stroke-opacity:0.1;stroke-width:0.5;"/>
     </g>
     <g id="line2d_18">
      <g>
       <use style="stroke:#000000;stroke-width:0.8;" x="21.994646" xlink:href="#m2dc43e6a34" y="70.676806"/>
      </g>
     </g>
     <g id="text_10">
      <!-- 0.5 -->
      <g transform="translate(5.772146 73.716181)scale(0.08 -0.08)">
       <use xlink:href="#DejaVuSans-48"/>
       <use x="63.623047" xlink:href="#DejaVuSans-46"/>
       <use x="95.410156" xlink:href="#DejaVuSans-53"/>
      </g>
     </g>
    </g>
    <g id="ytick_5">
     <g id="line2d_19">
      <path clip-path="url(#pc5ba81b0ca)" d="M 21.994646 10.103439 
L 429.165354 10.103439 
" style="fill:none;stroke:#000000;stroke-linecap:square;stroke-opacity:0.1;stroke-width:0.5;"/>
     </g>
     <g id="line2d_20">
      <g>
       <use style="stroke:#000000;stroke-width:0.8;" x="21.994646" xlink:href="#m2dc43e6a34" y="10.103439"/>
      </g>
     </g>
     <g id="text_11">
      <!-- 1.0 -->
      <g transform="translate(5.772146 13.142814)scale(0.08 -0.08)">
       <use xlink:href="#DejaVuSans-49"/>
       <use x="63.623047" xlink:href="#DejaVuSans-46"/>
       <use x="95.410156" xlink:href="#DejaVuSans-48"/>
      </g>
     </g>
    </g>
   </g>
   <g id="line2d_21">
    <path clip-path="url(#pc5ba81b0ca)" d="M 33.518345 131.250173 
L 43.932533 100.105704 
L 49.540172 84.073413 
L 53.946175 72.109094 
L 57.951632 61.849151 
L 61.556543 53.205304 
L 64.760908 46.050168 
L 67.965274 39.440022 
L 70.769093 34.136535 
L 73.572913 29.308712 
L 75.976187 25.567156 
L 78.379461 22.205944 
L 80.782736 19.237175 
L 82.785464 17.070733 
L 84.788192 15.189681 
L 86.790921 13.598719 
L 88.793649 12.301825 
L 90.796378 11.30224 
L 92.39856 10.718338 
L 94.000743 10.327261 
L 95.602926 10.129636 
L 97.205109 10.125777 
L 98.807291 10.315691 
L 100.409474 10.699075 
L 102.011657 11.275315 
L 104.014385 12.265385 
L 106.017114 13.552856 
L 108.019842 15.134508 
L 110.02257 17.006389 
L 112.025299 19.163819 
L 114.428573 22.12202 
L 116.831847 25.472964 
L 119.235121 29.204592 
L 122.038941 34.02131 
L 124.842761 39.314254 
L 127.64658 45.0575 
L 130.850946 52.136419 
L 134.455857 60.702717 
L 138.060768 69.840063 
L 142.066225 80.572321 
L 146.872773 94.109615 
L 152.880959 111.758837 
L 174.10988 174.878758 
L 178.916428 188.094648 
L 182.921885 198.491082 
L 186.526796 207.276269 
L 189.731161 214.570796 
L 192.935527 221.332357 
L 195.739347 226.777432 
L 198.543166 231.754614 
L 201.346986 236.239526 
L 203.75026 239.67521 
L 206.153534 242.720681 
L 208.556808 245.364978 
L 210.559537 247.255198 
L 212.562265 248.855465 
L 214.564994 250.16178 
L 216.567722 251.170878 
L 218.570451 251.880237 
L 220.172633 252.230694 
L 221.774816 252.387609 
L 223.376999 252.35073 
L 224.979181 252.120116 
L 226.581364 251.696135 
L 228.183547 251.079467 
L 230.186275 250.039197 
L 232.189004 248.702016 
L 234.191732 247.071266 
L 236.194461 245.151024 
L 238.197189 242.94609 
L 240.600463 239.932182 
L 243.003737 236.527137 
L 245.407011 232.743209 
L 248.210831 227.868001 
L 251.014651 222.519558 
L 253.818471 216.724079 
L 257.022836 209.58979 
L 260.627747 200.967135 
L 264.633204 190.727734 
L 269.039207 178.782121 
L 273.845755 165.100448 
L 280.254486 146.135956 
L 297.878496 93.507954 
L 303.08559 78.903259 
L 307.491592 67.225973 
L 311.497049 57.278295 
L 315.10196 48.954633 
L 318.306326 42.113078 
L 321.110145 36.59303 
L 323.913965 31.536613 
L 326.717785 26.968593 
L 329.121059 23.458898 
L 331.524333 20.337135 
L 333.927607 17.61454 
L 335.930336 15.657742 
L 337.933064 13.989866 
L 339.935793 12.61508 
L 341.938521 11.536819 
L 343.941249 10.75778 
L 345.543432 10.351321 
L 347.145615 10.138275 
L 348.747798 10.118981 
L 350.34998 10.293472 
L 351.952163 10.661468 
L 353.554346 11.22238 
L 355.557074 12.193412 
L 357.559803 13.462024 
L 359.562531 15.025045 
L 361.565259 16.878569 
L 363.567988 19.017962 
L 365.971262 21.955002 
L 368.374536 25.285387 
L 370.77781 28.997131 
L 373.58163 33.791598 
L 376.38545 39.063418 
L 379.189269 44.786768 
L 382.393635 51.844578 
L 385.998546 60.389366 
L 389.603457 69.507738 
L 393.608914 80.222075 
L 398.415462 93.742496 
L 404.423647 111.378074 
L 417.641655 151.17534 
L 417.641655 151.17534 
" style="fill:none;stroke:#009afa;stroke-linecap:round;stroke-width:3;"/>
   </g>
   <g id="line2d_22">
    <path clip-path="url(#pc5ba81b0ca)" d="M 33.518345 10.103439 
L 36.322165 25.682492 
L 38.324893 35.271889 
L 40.327622 43.651035 
L 42.33035 50.938325 
L 44.333078 57.241494 
L 45.935261 61.641682 
L 47.537444 65.521144 
L 49.139627 68.922748 
L 50.741809 71.886315 
L 52.343992 74.448853 
L 53.946175 76.644771 
L 55.548358 78.506074 
L 57.15054 80.062545 
L 58.752723 81.341912 
L 60.354906 82.369998 
L 61.957088 83.170867 
L 63.559271 83.766949 
L 65.562 84.255801 
L 67.564728 84.495051 
L 69.567456 84.519369 
L 71.970731 84.309459 
L 74.374005 83.885807 
L 77.177824 83.181471 
L 80.782736 82.041247 
L 86.390375 79.999057 
L 93.600197 77.403912 
L 97.605654 76.179927 
L 101.210565 75.297067 
L 104.414931 74.725702 
L 107.619296 74.383381 
L 110.423116 74.28912 
L 113.226936 74.398948 
L 116.030756 74.722207 
L 118.834575 75.265889 
L 121.638395 76.034777 
L 124.442215 77.031566 
L 127.246035 78.256986 
L 130.049855 79.709905 
L 133.25422 81.645173 
L 136.458586 83.866804 
L 139.662951 86.365205 
L 142.867316 89.128323 
L 146.472228 92.535323 
L 150.077139 96.235589 
L 154.082596 100.658494 
L 158.488598 105.855518 
L 163.695692 112.367197 
L 170.104423 120.78321 
L 182.120793 137.061976 
L 189.731161 147.173799 
L 195.338801 154.270909 
L 200.145349 159.997303 
L 204.551352 164.883077 
L 208.556808 168.97196 
L 212.16172 172.329856 
L 215.366085 175.035667 
L 218.570451 177.460909 
L 221.774816 179.590141 
L 224.578636 181.199692 
L 227.382456 182.564355 
L 230.186275 183.677476 
L 232.990095 184.533629 
L 235.793915 185.128646 
L 238.197189 185.428588 
L 240.600463 185.533458 
L 243.003737 185.44289 
L 245.407011 185.157219 
L 247.810285 184.677479 
L 250.614105 183.874853 
L 253.417925 182.814409 
L 256.221745 181.501347 
L 259.025565 179.942108 
L 261.829384 178.144333 
L 265.03375 175.809006 
L 268.238115 173.188613 
L 271.843026 169.920875 
L 275.447938 166.34008 
L 279.453394 162.029593 
L 283.859397 156.934568 
L 288.665945 151.024472 
L 294.67413 143.247232 
L 303.486135 131.403921 
L 314.300869 116.918261 
L 320.309054 109.254387 
L 325.115602 103.471027 
L 329.521605 98.518662 
L 333.527062 94.358359 
L 337.131973 90.928136 
L 340.736884 87.8243 
L 343.941249 85.359712 
L 347.145615 83.188666 
L 349.949435 81.540761 
L 352.753254 80.136333 
L 355.557074 78.98226 
L 358.360894 78.084195 
L 361.164714 77.446536 
L 363.567988 77.109636 
L 365.971262 76.967584 
L 368.374536 77.02089 
L 370.77781 77.269363 
L 373.181084 77.712109 
L 375.984904 78.47202 
L 378.788724 79.490438 
L 381.592544 80.762375 
L 384.396363 82.281602 
L 387.200183 84.040676 
L 390.404549 86.333633 
L 393.608914 88.913903 
L 396.81328 91.76498 
L 400.418191 95.273371 
L 404.423647 99.511817 
L 408.82965 104.538653 
L 413.636198 110.388513 
L 417.641655 115.496309 
L 417.641655 115.496309 
" style="fill:none;stroke:#e36f47;stroke-linecap:round;stroke-width:3;"/>
   </g>
   <g id="patch_3">
    <path d="M 21.994646 259.665354 
L 21.994646 2.834646 
" style="fill:none;stroke:#000000;stroke-linecap:square;stroke-linejoin:miter;"/>
   </g>
   <g id="patch_4">
    <path d="M 21.994646 259.665354 
L 429.165354 259.665354 
" style="fill:none;stroke:#000000;stroke-linecap:square;stroke-linejoin:miter;"/>
   </g>
   <g id="line2d_23">
    <path clip-path="url(#pc5ba81b0ca)" d="M 33.518345 10.103439 
L 35.521073 21.485597 
L 37.523802 31.496809 
L 39.52653 40.268624 
L 41.529259 47.920789 
L 43.531987 54.562365 
L 45.534715 60.292744 
L 47.136898 64.282161 
L 48.739081 67.789277 
L 50.341264 70.853799 
L 51.943446 73.512658 
L 53.545629 75.800219 
L 55.147812 77.748469 
L 56.749995 79.3872 
L 58.352177 80.744168 
L 59.95436 81.845244 
L 61.556543 82.714552 
L 63.158726 83.374598 
L 65.161454 83.937241 
L 67.164182 84.24361 
L 69.166911 84.328581 
L 71.570185 84.183222 
L 73.973459 83.815514 
L 76.777279 83.166114 
L 80.38219 82.081188 
L 85.589284 80.241122 
L 94.000743 77.258626 
L 98.0062 76.070568 
L 101.611111 75.221899 
L 104.815477 74.681744 
L 108.019842 74.370923 
L 110.823662 74.304159 
L 113.627482 74.441186 
L 116.431301 74.791148 
L 119.235121 75.360865 
L 122.038941 76.154963 
L 124.842761 77.176003 
L 127.64658 78.424589 
L 130.4504 79.899481 
L 133.654766 81.858272 
L 136.859131 84.101607 
L 140.063497 86.619779 
L 143.267862 89.400636 
L 146.872773 92.825056 
L 150.87823 96.96953 
L 154.883687 101.435749 
L 159.289689 106.671331 
L 164.496783 113.215676 
L 170.905514 121.651956 
L 192.935527 151.031385 
L 198.142621 157.411588 
L 202.548623 162.466859 
L 206.55408 166.734974 
L 210.158991 170.273169 
L 213.763902 173.49462 
L 216.968268 176.071197 
L 220.172633 178.360584 
L 222.976453 180.116707 
L 225.780273 181.633205 
L 228.584093 182.902686 
L 231.387912 183.918962 
L 234.191732 184.677084 
L 236.995552 185.173362 
L 239.398826 185.388476 
L 241.8021 185.40866 
L 244.205374 185.233852 
L 246.608648 184.864691 
L 249.412468 184.190183 
L 252.216288 183.256301 
L 255.020108 182.067629 
L 257.823927 180.629996 
L 260.627747 178.950452 
L 263.832113 176.74537 
L 267.036478 174.249226 
L 270.240844 171.477995 
L 273.845755 168.053688 
L 277.450666 164.331438 
L 281.456123 159.882893 
L 285.862125 154.660825 
L 291.069219 148.129566 
L 297.47795 139.712075 
L 318.706871 111.498431 
L 323.913965 105.125107 
L 328.319968 100.072548 
L 332.325425 95.804822 
L 335.930336 92.265529 
L 339.535247 89.041796 
L 342.739612 86.462327 
L 345.943978 84.169347 
L 348.747798 82.409577 
L 351.551617 80.889028 
L 354.355437 79.615147 
L 357.159257 78.594174 
L 359.963077 77.831109 
L 362.766896 77.329691 
L 365.170171 77.11005 
L 367.573445 77.085255 
L 369.976719 77.255394 
L 372.379993 77.619857 
L 375.183813 78.288877 
L 377.987632 79.217301 
L 380.791452 80.400582 
L 383.595272 81.832924 
L 386.399092 83.507312 
L 389.603457 85.706707 
L 392.807823 88.197425 
L 396.012188 90.963533 
L 399.617099 94.382488 
L 403.22201 98.099868 
L 407.227467 102.543625 
L 411.63347 107.761244 
L 416.840564 114.288429 
L 417.641655 115.320851 
L 417.641655 115.320851 
" style="fill:none;stroke:#3ea44e;stroke-linecap:round;stroke-width:3;"/>
   </g>
   <g id="legend_1">
    <g id="patch_5">
     <path d="M 27.594646 255.665354 
L 127.612146 255.665354 
Q 129.212146 255.665354 129.212146 254.065354 
L 129.212146 219.637854 
Q 129.212146 218.037854 127.612146 218.037854 
L 27.594646 218.037854 
Q 25.994646 218.037854 25.994646 219.637854 
L 25.994646 254.065354 
Q 25.994646 255.665354 27.594646 255.665354 
z
" style="fill:#ffffff;stroke:#000000;stroke-linejoin:miter;"/>
    </g>
    <g id="line2d_24">
     <path d="M 29.194646 224.516604 
L 45.194646 224.516604 
" style="fill:none;stroke:#009afa;stroke-linecap:square;stroke-width:3;"/>
    </g>
    <g id="line2d_25"/>
    <g id="text_12">
     <!-- r(t) -->
     <defs>
      <path d="M 41.109375 46.296875 
Q 39.59375 47.171875 37.8125 47.578125 
Q 36.03125 48 33.890625 48 
Q 26.265625 48 22.1875 43.046875 
Q 18.109375 38.09375 18.109375 28.8125 
L 18.109375 0 
L 9.078125 0 
L 9.078125 54.6875 
L 18.109375 54.6875 
L 18.109375 46.1875 
Q 20.953125 51.171875 25.484375 53.578125 
Q 30.03125 56 36.53125 56 
Q 37.453125 56 38.578125 55.875 
Q 39.703125 55.765625 41.0625 55.515625 
z
" id="DejaVuSans-114"/>
      <path d="M 31 75.875 
Q 24.46875 64.65625 21.28125 53.65625 
Q 18.109375 42.671875 18.109375 31.390625 
Q 18.109375 20.125 21.3125 9.0625 
Q 24.515625 -2 31 -13.1875 
L 23.1875 -13.1875 
Q 15.875 -1.703125 12.234375 9.375 
Q 8.59375 20.453125 8.59375 31.390625 
Q 8.59375 42.28125 12.203125 53.3125 
Q 15.828125 64.359375 23.1875 75.875 
z
" id="DejaVuSans-40"/>
      <path d="M 8.015625 75.875 
L 15.828125 75.875 
Q 23.140625 64.359375 26.78125 53.3125 
Q 30.421875 42.28125 30.421875 31.390625 
Q 30.421875 20.453125 26.78125 9.375 
Q 23.140625 -1.703125 15.828125 -13.1875 
L 8.015625 -13.1875 
Q 14.5 -2 17.703125 9.0625 
Q 20.90625 20.125 20.90625 31.390625 
Q 20.90625 42.671875 17.703125 53.65625 
Q 14.5 64.65625 8.015625 75.875 
z
" id="DejaVuSans-41"/>
     </defs>
     <g transform="translate(51.594646 227.316604)scale(0.08 -0.08)">
      <use xlink:href="#DejaVuSans-114"/>
      <use x="41.113281" xlink:href="#DejaVuSans-40"/>
      <use x="80.126953" xlink:href="#DejaVuSans-116"/>
      <use x="119.335938" xlink:href="#DejaVuSans-41"/>
     </g>
    </g>
    <g id="line2d_26">
     <path d="M 29.194646 236.259104 
L 45.194646 236.259104 
" style="fill:none;stroke:#e36f47;stroke-linecap:square;stroke-width:3;"/>
    </g>
    <g id="line2d_27"/>
    <g id="text_13">
     <!-- y(t) -->
     <defs>
      <path d="M 32.171875 -5.078125 
Q 28.375 -14.84375 24.75 -17.8125 
Q 21.140625 -20.796875 15.09375 -20.796875 
L 7.90625 -20.796875 
L 7.90625 -13.28125 
L 13.1875 -13.28125 
Q 16.890625 -13.28125 18.9375 -11.515625 
Q 21 -9.765625 23.484375 -3.21875 
L 25.09375 0.875 
L 2.984375 54.6875 
L 12.5 54.6875 
L 29.59375 11.921875 
L 46.6875 54.6875 
L 56.203125 54.6875 
z
" id="DejaVuSans-121"/>
     </defs>
     <g transform="translate(51.594646 239.059104)scale(0.08 -0.08)">
      <use xlink:href="#DejaVuSans-121"/>
      <use x="59.179688" xlink:href="#DejaVuSans-40"/>
      <use x="98.193359" xlink:href="#DejaVuSans-116"/>
      <use x="137.402344" xlink:href="#DejaVuSans-41"/>
     </g>
    </g>
    <g id="line2d_28">
     <path d="M 29.194646 248.001604 
L 45.194646 248.001604 
" style="fill:none;stroke:#3ea44e;stroke-linecap:square;stroke-width:3;"/>
    </g>
    <g id="line2d_29"/>
    <g id="text_14">
     <!-- Analytical Solution -->
     <defs>
      <path d="M 34.1875 63.1875 
L 20.796875 26.90625 
L 47.609375 26.90625 
z
M 28.609375 72.90625 
L 39.796875 72.90625 
L 67.578125 0 
L 57.328125 0 
L 50.6875 18.703125 
L 17.828125 18.703125 
L 11.1875 0 
L 0.78125 0 
z
" id="DejaVuSans-65"/>
      <path d="M 54.890625 33.015625 
L 54.890625 0 
L 45.90625 0 
L 45.90625 32.71875 
Q 45.90625 40.484375 42.875 44.328125 
Q 39.84375 48.1875 33.796875 48.1875 
Q 26.515625 48.1875 22.3125 43.546875 
Q 18.109375 38.921875 18.109375 30.90625 
L 18.109375 0 
L 9.078125 0 
L 9.078125 54.6875 
L 18.109375 54.6875 
L 18.109375 46.1875 
Q 21.34375 51.125 25.703125 53.5625 
Q 30.078125 56 35.796875 56 
Q 45.21875 56 50.046875 50.171875 
Q 54.890625 44.34375 54.890625 33.015625 
z
" id="DejaVuSans-110"/>
      <path d="M 34.28125 27.484375 
Q 23.390625 27.484375 19.1875 25 
Q 14.984375 22.515625 14.984375 16.5 
Q 14.984375 11.71875 18.140625 8.90625 
Q 21.296875 6.109375 26.703125 6.109375 
Q 34.1875 6.109375 38.703125 11.40625 
Q 43.21875 16.703125 43.21875 25.484375 
L 43.21875 27.484375 
z
M 52.203125 31.203125 
L 52.203125 0 
L 43.21875 0 
L 43.21875 8.296875 
Q 40.140625 3.328125 35.546875 0.953125 
Q 30.953125 -1.421875 24.3125 -1.421875 
Q 15.921875 -1.421875 10.953125 3.296875 
Q 6 8.015625 6 15.921875 
Q 6 25.140625 12.171875 29.828125 
Q 18.359375 34.515625 30.609375 34.515625 
L 43.21875 34.515625 
L 43.21875 35.40625 
Q 43.21875 41.609375 39.140625 45 
Q 35.0625 48.390625 27.6875 48.390625 
Q 23 48.390625 18.546875 47.265625 
Q 14.109375 46.140625 10.015625 43.890625 
L 10.015625 52.203125 
Q 14.9375 54.109375 19.578125 55.046875 
Q 24.21875 56 28.609375 56 
Q 40.484375 56 46.34375 49.84375 
Q 52.203125 43.703125 52.203125 31.203125 
z
" id="DejaVuSans-97"/>
      <path d="M 9.421875 75.984375 
L 18.40625 75.984375 
L 18.40625 0 
L 9.421875 0 
z
" id="DejaVuSans-108"/>
      <path d="M 9.421875 54.6875 
L 18.40625 54.6875 
L 18.40625 0 
L 9.421875 0 
z
M 9.421875 75.984375 
L 18.40625 75.984375 
L 18.40625 64.59375 
L 9.421875 64.59375 
z
" id="DejaVuSans-105"/>
      <path d="M 48.78125 52.59375 
L 48.78125 44.1875 
Q 44.96875 46.296875 41.140625 47.34375 
Q 37.3125 48.390625 33.40625 48.390625 
Q 24.65625 48.390625 19.8125 42.84375 
Q 14.984375 37.3125 14.984375 27.296875 
Q 14.984375 17.28125 19.8125 11.734375 
Q 24.65625 6.203125 33.40625 6.203125 
Q 37.3125 6.203125 41.140625 7.25 
Q 44.96875 8.296875 48.78125 10.40625 
L 48.78125 2.09375 
Q 45.015625 0.34375 40.984375 -0.53125 
Q 36.96875 -1.421875 32.421875 -1.421875 
Q 20.0625 -1.421875 12.78125 6.34375 
Q 5.515625 14.109375 5.515625 27.296875 
Q 5.515625 40.671875 12.859375 48.328125 
Q 20.21875 56 33.015625 56 
Q 37.15625 56 41.109375 55.140625 
Q 45.0625 54.296875 48.78125 52.59375 
z
" id="DejaVuSans-99"/>
      <path id="DejaVuSans-32"/>
      <path d="M 53.515625 70.515625 
L 53.515625 60.890625 
Q 47.90625 63.578125 42.921875 64.890625 
Q 37.9375 66.21875 33.296875 66.21875 
Q 25.25 66.21875 20.875 63.09375 
Q 16.5 59.96875 16.5 54.203125 
Q 16.5 49.359375 19.40625 46.890625 
Q 22.3125 44.4375 30.421875 42.921875 
L 36.375 41.703125 
Q 47.40625 39.59375 52.65625 34.296875 
Q 57.90625 29 57.90625 20.125 
Q 57.90625 9.515625 50.796875 4.046875 
Q 43.703125 -1.421875 29.984375 -1.421875 
Q 24.8125 -1.421875 18.96875 -0.25 
Q 13.140625 0.921875 6.890625 3.21875 
L 6.890625 13.375 
Q 12.890625 10.015625 18.65625 8.296875 
Q 24.421875 6.59375 29.984375 6.59375 
Q 38.421875 6.59375 43.015625 9.90625 
Q 47.609375 13.234375 47.609375 19.390625 
Q 47.609375 24.75 44.3125 27.78125 
Q 41.015625 30.8125 33.5 32.328125 
L 27.484375 33.5 
Q 16.453125 35.6875 11.515625 40.375 
Q 6.59375 45.0625 6.59375 53.421875 
Q 6.59375 63.09375 13.40625 68.65625 
Q 20.21875 74.21875 32.171875 74.21875 
Q 37.3125 74.21875 42.625 73.28125 
Q 47.953125 72.359375 53.515625 70.515625 
z
" id="DejaVuSans-83"/>
      <path d="M 30.609375 48.390625 
Q 23.390625 48.390625 19.1875 42.75 
Q 14.984375 37.109375 14.984375 27.296875 
Q 14.984375 17.484375 19.15625 11.84375 
Q 23.34375 6.203125 30.609375 6.203125 
Q 37.796875 6.203125 41.984375 11.859375 
Q 46.1875 17.53125 46.1875 27.296875 
Q 46.1875 37.015625 41.984375 42.703125 
Q 37.796875 48.390625 30.609375 48.390625 
z
M 30.609375 56 
Q 42.328125 56 49.015625 48.375 
Q 55.71875 40.765625 55.71875 27.296875 
Q 55.71875 13.875 49.015625 6.21875 
Q 42.328125 -1.421875 30.609375 -1.421875 
Q 18.84375 -1.421875 12.171875 6.21875 
Q 5.515625 13.875 5.515625 27.296875 
Q 5.515625 40.765625 12.171875 48.375 
Q 18.84375 56 30.609375 56 
z
" id="DejaVuSans-111"/>
      <path d="M 8.5 21.578125 
L 8.5 54.6875 
L 17.484375 54.6875 
L 17.484375 21.921875 
Q 17.484375 14.15625 20.5 10.265625 
Q 23.53125 6.390625 29.59375 6.390625 
Q 36.859375 6.390625 41.078125 11.03125 
Q 45.3125 15.671875 45.3125 23.6875 
L 45.3125 54.6875 
L 54.296875 54.6875 
L 54.296875 0 
L 45.3125 0 
L 45.3125 8.40625 
Q 42.046875 3.421875 37.71875 1 
Q 33.40625 -1.421875 27.6875 -1.421875 
Q 18.265625 -1.421875 13.375 4.4375 
Q 8.5 10.296875 8.5 21.578125 
z
M 31.109375 56 
z
" id="DejaVuSans-117"/>
     </defs>
     <g transform="translate(51.594646 250.801604)scale(0.08 -0.08)">
      <use xlink:href="#DejaVuSans-65"/>
      <use x="68.408203" xlink:href="#DejaVuSans-110"/>
      <use x="131.787109" xlink:href="#DejaVuSans-97"/>
      <use x="193.066406" xlink:href="#DejaVuSans-108"/>
      <use x="220.849609" xlink:href="#DejaVuSans-121"/>
      <use x="280.029297" xlink:href="#DejaVuSans-116"/>
      <use x="319.238281" xlink:href="#DejaVuSans-105"/>
      <use x="347.021484" xlink:href="#DejaVuSans-99"/>
      <use x="402.001953" xlink:href="#DejaVuSans-97"/>
      <use x="463.28125" xlink:href="#DejaVuSans-108"/>
      <use x="491.064453" xlink:href="#DejaVuSans-32"/>
      <use x="522.851562" xlink:href="#DejaVuSans-83"/>
      <use x="586.328125" xlink:href="#DejaVuSans-111"/>
      <use x="647.509766" xlink:href="#DejaVuSans-108"/>
      <use x="675.292969" xlink:href="#DejaVuSans-117"/>
      <use x="738.671875" xlink:href="#DejaVuSans-116"/>
      <use x="777.880859" xlink:href="#DejaVuSans-105"/>
      <use x="805.664062" xlink:href="#DejaVuSans-111"/>
      <use x="866.845703" xlink:href="#DejaVuSans-110"/>
     </g>
    </g>
   </g>
  </g>
 </g>
 <defs>
  <clipPath id="pc5ba81b0ca">
   <rect height="256.830709" width="407.170709" x="21.994646" y="2.834646"/>
  </clipPath>
 </defs>
</svg>
