<?xml version="1.0" encoding="utf-8"?>
<svg xmlns="http://www.w3.org/2000/svg" xmlns:xlink="http://www.w3.org/1999/xlink" width="600" height="400" viewBox="0 0 2400 1600">
<defs>
  <clipPath id="clip4300">
    <rect x="0" y="0" width="2400" height="1600"/>
  </clipPath>
</defs>
<path clip-path="url(#clip4300)" d="
M0 1600 L2400 1600 L2400 0 L0 0  Z
  " fill="#ffffff" fill-rule="evenodd" fill-opacity="1"/>
<defs>
  <clipPath id="clip4301">
    <rect x="480" y="0" width="1681" height="1600"/>
  </clipPath>
</defs>
<path clip-path="url(#clip4300)" d="
M182.008 1425.62 L2352.76 1425.62 L2352.76 47.2441 L182.008 47.2441  Z
  " fill="#ffffff" fill-rule="evenodd" fill-opacity="1"/>
<defs>
  <clipPath id="clip4302">
    <rect x="182" y="47" width="2172" height="1379"/>
  </clipPath>
</defs>
<polyline clip-path="url(#clip4302)" style="stroke:#000000; stroke-width:2; stroke-opacity:0.1; fill:none" points="
  243.444,1425.62 243.444,47.2441 
  "/>
<polyline clip-path="url(#clip4302)" style="stroke:#000000; stroke-width:2; stroke-opacity:0.1; fill:none" points="
  670.53,1425.62 670.53,47.2441 
  "/>
<polyline clip-path="url(#clip4302)" style="stroke:#000000; stroke-width:2; stroke-opacity:0.1; fill:none" points="
  1097.62,1425.62 1097.62,47.2441 
  "/>
<polyline clip-path="url(#clip4302)" style="stroke:#000000; stroke-width:2; stroke-opacity:0.1; fill:none" points="
  1524.7,1425.62 1524.7,47.2441 
  "/>
<polyline clip-path="url(#clip4302)" style="stroke:#000000; stroke-width:2; stroke-opacity:0.1; fill:none" points="
  1951.79,1425.62 1951.79,47.2441 
  "/>
<polyline clip-path="url(#clip4302)" style="stroke:#000000; stroke-width:2; stroke-opacity:0.1; fill:none" points="
  182.008,1386.61 2352.76,1386.61 
  "/>
<polyline clip-path="url(#clip4302)" style="stroke:#000000; stroke-width:2; stroke-opacity:0.1; fill:none" points="
  182.008,1061.52 2352.76,1061.52 
  "/>
<polyline clip-path="url(#clip4302)" style="stroke:#000000; stroke-width:2; stroke-opacity:0.1; fill:none" points="
  182.008,736.432 2352.76,736.432 
  "/>
<polyline clip-path="url(#clip4302)" style="stroke:#000000; stroke-width:2; stroke-opacity:0.1; fill:none" points="
  182.008,411.343 2352.76,411.343 
  "/>
<polyline clip-path="url(#clip4302)" style="stroke:#000000; stroke-width:2; stroke-opacity:0.1; fill:none" points="
  182.008,86.2547 2352.76,86.2547 
  "/>
<polyline clip-path="url(#clip4300)" style="stroke:#000000; stroke-width:4; stroke-opacity:1; fill:none" points="
  182.008,1425.62 2352.76,1425.62 
  "/>
<polyline clip-path="url(#clip4300)" style="stroke:#000000; stroke-width:4; stroke-opacity:1; fill:none" points="
  182.008,1425.62 182.008,47.2441 
  "/>
<polyline clip-path="url(#clip4300)" style="stroke:#000000; stroke-width:4; stroke-opacity:1; fill:none" points="
  243.444,1425.62 243.444,1409.08 
  "/>
<polyline clip-path="url(#clip4300)" style="stroke:#000000; stroke-width:4; stroke-opacity:1; fill:none" points="
  670.53,1425.62 670.53,1409.08 
  "/>
<polyline clip-path="url(#clip4300)" style="stroke:#000000; stroke-width:4; stroke-opacity:1; fill:none" points="
  1097.62,1425.62 1097.62,1409.08 
  "/>
<polyline clip-path="url(#clip4300)" style="stroke:#000000; stroke-width:4; stroke-opacity:1; fill:none" points="
  1524.7,1425.62 1524.7,1409.08 
  "/>
<polyline clip-path="url(#clip4300)" style="stroke:#000000; stroke-width:4; stroke-opacity:1; fill:none" points="
  1951.79,1425.62 1951.79,1409.08 
  "/>
<polyline clip-path="url(#clip4300)" style="stroke:#000000; stroke-width:4; stroke-opacity:1; fill:none" points="
  182.008,1386.61 208.057,1386.61 
  "/>
<polyline clip-path="url(#clip4300)" style="stroke:#000000; stroke-width:4; stroke-opacity:1; fill:none" points="
  182.008,1061.52 208.057,1061.52 
  "/>
<polyline clip-path="url(#clip4300)" style="stroke:#000000; stroke-width:4; stroke-opacity:1; fill:none" points="
  182.008,736.432 208.057,736.432 
  "/>
<polyline clip-path="url(#clip4300)" style="stroke:#000000; stroke-width:4; stroke-opacity:1; fill:none" points="
  182.008,411.343 208.057,411.343 
  "/>
<polyline clip-path="url(#clip4300)" style="stroke:#000000; stroke-width:4; stroke-opacity:1; fill:none" points="
  182.008,86.2547 208.057,86.2547 
  "/>
<g clip-path="url(#clip4300)">
<text style="fill:#000000; fill-opacity:1; font-family:Arial,Helvetica Neue,Helvetica,sans-serif; font-size:48px; text-anchor:middle;" transform="rotate(0, 243.444, 1479.62)" x="243.444" y="1479.62">0</text>
</g>
<g clip-path="url(#clip4300)">
<text style="fill:#000000; fill-opacity:1; font-family:Arial,Helvetica Neue,Helvetica,sans-serif; font-size:48px; text-anchor:middle;" transform="rotate(0, 670.53, 1479.62)" x="670.53" y="1479.62">2</text>
</g>
<g clip-path="url(#clip4300)">
<text style="fill:#000000; fill-opacity:1; font-family:Arial,Helvetica Neue,Helvetica,sans-serif; font-size:48px; text-anchor:middle;" transform="rotate(0, 1097.62, 1479.62)" x="1097.62" y="1479.62">4</text>
</g>
<g clip-path="url(#clip4300)">
<text style="fill:#000000; fill-opacity:1; font-family:Arial,Helvetica Neue,Helvetica,sans-serif; font-size:48px; text-anchor:middle;" transform="rotate(0, 1524.7, 1479.62)" x="1524.7" y="1479.62">6</text>
</g>
<g clip-path="url(#clip4300)">
<text style="fill:#000000; fill-opacity:1; font-family:Arial,Helvetica Neue,Helvetica,sans-serif; font-size:48px; text-anchor:middle;" transform="rotate(0, 1951.79, 1479.62)" x="1951.79" y="1479.62">8</text>
</g>
<g clip-path="url(#clip4300)">
<text style="fill:#000000; fill-opacity:1; font-family:Arial,Helvetica Neue,Helvetica,sans-serif; font-size:48px; text-anchor:end;" transform="rotate(0, 158.008, 1404.11)" x="158.008" y="1404.11">-1.0</text>
</g>
<g clip-path="url(#clip4300)">
<text style="fill:#000000; fill-opacity:1; font-family:Arial,Helvetica Neue,Helvetica,sans-serif; font-size:48px; text-anchor:end;" transform="rotate(0, 158.008, 1079.02)" x="158.008" y="1079.02">-0.5</text>
</g>
<g clip-path="url(#clip4300)">
<text style="fill:#000000; fill-opacity:1; font-family:Arial,Helvetica Neue,Helvetica,sans-serif; font-size:48px; text-anchor:end;" transform="rotate(0, 158.008, 753.932)" x="158.008" y="753.932">0.0</text>
</g>
<g clip-path="url(#clip4300)">
<text style="fill:#000000; fill-opacity:1; font-family:Arial,Helvetica Neue,Helvetica,sans-serif; font-size:48px; text-anchor:end;" transform="rotate(0, 158.008, 428.843)" x="158.008" y="428.843">0.5</text>
</g>
<g clip-path="url(#clip4300)">
<text style="fill:#000000; fill-opacity:1; font-family:Arial,Helvetica Neue,Helvetica,sans-serif; font-size:48px; text-anchor:end;" transform="rotate(0, 158.008, 103.755)" x="158.008" y="103.755">1.0</text>
</g>
<g clip-path="url(#clip4300)">
<text style="fill:#000000; fill-opacity:1; font-family:Arial,Helvetica Neue,Helvetica,sans-serif; font-size:66px; text-anchor:middle;" transform="rotate(0, 1267.38, 1559.48)" x="1267.38" y="1559.48">t</text>
</g>
<polyline clip-path="url(#clip4302)" style="stroke:#009af9; stroke-width:12; stroke-opacity:1; fill:none" points="
  243.444,736.432 245.58,729.931 247.715,723.43 249.851,716.93 251.986,710.432 254.121,703.937 256.257,697.445 258.392,690.957 260.528,684.474 262.663,677.995 
  264.799,671.523 266.934,665.057 269.069,658.598 271.205,652.147 273.34,645.704 275.476,639.271 277.611,632.847 279.747,626.434 281.882,620.031 284.017,613.64 
  286.153,607.262 288.288,600.896 290.424,594.544 292.559,588.206 294.695,581.883 296.83,575.576 298.965,569.284 301.101,563.009 303.236,556.752 305.372,550.513 
  307.507,544.292 309.643,538.09 311.778,531.908 313.913,525.747 316.049,519.606 318.184,513.488 320.32,507.391 322.455,501.318 324.591,495.268 326.726,489.242 
  328.861,483.241 330.997,477.265 333.132,471.316 335.268,465.392 337.403,459.496 339.539,453.627 341.674,447.787 343.809,441.976 345.945,436.194 348.08,430.442 
  350.216,424.721 352.351,419.03 354.487,413.372 356.622,407.746 358.757,402.153 360.893,396.593 363.028,391.067 365.164,385.576 367.299,380.119 369.435,374.699 
  371.57,369.314 373.705,363.967 375.841,358.656 377.976,353.384 380.112,348.149 382.247,342.954 384.383,337.797 386.518,332.681 388.653,327.605 390.789,322.57 
  392.924,317.576 395.06,312.625 397.195,307.715 399.331,302.849 401.466,298.025 403.601,293.246 405.737,288.511 407.872,283.821 410.008,279.176 412.143,274.577 
  414.279,270.023 416.414,265.517 418.549,261.058 420.685,256.646 422.82,252.282 424.956,247.967 427.091,243.7 429.227,239.483 431.362,235.315 433.497,231.198 
  435.633,227.131 437.768,223.115 439.904,219.15 442.039,215.237 444.175,211.376 446.31,207.568 448.445,203.812 450.581,200.11 452.716,196.462 454.852,192.867 
  456.987,189.327 459.123,185.841 461.258,182.411 463.393,179.036 465.529,175.716 467.664,172.453 469.8,169.246 471.935,166.096 474.071,163.003 476.206,159.967 
  478.341,156.989 480.477,154.069 482.612,151.207 484.748,148.404 486.883,145.659 489.019,142.974 491.154,140.347 493.289,137.781 495.425,135.274 497.56,132.828 
  499.696,130.441 501.831,128.116 503.967,125.851 506.102,123.647 508.237,121.505 510.373,119.424 512.508,117.404 514.644,115.447 516.779,113.552 518.915,111.719 
  521.05,109.948 523.185,108.24 525.321,106.595 527.456,105.013 529.592,103.494 531.727,102.039 533.863,100.647 535.998,99.318 538.133,98.0531 540.269,96.8521 
  542.404,95.715 544.54,94.6419 546.675,93.6331 548.811,92.6885 550.946,91.8083 553.081,90.9925 555.217,90.2413 557.352,89.5548 559.488,88.9329 561.623,88.3757 
  563.758,87.8834 565.894,87.4559 568.029,87.0933 570.165,86.7957 572.3,86.563 574.436,86.3953 576.571,86.2926 578.706,86.2549 580.842,86.2822 582.977,86.3746 
  585.113,86.5319 587.248,86.7543 589.384,87.0416 591.519,87.3938 593.654,87.811 595.79,88.293 597.925,88.8398 600.061,89.4514 602.196,90.1277 604.332,90.8686 
  606.467,91.674 608.602,92.544 610.738,93.4783 612.873,94.4769 615.009,95.5398 617.144,96.6667 619.28,97.8576 621.415,99.1123 623.55,100.431 625.686,101.813 
  627.821,103.258 629.957,104.767 632.092,106.339 634.228,107.974 636.363,109.672 638.498,111.433 640.634,113.256 642.769,115.141 644.905,117.089 647.04,119.098 
  649.176,121.169 651.311,123.302 653.446,125.496 655.582,127.751 657.717,130.067 659.853,132.443 661.988,134.88 664.124,137.378 666.259,139.935 668.394,142.551 
  670.53,145.227 672.665,147.963 674.801,150.757 676.936,153.609 679.072,156.52 681.207,159.489 683.342,162.516 685.478,165.6 687.613,168.741 689.749,171.939 
  691.884,175.193 694.02,178.503 696.155,181.869 698.29,185.291 700.426,188.768 702.561,192.299 704.697,195.885 706.832,199.525 708.968,203.219 711.103,206.966 
  713.238,210.766 715.374,214.619 717.509,218.523 719.645,222.48 721.78,226.488 723.916,230.547 726.051,234.656 728.186,238.816 730.322,243.025 732.457,247.284 
  734.593,251.591 736.728,255.948 738.864,260.352 740.999,264.804 743.134,269.303 745.27,273.848 747.405,278.44 749.541,283.078 751.676,287.761 753.812,292.489 
  755.947,297.261 758.082,302.078 760.218,306.937 762.353,311.84 764.489,316.785 766.624,321.772 768.76,326.8 770.895,331.87 773.03,336.98 775.166,342.13 
  777.301,347.319 779.437,352.547 781.572,357.814 783.708,363.118 785.843,368.46 787.978,373.839 790.114,379.254 792.249,384.704 794.385,390.19 796.52,395.71 
  798.656,401.265 800.791,406.853 802.926,412.474 805.062,418.127 807.197,423.812 809.333,429.529 811.468,435.276 813.604,441.053 815.739,446.86 817.874,452.695 
  820.01,458.559 822.145,464.451 824.281,470.37 826.416,476.316 828.552,482.288 830.687,488.285 832.822,494.307 834.958,500.353 837.093,506.423 839.229,512.515 
  841.364,518.63 843.5,524.767 845.635,530.925 847.77,537.104 849.906,543.303 852.041,549.521 854.177,555.757 856.312,562.012 858.448,568.284 860.583,574.573 
  862.718,580.878 864.854,587.198 866.989,593.534 869.125,599.884 871.26,606.247 873.396,612.624 875.531,619.013 877.666,625.413 879.802,631.825 881.937,638.247 
  884.073,644.679 886.208,651.12 888.344,657.57 890.479,664.028 892.614,670.493 894.75,676.964 896.885,683.441 899.021,689.924 901.156,696.411 903.292,702.903 
  905.427,709.397 907.562,715.895 909.698,722.394 911.833,728.895 913.969,735.397 916.104,741.898 918.24,748.4 920.375,754.9 922.51,761.398 924.646,767.893 
  926.781,774.386 928.917,780.875 931.052,787.359 933.188,793.838 935.323,800.311 937.458,806.778 939.594,813.238 941.729,819.691 943.865,826.135 946,832.57 
  948.136,838.995 950.271,845.41 952.406,851.814 954.542,858.207 956.677,864.588 958.813,870.955 960.948,877.31 963.084,883.65 965.219,889.975 967.354,896.285 
  969.49,902.579 971.625,908.857 973.761,915.117 975.896,921.36 978.032,927.583 980.167,933.788 982.302,939.973 984.438,946.138 986.573,952.282 988.709,958.404 
  990.844,964.504 992.98,970.581 995.115,976.635 997.25,982.664 999.386,988.669 1001.52,994.649 1003.66,1000.6 1005.79,1006.53 1007.93,1012.43 1010.06,1018.3 
  1012.2,1024.15 1014.33,1029.97 1016.47,1035.75 1018.6,1041.51 1020.74,1047.23 1022.88,1052.93 1025.01,1058.59 1027.15,1064.22 1029.28,1069.82 1031.42,1075.39 
  1033.55,1080.92 1035.69,1086.42 1037.82,1091.88 1039.96,1097.3 1042.09,1102.7 1044.23,1108.05 1046.37,1113.37 1048.5,1118.64 1050.64,1123.88 1052.77,1129.09 
  1054.91,1134.25 1057.04,1139.37 1059.18,1144.45 1061.31,1149.5 1063.45,1154.5 1065.58,1159.45 1067.72,1164.37 1069.85,1169.24 1071.99,1174.07 1074.13,1178.86 
  1076.26,1183.6 1078.4,1188.3 1080.53,1192.95 1082.67,1197.56 1084.8,1202.12 1086.94,1206.63 1089.07,1211.1 1091.21,1215.52 1093.34,1219.89 1095.48,1224.21 
  1097.62,1228.49 1099.75,1232.71 1101.89,1236.89 1104.02,1241.01 1106.16,1245.09 1108.29,1249.11 1110.43,1253.09 1112.56,1257.01 1114.7,1260.88 1116.83,1264.69 
  1118.97,1268.46 1121.11,1272.17 1123.24,1275.83 1125.38,1279.43 1127.51,1282.98 1129.65,1286.47 1131.78,1289.91 1133.92,1293.3 1136.05,1296.62 1138.19,1299.9 
  1140.32,1303.11 1142.46,1306.27 1144.59,1309.37 1146.73,1312.42 1148.87,1315.4 1151,1318.33 1153.14,1321.21 1155.27,1324.02 1157.41,1326.77 1159.54,1329.47 
  1161.68,1332.1 1163.81,1334.68 1165.95,1337.2 1168.08,1339.65 1170.22,1342.05 1172.36,1344.38 1174.49,1346.66 1176.63,1348.87 1178.76,1351.02 1180.9,1353.11 
  1183.03,1355.14 1185.17,1357.11 1187.3,1359.02 1189.44,1360.86 1191.57,1362.64 1193.71,1364.36 1195.85,1366.01 1197.98,1367.6 1200.12,1369.13 1202.25,1370.6 
  1204.39,1372 1206.52,1373.34 1208.66,1374.61 1210.79,1375.83 1212.93,1376.97 1215.06,1378.06 1217.2,1379.08 1219.33,1380.03 1221.47,1380.92 1223.61,1381.75 
  1225.74,1382.51 1227.88,1383.2 1230.01,1383.84 1232.15,1384.4 1234.28,1384.91 1236.42,1385.34 1238.55,1385.72 1240.69,1386.03 1242.82,1386.27 1244.96,1386.45 
  1247.1,1386.56 1249.23,1386.61 1251.37,1386.59 1253.5,1386.51 1255.64,1386.36 1257.77,1386.15 1259.91,1385.87 1262.04,1385.53 1264.18,1385.12 1266.31,1384.65 
  1268.45,1384.12 1270.59,1383.51 1272.72,1382.85 1274.86,1382.12 1276.99,1381.32 1279.13,1380.46 1281.26,1379.54 1283.4,1378.55 1285.53,1377.5 1287.67,1376.38 
  1289.8,1375.2 1291.94,1373.96 1294.07,1372.65 1296.21,1371.28 1298.35,1369.84 1300.48,1368.34 1302.62,1366.78 1304.75,1365.15 1306.89,1363.47 1309.02,1361.72 
  1311.16,1359.9 1313.29,1358.03 1315.43,1356.09 1317.56,1354.09 1319.7,1352.03 1321.84,1349.91 1323.97,1347.72 1326.11,1345.48 1328.24,1343.17 1330.38,1340.8 
  1332.51,1338.38 1334.65,1335.89 1336.78,1333.34 1338.92,1330.73 1341.05,1328.07 1343.19,1325.34 1345.33,1322.56 1347.46,1319.71 1349.6,1316.81 1351.73,1313.85 
  1353.87,1310.83 1356,1307.76 1358.14,1304.63 1360.27,1301.44 1362.41,1298.19 1364.54,1294.89 1366.68,1291.53 1368.81,1288.12 1370.95,1284.65 1373.09,1281.13 
  1375.22,1277.55 1377.36,1273.92 1379.49,1270.24 1381.63,1266.5 1383.76,1262.71 1385.9,1258.86 1388.03,1254.97 1390.17,1251.02 1392.3,1247.02 1394.44,1242.97 
  1396.58,1238.87 1398.71,1234.71 1400.85,1230.51 1402.98,1226.26 1405.12,1221.96 1407.25,1217.61 1409.39,1213.22 1411.52,1208.77 1413.66,1204.28 1415.79,1199.74 
  1417.93,1195.16 1420.07,1190.53 1422.2,1185.85 1424.34,1181.13 1426.47,1176.37 1428.61,1171.56 1430.74,1166.7 1432.88,1161.81 1435.01,1156.87 1437.15,1151.89 
  1439.28,1146.87 1441.42,1141.8 1443.55,1136.7 1445.69,1131.56 1447.83,1126.37 1449.96,1121.15 1452.1,1115.89 1454.23,1110.59 1456.37,1105.26 1458.5,1099.88 
  1460.64,1094.48 1462.77,1089.03 1464.91,1083.55 1467.04,1078.04 1469.18,1072.49 1471.32,1066.9 1473.45,1061.29 1475.59,1055.64 1477.72,1049.96 1479.86,1044.25 
  1481.99,1038.51 1484.13,1032.73 1486.26,1026.93 1488.4,1021.1 1490.53,1015.24 1492.67,1009.35 1494.81,1003.44 1496.94,997.497 1499.08,991.53 1501.21,985.537 
  1503.35,979.519 1505.48,973.476 1507.62,967.41 1509.75,961.321 1511.89,955.209 1514.02,949.076 1516.16,942.921 1518.29,936.746 1520.43,930.55 1522.57,924.336 
  1524.7,918.102 1526.84,911.85 1528.97,905.581 1531.11,899.295 1533.24,892.992 1535.38,886.674 1537.51,880.341 1539.65,873.993 1541.78,867.632 1543.92,861.257 
  1546.06,854.87 1548.19,848.471 1550.33,842.061 1552.46,835.641 1554.6,829.21 1556.73,822.771 1558.87,816.322 1561,809.866 1563.14,803.402 1565.27,796.932 
  1567.41,790.455 1569.55,783.973 1571.68,777.487 1573.82,770.996 1575.95,764.502 1578.09,758.005 1580.22,751.505 1582.36,745.005 1584.49,738.503 1586.63,732.002 
  1588.76,725.5 1590.9,719 1593.03,712.502 1595.17,706.006 1597.31,699.513 1599.44,693.023 1601.58,686.538 1603.71,680.058 1605.85,673.584 1607.98,667.116 
  1610.12,660.655 1612.25,654.201 1614.39,647.756 1616.52,641.319 1618.66,634.892 1620.8,628.475 1622.93,622.069 1625.07,615.675 1627.2,609.292 1629.34,602.923 
  1631.47,596.566 1633.61,590.224 1635.74,583.896 1637.88,577.583 1640.01,571.287 1642.15,565.006 1644.29,558.743 1646.42,552.498 1648.56,546.271 1650.69,540.063 
  1652.83,533.875 1654.96,527.707 1657.1,521.56 1659.23,515.434 1661.37,509.331 1663.5,503.25 1665.64,497.193 1667.77,491.159 1669.91,485.15 1672.05,479.166 
  1674.18,473.208 1676.32,467.276 1678.45,461.371 1680.59,455.494 1682.72,449.644 1684.86,443.824 1686.99,438.032 1689.13,432.271 1691.26,426.54 1693.4,420.839 
  1695.54,415.171 1697.67,409.534 1699.81,403.931 1701.94,398.36 1704.08,392.823 1706.21,387.321 1708.35,381.854 1710.48,376.422 1712.62,371.026 1714.75,365.666 
  1716.89,360.344 1719.02,355.059 1721.16,349.812 1723.3,344.604 1725.43,339.436 1727.57,334.306 1729.7,329.218 1731.84,324.169 1733.97,319.163 1736.11,314.197 
  1738.24,309.274 1740.38,304.394 1742.51,299.557 1744.65,294.764 1746.79,290.014 1748.92,285.31 1751.06,280.65 1753.19,276.037 1755.33,271.469 1757.46,266.947 
  1759.6,262.473 1761.73,258.046 1763.87,253.667 1766,249.336 1768.14,245.054 1770.28,240.821 1772.41,236.637 1774.55,232.504 1776.68,228.421 1778.82,224.388 
  1780.95,220.407 1783.09,216.478 1785.22,212.6 1787.36,208.775 1789.49,205.003 1791.63,201.284 1793.76,197.618 1795.9,194.006 1798.04,190.448 1800.17,186.945 
  1802.31,183.497 1804.44,180.105 1806.58,176.768 1808.71,173.486 1810.85,170.262 1812.98,167.093 1815.12,163.982 1817.25,160.928 1819.39,157.932 1821.53,154.993 
  1823.66,152.112 1825.8,149.29 1827.93,146.527 1830.07,143.823 1832.2,141.178 1834.34,138.592 1836.47,136.066 1838.61,133.6 1840.74,131.195 1842.88,128.85 
  1845.02,126.566 1847.15,124.343 1849.29,122.18 1851.42,120.08 1853.56,118.041 1855.69,116.064 1857.83,114.149 1859.96,112.296 1862.1,110.506 1864.23,108.778 
  1866.37,107.113 1868.5,105.51 1870.64,103.971 1872.78,102.496 1874.91,101.083 1877.05,99.7343 1879.18,98.4491 1881.32,97.2277 1883.45,96.0702 1885.59,94.9768 
  1887.72,93.9474 1889.86,92.9824 1891.99,92.0817 1894.13,91.2454 1896.27,90.4736 1898.4,89.7664 1900.54,89.1239 1902.67,88.5462 1904.81,88.0332 1906.94,87.585 
  1909.08,87.2018 1911.21,86.8834 1913.35,86.6301 1915.48,86.4416 1917.62,86.3182 1919.76,86.2598 1921.89,86.2665 1924.03,86.3381 1926.16,86.4748 1928.3,86.6764 
  1930.43,86.943 1932.57,87.2746 1934.7,87.6711 1936.84,88.1324 1938.97,88.6586 1941.11,89.2496 1943.24,89.9052 1945.38,90.6256 1947.52,91.4105 1949.65,92.2599 
  1951.79,93.1737 1953.92,94.1519 1956.06,95.1943 1958.19,96.3008 1960.33,97.4713 1962.46,98.7057 1964.6,100.004 1966.73,101.366 1968.87,102.791 1971.01,104.28 
  1973.14,105.832 1975.28,107.447 1977.41,109.125 1979.55,110.865 1981.68,112.668 1983.82,114.534 1985.95,116.462 1988.09,118.451 1990.22,120.503 1992.36,122.616 
  1994.5,124.79 1996.63,127.026 1998.77,129.323 2000.9,131.68 2003.04,134.098 2005.17,136.576 2007.31,139.114 2009.44,141.711 2011.58,144.369 2013.71,147.085 
  2015.85,149.86 2017.98,152.694 2020.12,155.587 2022.26,158.537 2024.39,161.545 2026.53,164.611 2028.66,167.734 2030.8,170.914 2032.93,174.15 2035.07,177.443 
  2037.2,180.791 2039.34,184.195 2041.47,187.654 2043.61,191.169 2045.75,194.737 2047.88,198.36 2050.02,202.037 2052.15,205.767 2054.29,209.55 2056.42,213.386 
  2058.56,217.274 2060.69,221.214 2062.83,225.205 2064.96,229.248 2067.1,233.342 2069.24,237.485 2071.37,241.679 2073.51,245.922 2075.64,250.214 2077.78,254.555 
  2079.91,258.944 2082.05,263.38 2084.18,267.864 2086.32,272.395 2088.45,276.973 2090.59,281.596 2092.72,286.264 2094.86,290.978 2097,295.736 2099.13,300.539 
  2101.27,305.385 2103.4,310.274 2105.54,315.205 2107.67,320.179 2109.81,325.194 2111.94,330.251 2114.08,335.348 2116.21,340.485 2118.35,345.662 2120.49,350.878 
  2122.62,356.132 2124.76,361.425 2126.89,366.755 2129.03,372.122 2131.16,377.525 2133.3,382.964 2135.43,388.439 2137.57,393.948 2139.7,399.492 2141.84,405.069 
  2143.98,410.68 2146.11,416.323 2148.25,421.998 2150.38,427.704 2152.52,433.442 2154.65,439.209 2156.79,445.007 2158.92,450.833 2161.06,456.689 2163.19,462.572 
  2165.33,468.482 2167.46,474.419 2169.6,480.383 2171.74,486.372 2173.87,492.386 2176.01,498.424 2178.14,504.487 2180.28,510.572 2182.41,516.68 2184.55,522.81 
  2186.68,528.962 2188.82,535.134 2190.95,541.326 2193.09,547.538 2195.23,553.769 2197.36,560.017 2199.5,566.284 2201.63,572.568 2203.77,578.868 2205.9,585.183 
  2208.04,591.514 2210.17,597.86 2212.31,604.219 2214.44,610.591 2216.58,616.976 2218.72,623.373 2220.85,629.782 2222.99,636.2 2225.12,642.629 2227.26,649.068 
  2229.39,655.515 2231.53,661.97 2233.66,668.433 2235.8,674.902 2237.93,681.378 2240.07,687.859 2242.2,694.345 2244.34,700.835 2246.48,707.328 2248.61,713.825 
  2250.75,720.324 2252.88,726.824 2255.02,733.326 2257.15,739.828 2259.29,746.329 2261.42,752.829 2263.56,759.328 2265.69,765.825 2267.83,772.318 2269.97,778.808 
  2272.1,785.294 2274.24,791.775 2276.37,798.25 2278.51,804.719 2280.64,811.181 2282.78,817.636 2284.91,824.083 2287.05,830.521 2289.18,836.949 2291.32,843.368 
  
  "/>
<polyline clip-path="url(#clip4302)" style="stroke:#e26f46; stroke-width:12; stroke-opacity:1; fill:none" points="
  243.444,86.2547 245.58,95.3515 247.715,108.057 249.851,120.464 251.986,132.557 254.121,144.343 256.257,155.829 258.392,167.02 260.528,177.922 262.663,188.541 
  264.799,198.884 266.934,208.954 269.069,218.759 271.205,228.303 273.34,237.591 275.476,246.63 277.611,255.423 279.747,263.976 281.882,272.295 284.017,280.382 
  286.153,288.244 288.288,295.886 290.424,303.31 292.559,310.523 294.695,317.528 296.83,324.33 298.965,330.933 301.101,337.341 303.236,343.558 305.372,349.588 
  307.507,355.436 309.643,361.104 311.778,366.597 313.913,371.918 316.049,377.072 318.184,382.061 320.32,386.889 322.455,391.56 324.591,396.076 326.726,400.442 
  328.861,404.661 330.997,408.735 333.132,412.668 335.268,416.463 337.403,420.123 339.539,423.651 341.674,427.05 343.809,430.323 345.945,433.472 348.08,436.501 
  350.216,439.411 352.351,442.207 354.487,444.889 356.622,447.462 358.757,449.927 360.893,452.287 363.028,454.544 365.164,456.701 367.299,458.76 369.435,460.724 
  371.57,462.594 373.705,464.374 375.841,466.064 377.976,467.668 380.112,469.187 382.247,470.623 384.383,471.979 386.518,473.256 388.653,474.457 390.789,475.584 
  392.924,476.637 395.06,477.62 397.195,478.534 399.331,479.381 401.466,480.162 403.601,480.88 405.737,481.536 407.872,482.131 410.008,482.668 412.143,483.148 
  414.279,483.573 416.414,483.944 418.549,484.262 420.685,484.53 422.82,484.748 424.956,484.919 427.091,485.044 429.227,485.123 431.362,485.159 433.497,485.153 
  435.633,485.106 437.768,485.02 439.904,484.895 442.039,484.734 444.175,484.537 446.31,484.305 448.445,484.04 450.581,483.744 452.716,483.416 454.852,483.059 
  456.987,482.673 459.123,482.26 461.258,481.82 463.393,481.356 465.529,480.867 467.664,480.355 469.8,479.82 471.935,479.265 474.071,478.69 476.206,478.095 
  478.341,477.482 480.477,476.852 482.612,476.206 484.748,475.545 486.883,474.868 489.019,474.179 491.154,473.476 493.289,472.761 495.425,472.036 497.56,471.3 
  499.696,470.555 501.831,469.801 503.967,469.039 506.102,468.27 508.237,467.495 510.373,466.714 512.508,465.928 514.644,465.138 516.779,464.345 518.915,463.548 
  521.05,462.75 523.185,461.95 525.321,461.15 527.456,460.349 529.592,459.549 531.727,458.75 533.863,457.953 535.998,457.158 538.133,456.366 540.269,455.577 
  542.404,454.793 544.54,454.013 546.675,453.239 548.811,452.47 550.946,451.707 553.081,450.951 555.217,450.203 557.352,449.462 559.488,448.73 561.623,448.006 
  563.758,447.291 565.894,446.586 568.029,445.892 570.165,445.208 572.3,444.534 574.436,443.873 576.571,443.223 578.706,442.586 580.842,441.961 582.977,441.349 
  585.113,440.751 587.248,440.167 589.384,439.597 591.519,439.041 593.654,438.501 595.79,437.975 597.925,437.466 600.061,436.972 602.196,436.495 604.332,436.034 
  606.467,435.591 608.602,435.164 610.738,434.755 612.873,434.364 615.009,433.991 617.144,433.637 619.28,433.301 621.415,432.984 623.55,432.686 625.686,432.408 
  627.821,432.149 629.957,431.911 632.092,431.692 634.228,431.494 636.363,431.317 638.498,431.16 640.634,431.025 642.769,430.91 644.905,430.818 647.04,430.746 
  649.176,430.697 651.311,430.67 653.446,430.664 655.582,430.682 657.717,430.721 659.853,430.784 661.988,430.869 664.124,430.977 666.259,431.108 668.394,431.263 
  670.53,431.441 672.665,431.642 674.801,431.867 676.936,432.116 679.072,432.388 681.207,432.685 683.342,433.005 685.478,433.35 687.613,433.719 689.749,434.112 
  691.884,434.53 694.02,434.972 696.155,435.439 698.29,435.93 700.426,436.446 702.561,436.986 704.697,437.552 706.832,438.142 708.968,438.757 711.103,439.397 
  713.238,440.062 715.374,440.752 717.509,441.467 719.645,442.207 721.78,442.972 723.916,443.762 726.051,444.577 728.186,445.417 730.322,446.282 732.457,447.172 
  734.593,448.087 736.728,449.027 738.864,449.992 740.999,450.983 743.134,451.998 745.27,453.038 747.405,454.103 749.541,455.192 751.676,456.307 753.812,457.446 
  755.947,458.61 758.082,459.799 760.218,461.012 762.353,462.25 764.489,463.512 766.624,464.799 768.76,466.11 770.895,467.446 773.03,468.805 775.166,470.189 
  777.301,471.597 779.437,473.028 781.572,474.484 783.708,475.963 785.843,477.466 787.978,478.992 790.114,480.542 792.249,482.115 794.385,483.712 796.52,485.331 
  798.656,486.974 800.791,488.639 802.926,490.327 805.062,492.038 807.197,493.771 809.333,495.526 811.468,497.304 813.604,499.104 815.739,500.926 817.874,502.769 
  820.01,504.634 822.145,506.521 824.281,508.429 826.416,510.358 828.552,512.308 830.687,514.279 832.822,516.27 834.958,518.283 837.093,520.315 839.229,522.368 
  841.364,524.44 843.5,526.533 845.635,528.645 847.77,530.776 849.906,532.927 852.041,535.097 854.177,537.286 856.312,539.493 858.448,541.719 860.583,543.963 
  862.718,546.225 864.854,548.505 866.989,550.803 869.125,553.118 871.26,555.451 873.396,557.801 875.531,560.167 877.666,562.55 879.802,564.949 881.937,567.365 
  884.073,569.797 886.208,572.244 888.344,574.707 890.479,577.185 892.614,579.678 894.75,582.186 896.885,584.709 899.021,587.246 901.156,589.797 903.292,592.361 
  905.427,594.94 907.562,597.532 909.698,600.137 911.833,602.755 913.969,605.386 916.104,608.029 918.24,610.684 920.375,613.351 922.51,616.03 924.646,618.72 
  926.781,621.421 928.917,624.133 931.052,626.856 933.188,629.589 935.323,632.332 937.458,635.086 939.594,637.848 941.729,640.62 943.865,643.401 946,646.191 
  948.136,648.989 950.271,651.796 952.406,654.61 954.542,657.432 956.677,660.262 958.813,663.099 960.948,665.942 963.084,668.793 965.219,671.649 967.354,674.512 
  969.49,677.38 971.625,680.254 973.761,683.133 975.896,686.017 978.032,688.906 980.167,691.799 982.302,694.696 984.438,697.597 986.573,700.502 988.709,703.409 
  990.844,706.32 992.98,709.233 995.115,712.149 997.25,715.067 999.386,717.986 1001.52,720.908 1003.66,723.83 1005.79,726.753 1007.93,729.677 1010.06,732.602 
  1012.2,735.526 1014.33,738.451 1016.47,741.375 1018.6,744.298 1020.74,747.22 1022.88,750.141 1025.01,753.06 1027.15,755.977 1029.28,758.892 1031.42,761.805 
  1033.55,764.714 1035.69,767.621 1037.82,770.525 1039.96,773.424 1042.09,776.32 1044.23,779.212 1046.37,782.099 1048.5,784.981 1050.64,787.859 1052.77,790.731 
  1054.91,793.597 1057.04,796.458 1059.18,799.312 1061.31,802.16 1063.45,805.001 1065.58,807.835 1067.72,810.662 1069.85,813.481 1071.99,816.292 1074.13,819.096 
  1076.26,821.89 1078.4,824.676 1080.53,827.453 1082.67,830.221 1084.8,832.98 1086.94,835.728 1089.07,838.467 1091.21,841.195 1093.34,843.912 1095.48,846.619 
  1097.62,849.314 1099.75,851.998 1101.89,854.671 1104.02,857.331 1106.16,859.98 1108.29,862.615 1110.43,865.239 1112.56,867.849 1114.7,870.445 1116.83,873.029 
  1118.97,875.598 1121.11,878.154 1123.24,880.695 1125.38,883.222 1127.51,885.734 1129.65,888.231 1131.78,890.713 1133.92,893.179 1136.05,895.629 1138.19,898.063 
  1140.32,900.482 1142.46,902.883 1144.59,905.268 1146.73,907.636 1148.87,909.987 1151,912.32 1153.14,914.636 1155.27,916.934 1157.41,919.214 1159.54,921.475 
  1161.68,923.718 1163.81,925.942 1165.95,928.146 1168.08,930.332 1170.22,932.498 1172.36,934.645 1174.49,936.772 1176.63,938.878 1178.76,940.965 1180.9,943.03 
  1183.03,945.076 1185.17,947.1 1187.3,949.103 1189.44,951.084 1191.57,953.045 1193.71,954.983 1195.85,956.9 1197.98,958.794 1200.12,960.666 1202.25,962.516 
  1204.39,964.343 1206.52,966.148 1208.66,967.929 1210.79,969.687 1212.93,971.421 1215.06,973.133 1217.2,974.82 1219.33,976.484 1221.47,978.123 1223.61,979.738 
  1225.74,981.329 1227.88,982.896 1230.01,984.437 1232.15,985.954 1234.28,987.446 1236.42,988.913 1238.55,990.354 1240.69,991.771 1242.82,993.161 1244.96,994.526 
  1247.1,995.865 1249.23,997.178 1251.37,998.465 1253.5,999.725 1255.64,1000.96 1257.77,1002.17 1259.91,1003.35 1262.04,1004.5 1264.18,1005.63 1266.31,1006.73 
  1268.45,1007.81 1270.59,1008.85 1272.72,1009.87 1274.86,1010.86 1276.99,1011.83 1279.13,1012.76 1281.26,1013.67 1283.4,1014.55 1285.53,1015.41 1287.67,1016.23 
  1289.8,1017.03 1291.94,1017.8 1294.07,1018.54 1296.21,1019.26 1298.35,1019.94 1300.48,1020.6 1302.62,1021.23 1304.75,1021.82 1306.89,1022.4 1309.02,1022.94 
  1311.16,1023.45 1313.29,1023.94 1315.43,1024.39 1317.56,1024.82 1319.7,1025.22 1321.84,1025.59 1323.97,1025.93 1326.11,1026.24 1328.24,1026.52 1330.38,1026.78 
  1332.51,1027 1334.65,1027.2 1336.78,1027.37 1338.92,1027.5 1341.05,1027.61 1343.19,1027.69 1345.33,1027.74 1347.46,1027.76 1349.6,1027.75 1351.73,1027.72 
  1353.87,1027.65 1356,1027.55 1358.14,1027.43 1360.27,1027.28 1362.41,1027.09 1364.54,1026.88 1366.68,1026.64 1368.81,1026.37 1370.95,1026.07 1373.09,1025.74 
  1375.22,1025.39 1377.36,1025 1379.49,1024.59 1381.63,1024.14 1383.76,1023.67 1385.9,1023.17 1388.03,1022.64 1390.17,1022.08 1392.3,1021.49 1394.44,1020.88 
  1396.58,1020.23 1398.71,1019.56 1400.85,1018.86 1402.98,1018.13 1405.12,1017.37 1407.25,1016.59 1409.39,1015.78 1411.52,1014.94 1413.66,1014.07 1415.79,1013.17 
  1417.93,1012.24 1420.07,1011.29 1422.2,1010.31 1424.34,1009.31 1426.47,1008.27 1428.61,1007.21 1430.74,1006.12 1432.88,1005.01 1435.01,1003.86 1437.15,1002.7 
  1439.28,1001.5 1441.42,1000.28 1443.55,999.029 1445.69,997.754 1447.83,996.453 1449.96,995.126 1452.1,993.773 1454.23,992.395 1456.37,990.991 1458.5,989.561 
  1460.64,988.106 1462.77,986.626 1464.91,985.121 1467.04,983.591 1469.18,982.036 1471.32,980.456 1473.45,978.853 1475.59,977.225 1477.72,975.573 1479.86,973.897 
  1481.99,972.197 1484.13,970.474 1486.26,968.727 1488.4,966.957 1490.53,965.164 1492.67,963.348 1494.81,961.509 1496.94,959.648 1499.08,957.765 1501.21,955.859 
  1503.35,953.932 1505.48,951.983 1507.62,950.012 1509.75,948.02 1511.89,946.006 1514.02,943.972 1516.16,941.917 1518.29,939.841 1520.43,937.745 1522.57,935.629 
  1524.7,933.493 1526.84,931.338 1528.97,929.162 1531.11,926.968 1533.24,924.754 1535.38,922.522 1537.51,920.271 1539.65,918.002 1541.78,915.714 1543.92,913.409 
  1546.06,911.086 1548.19,908.745 1550.33,906.387 1552.46,904.012 1554.6,901.621 1556.73,899.213 1558.87,896.788 1561,894.348 1563.14,891.892 1565.27,889.42 
  1567.41,886.933 1569.55,884.431 1571.68,881.914 1573.82,879.382 1575.95,876.836 1578.09,874.277 1580.22,871.703 1582.36,869.116 1584.49,866.516 1586.63,863.902 
  1588.76,861.276 1590.9,858.637 1593.03,855.986 1595.17,853.324 1597.31,850.649 1599.44,847.963 1601.58,845.266 1603.71,842.558 1605.85,839.84 1607.98,837.111 
  1610.12,834.372 1612.25,831.623 1614.39,828.865 1616.52,826.097 1618.66,823.32 1620.8,820.535 1622.93,817.742 1625.07,814.94 1627.2,812.13 1629.34,809.313 
  1631.47,806.489 1633.61,803.657 1635.74,800.819 1637.88,797.974 1640.01,795.124 1642.15,792.267 1644.29,789.405 1646.42,786.537 1648.56,783.665 1650.69,780.787 
  1652.83,777.906 1654.96,775.02 1657.1,772.13 1659.23,769.237 1661.37,766.34 1663.5,763.441 1665.64,760.538 1667.77,757.634 1669.91,754.727 1672.05,751.818 
  1674.18,748.908 1676.32,745.997 1678.45,743.084 1680.59,740.171 1682.72,737.258 1684.86,734.344 1686.99,731.431 1689.13,728.518 1691.26,725.606 1693.4,722.695 
  1695.54,719.786 1697.67,716.878 1699.81,713.972 1701.94,711.068 1704.08,708.167 1706.21,705.269 1708.35,702.374 1710.48,699.482 1712.62,696.594 1714.75,693.71 
  1716.89,690.83 1719.02,687.955 1721.16,685.084 1723.3,682.219 1725.43,679.359 1727.57,676.505 1729.7,673.657 1731.84,670.815 1733.97,667.979 1736.11,665.151 
  1738.24,662.33 1740.38,659.516 1742.51,656.709 1744.65,653.911 1746.79,651.121 1748.92,648.339 1751.06,645.567 1753.19,642.803 1755.33,640.049 1757.46,637.304 
  1759.6,634.57 1761.73,631.845 1763.87,629.131 1766,626.428 1768.14,623.735 1770.28,621.054 1772.41,618.385 1774.55,615.727 1776.68,613.081 1778.82,610.448 
  1780.95,607.827 1783.09,605.22 1785.22,602.625 1787.36,600.043 1789.49,597.476 1791.63,594.922 1793.76,592.382 1795.9,589.857 1798.04,587.346 1800.17,584.851 
  1802.31,582.37 1804.44,579.905 1806.58,577.456 1808.71,575.022 1810.85,572.604 1812.98,570.203 1815.12,567.819 1817.25,565.451 1819.39,563.101 1821.53,560.768 
  1823.66,558.452 1825.8,556.154 1827.93,553.875 1830.07,551.613 1832.2,549.37 1834.34,547.146 1836.47,544.94 1838.61,542.754 1840.74,540.587 1842.88,538.44 
  1845.02,536.313 1847.15,534.205 1849.29,532.118 1851.42,530.051 1853.56,528.005 1855.69,525.98 1857.83,523.975 1859.96,521.992 1862.1,520.031 1864.23,518.091 
  1866.37,516.173 1868.5,514.276 1870.64,512.403 1872.78,510.551 1874.91,508.722 1877.05,506.916 1879.18,505.133 1881.32,503.373 1883.45,501.636 1885.59,499.923 
  1887.72,498.233 1889.86,496.567 1891.99,494.926 1894.13,493.308 1896.27,491.715 1898.4,490.146 1900.54,488.601 1902.67,487.082 1904.81,485.587 1906.94,484.118 
  1909.08,482.674 1911.21,481.255 1913.35,479.862 1915.48,478.494 1917.62,477.152 1919.76,475.836 1921.89,474.546 1924.03,473.283 1926.16,472.045 1928.3,470.834 
  1930.43,469.65 1932.57,468.492 1934.7,467.361 1936.84,466.257 1938.97,465.18 1941.11,464.131 1943.24,463.108 1945.38,462.113 1947.52,461.145 1949.65,460.204 
  1951.79,459.292 1953.92,458.407 1956.06,457.549 1958.19,456.72 1960.33,455.919 1962.46,455.146 1964.6,454.4 1966.73,453.683 1968.87,452.995 1971.01,452.334 
  1973.14,451.703 1975.28,451.099 1977.41,450.524 1979.55,449.978 1981.68,449.46 1983.82,448.971 1985.95,448.511 1988.09,448.079 1990.22,447.677 1992.36,447.303 
  1994.5,446.958 1996.63,446.642 1998.77,446.355 2000.9,446.098 2003.04,445.869 2005.17,445.669 2007.31,445.498 2009.44,445.357 2011.58,445.244 2013.71,445.161 
  2015.85,445.106 2017.98,445.081 2020.12,445.085 2022.26,445.118 2024.39,445.181 2026.53,445.272 2028.66,445.392 2030.8,445.542 2032.93,445.721 2035.07,445.928 
  2037.2,446.165 2039.34,446.431 2041.47,446.726 2043.61,447.05 2045.75,447.402 2047.88,447.784 2050.02,448.195 2052.15,448.634 2054.29,449.102 2056.42,449.599 
  2058.56,450.124 2060.69,450.679 2062.83,451.261 2064.96,451.872 2067.1,452.512 2069.24,453.18 2071.37,453.877 2073.51,454.601 2075.64,455.354 2077.78,456.135 
  2079.91,456.944 2082.05,457.781 2084.18,458.646 2086.32,459.539 2088.45,460.459 2090.59,461.407 2092.72,462.382 2094.86,463.385 2097,464.415 2099.13,465.472 
  2101.27,466.557 2103.4,467.668 2105.54,468.806 2107.67,469.971 2109.81,471.163 2111.94,472.381 2114.08,473.626 2116.21,474.897 2118.35,476.194 2120.49,477.517 
  2122.62,478.865 2124.76,480.24 2126.89,481.64 2129.03,483.066 2131.16,484.517 2133.3,485.994 2135.43,487.495 2137.57,489.021 2139.7,490.572 2141.84,492.148 
  2143.98,493.748 2146.11,495.372 2148.25,497.021 2150.38,498.693 2152.52,500.389 2154.65,502.109 2156.79,503.852 2158.92,505.618 2161.06,507.408 2163.19,509.22 
  2165.33,511.055 2167.46,512.913 2169.6,514.793 2171.74,516.695 2173.87,518.619 2176.01,520.565 2178.14,522.532 2180.28,524.521 2182.41,526.531 2184.55,528.562 
  2186.68,530.614 2188.82,532.687 2190.95,534.78 2193.09,536.892 2195.23,539.025 2197.36,541.178 2199.5,543.35 2201.63,545.542 2203.77,547.752 2205.9,549.982 
  2208.04,552.23 2210.17,554.496 2212.31,556.781 2214.44,559.084 2216.58,561.404 2218.72,563.742 2220.85,566.097 2222.99,568.47 2225.12,570.859 2227.26,573.264 
  2229.39,575.686 2231.53,578.124 2233.66,580.578 2235.8,583.047 2237.93,585.532 2240.07,588.032 2242.2,590.546 2244.34,593.076 2246.48,595.619 2248.61,598.177 
  2250.75,600.748 2252.88,603.333 2255.02,605.932 2257.15,608.543 2259.29,611.167 2261.42,613.804 2263.56,616.453 2265.69,619.114 2267.83,621.787 2269.97,624.471 
  2272.1,627.166 2274.24,629.872 2276.37,632.589 2278.51,635.317 2280.64,638.054 2282.78,640.801 2284.91,643.558 2287.05,646.324 2289.18,649.1 2291.32,651.883 
  
  "/>
<polyline clip-path="url(#clip4302)" style="stroke:#3da44d; stroke-width:12; stroke-opacity:1; fill:none" points="
  243.444,86.2547 245.58,99.0968 247.715,111.62 249.851,123.831 251.986,135.736 254.121,147.341 256.257,158.652 258.392,169.675 260.528,180.415 262.663,190.878 
  264.799,201.07 266.934,210.996 269.069,220.662 271.205,230.072 273.34,239.232 275.476,248.147 277.611,256.822 279.747,265.261 281.882,273.47 284.017,281.453 
  286.153,289.215 288.288,296.76 290.424,304.093 292.559,311.217 294.695,318.138 296.83,324.86 298.965,331.385 301.101,337.72 303.236,343.867 305.372,349.83 
  307.507,355.614 309.643,361.221 311.778,366.656 313.913,371.923 316.049,377.024 318.184,381.964 320.32,386.745 322.455,391.372 324.591,395.847 326.726,400.173 
  328.861,404.354 330.997,408.393 333.132,412.293 335.268,416.057 337.403,419.689 339.539,423.189 341.674,426.563 343.809,429.812 345.945,432.94 348.08,435.948 
  350.216,438.84 352.351,441.618 354.487,444.285 356.622,446.844 358.757,449.296 360.893,451.645 363.028,453.892 365.164,456.04 367.299,458.091 369.435,460.048 
  371.57,461.912 373.705,463.687 375.841,465.374 377.976,466.974 380.112,468.492 382.247,469.927 384.383,471.283 386.518,472.561 388.653,473.763 390.789,474.892 
  392.924,475.948 395.06,476.935 397.195,477.853 399.331,478.704 401.466,479.491 403.601,480.214 405.737,480.876 407.872,481.479 410.008,482.023 412.143,482.51 
  414.279,482.943 416.414,483.322 418.549,483.65 420.685,483.927 422.82,484.155 424.956,484.335 427.091,484.47 429.227,484.56 431.362,484.606 433.497,484.611 
  435.633,484.575 437.768,484.499 439.904,484.386 442.039,484.236 444.175,484.05 446.31,483.831 448.445,483.578 450.581,483.293 452.716,482.977 454.852,482.632 
  456.987,482.258 459.123,481.857 461.258,481.43 463.393,480.977 465.529,480.5 467.664,480 469.8,479.478 471.935,478.935 474.071,478.372 476.206,477.789 
  478.341,477.189 480.477,476.571 482.612,475.936 484.748,475.286 486.883,474.622 489.019,473.943 491.154,473.252 493.289,472.549 495.425,471.835 497.56,471.11 
  499.696,470.376 501.831,469.633 503.967,468.882 506.102,468.124 508.237,467.359 510.373,466.588 512.508,465.813 514.644,465.033 516.779,464.249 518.915,463.463 
  521.05,462.674 523.185,461.883 525.321,461.092 527.456,460.301 529.592,459.509 531.727,458.719 533.863,457.93 535.998,457.143 538.133,456.36 540.269,455.579 
  542.404,454.802 544.54,454.03 546.675,453.263 548.811,452.501 550.946,451.745 553.081,450.996 555.217,450.254 557.352,449.52 559.488,448.793 561.623,448.075 
  563.758,447.367 565.894,446.667 568.029,445.978 570.165,445.299 572.3,444.631 574.436,443.974 576.571,443.328 578.706,442.695 580.842,442.074 582.977,441.467 
  585.113,440.872 587.248,440.291 589.384,439.724 591.519,439.172 593.654,438.634 595.79,438.111 597.925,437.604 600.061,437.113 602.196,436.637 604.332,436.179 
  606.467,435.736 608.602,435.311 610.738,434.904 612.873,434.513 615.009,434.141 617.144,433.787 619.28,433.452 621.415,433.135 623.55,432.837 625.686,432.559 
  627.821,432.3 629.957,432.061 632.092,431.842 634.228,431.643 636.363,431.464 638.498,431.306 640.634,431.169 642.769,431.053 644.905,430.959 647.04,430.885 
  649.176,430.834 651.311,430.804 653.446,430.797 655.582,430.811 657.717,430.848 659.853,430.907 661.988,430.989 664.124,431.094 666.259,431.222 668.394,431.372 
  670.53,431.546 672.665,431.744 674.801,431.965 676.936,432.209 679.072,432.477 681.207,432.769 683.342,433.085 685.478,433.425 687.613,433.788 689.749,434.177 
  691.884,434.589 694.02,435.026 696.155,435.487 698.29,435.972 700.426,436.482 702.561,437.017 704.697,437.576 706.832,438.16 708.968,438.769 711.103,439.402 
  713.238,440.061 715.374,440.744 717.509,441.452 719.645,442.185 721.78,442.943 723.916,443.726 726.051,444.533 728.186,445.366 730.322,446.224 732.457,447.106 
  734.593,448.014 736.728,448.946 738.864,449.904 740.999,450.886 743.134,451.893 745.27,452.925 747.405,453.981 749.541,455.063 751.676,456.169 753.812,457.3 
  755.947,458.456 758.082,459.636 760.218,460.84 762.353,462.069 764.489,463.323 766.624,464.601 768.76,465.903 770.895,467.229 773.03,468.58 775.166,469.954 
  777.301,471.353 779.437,472.775 781.572,474.221 783.708,475.691 785.843,477.185 787.978,478.702 790.114,480.242 792.249,481.806 794.385,483.393 796.52,485.002 
  798.656,486.635 800.791,488.291 802.926,489.969 805.062,491.67 807.197,493.394 809.333,495.139 811.468,496.907 813.604,498.697 815.739,500.509 817.874,502.343 
  820.01,504.198 822.145,506.074 824.281,507.972 826.416,509.892 828.552,511.832 830.687,513.793 832.822,515.774 834.958,517.776 837.093,519.799 839.229,521.841 
  841.364,523.904 843.5,525.986 845.635,528.089 847.77,530.21 849.906,532.351 852.041,534.511 854.177,536.689 856.312,538.887 858.448,541.103 860.583,543.337 
  862.718,545.589 864.854,547.86 866.989,550.147 869.125,552.453 871.26,554.776 873.396,557.115 875.531,559.472 877.666,561.845 879.802,564.235 881.937,566.641 
  884.073,569.063 886.208,571.501 888.344,573.954 890.479,576.422 892.614,578.906 894.75,581.405 896.885,583.918 899.021,586.445 901.156,588.987 903.292,591.543 
  905.427,594.112 907.562,596.695 909.698,599.291 911.833,601.899 913.969,604.521 916.104,607.155 918.24,609.801 920.375,612.46 922.51,615.13 924.646,617.811 
  926.781,620.504 928.917,623.207 931.052,625.921 933.188,628.646 935.323,631.381 937.458,634.126 939.594,636.88 941.729,639.644 943.865,642.417 946,645.198 
  948.136,647.989 950.271,650.787 952.406,653.594 954.542,656.408 956.677,659.23 958.813,662.059 960.948,664.895 963.084,667.738 965.219,670.587 967.354,673.443 
  969.49,676.304 971.625,679.171 973.761,682.043 975.896,684.92 978.032,687.802 980.167,690.688 982.302,693.579 984.438,696.473 986.573,699.371 988.709,702.272 
  990.844,705.177 992.98,708.084 995.115,710.994 997.25,713.905 999.386,716.819 1001.52,719.735 1003.66,722.651 1005.79,725.569 1007.93,728.488 1010.06,731.407 
  1012.2,734.326 1014.33,737.245 1016.47,740.164 1018.6,743.082 1020.74,746 1022.88,748.916 1025.01,751.83 1027.15,754.743 1029.28,757.653 1031.42,760.562 
  1033.55,763.467 1035.69,766.37 1037.82,769.269 1039.96,772.165 1042.09,775.057 1044.23,777.945 1046.37,780.829 1048.5,783.708 1050.64,786.582 1052.77,789.451 
  1054.91,792.314 1057.04,795.172 1059.18,798.024 1061.31,800.869 1063.45,803.707 1065.58,806.539 1067.72,809.363 1069.85,812.18 1071.99,814.99 1074.13,817.791 
  1076.26,820.584 1078.4,823.368 1080.53,826.144 1082.67,828.91 1084.8,831.667 1086.94,834.414 1089.07,837.151 1091.21,839.879 1093.34,842.595 1095.48,845.301 
  1097.62,847.996 1099.75,850.68 1101.89,853.352 1104.02,856.012 1106.16,858.66 1108.29,861.296 1110.43,863.919 1112.56,866.529 1114.7,869.127 1116.83,871.71 
  1118.97,874.281 1121.11,876.837 1123.24,879.379 1125.38,881.907 1127.51,884.42 1129.65,886.918 1131.78,889.401 1133.92,891.869 1136.05,894.321 1138.19,896.757 
  1140.32,899.177 1142.46,901.581 1144.59,903.968 1146.73,906.338 1148.87,908.691 1151,911.027 1153.14,913.345 1155.27,915.646 1157.41,917.929 1159.54,920.193 
  1161.68,922.439 1163.81,924.666 1165.95,926.874 1168.08,929.063 1170.22,931.233 1172.36,933.384 1174.49,935.514 1176.63,937.625 1178.76,939.715 1180.9,941.785 
  1183.03,943.835 1185.17,945.863 1187.3,947.871 1189.44,949.857 1191.57,951.822 1193.71,953.766 1195.85,955.687 1197.98,957.587 1200.12,959.465 1202.25,961.32 
  1204.39,963.152 1206.52,964.962 1208.66,966.749 1210.79,968.513 1212.93,970.254 1215.06,971.971 1217.2,973.665 1219.33,975.335 1221.47,976.98 1223.61,978.602 
  1225.74,980.2 1227.88,981.773 1230.01,983.322 1232.15,984.846 1234.28,986.345 1236.42,987.818 1238.55,989.267 1240.69,990.691 1242.82,992.089 1244.96,993.461 
  1247.1,994.808 1249.23,996.129 1251.37,997.423 1253.5,998.692 1255.64,999.935 1257.77,1001.15 1259.91,1002.34 1262.04,1003.5 1264.18,1004.64 1266.31,1005.75 
  1268.45,1006.83 1270.59,1007.89 1272.72,1008.91 1274.86,1009.92 1276.99,1010.89 1279.13,1011.83 1281.26,1012.75 1283.4,1013.64 1285.53,1014.51 1287.67,1015.34 
  1289.8,1016.15 1291.94,1016.93 1294.07,1017.68 1296.21,1018.4 1298.35,1019.1 1300.48,1019.76 1302.62,1020.4 1304.75,1021.01 1306.89,1021.59 1309.02,1022.15 
  1311.16,1022.67 1313.29,1023.17 1315.43,1023.63 1317.56,1024.07 1319.7,1024.48 1321.84,1024.86 1323.97,1025.21 1326.11,1025.54 1328.24,1025.83 1330.38,1026.1 
  1332.51,1026.33 1334.65,1026.54 1336.78,1026.72 1338.92,1026.87 1341.05,1026.98 1343.19,1027.08 1345.33,1027.14 1347.46,1027.17 1349.6,1027.17 1351.73,1027.15 
  1353.87,1027.09 1356,1027.01 1358.14,1026.9 1360.27,1026.75 1362.41,1026.58 1364.54,1026.38 1366.68,1026.16 1368.81,1025.9 1370.95,1025.61 1373.09,1025.29 
  1375.22,1024.95 1377.36,1024.58 1379.49,1024.17 1381.63,1023.74 1383.76,1023.28 1385.9,1022.79 1388.03,1022.28 1390.17,1021.73 1392.3,1021.16 1394.44,1020.55 
  1396.58,1019.92 1398.71,1019.26 1400.85,1018.58 1402.98,1017.86 1405.12,1017.11 1407.25,1016.34 1409.39,1015.54 1411.52,1014.71 1413.66,1013.86 1415.79,1012.97 
  1417.93,1012.06 1420.07,1011.12 1422.2,1010.16 1424.34,1009.16 1426.47,1008.14 1428.61,1007.09 1430.74,1006.02 1432.88,1004.91 1435.01,1003.79 1437.15,1002.63 
  1439.28,1001.45 1441.42,1000.24 1443.55,999.002 1445.69,997.74 1447.83,996.452 1449.96,995.138 1452.1,993.799 1454.23,992.433 1456.37,991.042 1458.5,989.625 
  1460.64,988.183 1462.77,986.716 1464.91,985.224 1467.04,983.707 1469.18,982.165 1471.32,980.599 1473.45,979.008 1475.59,977.393 1477.72,975.754 1479.86,974.091 
  1481.99,972.404 1484.13,970.693 1486.26,968.959 1488.4,967.202 1490.53,965.422 1492.67,963.619 1494.81,961.793 1496.94,959.945 1499.08,958.074 1501.21,956.181 
  1503.35,954.266 1505.48,952.329 1507.62,950.371 1509.75,948.391 1511.89,946.391 1514.02,944.369 1516.16,942.326 1518.29,940.263 1520.43,938.179 1522.57,936.075 
  1524.7,933.952 1526.84,931.808 1528.97,929.645 1531.11,927.463 1533.24,925.261 1535.38,923.041 1537.51,920.802 1539.65,918.544 1541.78,916.268 1543.92,913.975 
  1546.06,911.663 1548.19,909.334 1550.33,906.988 1552.46,904.625 1554.6,902.245 1556.73,899.848 1558.87,897.435 1561,895.006 1563.14,892.561 1565.27,890.1 
  1567.41,887.624 1569.55,885.133 1571.68,882.627 1573.82,880.106 1575.95,877.571 1578.09,875.022 1580.22,872.459 1582.36,869.883 1584.49,867.293 1586.63,864.69 
  1588.76,862.074 1590.9,859.446 1593.03,856.805 1595.17,854.152 1597.31,851.488 1599.44,848.812 1601.58,846.124 1603.71,843.426 1605.85,840.717 1607.98,837.998 
  1610.12,835.268 1612.25,832.529 1614.39,829.78 1616.52,827.022 1618.66,824.254 1620.8,821.478 1622.93,818.693 1625.07,815.9 1627.2,813.1 1629.34,810.291 
  1631.47,807.475 1633.61,804.652 1635.74,801.822 1637.88,798.986 1640.01,796.143 1642.15,793.295 1644.29,790.44 1646.42,787.581 1648.56,784.716 1650.69,781.846 
  1652.83,778.972 1654.96,776.093 1657.1,773.211 1659.23,770.325 1661.37,767.436 1663.5,764.543 1665.64,761.648 1667.77,758.75 1669.91,755.849 1672.05,752.947 
  1674.18,750.044 1676.32,747.139 1678.45,744.232 1680.59,741.325 1682.72,738.418 1684.86,735.51 1686.99,732.603 1689.13,729.696 1691.26,726.789 1693.4,723.884 
  1695.54,720.979 1697.67,718.077 1699.81,715.176 1701.94,712.277 1704.08,709.381 1706.21,706.487 1708.35,703.596 1710.48,700.709 1712.62,697.825 1714.75,694.945 
  1716.89,692.069 1719.02,689.198 1721.16,686.331 1723.3,683.47 1725.43,680.613 1727.57,677.763 1729.7,674.918 1731.84,672.079 1733.97,669.247 1736.11,666.421 
  1738.24,663.603 1740.38,660.791 1742.51,657.987 1744.65,655.192 1746.79,652.404 1748.92,649.624 1751.06,646.854 1753.19,644.092 1755.33,641.34 1757.46,638.597 
  1759.6,635.863 1761.73,633.14 1763.87,630.427 1766,627.725 1768.14,625.034 1770.28,622.354 1772.41,619.685 1774.55,617.028 1776.68,614.383 1778.82,611.75 
  1780.95,609.129 1783.09,606.521 1785.22,603.927 1787.36,601.345 1789.49,598.777 1791.63,596.223 1793.76,593.682 1795.9,591.156 1798.04,588.645 1800.17,586.148 
  1802.31,583.667 1804.44,581.2 1806.58,578.75 1808.71,576.314 1810.85,573.895 1812.98,571.493 1815.12,569.106 1817.25,566.737 1819.39,564.384 1821.53,562.049 
  1823.66,559.731 1825.8,557.43 1827.93,555.148 1830.07,552.884 1832.2,550.638 1834.34,548.411 1836.47,546.202 1838.61,544.013 1840.74,541.842 1842.88,539.691 
  1845.02,537.56 1847.15,535.449 1849.29,533.358 1851.42,531.287 1853.56,529.237 1855.69,527.207 1857.83,525.198 1859.96,523.211 1862.1,521.245 1864.23,519.3 
  1866.37,517.377 1868.5,515.476 1870.64,513.597 1872.78,511.74 1874.91,509.906 1877.05,508.094 1879.18,506.305 1881.32,504.54 1883.45,502.797 1885.59,501.078 
  1887.72,499.382 1889.86,497.71 1891.99,496.062 1894.13,494.438 1896.27,492.838 1898.4,491.263 1900.54,489.712 1902.67,488.185 1904.81,486.684 1906.94,485.207 
  1909.08,483.756 1911.21,482.33 1913.35,480.929 1915.48,479.554 1917.62,478.205 1919.76,476.881 1921.89,475.583 1924.03,474.312 1926.16,473.066 1928.3,471.847 
  1930.43,470.655 1932.57,469.489 1934.7,468.349 1936.84,467.237 1938.97,466.151 1941.11,465.092 1943.24,464.061 1945.38,463.057 1947.52,462.08 1949.65,461.131 
  1951.79,460.209 1953.92,459.314 1956.06,458.448 1958.19,457.609 1960.33,456.798 1962.46,456.015 1964.6,455.26 1966.73,454.533 1968.87,453.835 1971.01,453.165 
  1973.14,452.523 1975.28,451.909 1977.41,451.324 1979.55,450.767 1981.68,450.239 1983.82,449.74 1985.95,449.269 1988.09,448.827 1990.22,448.413 1992.36,448.029 
  1994.5,447.673 1996.63,447.346 1998.77,447.049 2000.9,446.78 2003.04,446.54 2005.17,446.329 2007.31,446.147 2009.44,445.994 2011.58,445.87 2013.71,445.775 
  2015.85,445.709 2017.98,445.672 2020.12,445.665 2022.26,445.686 2024.39,445.737 2026.53,445.816 2028.66,445.925 2030.8,446.063 2032.93,446.229 2035.07,446.425 
  2037.2,446.65 2039.34,446.904 2041.47,447.186 2043.61,447.498 2045.75,447.838 2047.88,448.208 2050.02,448.606 2052.15,449.033 2054.29,449.489 2056.42,449.973 
  2058.56,450.486 2060.69,451.028 2062.83,451.598 2064.96,452.196 2067.1,452.823 2069.24,453.479 2071.37,454.163 2073.51,454.875 2075.64,455.615 2077.78,456.383 
  2079.91,457.179 2082.05,458.003 2084.18,458.855 2086.32,459.735 2088.45,460.642 2090.59,461.577 2092.72,462.54 2094.86,463.53 2097,464.547 2099.13,465.591 
  2101.27,466.663 2103.4,467.761 2105.54,468.886 2107.67,470.038 2109.81,471.217 2111.94,472.422 2114.08,473.654 2116.21,474.911 2118.35,476.195 2120.49,477.505 
  2122.62,478.841 2124.76,480.203 2126.89,481.59 2129.03,483.003 2131.16,484.441 2133.3,485.905 2135.43,487.393 2137.57,488.906 2139.7,490.444 2141.84,492.007 
  2143.98,493.594 2146.11,495.205 2148.25,496.841 2150.38,498.5 2152.52,500.183 2154.65,501.89 2156.79,503.621 2158.92,505.374 2161.06,507.151 2163.19,508.951 
  2165.33,510.773 2167.46,512.618 2169.6,514.485 2171.74,516.375 2173.87,518.286 2176.01,520.22 2178.14,522.174 2180.28,524.151 2182.41,526.148 2184.55,528.167 
  2186.68,530.207 2188.82,532.267 2190.95,534.347 2193.09,536.448 2195.23,538.569 2197.36,540.709 2199.5,542.869 2201.63,545.049 2203.77,547.247 2205.9,549.465 
  2208.04,551.701 2210.17,553.955 2212.31,556.228 2214.44,558.519 2216.58,560.828 2218.72,563.154 2220.85,565.498 2222.99,567.858 2225.12,570.236 2227.26,572.63 
  2229.39,575.041 2231.53,577.467 2233.66,579.91 2235.8,582.368 2237.93,584.842 2240.07,587.331 2242.2,589.834 2244.34,592.353 2246.48,594.886 2248.61,597.432 
  2250.75,599.993 2252.88,602.568 2255.02,605.156 2257.15,607.757 2259.29,610.37 2261.42,612.997 2263.56,615.636 2265.69,618.287 2267.83,620.949 2269.97,623.624 
  2272.1,626.309 2274.24,629.006 2276.37,631.713 2278.51,634.431 2280.64,637.159 2282.78,639.897 2284.91,642.644 2287.05,645.401 2289.18,648.167 2291.32,650.942 
  
  "/>
<path clip-path="url(#clip4300)" d="
M1647.5 372.684 L2280.76 372.684 L2280.76 130.764 L1647.5 130.764  Z
  " fill="#ffffff" fill-rule="evenodd" fill-opacity="1"/>
<polyline clip-path="url(#clip4300)" style="stroke:#000000; stroke-width:4; stroke-opacity:1; fill:none" points="
  1647.5,372.684 2280.76,372.684 2280.76,130.764 1647.5,130.764 1647.5,372.684 
  "/>
<polyline clip-path="url(#clip4300)" style="stroke:#009af9; stroke-width:12; stroke-opacity:1; fill:none" points="
  1671.5,191.244 1815.5,191.244 
  "/>
<g clip-path="url(#clip4300)">
<text style="fill:#000000; fill-opacity:1; font-family:Arial,Helvetica Neue,Helvetica,sans-serif; font-size:48px; text-anchor:start;" transform="rotate(0, 1839.5, 208.744)" x="1839.5" y="208.744">r(t)</text>
</g>
<polyline clip-path="url(#clip4300)" style="stroke:#e26f46; stroke-width:12; stroke-opacity:1; fill:none" points="
  1671.5,251.724 1815.5,251.724 
  "/>
<g clip-path="url(#clip4300)">
<text style="fill:#000000; fill-opacity:1; font-family:Arial,Helvetica Neue,Helvetica,sans-serif; font-size:48px; text-anchor:start;" transform="rotate(0, 1839.5, 269.224)" x="1839.5" y="269.224">y(t)</text>
</g>
<polyline clip-path="url(#clip4300)" style="stroke:#3da44d; stroke-width:12; stroke-opacity:1; fill:none" points="
  1671.5,312.204 1815.5,312.204 
  "/>
<g clip-path="url(#clip4300)">
<text style="fill:#000000; fill-opacity:1; font-family:Arial,Helvetica Neue,Helvetica,sans-serif; font-size:48px; text-anchor:start;" transform="rotate(0, 1839.5, 329.704)" x="1839.5" y="329.704">Analytical Solution</text>
</g>
</svg>
